<svg xmlns="http://www.w3.org/2000/svg" width="170.056" height="20.67" viewBox="0 0 170.056 20.67">
  <g id="Group_541" data-name="Group 541" transform="translate(-93.658 -273.537)">
    <g id="Group_538" data-name="Group 538">
      <path id="Path_5758" data-name="Path 5758" d="M179.21,286.444l-1.669-2.168-.647.8v1.373h-.5v-5h.5v2.874h.013l2.29-2.874h.64l-1.98,2.441,1.98,2.561Z" fill="#1a1818"/>
      <path id="Path_5759" data-name="Path 5759" d="M183.034,286.444v-2.033a1.8,1.8,0,0,0-.079-.547,1.047,1.047,0,0,0-.274-.469,1.177,1.177,0,0,0-1.607,0,1.034,1.034,0,0,0-.27.455,1.749,1.749,0,0,0-.076.525v2.069h-.472v-5h.472v1.778h.013a1.259,1.259,0,0,1,1.138-.567,1.528,1.528,0,0,1,1.211.495,1.843,1.843,0,0,1,.416,1.263v2.033Z" fill="#1a1818"/>
      <path id="Path_5760" data-name="Path 5760" d="M187.538,285.958a1.9,1.9,0,0,1-2.719.007,1.831,1.831,0,0,1-.574-1.346,1.911,1.911,0,0,1,.561-1.382,1.827,1.827,0,0,1,1.366-.584,1.933,1.933,0,0,1,1.366,3.3Zm-.327-2.434a1.382,1.382,0,0,0-1.032-.446,1.365,1.365,0,0,0-1.046.462,1.521,1.521,0,0,0-.416,1.073,1.458,1.458,0,0,0,.426,1.048,1.432,1.432,0,0,0,2.085-.009,1.542,1.542,0,0,0,.409-1.079A1.46,1.46,0,0,0,187.211,283.524Zm-.439-1.4-.58-.491-.594.491h-.617l.98-.844h.445l.967.844Z" fill="#1a1818"/>
      <path id="Path_5761" data-name="Path 5761" d="M191.6,286.444v-2.033a1.8,1.8,0,0,0-.079-.547,1.03,1.03,0,0,0-.274-.469,1.176,1.176,0,0,0-1.606,0,1.026,1.026,0,0,0-.271.455,1.749,1.749,0,0,0-.076.525v2.069h-.472v-3.7h.472v.472h.013a1.259,1.259,0,0,1,1.138-.567,1.528,1.528,0,0,1,1.211.495,1.843,1.843,0,0,1,.416,1.263v2.033Z" fill="#1a1818"/>
      <path id="Path_5762" data-name="Path 5762" d="M196.6,285.863c0,.141,0,.26-.01.36a2.946,2.946,0,0,1-.043.346,1.562,1.562,0,0,1-.284.643,1.733,1.733,0,0,1-1.468.684,2.007,2.007,0,0,1-1.181-.351,1.785,1.785,0,0,1-.71-1.006h.5a1.368,1.368,0,0,0,1.382.931,1.3,1.3,0,0,0,.983-.38,1.378,1.378,0,0,0,.357-1v-.327h-.013a1.326,1.326,0,0,1-.6.574,1.783,1.783,0,0,1-.822.192,1.864,1.864,0,0,1-1.366-.558,1.844,1.844,0,0,1-.567-1.362,1.908,1.908,0,0,1,.561-1.383,1.845,1.845,0,0,1,1.372-.577,1.593,1.593,0,0,1,1.426.756h.013v-.661h.472Zm-.868-2.329a1.421,1.421,0,0,0-2.086,0,1.493,1.493,0,0,0-.418,1.065,1.473,1.473,0,0,0,.418,1.056,1.426,1.426,0,0,0,2.083,0,1.471,1.471,0,0,0,.425-1.056A1.5,1.5,0,0,0,195.731,283.534Z" fill="#1a1818"/>
      <path id="Path_5763" data-name="Path 5763" d="M203.016,285.863c0,.141,0,.26-.01.36a2.743,2.743,0,0,1-.043.346,1.56,1.56,0,0,1-.283.643,1.735,1.735,0,0,1-1.469.684,2.007,2.007,0,0,1-1.181-.351,1.783,1.783,0,0,1-.709-1.006h.5a1.369,1.369,0,0,0,1.383.931,1.3,1.3,0,0,0,.983-.38,1.378,1.378,0,0,0,.356-1v-.327h-.013a1.326,1.326,0,0,1-.6.574,1.776,1.776,0,0,1-.821.192,1.864,1.864,0,0,1-1.366-.558,1.842,1.842,0,0,1-.568-1.362,1.908,1.908,0,0,1,.561-1.383,1.847,1.847,0,0,1,1.373-.577,1.591,1.591,0,0,1,1.425.756h.013v-.661h.472Zm-.868-2.329a1.42,1.42,0,0,0-2.085,0,1.493,1.493,0,0,0-.419,1.065,1.474,1.474,0,0,0,.419,1.056,1.425,1.425,0,0,0,2.082,0,1.468,1.468,0,0,0,.426-1.056A1.5,1.5,0,0,0,202.148,283.534Z" fill="#1a1818"/>
      <path id="Path_5764" data-name="Path 5764" d="M203.911,282.3v-.854h.471v.854Zm0,4.148v-3.7h.471v3.7Z" fill="#1a1818"/>
      <path id="Path_5765" data-name="Path 5765" d="M208.543,286.444v-.651h-.013a1.613,1.613,0,0,1-1.439.74,1.942,1.942,0,0,1-1.408-.558,1.944,1.944,0,0,1,.006-2.772,1.956,1.956,0,0,1,1.4-.55,1.588,1.588,0,0,1,1.439.742h.013v-.647h.475v3.7Zm-.4-2.913a1.4,1.4,0,0,0-1.056-.453,1.456,1.456,0,0,0-1.085.436,1.492,1.492,0,0,0-.429,1.092,1.455,1.455,0,0,0,.432,1.076,1.482,1.482,0,0,0,1.082.425,1.415,1.415,0,0,0,1.056-.446,1.467,1.467,0,0,0,.426-1.062A1.489,1.489,0,0,0,208.147,283.531Z" fill="#1a1818"/>
      <path id="Path_5766" data-name="Path 5766" d="M212.651,286.444v-2.033a1.831,1.831,0,0,0-.079-.547,1.039,1.039,0,0,0-.274-.469,1.177,1.177,0,0,0-1.607,0,1.045,1.045,0,0,0-.271.455,1.781,1.781,0,0,0-.075.525v2.069h-.472v-3.7h.472v.472h.013a1.258,1.258,0,0,1,1.138-.567,1.528,1.528,0,0,1,1.211.495,1.848,1.848,0,0,1,.416,1.263v2.033Z" fill="#1a1818"/>
      <path id="Path_5767" data-name="Path 5767" d="M219.124,286.444v-.651h-.013a1.623,1.623,0,0,1-1.438.74,1.943,1.943,0,0,1-1.409-.558,1.946,1.946,0,0,1,.006-2.772,1.959,1.959,0,0,1,1.4-.55,1.634,1.634,0,0,1,1.438.729h.013v-1.94h.476v5Zm-.4-2.913a1.4,1.4,0,0,0-1.055-.453,1.458,1.458,0,0,0-1.086.436,1.492,1.492,0,0,0-.429,1.092,1.455,1.455,0,0,0,.432,1.076,1.483,1.483,0,0,0,1.083.425,1.414,1.414,0,0,0,1.055-.446,1.467,1.467,0,0,0,.426-1.062A1.489,1.489,0,0,0,218.728,283.531Zm1.294-1.581v.461h-2.059v-.461Z" fill="#1a1818"/>
      <path id="Path_5768" data-name="Path 5768" d="M224.156,284.768h-3.365a1.339,1.339,0,0,0,.458.943,1.4,1.4,0,0,0,.977.4,1.444,1.444,0,0,0,.8-.231,1.273,1.273,0,0,0,.525-.643h.5a1.919,1.919,0,0,1-.706.94,1.925,1.925,0,0,1-3.039-1.574,1.891,1.891,0,0,1,.561-1.369,1.89,1.89,0,0,1,2.732.014,1.928,1.928,0,0,1,.564,1.388Zm-.478-.426a1.513,1.513,0,0,0-.491-.9,1.444,1.444,0,0,0-1.908,0,1.493,1.493,0,0,0-.488.9Zm-1.693,3.372v-.854h.5v.854Z" fill="#1a1818"/>
      <path id="Path_5769" data-name="Path 5769" d="M228.211,285.975a1.942,1.942,0,0,1-1.408.558,1.646,1.646,0,0,1-1.442-.74h-.013v1.948h-.473v-4.993h.473v.647h.013a1.669,1.669,0,0,1,1.442-.742,1.946,1.946,0,0,1,1.4.55,1.94,1.94,0,0,1,.009,2.772Zm-.323-2.461a1.457,1.457,0,0,0-1.085-.436,1.4,1.4,0,0,0-1.056.453,1.489,1.489,0,0,0-.426,1.068,1.467,1.467,0,0,0,.426,1.062,1.415,1.415,0,0,0,1.056.446,1.465,1.465,0,0,0,1.51-1.5A1.5,1.5,0,0,0,227.888,283.514Z" fill="#1a1818"/>
      <path id="Path_5770" data-name="Path 5770" d="M235.533,286.526l-1.142-1.116a2.5,2.5,0,0,1-.6.79,1.412,1.412,0,0,1-.924.326,1.537,1.537,0,0,1-1.1-.442A1.442,1.442,0,0,1,231.3,285a1.373,1.373,0,0,1,.34-.921,2.341,2.341,0,0,1,.815-.567,2.455,2.455,0,0,1-.393-.465,1.091,1.091,0,0,1-.168-.581,1.017,1.017,0,0,1,.37-.8,1.22,1.22,0,0,1,.834-.31,1.16,1.16,0,0,1,.835.34,1.108,1.108,0,0,1,.36.828,1.024,1.024,0,0,1-.3.716,1.631,1.631,0,0,1-.673.419l.947.934.73-1.406h.56l-.924,1.762,1.264,1.231Zm-2.722-2.656a1.737,1.737,0,0,0-.7.429,1.014,1.014,0,0,0-.317.726.989.989,0,0,0,.307.722,1.01,1.01,0,0,0,1.456-.012,1.959,1.959,0,0,0,.251-.321q.088-.141.2-.363Zm.765-1.864a.71.71,0,0,0-.488-.179.73.73,0,0,0-.482.175.579.579,0,0,0-.214.456.783.783,0,0,0,.191.475,2.041,2.041,0,0,0,.185.2c.05.049.114.107.191.175.123-.048.221-.09.294-.125a1.335,1.335,0,0,0,.267-.162.667.667,0,0,0,.271-.544A.6.6,0,0,0,233.576,282.006Z" fill="#1a1818"/>
      <path id="Path_5771" data-name="Path 5771" d="M240.148,284.774v1.67h-.5v-1.67l-1.735-3.332h.554l1.425,2.8,1.465-2.8h.548Z" fill="#1a1818"/>
      <path id="Path_5772" data-name="Path 5772" d="M246.008,284.768h-3.365a1.336,1.336,0,0,0,.459.943,1.4,1.4,0,0,0,.976.4,1.444,1.444,0,0,0,.8-.231,1.273,1.273,0,0,0,.525-.643h.5a1.919,1.919,0,0,1-.706.94,1.925,1.925,0,0,1-3.039-1.574,1.891,1.891,0,0,1,.561-1.369,1.89,1.89,0,0,1,2.732.014,1.928,1.928,0,0,1,.564,1.388Zm-.478-.426a1.513,1.513,0,0,0-.491-.9,1.444,1.444,0,0,0-1.908,0,1.493,1.493,0,0,0-.488.9Zm-.838-2.218-.581-.491-.594.491H242.9l.98-.844h.446l.966.844Z" fill="#1a1818"/>
      <path id="Path_5773" data-name="Path 5773" d="M249.512,286.444v-2.033a1.8,1.8,0,0,0-.079-.547,1.03,1.03,0,0,0-.274-.469,1.176,1.176,0,0,0-1.606,0,1.036,1.036,0,0,0-.271.455,1.749,1.749,0,0,0-.076.525v2.069h-.472v-3.7h.472v.472h.013a1.259,1.259,0,0,1,1.138-.567,1.528,1.528,0,0,1,1.211.495,1.843,1.843,0,0,1,.416,1.263v2.033Z" fill="#1a1818"/>
      <path id="Path_5774" data-name="Path 5774" d="M253.63,283.174v3.27h-.472v-3.27h-.779v-.426h.779v-1.306h.472v1.306h.884v.426Z" fill="#1a1818"/>
      <path id="Path_5775" data-name="Path 5775" d="M256.471,281.98a1.142,1.142,0,0,1-.663.264,1.016,1.016,0,0,1-.281-.043,2.378,2.378,0,0,1-.244-.1l-.227-.1a.732.732,0,0,0-.228-.043.659.659,0,0,0-.452.2l-.238-.336a1,1,0,0,1,.7-.284.939.939,0,0,1,.271.043c.061.02.141.052.241.1l.026.013a.107.107,0,0,1,.03.013l.056.024.109.046a.722.722,0,0,0,.227.043.478.478,0,0,0,.221-.06l.155-.086.05-.029Zm-1.455,4.464v-3.7h.472v3.7Z" fill="#1a1818"/>
      <path id="Path_5776" data-name="Path 5776" d="M259.144,286.444v-2.033a1.8,1.8,0,0,0-.08-.547,1.037,1.037,0,0,0-.273-.469,1.177,1.177,0,0,0-1.607,0,1.045,1.045,0,0,0-.271.455,1.782,1.782,0,0,0-.076.525v2.069h-.471v-3.7h.471v.472h.014a1.258,1.258,0,0,1,1.138-.567,1.528,1.528,0,0,1,1.211.495,1.848,1.848,0,0,1,.416,1.263v2.033Z" fill="#1a1818"/>
      <path id="Path_5777" data-name="Path 5777" d="M263.242,286.444v-2.033a1.83,1.83,0,0,0-.079-.547,1.048,1.048,0,0,0-.274-.469,1.177,1.177,0,0,0-1.607,0,1.045,1.045,0,0,0-.271.455,1.749,1.749,0,0,0-.075.525v2.069h-.473v-5h.473v1.778h.013a1.258,1.258,0,0,1,1.138-.567,1.529,1.529,0,0,1,1.211.495,1.847,1.847,0,0,1,.416,1.263v2.033Z" fill="#1a1818"/>
    </g>
    <g id="Group_540" data-name="Group 540">
      <g id="Group_539" data-name="Group 539">
        <path id="Path_5778" data-name="Path 5778" d="M103.639,275.677a8.079,8.079,0,0,0-2.932,2.7,9.3,9.3,0,0,0-1.75,5.32,3.13,3.13,0,0,0,.988,2.489,5.166,5.166,0,0,0,3.5,1.081,6.2,6.2,0,0,0,5.546-2.717,7.463,7.463,0,0,0,1.194-3.251,2.477,2.477,0,0,1,.267,1.05q0,1.512-2.058,3.5A7.824,7.824,0,0,1,103,288.4a6.253,6.253,0,0,1-3.931-1.235,3.7,3.7,0,0,1-1.388-3.118,8.918,8.918,0,0,1,1.11-4.177,11.2,11.2,0,0,1,4.281-4.341,15.817,15.817,0,0,0-4.044-.731,4.611,4.611,0,0,0-3.354,1.26,4.408,4.408,0,0,0-1.3,3.308,7.023,7.023,0,0,0,.246,1.729,1.981,1.981,0,0,1-.967-1.77,5.189,5.189,0,0,1,1.739-3.508,6.1,6.1,0,0,1,4.424-2.12,18.777,18.777,0,0,1,4.97,1.008q.062-.02,1.625-.555a11.245,11.245,0,0,1,3.664-.618,5.938,5.938,0,0,1,2.366.412,1.4,1.4,0,0,1,1.008,1.286q0,1.01-1.81,1.492a5.359,5.359,0,0,0-1.6.638l-.31-.082q-1.048-.258-3.137-.783Zm1.841-.792a21.847,21.847,0,0,0,5.937,1.307,2.943,2.943,0,0,0,.936-.144q.608-.216.607-.618,0-.719-1.368-1.11a6.915,6.915,0,0,0-1.924-.279A10.709,10.709,0,0,0,105.48,274.885Z" fill="#e3031b"/>
        <path id="Path_5779" data-name="Path 5779" d="M117.21,286.789l.185.268a8.144,8.144,0,0,1-2.953,1.275,10.94,10.94,0,0,1,1.214-3.58,14.935,14.935,0,0,1-2.552,2.459,4.736,4.736,0,0,1-2.4,1.163q-.72,0-.72-.916a6.275,6.275,0,0,1,2.233-4.321,11.168,11.168,0,0,1,5.792-3.159,8.159,8.159,0,0,1,1.544-.175q.339,0,.339.247a2.053,2.053,0,0,1-.3.782,8.447,8.447,0,0,0-1.461-.124,6.577,6.577,0,0,0-3.159.773,7.782,7.782,0,0,0-3.241,3.179,4.179,4.179,0,0,0-.566,2q0,.864.607.864a2.691,2.691,0,0,0,1.472-.885,10.35,10.35,0,0,0,1.2-1.317,10.188,10.188,0,0,0,1.964-4.125,1.034,1.034,0,0,1,.443.967,3.916,3.916,0,0,1-1.008,2.3,5.039,5.039,0,0,0,1.214-.278,13.772,13.772,0,0,0-1.06,2.737.246.246,0,0,0,.278.278A2.793,2.793,0,0,0,117.21,286.789Zm-5.5,3.314q.464,0,.464.483a.669.669,0,0,1-.211.473.645.645,0,0,1-.469.217.432.432,0,0,1-.493-.485.649.649,0,0,1,.216-.483A.694.694,0,0,1,111.715,290.1Zm6.41-14.6v.227q0,1.77.083,2.84-.051.03-.564.431a2.684,2.684,0,0,0-.4.371v-.627q0-1.255-.237-1.255-.165,0-.823.719-.751.823-1.142.824a.545.545,0,0,1-.257-.073q.164-.134.8-.678A18.815,18.815,0,0,0,118.125,275.5Z" fill="#e3031b"/>
        <path id="Path_5780" data-name="Path 5780" d="M125.163,286.871l.165.279a7.136,7.136,0,0,1-2.922,1.234q.2-1.738,2.664-6.431a2.572,2.572,0,0,0,.34-.843c0-.185-.076-.278-.226-.278q-.463,0-1.719,1.16a15.942,15.942,0,0,0-4.156,5.9,8.962,8.962,0,0,0-1.369.492q.658-1.344,1.626-3.652a15.849,15.849,0,0,0,1.245-3.551c0-.232-.1-.349-.3-.349a4.392,4.392,0,0,0-.783.185l-.061-.329a20.077,20.077,0,0,0,2.737-.987,1.307,1.307,0,0,1,.02.184,14.706,14.706,0,0,1-1.491,4.209l.144-.165q3.672-4.155,5.38-4.156.5,0,.5.534a12.309,12.309,0,0,1-1.349,3.134,19.745,19.745,0,0,0-1.615,3.513c0,.2.093.3.278.3A1.67,1.67,0,0,0,125.163,286.871Z" fill="#e3031b"/>
        <path id="Path_5781" data-name="Path 5781" d="M138.631,286.9l.185.267a19.836,19.836,0,0,1-2.87,1.214q.112-1.615,2.222-6.111a2.856,2.856,0,0,0,.33-.968c0-.2-.079-.3-.237-.3q-.752,0-2.572,2.151a19.529,19.529,0,0,0-3.046,4.67,3.542,3.542,0,0,0-1.337.413q.587-1.379,2.615-6.493l1.778-4.506a4.677,4.677,0,0,0,.329-1.307q0-.381-.329-.381a3.213,3.213,0,0,0-.741.206l-.1-.3a16.22,16.22,0,0,0,2.655-1.193c.007.13.01.226.01.288a7.841,7.841,0,0,1-.574,2.449q-1.02,2.808-3.11,7.675l-.126.287q1.164-1.44,1.657-2a16.342,16.342,0,0,1,1.853-1.81,4.611,4.611,0,0,1,2.317-1.286.419.419,0,0,1,.473.474,12.251,12.251,0,0,1-1.008,2.6,20.116,20.116,0,0,0-1.616,4.125c0,.152.079.227.237.227A2.706,2.706,0,0,0,138.631,286.9Z" fill="#e3031b"/>
        <path id="Path_5782" data-name="Path 5782" d="M148.1,279.875q-.535,1.029-1.584,3.478a16.023,16.023,0,0,0-1.215,3.323c0,.206.114.309.34.309a2.449,2.449,0,0,0,.823-.206l.134.278a26.111,26.111,0,0,1-2.758,1.152,15.687,15.687,0,0,1,1.029-3.581,13.46,13.46,0,0,1-3.159,3.077,2.68,2.68,0,0,1-1.316.5q-.68,0-.68-.741a7.916,7.916,0,0,1,.865-2.675l1.235-2.531a3.36,3.36,0,0,0,.4-1.152.3.3,0,0,0-.35-.339,2.4,2.4,0,0,0-.587.123l-.082-.309a21.654,21.654,0,0,0,2.562-.884,6.767,6.767,0,0,1-.71,2.334q-.555,1.1-1.1,2.2a9.437,9.437,0,0,0-1.028,2.6q0,.422.391.422.976,0,2.726-2.223a18.685,18.685,0,0,0,2.675-4.784A5.243,5.243,0,0,0,148.1,279.875Zm1.235-1.43c.006.137.01.237.01.3a4.362,4.362,0,0,1-.638,2.15,6.4,6.4,0,0,1-1.44,1.739,8.035,8.035,0,0,0,.925-2.819Z" fill="#e3031b"/>
        <path id="Path_5783" data-name="Path 5783" d="M156.3,278.445c.007.137.011.237.011.3a4.345,4.345,0,0,1-.587,2.068,6.539,6.539,0,0,1-1.358,1.708v.051q.021,1.717-2.089,3.694-2.211,2.067-3.672,2.067a1.239,1.239,0,0,1-.983-.431,1.547,1.547,0,0,1-.376-1.05,5.954,5.954,0,0,1,1.641-3.863,9.183,9.183,0,0,1,3.864-2.732,5.342,5.342,0,0,1,1.739-.391c.322,0,.483.133.483.4a1.637,1.637,0,0,1-.134.505q-.555-.053-.956-.052A4.622,4.622,0,0,0,150,282.5a8.032,8.032,0,0,0-1.06,1.883,5.617,5.617,0,0,0-.5,2.088,1.224,1.224,0,0,0,.278.823.94.94,0,0,0,.761.329q1.122,0,2.49-1.892a5.2,5.2,0,0,0,1.173-2.943q0-.792-.577-.793-.822,0-1.574,1.647a1.621,1.621,0,0,1-.051-.36,1.51,1.51,0,0,1,.5-1.049,2.694,2.694,0,0,1,1.77-.988,1.033,1.033,0,0,1,.777.329,1.343,1.343,0,0,1,.365.8,7.552,7.552,0,0,0,.8-2.561Zm-2.848-1.5h-.207a5.173,5.173,0,0,0,.267-.751,2.9,2.9,0,0,1,1.142-.329,1.408,1.408,0,0,1,1.039.422.764.764,0,0,1,.247.555,1.676,1.676,0,0,1-.391,1.039,2.417,2.417,0,0,1-1.049.679,4.562,4.562,0,0,0-.638.319.3.3,0,0,0-.133.216c0,.138.109.2.329.186a1.319,1.319,0,0,1-.824.174.228.228,0,0,1-.226-.247.984.984,0,0,1,.331-.678,1.187,1.187,0,0,1,.434-.288q.342-.114.672-.227a1.146,1.146,0,0,0,.563-.391.916.916,0,0,0,.161-.525q0-.657-.911-.658a.779.779,0,0,0-.661.226A1.738,1.738,0,0,0,153.449,276.943Z" fill="#e3031b"/>
        <path id="Path_5784" data-name="Path 5784" d="M161.226,286.871l.165.279a7.136,7.136,0,0,1-2.922,1.234q.2-1.738,2.664-6.431a2.572,2.572,0,0,0,.34-.843c0-.185-.076-.278-.226-.278q-.463,0-1.719,1.16a15.942,15.942,0,0,0-4.156,5.9,8.962,8.962,0,0,0-1.369.492q.658-1.344,1.626-3.652a15.849,15.849,0,0,0,1.245-3.551c0-.232-.1-.349-.3-.349a4.392,4.392,0,0,0-.783.185l-.061-.329a20.076,20.076,0,0,0,2.737-.987,1.307,1.307,0,0,1,.02.184A14.706,14.706,0,0,1,157,284.094l.144-.165q3.672-4.155,5.38-4.156.5,0,.495.534a12.309,12.309,0,0,1-1.349,3.134,19.745,19.745,0,0,0-1.615,3.513c0,.2.093.3.278.3A1.67,1.67,0,0,0,161.226,286.871Z" fill="#e3031b"/>
        <path id="Path_5785" data-name="Path 5785" d="M168.984,284.66a24.071,24.071,0,0,1-2.542,6.09,8.545,8.545,0,0,1-2.284,2.326,5.318,5.318,0,0,1-3.014,1.131q-1.224,0-1.225-.966a1.247,1.247,0,0,1,.114-.484,2.96,2.96,0,0,0,1.944.74q2.306,0,3.889-3.312a26.874,26.874,0,0,0,1.76-5.083,18.508,18.508,0,0,1-2.089,2.017,4.592,4.592,0,0,1-2.469,1.317q-.885,0-.885-1.1a6.035,6.035,0,0,1,1.77-3.745A11.143,11.143,0,0,1,167.3,280.9a8.7,8.7,0,0,1,4.126-1.071q.69,0,.69.37a2.476,2.476,0,0,1-.217.71,7.755,7.755,0,0,0-1.254-.092,8.377,8.377,0,0,0-3.633.689,6.837,6.837,0,0,0-3.066,3.066,4.405,4.405,0,0,0-.617,2.006q0,.969.638.968.71,0,1.831-1.183a12.1,12.1,0,0,0,1.4-1.791,8.343,8.343,0,0,0,1.234-2.953,1.225,1.225,0,0,1,.422.926,4.338,4.338,0,0,1-1.018,2.284l.123-.02.432-.062Z" fill="#e3031b"/>
      </g>
    </g>
  </g>
</svg>
