
<svg xmlns="http://www.w3.org/2000/svg" xmlns:xlink="http://www.w3.org/1999/xlink" width="284" height="233" viewBox="0 0 284 233">
  <defs>
    <clipPath id="clip-Web_1920_1">
      <rect width="284" height="233"/>
    </clipPath>
  </defs>
  <g id="Web_1920_1" data-name="Web 1920 – 1" clip-path="url(#clip-Web_1920_1)">
    <path id="Path_1" data-name="Path 1" d="M822.806,131.834H662.664v30.905l160.142-20.491Z" transform="translate(-600.467 -131.834)" fill="#e3031b"/>
    <path id="Path_2" data-name="Path 2" d="M882.9,204.02l-283.465,42.8V177.136L882.9,139.286Z" transform="translate(-598.901 -129.834)" fill="#6db22f"/>
    <g id="Group_1" data-name="Group 1" transform="translate(-600.013 -130.303)">
      <g id="Group_495" data-name="Group 495">
        <path id="Path_5646" data-name="Path 5646" d="M635.4,194.562l-4.518.674-4.935-5.943-.154,6.7-3.522.526.347-15.036,3.521-.526-.149,6.471,5.411-7.256,4.285-.639-6.125,8.226Z" fill="#ffe000"/>
        <path id="Path_5647" data-name="Path 5647" d="M645.548,193.047l-3.319.5.154-6.7q.024-1-.293-1.25a1.128,1.128,0,0,0-.466-.182,3.132,3.132,0,0,0-.8.04l-1.963.313-.192,8.313-3.28.489.347-15.036,3.28-.489-.09,3.885,2.2-.329a4.807,4.807,0,0,1,3.545.435,3.46,3.46,0,0,1,1.018,3.006Z" fill="#ffe000"/>
        <path id="Path_5648" data-name="Path 5648" d="M658.205,191.149l-7.747,1.156a3.2,3.2,0,0,1-2.536-.485,2.636,2.636,0,0,1-.9-2.323,3.965,3.965,0,0,1,1.115-2.944,6.332,6.332,0,0,1,3.426-1.354l3.42-.511a1.133,1.133,0,0,0-.447-1.086,3.344,3.344,0,0,0-1.813-.051l-4.879.728.062-2.7,5.935-.885a4.479,4.479,0,0,1,3.417.533,3.422,3.422,0,0,1,1.1,3ZM654.885,189l.038-1.671-3.028.452a2.811,2.811,0,0,0-1.181.352.965.965,0,0,0-.288.771.707.707,0,0,0,.178.575.7.7,0,0,0,.363.066,4.657,4.657,0,0,0,.679-.062Z" fill="#ffe000"/>
        <path id="Path_5649" data-name="Path 5649" d="M663.556,190.36l-3.44.513.258-11.161,3.44-.513Zm.274-11.857-3.441.514.073-3.18,3.441-.513Z" fill="#ffe000"/>
        <path id="Path_5650" data-name="Path 5650" d="M682.554,175.609l-4.679.7-.275,11.957-3.621.541.265-11.956-4.637.692.071-3.058,12.947-1.932Z" fill="#ffe000"/>
        <path id="Path_5651" data-name="Path 5651" d="M691.234,180.062l-3.169.473.038-1.651q.012-.494-.112-.591a.459.459,0,0,0-.3-.09c-.121,0-.3.025-.533.06l-.725.108-.2,8.6-3.3.493.258-11.162,4.93-.735a3.17,3.17,0,0,1,2.439.3,1.728,1.728,0,0,1,.527.8,3.778,3.778,0,0,1,.174,1.348Z" fill="#ffe000"/>
        <path id="Path_5652" data-name="Path 5652" d="M702.6,175.006l-.221,9.551-5.493.82a4.6,4.6,0,0,1-3.477-.465,3.433,3.433,0,0,1-1.043-3l.162-6.995,3.268-.488-.156,6.763c-.015.644.076,1.043.274,1.193.169.17.586.2,1.251.1l1.991-.3.191-8.293,3.19-.476.071-.081.012-.484-1.1.164.046-2,2.887-.431-.025,1.037a3.569,3.569,0,0,1-.387,1.6A5.839,5.839,0,0,1,702.6,175.006Z" fill="#ffe000"/>
        <path id="Path_5653" data-name="Path 5653" d="M713.993,173.085a4.768,4.768,0,0,1,1.482,3.952,6.611,6.611,0,0,1-1.686,4.423,6.9,6.9,0,0,1-4.282,2.2,5.025,5.025,0,0,1-4.219-.935,4.7,4.7,0,0,1-1.494-3.948,6.628,6.628,0,0,1,1.687-4.415,6.861,6.861,0,0,1,4.292-2.205,5.783,5.783,0,0,1,3.241.309l.709-.788.012-.483-1.1.163.046-2,2.887-.43-.025,1.037a3.567,3.567,0,0,1-.386,1.6A5.021,5.021,0,0,1,713.993,173.085Zm-1.938,4.462a2.774,2.774,0,0,0-.635-2.082,1.778,1.778,0,0,0-1.732-.525,2.567,2.567,0,0,0-1.768,1.047,3.716,3.716,0,0,0-.684,2.279,4.225,4.225,0,0,0,.122,1.235,1.988,1.988,0,0,0,.461.885,1.853,1.853,0,0,0,1.732.5,2.567,2.567,0,0,0,1.768-1.025A3.764,3.764,0,0,0,712.055,177.547Z" fill="#ffe000"/>
        <path id="Path_5654" data-name="Path 5654" d="M726.7,180.937l-3.3.492.154-6.692q.025-1.066-.271-1.314a2.039,2.039,0,0,0-1.273-.072l-1.981.3-.192,8.314-3.3.492.258-11.161,5.484-.818q2.512-.375,3.562.446a3.523,3.523,0,0,1,1,3.005Z" fill="#ffe000"/>
        <path id="Path_5655" data-name="Path 5655" d="M738.961,178.446a5.53,5.53,0,0,1-1.14,3.566,5.053,5.053,0,0,1-3.229,1.59l-5.684.848.061-2.657,5.212-.778a1.745,1.745,0,0,0,1.074-.521,1.43,1.43,0,0,0,.374-1l0,.1-2.021.3a7.876,7.876,0,0,1-2.569.093,3.369,3.369,0,0,1-1.541-.748,4.145,4.145,0,0,1-1.189-1.693,7.008,7.008,0,0,1-.338-2.357,7.814,7.814,0,0,1,.448-2.465,9.044,9.044,0,0,1,.558-1.135,6.143,6.143,0,0,1,.724-.931,5.706,5.706,0,0,1,1.661-1.22,8.783,8.783,0,0,1,2.5-.685l5.341-.8Zm-3.272-1.567.131-5.648-1.2.179-.806.12a3.021,3.021,0,0,0-.574.127c-.142.061-.261.111-.356.153a1.374,1.374,0,0,0-.355.223,2.616,2.616,0,0,0-.845.988,4.273,4.273,0,0,0-.3,1.66,2.7,2.7,0,0,0,.582,2.141,3.68,3.68,0,0,0,2.522.235Z" fill="#ffe000"/>
      </g>
      <g id="Group_497" data-name="Group 497">
        <g id="Group_496" data-name="Group 496">
          <path id="Path_5656" data-name="Path 5656" d="M663.636,209.005a11.155,11.155,0,0,1-2.9,7.336,11.274,11.274,0,0,1-6.964,3.8,8.073,8.073,0,0,1-6.73-1.717,7.641,7.641,0,0,1-2.646-6.33,10.487,10.487,0,0,1,3-7.115,11.538,11.538,0,0,1,6.877-3.628,8.607,8.607,0,0,1,5.526.922,6.523,6.523,0,0,1,3.36,4.121l-5.172.772a3.548,3.548,0,0,0-3.926-1.744,5.6,5.6,0,0,0-3.611,2.084,6.224,6.224,0,0,0-1.445,3.9,4.809,4.809,0,0,0,1.236,3.617,3.908,3.908,0,0,0,3.6,1.066,5.807,5.807,0,0,0,2.708-1.1,4.635,4.635,0,0,0,1.672-2.448l-5.387.8.085-3.683,10.714-1.6c.005.141.009.3.014.473Z" fill="#291d16"/>
          <path id="Path_5657" data-name="Path 5657" d="M665.8,217.973l.416-18.075,4.613-.689-.416,18.076Z" fill="#291d16"/>
          <path id="Path_5658" data-name="Path 5658" d="M685.327,215.06l-.823-2.48-6.269.935-1.013,2.754-4.958.74,7.662-19.157,3.636-.542,6.77,17Zm-.6-21.548a5.492,5.492,0,0,1-.356.516c-.115.143-.252.3-.415.477l-.414.443a5.009,5.009,0,0,0-.378.425,1.673,1.673,0,0,0-.412.869l-2.073.31a2.318,2.318,0,0,1,.346-1.121,4.565,4.565,0,0,1,.344-.479c.1-.125.224-.276.377-.449l.391-.427c.139-.164.248-.3.33-.418a1.5,1.5,0,0,0,.339-.821q.018-.74-.673-.637a.841.841,0,0,0-.688.46,1.743,1.743,0,0,0-.161.807l-2.181.325a.381.381,0,0,1-.01-.105l0-.107a3.358,3.358,0,0,1,.956-2.295,3.825,3.825,0,0,1,2.247-1.142,2.234,2.234,0,0,1,2.541,1.046,2.036,2.036,0,0,1,.261,1.055A2.6,2.6,0,0,1,684.73,193.512Zm-3.073,9.691-.072.011-2,6.453,3.791-.566Z" fill="#291d16"/>
          <path id="Path_5659" data-name="Path 5659" d="M706.994,211.827l.455-13.554-.047-.041-4.162,14.155-3.051.455-3.549-13-.049.055-.169,13.511-4.243.633.416-18.075,5.936-.885,3.313,11.363.048-.007,3.815-12.427,5.946-.888-.416,18.075Z" fill="#291d16"/>
          <path id="Path_5660" data-name="Path 5660" d="M740.7,197.506a11.164,11.164,0,0,1-2.9,7.335,11.276,11.276,0,0,1-6.965,3.8,8.075,8.075,0,0,1-6.73-1.717,7.646,7.646,0,0,1-2.645-6.33,10.491,10.491,0,0,1,3-7.115,11.548,11.548,0,0,1,6.877-3.628,8.611,8.611,0,0,1,5.527.922,6.525,6.525,0,0,1,3.36,4.121l-5.173.772a3.548,3.548,0,0,0-3.926-1.744A5.6,5.6,0,0,0,727.514,196a6.215,6.215,0,0,0-1.444,3.9,4.815,4.815,0,0,0,1.235,3.618,3.913,3.913,0,0,0,3.6,1.066,5.84,5.84,0,0,0,2.709-1.1,4.643,4.643,0,0,0,1.671-2.449l-5.387.8.085-3.684,10.715-1.6c.005.142.009.3.013.473Z" fill="#291d16"/>
          <path id="Path_5661" data-name="Path 5661" d="M742.868,206.473l.416-18.075,4.612-.688-.416,18.075Z" fill="#291d16"/>
          <path id="Path_5662" data-name="Path 5662" d="M762.389,203.56l-.822-2.48-6.27.936-1.012,2.753-4.958.74,7.662-19.156,3.635-.543,6.771,17ZM756.867,185.5l-1.088-2.227,5.923-4.02,1.233,2.692Zm1.852,6.2-.071.011-2,6.453,3.79-.565Z" fill="#291d16"/>
        </g>
      </g>
      <g id="Group_499" data-name="Group 499">
        <g id="Group_498" data-name="Group 498">
          <path id="Path_5663" data-name="Path 5663" d="M774.518,201.257l.2-8.53q2.155-1.707,3.594-2.88,1.9-1.554,3.427-2.941a60.574,60.574,0,0,0,6.335-6.593q1.1-1.321,2.036-2.619,1.137-1.582,1.989-3.037a13.617,13.617,0,0,0,2.147-6.194q.1-4.165-3.954-3.562a5.089,5.089,0,0,0-3.931,2.762,11.823,11.823,0,0,0-1.153,4.747l-10.453,1.559a27.271,27.271,0,0,1,.685-5.213,17.167,17.167,0,0,1,2.091-5.028,17.517,17.517,0,0,1,5.865-5.817,19.969,19.969,0,0,1,7.516-2.7,15.561,15.561,0,0,1,7.859.636,9.582,9.582,0,0,1,5.477,4.886,10.88,10.88,0,0,1,.991,4.766,19.1,19.1,0,0,1-1.483,6.774,31.659,31.659,0,0,1-3.534,6.345,60.355,60.355,0,0,1-4.706,5.813q-1.131,1.24-2.547,2.7-.985,1.052-2.515,2.549l14.56-2.172-.213,9.238Z" fill="#fff"/>
          <path id="Path_5664" data-name="Path 5664" d="M841.666,175.788a19.806,19.806,0,0,1-2.3,9.07,19.74,19.74,0,0,1-13.913,9.616,15.779,15.779,0,0,1-6.511-.356q-9.538-2.613-9.285-13.553l.275-11.959a18.064,18.064,0,0,1,10.033-16.464,20.237,20.237,0,0,1,6.516-2.243,15.518,15.518,0,0,1,6.54.408q9.169,2.671,8.919,13.523Zm-10.68-10.606a7.317,7.317,0,0,0-.917-4.3q-1.228-1.738-3.978-1.328a5.455,5.455,0,0,0-3.982,2.543,8.932,8.932,0,0,0-1.207,4.585l-.288,12.526a7.059,7.059,0,0,0,1,4.284,3.717,3.717,0,0,0,3.892,1.367,5.472,5.472,0,0,0,4.068-2.526,9.388,9.388,0,0,0,1.123-4.63Z" fill="#fff"/>
          <path id="Path_5665" data-name="Path 5665" d="M851.437,153.511a4.816,4.816,0,0,1-2.945,1.648,3.453,3.453,0,0,1-2.9-.776,3.355,3.355,0,0,1-1.145-2.748,5.143,5.143,0,0,1,4.235-4.769,3.369,3.369,0,0,1,4.033,3.535A4.737,4.737,0,0,1,851.437,153.511Zm-2.812-4.1a1.719,1.719,0,0,0-1.63,1.842q-.036,1.593,1.556,1.356a1.721,1.721,0,0,0,1.619-1.852Q850.208,149.176,848.625,149.413Zm2.294,14.409-2.636.393,7.415-18.061,2.67-.4ZM861,161.433a4.774,4.774,0,0,1-2.944,1.67,3.418,3.418,0,0,1-2.91-.785,3.343,3.343,0,0,1-1.155-2.758,4.731,4.731,0,0,1,1.29-3.122,4.821,4.821,0,0,1,2.967-1.662,3.389,3.389,0,0,1,2.9.8,3.352,3.352,0,0,1,1.144,2.747A4.742,4.742,0,0,1,861,161.433Zm-2.811-4.1a1.727,1.727,0,0,0-1.642,1.844q-.036,1.606,1.568,1.366a1.713,1.713,0,0,0,1.619-1.841Q859.771,157.1,858.19,157.334Z" fill="#fff"/>
        </g>
      </g>
    </g>
    <g id="Group_2" data-name="Group 2" transform="translate(-600.467 -128.281)">
      <path id="Path_5424" data-name="Path 5424" d="M822.806,361.8H662.664V242.4l160.142-24.162Z" fill="#e3031b"/>
      <g id="Group_489" data-name="Group 489" transform="translate(0.022 6.448)">
        <circle id="Ellipse_17" data-name="Ellipse 17" cx="21.207" cy="21.207" r="21.207" transform="translate(641.435 249.456)" fill="#ffe000"/>
        <g id="Group_488" data-name="Group 488">
          <path id="Path_5617" data-name="Path 5617" d="M653.872,264.038v-2.491a1.527,1.527,0,0,1,.459-1.193,1.672,1.672,0,0,1,1.17-.392,1.7,1.7,0,0,1,1.18.4,1.511,1.511,0,0,1,.446,1.18v.507h-1.264v-.617a.994.994,0,0,0-.04-.315.32.32,0,0,0-.322-.185.329.329,0,0,0-.319.178,1.043,1.043,0,0,0-.047.322v2.712a.739.739,0,0,0,.084.385.37.37,0,0,0,.6-.077,1,1,0,0,0,.047-.308v-.8h1.264v.694a1.537,1.537,0,0,1-.439,1.154,1.852,1.852,0,0,1-2.371.006A1.528,1.528,0,0,1,653.872,264.038Z" fill="#040505"/>
          <path id="Path_5618" data-name="Path 5618" d="M657.687,265.537v-5.488h1.263V262.1h.728v-2.055h1.264v5.488h-1.264V263.2h-.728v2.337Z" fill="#040505"/>
          <path id="Path_5619" data-name="Path 5619" d="M661.542,260.042h1.264v5.495h-1.264Zm.385-.288a.853.853,0,0,1,.138-.409l.261-.329a.519.519,0,0,0,.145-.338.471.471,0,0,0-.034-.191.153.153,0,0,0-.151-.077.165.165,0,0,0-.144.083.633.633,0,0,0-.04.218v.188h-.51v-.228a.621.621,0,0,1,.191-.466.715.715,0,0,1,.523-.184.862.862,0,0,1,.543.151.6.6,0,0,1,.185.486.732.732,0,0,1-.171.459l-.329.352a.862.862,0,0,0-.147.285Z" fill="#040505"/>
          <path id="Path_5620" data-name="Path 5620" d="M664.9,261.108v-1.059h2.9v1.059h-.818v4.429h-1.264v-4.429Z" fill="#040505"/>
          <path id="Path_5621" data-name="Path 5621" d="M671.244,259.432h.932l0,.912-.439.463h-.3l-.006,3.231a1.547,1.547,0,0,1-.44,1.154,1.859,1.859,0,0,1-2.376.006,1.525,1.525,0,0,1-.446-1.16v-4h1.263v4.01a1.183,1.183,0,0,0,.054.419c.034.091.138.137.312.137a.355.355,0,0,0,.275-.107.769.769,0,0,0,.087-.449v-4.01l1.093.014Zm-1.3-.65.3.932h-.64l-.747-.932Z" fill="#040505"/>
          <path id="Path_5622" data-name="Path 5622" d="M651.51,275.3v-6.523h6.1v2.238h-3.863V272.8a2.2,2.2,0,0,1,.728-.336,2.815,2.815,0,0,1,.727-.137,2.712,2.712,0,0,1,2.135.8,3.092,3.092,0,0,1,.65,2.106v1.676a4.814,4.814,0,0,1-.709,2.9,3.164,3.164,0,0,1-2.667,1.042,3.732,3.732,0,0,1-2.482-.754,2.855,2.855,0,0,1-.894-2.312v-1.049h2.608v1.153a1.159,1.159,0,0,0,.162.65.624.624,0,0,0,.562.258.631.631,0,0,0,.547-.258,1.084,1.084,0,0,0,.177-.65v-2.6a1.238,1.238,0,0,0-.03-.318.728.728,0,0,0-.147-.377.787.787,0,0,0-1.109.03,1.21,1.21,0,0,0-.162.665Z" fill="#040505"/>
          <path id="Path_5623" data-name="Path 5623" d="M658.889,277.836V271.6a2.9,2.9,0,0,1,.864-2.208,3.447,3.447,0,0,1,2.467-.82,3.52,3.52,0,0,1,2.468.8,2.934,2.934,0,0,1,.857,2.223v6.235a2.857,2.857,0,0,1-.872,2.208,4.128,4.128,0,0,1-4.92,0A2.87,2.87,0,0,1,658.889,277.836Zm2.7-6.434v6.626a.864.864,0,0,0,.166.609.635.635,0,0,0,.469.166.677.677,0,0,0,.436-.14.854.854,0,0,0,.2-.635V271.4a.85.85,0,0,0-.166-.6.636.636,0,0,0-.47-.166.664.664,0,0,0-.472.147A.9.9,0,0,0,661.585,271.4Z" fill="#040505"/>
          <path id="Path_5624" data-name="Path 5624" d="M666.623,280.665V268.573h2.7v4.949l1.891-4.949h2.947l-2.312,5.008,2.327,7.084H671.21l-1.241-4.329-.65,1v3.332Z" fill="#040505"/>
        </g>
      </g>
    </g>
    <g id="Group_3" data-name="Group 3" transform="translate(-600.467 -125.281)">
      <g id="Group_491" data-name="Group 491">
        <path id="Path_5625" data-name="Path 5625" d="M753.764,240.348v16.313l83.157-12.25V227.87Z" fill="#ffe000"/>
        <g id="Group_490" data-name="Group 490">
          <path id="Path_5626" data-name="Path 5626" d="M769.136,250.462l-2.017.3.256-5.768-2.009,6.03-2.075.309-1.8-5.542.007,5.811-2.077.309.2-8.763,2.832-.423,1.892,5.85,2.16-6.455,2.832-.422Z" fill="#291d16"/>
          <path id="Path_5627" data-name="Path 5627" d="M776.876,246.057a3.842,3.842,0,0,1-.983,2.578,4.015,4.015,0,0,1-2.495,1.284,2.927,2.927,0,0,1-2.46-.545,2.736,2.736,0,0,1-.869-2.3,3.855,3.855,0,0,1,.981-2.572,4.006,4.006,0,0,1,2.5-1.287,2.955,2.955,0,0,1,2.454.535A2.772,2.772,0,0,1,776.876,246.057Zm-1.994.3a1.617,1.617,0,0,0-.369-1.213,1.041,1.041,0,0,0-1.01-.305,1.5,1.5,0,0,0-1.03.61,2.15,2.15,0,0,0-.4,1.328,2.436,2.436,0,0,0,.071.72,1.137,1.137,0,0,0,.269.515,1.074,1.074,0,0,0,1.009.294,1.493,1.493,0,0,0,1.031-.6A2.185,2.185,0,0,0,774.882,246.354Zm1.034-5.754-2.4,2.288-1.16.173,1.376-2.134Z" fill="#291d16"/>
          <path id="Path_5628" data-name="Path 5628" d="M783.421,248.33l-1.923.288.089-3.9q.015-.621-.157-.764a1.177,1.177,0,0,0-.741-.042l-1.155.172-.112,4.845-1.923.287.149-6.506,3.2-.476a2.759,2.759,0,0,1,2.078.26,2.052,2.052,0,0,1,.581,1.752Z" fill="#291d16"/>
          <path id="Path_5629" data-name="Path 5629" d="M793.753,246.783l-4.515.673a1.866,1.866,0,0,1-1.478-.282,1.533,1.533,0,0,1-.523-1.353,2.313,2.313,0,0,1,.65-1.717,3.686,3.686,0,0,1,2-.789l1.994-.3a.662.662,0,0,0-.259-.633,1.958,1.958,0,0,0-1.058-.028l-2.845.424.036-1.574,3.46-.515a2.615,2.615,0,0,1,1.993.31,1.992,1.992,0,0,1,.642,1.745Zm-4-7.991a.515.515,0,0,0,.236.445.972.972,0,0,0,.658.088,1.214,1.214,0,0,0,.649-.26,1.036,1.036,0,0,0,.281-.545l.938-.14a1.868,1.868,0,0,1-.539,1.349,2.36,2.36,0,0,1-1.353.629,1.827,1.827,0,0,1-1.344-.2,1.342,1.342,0,0,1-.47-1.222Zm2.066,6.737.023-.975-1.764.264a1.638,1.638,0,0,0-.691.206.56.56,0,0,0-.168.448.276.276,0,0,0,.316.374,2.734,2.734,0,0,0,.4-.035Z" fill="#291d16"/>
          <path id="Path_5630" data-name="Path 5630" d="M800.791,245.739l-1.924.287.09-3.9c.009-.414-.042-.669-.158-.764a1.172,1.172,0,0,0-.741-.041l-1.155.172-.112,4.844-1.922.287.149-6.5,3.2-.477a2.764,2.764,0,0,1,2.078.26,2.055,2.055,0,0,1,.583,1.752Z" fill="#291d16"/>
          <path id="Path_5631" data-name="Path 5631" d="M810.967,242.122a2.542,2.542,0,0,1-.552,1.578,2.033,2.033,0,0,1-1.339.8l-4.327.646.031-1.582,3.564-.532a1.145,1.145,0,0,0,.585-.234.419.419,0,0,0,.153-.344.333.333,0,0,0-.137-.324,1.112,1.112,0,0,0-.579-.014l-1.4.209a2.5,2.5,0,0,1-1.767-.16,1.639,1.639,0,0,1-.447-1.41,2.329,2.329,0,0,1,.612-1.674,2.934,2.934,0,0,1,1.741-.758l3.642-.543-.037,1.585-3.014.449a2.207,2.207,0,0,0-.841.23.474.474,0,0,0-.031.619.9.9,0,0,0,.5.03l1.467-.219a2.061,2.061,0,0,1,1.617.274A1.513,1.513,0,0,1,810.967,242.122Z" fill="#291d16"/>
          <path id="Path_5632" data-name="Path 5632" d="M818.042,243.159l-4.515.673a1.87,1.87,0,0,1-1.478-.283,1.531,1.531,0,0,1-.524-1.352,2.315,2.315,0,0,1,.65-1.717,3.678,3.678,0,0,1,2-.789l1.994-.3a.663.663,0,0,0-.26-.633,1.966,1.966,0,0,0-1.058-.029l-2.844.425.037-1.574,3.458-.516a2.622,2.622,0,0,1,1.994.311,2,2,0,0,1,.642,1.745Zm-1.934-1.254.022-.975-1.764.264a1.6,1.6,0,0,0-.69.206.557.557,0,0,0-.168.448.276.276,0,0,0,.316.374,2.884,2.884,0,0,0,.4-.035Zm1.19-7.48-2.4,2.287-1.161.174,1.376-2.135Z" fill="#291d16"/>
          <path id="Path_5633" data-name="Path 5633" d="M825.08,242.115l-1.924.287.09-3.9c.009-.414-.042-.669-.158-.764a1.19,1.19,0,0,0-.742-.041l-1.155.173-.111,4.844-1.923.286.149-6.5,3.2-.477a2.758,2.758,0,0,1,2.078.261,2.052,2.052,0,0,1,.582,1.751Z" fill="#291d16"/>
          <path id="Path_5634" data-name="Path 5634" d="M832.225,240.662a3.226,3.226,0,0,1-.665,2.08,2.945,2.945,0,0,1-1.883.926l-3.312.494.035-1.549,3.037-.453a1.025,1.025,0,0,0,.627-.3.832.832,0,0,0,.218-.582v.058l-1.179.176a4.591,4.591,0,0,1-1.5.054,1.95,1.95,0,0,1-.9-.436,2.423,2.423,0,0,1-.693-.987,4.091,4.091,0,0,1-.2-1.374,4.5,4.5,0,0,1,.261-1.436,5.271,5.271,0,0,1,.323-.662,3.8,3.8,0,0,1,.423-.543,3.349,3.349,0,0,1,.968-.711,5.166,5.166,0,0,1,1.458-.4l3.115-.465Zm-1.908-.913.076-3.291-.7.1-.47.07a1.85,1.85,0,0,0-.334.073c-.083.037-.151.066-.208.089a.845.845,0,0,0-.206.131,1.521,1.521,0,0,0-.493.575,2.49,2.49,0,0,0-.174.968,1.573,1.573,0,0,0,.34,1.247,2.136,2.136,0,0,0,1.469.138Z" fill="#291d16"/>
        </g>
      </g>
      <path id="Path_5635" data-name="Path 5635" d="M836.921,244.411l-14.206,10.076v-7.8Z" fill="#352e11"/>
    </g>
    <g id="Group_5" data-name="Group 5" transform="translate(-602.314 -134.972)">
      <path id="Path_6452" data-name="Path 6452" d="M675.847,143.894l-.178-.5h-1.261l-.192.5h-1l1.458-3.471h.732l1.446,3.471Zm-1.2-3.638-.231-.46,1.178-.605.262.554Zm.4,1.248h-.014l-.374,1.186h.762Z" fill="#ffe000"/>
      <path id="Path_6453" data-name="Path 6453" d="M679.867,142.09a1.07,1.07,0,0,1-.287.417,1.216,1.216,0,0,1-.5.247,2.426,2.426,0,0,1-.563.053h-.4v1.087h-.891v-3.471h1.19c.115,0,.212,0,.291.007a2.661,2.661,0,0,1,.3.032,1.151,1.151,0,0,1,.534.216,1.122,1.122,0,0,1,.426.918A1.32,1.32,0,0,1,679.867,142.09Zm-.986-.82a.989.989,0,0,0-.422-.068h-.342v.826h.376a.848.848,0,0,0,.405-.077.357.357,0,0,0,.176-.339A.35.35,0,0,0,678.881,141.27Z" fill="#ffe000"/>
      <path id="Path_6454" data-name="Path 6454" d="M683.086,143.894h-1.271v-3.471h1.2a3.6,3.6,0,0,1,.47.026,1.982,1.982,0,0,1,.425.1,1.478,1.478,0,0,1,.71.526,1.745,1.745,0,0,1,.335,1.079Q684.959,143.895,683.086,143.894Zm.734-2.418a.83.83,0,0,0-.674-.274h-.4v1.914h.4a.843.843,0,0,0,.681-.266,1.024,1.024,0,0,0,.209-.687A1.037,1.037,0,0,0,683.82,141.476Z" fill="#ffe000"/>
      <path id="Path_6455" data-name="Path 6455" d="M688.289,142.52a2.142,2.142,0,0,1-.063.575,1.107,1.107,0,0,1-.3.49,1.394,1.394,0,0,1-1.016.376,1.832,1.832,0,0,1-.567-.085,1.206,1.206,0,0,1-.786-.781,1.584,1.584,0,0,1-.049-.268c-.006-.079-.009-.181-.009-.307v-2.1h.928v2.1a1.584,1.584,0,0,0,.015.236.712.712,0,0,0,.064.214.406.406,0,0,0,.394.212.393.393,0,0,0,.393-.208.732.732,0,0,0,.058-.21c.006-.062.009-.143.009-.244v-2.1h.929Zm-1.785,2.5v-.707h.78v.707Z" fill="#ffe000"/>
      <path id="Path_6456" data-name="Path 6456" d="M691.2,143.894l-1.384-2.11-.012,0,.027,2.106h-.891v-3.471h.8l1.405,2.182.01-.009-.041-2.173H692v3.471Z" fill="#ffe000"/>
      <path id="Path_6457" data-name="Path 6457" d="M696.374,142.1a1.768,1.768,0,0,1-.551,1.33,2.062,2.062,0,0,1-2.755.007,1.709,1.709,0,0,1-.565-1.3,1.655,1.655,0,0,1,.574-1.284,1.983,1.983,0,0,1,1.372-.5,2.013,2.013,0,0,1,1.12.337,1.6,1.6,0,0,1,.7.89h-1.041a.868.868,0,0,0-.8-.448.949.949,0,0,0-.719.3.992.992,0,0,0-.274.71,1.053,1.053,0,0,0,.266.733.942.942,0,0,0,.731.309,1.047,1.047,0,0,0,.543-.135.71.71,0,0,0,.326-.424h-1.085v-.707h2.157c0,.027,0,.058,0,.091Z" fill="#ffe000"/>
      <path id="Path_6458" data-name="Path 6458" d="M700.4,143.894l-.993-1.5H699.4v1.5h-.929v-3.471h.929v1.562h.009l1.027-1.562h.974l-1.2,1.731,1.28,1.74Z" fill="#ffe000"/>
      <path id="Path_6459" data-name="Path 6459" d="M703.958,143.894v-1.387h-1.189v1.387h-.929v-3.471h.929v1.3h1.189v-1.3h.928v3.471Z" fill="#ffe000"/>
      <path id="Path_6460" data-name="Path 6460" d="M708.324,142.52a2.142,2.142,0,0,1-.063.575,1.1,1.1,0,0,1-.3.49,1.392,1.392,0,0,1-1.016.376,1.832,1.832,0,0,1-.567-.085,1.206,1.206,0,0,1-.786-.781,1.584,1.584,0,0,1-.049-.268c-.005-.079-.008-.181-.008-.307v-2.1h.927v2.1a1.584,1.584,0,0,0,.015.236.71.71,0,0,0,.064.214.407.407,0,0,0,.394.212.4.4,0,0,0,.394-.208.765.765,0,0,0,.057-.21c.006-.062.009-.143.009-.244v-2.1h.929Z" fill="#ffe000"/>
      <path id="Path_6461" data-name="Path 6461" d="M711.23,143.894l-1.384-2.11-.012,0,.027,2.106h-.891v-3.471h.8l1.405,2.182.01-.009-.041-2.173h.89v3.471Z" fill="#ffe000"/>
      <path id="Path_6462" data-name="Path 6462" d="M716.41,142.1a1.768,1.768,0,0,1-.552,1.33,2.062,2.062,0,0,1-2.755.007,1.708,1.708,0,0,1-.564-1.3,1.654,1.654,0,0,1,.573-1.284,1.983,1.983,0,0,1,1.372-.5,2.013,2.013,0,0,1,1.12.337,1.6,1.6,0,0,1,.7.89h-1.041a.868.868,0,0,0-.8-.448.949.949,0,0,0-.719.3.991.991,0,0,0-.274.71,1.053,1.053,0,0,0,.266.733.943.943,0,0,0,.731.309,1.047,1.047,0,0,0,.543-.135.71.71,0,0,0,.326-.424h-1.084v-.707h2.156c0,.027,0,.058,0,.091Z" fill="#ffe000"/>
      <path id="Path_6463" data-name="Path 6463" d="M722.118,142.1a1.768,1.768,0,0,1-.552,1.33,2.062,2.062,0,0,1-2.755.007,1.708,1.708,0,0,1-.564-1.3,1.654,1.654,0,0,1,.573-1.284,1.983,1.983,0,0,1,1.372-.5,2.013,2.013,0,0,1,1.12.337,1.6,1.6,0,0,1,.7.89h-1.041a.868.868,0,0,0-.8-.448.949.949,0,0,0-.719.3.992.992,0,0,0-.274.71,1.053,1.053,0,0,0,.266.733.943.943,0,0,0,.731.309,1.047,1.047,0,0,0,.543-.135.71.71,0,0,0,.326-.424h-1.084v-.707h2.156c0,.027,0,.058.005.091Z" fill="#ffe000"/>
      <path id="Path_6464" data-name="Path 6464" d="M722.6,143.894v-3.471h.929v3.471Z" fill="#ffe000"/>
      <path id="Path_6465" data-name="Path 6465" d="M727.4,140.977a1.75,1.75,0,0,1-.1,2.469,2.04,2.04,0,0,1-2.7.009,1.621,1.621,0,0,1-.571-1.253,1.964,1.964,0,0,1,.142-.742,1.575,1.575,0,0,1,.235-.389,1.865,1.865,0,0,1,1.537-.712,1.941,1.941,0,0,1,1.18.369l.05-.019a.367.367,0,0,0,.249-.34h-.191v-.522h.549v.537a.708.708,0,0,1-.228.495A.969.969,0,0,1,727.4,140.977Zm-.739.472a.929.929,0,0,0-.717-.311.942.942,0,0,0-.717.3.994.994,0,0,0-.273.71,1.022,1.022,0,0,0,.273.723.948.948,0,0,0,.729.309.92.92,0,0,0,.708-.311,1.073,1.073,0,0,0,0-1.422Zm-.324-1.193-1.213-.506.251-.549,1.188.6Z" fill="#ffe000"/>
      <path id="Path_6466" data-name="Path 6466" d="M731.794,143.894h-.957l-1.213-3.471h.953l.731,2.434h.012l.736-2.434h.957Z" fill="#ffe000"/>
      <path id="Path_6467" data-name="Path 6467" d="M735.764,143.894l-.178-.5h-1.261l-.192.5h-1l1.458-3.471h.732l1.446,3.471Zm-.413-3.638-1.213-.506.249-.549,1.19.6Zm-.383,1.248h-.014l-.374,1.186h.762Z" fill="#ffe000"/>
      <path id="Path_6468" data-name="Path 6468" d="M739.4,143.894l-1.384-2.11-.012,0,.027,2.106h-.891v-3.471h.8l1.4,2.182.01-.009-.041-2.173h.889v3.471Z" fill="#ffe000"/>
      <path id="Path_6469" data-name="Path 6469" d="M744.582,142.1a1.768,1.768,0,0,1-.551,1.33,2.062,2.062,0,0,1-2.755.007,1.709,1.709,0,0,1-.565-1.3,1.656,1.656,0,0,1,.574-1.284,1.983,1.983,0,0,1,1.372-.5,2.013,2.013,0,0,1,1.12.337,1.6,1.6,0,0,1,.7.89h-1.041a.868.868,0,0,0-.8-.448.949.949,0,0,0-.719.3.992.992,0,0,0-.274.71,1.053,1.053,0,0,0,.266.733.942.942,0,0,0,.731.309,1.047,1.047,0,0,0,.543-.135.71.71,0,0,0,.326-.424h-1.085v-.707h2.157c0,.027,0,.058,0,.091Z" fill="#ffe000"/>
      <path id="Path_6470" data-name="Path 6470" d="M673.978,146.939V149h-.238v-2.062h-.546v-.206h1.326v.206Z" fill="#fff"/>
      <path id="Path_6471" data-name="Path 6471" d="M676.276,147.574V149h-.211v-.26h-.007a.5.5,0,0,1-.233.227.72.72,0,0,1-.329.073.744.744,0,0,1-.6-.251.631.631,0,0,1-.123-.256,1.21,1.21,0,0,1-.03-.284v-.925h.224v.922a.689.689,0,0,0,.116.431.5.5,0,0,0,.417.17.534.534,0,0,0,.373-.136.519.519,0,0,0,.149-.23.9.9,0,0,0,.034-.271v-.886h.224v.049l.008,0a.155.155,0,0,0,.064-.106h-.1v-.27h.277v.278a.4.4,0,0,1-.037.122.294.294,0,0,1-.063.082.472.472,0,0,1-.066.051.918.918,0,0,1-.085.049Zm-.575-.47-.634-.328.1-.184.64.335Z" fill="#fff"/>
      <path id="Path_6472" data-name="Path 6472" d="M678.1,149v-1.78h-.389v-.488h.995V149Z" fill="#fff"/>
      <path id="Path_6473" data-name="Path 6473" d="M680.95,148.851a1.011,1.011,0,0,1-1.188,0,.633.633,0,0,1-.274-.525.567.567,0,0,1,.373-.573.506.506,0,0,1-.233-.425.582.582,0,0,1,.218-.465.768.768,0,0,1,.508-.172.777.777,0,0,1,.507.171.57.57,0,0,1,.219.46.521.521,0,0,1-.232.431.566.566,0,0,1,.373.573A.638.638,0,0,1,680.95,148.851Zm-.6-.833a.229.229,0,0,0-.26.257c0,.174.09.26.27.26a.236.236,0,0,0,.179-.079.249.249,0,0,0,.072-.178A.23.23,0,0,0,680.354,148.018Zm0-.859c-.147,0-.221.069-.221.208a.188.188,0,0,0,.215.21.193.193,0,0,0,.221-.216C680.572,147.226,680.5,147.159,680.357,147.159Z" fill="#fff"/>
      <path id="Path_6474" data-name="Path 6474" d="M682.655,149v-.925a.452.452,0,0,0-.057-.247.255.255,0,0,0-.23-.109.277.277,0,0,0-.235.1.392.392,0,0,0-.063.241V149h-.532v-2.268h.532v.724h.007a.4.4,0,0,1,.2-.168.663.663,0,0,1,.262-.047.615.615,0,0,1,.484.187.6.6,0,0,1,.147.294.978.978,0,0,1,.017.159c0,.024,0,.051,0,.084V149Z" fill="#fff"/>
      <path id="Path_6475" data-name="Path 6475" d="M686.412,147.177V149H685.9v-.184H685.9a.457.457,0,0,1-.23.187.792.792,0,0,1-.3.052.851.851,0,0,1-.651-.266.975.975,0,0,1,0-1.281.843.843,0,0,1,.643-.267.712.712,0,0,1,.523.2v-.268h-.35v-.3h.35v-.143h.534v.143h.151v.3Zm-.632.661a.491.491,0,0,0-.644,0,.4.4,0,0,0-.131.306.423.423,0,0,0,.124.312.442.442,0,0,0,.324.125.451.451,0,0,0,.327-.124.418.418,0,0,0,.127-.313A.4.4,0,0,0,685.78,147.838Z" fill="#fff"/>
      <path id="Path_6476" data-name="Path 6476" d="M688.561,148.3h-1.335a.365.365,0,0,0,.417.322.409.409,0,0,0,.324-.159h.546a1.012,1.012,0,0,1-.342.422.9.9,0,0,1-.528.166.926.926,0,0,1-.666-.265.842.842,0,0,1-.277-.635.868.868,0,0,1,.271-.642.9.9,0,0,1,.662-.272.914.914,0,0,1,.676.272.894.894,0,0,1,.265.656A.623.623,0,0,1,688.561,148.3Zm-.77-1.266-.148-.177-.147.177h-.521l.5-.508h.346l.481.508Zm.25.924a.426.426,0,0,0-.809,0Zm.144-1.17-.15-.3.771-.4.169.362Z" fill="#fff"/>
      <path id="Path_6477" data-name="Path 6477" d="M689.986,149v-.929a.483.483,0,0,0-.05-.247.246.246,0,0,0-.229-.1.283.283,0,0,0-.247.1.447.447,0,0,0-.059.254V149h-.532v-1.7h.5v.181h.008a.532.532,0,0,1,.484-.239.709.709,0,0,1,.456.147.517.517,0,0,1,.166.25,1,1,0,0,1,.04.3V149Z" fill="#fff"/>
      <path id="Path_6478" data-name="Path 6478" d="M691.859,149v-.45c.078-.049.143-.091.2-.125.07-.044.132-.087.187-.128a2.515,2.515,0,0,0,.343-.3c.04-.041.077-.081.11-.122a1.5,1.5,0,0,0,.106-.145.606.606,0,0,0,.112-.312.2.2,0,0,0-.224-.219.229.229,0,0,0-.215.115.521.521,0,0,0-.057.242h-.58a1.265,1.265,0,0,1,.033-.271.713.713,0,0,1,.109-.25.745.745,0,0,1,.318-.261,1,1,0,0,1,.413-.084.982.982,0,0,1,.438.1.665.665,0,0,1,.31.3.612.612,0,0,1,.061.26.875.875,0,0,1-.073.347,1.3,1.3,0,0,1-.189.308,2.284,2.284,0,0,1-.254.271c-.04.038-.086.079-.137.123-.035.032-.081.07-.136.115h.8V149Z" fill="#fff"/>
      <path id="Path_6479" data-name="Path 6479" d="M694.4,149v-1.78h-.389v-.488h.995V149Z" fill="#fff"/>
      <path id="Path_6480" data-name="Path 6480" d="M696.969,149v-.925a.452.452,0,0,0-.056-.247.256.256,0,0,0-.231-.109.276.276,0,0,0-.234.1.391.391,0,0,0-.064.241V149h-.532v-2.268h.532v.724h.007a.4.4,0,0,1,.2-.168.666.666,0,0,1,.262-.047.615.615,0,0,1,.484.187.6.6,0,0,1,.148.294.978.978,0,0,1,.017.159c0,.024,0,.051,0,.084V149Z" fill="#fff"/>
      <path id="Path_6481" data-name="Path 6481" d="M700.093,149v-.922a.765.765,0,0,0-.037-.248.459.459,0,0,0-.13-.212.577.577,0,0,0-.763,0,.445.445,0,0,0-.128.206.738.738,0,0,0-.036.238V149h-.225v-2.268H699v.806H699a.609.609,0,0,1,.541-.257.748.748,0,0,1,.576.224.824.824,0,0,1,.2.573V149Z" fill="#fff"/>
      <path id="Path_6482" data-name="Path 6482" d="M702.3,149v-.3h-.006a.776.776,0,0,1-.683.335.943.943,0,0,1-.669-.253.852.852,0,0,1,0-1.256.951.951,0,0,1,.666-.25.763.763,0,0,1,.683.337h.006v-.294h.226V149Zm-.187-1.321a.685.685,0,0,0-.5-.2.714.714,0,0,0-.516.2.661.661,0,0,0-.2.5.643.643,0,0,0,.206.488.72.72,0,0,0,.514.193.69.69,0,0,0,.5-.2.649.649,0,0,0,.2-.482A.658.658,0,0,0,702.114,147.68Zm.093-.91a.448.448,0,0,1-.224.247.86.86,0,0,1-.675,0,.442.442,0,0,1-.222-.247h.209a.415.415,0,0,0,.35.141.582.582,0,0,0,.2-.032.332.332,0,0,0,.159-.109Zm-.388-.071-.635-.328.1-.184.639.335Z" fill="#fff"/>
      <path id="Path_6483" data-name="Path 6483" d="M704.252,149v-.922a.763.763,0,0,0-.038-.248.458.458,0,0,0-.13-.212.547.547,0,0,0-.38-.144.553.553,0,0,0-.383.144.462.462,0,0,0-.128.206.738.738,0,0,0-.036.238V149h-.225v-1.676h.225v.214h.006a.608.608,0,0,1,.541-.257.746.746,0,0,1,.575.224.814.814,0,0,1,.2.573V149Z" fill="#fff"/>
      <path id="Path_6484" data-name="Path 6484" d="M706.624,148.738c0,.063,0,.118,0,.163a1.107,1.107,0,0,1-.021.156.671.671,0,0,1-.135.292.837.837,0,0,1-.7.31.982.982,0,0,1-.56-.159.8.8,0,0,1-.337-.456h.237a.65.65,0,0,0,.657.422.631.631,0,0,0,.467-.172.61.61,0,0,0,.169-.452v-.148h-.006a.619.619,0,0,1-.287.26.878.878,0,0,1-.39.087.907.907,0,0,1-.649-.253.816.816,0,0,1-.27-.618.842.842,0,0,1,.267-.626.9.9,0,0,1,.652-.262.765.765,0,0,1,.677.342h.006v-.3h.224Zm-.412-1.057a.7.7,0,0,0-.99,0,.661.661,0,0,0-.2.483.65.65,0,0,0,.2.479.7.7,0,0,0,.988,0,.65.65,0,0,0,.2-.479A.665.665,0,0,0,706.212,147.681Z" fill="#fff"/>
      <path id="Path_6485" data-name="Path 6485" d="M709.257,149v-.922a.763.763,0,0,0-.038-.248.458.458,0,0,0-.13-.212.577.577,0,0,0-.763,0,.462.462,0,0,0-.128.206.737.737,0,0,0-.036.238V149h-.225v-1.676h.225v.214h.005a.61.61,0,0,1,.541-.257.747.747,0,0,1,.576.224.814.814,0,0,1,.2.573V149Z" fill="#fff"/>
      <path id="Path_6486" data-name="Path 6486" d="M711.629,148.738c0,.063,0,.118-.005.163a.993.993,0,0,1-.02.156.671.671,0,0,1-.135.292.837.837,0,0,1-.7.31.988.988,0,0,1-.561-.159.809.809,0,0,1-.337-.456h.238a.65.65,0,0,0,.657.422.631.631,0,0,0,.467-.172.61.61,0,0,0,.169-.452v-.148H711.4a.619.619,0,0,1-.287.26.878.878,0,0,1-.39.087.905.905,0,0,1-.649-.253.816.816,0,0,1-.27-.618.842.842,0,0,1,.267-.626.9.9,0,0,1,.652-.262.765.765,0,0,1,.677.342h.006v-.3h.224Zm-.412-1.057a.7.7,0,0,0-.99,0,.661.661,0,0,0-.2.483.65.65,0,0,0,.2.479.7.7,0,0,0,.988,0,.649.649,0,0,0,.2-.479A.664.664,0,0,0,711.217,147.681Z" fill="#fff"/>
      <path id="Path_6487" data-name="Path 6487" d="M713.613,149v-.3h-.006a.778.778,0,0,1-.684.335.946.946,0,0,1-.669-.253.853.853,0,0,1,0-1.256.954.954,0,0,1,.666-.25.764.764,0,0,1,.684.337h.006v-.294h.225V149Zm-.188-1.321a.682.682,0,0,0-.5-.2.71.71,0,0,0-.515.2.661.661,0,0,0-.2.5.643.643,0,0,0,.206.488.716.716,0,0,0,.513.193.687.687,0,0,0,.5-.2.649.649,0,0,0,.2-.482A.658.658,0,0,0,713.425,147.68Zm-.232-.576-.635-.328.1-.184.639.335Z" fill="#fff"/>
      <path id="Path_6488" data-name="Path 6488" d="M714.7,149.589h-.235l.3-.643-.684-1.621h.239l.557,1.336.6-1.336h.236Z" fill="#fff"/>
    </g>
  </g>
</svg>
