<svg xmlns="http://www.w3.org/2000/svg" xmlns:xlink="http://www.w3.org/1999/xlink" width="265" height="98" viewBox="0 0 265 98">
  <defs>
    <clipPath id="clip-bottom">
      <rect width="265" height="98"/>
    </clipPath>
  </defs>
  <g id="bottom" clip-path="url(#clip-bottom)">
    <g id="Group_514" data-name="Group 514" transform="translate(-618.01 -442.953)">
      <g id="Group_510" data-name="Group 510">
        <g id="Group_501" data-name="Group 501">
          <path id="Path_5666" data-name="Path 5666" d="M643.45,506.1a23.321,23.321,0,1,1,15.8-8.3A23.169,23.169,0,0,1,643.45,506.1Zm-4.073-44.69A21.554,21.554,0,1,0,662.8,480.921,21.578,21.578,0,0,0,639.377,461.413Z" fill="#e3031b"/>
        </g>
        <g id="Group_502" data-name="Group 502">
          <path id="Path_5667" data-name="Path 5667" d="M696.576,501.261a23.323,23.323,0,1,1,15.8-8.3A23.169,23.169,0,0,1,696.576,501.261Zm-4.073-44.69a21.554,21.554,0,1,0,23.422,19.508A21.577,21.577,0,0,0,692.5,456.571Z" fill="#e3031b"/>
        </g>
        <g id="Group_503" data-name="Group 503">
          <path id="Path_5668" data-name="Path 5668" d="M749.7,496.418a23.321,23.321,0,1,1,15.8-8.3A23.166,23.166,0,0,1,749.7,496.418Zm-4.074-44.689a21.554,21.554,0,1,0,23.422,19.508A21.577,21.577,0,0,0,745.629,451.729Z" fill="#e3031b"/>
        </g>
      </g>
      <g id="Group_513" data-name="Group 513">
        <g id="Group_512" data-name="Group 512">
          <path id="Path_5669" data-name="Path 5669" d="M781.911,458.169v19.894l101.467-14.939V442.953Z" fill="#6db22f"/>
          <g id="Group_511" data-name="Group 511">
            <path id="Path_5670" data-name="Path 5670" d="M802.111,464.666a8.672,8.672,0,0,1-.131,1.34,7.191,7.191,0,0,1-.335,1.2,4.987,4.987,0,0,1-1.276,1.909,5.669,5.669,0,0,1-1.391.935,5.868,5.868,0,0,1-.841.29,10.057,10.057,0,0,1-1.108.223l-4.893.729.109-4.686-1.073.16.034-1.467,1.072-.16.1-4.528,4.842-.722q2.553-.381,3.751.787T802.111,464.666Zm-2.679.215A4.066,4.066,0,0,0,799,462.44q-.475-.582-1.812-.383l-2.353.352-.054,2.361,2.4-.359-.033,1.467-2.4.359-.059,2.517,2.352-.351a2.568,2.568,0,0,0,1.832-.929A4.885,4.885,0,0,0,799.432,464.881Z" fill="#291d16"/>
            <path id="Path_5671" data-name="Path 5671" d="M810.772,464.559a4.708,4.708,0,0,1-1.2,3.144,4.919,4.919,0,0,1-3.044,1.567,3.58,3.58,0,0,1-3-.665,3.348,3.348,0,0,1-1.062-2.808,4.715,4.715,0,0,1,1.2-3.137,4.885,4.885,0,0,1,3.051-1.568,3.594,3.594,0,0,1,2.992.652A3.38,3.38,0,0,1,810.772,464.559Zm-1.491-4.256-1.4.209-1.135-.844-1.189,1.191-1.373.2,1.672-2.6,1.865-.278Zm-.94,4.618a1.977,1.977,0,0,0-.451-1.48,1.264,1.264,0,0,0-1.231-.372,1.82,1.82,0,0,0-1.257.743,2.639,2.639,0,0,0-.487,1.621,3,3,0,0,0,.086.878,1.405,1.405,0,0,0,.329.628,1.317,1.317,0,0,0,1.231.358,1.833,1.833,0,0,0,1.257-.729A2.683,2.683,0,0,0,808.341,464.921Zm2.053-6.537-1.415.211-2.821-1.926,2.659-.4Z" fill="#291d16"/>
            <path id="Path_5672" data-name="Path 5672" d="M822.83,466.716l-5.506.822a2.275,2.275,0,0,1-1.8-.345,1.875,1.875,0,0,1-.639-1.652,2.82,2.82,0,0,1,.794-2.092,4.49,4.49,0,0,1,2.434-.962l2.431-.364a.806.806,0,0,0-.318-.772,2.379,2.379,0,0,0-1.288-.035l-3.469.517.044-1.917,4.221-.63a3.187,3.187,0,0,1,2.429.379,2.431,2.431,0,0,1,.783,2.128Zm-4.878-9.745a.62.62,0,0,0,.287.541,1.171,1.171,0,0,0,.8.107,1.473,1.473,0,0,0,.792-.317,1.262,1.262,0,0,0,.342-.663l1.145-.171a2.281,2.281,0,0,1-.657,1.645,2.874,2.874,0,0,1-1.651.766,2.212,2.212,0,0,1-1.639-.247,1.629,1.629,0,0,1-.573-1.489Zm2.519,8.215L820.5,464l-2.153.322a2.008,2.008,0,0,0-.841.25.678.678,0,0,0-.2.547.507.507,0,0,0,.125.409.521.521,0,0,0,.259.047,3.413,3.413,0,0,0,.483-.044Z" fill="#291d16"/>
            <path id="Path_5673" data-name="Path 5673" d="M831.412,465.443l-2.346.349.109-4.757c.012-.506-.052-.818-.192-.934a1.439,1.439,0,0,0-.9-.051l-1.41.21-.135,5.91-2.345.351.183-7.935,3.9-.582a3.364,3.364,0,0,1,2.534.319,2.5,2.5,0,0,1,.709,2.134Z" fill="#291d16"/>
            <path id="Path_5674" data-name="Path 5674" d="M843.568,463.628l-2.346.351.11-4.758c.011-.506-.052-.817-.193-.934a1.444,1.444,0,0,0-.9-.051l-1.41.211-.136,5.91-2.345.349.183-7.934,3.9-.582a3.364,3.364,0,0,1,2.534.318,2.5,2.5,0,0,1,.709,2.136Z" fill="#291d16"/>
            <path id="Path_5675" data-name="Path 5675" d="M852.092,462.357l-2.36.352.109-4.765c.012-.473-.057-.769-.207-.89a.838.838,0,0,0-.332-.128,2.234,2.234,0,0,0-.571.027l-1.4.223-.135,5.91-2.332.348.246-10.688,2.332-.348-.064,2.762,1.566-.234a3.417,3.417,0,0,1,2.52.309,2.46,2.46,0,0,1,.724,2.136Z" fill="#291d16"/>
            <path id="Path_5676" data-name="Path 5676" d="M861.088,461.007l-5.506.822a2.274,2.274,0,0,1-1.8-.345,1.872,1.872,0,0,1-.64-1.652,2.82,2.82,0,0,1,.794-2.092,4.487,4.487,0,0,1,2.434-.962l2.431-.364a.806.806,0,0,0-.317-.772,2.392,2.392,0,0,0-1.289-.036l-3.468.517.044-1.916,4.22-.63a3.182,3.182,0,0,1,2.428.379,2.429,2.429,0,0,1,.785,2.128Zm-1.227-8.251-1.389.207-1.134-.844-1.2,1.192-1.38.206,1.685-2.6,1.844-.275Zm-1.132,6.72.027-1.187-2.152.322a2,2,0,0,0-.84.25.675.675,0,0,0-.2.547.507.507,0,0,0,.125.409.521.521,0,0,0,.259.047,3.418,3.418,0,0,0,.483-.044Zm-.647,4.909-2.06.308.051-2.2,2.059-.308Z" fill="#291d16"/>
            <path id="Path_5677" data-name="Path 5677" d="M869.59,459.739l-3.9.582a3.265,3.265,0,0,1-2.472-.33,2.444,2.444,0,0,1-.741-2.135l.114-4.973,2.324-.347-.111,4.809c-.01.457.054.739.2.847.12.12.417.144.888.074l1.416-.212.136-5.894,2.338-.349Z" fill="#291d16"/>
          </g>
        </g>
      </g>
    </g>
    <g id="Group_516" data-name="Group 516" transform="translate(-618.01 -442.855)">
      <path id="Path_5688" data-name="Path 5688" d="M645.693,528.869a1,1,0,0,1-.995-.9L642.456,506.2a1,1,0,0,1,1.99-.2l2.138,20.763,59.608-6.718a1,1,0,0,1,.224,1.989l-60.611,6.83A1.07,1.07,0,0,1,645.693,528.869Z" fill="#e3031b"/>
    </g>
    <g id="Group_515" data-name="Group 515" transform="translate(-617.01 -443.953)">
      <path id="Path_5678" data-name="Path 5678" d="M725.243,523.25l-4.221.425a8.911,8.911,0,0,1-1,.051,4.5,4.5,0,0,1-.787-.066,3.928,3.928,0,0,1-1.238-.515,3.663,3.663,0,0,1-1.218-1.39,5.91,5.91,0,0,1-.575-2.122,5.251,5.251,0,0,1,.715-3.732,4.251,4.251,0,0,1,3.172-1.506l4.221-.425.188,1.858-4.221.425a1.713,1.713,0,0,0-1.41.8,3.842,3.842,0,0,0-.256,2.244,3.452,3.452,0,0,0,.664,1.972,1.749,1.749,0,0,0,1.555.469l1.965-.2-.181-1.8-2.519.254-.19-1.895,4.773-.481Z" fill="#291d16"/>
      <path id="Path_5679" data-name="Path 5679" d="M728.786,522.9l-2.293.23-.935-9.287,2.292-.23Z" fill="#291d16"/>
      <path id="Path_5680" data-name="Path 5680" d="M739.129,521.86l-2.468.248-1.037-2.05-3.668.369-.583,2.213-2.369.238L732,513.2l2.236-.226Zm-3.812-11.591-2.331,2.3-1.237.125,1.232-2.189Zm-.634,7.944-1.4-2.717-.783,2.937Z" fill="#291d16"/>
      <path id="Path_5681" data-name="Path 5681" d="M750.862,516.145a6.831,6.831,0,0,1,.027,1.158,5.46,5.46,0,0,1-.168,1.035,3.449,3.449,0,0,1-.935,1.607,4.066,4.066,0,0,1-1.143.756,4.57,4.57,0,0,1-.721.216,7.9,7.9,0,0,1-.968.148l-4.295.432-.41-4.071-.943.095-.128-1.276.943-.094-.4-3.934,4.252-.428a4.326,4.326,0,0,1,3.44.84A5.227,5.227,0,0,1,750.862,516.145Zm-2.372.075a3.9,3.9,0,0,0-.65-2.142,1.919,1.919,0,0,0-1.662-.407l-2.066.208.206,2.051,2.11-.213.129,1.276-2.11.212.219,2.188,2.067-.208a1.9,1.9,0,0,0,1.538-.733A3.807,3.807,0,0,0,748.49,516.22Z" fill="#291d16"/>
      <path id="Path_5682" data-name="Path 5682" d="M761.067,519.652l-2.468.248-1.037-2.05-3.668.369-.583,2.213-2.368.238,2.99-9.681,2.236-.226Zm-7.2-10.925a.662.662,0,0,0,.314.484,1.15,1.15,0,0,0,.73.128,1.122,1.122,0,0,0,.673-.245.9.9,0,0,0,.236-.563l1-.1a1.671,1.671,0,0,1-.41,1.4,2.167,2.167,0,0,1-1.393.6,2.212,2.212,0,0,1-1.494-.284,1.675,1.675,0,0,1-.672-1.321Zm2.749,7.278-1.4-2.717-.783,2.937Zm.545,6.613-1.808.182-.193-1.915,1.808-.183Z" fill="#291d16"/>
      <path id="Path_5683" data-name="Path 5683" d="M768.4,518.907l-3.36.337a6.3,6.3,0,0,1-1.7-.009,3.392,3.392,0,0,1-1.276-.526,3.647,3.647,0,0,1-1.219-1.389,5.911,5.911,0,0,1-.575-2.122,5.3,5.3,0,0,1,.7-3.731,4.249,4.249,0,0,1,3.185-1.508l3.31-.333.187,1.859-3.272.329a2.553,2.553,0,0,0-.921.243,1.592,1.592,0,0,0-.563.578,4.3,4.3,0,0,0-.24,2.4,3.2,3.2,0,0,0,.65,1.926,1.925,1.925,0,0,0,1.632.388l3.271-.329Z" fill="#291d16"/>
      <path id="Path_5684" data-name="Path 5684" d="M780.632,515.044a2.454,2.454,0,0,1-.586,2.063,2.857,2.857,0,0,1-.936.555,5.321,5.321,0,0,1-1.381.306l-5.081.511-.935-9.28,4.761-.479a8.862,8.862,0,0,1,1.449-.047,3.844,3.844,0,0,1,.553.077,1.547,1.547,0,0,1,.423.164,2.251,2.251,0,0,1,.9.784,2.721,2.721,0,0,1,.181,2.556,2.746,2.746,0,0,1-.31.455,2.887,2.887,0,0,1-.428.405,2.1,2.1,0,0,1,1.393,1.93Zm-2.758-3.634a.844.844,0,0,0-.311-.639,1.346,1.346,0,0,0-.856-.115l-2.6.261.176,1.741,2.6-.262a1.186,1.186,0,0,0,.789-.3A.789.789,0,0,0,777.874,511.41Zm.383,3.678a.911.911,0,0,0-.314-.665,1.3,1.3,0,0,0-.843-.122l-2.626.265.18,1.783,2.626-.265a1.255,1.255,0,0,0,.8-.3A.857.857,0,0,0,778.257,515.088Z" fill="#291d16"/>
      <path id="Path_5685" data-name="Path 5685" d="M784.369,517.306l-2.292.231-.936-9.287,2.293-.231Z" fill="#291d16"/>
      <path id="Path_5686" data-name="Path 5686" d="M793.029,516.428l-3.361.338a6.325,6.325,0,0,1-1.7-.01,3.41,3.41,0,0,1-1.277-.525,3.655,3.655,0,0,1-1.218-1.39,5.893,5.893,0,0,1-.575-2.122,5.3,5.3,0,0,1,.7-3.731,4.248,4.248,0,0,1,3.186-1.507l3.309-.333.19,1.883-3.272.329a1.95,1.95,0,0,0-1.355.589,1.985,1.985,0,0,0-.421,1.367l5.226-.513.189,1.87-5.238.528a2.588,2.588,0,0,0,.2.814,1.276,1.276,0,0,0,.378.54,2.071,2.071,0,0,0,1.573.318l3.272-.329Zm-1.861-9.716-1.211.122-1.119-.772-.928.978-1.218.122,1.219-2.187,1.633-.164Zm-.356,12.52-1.81.181-.192-1.915,1.809-.181Z" fill="#291d16"/>
      <path id="Path_5687" data-name="Path 5687" d="M800.74,508.2l-2.92.294.743,7.384-2.262.228-.749-7.385-2.9.292-.191-1.89,8.084-.813Z" fill="#291d16"/>
    </g>
    <g id="Group_494" data-name="Group 494" transform="translate(-617.877 -444.159)">
      <circle id="Ellipse_18" data-name="Ellipse 18" cx="27.22" cy="27.22" r="27.22" transform="translate(811.452 477.797)" fill="#e3031b"/>
      <g id="Group_493" data-name="Group 493">
        <path id="Path_5637" data-name="Path 5637" d="M826.827,496.212l-.2-3.191a1.96,1.96,0,0,1,.49-1.566,2.154,2.154,0,0,1,1.467-.6,2.192,2.192,0,0,1,1.545.423,1.94,1.94,0,0,1,.668,1.475l.041.648-1.619.1-.05-.79a1.276,1.276,0,0,0-.078-.4.409.409,0,0,0-.427-.21.419.419,0,0,0-.394.254,1.327,1.327,0,0,0-.033.416l.222,3.474a.958.958,0,0,0,.139.487.476.476,0,0,0,.758-.148,1.25,1.25,0,0,0,.035-.4l-.066-1.031,1.619-.1.057.889a1.965,1.965,0,0,1-.468,1.513,2.376,2.376,0,0,1-3.035.2A1.964,1.964,0,0,1,826.827,496.212Z" fill="#ffe000"/>
        <path id="Path_5638" data-name="Path 5638" d="M831.837,497.818l-.45-7.029,1.619-.1.168,2.632.932-.06-.169-2.632,1.619-.1.451,7.03-1.619.1-.192-2.993-.932.059.192,2.993Z" fill="#ffe000"/>
        <path id="Path_5639" data-name="Path 5639" d="M836.324,490.464l1.619-.1.451,7.038-1.618.1Zm.471-.4a1.085,1.085,0,0,1,.142-.536l.308-.442a.667.667,0,0,0,.157-.445.581.581,0,0,0-.059-.242.2.2,0,0,0-.2-.087.211.211,0,0,0-.178.119.823.823,0,0,0-.034.283l.016.24-.653.042-.019-.292a.8.8,0,0,1,.207-.612.918.918,0,0,1,.655-.28,1.117,1.117,0,0,1,.708.149.778.778,0,0,1,.276.608.942.942,0,0,1-.182.6l-.392.478a1.1,1.1,0,0,0-.165.377Z" fill="#ffe000"/>
        <path id="Path_5640" data-name="Path 5640" d="M840.719,491.553l-.087-1.357,3.714-.238.087,1.357-1.047.067.363,5.673-1.619.1-.363-5.673Z" fill="#ffe000"/>
        <path id="Path_5641" data-name="Path 5641" d="M848.7,488.886l1.193-.077.071,1.168-.525.629-.39.025.256,4.14a1.977,1.977,0,0,1-.468,1.513,2.387,2.387,0,0,1-3.043.2,1.957,1.957,0,0,1-.667-1.449l-.328-5.119,1.619-.1.329,5.135a1.535,1.535,0,0,0,.1.533c.051.114.188.165.411.15a.448.448,0,0,0,.343-.16.98.98,0,0,0,.075-.582l-.329-5.136,1.4-.073Zm-1.724-.726.463,1.169-.82.052-1.035-1.132Z" fill="#ffe000"/>
        <path id="Path_5642" data-name="Path 5642" d="M819.594,508.132l-.077-1.2a4.621,4.621,0,0,1,.838-3.379,5.508,5.508,0,0,1,6.428-.507,3.992,3.992,0,0,1,1.275,2.987,5.405,5.405,0,0,1-.707,3.2,7.736,7.736,0,0,1-.664.916q-.467.582-1.213,1.37a10.675,10.675,0,0,0-1.9,2.554l-.172.438-.124.436,5.214-.334.183,2.867-8.761.561-.062-.955a8.009,8.009,0,0,1,1.1-4.849q.031-.088,2.437-2.883a4.361,4.361,0,0,0,1.228-3.081,1.936,1.936,0,0,0-.311-1.139.938.938,0,0,0-.736-.229.771.771,0,0,0-.735.4,2.446,2.446,0,0,0-.12,1.091l.1,1.533Z" fill="#ffe000"/>
        <path id="Path_5643" data-name="Path 5643" d="M829.57,510.514l-.535-8.355,7.816-.5.183,2.867-4.948.317.146,2.29a2.82,2.82,0,0,1,.905-.49,3.577,3.577,0,0,1,.921-.235,3.476,3.476,0,0,1,2.8.856,3.96,3.96,0,0,1,1.006,2.643l.137,2.148a6.182,6.182,0,0,1-.67,3.777,4.062,4.062,0,0,1-3.33,1.553,4.791,4.791,0,0,1-3.241-.762,3.668,3.668,0,0,1-1.335-2.888l-.086-1.343,3.34-.214.095,1.476a1.48,1.48,0,0,0,.261.819.929.929,0,0,0,1.42-.091,1.383,1.383,0,0,0,.173-.847l-.213-3.331a1.608,1.608,0,0,0-.064-.4.925.925,0,0,0-.22-.471,1.009,1.009,0,0,0-1.417.129,1.558,1.558,0,0,0-.154.865Z" fill="#ffe000"/>
        <path id="Path_5644" data-name="Path 5644" d="M839.231,513.163l-.511-7.986a3.723,3.723,0,0,1,.925-2.9,4.427,4.427,0,0,1,3.093-1.253,4.522,4.522,0,0,1,3.227.829,3.766,3.766,0,0,1,1.28,2.778l.511,7.985a3.669,3.669,0,0,1-.935,2.9,5.3,5.3,0,0,1-6.3.4A3.686,3.686,0,0,1,839.231,513.163Zm2.926-8.463.544,8.487a1.1,1.1,0,0,0,.263.767.814.814,0,0,0,.614.175.871.871,0,0,0,.547-.216,1.1,1.1,0,0,0,.2-.83l-.544-8.487a1.085,1.085,0,0,0-.262-.757.817.817,0,0,0-.615-.175.856.856,0,0,0-.593.228A1.155,1.155,0,0,0,842.157,504.7Z" fill="#ffe000"/>
        <path id="Path_5645" data-name="Path 5645" d="M849.37,516.152l-.993-15.489,3.454-.221.406,6.339,2.016-6.495,3.775-.241-2.55,6.6,3.562,8.883-3.794.243-1.945-5.442-.751,1.33.273,4.267Z" fill="#ffe000"/>
      </g>
    </g>
  </g>
</svg>
