<svg xmlns="http://www.w3.org/2000/svg" width="17.843" height="5.588" viewBox="0 0 17.843 5.588">
  <g id="Group_571" data-name="Group 571" transform="translate(-60.01 -151.699)">
    <g id="Group_570" data-name="Group 570">
      <path id="Path_6398" data-name="Path 6398" d="M60.01,154.636a2.823,2.823,0,0,1,4.892-1.743l-.761.7a1.654,1.654,0,0,0-1.289-.6,1.641,1.641,0,1,0,0,3.282,1.635,1.635,0,0,0,1.289-.608l.761.7a2.818,2.818,0,0,1-4.892-1.736Z" fill="#df071b"/>
      <path id="Path_6399" data-name="Path 6399" d="M69.444,154.951V157.2H68.375v-.492a1.291,1.291,0,0,1-1.2.55c-.923,0-1.472-.513-1.472-1.194s.49-1.179,1.692-1.179H68.3c0-.491-.293-.776-.908-.776a1.89,1.89,0,0,0-1.136.366l-.41-.8a3.025,3.025,0,0,1,1.7-.476C68.749,153.2,69.444,153.757,69.444,154.951Zm-1.142,1v-.4h-.784c-.535,0-.7.2-.7.461,0,.285.242.477.644.477A.842.842,0,0,0,68.3,155.954Z" fill="#df071b"/>
      <path id="Path_6400" data-name="Path 6400" d="M72.1,153.347h1.011v.879h-.982V157.2H70.983v-2.974h-.608v-.879h.608v-.176a1.375,1.375,0,0,1,1.523-1.465,1.623,1.623,0,0,1,.872.213l-.3.827a.809.809,0,0,0-.462-.139c-.337,0-.52.183-.52.572Z" fill="#df071b"/>
      <path id="Path_6401" data-name="Path 6401" d="M77.832,155.552H74.851a1.05,1.05,0,0,0,1.127.791,1.337,1.337,0,0,0,.989-.381l.608.658a2.3,2.3,0,0,1-3.874-1.39,2.006,2.006,0,0,1,2.1-2.029,1.95,1.95,0,0,1,2.05,2.043C77.853,155.331,77.839,155.456,77.832,155.552Zm-3-.667h1.941a.984.984,0,0,0-1.941,0Zm1.172-2.132h-.894L76.1,151.7h1.23Z" fill="#df071b"/>
    </g>
  </g>
</svg>
