<svg xmlns="http://www.w3.org/2000/svg" xmlns:xlink="http://www.w3.org/1999/xlink" width="500" height="174" viewBox="0 0 500 174">
  <defs>
    <clipPath id="clip-Web_1920_1">
      <rect width="500" height="174"/>
    </clipPath>
  </defs>
  <g id="Web_1920_1" data-name="Web 1920 – 1" clip-path="url(#clip-Web_1920_1)">
    <g id="Group_332" data-name="Group 332" transform="translate(-708.146 -1019.605)">
      <g id="Group_329" data-name="Group 329">
        <g id="Group_328" data-name="Group 328">
          <path id="Path_3111" data-name="Path 3111" d="M712.91,1061.915v10.756h-2.49v-8.758h-2.151v-2Z" fill="#68695f"/>
          <path id="Path_3112" data-name="Path 3112" d="M715.476,1071.288a1.49,1.49,0,0,1,2.98,0,1.49,1.49,0,1,1-2.98,0Z" fill="#68695f"/>
          <path id="Path_3113" data-name="Path 3113" d="M736,1061.915v10.756h-2.043l-5.363-6.53v6.53H726.14v-10.756H728.2l5.347,6.53v-6.53Z" fill="#68695f"/>
          <path id="Path_3114" data-name="Path 3114" d="M747.683,1064.4v6.884c0,3.073-1.659,4.487-4.64,4.487a6.808,6.808,0,0,1-4.056-1.137l.952-1.721a4.944,4.944,0,0,0,2.92.937c1.69,0,2.428-.768,2.428-2.259v-.353a3.408,3.408,0,0,1-2.613,1.03,4,4,0,1,1,0-7.991,3.322,3.322,0,0,1,2.736,1.183v-1.06Zm-2.366,3.872a2.179,2.179,0,1,0-2.166,2.029A2.007,2.007,0,0,0,745.317,1068.276Z" fill="#68695f"/>
          <path id="Path_3115" data-name="Path 3115" d="M757.995,1067.954v4.717h-2.244v-1.029a2.71,2.71,0,0,1-2.519,1.152c-1.937,0-3.089-1.076-3.089-2.505,0-1.459,1.029-2.473,3.55-2.473H755.6c0-1.03-.614-1.629-1.905-1.629a3.98,3.98,0,0,0-2.382.768l-.86-1.675a6.354,6.354,0,0,1,3.564-1C756.536,1064.281,757.995,1065.449,757.995,1067.954Zm-2.4,2.1v-.845h-1.644c-1.122,0-1.475.415-1.475.968,0,.6.507,1,1.352,1A1.766,1.766,0,0,0,755.6,1070.059Z" fill="#68695f"/>
          <path id="Path_3116" data-name="Path 3116" d="M769.381,1067.939v4.732h-2.4v-4.364c0-1.337-.614-1.951-1.675-1.951-1.152,0-1.982.707-1.982,2.228v4.087h-2.4V1064.4h2.289v.968a3.623,3.623,0,0,1,2.736-1.091C767.906,1064.281,769.381,1065.419,769.381,1067.939Z" fill="#68695f"/>
          <path id="Path_3117" data-name="Path 3117" d="M776.818,1068.538a4.274,4.274,0,0,1,4.61-4.257,3.8,3.8,0,0,1,3.7,2.1l-1.859,1a2.062,2.062,0,0,0-1.859-1.137,2.293,2.293,0,0,0,0,4.579,2.034,2.034,0,0,0,1.859-1.137l1.859,1.014a3.836,3.836,0,0,1-3.7,2.09A4.274,4.274,0,0,1,776.818,1068.538Z" fill="#68695f"/>
          <path id="Path_3118" data-name="Path 3118" d="M795.672,1067.939v4.732h-2.4v-4.364c0-1.337-.614-1.951-1.675-1.951-1.152,0-1.982.707-1.982,2.228v4.087h-2.4v-11.4h2.4v3.995a3.631,3.631,0,0,1,2.628-.984C794.2,1064.281,795.672,1065.419,795.672,1067.939Z" fill="#68695f"/>
          <path id="Path_3119" data-name="Path 3119" d="M805.921,1067.954v4.717h-2.243v-1.029a2.711,2.711,0,0,1-2.519,1.152c-1.937,0-3.089-1.076-3.089-2.505,0-1.459,1.029-2.473,3.55-2.473h1.905c0-1.03-.615-1.629-1.905-1.629a3.977,3.977,0,0,0-2.382.768l-.861-1.675a6.36,6.36,0,0,1,3.565-1C804.462,1064.281,805.921,1065.449,805.921,1067.954Zm-6.56-6.823h1.506a1.345,1.345,0,0,0,2.642,0h1.506a2.879,2.879,0,0,1-5.654,0Zm4.164,8.928v-.845H801.88c-1.121,0-1.474.415-1.474.968,0,.6.507,1,1.351,1A1.767,1.767,0,0,0,803.525,1070.059Zm-.461,4.809a1.061,1.061,0,0,1-2.121,0,1.061,1.061,0,1,1,2.121,0Z" fill="#68695f"/>
          <path id="Path_3120" data-name="Path 3120" d="M814.188,1072.272a3.43,3.43,0,0,1-1.952.522c-1.951,0-3.088-1-3.088-2.966v-3.4h-1.276v-1.845h1.276v-2.012h2.4v2.012h2.06v1.845h-2.06v3.364a.965.965,0,0,0,1.031,1.092,1.614,1.614,0,0,0,.967-.308Z" fill="#68695f"/>
          <path id="Path_3121" data-name="Path 3121" d="M829.954,1064.4v6.884c0,3.073-1.66,4.487-4.64,4.487a6.811,6.811,0,0,1-4.057-1.137l.952-1.721a4.947,4.947,0,0,0,2.92.937c1.691,0,2.428-.768,2.428-2.259v-.353a3.406,3.406,0,0,1-2.612,1.03,4,4,0,1,1,0-7.991,3.322,3.322,0,0,1,2.735,1.183v-1.06Zm-2.367,3.872a2.179,2.179,0,1,0-2.166,2.029A2.007,2.007,0,0,0,827.587,1068.276Z" fill="#68695f"/>
          <path id="Path_3122" data-name="Path 3122" d="M832.337,1068.538a4.55,4.55,0,1,1,4.548,4.256A4.255,4.255,0,0,1,832.337,1068.538Zm6.653,0a2.119,2.119,0,1,0-2.1,2.289A2.087,2.087,0,0,0,838.99,1068.538Zm-1.459-7.407h2.581l-2.781,2.213h-1.875Z" fill="#68695f"/>
          <path id="Path_3123" data-name="Path 3123" d="M843.169,1068.538a4.275,4.275,0,0,1,4.611-4.257,3.8,3.8,0,0,1,3.7,2.1l-1.86,1a2.061,2.061,0,0,0-1.859-1.137,2.293,2.293,0,0,0,0,4.579,2.033,2.033,0,0,0,1.859-1.137l1.86,1.014a3.837,3.837,0,0,1-3.7,2.09A4.275,4.275,0,0,1,843.169,1068.538Z" fill="#68695f"/>
          <path id="Path_3124" data-name="Path 3124" d="M868.293,1063.559h-1.122v9.112h-2.289v-.953a3.177,3.177,0,0,1-2.581,1.076,4.258,4.258,0,0,1,0-8.513,3.178,3.178,0,0,1,2.474,1v-1.721h-2.813v-1.383h2.813v-.906h2.4v.906h1.122Zm-3.472,4.979a2.12,2.12,0,1,0-2.106,2.289A2.1,2.1,0,0,0,864.821,1068.538Z" fill="#68695f"/>
          <path id="Path_3125" data-name="Path 3125" d="M878.482,1064.4v8.267h-2.275v-.983a3.341,3.341,0,0,1-2.565,1.106c-2.075,0-3.534-1.168-3.534-3.719V1064.4h2.4v4.318c0,1.383.616,2,1.675,2,1.107,0,1.9-.706,1.9-2.227V1064.4Zm-4.671-1.06-2.781-2.213h2.581l2.074,2.213Z" fill="#68695f"/>
          <path id="Path_3126" data-name="Path 3126" d="M881.186,1061.915a1.371,1.371,0,0,1,1.49-1.337,1.345,1.345,0,0,1,1.49,1.291,1.5,1.5,0,0,1-2.98.046Zm.292,2.489h2.4v8.267h-2.4Z" fill="#68695f"/>
          <path id="Path_3127" data-name="Path 3127" d="M892.158,1061.27h4.164v1.874h-1.767v10.633h1.767v1.875h-4.164Z" fill="#68695f"/>
          <path id="Path_3128" data-name="Path 3128" d="M907.17,1061.915v10.756h-2.489v-8.758H902.53v-2Z" fill="#68695f"/>
          <path id="Path_3129" data-name="Path 3129" d="M913.778,1059.733h2.136l-5.071,14.475h-2.136Z" fill="#68695f"/>
          <path id="Path_3130" data-name="Path 3130" d="M925.471,1070.412H923.72v2.259h-2.428v-2.259H915.5v-1.675l5.071-6.822h2.612l-4.7,6.469h2.889v-2.013h2.351v2.013h1.751Z" fill="#68695f"/>
          <path id="Path_3131" data-name="Path 3131" d="M931.988,1068.538a4.274,4.274,0,0,1,4.609-4.257,3.8,3.8,0,0,1,3.7,2.1l-1.859,1a2.063,2.063,0,0,0-1.86-1.137,2.293,2.293,0,0,0,0,4.579,2.034,2.034,0,0,0,1.86-1.137l1.859,1.014a3.836,3.836,0,0,1-3.7,2.09A4.273,4.273,0,0,1,931.988,1068.538Z" fill="#68695f"/>
          <path id="Path_3132" data-name="Path 3132" d="M941.728,1068.538a4.551,4.551,0,1,1,4.549,4.256A4.256,4.256,0,0,1,941.728,1068.538Zm6.653,0a2.119,2.119,0,1,0-2.1,2.289A2.086,2.086,0,0,0,948.381,1068.538Z" fill="#68695f"/>
          <path id="Path_3133" data-name="Path 3133" d="M961.628,1067.939v4.732h-2.4v-4.364c0-1.337-.614-1.951-1.675-1.951-1.152,0-1.982.707-1.982,2.228v4.087h-2.4V1064.4h2.289v.968a3.625,3.625,0,0,1,2.736-1.091C960.153,1064.281,961.628,1065.419,961.628,1067.939Z" fill="#68695f"/>
          <path id="Path_3134" data-name="Path 3134" d="M968.8,1075.652v-1.875h1.752v-10.633H968.8v-1.874h4.149v14.382Z" fill="#68695f"/>
          <path id="Path_3135" data-name="Path 3135" d="M716.8,1093.906v2.029h-8.129v-1.614l4.15-3.918c.952-.906,1.121-1.46,1.121-1.982,0-.845-.584-1.337-1.721-1.337a2.63,2.63,0,0,0-2.228,1.076l-1.813-1.168a4.994,4.994,0,0,1,4.272-2c2.4,0,3.995,1.23,3.995,3.181,0,1.045-.292,2-1.8,3.4l-2.474,2.335Z" fill="#68695f"/>
          <path id="Path_3136" data-name="Path 3136" d="M718.672,1094.552a1.491,1.491,0,0,1,2.981,0,1.491,1.491,0,1,1-2.981,0Z" fill="#68695f"/>
          <path id="Path_3137" data-name="Path 3137" d="M739.2,1085.179v10.756h-2.043l-5.364-6.531v6.531h-2.458v-10.756H731.4l5.348,6.53v-6.53Z" fill="#68695f"/>
          <path id="Path_3138" data-name="Path 3138" d="M750.879,1087.668v6.884c0,3.073-1.659,4.487-4.639,4.487a6.809,6.809,0,0,1-4.057-1.138l.952-1.721a4.941,4.941,0,0,0,2.92.938c1.691,0,2.428-.768,2.428-2.259v-.354a3.4,3.4,0,0,1-2.612,1.03,4,4,0,1,1,0-7.99,3.318,3.318,0,0,1,2.735,1.183v-1.06Zm-2.366,3.872a2.179,2.179,0,1,0-2.166,2.028A2.007,2.007,0,0,0,748.513,1091.54Z" fill="#68695f"/>
          <path id="Path_3139" data-name="Path 3139" d="M761.191,1091.217v4.718h-2.243v-1.03a2.714,2.714,0,0,1-2.52,1.153c-1.936,0-3.089-1.076-3.089-2.505,0-1.46,1.03-2.474,3.55-2.474h1.905c0-1.03-.615-1.629-1.905-1.629a3.973,3.973,0,0,0-2.382.769l-.86-1.675a6.355,6.355,0,0,1,3.564-1C759.732,1087.545,761.191,1088.713,761.191,1091.217Zm-2.4,2.1v-.844H757.15c-1.121,0-1.475.414-1.475.967,0,.6.507,1,1.352,1A1.765,1.765,0,0,0,758.794,1093.322Z" fill="#68695f"/>
          <path id="Path_3140" data-name="Path 3140" d="M772.578,1091.2v4.733h-2.4v-4.364c0-1.337-.614-1.952-1.675-1.952-1.152,0-1.982.707-1.982,2.228v4.088h-2.4v-8.267h2.289v.968a3.621,3.621,0,0,1,2.736-1.091C771.1,1087.545,772.578,1088.682,772.578,1091.2Z" fill="#68695f"/>
          <path id="Path_3141" data-name="Path 3141" d="M780.015,1091.8a4.273,4.273,0,0,1,4.609-4.256,3.8,3.8,0,0,1,3.7,2.1l-1.86,1a2.06,2.06,0,0,0-1.859-1.137,2.293,2.293,0,0,0,0,4.579,2.033,2.033,0,0,0,1.859-1.137l1.86,1.014a3.837,3.837,0,0,1-3.7,2.09A4.274,4.274,0,0,1,780.015,1091.8Z" fill="#68695f"/>
          <path id="Path_3142" data-name="Path 3142" d="M798.869,1091.2v4.733h-2.4v-4.364c0-1.337-.614-1.952-1.675-1.952-1.152,0-1.982.707-1.982,2.228v4.088h-2.4v-11.4h2.4v3.995a3.634,3.634,0,0,1,2.628-.983C797.393,1087.545,798.869,1088.682,798.869,1091.2Z" fill="#68695f"/>
          <path id="Path_3143" data-name="Path 3143" d="M809.118,1091.217v4.718h-2.244v-1.03a2.711,2.711,0,0,1-2.519,1.153c-1.937,0-3.089-1.076-3.089-2.505,0-1.46,1.029-2.474,3.55-2.474h1.905c0-1.03-.614-1.629-1.905-1.629a3.973,3.973,0,0,0-2.382.769l-.86-1.675a6.355,6.355,0,0,1,3.564-1C807.659,1087.545,809.118,1088.713,809.118,1091.217Zm-6.561-6.822h1.506a1.346,1.346,0,0,0,2.643,0h1.505a2.879,2.879,0,0,1-5.654,0Zm4.164,8.927v-.844h-1.644c-1.121,0-1.475.414-1.475.967,0,.6.507,1,1.352,1A1.766,1.766,0,0,0,806.721,1093.322Zm-.461,4.81a1.06,1.06,0,0,1-2.12,0,1.06,1.06,0,1,1,2.12,0Z" fill="#68695f"/>
          <path id="Path_3144" data-name="Path 3144" d="M817.384,1095.535a3.423,3.423,0,0,1-1.952.523c-1.951,0-3.088-1-3.088-2.966v-3.4h-1.275v-1.844h1.275v-2.013h2.4v2.013H816.8v1.844h-2.059v3.365a.964.964,0,0,0,1.03,1.091,1.618,1.618,0,0,0,.968-.307Z" fill="#68695f"/>
          <path id="Path_3145" data-name="Path 3145" d="M824.791,1084.533h4.165v1.875h-1.767v10.633h1.767v1.875h-4.165Z" fill="#68695f"/>
          <path id="Path_3146" data-name="Path 3146" d="M839.8,1085.179v10.756h-2.489v-8.759h-2.151v-2Z" fill="#68695f"/>
          <path id="Path_3147" data-name="Path 3147" d="M846.412,1083h2.135l-5.07,14.474h-2.136Z" fill="#68695f"/>
          <path id="Path_3148" data-name="Path 3148" d="M857.276,1093.906v2.029h-8.129v-1.614l4.149-3.918c.952-.906,1.121-1.46,1.121-1.982,0-.845-.584-1.337-1.72-1.337a2.633,2.633,0,0,0-2.229,1.076l-1.812-1.168a4.993,4.993,0,0,1,4.271-2c2.4,0,3.995,1.23,3.995,3.181,0,1.045-.292,2-1.8,3.4l-2.473,2.335Z" fill="#68695f"/>
          <path id="Path_3149" data-name="Path 3149" d="M864.083,1091.8a4.274,4.274,0,0,1,4.61-4.256,3.8,3.8,0,0,1,3.7,2.1l-1.859,1a2.062,2.062,0,0,0-1.86-1.137,2.293,2.293,0,0,0,0,4.579,2.035,2.035,0,0,0,1.86-1.137l1.859,1.014a3.837,3.837,0,0,1-3.7,2.09A4.274,4.274,0,0,1,864.083,1091.8Z" fill="#68695f"/>
          <path id="Path_3150" data-name="Path 3150" d="M873.826,1091.8a4.55,4.55,0,1,1,4.547,4.257A4.255,4.255,0,0,1,873.826,1091.8Zm6.652,0a2.119,2.119,0,1,0-2.105,2.29A2.086,2.086,0,0,0,880.478,1091.8Z" fill="#68695f"/>
          <path id="Path_3151" data-name="Path 3151" d="M893.725,1091.2v4.733h-2.4v-4.364c0-1.337-.615-1.952-1.675-1.952-1.153,0-1.983.707-1.983,2.228v4.088h-2.4v-8.267h2.289v.968a3.617,3.617,0,0,1,2.735-1.091C892.249,1087.545,893.725,1088.682,893.725,1091.2Z" fill="#68695f"/>
          <path id="Path_3152" data-name="Path 3152" d="M900.9,1098.916v-1.875h1.752v-10.633H900.9v-1.875h4.148v14.383Z" fill="#68695f"/>
          <path id="Path_3153" data-name="Path 3153" d="M716.705,1115.911c0,1.813-1.4,3.472-4.457,3.472a7.4,7.4,0,0,1-4.1-1.152l.969-1.906a5.217,5.217,0,0,0,3.072.969c1.245,0,2.014-.508,2.014-1.383,0-.815-.6-1.322-2.014-1.322H711.05v-1.644l2.213-2.5h-4.579v-2h7.529v1.613l-2.427,2.766A3.057,3.057,0,0,1,716.705,1115.911Z" fill="#68695f"/>
          <path id="Path_3154" data-name="Path 3154" d="M718.549,1117.816a1.491,1.491,0,0,1,2.981,0,1.491,1.491,0,1,1-2.981,0Z" fill="#68695f"/>
          <path id="Path_3155" data-name="Path 3155" d="M739.078,1108.443V1119.2h-2.043l-5.364-6.53v6.53h-2.458v-10.756h2.059l5.348,6.53v-6.53Z" fill="#68695f"/>
          <path id="Path_3156" data-name="Path 3156" d="M750.756,1110.932v6.884c0,3.073-1.659,4.487-4.639,4.487a6.81,6.81,0,0,1-4.057-1.137l.952-1.721a4.947,4.947,0,0,0,2.92.937c1.69,0,2.428-.768,2.428-2.259v-.353a3.4,3.4,0,0,1-2.613,1.029,4,4,0,1,1,0-7.99,3.319,3.319,0,0,1,2.736,1.183v-1.06Zm-2.366,3.872a2.179,2.179,0,1,0-2.166,2.029A2.007,2.007,0,0,0,748.39,1114.8Z" fill="#68695f"/>
          <path id="Path_3157" data-name="Path 3157" d="M761.068,1114.482v4.717h-2.243v-1.029a2.715,2.715,0,0,1-2.52,1.152c-1.936,0-3.089-1.076-3.089-2.505,0-1.459,1.03-2.474,3.55-2.474h1.905c0-1.029-.615-1.629-1.905-1.629a3.973,3.973,0,0,0-2.382.769l-.86-1.675a6.355,6.355,0,0,1,3.564-1C759.609,1110.809,761.068,1111.977,761.068,1114.482Zm-2.4,2.1v-.845h-1.644c-1.121,0-1.475.414-1.475.968,0,.6.507,1,1.352,1A1.766,1.766,0,0,0,758.671,1116.587Z" fill="#68695f"/>
          <path id="Path_3158" data-name="Path 3158" d="M772.455,1114.466v4.733h-2.4v-4.364c0-1.337-.614-1.952-1.675-1.952-1.152,0-1.982.707-1.982,2.228v4.088H764v-8.267h2.289v.968a3.621,3.621,0,0,1,2.736-1.091C770.979,1110.809,772.455,1111.946,772.455,1114.466Z" fill="#68695f"/>
          <path id="Path_3159" data-name="Path 3159" d="M785.838,1118.8a3.423,3.423,0,0,1-1.952.523c-1.951,0-3.088-1-3.088-2.966v-3.395h-1.275v-1.845H780.8V1109.1h2.4v2.012h2.059v1.845H783.2v3.364a.965.965,0,0,0,1.03,1.092,1.617,1.617,0,0,0,.968-.308Z" fill="#68695f"/>
          <path id="Path_3160" data-name="Path 3160" d="M795.273,1114.482v4.717H793.03v-1.029a2.715,2.715,0,0,1-2.52,1.152c-1.936,0-3.089-1.076-3.089-2.505,0-1.459,1.03-2.474,3.55-2.474h1.9c0-1.029-.615-1.629-1.9-1.629a3.973,3.973,0,0,0-2.382.769l-.86-1.675a6.354,6.354,0,0,1,3.564-1C793.814,1110.809,795.273,1111.977,795.273,1114.482Zm-2.4,2.1v-.845h-1.644c-1.121,0-1.475.414-1.475.968,0,.6.507,1,1.352,1A1.766,1.766,0,0,0,792.876,1116.587Zm-.86-6.715h-1.875l2.074-2.213H794.8Z" fill="#68695f"/>
          <path id="Path_3161" data-name="Path 3161" d="M797.916,1108.443a1.371,1.371,0,0,1,1.491-1.337,1.345,1.345,0,0,1,1.49,1.291,1.5,1.5,0,0,1-2.981.046Zm.292,2.489h2.4v8.267h-2.4Z" fill="#68695f"/>
          <path id="Path_3162" data-name="Path 3162" d="M808.1,1115.066a4.274,4.274,0,0,1,4.61-4.257,3.8,3.8,0,0,1,3.7,2.1l-1.859,1a2.062,2.062,0,0,0-1.859-1.137,2.293,2.293,0,0,0,0,4.579,2.033,2.033,0,0,0,1.859-1.137l1.859,1.014a3.835,3.835,0,0,1-3.7,2.09A4.274,4.274,0,0,1,808.1,1115.066Z" fill="#68695f"/>
          <path id="Path_3163" data-name="Path 3163" d="M826.957,1114.466v4.733h-2.4v-4.364c0-1.337-.614-1.952-1.675-1.952-1.152,0-1.982.707-1.982,2.228v4.088h-2.4v-11.4h2.4v4a3.63,3.63,0,0,1,2.628-.984C825.482,1110.809,826.957,1111.946,826.957,1114.466Z" fill="#68695f"/>
          <path id="Path_3164" data-name="Path 3164" d="M837.206,1114.482v4.717h-2.243v-1.029a2.712,2.712,0,0,1-2.519,1.152c-1.937,0-3.089-1.076-3.089-2.505,0-1.459,1.029-2.474,3.55-2.474h1.9c0-1.029-.615-1.629-1.9-1.629a3.971,3.971,0,0,0-2.382.769l-.86-1.675a6.354,6.354,0,0,1,3.564-1C835.747,1110.809,837.206,1111.977,837.206,1114.482Zm-2.4,2.1v-.845h-1.645c-1.121,0-1.474.414-1.474.968,0,.6.507,1,1.351,1A1.768,1.768,0,0,0,834.81,1116.587Z" fill="#68695f"/>
          <path id="Path_3165" data-name="Path 3165" d="M848.592,1114.466v4.733h-2.4v-4.364c0-1.337-.614-1.952-1.675-1.952-1.152,0-1.982.707-1.982,2.228v4.088h-2.4v-8.267h2.289v.968a3.619,3.619,0,0,1,2.735-1.091C847.117,1110.809,848.592,1111.946,848.592,1114.466Z" fill="#68695f"/>
          <path id="Path_3166" data-name="Path 3166" d="M859.979,1114.466v4.733h-2.4v-4.364c0-1.337-.614-1.952-1.674-1.952-1.153,0-1.983.707-1.983,2.228v4.088h-2.4v-11.4h2.4v4a3.634,3.634,0,0,1,2.628-.984C858.5,1110.809,859.979,1111.946,859.979,1114.466Z" fill="#68695f"/>
          <path id="Path_3167" data-name="Path 3167" d="M867.438,1118.343a9.088,9.088,0,0,1,2.053-5.824h1.4a9.6,9.6,0,0,0-2.1,5.9,8,8,0,0,0,.414,2.529h-1.288A6.927,6.927,0,0,1,867.438,1118.343Z" fill="#e72024"/>
          <path id="Path_3168" data-name="Path 3168" d="M877.97,1115.526a3.6,3.6,0,0,1-3.925,3.673h-3.079l.54-2.719h-.854l.2-.972h.856l.522-2.611h2.638C876.809,1112.9,877.97,1113.914,877.97,1115.526Zm-1.476.081c0-.936-.6-1.513-1.791-1.513h-1.251l-.28,1.414h1.567l-.19.972h-1.575l-.306,1.522h1.422A2.266,2.266,0,0,0,876.494,1115.607Z" fill="#e72024"/>
          <path id="Path_3169" data-name="Path 3169" d="M884.639,1114.356l-.963,4.843h-1.333l.09-.477a2.157,2.157,0,0,1-1.485.549,2.04,2.04,0,0,1-2.088-2.17,2.693,2.693,0,0,1,2.674-2.818,1.73,1.73,0,0,1,1.575.73l.126-.657Zm-1.837,2.16a1,1,0,0,0-1.107-1.071,1.45,1.45,0,0,0-1.422,1.593,1,1,0,0,0,1.107,1.071A1.45,1.45,0,0,0,882.8,1116.516Zm-1.179,3.88a.654.654,0,0,1-.684.693.539.539,0,0,1-.576-.558.688.688,0,0,1,.684-.675A.544.544,0,0,1,881.623,1120.4Zm-.693-7.823a.679.679,0,0,1,.009-.135h.855a.627.627,0,0,0,.711.639.8.8,0,0,0,.838-.639h.909a1.716,1.716,0,0,1-1.828,1.368C881.569,1113.806,880.93,1113.329,880.93,1112.573Z" fill="#e72024"/>
          <path id="Path_3170" data-name="Path 3170" d="M885.509,1117.1a2.8,2.8,0,0,1,2.953-2.818,2.248,2.248,0,0,1,2.179,1.225l-1.188.594a1.106,1.106,0,0,0-1.081-.657,1.461,1.461,0,0,0-1.44,1.584,1.015,1.015,0,0,0,1.125,1.08,1.341,1.341,0,0,0,1.189-.647l1.035.647a2.67,2.67,0,0,1-2.3,1.162A2.189,2.189,0,0,1,885.509,1117.1Z" fill="#e72024"/>
          <path id="Path_3171" data-name="Path 3171" d="M899.966,1116.453a2.694,2.694,0,0,1-2.683,2.818,1.734,1.734,0,0,1-1.62-.792l-.144.72h-1.333l1.333-6.68h1.4l-.45,2.251a2.13,2.13,0,0,1,1.4-.487A2.047,2.047,0,0,1,899.966,1116.453Zm-1.423.063a1,1,0,0,0-1.107-1.071,1.449,1.449,0,0,0-1.413,1.593,1,1,0,0,0,1.1,1.071A1.449,1.449,0,0,0,898.543,1116.516Z" fill="#e72024"/>
          <path id="Path_3172" data-name="Path 3172" d="M901.81,1114.356h1.4l-.963,4.843h-1.4Zm.116-1.4a.855.855,0,0,1,.928-.837.745.745,0,0,1,.828.7.857.857,0,0,1-.936.864A.751.751,0,0,1,901.926,1112.951Z" fill="#e72024"/>
          <path id="Path_3173" data-name="Path 3173" d="M909.173,1117.155h-3.709c.045.658.45.991,1.251.991a1.986,1.986,0,0,0,1.3-.451l.585.928a3.207,3.207,0,0,1-2.025.648,2.187,2.187,0,0,1-2.476-2.17,2.733,2.733,0,0,1,2.854-2.818,2.077,2.077,0,0,1,2.3,2.134A3.778,3.778,0,0,1,909.173,1117.155Zm-2.611,3.241a.654.654,0,0,1-.684.693.539.539,0,0,1-.576-.558.688.688,0,0,1,.684-.675A.545.545,0,0,1,906.562,1120.4Zm-.063-6.653h-1.053l1.369-1.3h1.233l1.017,1.3h-1l-.694-.675Zm-.936,2.593h2.4a.964.964,0,0,0-1.081-1A1.329,1.329,0,0,0,905.563,1116.336Z" fill="#e72024"/>
          <path id="Path_3174" data-name="Path 3174" d="M912.007,1117.488a.772.772,0,0,0-.018.2c0,.3.162.468.513.468a1.131,1.131,0,0,0,.567-.17l.207,1a2.3,2.3,0,0,1-1.206.288,1.343,1.343,0,0,1-1.513-1.35,2.428,2.428,0,0,1,.045-.424l.388-1.953h-.747l.215-1.081h.748l.234-1.179h1.4l-.234,1.179h1.206l-.216,1.081h-1.206Z" fill="#e72024"/>
          <path id="Path_3175" data-name="Path 3175" d="M915.859,1115.048a8,8,0,0,0-.414-2.529h1.287a6.908,6.908,0,0,1,.486,2.6,9.083,9.083,0,0,1-2.053,5.824h-1.4A9.6,9.6,0,0,0,915.859,1115.048Z" fill="#e72024"/>
          <path id="Path_3176" data-name="Path 3176" d="M718.61,1140.2h-1.751v2.259h-2.428V1140.2h-5.793v-1.675l5.07-6.822h2.613l-4.7,6.468h2.888v-2.012h2.352v2.012h1.751Z" fill="#68695f"/>
          <path id="Path_3177" data-name="Path 3177" d="M720.347,1141.08a1.491,1.491,0,0,1,2.981,0,1.491,1.491,0,1,1-2.981,0Z" fill="#68695f"/>
          <path id="Path_3178" data-name="Path 3178" d="M740.875,1131.707v10.756h-2.043l-5.363-6.531v6.531h-2.458v-10.756h2.059l5.347,6.53v-6.53Z" fill="#68695f"/>
          <path id="Path_3179" data-name="Path 3179" d="M752.554,1134.2v6.884c0,3.073-1.659,4.487-4.64,4.487a6.808,6.808,0,0,1-4.056-1.138l.952-1.72a4.945,4.945,0,0,0,2.92.937c1.69,0,2.428-.768,2.428-2.259v-.354a3.4,3.4,0,0,1-2.613,1.03,4,4,0,1,1,0-7.99,3.319,3.319,0,0,1,2.736,1.183v-1.06Zm-2.366,3.872a2.179,2.179,0,1,0-2.166,2.028A2.007,2.007,0,0,0,750.188,1138.068Z" fill="#68695f"/>
          <path id="Path_3180" data-name="Path 3180" d="M762.866,1137.745v4.718h-2.244v-1.03a2.711,2.711,0,0,1-2.519,1.153c-1.937,0-3.089-1.076-3.089-2.505,0-1.46,1.029-2.474,3.55-2.474h1.9c0-1.03-.614-1.629-1.9-1.629a3.974,3.974,0,0,0-2.382.769l-.86-1.675a6.347,6.347,0,0,1,3.564-1C761.407,1134.073,762.866,1135.241,762.866,1137.745Zm-2.4,2.1v-.845h-1.644c-1.121,0-1.475.415-1.475.968,0,.6.507,1,1.352,1A1.766,1.766,0,0,0,760.469,1139.85Z" fill="#68695f"/>
          <path id="Path_3181" data-name="Path 3181" d="M774.252,1137.73v4.733h-2.4V1138.1c0-1.337-.614-1.952-1.675-1.952-1.152,0-1.982.707-1.982,2.228v4.088h-2.4V1134.2h2.289v.968a3.621,3.621,0,0,1,2.736-1.091C772.777,1134.073,774.252,1135.21,774.252,1137.73Z" fill="#68695f"/>
          <path id="Path_3182" data-name="Path 3182" d="M781.689,1138.329a4.274,4.274,0,0,1,4.61-4.256,3.8,3.8,0,0,1,3.7,2.1l-1.859,1a2.059,2.059,0,0,0-1.859-1.137,2.293,2.293,0,0,0,0,4.579,2.034,2.034,0,0,0,1.859-1.137L790,1140.5a3.835,3.835,0,0,1-3.7,2.09A4.275,4.275,0,0,1,781.689,1138.329Z" fill="#68695f"/>
          <path id="Path_3183" data-name="Path 3183" d="M800.543,1137.73v4.733h-2.4V1138.1c0-1.337-.614-1.952-1.675-1.952-1.152,0-1.982.707-1.982,2.228v4.088h-2.4v-11.4h2.4v3.995a3.634,3.634,0,0,1,2.628-.983C799.068,1134.073,800.543,1135.21,800.543,1137.73Z" fill="#68695f"/>
          <path id="Path_3184" data-name="Path 3184" d="M810.792,1137.745v4.718h-2.243v-1.03a2.711,2.711,0,0,1-2.519,1.153c-1.937,0-3.089-1.076-3.089-2.505,0-1.46,1.029-2.474,3.55-2.474h1.9c0-1.03-.615-1.629-1.9-1.629a3.971,3.971,0,0,0-2.382.769l-.861-1.675a6.352,6.352,0,0,1,3.565-1C809.333,1134.073,810.792,1135.241,810.792,1137.745Zm-2.4,2.1v-.845h-1.645c-1.121,0-1.474.415-1.474.968,0,.6.507,1,1.351,1A1.766,1.766,0,0,0,808.4,1139.85Zm-.86-6.715h-1.875l2.074-2.212h2.582Z" fill="#68695f"/>
          <path id="Path_3185" data-name="Path 3185" d="M821.778,1134.2l-3.734,8.773c-.8,2-1.936,2.6-3.426,2.6a3.669,3.669,0,0,1-2.3-.753l.876-1.706a2.119,2.119,0,0,0,1.351.522c.662,0,1.03-.292,1.353-1.029l.03-.077-3.58-8.328h2.474l2.32,5.608,2.336-5.608Z" fill="#68695f"/>
          <path id="Path_3186" data-name="Path 3186" d="M833.98,1142.063a3.423,3.423,0,0,1-1.952.523c-1.951,0-3.088-1-3.088-2.966v-3.4h-1.276v-1.844h1.276v-2.013h2.4v2.013h2.06v1.844h-2.06v3.365a.965.965,0,0,0,1.031,1.091,1.62,1.62,0,0,0,.967-.307Z" fill="#68695f"/>
          <path id="Path_3187" data-name="Path 3187" d="M835.226,1138.329a4.55,4.55,0,1,1,4.548,4.257A4.255,4.255,0,0,1,835.226,1138.329Zm6.652,0a2.119,2.119,0,1,0-2.1,2.29A2.085,2.085,0,0,0,841.878,1138.329Zm-2.427-5.839c.6-.277.784-.584.784-.937a.652.652,0,0,0-.723-.645,1.63,1.63,0,0,0-.906.291l-.491-.967a2.668,2.668,0,0,1,1.659-.523,1.665,1.665,0,0,1,1.844,1.644,2.064,2.064,0,0,1-1.414,1.936Z" fill="#68695f"/>
          <path id="Path_3188" data-name="Path 3188" d="M846.381,1131.707a1.371,1.371,0,0,1,1.491-1.337,1.345,1.345,0,0,1,1.49,1.29,1.5,1.5,0,0,1-2.981.047Zm.292,2.489h2.4v8.267h-2.4Z" fill="#68695f"/>
          <path id="Path_3189" data-name="Path 3189" d="M857.353,1131.061h4.164v1.875H859.75v10.633h1.767v1.874h-4.164Z" fill="#68695f"/>
          <path id="Path_3190" data-name="Path 3190" d="M872.365,1131.707v10.756h-2.49V1133.7h-2.151v-2Z" fill="#68695f"/>
          <path id="Path_3191" data-name="Path 3191" d="M878.972,1129.525h2.136L876.038,1144H873.9Z" fill="#68695f"/>
          <path id="Path_3192" data-name="Path 3192" d="M889.836,1140.434v2.029h-8.129v-1.614l4.15-3.918c.952-.906,1.121-1.46,1.121-1.982,0-.845-.584-1.337-1.721-1.337a2.628,2.628,0,0,0-2.228,1.076l-1.813-1.168a4.994,4.994,0,0,1,4.272-2c2.4,0,3.995,1.23,3.995,3.181,0,1.045-.292,2-1.8,3.4l-2.474,2.335Z" fill="#68695f"/>
          <path id="Path_3193" data-name="Path 3193" d="M896.644,1138.329a4.273,4.273,0,0,1,4.609-4.256,3.8,3.8,0,0,1,3.7,2.1l-1.859,1a2.059,2.059,0,0,0-1.859-1.137,2.293,2.293,0,0,0,0,4.579,2.034,2.034,0,0,0,1.859-1.137l1.859,1.014a3.835,3.835,0,0,1-3.7,2.09A4.274,4.274,0,0,1,896.644,1138.329Z" fill="#68695f"/>
          <path id="Path_3194" data-name="Path 3194" d="M906.386,1138.329a4.55,4.55,0,1,1,4.548,4.257A4.255,4.255,0,0,1,906.386,1138.329Zm6.653,0a2.119,2.119,0,1,0-2.1,2.29A2.086,2.086,0,0,0,913.039,1138.329Z" fill="#68695f"/>
          <path id="Path_3195" data-name="Path 3195" d="M926.286,1137.73v4.733h-2.4V1138.1c0-1.337-.614-1.952-1.675-1.952-1.152,0-1.982.707-1.982,2.228v4.088h-2.4V1134.2h2.289v.968a3.622,3.622,0,0,1,2.736-1.091C924.81,1134.073,926.286,1135.21,926.286,1137.73Z" fill="#68695f"/>
          <path id="Path_3196" data-name="Path 3196" d="M933.462,1145.443v-1.874h1.752v-10.633h-1.752v-1.875h4.149v14.382Z" fill="#68695f"/>
          <path id="Path_3197" data-name="Path 3197" d="M951.164,1131.061h4.164v1.875h-1.767v10.633h1.767v1.874h-4.164Z" fill="#68695f"/>
          <path id="Path_3198" data-name="Path 3198" d="M965.039,1140.434v2.029H956.91v-1.614l4.149-3.918c.952-.906,1.121-1.46,1.121-1.982,0-.845-.584-1.337-1.721-1.337a2.629,2.629,0,0,0-2.228,1.076l-1.813-1.168a4.994,4.994,0,0,1,4.272-2c2.4,0,3.995,1.23,3.995,3.181,0,1.045-.292,2-1.8,3.4l-2.473,2.335Z" fill="#68695f"/>
          <path id="Path_3199" data-name="Path 3199" d="M974.964,1139.082c0,1.905-1.4,3.565-4.471,3.565a7.429,7.429,0,0,1-4.1-1.153l.983-1.905a5.178,5.178,0,0,0,3.058.968c1.245,0,2.014-.522,2.014-1.4,0-.845-.554-1.4-2.505-1.4h-2.75l.553-6.054H974.3v2h-4.487l-.169,2.044h.876C973.705,1135.748,974.964,1137.177,974.964,1139.082Z" fill="#68695f"/>
          <path id="Path_3200" data-name="Path 3200" d="M986.258,1138.329a4.016,4.016,0,0,1-4.118,4.257,3.211,3.211,0,0,1-2.489-1v3.856h-2.4V1134.2h2.289v.953a3.213,3.213,0,0,1,2.6-1.076A4.015,4.015,0,0,1,986.258,1138.329Zm-2.427,0a2.112,2.112,0,1,0-2.1,2.29A2.086,2.086,0,0,0,983.831,1138.329Z" fill="#68695f"/>
          <path id="Path_3201" data-name="Path 3201" d="M987.749,1145.443v-1.874H989.5v-10.633h-1.752v-1.875H991.9v14.382Z" fill="#68695f"/>
          <path id="Path_3202" data-name="Path 3202" d="M999.572,1141.607a9.1,9.1,0,0,1,2.052-5.825h1.4a9.606,9.606,0,0,0-2.1,5.9,8,8,0,0,0,.415,2.53h-1.288A6.912,6.912,0,0,1,999.572,1141.607Z" fill="#17a31e"/>
          <path id="Path_3203" data-name="Path 3203" d="M1009.123,1140.473c0,1.35-1.2,1.99-2.835,1.99h-3.305l1.261-6.3h3.043c1.359,0,2.115.513,2.115,1.44a1.692,1.692,0,0,1-1.125,1.612A1.276,1.276,0,0,1,1009.123,1140.473Zm-1.45-.018c0-.468-.369-.648-.945-.648h-1.765l-.3,1.557h1.719C1007.178,1141.364,1007.673,1141.058,1007.673,1140.455Zm-2.2-3.2-.3,1.485h1.486c.756,0,1.215-.306,1.215-.891,0-.414-.342-.594-.927-.594Z" fill="#17a31e"/>
          <path id="Path_3204" data-name="Path 3204" d="M1016.107,1137.619l-.963,4.844h-1.333l.09-.478a2.153,2.153,0,0,1-1.486.55,2.039,2.039,0,0,1-2.087-2.17,2.691,2.691,0,0,1,2.673-2.818,1.733,1.733,0,0,1,1.576.729l.126-.657Zm-1.837,2.161a1,1,0,0,0-1.107-1.071,1.45,1.45,0,0,0-1.422,1.593,1,1,0,0,0,1.107,1.071A1.45,1.45,0,0,0,1014.27,1139.78Zm-.162-2.782h-1.134l1.351-1.3h1.547Z" fill="#17a31e"/>
          <path id="Path_3205" data-name="Path 3205" d="M1022.433,1139.194a2.83,2.83,0,0,1-.063.586l-.54,2.683h-1.405l.523-2.593a1.565,1.565,0,0,0,.036-.333c0-.495-.271-.775-.828-.775a1.34,1.34,0,0,0-1.378,1.243l-.487,2.458h-1.4l.964-4.844h1.332l-.108.522a2.308,2.308,0,0,1,1.593-.594A1.571,1.571,0,0,1,1022.433,1139.194Z" fill="#17a31e"/>
          <path id="Path_3206" data-name="Path 3206" d="M1026.643,1140.365a2.8,2.8,0,0,1,2.953-2.818,2.246,2.246,0,0,1,2.179,1.225l-1.189.594a1.1,1.1,0,0,0-1.08-.657,1.461,1.461,0,0,0-1.44,1.584,1.015,1.015,0,0,0,1.125,1.08,1.337,1.337,0,0,0,1.188-.648l1.035.648a2.666,2.666,0,0,1-2.3,1.162A2.189,2.189,0,0,1,1026.643,1140.365Z" fill="#17a31e"/>
          <path id="Path_3207" data-name="Path 3207" d="M1037.832,1139.2a2.693,2.693,0,0,1-.063.576l-.54,2.683h-1.4l.522-2.593a1.565,1.565,0,0,0,.036-.333c0-.495-.27-.775-.828-.775a1.34,1.34,0,0,0-1.378,1.243l-.486,2.458h-1.4l1.333-6.681h1.4l-.45,2.278a2.3,2.3,0,0,1,1.494-.513A1.576,1.576,0,0,1,1037.832,1139.2Z" fill="#17a31e"/>
          <path id="Path_3208" data-name="Path 3208" d="M1044.888,1137.619l-.963,4.844h-1.333l.09-.478a2.152,2.152,0,0,1-1.485.55,2.04,2.04,0,0,1-2.088-2.17,2.692,2.692,0,0,1,2.674-2.818,1.732,1.732,0,0,1,1.575.729l.126-.657Zm-1.837,2.161a1,1,0,0,0-1.107-1.071,1.45,1.45,0,0,0-1.422,1.593,1,1,0,0,0,1.107,1.071A1.45,1.45,0,0,0,1043.051,1139.78Zm-1.179,3.88a.654.654,0,0,1-.684.693.539.539,0,0,1-.576-.558.688.688,0,0,1,.684-.675A.544.544,0,0,1,1041.872,1143.66Z" fill="#17a31e"/>
          <path id="Path_3209" data-name="Path 3209" d="M1051.439,1137.619l-3.223,5.168c-.711,1.143-1.287,1.494-2.215,1.494a2.069,2.069,0,0,1-1.314-.423l.648-1.008a1.148,1.148,0,0,0,.775.3c.369,0,.6-.171.873-.595l.045-.081-1.116-4.852h1.4l.721,3.295,2.016-3.295Z" fill="#17a31e"/>
          <path id="Path_3210" data-name="Path 3210" d="M1052.9,1138.312a8.013,8.013,0,0,0-.414-2.53h1.287a6.918,6.918,0,0,1,.486,2.6,9.088,9.088,0,0,1-2.052,5.825H1050.8A9.6,9.6,0,0,0,1052.9,1138.312Z" fill="#17a31e"/>
          <path id="Path_3211" data-name="Path 3211" d="M716.889,1162.346c0,1.905-1.4,3.565-4.472,3.565a7.429,7.429,0,0,1-4.1-1.153l.983-1.905a5.184,5.184,0,0,0,3.058.968c1.245,0,2.014-.523,2.014-1.4,0-.845-.554-1.4-2.505-1.4h-2.75l.552-6.055h6.562v2h-4.487l-.169,2.043h.876C715.629,1159.011,716.889,1160.441,716.889,1162.346Z" fill="#68695f"/>
          <path id="Path_3212" data-name="Path 3212" d="M718.595,1164.343a1.491,1.491,0,0,1,2.981,0,1.491,1.491,0,1,1-2.981,0Z" fill="#68695f"/>
          <path id="Path_3213" data-name="Path 3213" d="M739.123,1154.97v10.756h-2.042l-5.364-6.53v6.53h-2.458V1154.97h2.059l5.347,6.531v-6.531Z" fill="#68695f"/>
          <path id="Path_3214" data-name="Path 3214" d="M750.8,1157.46v6.883c0,3.074-1.659,4.487-4.639,4.487a6.809,6.809,0,0,1-4.057-1.137l.952-1.721a4.938,4.938,0,0,0,2.92.937c1.69,0,2.428-.768,2.428-2.259v-.353a3.4,3.4,0,0,1-2.613,1.03,4,4,0,1,1,0-7.99,3.319,3.319,0,0,1,2.736,1.183v-1.06Zm-2.366,3.872a2.179,2.179,0,1,0-2.166,2.028A2.007,2.007,0,0,0,748.436,1161.332Z" fill="#68695f"/>
          <path id="Path_3215" data-name="Path 3215" d="M761.114,1161.009v4.717h-2.243V1164.7a2.713,2.713,0,0,1-2.52,1.152c-1.937,0-3.089-1.075-3.089-2.505,0-1.459,1.029-2.473,3.55-2.473h1.9c0-1.03-.614-1.629-1.9-1.629a3.98,3.98,0,0,0-2.382.768l-.86-1.674a6.346,6.346,0,0,1,3.564-1C759.655,1157.337,761.114,1158.505,761.114,1161.009Zm-2.4,2.1v-.845h-1.644c-1.121,0-1.475.415-1.475.968,0,.6.507,1,1.352,1A1.766,1.766,0,0,0,758.717,1163.114Z" fill="#68695f"/>
          <path id="Path_3216" data-name="Path 3216" d="M772.5,1160.994v4.732h-2.4v-4.364c0-1.337-.614-1.951-1.675-1.951-1.152,0-1.982.707-1.982,2.228v4.087h-2.4v-8.266h2.289v.967a3.624,3.624,0,0,1,2.736-1.09C771.025,1157.337,772.5,1158.474,772.5,1160.994Z" fill="#68695f"/>
          <path id="Path_3217" data-name="Path 3217" d="M785.807,1165.726l-1.813-2.535-1.874,2.535h-2.613l3.181-4.164-3.073-4.1H782.3l1.751,2.412,1.8-2.412H788.4l-3.073,4.041,3.2,4.225Z" fill="#68695f"/>
          <path id="Path_3218" data-name="Path 3218" d="M797.623,1161.009v4.717H795.38V1164.7a2.71,2.71,0,0,1-2.519,1.152c-1.937,0-3.089-1.075-3.089-2.505,0-1.459,1.029-2.473,3.55-2.473h1.9c0-1.03-.614-1.629-1.9-1.629a3.977,3.977,0,0,0-2.382.768l-.86-1.674a6.346,6.346,0,0,1,3.564-1C796.164,1157.337,797.623,1158.505,797.623,1161.009Zm-4.209-4.61-2.782-2.212h2.582l2.075,2.212Zm1.813,6.715v-.845h-1.645c-1.121,0-1.474.415-1.474.968,0,.6.507,1,1.351,1A1.766,1.766,0,0,0,795.227,1163.114Z" fill="#68695f"/>
          <path id="Path_3219" data-name="Path 3219" d="M800.037,1161.593a4.55,4.55,0,1,1,4.547,4.256A4.254,4.254,0,0,1,800.037,1161.593Zm6.652,0a2.119,2.119,0,1,0-2.105,2.289A2.086,2.086,0,0,0,806.689,1161.593Z" fill="#68695f"/>
          <path id="Path_3220" data-name="Path 3220" d="M816.6,1154.325H819v11.4h-2.4Z" fill="#68695f"/>
          <path id="Path_3221" data-name="Path 3221" d="M829.308,1161.009v4.717h-2.243V1164.7a2.712,2.712,0,0,1-2.52,1.152c-1.936,0-3.089-1.075-3.089-2.505,0-1.459,1.03-2.473,3.55-2.473h1.906c0-1.03-.616-1.629-1.906-1.629a3.979,3.979,0,0,0-2.382.768l-.86-1.674a6.347,6.347,0,0,1,3.565-1C827.849,1157.337,829.308,1158.505,829.308,1161.009Zm-6.561-6.822h1.506a1.346,1.346,0,0,0,2.643,0H828.4a2.879,2.879,0,0,1-5.655,0Zm4.165,8.927v-.845h-1.645c-1.121,0-1.475.415-1.475.968,0,.6.507,1,1.352,1A1.767,1.767,0,0,0,826.912,1163.114Z" fill="#68695f"/>
          <path id="Path_3222" data-name="Path 3222" d="M840.7,1160.994v4.732h-2.4v-4.364c0-1.337-.614-1.951-1.675-1.951-1.152,0-1.982.707-1.982,2.228v4.087h-2.4v-8.266h2.289v.967a3.62,3.62,0,0,1,2.735-1.09C839.219,1157.337,840.7,1158.474,840.7,1160.994Z" fill="#68695f"/>
          <path id="Path_3223" data-name="Path 3223" d="M848.915,1154.325h4.165v1.874h-1.767v10.634h1.767v1.874h-4.165Z" fill="#68695f"/>
          <path id="Path_3224" data-name="Path 3224" d="M863.929,1154.97v10.756H861.44v-8.758h-2.151v-2Z" fill="#68695f"/>
          <path id="Path_3225" data-name="Path 3225" d="M870.536,1152.788h2.135l-5.07,14.475h-2.136Z" fill="#68695f"/>
          <path id="Path_3226" data-name="Path 3226" d="M881.4,1163.7v2.028h-8.129v-1.613l4.149-3.919c.952-.906,1.121-1.459,1.121-1.981,0-.846-.584-1.337-1.72-1.337a2.632,2.632,0,0,0-2.229,1.075l-1.812-1.168a4.993,4.993,0,0,1,4.271-2c2.4,0,3.995,1.229,3.995,3.18,0,1.045-.292,2-1.8,3.4l-2.473,2.336Z" fill="#68695f"/>
          <path id="Path_3227" data-name="Path 3227" d="M888.208,1161.593a4.274,4.274,0,0,1,4.61-4.256,3.8,3.8,0,0,1,3.7,2.1l-1.859,1a2.063,2.063,0,0,0-1.86-1.138,2.293,2.293,0,0,0,0,4.579,2.035,2.035,0,0,0,1.86-1.137l1.859,1.014a3.835,3.835,0,0,1-3.7,2.09A4.274,4.274,0,0,1,888.208,1161.593Z" fill="#68695f"/>
          <path id="Path_3228" data-name="Path 3228" d="M897.949,1161.593a4.551,4.551,0,1,1,4.548,4.256A4.256,4.256,0,0,1,897.949,1161.593Zm6.653,0a2.119,2.119,0,1,0-2.1,2.289A2.086,2.086,0,0,0,904.6,1161.593Z" fill="#68695f"/>
          <path id="Path_3229" data-name="Path 3229" d="M917.849,1160.994v4.732h-2.4v-4.364c0-1.337-.615-1.951-1.675-1.951-1.153,0-1.983.707-1.983,2.228v4.087h-2.4v-8.266h2.289v.967a3.62,3.62,0,0,1,2.735-1.09C916.373,1157.337,917.849,1158.474,917.849,1160.994Z" fill="#68695f"/>
          <path id="Path_3230" data-name="Path 3230" d="M925.026,1168.707v-1.874h1.752V1156.2h-1.752v-1.874h4.148v14.382Z" fill="#68695f"/>
          <path id="Path_3231" data-name="Path 3231" d="M717.642,1185.594c0,2.2-1.8,3.581-4.072,3.581-2.965,0-4.809-1.859-4.809-5.332,0-3.718,2.243-5.793,5.486-5.793a5.8,5.8,0,0,1,3,.738l-.922,1.828a3.541,3.541,0,0,0-2.013-.538c-1.8,0-2.95,1.06-3.027,3.119a3.63,3.63,0,0,1,2.658-.952A3.412,3.412,0,0,1,717.642,1185.594Zm-2.412.123a1.622,1.622,0,0,0-1.829-1.613,1.682,1.682,0,0,0-1.859,1.613c0,.922.692,1.6,1.89,1.6A1.608,1.608,0,0,0,715.23,1185.717Z" fill="#68695f"/>
          <path id="Path_3232" data-name="Path 3232" d="M719.394,1187.608a1.49,1.49,0,0,1,2.98,0,1.49,1.49,0,1,1-2.98,0Z" fill="#68695f"/>
          <path id="Path_3233" data-name="Path 3233" d="M729.382,1183.612a5.923,5.923,0,0,1,10.264-3.657l-1.6,1.475a3.461,3.461,0,0,0-2.7-1.259,3.441,3.441,0,1,0,0,6.883,3.428,3.428,0,0,0,2.7-1.275l1.6,1.475a5.912,5.912,0,0,1-10.264-3.642Z" fill="#68695f"/>
          <path id="Path_3234" data-name="Path 3234" d="M750.372,1184.258v4.732h-2.4v-4.363c0-1.337-.614-1.952-1.675-1.952-1.152,0-1.982.707-1.982,2.228v4.087h-2.4v-11.4h2.4v3.995a3.634,3.634,0,0,1,2.628-.983C748.9,1180.6,750.372,1181.738,750.372,1184.258Z" fill="#68695f"/>
          <path id="Path_3235" data-name="Path 3235" d="M760.622,1184.273v4.717h-2.244v-1.029a2.71,2.71,0,0,1-2.519,1.152c-1.937,0-3.089-1.075-3.089-2.5,0-1.46,1.029-2.474,3.55-2.474h1.9c0-1.03-.614-1.629-1.9-1.629a3.973,3.973,0,0,0-2.382.769l-.86-1.675a6.347,6.347,0,0,1,3.564-1C759.163,1180.6,760.622,1181.769,760.622,1184.273Zm-2.4,2.105v-.845h-1.644c-1.122,0-1.475.415-1.475.968,0,.6.507,1,1.351,1A1.766,1.766,0,0,0,758.225,1186.378Zm-2.474-8.651-.492-.968a2.676,2.676,0,0,1,1.659-.522,1.665,1.665,0,0,1,1.845,1.644,2.063,2.063,0,0,1-1.414,1.936l-.753-.8c.6-.277.783-.584.783-.937a.651.651,0,0,0-.721-.646A1.619,1.619,0,0,0,755.751,1177.727Z" fill="#68695f"/>
          <path id="Path_3236" data-name="Path 3236" d="M777.124,1184.258v4.732h-2.4v-4.363c0-1.337-.614-1.952-1.675-1.952-1.152,0-1.982.707-1.982,2.228v4.087h-2.4v-8.266h2.289v.968a3.621,3.621,0,0,1,2.736-1.091C775.649,1180.6,777.124,1181.738,777.124,1184.258Z" fill="#68695f"/>
          <path id="Path_3237" data-name="Path 3237" d="M788.68,1180.724v6.884c0,3.073-1.659,4.486-4.64,4.486a6.809,6.809,0,0,1-4.056-1.137l.952-1.721a4.937,4.937,0,0,0,2.92.937c1.69,0,2.428-.768,2.428-2.258v-.354a3.4,3.4,0,0,1-2.613,1.03,4,4,0,1,1,0-7.99,3.319,3.319,0,0,1,2.736,1.183v-1.06Zm-2.366,3.872a2.179,2.179,0,1,0-2.166,2.028A2.007,2.007,0,0,0,786.314,1184.6Z" fill="#68695f"/>
          <path id="Path_3238" data-name="Path 3238" d="M798.992,1184.273v4.717h-2.244v-1.029a2.71,2.71,0,0,1-2.519,1.152c-1.937,0-3.089-1.075-3.089-2.5,0-1.46,1.029-2.474,3.55-2.474h1.9c0-1.03-.615-1.629-1.9-1.629a3.973,3.973,0,0,0-2.382.769l-.86-1.675a6.347,6.347,0,0,1,3.564-1C797.533,1180.6,798.992,1181.769,798.992,1184.273Zm-2.4,2.105v-.845h-1.644c-1.121,0-1.475.415-1.475.968,0,.6.507,1,1.352,1A1.766,1.766,0,0,0,796.595,1186.378Z" fill="#68695f"/>
          <path id="Path_3239" data-name="Path 3239" d="M810.378,1184.258v4.732h-2.4v-4.363c0-1.337-.614-1.952-1.675-1.952-1.152,0-1.982.707-1.982,2.228v4.087h-2.4v-8.266h2.289v.968a3.621,3.621,0,0,1,2.736-1.091C808.9,1180.6,810.378,1181.738,810.378,1184.258Z" fill="#68695f"/>
          <path id="Path_3240" data-name="Path 3240" d="M826.881,1184.258v4.732h-2.4v-4.363c0-1.337-.614-1.952-1.675-1.952-1.152,0-1.982.707-1.982,2.228v4.087h-2.4v-8.266h2.289v.968a3.62,3.62,0,0,1,2.736-1.091C825.406,1180.6,826.881,1181.738,826.881,1184.258Z" fill="#68695f"/>
          <path id="Path_3241" data-name="Path 3241" d="M838.145,1182.107v6.883h-2.274v-.983a3.345,3.345,0,0,1-2.566,1.106c-2.075,0-3.534-1.168-3.534-3.718v-4.671h2.4v4.318c0,1.382.616,2,1.675,2,1.107,0,1.905-.707,1.905-2.228v-4.087h1.276a.9.9,0,0,0,.922-.969,1.476,1.476,0,0,0-.307-.921l1.413-.523a2.48,2.48,0,0,1,.492,1.537A2.251,2.251,0,0,1,838.145,1182.107Z" fill="#68695f"/>
          <path id="Path_3242" data-name="Path 3242" d="M849.516,1184.857A4.55,4.55,0,1,1,845,1180.6c.8,0,1.26.138,1.829.138a.915.915,0,0,0,.983-1,1.565,1.565,0,0,0-.322-.922l1.4-.522a2.565,2.565,0,0,1,.523,1.537,2.144,2.144,0,0,1-1.167,1.982A4.084,4.084,0,0,1,849.516,1184.857Zm-2.429,0a2.119,2.119,0,1,0-2.1,2.29A2.086,2.086,0,0,0,847.087,1184.857Zm-1.628-5.194h-1.875l2.075-2.212h2.582Z" fill="#68695f"/>
          <path id="Path_3243" data-name="Path 3243" d="M860.333,1184.258v4.732h-2.4v-4.363c0-1.337-.614-1.952-1.675-1.952-1.152,0-1.982.707-1.982,2.228v4.087h-2.4v-8.266h2.289v.968a3.621,3.621,0,0,1,2.736-1.091C858.858,1180.6,860.333,1181.738,860.333,1184.258Z" fill="#68695f"/>
          <path id="Path_3244" data-name="Path 3244" d="M871.888,1180.724v6.884c0,3.073-1.659,4.486-4.64,4.486a6.809,6.809,0,0,1-4.056-1.137l.952-1.721a4.937,4.937,0,0,0,2.92.937c1.69,0,2.428-.768,2.428-2.258v-.354a3.4,3.4,0,0,1-2.613,1.03,4,4,0,1,1,0-7.99,3.319,3.319,0,0,1,2.736,1.183v-1.06Zm-2.366,3.872a2.179,2.179,0,1,0-2.166,2.028A2.007,2.007,0,0,0,869.522,1184.6Z" fill="#68695f"/>
          <path id="Path_3245" data-name="Path 3245" d="M888.531,1180.724v6.884c0,3.073-1.659,4.486-4.64,4.486a6.812,6.812,0,0,1-4.057-1.137l.953-1.721a4.936,4.936,0,0,0,2.919.937c1.691,0,2.428-.768,2.428-2.258v-.354a3.4,3.4,0,0,1-2.612,1.03,4,4,0,1,1,0-7.99,3.319,3.319,0,0,1,2.735,1.183v-1.06Zm-2.367,3.872a2.179,2.179,0,1,0-2.166,2.028A2.007,2.007,0,0,0,886.164,1184.6Z" fill="#68695f"/>
          <path id="Path_3246" data-name="Path 3246" d="M891.236,1178.234a1.37,1.37,0,0,1,1.49-1.336,1.345,1.345,0,0,1,1.49,1.29,1.5,1.5,0,0,1-2.98.046Zm.292,2.49h2.4v8.266h-2.4Z" fill="#68695f"/>
          <path id="Path_3247" data-name="Path 3247" d="M905.019,1184.888c0,.184-.031.445-.046.645h-6.254a2.2,2.2,0,0,0,2.366,1.659,2.807,2.807,0,0,0,2.075-.8l1.275,1.382a4.331,4.331,0,0,1-3.411,1.337c-2.859,0-4.718-1.8-4.718-4.256a4.209,4.209,0,0,1,4.41-4.256A4.093,4.093,0,0,1,905.019,1184.888Zm-5.67-5.225h-1.768l2.044-1.751h2.09l2.044,1.751h-1.767l-1.322-.875Zm-.661,4.472h4.072a2.065,2.065,0,0,0-4.072,0Zm4.748-5.947-2.412-1.859h2.443l1.691,1.859Z" fill="#68695f"/>
          <path id="Path_3248" data-name="Path 3248" d="M915.837,1184.258v4.732h-2.4v-4.363c0-1.337-.614-1.952-1.675-1.952-1.152,0-1.982.707-1.982,2.228v4.087h-2.4v-8.266h2.289v.968a3.621,3.621,0,0,1,2.736-1.091C914.362,1180.6,915.837,1181.738,915.837,1184.258Z" fill="#68695f"/>
          <path id="Path_3249" data-name="Path 3249" d="M927.393,1180.724v6.884c0,3.073-1.659,4.486-4.64,4.486a6.807,6.807,0,0,1-4.056-1.137l.952-1.721a4.937,4.937,0,0,0,2.92.937c1.69,0,2.428-.768,2.428-2.258v-.354a3.4,3.4,0,0,1-2.613,1.03,4,4,0,1,1,0-7.99,3.319,3.319,0,0,1,2.736,1.183v-1.06Zm-2.366,3.872a2.179,2.179,0,1,0-2.166,2.028A2.007,2.007,0,0,0,925.027,1184.6Z" fill="#68695f"/>
          <path id="Path_3250" data-name="Path 3250" d="M949.474,1184.258v4.732h-2.4v-4.363c0-1.337-.6-1.952-1.568-1.952-1.075,0-1.828.691-1.828,2.166v4.149h-2.4v-4.363c0-1.337-.569-1.952-1.568-1.952-1.06,0-1.813.691-1.813,2.166v4.149h-2.4v-8.266H937.8v.952a3.35,3.35,0,0,1,2.6-1.075,3.086,3.086,0,0,1,2.72,1.352,3.718,3.718,0,0,1,2.981-1.352C948.061,1180.6,949.474,1181.738,949.474,1184.258Z" fill="#68695f"/>
          <path id="Path_3251" data-name="Path 3251" d="M960.539,1185.533h-6.254a2.2,2.2,0,0,0,2.366,1.659,2.8,2.8,0,0,0,2.074-.8l1.275,1.382a4.328,4.328,0,0,1-3.411,1.337c-2.858,0-4.717-1.8-4.717-4.256a4.208,4.208,0,0,1,4.41-4.256,4.093,4.093,0,0,1,4.3,4.287C960.584,1185.072,960.553,1185.333,960.539,1185.533Zm-6.286-1.4h4.073a2.065,2.065,0,0,0-4.073,0Zm.846-6.408-.492-.968a2.676,2.676,0,0,1,1.66-.522,1.665,1.665,0,0,1,1.844,1.644,2.065,2.065,0,0,1-1.414,1.936l-.753-.8c.6-.277.784-.584.784-.937a.652.652,0,0,0-.723-.646A1.618,1.618,0,0,0,955.1,1177.727Z" fill="#68695f"/>
          <path id="Path_3252" data-name="Path 3252" d="M968.238,1177.589H972.4v1.874h-1.767V1190.1H972.4v1.874h-4.164Z" fill="#68695f"/>
          <path id="Path_3253" data-name="Path 3253" d="M983.25,1178.234v10.756h-2.489v-8.758H978.61v-2Z" fill="#68695f"/>
          <path id="Path_3254" data-name="Path 3254" d="M989.858,1176.052h2.136l-5.071,14.475h-2.135Z" fill="#68695f"/>
          <path id="Path_3255" data-name="Path 3255" d="M1000.722,1186.962v2.028h-8.129v-1.613l4.15-3.918c.952-.907,1.121-1.46,1.121-1.982,0-.846-.584-1.337-1.721-1.337a2.633,2.633,0,0,0-2.229,1.075l-1.812-1.168a5,5,0,0,1,4.271-2c2.4,0,4,1.229,4,3.181,0,1.044-.292,2-1.8,3.4l-2.474,2.335Z" fill="#68695f"/>
          <path id="Path_3256" data-name="Path 3256" d="M1007.529,1184.857a4.274,4.274,0,0,1,4.61-4.256,3.8,3.8,0,0,1,3.7,2.105l-1.859,1a2.062,2.062,0,0,0-1.86-1.138,2.294,2.294,0,0,0,0,4.58,2.035,2.035,0,0,0,1.86-1.138l1.859,1.015a3.835,3.835,0,0,1-3.7,2.089A4.274,4.274,0,0,1,1007.529,1184.857Z" fill="#68695f"/>
          <path id="Path_3257" data-name="Path 3257" d="M1017.271,1184.857a4.551,4.551,0,1,1,4.549,4.256A4.256,4.256,0,0,1,1017.271,1184.857Zm6.653,0a2.119,2.119,0,1,0-2.1,2.29A2.086,2.086,0,0,0,1023.924,1184.857Z" fill="#68695f"/>
          <path id="Path_3258" data-name="Path 3258" d="M1037.171,1184.258v4.732h-2.4v-4.363c0-1.337-.614-1.952-1.675-1.952-1.152,0-1.982.707-1.982,2.228v4.087h-2.4v-8.266h2.289v.968a3.619,3.619,0,0,1,2.736-1.091C1035.7,1180.6,1037.171,1181.738,1037.171,1184.258Z" fill="#68695f"/>
          <path id="Path_3259" data-name="Path 3259" d="M1039.23,1191.971V1190.1h1.752v-10.634h-1.752v-1.874h4.148v14.382Z" fill="#68695f"/>
          <path id="Path_3260" data-name="Path 3260" d="M1051.816,1177.589h4.164v1.874h-1.767V1190.1h1.767v1.874h-4.164Z" fill="#68695f"/>
          <path id="Path_3261" data-name="Path 3261" d="M1065.6,1185.7c0,1.813-1.4,3.473-4.456,3.473a7.393,7.393,0,0,1-4.1-1.153l.969-1.905a5.218,5.218,0,0,0,3.072.968c1.246,0,2.014-.507,2.014-1.383,0-.814-.6-1.322-2.014-1.322h-1.136v-1.644l2.213-2.5h-4.579v-2h7.529v1.614l-2.428,2.765A3.056,3.056,0,0,1,1065.6,1185.7Z" fill="#68695f"/>
          <path id="Path_3262" data-name="Path 3262" d="M1067.521,1183.612c0-3.549,1.967-5.562,4.609-5.562,2.659,0,4.61,2.013,4.61,5.562s-1.951,5.563-4.61,5.563C1069.488,1189.175,1067.521,1187.162,1067.521,1183.612Zm6.715,0c0-2.443-.862-3.457-2.106-3.457-1.229,0-2.09,1.014-2.09,3.457s.861,3.457,2.09,3.457C1073.374,1187.069,1074.236,1186.055,1074.236,1183.612Z" fill="#68695f"/>
          <path id="Path_3263" data-name="Path 3263" d="M1088.234,1184.857a4.015,4.015,0,0,1-4.118,4.256,3.209,3.209,0,0,1-2.49-1v3.857h-2.4v-11.247h2.289v.952a3.214,3.214,0,0,1,2.6-1.075A4.015,4.015,0,0,1,1088.234,1184.857Zm-2.428,0a2.113,2.113,0,1,0-2.1,2.29A2.086,2.086,0,0,0,1085.806,1184.857Z" fill="#68695f"/>
          <path id="Path_3264" data-name="Path 3264" d="M1089.725,1191.971V1190.1h1.752v-10.634h-1.752v-1.874h4.148v14.382Z" fill="#68695f"/>
        </g>
      </g>
      <g id="Group_331" data-name="Group 331">
        <g id="Group_330" data-name="Group 330">
          <path id="Path_3265" data-name="Path 3265" d="M1134.86,1061.915v10.756h-2.489v-8.758h-2.152v-2Z" fill="#e72024"/>
          <path id="Path_3266" data-name="Path 3266" d="M1145.631,1069.291c0,1.905-1.4,3.565-4.471,3.565a7.429,7.429,0,0,1-4.1-1.153l.983-1.906a5.178,5.178,0,0,0,3.058.969c1.245,0,2.014-.523,2.014-1.4,0-.845-.554-1.4-2.505-1.4h-2.75l.553-6.054h6.561v2h-4.487l-.169,2.043h.876C1144.372,1065.956,1145.631,1067.385,1145.631,1069.291Z" fill="#e72024"/>
          <path id="Path_3267" data-name="Path 3267" d="M1147.414,1067.293c0-3.549,1.967-5.562,4.61-5.562s4.609,2.013,4.609,5.562-1.951,5.563-4.609,5.563S1147.414,1070.842,1147.414,1067.293Zm6.715,0c0-2.443-.861-3.457-2.1-3.457s-2.09,1.014-2.09,3.457.86,3.457,2.09,3.457S1154.129,1069.736,1154.129,1067.293Z" fill="#e72024"/>
          <path id="Path_3268" data-name="Path 3268" d="M1158.339,1071.288a1.491,1.491,0,0,1,2.981,0,1.491,1.491,0,1,1-2.981,0Z" fill="#e72024"/>
          <path id="Path_3269" data-name="Path 3269" d="M1163.011,1067.293c0-3.549,1.967-5.562,4.61-5.562,2.658,0,4.609,2.013,4.609,5.562s-1.951,5.563-4.609,5.563C1164.978,1072.856,1163.011,1070.842,1163.011,1067.293Zm6.715,0c0-2.443-.861-3.457-2.1-3.457s-2.09,1.014-2.09,3.457.86,3.457,2.09,3.457S1169.726,1069.736,1169.726,1067.293Z" fill="#e72024"/>
          <path id="Path_3270" data-name="Path 3270" d="M1174.213,1067.293c0-3.549,1.967-5.562,4.61-5.562,2.658,0,4.609,2.013,4.609,5.562s-1.951,5.563-4.609,5.563C1176.18,1072.856,1174.213,1070.842,1174.213,1067.293Zm6.715,0c0-2.443-.861-3.457-2.1-3.457s-2.09,1.014-2.09,3.457.86,3.457,2.09,3.457S1180.928,1069.736,1180.928,1067.293Z" fill="#e72024"/>
          <path id="Path_3271" data-name="Path 3271" d="M1185.415,1067.293c0-3.549,1.967-5.562,4.61-5.562s4.609,2.013,4.609,5.562-1.951,5.563-4.609,5.563S1185.415,1070.842,1185.415,1067.293Zm6.715,0c0-2.443-.861-3.457-2.1-3.457s-2.09,1.014-2.09,3.457.86,3.457,2.09,3.457S1192.13,1069.736,1192.13,1067.293Z" fill="#e72024"/>
          <path id="Path_3272" data-name="Path 3272" d="M1206.665,1063.559h-1.122v9.112h-2.289v-.953a3.177,3.177,0,0,1-2.581,1.076,4.258,4.258,0,0,1,0-8.513,3.178,3.178,0,0,1,2.474,1v-1.721h-2.813v-1.383h2.813v-.906h2.4v.906h1.122Zm-3.472,4.979a2.12,2.12,0,1,0-2.106,2.289A2.1,2.1,0,0,0,1203.193,1068.538Z" fill="#e72024"/>
          <path id="Path_3273" data-name="Path 3273" d="M1135.7,1093.906v2.029h-8.129v-1.614l4.149-3.918c.952-.906,1.121-1.46,1.121-1.982,0-.845-.584-1.337-1.721-1.337a2.631,2.631,0,0,0-2.228,1.076l-1.813-1.168a5,5,0,0,1,4.272-2c2.4,0,3.995,1.23,3.995,3.181,0,1.045-.292,2-1.8,3.4l-2.473,2.335Z" fill="#e72024"/>
          <path id="Path_3274" data-name="Path 3274" d="M1145.631,1092.554c0,1.906-1.4,3.565-4.471,3.565a7.429,7.429,0,0,1-4.1-1.153l.983-1.9a5.177,5.177,0,0,0,3.058.968c1.245,0,2.014-.522,2.014-1.4,0-.845-.554-1.4-2.505-1.4h-2.75l.553-6.054h6.561v2h-4.487l-.169,2.044h.876C1144.372,1089.22,1145.631,1090.649,1145.631,1092.554Z" fill="#e72024"/>
          <path id="Path_3275" data-name="Path 3275" d="M1147.414,1090.557c0-3.55,1.967-5.563,4.61-5.563s4.609,2.013,4.609,5.563-1.951,5.562-4.609,5.562S1147.414,1094.106,1147.414,1090.557Zm6.715,0c0-2.444-.861-3.458-2.1-3.458s-2.09,1.014-2.09,3.458.86,3.457,2.09,3.457S1154.129,1093,1154.129,1090.557Z" fill="#e72024"/>
          <path id="Path_3276" data-name="Path 3276" d="M1158.339,1094.552a1.491,1.491,0,0,1,2.981,0,1.491,1.491,0,1,1-2.981,0Z" fill="#e72024"/>
          <path id="Path_3277" data-name="Path 3277" d="M1163.011,1090.557c0-3.55,1.967-5.563,4.61-5.563,2.658,0,4.609,2.013,4.609,5.563s-1.951,5.562-4.609,5.562C1164.978,1096.119,1163.011,1094.106,1163.011,1090.557Zm6.715,0c0-2.444-.861-3.458-2.1-3.458s-2.09,1.014-2.09,3.458.86,3.457,2.09,3.457S1169.726,1093,1169.726,1090.557Z" fill="#e72024"/>
          <path id="Path_3278" data-name="Path 3278" d="M1174.213,1090.557c0-3.55,1.967-5.563,4.61-5.563,2.658,0,4.609,2.013,4.609,5.563s-1.951,5.562-4.609,5.562C1176.18,1096.119,1174.213,1094.106,1174.213,1090.557Zm6.715,0c0-2.444-.861-3.458-2.1-3.458s-2.09,1.014-2.09,3.458.86,3.457,2.09,3.457S1180.928,1093,1180.928,1090.557Z" fill="#e72024"/>
          <path id="Path_3279" data-name="Path 3279" d="M1185.415,1090.557c0-3.55,1.967-5.563,4.61-5.563s4.609,2.013,4.609,5.563-1.951,5.562-4.609,5.562S1185.415,1094.106,1185.415,1090.557Zm6.715,0c0-2.444-.861-3.458-2.1-3.458s-2.09,1.014-2.09,3.458.86,3.457,2.09,3.457S1192.13,1093,1192.13,1090.557Z" fill="#e72024"/>
          <path id="Path_3280" data-name="Path 3280" d="M1206.665,1086.823h-1.122v9.112h-2.289v-.953a3.18,3.18,0,0,1-2.581,1.076,4.258,4.258,0,0,1,0-8.513,3.178,3.178,0,0,1,2.474,1v-1.721h-2.813v-1.383h2.813v-.907h2.4v.907h1.122Zm-3.472,4.978a2.12,2.12,0,1,0-2.106,2.29A2.094,2.094,0,0,0,1203.193,1091.8Z" fill="#e72024"/>
          <path id="Path_3281" data-name="Path 3281" d="M1133.861,1108.443V1119.2h-2.489v-8.758h-2.152v-2Z" fill="#e72024"/>
          <path id="Path_3282" data-name="Path 3282" d="M1145.508,1116.08c0,2.028-1.813,3.3-4.548,3.3-2.719,0-4.517-1.275-4.517-3.3a2.731,2.731,0,0,1,1.629-2.535,2.485,2.485,0,0,1-1.245-2.213c0-1.89,1.69-3.074,4.133-3.074,2.474,0,4.164,1.184,4.164,3.074a2.5,2.5,0,0,1-1.26,2.213A2.722,2.722,0,0,1,1145.508,1116.08Zm-2.519-.077c0-.953-.784-1.537-2.029-1.537-1.229,0-2,.584-2,1.537s.769,1.552,2,1.552C1142.2,1117.555,1142.989,1116.956,1142.989,1116Zm-3.689-4.564c0,.815.646,1.322,1.66,1.322,1.03,0,1.69-.507,1.69-1.322,0-.845-.676-1.352-1.69-1.352C1139.961,1110.087,1139.3,1110.594,1139.3,1111.439Z" fill="#e72024"/>
          <path id="Path_3283" data-name="Path 3283" d="M1147.414,1113.821c0-3.549,1.967-5.563,4.61-5.563s4.609,2.014,4.609,5.563-1.951,5.562-4.609,5.562S1147.414,1117.37,1147.414,1113.821Zm6.715,0c0-2.443-.861-3.458-2.1-3.458s-2.09,1.015-2.09,3.458.86,3.457,2.09,3.457S1154.129,1116.264,1154.129,1113.821Z" fill="#e72024"/>
          <path id="Path_3284" data-name="Path 3284" d="M1158.339,1117.816a1.491,1.491,0,0,1,2.981,0,1.491,1.491,0,1,1-2.981,0Z" fill="#e72024"/>
          <path id="Path_3285" data-name="Path 3285" d="M1163.011,1113.821c0-3.549,1.967-5.563,4.61-5.563,2.658,0,4.609,2.014,4.609,5.563s-1.951,5.562-4.609,5.562C1164.978,1119.383,1163.011,1117.37,1163.011,1113.821Zm6.715,0c0-2.443-.861-3.458-2.1-3.458s-2.09,1.015-2.09,3.458.86,3.457,2.09,3.457S1169.726,1116.264,1169.726,1113.821Z" fill="#e72024"/>
          <path id="Path_3286" data-name="Path 3286" d="M1174.213,1113.821c0-3.549,1.967-5.563,4.61-5.563,2.658,0,4.609,2.014,4.609,5.563s-1.951,5.562-4.609,5.562C1176.18,1119.383,1174.213,1117.37,1174.213,1113.821Zm6.715,0c0-2.443-.861-3.458-2.1-3.458s-2.09,1.015-2.09,3.458.86,3.457,2.09,3.457S1180.928,1116.264,1180.928,1113.821Z" fill="#e72024"/>
          <path id="Path_3287" data-name="Path 3287" d="M1185.415,1113.821c0-3.549,1.967-5.563,4.61-5.563s4.609,2.014,4.609,5.563-1.951,5.562-4.609,5.562S1185.415,1117.37,1185.415,1113.821Zm6.715,0c0-2.443-.861-3.458-2.1-3.458s-2.09,1.015-2.09,3.458.86,3.457,2.09,3.457S1192.13,1116.264,1192.13,1113.821Z" fill="#e72024"/>
          <path id="Path_3288" data-name="Path 3288" d="M1206.665,1110.087h-1.122v9.112h-2.289v-.953a3.18,3.18,0,0,1-2.581,1.076,4.258,4.258,0,0,1,0-8.513,3.178,3.178,0,0,1,2.474,1v-1.721h-2.813V1108.7h2.813v-.907h2.4v.907h1.122Zm-3.472,4.979a2.12,2.12,0,1,0-2.106,2.289A2.095,2.095,0,0,0,1203.193,1115.066Z" fill="#e72024"/>
          <path id="Path_3289" data-name="Path 3289" d="M1135.7,1140.434v2.029h-8.129v-1.614l4.149-3.918c.952-.906,1.121-1.46,1.121-1.982,0-.845-.584-1.337-1.721-1.337a2.629,2.629,0,0,0-2.228,1.076l-1.813-1.168a5,5,0,0,1,4.272-2c2.4,0,3.995,1.23,3.995,3.181,0,1.045-.292,2-1.8,3.4l-2.473,2.335Z" fill="#e72024"/>
          <path id="Path_3290" data-name="Path 3290" d="M1145.631,1139.082c0,1.905-1.4,3.565-4.471,3.565a7.429,7.429,0,0,1-4.1-1.153l.983-1.905a5.177,5.177,0,0,0,3.058.968c1.245,0,2.014-.522,2.014-1.4,0-.845-.554-1.4-2.505-1.4h-2.75l.553-6.054h6.561v2h-4.487l-.169,2.044h.876C1144.372,1135.748,1145.631,1137.177,1145.631,1139.082Z" fill="#e72024"/>
          <path id="Path_3291" data-name="Path 3291" d="M1147.414,1137.085c0-3.55,1.967-5.563,4.61-5.563s4.609,2.013,4.609,5.563-1.951,5.562-4.609,5.562S1147.414,1140.634,1147.414,1137.085Zm6.715,0c0-2.444-.861-3.458-2.1-3.458s-2.09,1.014-2.09,3.458.86,3.457,2.09,3.457S1154.129,1139.527,1154.129,1137.085Z" fill="#e72024"/>
          <path id="Path_3292" data-name="Path 3292" d="M1158.339,1141.08a1.491,1.491,0,0,1,2.981,0,1.491,1.491,0,1,1-2.981,0Z" fill="#e72024"/>
          <path id="Path_3293" data-name="Path 3293" d="M1163.011,1137.085c0-3.55,1.967-5.563,4.61-5.563,2.658,0,4.609,2.013,4.609,5.563s-1.951,5.562-4.609,5.562C1164.978,1142.647,1163.011,1140.634,1163.011,1137.085Zm6.715,0c0-2.444-.861-3.458-2.1-3.458s-2.09,1.014-2.09,3.458.86,3.457,2.09,3.457S1169.726,1139.527,1169.726,1137.085Z" fill="#e72024"/>
          <path id="Path_3294" data-name="Path 3294" d="M1174.213,1137.085c0-3.55,1.967-5.563,4.61-5.563,2.658,0,4.609,2.013,4.609,5.563s-1.951,5.562-4.609,5.562C1176.18,1142.647,1174.213,1140.634,1174.213,1137.085Zm6.715,0c0-2.444-.861-3.458-2.1-3.458s-2.09,1.014-2.09,3.458.86,3.457,2.09,3.457S1180.928,1139.527,1180.928,1137.085Z" fill="#e72024"/>
          <path id="Path_3295" data-name="Path 3295" d="M1185.415,1137.085c0-3.55,1.967-5.563,4.61-5.563s4.609,2.013,4.609,5.563-1.951,5.562-4.609,5.562S1185.415,1140.634,1185.415,1137.085Zm6.715,0c0-2.444-.861-3.458-2.1-3.458s-2.09,1.014-2.09,3.458.86,3.457,2.09,3.457S1192.13,1139.527,1192.13,1137.085Z" fill="#e72024"/>
          <path id="Path_3296" data-name="Path 3296" d="M1206.665,1133.351h-1.122v9.112h-2.289v-.953a3.18,3.18,0,0,1-2.581,1.076,4.258,4.258,0,0,1,0-8.513,3.178,3.178,0,0,1,2.474,1v-1.721h-2.813v-1.383h2.813v-.907h2.4v.907h1.122Zm-3.472,4.978a2.12,2.12,0,1,0-2.106,2.29A2.094,2.094,0,0,0,1203.193,1138.329Z" fill="#e72024"/>
          <path id="Path_3297" data-name="Path 3297" d="M1135.7,1163.7v2.028h-8.129v-1.613l4.149-3.919c.952-.906,1.121-1.459,1.121-1.981,0-.846-.584-1.337-1.721-1.337a2.631,2.631,0,0,0-2.228,1.075l-1.813-1.168a5,5,0,0,1,4.272-2c2.4,0,3.995,1.229,3.995,3.18,0,1.045-.292,2-1.8,3.4l-2.473,2.336Z" fill="#e72024"/>
          <path id="Path_3298" data-name="Path 3298" d="M1145.631,1162.346c0,1.905-1.4,3.565-4.471,3.565a7.43,7.43,0,0,1-4.1-1.153l.983-1.905a5.184,5.184,0,0,0,3.058.968c1.245,0,2.014-.523,2.014-1.4,0-.845-.554-1.4-2.505-1.4h-2.75l.553-6.055h6.561v2h-4.487l-.169,2.043h.876C1144.372,1159.011,1145.631,1160.441,1145.631,1162.346Z" fill="#e72024"/>
          <path id="Path_3299" data-name="Path 3299" d="M1147.414,1160.348c0-3.549,1.967-5.562,4.61-5.562s4.609,2.013,4.609,5.562-1.951,5.563-4.609,5.563S1147.414,1163.9,1147.414,1160.348Zm6.715,0c0-2.443-.861-3.457-2.1-3.457s-2.09,1.014-2.09,3.457.86,3.457,2.09,3.457S1154.129,1162.791,1154.129,1160.348Z" fill="#e72024"/>
          <path id="Path_3300" data-name="Path 3300" d="M1158.339,1164.343a1.491,1.491,0,0,1,2.981,0,1.491,1.491,0,1,1-2.981,0Z" fill="#e72024"/>
          <path id="Path_3301" data-name="Path 3301" d="M1163.011,1160.348c0-3.549,1.967-5.562,4.61-5.562,2.658,0,4.609,2.013,4.609,5.562s-1.951,5.563-4.609,5.563C1164.978,1165.911,1163.011,1163.9,1163.011,1160.348Zm6.715,0c0-2.443-.861-3.457-2.1-3.457s-2.09,1.014-2.09,3.457.86,3.457,2.09,3.457S1169.726,1162.791,1169.726,1160.348Z" fill="#e72024"/>
          <path id="Path_3302" data-name="Path 3302" d="M1174.213,1160.348c0-3.549,1.967-5.562,4.61-5.562,2.658,0,4.609,2.013,4.609,5.562s-1.951,5.563-4.609,5.563C1176.18,1165.911,1174.213,1163.9,1174.213,1160.348Zm6.715,0c0-2.443-.861-3.457-2.1-3.457s-2.09,1.014-2.09,3.457.86,3.457,2.09,3.457S1180.928,1162.791,1180.928,1160.348Z" fill="#e72024"/>
          <path id="Path_3303" data-name="Path 3303" d="M1185.415,1160.348c0-3.549,1.967-5.562,4.61-5.562s4.609,2.013,4.609,5.562-1.951,5.563-4.609,5.563S1185.415,1163.9,1185.415,1160.348Zm6.715,0c0-2.443-.861-3.457-2.1-3.457s-2.09,1.014-2.09,3.457.86,3.457,2.09,3.457S1192.13,1162.791,1192.13,1160.348Z" fill="#e72024"/>
          <path id="Path_3304" data-name="Path 3304" d="M1206.665,1156.614h-1.122v9.112h-2.289v-.952a3.18,3.18,0,0,1-2.581,1.075,4.258,4.258,0,0,1,0-8.512,3.174,3.174,0,0,1,2.474,1v-1.722h-2.813v-1.382h2.813v-.907h2.4v.907h1.122Zm-3.472,4.979a2.12,2.12,0,1,0-2.106,2.289A2.1,2.1,0,0,0,1203.193,1161.593Z" fill="#e72024"/>
          <path id="Path_3305" data-name="Path 3305" d="M1135.7,1186.962v2.028h-8.129v-1.613l4.149-3.918c.952-.907,1.121-1.46,1.121-1.982,0-.846-.584-1.337-1.721-1.337a2.631,2.631,0,0,0-2.228,1.075l-1.813-1.168a5,5,0,0,1,4.272-2c2.4,0,3.995,1.229,3.995,3.181,0,1.044-.292,2-1.8,3.4l-2.473,2.335Z" fill="#e72024"/>
          <path id="Path_3306" data-name="Path 3306" d="M1145.631,1185.61c0,1.905-1.4,3.565-4.471,3.565a7.429,7.429,0,0,1-4.1-1.153l.983-1.905a5.177,5.177,0,0,0,3.058.968c1.245,0,2.014-.522,2.014-1.4,0-.846-.554-1.4-2.505-1.4h-2.75l.553-6.055h6.561v2h-4.487l-.169,2.043h.876C1144.372,1182.275,1145.631,1183.7,1145.631,1185.61Z" fill="#e72024"/>
          <path id="Path_3307" data-name="Path 3307" d="M1147.414,1183.612c0-3.549,1.967-5.562,4.61-5.562s4.609,2.013,4.609,5.562-1.951,5.563-4.609,5.563S1147.414,1187.162,1147.414,1183.612Zm6.715,0c0-2.443-.861-3.457-2.1-3.457s-2.09,1.014-2.09,3.457.86,3.457,2.09,3.457S1154.129,1186.055,1154.129,1183.612Z" fill="#e72024"/>
          <path id="Path_3308" data-name="Path 3308" d="M1158.339,1187.608a1.491,1.491,0,0,1,2.981,0,1.491,1.491,0,1,1-2.981,0Z" fill="#e72024"/>
          <path id="Path_3309" data-name="Path 3309" d="M1163.011,1183.612c0-3.549,1.967-5.562,4.61-5.562,2.658,0,4.609,2.013,4.609,5.562s-1.951,5.563-4.609,5.563C1164.978,1189.175,1163.011,1187.162,1163.011,1183.612Zm6.715,0c0-2.443-.861-3.457-2.1-3.457s-2.09,1.014-2.09,3.457.86,3.457,2.09,3.457S1169.726,1186.055,1169.726,1183.612Z" fill="#e72024"/>
          <path id="Path_3310" data-name="Path 3310" d="M1174.213,1183.612c0-3.549,1.967-5.562,4.61-5.562,2.658,0,4.609,2.013,4.609,5.562s-1.951,5.563-4.609,5.563C1176.18,1189.175,1174.213,1187.162,1174.213,1183.612Zm6.715,0c0-2.443-.861-3.457-2.1-3.457s-2.09,1.014-2.09,3.457.86,3.457,2.09,3.457S1180.928,1186.055,1180.928,1183.612Z" fill="#e72024"/>
          <path id="Path_3311" data-name="Path 3311" d="M1185.415,1183.612c0-3.549,1.967-5.562,4.61-5.562s4.609,2.013,4.609,5.562-1.951,5.563-4.609,5.563S1185.415,1187.162,1185.415,1183.612Zm6.715,0c0-2.443-.861-3.457-2.1-3.457s-2.09,1.014-2.09,3.457.86,3.457,2.09,3.457S1192.13,1186.055,1192.13,1183.612Z" fill="#e72024"/>
          <path id="Path_3312" data-name="Path 3312" d="M1206.665,1179.879h-1.122v9.111h-2.289v-.952a3.179,3.179,0,0,1-2.581,1.075,4.258,4.258,0,0,1,0-8.512,3.174,3.174,0,0,1,2.474,1v-1.721h-2.813V1178.5h2.813v-.907h2.4v.907h1.122Zm-3.472,4.978a2.12,2.12,0,1,0-2.106,2.29A2.1,2.1,0,0,0,1203.193,1184.857Z" fill="#e72024"/>
        </g>
      </g>
    </g>
    <g id="Group_342" data-name="Group 342" transform="translate(-708.146 -1019.605)">
      <path id="Path_3700" data-name="Path 3700" d="M719.286,1023.815v10.756h-2.043l-5.364-6.53v6.53h-2.458v-10.756h2.059l5.348,6.53v-6.53Z" fill="#e72024"/>
      <path id="Path_3701" data-name="Path 3701" d="M729.873,1029.024h2.275v4.364a7.425,7.425,0,0,1-4.349,1.367,5.534,5.534,0,0,1-5.869-5.562c0-3.242,2.489-5.563,5.915-5.563a5.735,5.735,0,0,1,4.5,1.86l-1.6,1.475a3.638,3.638,0,0,0-2.781-1.214,3.443,3.443,0,1,0-.03,6.884,3.946,3.946,0,0,0,1.935-.461Z" fill="#e72024"/>
      <path id="Path_3702" data-name="Path 3702" d="M742.306,1032.266h-4.994l-.953,2.305h-2.551l4.8-10.756h2.458l4.81,10.756h-2.613Zm-.784-1.89-1.7-4.118-1.706,4.118Z" fill="#e72024"/>
      <path id="Path_3703" data-name="Path 3703" d="M757.624,1023.815v10.756h-2.043l-5.363-6.53v6.53H747.76v-10.756h2.059l5.347,6.53v-6.53Z" fill="#e72024"/>
      <path id="Path_3704" data-name="Path 3704" d="M777.08,1029.193c0,3.257-2.414,5.378-5.932,5.378h-4.887v-4.641H764.8v-1.659h1.459v-4.456h4.887C774.666,1023.815,777.08,1025.936,777.08,1029.193Zm-2.521,0a3.21,3.21,0,0,0-3.534-3.334H768.75v2.412h2.69v1.659h-2.69v2.6h2.275A3.21,3.21,0,0,0,774.559,1029.193Z" fill="#e72024"/>
      <path id="Path_3705" data-name="Path 3705" d="M790.817,1029.193a5.894,5.894,0,1,1-5.885-5.563A5.566,5.566,0,0,1,790.817,1029.193Zm-2.52,0a3.366,3.366,0,1,0-3.365,3.442A3.281,3.281,0,0,0,788.3,1029.193Zm-4.686-6.254h-1.768l2.044-1.751h2.09l2.044,1.751h-1.768l-1.321-.876Zm4.087-1.475-2.412-1.859h2.443l1.689,1.859Z" fill="#e72024"/>
      <path id="Path_3706" data-name="Path 3706" d="M803.324,1023.815v10.756h-2.043l-5.364-6.53v6.53h-2.458v-10.756h2.059l5.348,6.53v-6.53Z" fill="#e72024"/>
      <path id="Path_3707" data-name="Path 3707" d="M813.912,1029.024h2.274v4.364a7.425,7.425,0,0,1-4.349,1.367,5.534,5.534,0,0,1-5.869-5.562c0-3.242,2.489-5.563,5.915-5.563a5.734,5.734,0,0,1,4.5,1.86l-1.6,1.475a3.641,3.641,0,0,0-2.782-1.214,3.443,3.443,0,1,0-.03,6.884,3.952,3.952,0,0,0,1.936-.461Z" fill="#e72024"/>
      <path id="Path_3708" data-name="Path 3708" d="M835.394,1029.193c0,3.257-2.412,5.378-5.931,5.378h-4.885v-4.641h-1.46v-1.659h1.46v-4.456h4.885C832.982,1023.815,835.394,1025.936,835.394,1029.193Zm-2.52,0a3.21,3.21,0,0,0-3.534-3.334h-2.274v2.412h2.689v1.659h-2.689v2.6h2.274A3.21,3.21,0,0,0,832.874,1029.193Z" fill="#e72024"/>
      <path id="Path_3709" data-name="Path 3709" d="M849.131,1029.193a5.894,5.894,0,1,1-5.884-5.563A5.566,5.566,0,0,1,849.131,1029.193Zm-2.519,0a3.366,3.366,0,1,0-3.365,3.442A3.282,3.282,0,0,0,846.612,1029.193Zm-4.7-6.254h-1.752l2.028-2.212h2.121l2.028,2.212h-1.752l-1.336-1.167Zm2.4,13.829a1.061,1.061,0,0,1-2.121,0,1.061,1.061,0,1,1,2.121,0Z" fill="#e72024"/>
      <path id="Path_3710" data-name="Path 3710" d="M851.775,1023.815h2.489v10.756h-2.489Z" fill="#e72024"/>
      <path id="Path_3711" data-name="Path 3711" d="M862.7,1023.17h4.164v1.874H865.1v10.633h1.767v1.875H862.7Z" fill="#e72024"/>
      <path id="Path_3712" data-name="Path 3712" d="M884.1,1031.636c0,1.859-1.475,2.935-4.3,2.935h-5.562v-10.756H879.5c2.689,0,4.072,1.122,4.072,2.8a2.587,2.587,0,0,1-1.43,2.367A2.656,2.656,0,0,1,884.1,1031.636Zm-7.391-5.946v2.535h2.474c1.214,0,1.875-.43,1.875-1.276s-.661-1.259-1.875-1.259Zm4.887,5.685c0-.907-.691-1.337-1.982-1.337h-2.905v2.658h2.905C880.91,1032.7,881.6,1032.3,881.6,1031.375Z" fill="#e72024"/>
      <path id="Path_3713" data-name="Path 3713" d="M890.836,1037.552v-1.875h1.752v-10.633h-1.752v-1.874h4.149v14.382Z" fill="#e72024"/>
    </g>
  </g>
</svg>
