<svg xmlns="http://www.w3.org/2000/svg" xmlns:xlink="http://www.w3.org/1999/xlink" width="238" height="30" viewBox="0 0 238 30">
  <defs>
    <clipPath id="clip-Web_1920_1">
      <rect width="238" height="30"/>
    </clipPath>
  </defs>
  <g id="Web_1920_1" data-name="Web 1920 – 1" clip-path="url(#clip-Web_1920_1)">
    <g id="Group_385" data-name="Group 385" transform="translate(-349.762 -696.524)">
      <g id="Group_384" data-name="Group 384">
        <path id="Path_4347" data-name="Path 4347" d="M353.915,697.622v.769l-1.9,4.358h-1.289l1.838-4.16h-1.7v.835h-1.055v-1.8Z" fill="#57574d"/>
        <path id="Path_4348" data-name="Path 4348" d="M354.414,702.09a.71.71,0,0,1,1.42,0,.71.71,0,1,1-1.42,0Z" fill="#57574d"/>
        <path id="Path_4349" data-name="Path 4349" d="M359.5,697.622h1.186v4.161h2.571v.966H359.5Z" fill="#57574d"/>
        <path id="Path_4350" data-name="Path 4350" d="M367.738,700.5v2.249h-1.07v-.491a1.29,1.29,0,0,1-1.2.55c-.923,0-1.472-.513-1.472-1.194,0-.7.491-1.179,1.692-1.179h.908c0-.491-.293-.776-.908-.776a1.887,1.887,0,0,0-1.135.366l-.41-.8a3.018,3.018,0,0,1,1.7-.477C367.042,698.75,367.738,699.307,367.738,700.5Zm-2.41-2.2h-.842l.974-.834h1l.974.834h-.842l-.63-.417Zm1.267,3.2v-.4h-.783c-.535,0-.7.2-.7.461,0,.285.242.476.645.476A.84.84,0,0,0,366.6,701.5Zm.088-4.468-.19-.351a1.124,1.124,0,0,1,.608-.161c.41,0,.673.226.673.578a.726.726,0,0,1-.512.638l-.279-.271c.2-.1.271-.213.271-.309,0-.13-.1-.211-.249-.211A.652.652,0,0,0,366.683,697.036Z" fill="#57574d"/>
        <path id="Path_4351" data-name="Path 4351" d="M373.107,698.809v3.94h-1.084v-.468a1.593,1.593,0,0,1-1.223.527,1.571,1.571,0,0,1-1.684-1.773v-2.226h1.142v2.059c0,.658.293.951.8.951.527,0,.908-.336.908-1.062v-1.948Z" fill="#57574d"/>
        <path id="Path_4352" data-name="Path 4352" d="M381,700.494v2.255h-1.142v-2.08c0-.637-.293-.93-.8-.93-.549,0-.944.338-.944,1.062v1.948h-1.143v-3.94h1.091v.461a1.729,1.729,0,0,1,1.3-.52A1.545,1.545,0,0,1,381,700.494Z" fill="#57574d"/>
        <path id="Path_4353" data-name="Path 4353" d="M386.513,698.809v3.281a1.929,1.929,0,0,1-2.212,2.139,3.25,3.25,0,0,1-1.933-.542l.454-.82a2.361,2.361,0,0,0,1.391.446c.806,0,1.158-.365,1.158-1.076v-.168a1.626,1.626,0,0,1-1.246.49,1.906,1.906,0,1,1,0-3.809,1.581,1.581,0,0,1,1.3.565v-.506Zm-1.128,1.846a1.039,1.039,0,1,0-1.032.966A.957.957,0,0,0,385.385,700.655Z" fill="#57574d"/>
        <path id="Path_4354" data-name="Path 4354" d="M391.429,700.5v2.249h-1.07v-.491a1.29,1.29,0,0,1-1.2.55c-.923,0-1.472-.513-1.472-1.194,0-.7.491-1.179,1.692-1.179h.908c0-.491-.293-.776-.908-.776a1.885,1.885,0,0,0-1.135.366l-.411-.8a3.023,3.023,0,0,1,1.7-.477C390.733,698.75,391.429,699.307,391.429,700.5Zm-1.143,1v-.4H389.5c-.534,0-.7.2-.7.461,0,.285.242.476.645.476A.84.84,0,0,0,390.286,701.5Z" fill="#57574d"/>
        <path id="Path_4355" data-name="Path 4355" d="M396.856,700.494v2.255h-1.142v-2.08c0-.637-.293-.93-.8-.93-.55,0-.945.338-.945,1.062v1.948h-1.143v-3.94h1.091v.461a1.729,1.729,0,0,1,1.3-.52A1.545,1.545,0,0,1,396.856,700.494Z" fill="#57574d"/>
        <path id="Path_4356" data-name="Path 4356" d="M407.353,700.494v2.255h-1.142v-2.08c0-.637-.286-.93-.747-.93-.513,0-.872.33-.872,1.033v1.977H403.45v-2.08c0-.637-.271-.93-.747-.93-.506,0-.865.33-.865,1.033v1.977H400.7v-3.94h1.091v.454a1.6,1.6,0,0,1,1.238-.513,1.471,1.471,0,0,1,1.3.645,1.775,1.775,0,0,1,1.421-.645A1.526,1.526,0,0,1,407.353,700.494Z" fill="#57574d"/>
        <path id="Path_4357" data-name="Path 4357" d="M412.233,700.5v2.249h-1.069v-.491a1.291,1.291,0,0,1-1.2.55c-.923,0-1.472-.513-1.472-1.194,0-.7.49-1.179,1.692-1.179h.908c0-.491-.293-.776-.908-.776a1.89,1.89,0,0,0-1.136.366l-.41-.8a3.02,3.02,0,0,1,1.7-.477C411.538,698.75,412.233,699.307,412.233,700.5Zm-3.127-3.252h.718a.641.641,0,0,0,1.259,0h.718a1.372,1.372,0,0,1-2.7,0Zm1.985,4.256v-.4h-.784c-.535,0-.7.2-.7.461,0,.285.242.476.645.476A.841.841,0,0,0,411.091,701.5Z" fill="#57574d"/>
        <path id="Path_4358" data-name="Path 4358" d="M417.661,700.494v2.255h-1.142v-2.08c0-.637-.293-.93-.8-.93-.549,0-.945.338-.945,1.062v1.948h-1.142v-3.94h1.091v.461a1.729,1.729,0,0,1,1.3-.52A1.545,1.545,0,0,1,417.661,700.494Z" fill="#57574d"/>
        <path id="Path_4359" data-name="Path 4359" d="M423.17,698.809v3.281a1.929,1.929,0,0,1-2.212,2.139,3.255,3.255,0,0,1-1.934-.542l.454-.82a2.364,2.364,0,0,0,1.392.446c.806,0,1.157-.365,1.157-1.076v-.168a1.623,1.623,0,0,1-1.245.49,1.906,1.906,0,1,1,0-3.809,1.581,1.581,0,0,1,1.3.565v-.506Zm-1.128,1.846a1.039,1.039,0,1,0-1.033.966A.957.957,0,0,0,422.042,700.655Z" fill="#57574d"/>
        <path id="Path_4360" data-name="Path 4360" d="M426.746,700.78a2.037,2.037,0,0,1,2.2-2.03,1.812,1.812,0,0,1,1.765,1l-.886.476a.983.983,0,0,0-.886-.542,1.093,1.093,0,0,0,0,2.182.97.97,0,0,0,.886-.542l.886.484a1.829,1.829,0,0,1-1.765,1A2.037,2.037,0,0,1,426.746,700.78Z" fill="#57574d"/>
        <path id="Path_4361" data-name="Path 4361" d="M435.22,700.5v2.249h-1.069v-.491a1.292,1.292,0,0,1-1.2.55c-.923,0-1.472-.513-1.472-1.194,0-.7.49-1.179,1.691-1.179h.909c0-.491-.293-.776-.909-.776a1.889,1.889,0,0,0-1.135.366l-.41-.8a3.018,3.018,0,0,1,1.7-.477C434.524,698.75,435.22,699.307,435.22,700.5Zm-1.142,1v-.4h-.784c-.535,0-.7.2-.7.461,0,.285.241.476.644.476A.842.842,0,0,0,434.078,701.5Z" fill="#57574d"/>
        <path id="Path_4362" data-name="Path 4362" d="M440.457,698.809l-1.779,4.182a1.626,1.626,0,0,1-1.634,1.238,1.744,1.744,0,0,1-1.1-.36l.417-.812a1.014,1.014,0,0,0,.645.249c.315,0,.491-.14.644-.491l.015-.036-1.707-3.97h1.18l1.106,2.674,1.113-2.674Z" fill="#57574d"/>
        <path id="Path_4363" data-name="Path 4363" d="M443.449,702.342a4.33,4.33,0,0,1,.977-2.774h.669a4.571,4.571,0,0,0-1,2.808,3.805,3.805,0,0,0,.2,1.205h-.613A3.289,3.289,0,0,1,443.449,702.342Z" fill="#df071b"/>
        <path id="Path_4364" data-name="Path 4364" d="M448.466,701a1.713,1.713,0,0,1-1.869,1.749H445.13l.258-1.3h-.408l.1-.462h.407l.248-1.244h1.257C447.913,699.748,448.466,700.233,448.466,701Zm-.7.038c0-.445-.287-.719-.853-.719h-.6l-.132.673h.746l-.09.462h-.751l-.146.725h.678A1.079,1.079,0,0,0,447.763,701.038Z" fill="#df071b"/>
        <path id="Path_4365" data-name="Path 4365" d="M451.646,700.443l-.459,2.306h-.634l.043-.227a1.026,1.026,0,0,1-.708.262.972.972,0,0,1-.995-1.034,1.282,1.282,0,0,1,1.273-1.341.824.824,0,0,1,.751.346l.06-.312Zm-.875,1.029a.478.478,0,0,0-.527-.511.692.692,0,0,0-.678.759.478.478,0,0,0,.528.511A.691.691,0,0,0,450.771,701.472Zm-.562,1.848a.311.311,0,0,1-.325.33.258.258,0,0,1-.275-.266.327.327,0,0,1,.326-.321A.259.259,0,0,1,450.209,703.32Zm-.33-3.726a.276.276,0,0,1,.005-.064h.407a.3.3,0,0,0,.339.3.379.379,0,0,0,.4-.3h.432a.816.816,0,0,1-.87.651C450.184,700.181,449.879,699.953,449.879,699.594Z" fill="#df071b"/>
        <path id="Path_4366" data-name="Path 4366" d="M452.064,701.75a1.331,1.331,0,0,1,1.406-1.341,1.071,1.071,0,0,1,1.038.583l-.566.283a.527.527,0,0,0-.515-.314.7.7,0,0,0-.686.755.484.484,0,0,0,.536.515.638.638,0,0,0,.566-.309l.493.309a1.273,1.273,0,0,1-1.1.553A1.042,1.042,0,0,1,452.064,701.75Z" fill="#df071b"/>
        <path id="Path_4367" data-name="Path 4367" d="M458.953,701.442a1.283,1.283,0,0,1-1.278,1.342.827.827,0,0,1-.772-.377l-.069.342H456.2l.634-3.181h.669l-.214,1.072a1.016,1.016,0,0,1,.665-.231A.974.974,0,0,1,458.953,701.442Zm-.678.03a.478.478,0,0,0-.527-.511.69.69,0,0,0-.673.759.475.475,0,0,0,.523.511A.691.691,0,0,0,458.275,701.472Z" fill="#df071b"/>
        <path id="Path_4368" data-name="Path 4368" d="M459.833,700.443h.666l-.459,2.306h-.665Zm.057-.669a.407.407,0,0,1,.441-.4.355.355,0,0,1,.4.334.409.409,0,0,1-.446.412A.358.358,0,0,1,459.89,699.774Z" fill="#df071b"/>
        <path id="Path_4369" data-name="Path 4369" d="M463.342,701.776h-1.767c.022.313.215.471.6.471a.955.955,0,0,0,.618-.213l.279.441a1.526,1.526,0,0,1-.965.309,1.043,1.043,0,0,1-1.18-1.034,1.3,1.3,0,0,1,1.36-1.341.988.988,0,0,1,1.1,1.015A1.757,1.757,0,0,1,463.342,701.776ZM462.1,703.32a.311.311,0,0,1-.326.33.257.257,0,0,1-.274-.266.326.326,0,0,1,.326-.321A.259.259,0,0,1,462.1,703.32Zm-.03-3.169h-.5l.651-.617h.588l.485.617h-.477l-.33-.322Zm-.445,1.235h1.144a.458.458,0,0,0-.514-.476A.632.632,0,0,0,461.623,701.386Z" fill="#df071b"/>
        <path id="Path_4370" data-name="Path 4370" d="M464.7,701.935a.348.348,0,0,0-.009.094c0,.141.077.223.244.223a.531.531,0,0,0,.271-.082l.1.477a1.1,1.1,0,0,1-.574.137.64.64,0,0,1-.721-.643,1.1,1.1,0,0,1,.022-.2l.184-.931h-.356l.1-.514h.356l.111-.562h.669l-.111.562h.574l-.1.514h-.575Z" fill="#df071b"/>
        <path id="Path_4371" data-name="Path 4371" d="M466.531,700.773a3.812,3.812,0,0,0-.2-1.205h.614a3.29,3.29,0,0,1,.231,1.239,4.328,4.328,0,0,1-.977,2.774h-.669A4.571,4.571,0,0,0,466.531,700.773Z" fill="#df071b"/>
        <path id="Path_4372" data-name="Path 4372" d="M354.193,712.352c0,.967-.864,1.575-2.168,1.575s-2.153-.608-2.153-1.575a1.3,1.3,0,0,1,.776-1.208,1.185,1.185,0,0,1-.593-1.055c0-.9.806-1.465,1.97-1.465,1.18,0,1.985.564,1.985,1.465a1.189,1.189,0,0,1-.6,1.055A1.3,1.3,0,0,1,354.193,712.352Zm-1.2-.036c0-.454-.373-.733-.967-.733s-.952.279-.952.733.366.739.952.739S352.992,712.77,352.992,712.316Zm-1.758-2.175c0,.388.308.629.791.629s.806-.241.806-.629c0-.4-.322-.645-.806-.645S351.234,709.738,351.234,710.141Z" fill="#57574d"/>
        <path id="Path_4373" data-name="Path 4373" d="M355.139,713.18a.711.711,0,0,1,1.421,0,.711.711,0,1,1-1.421,0Z" fill="#57574d"/>
        <path id="Path_4374" data-name="Path 4374" d="M364.925,708.712v5.127h-.974l-2.556-3.112v3.112h-1.172v-5.127h.981l2.549,3.113v-3.113Z" fill="#57574d"/>
        <path id="Path_4375" data-name="Path 4375" d="M370.492,709.9v3.281a1.929,1.929,0,0,1-2.212,2.139,3.25,3.25,0,0,1-1.933-.542l.454-.821a2.354,2.354,0,0,0,1.391.447c.806,0,1.158-.366,1.158-1.076v-.168a1.626,1.626,0,0,1-1.246.49,1.906,1.906,0,1,1,0-3.809,1.581,1.581,0,0,1,1.3.565V709.9Zm-1.128,1.845a1.039,1.039,0,1,0-1.032.967A.956.956,0,0,0,369.364,711.744Z" fill="#57574d"/>
        <path id="Path_4376" data-name="Path 4376" d="M375.408,711.59v2.249h-1.069v-.491a1.294,1.294,0,0,1-1.2.55c-.923,0-1.472-.513-1.472-1.2s.49-1.178,1.691-1.178h.909c0-.491-.293-.777-.909-.777a1.89,1.89,0,0,0-1.135.367l-.41-.8a3.017,3.017,0,0,1,1.7-.477C374.712,709.84,375.408,710.4,375.408,711.59Zm-1.142,1v-.4h-.784c-.535,0-.7.2-.7.461,0,.285.241.476.644.476A.843.843,0,0,0,374.266,712.594Z" fill="#57574d"/>
        <path id="Path_4377" data-name="Path 4377" d="M380.836,711.583v2.256h-1.143v-2.08c0-.638-.293-.931-.8-.931-.549,0-.945.338-.945,1.063v1.948h-1.142V709.9H377.9v.461a1.729,1.729,0,0,1,1.3-.52A1.544,1.544,0,0,1,380.836,711.583Z" fill="#57574d"/>
        <path id="Path_4378" data-name="Path 4378" d="M384.382,711.869a2.169,2.169,0,1,1,2.168,2.029A2.029,2.029,0,0,1,384.382,711.869Zm3.172,0a1.01,1.01,0,1,0-1,1.091A.994.994,0,0,0,387.554,711.869Z" fill="#57574d"/>
        <path id="Path_4379" data-name="Path 4379" d="M396.5,711.583v2.256h-1.143v-2.08c0-.638-.286-.931-.747-.931-.513,0-.872.331-.872,1.034v1.977h-1.142v-2.08c0-.638-.271-.931-.747-.931-.506,0-.865.331-.865,1.034v1.977H389.84V709.9h1.091v.454a1.6,1.6,0,0,1,1.238-.513,1.471,1.471,0,0,1,1.3.645,1.772,1.772,0,0,1,1.421-.645A1.526,1.526,0,0,1,396.5,711.583Z" fill="#57574d"/>
        <path id="Path_4380" data-name="Path 4380" d="M399.949,713.473l.381-.82a2.707,2.707,0,0,0,1.37.381c.527,0,.725-.139.725-.36,0-.644-2.381.016-2.381-1.559,0-.747.674-1.275,1.824-1.275a3.247,3.247,0,0,1,1.516.344L403,711a2.269,2.269,0,0,0-1.135-.293c-.513,0-.732.162-.732.367,0,.673,2.38.021,2.38,1.574,0,.732-.681,1.253-1.86,1.253A3.379,3.379,0,0,1,399.949,713.473Z" fill="#57574d"/>
        <path id="Path_4381" data-name="Path 4381" d="M408.072,711.59v2.249H407v-.491a1.293,1.293,0,0,1-1.2.55c-.923,0-1.472-.513-1.472-1.2s.49-1.178,1.691-1.178h.909c0-.491-.293-.777-.909-.777a1.89,1.89,0,0,0-1.135.367l-.41-.8a3.017,3.017,0,0,1,1.7-.477C407.376,709.84,408.072,710.4,408.072,711.59Zm-2.409-2.2h-.843l.974-.834h1l.974.834h-.843l-.63-.417Zm1.267,3.2v-.4h-.784c-.535,0-.7.2-.7.461,0,.285.242.476.644.476A.843.843,0,0,0,406.93,712.594Zm1.069-3.9h-.828l.813-.886h1.165Z" fill="#57574d"/>
        <path id="Path_4382" data-name="Path 4382" d="M413.442,709.9v3.94h-1.084v-.469a1.592,1.592,0,0,1-1.223.528,1.571,1.571,0,0,1-1.685-1.773V709.9h1.143v2.058c0,.659.293.952.8.952.527,0,.908-.336.908-1.062V709.9Z" fill="#57574d"/>
        <path id="Path_4383" data-name="Path 4383" d="M423.968,711.583v2.256h-1.142v-2.08c0-.638-.286-.931-.747-.931-.513,0-.872.331-.872,1.034v1.977h-1.143v-2.08c0-.638-.271-.931-.747-.931-.5,0-.864.331-.864,1.034v1.977h-1.142V709.9H418.4v.454a1.6,1.6,0,0,1,1.238-.513,1.471,1.471,0,0,1,1.3.645,1.772,1.772,0,0,1,1.421-.645A1.526,1.526,0,0,1,423.968,711.583Z" fill="#57574d"/>
        <path id="Path_4384" data-name="Path 4384" d="M429.243,712.192h-2.981a1.052,1.052,0,0,0,1.128.791,1.337,1.337,0,0,0,.989-.381l.608.658a2.3,2.3,0,0,1-3.875-1.391,2.006,2.006,0,0,1,2.1-2.029,1.951,1.951,0,0,1,2.051,2.043C429.265,711.971,429.25,712.1,429.243,712.192Zm-3-.667h1.94a.984.984,0,0,0-1.94,0Z" fill="#57574d"/>
        <path id="Path_4385" data-name="Path 4385" d="M432.914,708.405H434.9v.893h-.842v5.069h.842v.893h-1.985Z" fill="#57574d"/>
        <path id="Path_4386" data-name="Path 4386" d="M440.231,712.762H439.4v1.077h-1.157v-1.077h-2.761v-.8l2.417-3.252h1.245l-2.241,3.083h1.377v-.959h1.12v.959h.835Z" fill="#57574d"/>
        <path id="Path_4387" data-name="Path 4387" d="M440.95,711.276c0-1.692.938-2.652,2.2-2.652s2.2.96,2.2,2.652-.93,2.651-2.2,2.651S440.95,712.967,440.95,711.276Zm3.2,0c0-1.164-.41-1.649-1-1.649s-1,.485-1,1.649.411,1.648,1,1.648S444.151,712.44,444.151,711.276Z" fill="#57574d"/>
        <path id="Path_4388" data-name="Path 4388" d="M447.675,709.049a1.78,1.78,0,0,1-.191.733l-.424,1.054h-.726l.315-1.157a.65.65,0,0,1-.388-.63.707.707,0,0,1,1.414,0Z" fill="#57574d"/>
        <path id="Path_4389" data-name="Path 4389" d="M450.2,709.049a1.773,1.773,0,0,1-.19.733l-.425,1.054h-.725l.315-1.157a.649.649,0,0,1-.388-.63.707.707,0,0,1,1.413,0Z" fill="#57574d"/>
        <path id="Path_4390" data-name="Path 4390" d="M450.928,715.26v-.893h.835V709.3h-.835v-.893H452.9v6.855Z" fill="#57574d"/>
        <path id="Path_4391" data-name="Path 4391" d="M456.561,713.432a4.323,4.323,0,0,1,.978-2.774h.668a4.571,4.571,0,0,0-1,2.808,3.81,3.81,0,0,0,.2,1.205h-.613A3.31,3.31,0,0,1,456.561,713.432Z" fill="#df071b"/>
        <path id="Path_4392" data-name="Path 4392" d="M461.579,712.09a1.713,1.713,0,0,1-1.87,1.749h-1.466l.257-1.295h-.408l.1-.463h.407l.249-1.243H460.1C461.025,710.838,461.579,711.323,461.579,712.09Zm-.7.038c0-.445-.287-.719-.853-.719h-.6l-.133.672h.746l-.09.463h-.75l-.146.725h.677A1.078,1.078,0,0,0,460.875,712.128Z" fill="#df071b"/>
        <path id="Path_4393" data-name="Path 4393" d="M464.758,711.533l-.459,2.306h-.633l.042-.227a1.022,1.022,0,0,1-.708.261.971.971,0,0,1-.995-1.033,1.283,1.283,0,0,1,1.274-1.342.826.826,0,0,1,.751.347l.059-.312Zm-.874,1.029a.478.478,0,0,0-.527-.511.691.691,0,0,0-.678.759.479.479,0,0,0,.528.511A.691.691,0,0,0,463.884,712.562Zm-.562,1.848a.311.311,0,0,1-.325.33.257.257,0,0,1-.275-.266.326.326,0,0,1,.325-.321A.259.259,0,0,1,463.322,714.41Zm-.33-3.726a.285.285,0,0,1,.005-.065h.407a.3.3,0,0,0,.339.3.377.377,0,0,0,.4-.3h.433a.817.817,0,0,1-.87.652C463.3,711.271,462.992,711.043,462.992,710.684Z" fill="#df071b"/>
        <path id="Path_4394" data-name="Path 4394" d="M465.176,712.84a1.331,1.331,0,0,1,1.406-1.342,1.071,1.071,0,0,1,1.039.583l-.567.284a.525.525,0,0,0-.514-.314.7.7,0,0,0-.686.755.484.484,0,0,0,.536.515.637.637,0,0,0,.566-.309l.493.309a1.273,1.273,0,0,1-1.1.552A1.042,1.042,0,0,1,465.176,712.84Z" fill="#df071b"/>
        <path id="Path_4395" data-name="Path 4395" d="M472.065,712.532a1.282,1.282,0,0,1-1.277,1.341.827.827,0,0,1-.772-.377l-.069.343h-.634l.634-3.181h.669l-.214,1.072a1.014,1.014,0,0,1,.664-.232A.975.975,0,0,1,472.065,712.532Zm-.678.03a.477.477,0,0,0-.526-.511.691.691,0,0,0-.674.759.475.475,0,0,0,.523.511A.69.69,0,0,0,471.387,712.562Z" fill="#df071b"/>
        <path id="Path_4396" data-name="Path 4396" d="M472.946,711.533h.665l-.459,2.306h-.665Zm.055-.669a.408.408,0,0,1,.443-.4.354.354,0,0,1,.393.334.408.408,0,0,1-.445.412A.359.359,0,0,1,473,710.864Z" fill="#df071b"/>
        <path id="Path_4397" data-name="Path 4397" d="M476.455,712.866h-1.767c.021.313.215.471.6.471a.95.95,0,0,0,.618-.214l.278.442a1.522,1.522,0,0,1-.965.308,1.041,1.041,0,0,1-1.178-1.033A1.3,1.3,0,0,1,475.4,711.5a.99.99,0,0,1,1.1,1.016A1.831,1.831,0,0,1,476.455,712.866Zm-1.244,1.544a.311.311,0,0,1-.326.33.257.257,0,0,1-.274-.266.326.326,0,0,1,.326-.321A.259.259,0,0,1,475.211,714.41Zm-.03-3.169h-.5l.653-.618h.586l.485.618h-.476l-.33-.322Zm-.446,1.235h1.145a.46.46,0,0,0-.514-.477A.635.635,0,0,0,474.735,712.476Z" fill="#df071b"/>
        <path id="Path_4398" data-name="Path 4398" d="M477.806,713.025a.347.347,0,0,0-.009.094c0,.141.077.223.245.223a.528.528,0,0,0,.27-.082l.1.477a1.1,1.1,0,0,1-.575.136.639.639,0,0,1-.72-.642,1.092,1.092,0,0,1,.021-.2l.185-.931h-.356l.1-.514h.355l.113-.562h.669l-.113.562h.575l-.1.514h-.574Z" fill="#df071b"/>
        <path id="Path_4399" data-name="Path 4399" d="M479.643,711.863a3.805,3.805,0,0,0-.2-1.2h.613a3.288,3.288,0,0,1,.232,1.239,4.331,4.331,0,0,1-.978,2.774h-.669A4.571,4.571,0,0,0,479.643,711.863Z" fill="#df071b"/>
        <path id="Path_4400" data-name="Path 4400" d="M354,722.256a2.492,2.492,0,0,1-2.615,2.762,2.742,2.742,0,0,1-1.421-.352l.439-.871a1.663,1.663,0,0,0,.96.256,1.368,1.368,0,0,0,1.443-1.494,1.751,1.751,0,0,1-1.275.461,1.626,1.626,0,0,1-1.765-1.6,1.762,1.762,0,0,1,1.941-1.707C353.124,719.715,354,720.6,354,722.256Zm-1.326-.892c0-.44-.33-.762-.894-.762a.771.771,0,1,0,.015,1.53A.8.8,0,0,0,352.67,721.364Z" fill="#57574d"/>
        <path id="Path_4401" data-name="Path 4401" d="M354.8,724.271a.711.711,0,0,1,1.421,0,.711.711,0,1,1-1.421,0Z" fill="#57574d"/>
        <path id="Path_4402" data-name="Path 4402" d="M364.588,719.8v5.127h-.974l-2.556-3.113v3.113h-1.172V719.8h.981l2.549,3.113V719.8Z" fill="#57574d"/>
        <path id="Path_4403" data-name="Path 4403" d="M370.155,720.99v3.281a1.929,1.929,0,0,1-2.212,2.139,3.243,3.243,0,0,1-1.933-.542l.454-.821a2.348,2.348,0,0,0,1.391.447c.806,0,1.158-.367,1.158-1.077v-.169a1.623,1.623,0,0,1-1.245.492,1.906,1.906,0,1,1,0-3.809,1.582,1.582,0,0,1,1.3.563v-.5Zm-1.128,1.845a1.038,1.038,0,1,0-1.032.967A.956.956,0,0,0,369.027,722.835Z" fill="#57574d"/>
        <path id="Path_4404" data-name="Path 4404" d="M375.071,722.682v2.248H374v-.49a1.3,1.3,0,0,1-1.2.549c-.923,0-1.472-.513-1.472-1.194s.49-1.179,1.691-1.179h.909c0-.491-.293-.777-.909-.777a1.9,1.9,0,0,0-1.135.366l-.41-.8a3.033,3.033,0,0,1,1.7-.476C374.375,720.931,375.071,721.488,375.071,722.682Zm-1.142,1v-.4h-.784c-.535,0-.7.2-.7.462,0,.286.242.475.644.475A.843.843,0,0,0,373.929,723.685Z" fill="#57574d"/>
        <path id="Path_4405" data-name="Path 4405" d="M380.5,722.674v2.256h-1.143v-2.08c0-.637-.293-.93-.8-.93-.549,0-.945.336-.945,1.062v1.948h-1.142v-3.94h1.091v.462a1.722,1.722,0,0,1,1.3-.521A1.544,1.544,0,0,1,380.5,722.674Z" fill="#57574d"/>
        <path id="Path_4406" data-name="Path 4406" d="M384.045,722.959a2.169,2.169,0,1,1,2.168,2.03A2.029,2.029,0,0,1,384.045,722.959Zm3.172,0a1.01,1.01,0,1,0-1,1.092A.994.994,0,0,0,387.217,722.959Z" fill="#57574d"/>
        <path id="Path_4407" data-name="Path 4407" d="M396.161,722.674v2.256h-1.143v-2.08c0-.637-.286-.93-.747-.93-.513,0-.872.329-.872,1.032v1.978h-1.142v-2.08c0-.637-.271-.93-.747-.93-.506,0-.865.329-.865,1.032v1.978H389.5v-3.94h1.091v.454a1.6,1.6,0,0,1,1.238-.513,1.469,1.469,0,0,1,1.3.645,1.769,1.769,0,0,1,1.421-.645A1.526,1.526,0,0,1,396.161,722.674Z" fill="#57574d"/>
        <path id="Path_4408" data-name="Path 4408" d="M404.058,720.99v3.281a1.929,1.929,0,0,1-2.212,2.139,3.243,3.243,0,0,1-1.933-.542l.454-.821a2.348,2.348,0,0,0,1.391.447c.806,0,1.158-.367,1.158-1.077v-.169a1.624,1.624,0,0,1-1.246.492,1.906,1.906,0,1,1,0-3.809,1.583,1.583,0,0,1,1.3.563v-.5Zm-1.128,1.845a1.039,1.039,0,1,0-1.033.967A.956.956,0,0,0,402.93,722.835Z" fill="#57574d"/>
        <path id="Path_4409" data-name="Path 4409" d="M405.348,719.8a.653.653,0,0,1,.711-.637.642.642,0,0,1,.71.616.714.714,0,0,1-1.421.021Zm.139,1.187h1.143v3.94h-1.143Z" fill="#57574d"/>
        <path id="Path_4410" data-name="Path 4410" d="M411.919,722.975c0,.088-.015.212-.022.307h-2.981a1.05,1.05,0,0,0,1.128.791,1.335,1.335,0,0,0,.989-.381l.608.66a2.067,2.067,0,0,1-1.626.637,2.047,2.047,0,0,1-2.249-2.03,2.006,2.006,0,0,1,2.1-2.028A1.951,1.951,0,0,1,411.919,722.975Zm-2.7-2.49h-.842l.974-.836h1l.974.836h-.842l-.63-.418Zm-.315,2.131h1.941a.984.984,0,0,0-1.941,0Zm2.264-2.834-1.15-.887h1.164l.806.887Z" fill="#57574d"/>
        <path id="Path_4411" data-name="Path 4411" d="M417.076,722.674v2.256h-1.142v-2.08c0-.637-.293-.93-.8-.93-.549,0-.945.336-.945,1.062v1.948h-1.142v-3.94h1.091v.462a1.722,1.722,0,0,1,1.3-.521A1.544,1.544,0,0,1,417.076,722.674Z" fill="#57574d"/>
        <path id="Path_4412" data-name="Path 4412" d="M422.585,720.99v3.281a1.929,1.929,0,0,1-2.212,2.139,3.248,3.248,0,0,1-1.934-.542l.455-.821a2.345,2.345,0,0,0,1.391.447c.806,0,1.157-.367,1.157-1.077v-.169a1.62,1.62,0,0,1-1.245.492,1.906,1.906,0,1,1,0-3.809,1.583,1.583,0,0,1,1.3.563v-.5Zm-1.128,1.845a1.039,1.039,0,1,0-1.033.967A.956.956,0,0,0,421.457,722.835Z" fill="#57574d"/>
        <path id="Path_4413" data-name="Path 4413" d="M433.111,722.674v2.256h-1.142v-2.08c0-.637-.286-.93-.747-.93-.513,0-.872.329-.872,1.032v1.978h-1.143v-2.08c0-.637-.27-.93-.747-.93-.505,0-.864.329-.864,1.032v1.978h-1.142v-3.94h1.091v.454a1.6,1.6,0,0,1,1.238-.513,1.469,1.469,0,0,1,1.3.645,1.769,1.769,0,0,1,1.421-.645A1.526,1.526,0,0,1,433.111,722.674Z" fill="#57574d"/>
        <path id="Path_4414" data-name="Path 4414" d="M438.386,723.282H435.4a1.051,1.051,0,0,0,1.128.791,1.333,1.333,0,0,0,.989-.381l.608.66a2.3,2.3,0,0,1-3.875-1.393,2.006,2.006,0,0,1,2.1-2.028,1.95,1.95,0,0,1,2.051,2.044C438.408,723.063,438.394,723.187,438.386,723.282Zm-2.995-.666h1.941a.984.984,0,0,0-1.941,0Zm.4-3.055-.234-.461a1.276,1.276,0,0,1,.791-.249.794.794,0,0,1,.879.784.983.983,0,0,1-.674.922l-.359-.381c.286-.131.374-.277.374-.446a.311.311,0,0,0-.344-.308A.778.778,0,0,0,435.793,719.561Z" fill="#57574d"/>
        <path id="Path_4415" data-name="Path 4415" d="M442.057,719.495h1.985v.894H443.2v5.068h.842v.894h-1.985Z" fill="#57574d"/>
        <path id="Path_4416" data-name="Path 4416" d="M449.375,723.854h-.835v1.076h-1.157v-1.076h-2.761v-.8l2.417-3.252h1.245l-2.242,3.084h1.377v-.96h1.121v.96h.835Z" fill="#57574d"/>
        <path id="Path_4417" data-name="Path 4417" d="M450.094,722.367c0-1.693.937-2.652,2.2-2.652s2.2.959,2.2,2.652-.93,2.651-2.2,2.651S450.094,724.059,450.094,722.367Zm3.2,0c0-1.165-.41-1.648-1-1.648s-1,.483-1,1.648.41,1.647,1,1.647S453.294,723.532,453.294,722.367Z" fill="#57574d"/>
        <path id="Path_4418" data-name="Path 4418" d="M456.818,720.14a1.763,1.763,0,0,1-.191.732l-.424,1.055h-.725l.314-1.157a.651.651,0,0,1-.388-.63.707.707,0,0,1,1.414,0Z" fill="#57574d"/>
        <path id="Path_4419" data-name="Path 4419" d="M459.345,720.14a1.773,1.773,0,0,1-.19.732l-.425,1.055h-.725l.315-1.157a.65.65,0,0,1-.388-.63.707.707,0,0,1,1.413,0Z" fill="#57574d"/>
        <path id="Path_4420" data-name="Path 4420" d="M460.071,726.351v-.894h.835v-5.068h-.835v-.894h1.977v6.856Z" fill="#57574d"/>
        <path id="Path_4421" data-name="Path 4421" d="M465.7,724.523a4.333,4.333,0,0,1,.977-2.775h.669a4.576,4.576,0,0,0-1,2.809,3.838,3.838,0,0,0,.2,1.205h-.613A3.29,3.29,0,0,1,465.7,724.523Z" fill="#df071b"/>
        <path id="Path_4422" data-name="Path 4422" d="M470.721,723.181a1.712,1.712,0,0,1-1.869,1.749h-1.467l.258-1.295h-.408l.1-.463h.407l.249-1.243h1.256C470.168,721.929,470.721,722.413,470.721,723.181Zm-.7.038c0-.445-.287-.72-.853-.72h-.6l-.133.673h.746l-.09.463h-.751l-.145.725h.678A1.079,1.079,0,0,0,470.018,723.219Z" fill="#df071b"/>
        <path id="Path_4423" data-name="Path 4423" d="M473.9,722.623l-.459,2.307h-.635l.043-.228a1.022,1.022,0,0,1-.707.262.971.971,0,0,1-.995-1.033,1.282,1.282,0,0,1,1.273-1.342.825.825,0,0,1,.751.347l.06-.313Zm-.875,1.03a.478.478,0,0,0-.527-.511.69.69,0,0,0-.677.759.477.477,0,0,0,.527.51A.69.69,0,0,0,473.026,723.653Zm-.562,1.847a.311.311,0,0,1-.326.33.257.257,0,0,1-.274-.265.327.327,0,0,1,.326-.321A.258.258,0,0,1,472.464,725.5Zm-.33-3.726a.349.349,0,0,1,0-.064h.408a.3.3,0,0,0,.338.3.38.38,0,0,0,.4-.3h.432a.817.817,0,0,1-.87.652C472.439,722.362,472.134,722.134,472.134,721.774Z" fill="#df071b"/>
        <path id="Path_4424" data-name="Path 4424" d="M474.318,723.931a1.331,1.331,0,0,1,1.406-1.342,1.071,1.071,0,0,1,1.038.583l-.566.283a.527.527,0,0,0-.514-.313.7.7,0,0,0-.686.755.484.484,0,0,0,.536.514.636.636,0,0,0,.565-.308l.493.308a1.27,1.27,0,0,1-1.1.553A1.042,1.042,0,0,1,474.318,723.931Z" fill="#df071b"/>
        <path id="Path_4425" data-name="Path 4425" d="M481.206,723.622a1.283,1.283,0,0,1-1.278,1.342.827.827,0,0,1-.772-.377l-.069.343h-.634l.634-3.182h.669l-.214,1.073a1.017,1.017,0,0,1,.665-.232A.974.974,0,0,1,481.206,723.622Zm-.678.031a.478.478,0,0,0-.528-.511.69.69,0,0,0-.672.759.474.474,0,0,0,.523.51A.69.69,0,0,0,480.528,723.653Z" fill="#df071b"/>
        <path id="Path_4426" data-name="Path 4426" d="M482.086,722.623h.665l-.459,2.307h-.665Zm.056-.669a.407.407,0,0,1,.442-.4.354.354,0,0,1,.394.334.408.408,0,0,1-.445.412A.358.358,0,0,1,482.142,721.954Z" fill="#df071b"/>
        <path id="Path_4427" data-name="Path 4427" d="M485.6,723.956h-1.766c.021.314.214.472.6.472a.948.948,0,0,0,.618-.214l.279.442a1.532,1.532,0,0,1-.965.308,1.041,1.041,0,0,1-1.179-1.033,1.3,1.3,0,0,1,1.36-1.342.989.989,0,0,1,1.1,1.016A1.737,1.737,0,0,1,485.6,723.956Zm-1.243,1.544a.312.312,0,0,1-.326.33.257.257,0,0,1-.275-.265.327.327,0,0,1,.327-.321A.258.258,0,0,1,484.352,725.5Zm-.03-3.169h-.5l.652-.617h.587l.484.617h-.475l-.33-.321Zm-.447,1.236h1.146a.46.46,0,0,0-.515-.477A.636.636,0,0,0,483.875,723.567Z" fill="#df071b"/>
        <path id="Path_4428" data-name="Path 4428" d="M486.947,724.116a.344.344,0,0,0-.009.093c0,.142.077.224.245.224a.527.527,0,0,0,.27-.082l.1.476a1.094,1.094,0,0,1-.574.137.64.64,0,0,1-.721-.642,1.114,1.114,0,0,1,.022-.2l.184-.93h-.355l.1-.514h.356l.112-.562h.669l-.112.562h.575l-.1.514h-.575Z" fill="#df071b"/>
        <path id="Path_4429" data-name="Path 4429" d="M488.784,722.953a3.816,3.816,0,0,0-.2-1.205h.614a3.315,3.315,0,0,1,.231,1.24,4.33,4.33,0,0,1-.977,2.774h-.669A4.572,4.572,0,0,0,488.784,722.953Z" fill="#df071b"/>
      </g>
    </g>
    <g id="Group_387" data-name="Group 387" transform="translate(-349.762 -696.524)">
      <g id="Group_386" data-name="Group 386">
        <path id="Path_4430" data-name="Path 4430" d="M553.221,701.182c0,.864-.667,1.655-2.124,1.655a3.519,3.519,0,0,1-1.955-.55l.461-.908a2.492,2.492,0,0,0,1.465.462c.594,0,.959-.241.959-.659,0-.389-.285-.63-.959-.63h-.542v-.784l1.055-1.193H549.4v-.953h3.589v.769l-1.157,1.318A1.458,1.458,0,0,1,553.221,701.182Z" fill="#df071b"/>
        <path id="Path_4431" data-name="Path 4431" d="M558.832,701.672H558v1.077H556.84v-1.077h-2.76v-.8l2.416-3.252h1.246l-2.243,3.083h1.377v-.959H558v.959h.834Z" fill="#df071b"/>
        <path id="Path_4432" data-name="Path 4432" d="M563.411,701.138c0,.908-.667,1.7-2.132,1.7a3.539,3.539,0,0,1-1.955-.55l.468-.908a2.47,2.47,0,0,0,1.457.462c.594,0,.96-.249.96-.667,0-.4-.263-.666-1.194-.666h-1.31l.263-2.886h3.127v.953h-2.138l-.081.974h.418C562.81,699.549,563.411,700.23,563.411,701.138Z" fill="#df071b"/>
        <path id="Path_4433" data-name="Path 4433" d="M564.224,702.09a.711.711,0,0,1,1.421,0,.711.711,0,1,1-1.421,0Z" fill="#df071b"/>
        <path id="Path_4434" data-name="Path 4434" d="M566.451,700.186c0-1.692.937-2.651,2.2-2.651s2.2.959,2.2,2.651-.929,2.651-2.2,2.651S566.451,701.877,566.451,700.186Zm3.2,0c0-1.164-.41-1.649-1-1.649s-1,.485-1,1.649.41,1.648,1,1.648S569.652,701.35,569.652,700.186Z" fill="#df071b"/>
        <path id="Path_4435" data-name="Path 4435" d="M571.791,700.186c0-1.692.937-2.651,2.2-2.651s2.2.959,2.2,2.651-.93,2.651-2.2,2.651S571.791,701.877,571.791,700.186Zm3.2,0c0-1.164-.41-1.649-1-1.649s-1,.485-1,1.649.41,1.648,1,1.648S574.992,701.35,574.992,700.186Z" fill="#df071b"/>
        <path id="Path_4436" data-name="Path 4436" d="M577.13,700.186c0-1.692.938-2.651,2.2-2.651s2.2.959,2.2,2.651-.93,2.651-2.2,2.651S577.13,701.877,577.13,700.186Zm3.2,0c0-1.164-.411-1.649-1-1.649s-1,.485-1,1.649.41,1.648,1,1.648S580.332,701.35,580.332,700.186Z" fill="#df071b"/>
        <path id="Path_4437" data-name="Path 4437" d="M587.261,698.407h-.535v4.342h-1.092v-.454a1.515,1.515,0,0,1-1.23.513,2.03,2.03,0,0,1,0-4.058,1.513,1.513,0,0,1,1.179.477v-.82h-1.339v-.661h1.339v-.431h1.143v.431h.535ZM585.6,700.78a1.01,1.01,0,1,0-1,1.09A1,1,0,0,0,585.6,700.78Z" fill="#df071b"/>
        <path id="Path_4438" data-name="Path 4438" d="M553.221,712.272c0,.864-.667,1.655-2.124,1.655a3.519,3.519,0,0,1-1.955-.55l.461-.908a2.491,2.491,0,0,0,1.465.462c.594,0,.959-.241.959-.659,0-.389-.285-.63-.959-.63h-.542v-.784l1.055-1.194H549.4v-.952h3.589v.769L551.83,710.8A1.458,1.458,0,0,1,553.221,712.272Z" fill="#df071b"/>
        <path id="Path_4439" data-name="Path 4439" d="M558.832,712.762H558v1.077H556.84v-1.077h-2.76v-.8l2.416-3.252h1.246l-2.243,3.083h1.377v-.959H558v.959h.834Z" fill="#df071b"/>
        <path id="Path_4440" data-name="Path 4440" d="M563.411,712.228c0,.908-.667,1.7-2.132,1.7a3.539,3.539,0,0,1-1.955-.55l.468-.908a2.469,2.469,0,0,0,1.457.462c.594,0,.96-.249.96-.667,0-.4-.263-.666-1.194-.666h-1.31l.263-2.886h3.127v.952h-2.138l-.081.975h.418C562.81,710.639,563.411,711.32,563.411,712.228Z" fill="#df071b"/>
        <path id="Path_4441" data-name="Path 4441" d="M564.224,713.18a.711.711,0,0,1,1.421,0,.711.711,0,1,1-1.421,0Z" fill="#df071b"/>
        <path id="Path_4442" data-name="Path 4442" d="M566.451,711.276c0-1.692.937-2.652,2.2-2.652s2.2.96,2.2,2.652-.929,2.651-2.2,2.651S566.451,712.967,566.451,711.276Zm3.2,0c0-1.164-.41-1.649-1-1.649s-1,.485-1,1.649.41,1.648,1,1.648S569.652,712.44,569.652,711.276Z" fill="#df071b"/>
        <path id="Path_4443" data-name="Path 4443" d="M571.791,711.276c0-1.692.937-2.652,2.2-2.652s2.2.96,2.2,2.652-.93,2.651-2.2,2.651S571.791,712.967,571.791,711.276Zm3.2,0c0-1.164-.41-1.649-1-1.649s-1,.485-1,1.649.41,1.648,1,1.648S574.992,712.44,574.992,711.276Z" fill="#df071b"/>
        <path id="Path_4444" data-name="Path 4444" d="M577.13,711.276c0-1.692.938-2.652,2.2-2.652s2.2.96,2.2,2.652-.93,2.651-2.2,2.651S577.13,712.967,577.13,711.276Zm3.2,0c0-1.164-.411-1.649-1-1.649s-1,.485-1,1.649.41,1.648,1,1.648S580.332,712.44,580.332,711.276Z" fill="#df071b"/>
        <path id="Path_4445" data-name="Path 4445" d="M587.261,709.5h-.535v4.343h-1.092v-.454a1.515,1.515,0,0,1-1.23.513,2.03,2.03,0,0,1,0-4.058,1.51,1.51,0,0,1,1.179.477V709.5h-1.339v-.66h1.339v-.431h1.143v.431h.535Zm-1.656,2.373a1.01,1.01,0,1,0-1,1.091A1,1,0,0,0,585.6,711.869Z" fill="#df071b"/>
        <path id="Path_4446" data-name="Path 4446" d="M553.221,723.363c0,.864-.667,1.655-2.124,1.655a3.519,3.519,0,0,1-1.955-.549l.461-.908a2.491,2.491,0,0,0,1.465.461c.594,0,.959-.242.959-.659,0-.388-.285-.63-.959-.63h-.542v-.783l1.055-1.2H549.4V719.8h3.589v.77l-1.157,1.318A1.456,1.456,0,0,1,553.221,723.363Z" fill="#df071b"/>
        <path id="Path_4447" data-name="Path 4447" d="M558.832,723.854H558v1.076H556.84v-1.076h-2.76v-.8L556.5,719.8h1.246l-2.243,3.084h1.377v-.96H558v.96h.834Z" fill="#df071b"/>
        <path id="Path_4448" data-name="Path 4448" d="M563.411,723.319c0,.908-.667,1.7-2.132,1.7a3.538,3.538,0,0,1-1.955-.549l.468-.908a2.469,2.469,0,0,0,1.457.461c.594,0,.96-.249.96-.666s-.263-.667-1.194-.667h-1.31l.263-2.886h3.127v.952h-2.138l-.081.974h.418C562.81,721.729,563.411,722.41,563.411,723.319Z" fill="#df071b"/>
        <path id="Path_4449" data-name="Path 4449" d="M564.224,724.271a.711.711,0,0,1,1.421,0,.711.711,0,1,1-1.421,0Z" fill="#df071b"/>
        <path id="Path_4450" data-name="Path 4450" d="M566.451,722.367c0-1.693.937-2.652,2.2-2.652s2.2.959,2.2,2.652-.929,2.651-2.2,2.651S566.451,724.059,566.451,722.367Zm3.2,0c0-1.165-.41-1.648-1-1.648s-1,.483-1,1.648.41,1.647,1,1.647S569.652,723.532,569.652,722.367Z" fill="#df071b"/>
        <path id="Path_4451" data-name="Path 4451" d="M571.791,722.367c0-1.693.937-2.652,2.2-2.652s2.2.959,2.2,2.652-.93,2.651-2.2,2.651S571.791,724.059,571.791,722.367Zm3.2,0c0-1.165-.41-1.648-1-1.648s-1,.483-1,1.648.41,1.647,1,1.647S574.992,723.532,574.992,722.367Z" fill="#df071b"/>
        <path id="Path_4452" data-name="Path 4452" d="M577.13,722.367c0-1.693.938-2.652,2.2-2.652s2.2.959,2.2,2.652-.93,2.651-2.2,2.651S577.13,724.059,577.13,722.367Zm3.2,0c0-1.165-.411-1.648-1-1.648s-1,.483-1,1.648.41,1.647,1,1.647S580.332,723.532,580.332,722.367Z" fill="#df071b"/>
        <path id="Path_4453" data-name="Path 4453" d="M587.261,720.586h-.535v4.344h-1.092v-.454a1.512,1.512,0,0,1-1.23.513,2.03,2.03,0,0,1,0-4.058,1.509,1.509,0,0,1,1.179.476v-.821h-1.339v-.658h1.339v-.433h1.143v.433h.535Zm-1.656,2.373a1.01,1.01,0,1,0-1,1.092A1,1,0,0,0,585.6,722.959Z" fill="#df071b"/>
      </g>
    </g>
  </g>
</svg>
