<svg xmlns="http://www.w3.org/2000/svg" xmlns:xlink="http://www.w3.org/1999/xlink" width="238" height="52" viewBox="0 0 238 52">
  <defs>
    <clipPath id="clip-Web_1920_1">
      <rect width="238" height="52"/>
    </clipPath>
  </defs>
  <g id="Web_1920_1" data-name="Web 1920 – 1" clip-path="url(#clip-Web_1920_1)">
    <g id="Group_322" data-name="Group 322" transform="translate(-63.671 -811.803)">
      <g id="Group_321" data-name="Group 321">
        <path id="Path_3373" data-name="Path 3373" d="M65.942,812.44v5.127H64.755v-4.175H63.73v-.952Z" fill="#57574d"/>
        <path id="Path_3374" data-name="Path 3374" d="M67.166,816.908a.71.71,0,0,1,1.42,0,.71.71,0,1,1-1.42,0Z" fill="#57574d"/>
        <path id="Path_3375" data-name="Path 3375" d="M75.479,817.567l-1.237-1.78-1.216,1.78H71.664l1.9-2.608-1.8-2.519h1.347l1.18,1.662,1.157-1.662h1.282l-1.788,2.475,1.912,2.652Z" fill="#57574d"/>
        <path id="Path_3376" data-name="Path 3376" d="M81.582,815.6a2.169,2.169,0,1,1-2.161-2.028A2.022,2.022,0,0,1,81.582,815.6Zm-2.813-2.475h-.835l.967-1.054h1.011l.966,1.054h-.835l-.637-.556Zm1.655,2.475a1.01,1.01,0,1,0-1,1.092A.994.994,0,0,0,80.424,815.6Z" fill="#57574d"/>
        <path id="Path_3377" data-name="Path 3377" d="M82.572,812.44a.652.652,0,0,1,.71-.637.642.642,0,0,1,.711.615.714.714,0,0,1-1.421.022Zm.139,1.186h1.142v3.941H82.711Z" fill="#57574d"/>
        <path id="Path_3378" data-name="Path 3378" d="M91.75,815.311v2.256H90.607v-2.08c0-.637-.293-.93-.8-.93-.549,0-.945.336-.945,1.062v1.948H87.722v-3.941h1.091v.462a1.722,1.722,0,0,1,1.3-.52A1.544,1.544,0,0,1,91.75,815.311Z" fill="#57574d"/>
        <path id="Path_3379" data-name="Path 3379" d="M97.259,813.626v3.282a1.929,1.929,0,0,1-2.212,2.138,3.241,3.241,0,0,1-1.934-.542l.454-.82a2.357,2.357,0,0,0,1.392.447c.806,0,1.157-.367,1.157-1.077v-.169a1.62,1.62,0,0,1-1.245.491,1.905,1.905,0,1,1,0-3.808,1.583,1.583,0,0,1,1.3.563v-.505Zm-1.128,1.846a1.039,1.039,0,1,0-1.033.967A.957.957,0,0,0,96.131,815.472Z" fill="#57574d"/>
        <path id="Path_3380" data-name="Path 3380" d="M102.174,815.319v2.248h-1.069v-.49a1.294,1.294,0,0,1-1.2.548c-.923,0-1.472-.512-1.472-1.193,0-.7.49-1.18,1.692-1.18h.908c0-.49-.293-.776-.908-.776a1.9,1.9,0,0,0-1.136.366l-.41-.8a3.04,3.04,0,0,1,1.7-.475C101.478,813.568,102.174,814.124,102.174,815.319Zm-1.142,1v-.4h-.784c-.535,0-.7.2-.7.462,0,.286.242.476.644.476A.843.843,0,0,0,101.032,816.322Z" fill="#57574d"/>
        <path id="Path_3381" data-name="Path 3381" d="M107.6,815.311v2.256h-1.143v-2.08c0-.637-.293-.93-.8-.93-.549,0-.945.336-.945,1.062v1.948h-1.142v-3.941h1.091v.462a1.722,1.722,0,0,1,1.3-.52A1.544,1.544,0,0,1,107.6,815.311Z" fill="#57574d"/>
        <path id="Path_3382" data-name="Path 3382" d="M67.795,827.69v.967H63.92v-.77L65.9,826.02c.454-.432.535-.7.535-.945,0-.4-.279-.637-.821-.637a1.253,1.253,0,0,0-1.062.513l-.864-.557a2.38,2.38,0,0,1,2.036-.952c1.143,0,1.9.586,1.9,1.515a2.049,2.049,0,0,1-.856,1.62l-1.18,1.113Z" fill="#57574d"/>
        <path id="Path_3383" data-name="Path 3383" d="M68.689,828a.711.711,0,0,1,1.421,0,.711.711,0,1,1-1.421,0Z" fill="#57574d"/>
        <path id="Path_3384" data-name="Path 3384" d="M73.451,826.093a2.823,2.823,0,0,1,4.892-1.743l-.761.7a1.654,1.654,0,0,0-1.29-.6,1.641,1.641,0,0,0,0,3.282,1.634,1.634,0,0,0,1.29-.609l.761.7a2.818,2.818,0,0,1-4.892-1.735Z" fill="#57574d"/>
        <path id="Path_3385" data-name="Path 3385" d="M83.457,826.4v2.256H82.314v-2.08c0-.637-.293-.93-.8-.93-.55,0-.945.336-.945,1.061v1.949H79.428v-5.435h1.143v1.9a1.733,1.733,0,0,1,1.252-.468A1.545,1.545,0,0,1,83.457,826.4Z" fill="#57574d"/>
        <path id="Path_3386" data-name="Path 3386" d="M88.343,826.409v2.248H87.274v-.491a1.293,1.293,0,0,1-1.2.549c-.923,0-1.472-.513-1.472-1.193,0-.7.49-1.18,1.691-1.18H87.2c0-.49-.293-.776-.909-.776a1.9,1.9,0,0,0-1.135.366l-.41-.8a3.04,3.04,0,0,1,1.7-.475C87.647,824.658,88.343,825.214,88.343,826.409Zm-1.142,1v-.4h-.784c-.535,0-.7.2-.7.462,0,.286.242.476.644.476A.843.843,0,0,0,87.2,827.411Zm-.41-3.2H85.9l.989-1.054h1.23Z" fill="#57574d"/>
        <path id="Path_3387" data-name="Path 3387" d="M89.494,826.686a2.168,2.168,0,1,1,2.168,2.029A2.028,2.028,0,0,1,89.494,826.686Zm3.171,0a1.01,1.01,0,1,0-1,1.092A.994.994,0,0,0,92.665,826.686Z" fill="#57574d"/>
        <path id="Path_3388" data-name="Path 3388" d="M101.419,826.4v2.256h-1.143v-2.08c0-.637-.293-.93-.8-.93-.549,0-.945.336-.945,1.061v1.949H97.391v-3.941h1.091v.462a1.722,1.722,0,0,1,1.3-.52A1.544,1.544,0,0,1,101.419,826.4Z" fill="#57574d"/>
        <path id="Path_3389" data-name="Path 3389" d="M106.928,824.716V828a1.929,1.929,0,0,1-2.212,2.139,3.248,3.248,0,0,1-1.934-.542l.454-.82a2.358,2.358,0,0,0,1.392.447c.806,0,1.157-.367,1.157-1.077v-.169a1.62,1.62,0,0,1-1.245.491,1.905,1.905,0,1,1,0-3.808,1.583,1.583,0,0,1,1.3.563v-.505Zm-1.128,1.846a1.039,1.039,0,1,0-1.033.967A.957.957,0,0,0,105.8,826.562Z" fill="#57574d"/>
        <path id="Path_3390" data-name="Path 3390" d="M111.843,826.409v2.248h-1.069v-.491a1.293,1.293,0,0,1-1.2.549c-.923,0-1.472-.513-1.472-1.193,0-.7.49-1.18,1.691-1.18h.909c0-.49-.293-.776-.909-.776a1.9,1.9,0,0,0-1.135.366l-.41-.8a3.04,3.04,0,0,1,1.7-.475C111.147,824.658,111.843,825.214,111.843,826.409Zm-1.142,1v-.4h-.784c-.535,0-.7.2-.7.462,0,.286.242.476.644.476A.843.843,0,0,0,110.7,827.411Z" fill="#57574d"/>
        <path id="Path_3391" data-name="Path 3391" d="M117.271,826.4v2.256h-1.143v-2.08c0-.637-.293-.93-.8-.93-.549,0-.945.336-.945,1.061v1.949h-1.142v-3.941h1.091v.462a1.722,1.722,0,0,1,1.3-.52A1.544,1.544,0,0,1,117.271,826.4Z" fill="#57574d"/>
        <path id="Path_3392" data-name="Path 3392" d="M67.751,838.18c0,.864-.667,1.655-2.124,1.655a3.522,3.522,0,0,1-1.956-.55l.462-.908a2.49,2.49,0,0,0,1.465.462c.593,0,.959-.241.959-.659,0-.389-.286-.63-.959-.63h-.542v-.784l1.054-1.193H63.928v-.953h3.589v.769l-1.158,1.318A1.458,1.458,0,0,1,67.751,838.18Z" fill="#57574d"/>
        <path id="Path_3393" data-name="Path 3393" d="M68.63,839.088a.711.711,0,0,1,1.421,0,.711.711,0,1,1-1.421,0Z" fill="#57574d"/>
        <path id="Path_3394" data-name="Path 3394" d="M78.416,838.348c0,.887-.7,1.4-2.05,1.4H73.714V834.62h2.505c1.282,0,1.941.535,1.941,1.333a1.232,1.232,0,0,1-.681,1.128A1.265,1.265,0,0,1,78.416,838.348Zm-3.522-2.834v1.209h1.179c.578,0,.893-.205.893-.608s-.315-.6-.893-.6Zm2.329,2.71c0-.433-.33-.638-.945-.638H74.894v1.268h1.384C76.893,838.854,77.223,838.663,77.223,838.224Z" fill="#57574d"/>
        <path id="Path_3395" data-name="Path 3395" d="M83.574,835.807v3.94H82.49v-.468a1.6,1.6,0,0,1-1.223.527,1.571,1.571,0,0,1-1.685-1.772v-2.227h1.143v2.059c0,.658.293.951.8.951.527,0,.908-.336.908-1.062v-1.948ZM81.8,835.3h-.893l.988-1.055h1.231Z" fill="#57574d"/>
        <path id="Path_3396" data-name="Path 3396" d="M89.032,837.492v2.255H87.889v-2.08c0-.637-.293-.93-.8-.93-.55,0-.945.338-.945,1.062v1.948H85v-3.94H86.1v.461a1.727,1.727,0,0,1,1.3-.52A1.545,1.545,0,0,1,89.032,837.492Z" fill="#57574d"/>
        <path id="Path_3397" data-name="Path 3397" d="M94.519,833.58h1.018l-2.417,6.9H92.1Z" fill="#57574d"/>
        <path id="Path_3398" data-name="Path 3398" d="M103.294,839.747l-.007-3.076-1.509,2.534h-.534l-1.5-2.468v3.01H98.629V834.62h.981l1.919,3.187,1.89-3.187h.974l.015,5.127Z" fill="#57574d"/>
        <path id="Path_3399" data-name="Path 3399" d="M105.771,834.62a.654.654,0,0,1,.71-.637.641.641,0,0,1,.711.615.714.714,0,0,1-1.421.022Zm.139,1.187h1.143v3.94H105.91Z" fill="#57574d"/>
        <path id="Path_3400" data-name="Path 3400" d="M112.341,837.791c0,.088-.014.213-.022.309h-2.981a1.052,1.052,0,0,0,1.128.791,1.337,1.337,0,0,0,.989-.381l.608.658a2.3,2.3,0,0,1-3.875-1.39,2.007,2.007,0,0,1,2.1-2.03A1.95,1.95,0,0,1,112.341,837.791Zm-2.7-2.49H108.8l.974-.834h1l.974.834H110.9l-.629-.417Zm-.315,2.132h1.941a.984.984,0,0,0-1.941,0Zm2.651-2.835h-.828l.813-.886h1.165Z" fill="#57574d"/>
        <path id="Path_3401" data-name="Path 3401" d="M117.5,837.492v2.255h-1.143v-2.08c0-.637-.293-.93-.8-.93-.55,0-.945.338-.945,1.062v1.948H113.47v-3.94h1.092v.461a1.727,1.727,0,0,1,1.3-.52A1.546,1.546,0,0,1,117.5,837.492Z" fill="#57574d"/>
        <path id="Path_3402" data-name="Path 3402" d="M125.367,837.492v2.255h-1.143v-2.08c0-.637-.293-.93-.8-.93-.55,0-.945.338-.945,1.062v1.948h-1.143v-3.94h1.092v.461a1.727,1.727,0,0,1,1.3-.52A1.545,1.545,0,0,1,125.367,837.492Z" fill="#57574d"/>
        <path id="Path_3403" data-name="Path 3403" d="M130.875,835.807v3.281a1.929,1.929,0,0,1-2.211,2.139,3.251,3.251,0,0,1-1.934-.542l.454-.82a2.361,2.361,0,0,0,1.392.446c.8,0,1.157-.365,1.157-1.076v-.168a1.624,1.624,0,0,1-1.245.49,1.906,1.906,0,1,1,0-3.809,1.581,1.581,0,0,1,1.3.565v-.506Zm-1.127,1.846a1.039,1.039,0,1,0-1.033.966A.958.958,0,0,0,129.748,837.653Z" fill="#57574d"/>
        <path id="Path_3404" data-name="Path 3404" d="M135.791,837.5v2.249h-1.069v-.491a1.293,1.293,0,0,1-1.2.55c-.922,0-1.472-.513-1.472-1.194s.491-1.179,1.692-1.179h.908c0-.491-.293-.776-.908-.776a1.889,1.889,0,0,0-1.135.366l-.41-.8a3.017,3.017,0,0,1,1.7-.477C135.1,835.748,135.791,836.3,135.791,837.5Zm-1.143,1v-.4h-.783c-.535,0-.7.2-.7.461,0,.285.241.476.644.476A.839.839,0,0,0,134.648,838.5Z" fill="#57574d"/>
        <path id="Path_3405" data-name="Path 3405" d="M141.219,837.492v2.255h-1.143v-2.08c0-.637-.293-.93-.8-.93-.55,0-.945.338-.945,1.062v1.948H137.19v-3.94h1.092v.461a1.727,1.727,0,0,1,1.3-.52A1.545,1.545,0,0,1,141.219,837.492Z" fill="#57574d"/>
        <path id="Path_3406" data-name="Path 3406" d="M149.35,837.778a1.914,1.914,0,0,1-1.963,2.028,1.533,1.533,0,0,1-1.238-.513v.454h-1.091v-5.434H146.2v1.912a1.53,1.53,0,0,1,1.186-.477A1.914,1.914,0,0,1,149.35,837.778Zm-1.157,0a1.007,1.007,0,1,0-1,1.091A.995.995,0,0,0,148.193,837.778Z" fill="#57574d"/>
        <path id="Path_3407" data-name="Path 3407" d="M153.9,837.5v2.249H152.83v-.491a1.291,1.291,0,0,1-1.2.55c-.923,0-1.472-.513-1.472-1.194s.49-1.179,1.692-1.179h.908c0-.491-.293-.776-.908-.776a1.89,1.89,0,0,0-1.136.366l-.41-.8a3.02,3.02,0,0,1,1.7-.477C153.2,835.748,153.9,836.3,153.9,837.5Zm-1.142,1v-.4h-.784c-.535,0-.7.2-.7.461,0,.285.242.476.645.476A.841.841,0,0,0,152.757,838.5Zm-.41-3.2h-.894l.989-1.055h1.23Z" fill="#57574d"/>
        <path id="Path_3408" data-name="Path 3408" d="M159.328,837.492v2.255h-1.143v-2.08c0-.637-.293-.93-.8-.93-.55,0-.945.338-.945,1.062v1.948H155.3v-3.94h1.092v.461a1.727,1.727,0,0,1,1.3-.52A1.546,1.546,0,0,1,159.328,837.492Z" fill="#57574d"/>
        <path id="Path_3409" data-name="Path 3409" d="M164.756,837.492v2.255h-1.143v-2.08c0-.637-.293-.93-.8-.93-.549,0-.945.338-.945,1.062v1.948h-1.142v-5.434h1.142v1.9a1.736,1.736,0,0,1,1.253-.469A1.545,1.545,0,0,1,164.756,837.492Z" fill="#57574d"/>
        <path id="Path_3410" data-name="Path 3410" d="M171.137,839.557a1.639,1.639,0,0,1-.93.249,1.3,1.3,0,0,1-1.473-1.413v-1.619h-.608V835.9h.608v-.959h1.143v.959h.981v.879h-.981v1.6a.46.46,0,0,0,.491.521.77.77,0,0,0,.461-.147Z" fill="#57574d"/>
        <path id="Path_3411" data-name="Path 3411" d="M175.861,838.1H172.88a1.052,1.052,0,0,0,1.128.791,1.337,1.337,0,0,0,.989-.381l.608.658a2.3,2.3,0,0,1-3.875-1.39,2.007,2.007,0,0,1,2.1-2.03,1.951,1.951,0,0,1,2.051,2.043C175.883,837.879,175.869,838,175.861,838.1Zm-2.995-.667h1.941a.984.984,0,0,0-1.941,0Zm.4-3.054-.235-.462a1.272,1.272,0,0,1,.791-.249.794.794,0,0,1,.879.784.984.984,0,0,1-.674.923l-.359-.381c.286-.132.374-.279.374-.447a.31.31,0,0,0-.344-.307A.772.772,0,0,0,173.269,834.379Z" fill="#57574d"/>
        <path id="Path_3412" data-name="Path 3412" d="M68.659,849.76h-.835v1.077H66.667V849.76H63.906v-.8l2.417-3.252h1.245l-2.241,3.083H66.7v-.959h1.12v.959h.835Z" fill="#57574d"/>
        <path id="Path_3413" data-name="Path 3413" d="M69.488,850.178a.711.711,0,0,1,1.421,0,.711.711,0,1,1-1.421,0Z" fill="#57574d"/>
        <path id="Path_3414" data-name="Path 3414" d="M79.274,849.438c0,.887-.7,1.4-2.051,1.4H74.572V845.71h2.505c1.281,0,1.941.534,1.941,1.333a1.231,1.231,0,0,1-.682,1.128A1.265,1.265,0,0,1,79.274,849.438ZM75.751,846.6v1.209H76.93c.579,0,.894-.205.894-.609s-.315-.6-.894-.6Zm2.329,2.71c0-.433-.33-.638-.945-.638H75.751v1.268h1.384C77.75,849.944,78.08,849.753,78.08,849.314Z" fill="#57574d"/>
        <path id="Path_3415" data-name="Path 3415" d="M84.431,846.9v3.94H83.347v-.468a1.6,1.6,0,0,1-1.223.527,1.571,1.571,0,0,1-1.685-1.773V846.9h1.143v2.058c0,.659.293.952.8.952.528,0,.909-.336.909-1.062V846.9Zm-1.772-.506h-.894l.989-1.055h1.23Z" fill="#57574d"/>
        <path id="Path_3416" data-name="Path 3416" d="M89.889,848.581v2.256H88.747v-2.08c0-.638-.293-.93-.8-.93-.549,0-.945.337-.945,1.062v1.948H85.861V846.9h1.091v.461a1.729,1.729,0,0,1,1.3-.52A1.544,1.544,0,0,1,89.889,848.581Z" fill="#57574d"/>
        <path id="Path_3417" data-name="Path 3417" d="M95.376,844.67h1.019l-2.417,6.9H92.959Z" fill="#57574d"/>
        <path id="Path_3418" data-name="Path 3418" d="M104.152,850.837l-.007-3.076-1.509,2.534H102.1l-1.5-2.468v3.01H99.486V845.71h.982l1.919,3.187,1.889-3.187h.974l.015,5.127Z" fill="#57574d"/>
        <path id="Path_3419" data-name="Path 3419" d="M106.628,845.71a.654.654,0,0,1,.711-.637.64.64,0,0,1,.71.615.714.714,0,0,1-1.421.022Zm.14,1.187h1.142v3.94h-1.142Z" fill="#57574d"/>
        <path id="Path_3420" data-name="Path 3420" d="M113.2,848.881c0,.088-.015.213-.022.309H110.2a1.051,1.051,0,0,0,1.128.791,1.336,1.336,0,0,0,.988-.381l.608.658a2.3,2.3,0,0,1-3.874-1.39,2.007,2.007,0,0,1,2.1-2.03A1.951,1.951,0,0,1,113.2,848.881Zm-2.7-2.49h-.842l.974-.834h1l.974.834h-.842l-.63-.417Zm-.315,2.132h1.941a.984.984,0,0,0-1.941,0Zm2.651-2.835H112l.813-.886h1.164Z" fill="#57574d"/>
        <path id="Path_3421" data-name="Path 3421" d="M118.356,848.581v2.256h-1.143v-2.08c0-.638-.293-.93-.8-.93-.549,0-.945.337-.945,1.062v1.948h-1.142V846.9h1.091v.461a1.729,1.729,0,0,1,1.3-.52A1.544,1.544,0,0,1,118.356,848.581Z" fill="#57574d"/>
        <path id="Path_3422" data-name="Path 3422" d="M126.224,848.581v2.256h-1.142v-2.08c0-.638-.293-.93-.8-.93-.549,0-.945.337-.945,1.062v1.948H122.2V846.9h1.091v.461a1.729,1.729,0,0,1,1.3-.52A1.544,1.544,0,0,1,126.224,848.581Z" fill="#57574d"/>
        <path id="Path_3423" data-name="Path 3423" d="M131.733,846.9v3.281a1.929,1.929,0,0,1-2.212,2.139,3.255,3.255,0,0,1-1.934-.542l.454-.821a2.358,2.358,0,0,0,1.392.447c.806,0,1.157-.366,1.157-1.076v-.168a1.623,1.623,0,0,1-1.245.49,1.906,1.906,0,1,1,0-3.809,1.581,1.581,0,0,1,1.3.565V846.9Zm-1.128,1.846a1.039,1.039,0,1,0-1.033.966A.957.957,0,0,0,130.6,848.743Z" fill="#57574d"/>
        <path id="Path_3424" data-name="Path 3424" d="M136.648,848.588v2.249h-1.069v-.491a1.292,1.292,0,0,1-1.2.55c-.923,0-1.472-.513-1.472-1.194,0-.7.49-1.179,1.692-1.179h.908c0-.491-.293-.777-.908-.777a1.891,1.891,0,0,0-1.136.367l-.41-.8a3.019,3.019,0,0,1,1.7-.477C135.953,846.838,136.648,847.4,136.648,848.588Zm-1.142,1v-.4h-.784c-.535,0-.7.2-.7.461,0,.285.242.476.645.476A.841.841,0,0,0,135.506,849.592Z" fill="#57574d"/>
        <path id="Path_3425" data-name="Path 3425" d="M142.076,848.581v2.256h-1.142v-2.08c0-.638-.293-.93-.8-.93-.549,0-.945.337-.945,1.062v1.948h-1.142V846.9h1.091v.461a1.729,1.729,0,0,1,1.3-.52A1.544,1.544,0,0,1,142.076,848.581Z" fill="#57574d"/>
        <path id="Path_3426" data-name="Path 3426" d="M148.457,850.647a1.636,1.636,0,0,1-.93.249,1.3,1.3,0,0,1-1.472-1.413v-1.619h-.608v-.879h.608v-.959H147.2v.959h.982v.879H147.2v1.6a.46.46,0,0,0,.491.521.771.771,0,0,0,.461-.147Z" fill="#57574d"/>
        <path id="Path_3427" data-name="Path 3427" d="M151.915,846.838v1.055c-.1-.008-.169-.015-.257-.015a.968.968,0,0,0-1.047,1.1v1.86h-1.143V846.9h1.092v.519A1.589,1.589,0,0,1,151.915,846.838Z" fill="#57574d"/>
        <path id="Path_3428" data-name="Path 3428" d="M156.962,848.868a2.169,2.169,0,1,1-2.161-2.03A2.023,2.023,0,0,1,156.962,848.868Zm-2.813-2.477h-.835l.967-1.055h1.011l.967,1.055h-.835l-.637-.557Zm1.656,2.477a1.01,1.01,0,1,0-1,1.09A.995.995,0,0,0,155.8,848.868Zm-.513,3.017a.506.506,0,0,1-1.011,0,.506.506,0,1,1,1.011,0Z" fill="#57574d"/>
        <path id="Path_3429" data-name="Path 3429" d="M162.119,848.581v2.256h-1.142v-2.08c0-.638-.293-.93-.8-.93-.549,0-.945.337-.945,1.062v1.948h-1.142V846.9h1.091v.461a1.729,1.729,0,0,1,1.3-.52A1.544,1.544,0,0,1,162.119,848.581Z" fill="#57574d"/>
        <path id="Path_3430" data-name="Path 3430" d="M67.839,860.317c0,.908-.667,1.7-2.132,1.7a3.538,3.538,0,0,1-1.955-.549l.469-.908a2.467,2.467,0,0,0,1.457.461c.593,0,.96-.249.96-.666s-.264-.667-1.194-.667H64.133L64.4,856.8h3.128v.952H65.385l-.08.974h.417C67.238,858.727,67.839,859.409,67.839,860.317Z" fill="#57574d"/>
        <path id="Path_3431" data-name="Path 3431" d="M68.652,861.269a.711.711,0,0,1,1.421,0,.711.711,0,1,1-1.421,0Z" fill="#57574d"/>
        <path id="Path_3432" data-name="Path 3432" d="M78.438,860.53c0,.885-.7,1.4-2.05,1.4H73.736V856.8h2.5c1.282,0,1.941.535,1.941,1.333a1.233,1.233,0,0,1-.681,1.128A1.267,1.267,0,0,1,78.438,860.53ZM74.916,857.7V858.9H76.1c.578,0,.893-.205.893-.608s-.315-.6-.893-.6Zm2.329,2.71c0-.432-.33-.637-.945-.637H74.916v1.267H76.3C76.915,861.035,77.245,860.844,77.245,860.405Z" fill="#57574d"/>
        <path id="Path_3433" data-name="Path 3433" d="M83.6,857.988v3.94H82.512v-.469a1.6,1.6,0,0,1-1.223.528,1.571,1.571,0,0,1-1.685-1.773v-2.226h1.143v2.057c0,.66.293.953.8.953.527,0,.908-.338.908-1.062v-1.948Zm-1.773-.505H80.93l.988-1.055h1.231Z" fill="#57574d"/>
        <path id="Path_3434" data-name="Path 3434" d="M89.054,859.672v2.256H87.911v-2.08c0-.637-.293-.93-.8-.93-.55,0-.945.336-.945,1.062v1.948H85.025v-3.94h1.092v.462a1.72,1.72,0,0,1,1.3-.521A1.545,1.545,0,0,1,89.054,859.672Z" fill="#57574d"/>
        <path id="Path_3435" data-name="Path 3435" d="M94.541,855.761h1.018l-2.417,6.9H92.124Z" fill="#57574d"/>
        <path id="Path_3436" data-name="Path 3436" d="M103.316,861.928l-.007-3.076-1.509,2.534h-.534l-1.5-2.468v3.01H98.651V856.8h.981l1.919,3.186,1.89-3.186h.974l.015,5.127Z" fill="#57574d"/>
        <path id="Path_3437" data-name="Path 3437" d="M105.793,856.8a.653.653,0,0,1,.71-.637.642.642,0,0,1,.711.616.714.714,0,0,1-1.421.021Zm.139,1.187h1.143v3.94h-1.143Z" fill="#57574d"/>
        <path id="Path_3438" data-name="Path 3438" d="M112.363,859.973c0,.088-.014.212-.022.307H109.36a1.051,1.051,0,0,0,1.128.791,1.333,1.333,0,0,0,.989-.381l.608.66a2.3,2.3,0,0,1-3.875-1.393,2.006,2.006,0,0,1,2.1-2.028A1.95,1.95,0,0,1,112.363,859.973Zm-2.7-2.49h-.843l.974-.836h1l.974.836h-.843l-.629-.418Zm-.315,2.131h1.941a.984.984,0,0,0-1.941,0ZM112,856.78h-.828l.813-.887h1.165Z" fill="#57574d"/>
        <path id="Path_3439" data-name="Path 3439" d="M117.52,859.672v2.256h-1.143v-2.08c0-.637-.293-.93-.8-.93-.549,0-.945.336-.945,1.062v1.948h-1.142v-3.94h1.091v.462a1.723,1.723,0,0,1,1.3-.521A1.544,1.544,0,0,1,117.52,859.672Z" fill="#57574d"/>
        <path id="Path_3440" data-name="Path 3440" d="M125.388,859.672v2.256h-1.142v-2.08c0-.637-.293-.93-.8-.93-.549,0-.945.336-.945,1.062v1.948H121.36v-3.94h1.091v.462a1.723,1.723,0,0,1,1.3-.521A1.544,1.544,0,0,1,125.388,859.672Z" fill="#57574d"/>
        <path id="Path_3441" data-name="Path 3441" d="M130.9,857.988v3.281a1.929,1.929,0,0,1-2.212,2.139,3.248,3.248,0,0,1-1.934-.542l.455-.821a2.346,2.346,0,0,0,1.391.448c.806,0,1.157-.368,1.157-1.078v-.169a1.617,1.617,0,0,1-1.245.492,1.906,1.906,0,1,1,0-3.809,1.581,1.581,0,0,1,1.3.564v-.505Zm-1.128,1.845a1.039,1.039,0,1,0-1.033.967A.956.956,0,0,0,129.769,859.833Z" fill="#57574d"/>
        <path id="Path_3442" data-name="Path 3442" d="M135.812,859.68v2.248h-1.069v-.49a1.294,1.294,0,0,1-1.2.549c-.923,0-1.472-.513-1.472-1.194,0-.7.491-1.179,1.692-1.179h.908c0-.491-.293-.777-.908-.777a1.9,1.9,0,0,0-1.136.366l-.41-.8a3.036,3.036,0,0,1,1.7-.476C135.117,857.929,135.812,858.486,135.812,859.68Zm-1.142,1v-.4h-.784c-.534,0-.7.2-.7.462,0,.286.242.475.645.475A.843.843,0,0,0,134.67,860.683Z" fill="#57574d"/>
        <path id="Path_3443" data-name="Path 3443" d="M141.24,859.672v2.256H140.1v-2.08c0-.637-.293-.93-.8-.93-.549,0-.945.336-.945,1.062v1.948h-1.142v-3.94H138.3v.462a1.723,1.723,0,0,1,1.3-.521A1.544,1.544,0,0,1,141.24,859.672Z" fill="#57574d"/>
        <path id="Path_3444" data-name="Path 3444" d="M149.628,857.584h-.535v4.344H148v-.454a1.514,1.514,0,0,1-1.231.513,2.03,2.03,0,0,1,0-4.058,1.512,1.512,0,0,1,1.18.476v-.821H146.61v-.658h1.341v-.432h1.142v.432h.535Zm-1.655,2.373a1.011,1.011,0,1,0-1,1.092A1,1,0,0,0,147.973,859.957Z" fill="#57574d"/>
        <path id="Path_3445" data-name="Path 3445" d="M154.374,859.973c0,.088-.014.212-.021.307h-2.981a1.049,1.049,0,0,0,1.127.791,1.333,1.333,0,0,0,.989-.381l.608.66a2.3,2.3,0,0,1-3.874-1.393,2.006,2.006,0,0,1,2.1-2.028A1.95,1.95,0,0,1,154.374,859.973Zm-2.7-2.49h-.842l.974-.836h1l.974.836h-.842l-.63-.418Zm-.315,2.131H153.3a.984.984,0,0,0-1.941,0Zm2.651-2.834h-.827l.813-.887h1.164Z" fill="#57574d"/>
        <path id="Path_3446" data-name="Path 3446" d="M157.658,861.521a4.328,4.328,0,0,1,.978-2.775h.669a4.57,4.57,0,0,0-1,2.809,3.837,3.837,0,0,0,.2,1.205h-.612A3.289,3.289,0,0,1,157.658,861.521Z" fill="#df071b"/>
        <path id="Path_3447" data-name="Path 3447" d="M162.676,860.179a1.713,1.713,0,0,1-1.87,1.749H159.34l.257-1.295h-.408l.1-.463h.407l.249-1.243H161.2C162.123,858.927,162.676,859.411,162.676,860.179Zm-.7.038c0-.445-.288-.72-.854-.72h-.6l-.133.673h.746l-.09.463h-.75l-.146.725h.678A1.079,1.079,0,0,0,161.973,860.217Z" fill="#df071b"/>
        <path id="Path_3448" data-name="Path 3448" d="M165.855,859.621l-.459,2.307h-.634l.043-.227a1.023,1.023,0,0,1-.707.261.971.971,0,0,1-1-1.033,1.283,1.283,0,0,1,1.273-1.342.823.823,0,0,1,.75.347l.061-.313Zm-.874,1.03a.478.478,0,0,0-.527-.511.691.691,0,0,0-.678.759.478.478,0,0,0,.527.511A.691.691,0,0,0,164.981,860.651Zm-.562,1.847a.312.312,0,0,1-.326.33.256.256,0,0,1-.274-.265.326.326,0,0,1,.326-.321A.258.258,0,0,1,164.419,862.5Zm-.33-3.726a.349.349,0,0,1,0-.064h.407a.3.3,0,0,0,.339.3.378.378,0,0,0,.4-.3h.433a.817.817,0,0,1-.87.652C164.394,859.36,164.089,859.132,164.089,858.772Z" fill="#df071b"/>
        <path id="Path_3449" data-name="Path 3449" d="M166.273,860.929a1.331,1.331,0,0,1,1.407-1.342,1.069,1.069,0,0,1,1.037.583l-.566.283a.526.526,0,0,0-.514-.313.7.7,0,0,0-.686.755.485.485,0,0,0,.536.515.639.639,0,0,0,.566-.309l.493.309a1.273,1.273,0,0,1-1.1.552A1.042,1.042,0,0,1,166.273,860.929Z" fill="#df071b"/>
        <path id="Path_3450" data-name="Path 3450" d="M173.162,860.62a1.282,1.282,0,0,1-1.277,1.342.827.827,0,0,1-.772-.377l-.069.343h-.634l.634-3.182h.669l-.214,1.073a1.013,1.013,0,0,1,.664-.232A.974.974,0,0,1,173.162,860.62Zm-.677.031a.478.478,0,0,0-.528-.511.69.69,0,0,0-.673.759.476.476,0,0,0,.524.511A.691.691,0,0,0,172.485,860.651Z" fill="#df071b"/>
        <path id="Path_3451" data-name="Path 3451" d="M174.043,859.621h.665l-.459,2.307h-.665Zm.056-.669a.407.407,0,0,1,.442-.4.355.355,0,0,1,.394.334.409.409,0,0,1-.446.412A.358.358,0,0,1,174.1,858.952Z" fill="#df071b"/>
        <path id="Path_3452" data-name="Path 3452" d="M177.551,860.954h-1.766c.021.314.214.472.6.472a.947.947,0,0,0,.617-.214l.279.442a1.524,1.524,0,0,1-.965.308,1.041,1.041,0,0,1-1.179-1.033,1.3,1.3,0,0,1,1.359-1.342.989.989,0,0,1,1.1,1.016A1.736,1.736,0,0,1,177.551,860.954Zm-1.243,1.544a.312.312,0,0,1-.326.33.257.257,0,0,1-.275-.265.327.327,0,0,1,.326-.321A.259.259,0,0,1,176.308,862.5Zm-.03-3.169h-.5l.652-.617h.587l.485.617h-.476l-.33-.321Zm-.446,1.236h1.145a.46.46,0,0,0-.515-.477A.634.634,0,0,0,175.832,860.565Z" fill="#df071b"/>
        <path id="Path_3453" data-name="Path 3453" d="M178.9,861.114a.344.344,0,0,0-.009.093c0,.142.078.224.245.224a.53.53,0,0,0,.27-.082l.1.477a1.107,1.107,0,0,1-.575.136.639.639,0,0,1-.72-.642,1.092,1.092,0,0,1,.021-.2l.184-.931h-.356l.1-.514h.356l.112-.562h.669l-.112.562h.575l-.1.514h-.575Z" fill="#df071b"/>
        <path id="Path_3454" data-name="Path 3454" d="M180.74,859.952a3.816,3.816,0,0,0-.2-1.206h.613a3.294,3.294,0,0,1,.232,1.24,4.331,4.331,0,0,1-.978,2.774h-.669A4.571,4.571,0,0,0,180.74,859.952Z" fill="#df071b"/>
      </g>
    </g>
    <g id="Group_324" data-name="Group 324" transform="translate(-63.671 -811.803)">
      <g id="Group_323" data-name="Group 323">
        <path id="Path_3455" data-name="Path 3455" d="M272.784,815.955c0,.909-.666,1.7-2.131,1.7a3.548,3.548,0,0,1-1.956-.549l.469-.908a2.467,2.467,0,0,0,1.458.461c.593,0,.959-.249.959-.666s-.264-.667-1.194-.667h-1.311l.264-2.886h3.127v.952h-2.138l-.081.974h.417C272.184,814.366,272.784,815.047,272.784,815.955Z" fill="#df071b"/>
        <path id="Path_3456" data-name="Path 3456" d="M277.472,815.955c0,.909-.666,1.7-2.131,1.7a3.548,3.548,0,0,1-1.956-.549l.469-.908a2.467,2.467,0,0,0,1.458.461c.593,0,.959-.249.959-.666s-.264-.667-1.194-.667h-1.311l.264-2.886h3.127v.952h-2.138l-.081.974h.417C276.872,814.366,277.472,815.047,277.472,815.955Z" fill="#df071b"/>
        <path id="Path_3457" data-name="Path 3457" d="M278.286,816.908a.711.711,0,0,1,1.421,0,.711.711,0,1,1-1.421,0Z" fill="#df071b"/>
        <path id="Path_3458" data-name="Path 3458" d="M280.513,815c0-1.692.937-2.651,2.2-2.651s2.2.959,2.2,2.651-.93,2.652-2.2,2.652S280.513,816.7,280.513,815Zm3.2,0c0-1.165-.41-1.647-1-1.647s-1,.482-1,1.647.41,1.648,1,1.648S283.713,816.168,283.713,815Z" fill="#df071b"/>
        <path id="Path_3459" data-name="Path 3459" d="M285.853,815c0-1.692.937-2.651,2.2-2.651s2.2.959,2.2,2.651-.93,2.652-2.2,2.652S285.853,816.7,285.853,815Zm3.2,0c0-1.165-.41-1.647-1-1.647s-1,.482-1,1.647.41,1.648,1,1.648S289.053,816.168,289.053,815Z" fill="#df071b"/>
        <path id="Path_3460" data-name="Path 3460" d="M291.193,815c0-1.692.937-2.651,2.2-2.651s2.2.959,2.2,2.651-.93,2.652-2.2,2.652S291.193,816.7,291.193,815Zm3.2,0c0-1.165-.411-1.647-1-1.647s-1,.482-1,1.647.41,1.648,1,1.648S294.394,816.168,294.394,815Z" fill="#df071b"/>
        <path id="Path_3461" data-name="Path 3461" d="M301.323,813.223h-.535v4.344H299.7v-.454a1.517,1.517,0,0,1-1.231.512,2.029,2.029,0,0,1,0-4.057,1.512,1.512,0,0,1,1.179.475v-.82H298.3v-.658h1.34v-.433h1.143v.433h.535Zm-1.656,2.373a1.01,1.01,0,1,0-1,1.092A1,1,0,0,0,299.667,815.6Z" fill="#df071b"/>
        <path id="Path_3462" data-name="Path 3462" d="M272.228,827.045c0,.908-.667,1.7-2.132,1.7a3.546,3.546,0,0,1-1.955-.548l.468-.909a2.469,2.469,0,0,0,1.458.461c.593,0,.959-.249.959-.666s-.263-.667-1.194-.667h-1.311l.264-2.885h3.128v.952h-2.139l-.081.973h.418C271.627,825.455,272.228,826.137,272.228,827.045Z" fill="#df071b"/>
        <path id="Path_3463" data-name="Path 3463" d="M273.078,826.093c0-1.692.937-2.651,2.2-2.651s2.2.959,2.2,2.651-.93,2.651-2.2,2.651S273.078,827.785,273.078,826.093Zm3.2,0c0-1.165-.41-1.647-1-1.647s-1,.482-1,1.647.41,1.648,1,1.648S276.278,827.258,276.278,826.093Z" fill="#df071b"/>
        <path id="Path_3464" data-name="Path 3464" d="M278.286,828a.711.711,0,0,1,1.421,0,.711.711,0,1,1-1.421,0Z" fill="#df071b"/>
        <path id="Path_3465" data-name="Path 3465" d="M280.513,826.093c0-1.692.937-2.651,2.2-2.651s2.2.959,2.2,2.651-.93,2.651-2.2,2.651S280.513,827.785,280.513,826.093Zm3.2,0c0-1.165-.41-1.647-1-1.647s-1,.482-1,1.647.41,1.648,1,1.648S283.713,827.258,283.713,826.093Z" fill="#df071b"/>
        <path id="Path_3466" data-name="Path 3466" d="M285.853,826.093c0-1.692.937-2.651,2.2-2.651s2.2.959,2.2,2.651-.93,2.651-2.2,2.651S285.853,827.785,285.853,826.093Zm3.2,0c0-1.165-.41-1.647-1-1.647s-1,.482-1,1.647.41,1.648,1,1.648S289.053,827.258,289.053,826.093Z" fill="#df071b"/>
        <path id="Path_3467" data-name="Path 3467" d="M291.193,826.093c0-1.692.937-2.651,2.2-2.651s2.2.959,2.2,2.651-.93,2.651-2.2,2.651S291.193,827.785,291.193,826.093Zm3.2,0c0-1.165-.411-1.647-1-1.647s-1,.482-1,1.647.41,1.648,1,1.648S294.394,827.258,294.394,826.093Z" fill="#df071b"/>
        <path id="Path_3468" data-name="Path 3468" d="M301.323,824.313h-.535v4.344H299.7V828.2a1.514,1.514,0,0,1-1.231.513,2.029,2.029,0,0,1,0-4.057,1.512,1.512,0,0,1,1.179.475v-.82H298.3v-.658h1.34v-.433h1.143v.433h.535Zm-1.656,2.373a1.01,1.01,0,1,0-1,1.092A1,1,0,0,0,299.667,826.686Z" fill="#df071b"/>
        <path id="Path_3469" data-name="Path 3469" d="M272.228,838.136c0,.908-.667,1.7-2.132,1.7a3.538,3.538,0,0,1-1.955-.55l.468-.908a2.47,2.47,0,0,0,1.458.462c.593,0,.959-.249.959-.667,0-.4-.263-.666-1.194-.666h-1.311l.264-2.886h3.128v.953h-2.139l-.081.974h.418C271.627,836.547,272.228,837.228,272.228,838.136Z" fill="#df071b"/>
        <path id="Path_3470" data-name="Path 3470" d="M273.078,837.184c0-1.691.937-2.651,2.2-2.651s2.2.96,2.2,2.651-.93,2.651-2.2,2.651S273.078,838.875,273.078,837.184Zm3.2,0c0-1.164-.41-1.649-1-1.649s-1,.485-1,1.649.41,1.648,1,1.648S276.278,838.348,276.278,837.184Z" fill="#df071b"/>
        <path id="Path_3471" data-name="Path 3471" d="M278.286,839.088a.711.711,0,0,1,1.421,0,.711.711,0,1,1-1.421,0Z" fill="#df071b"/>
        <path id="Path_3472" data-name="Path 3472" d="M280.513,837.184c0-1.691.937-2.651,2.2-2.651s2.2.96,2.2,2.651-.93,2.651-2.2,2.651S280.513,838.875,280.513,837.184Zm3.2,0c0-1.164-.41-1.649-1-1.649s-1,.485-1,1.649.41,1.648,1,1.648S283.713,838.348,283.713,837.184Z" fill="#df071b"/>
        <path id="Path_3473" data-name="Path 3473" d="M285.853,837.184c0-1.691.937-2.651,2.2-2.651s2.2.96,2.2,2.651-.93,2.651-2.2,2.651S285.853,838.875,285.853,837.184Zm3.2,0c0-1.164-.41-1.649-1-1.649s-1,.485-1,1.649.41,1.648,1,1.648S289.053,838.348,289.053,837.184Z" fill="#df071b"/>
        <path id="Path_3474" data-name="Path 3474" d="M291.193,837.184c0-1.691.937-2.651,2.2-2.651s2.2.96,2.2,2.651-.93,2.651-2.2,2.651S291.193,838.875,291.193,837.184Zm3.2,0c0-1.164-.411-1.649-1-1.649s-1,.485-1,1.649.41,1.648,1,1.648S294.394,838.348,294.394,837.184Z" fill="#df071b"/>
        <path id="Path_3475" data-name="Path 3475" d="M301.323,835.405h-.535v4.342H299.7v-.454a1.517,1.517,0,0,1-1.231.513,2.03,2.03,0,0,1,0-4.058,1.513,1.513,0,0,1,1.179.477v-.82H298.3v-.661h1.34v-.431h1.143v.431h.535Zm-1.656,2.373a1.01,1.01,0,1,0-1,1.091A1,1,0,0,0,299.667,837.778Z" fill="#df071b"/>
        <path id="Path_3476" data-name="Path 3476" d="M272.784,849.226c0,.908-.666,1.7-2.131,1.7a3.54,3.54,0,0,1-1.956-.55l.469-.908a2.468,2.468,0,0,0,1.458.462c.593,0,.959-.249.959-.667,0-.4-.264-.666-1.194-.666h-1.311l.264-2.886h3.127v.952h-2.138l-.081.975h.417C272.184,847.637,272.784,848.318,272.784,849.226Z" fill="#df071b"/>
        <path id="Path_3477" data-name="Path 3477" d="M277.472,849.226c0,.908-.666,1.7-2.131,1.7a3.54,3.54,0,0,1-1.956-.55l.469-.908a2.468,2.468,0,0,0,1.458.462c.593,0,.959-.249.959-.667,0-.4-.264-.666-1.194-.666h-1.311l.264-2.886h3.127v.952h-2.138l-.081.975h.417C276.872,847.637,277.472,848.318,277.472,849.226Z" fill="#df071b"/>
        <path id="Path_3478" data-name="Path 3478" d="M278.286,850.178a.711.711,0,0,1,1.421,0,.711.711,0,1,1-1.421,0Z" fill="#df071b"/>
        <path id="Path_3479" data-name="Path 3479" d="M280.513,848.274c0-1.692.937-2.652,2.2-2.652s2.2.96,2.2,2.652-.93,2.651-2.2,2.651S280.513,849.965,280.513,848.274Zm3.2,0c0-1.164-.41-1.649-1-1.649s-1,.485-1,1.649.41,1.648,1,1.648S283.713,849.438,283.713,848.274Z" fill="#df071b"/>
        <path id="Path_3480" data-name="Path 3480" d="M285.853,848.274c0-1.692.937-2.652,2.2-2.652s2.2.96,2.2,2.652-.93,2.651-2.2,2.651S285.853,849.965,285.853,848.274Zm3.2,0c0-1.164-.41-1.649-1-1.649s-1,.485-1,1.649.41,1.648,1,1.648S289.053,849.438,289.053,848.274Z" fill="#df071b"/>
        <path id="Path_3481" data-name="Path 3481" d="M291.193,848.274c0-1.692.937-2.652,2.2-2.652s2.2.96,2.2,2.652-.93,2.651-2.2,2.651S291.193,849.965,291.193,848.274Zm3.2,0c0-1.164-.411-1.649-1-1.649s-1,.485-1,1.649.41,1.648,1,1.648S294.394,849.438,294.394,848.274Z" fill="#df071b"/>
        <path id="Path_3482" data-name="Path 3482" d="M301.323,846.494h-.535v4.343H299.7v-.454a1.517,1.517,0,0,1-1.231.513,2.03,2.03,0,0,1,0-4.058,1.513,1.513,0,0,1,1.179.477v-.821H298.3v-.66h1.34V845.4h1.143v.431h.535Zm-1.656,2.374a1.01,1.01,0,1,0-1,1.09A1,1,0,0,0,299.667,848.868Z" fill="#df071b"/>
        <path id="Path_3483" data-name="Path 3483" d="M272.828,856.8v.77l-1.9,4.357h-1.289l1.838-4.16h-1.7v.835h-1.055v-1.8Z" fill="#df071b"/>
        <path id="Path_3484" data-name="Path 3484" d="M277.472,860.317c0,.908-.666,1.7-2.131,1.7a3.539,3.539,0,0,1-1.956-.549l.469-.908a2.467,2.467,0,0,0,1.458.461c.593,0,.959-.249.959-.666s-.264-.667-1.194-.667h-1.311l.264-2.886h3.127v.952h-2.138l-.081.974h.417C276.872,858.727,277.472,859.409,277.472,860.317Z" fill="#df071b"/>
        <path id="Path_3485" data-name="Path 3485" d="M278.286,861.269a.711.711,0,0,1,1.421,0,.711.711,0,1,1-1.421,0Z" fill="#df071b"/>
        <path id="Path_3486" data-name="Path 3486" d="M280.513,859.365c0-1.693.937-2.652,2.2-2.652s2.2.959,2.2,2.652-.93,2.651-2.2,2.651S280.513,861.057,280.513,859.365Zm3.2,0c0-1.165-.41-1.648-1-1.648s-1,.483-1,1.648.41,1.647,1,1.647S283.713,860.53,283.713,859.365Z" fill="#df071b"/>
        <path id="Path_3487" data-name="Path 3487" d="M285.853,859.365c0-1.693.937-2.652,2.2-2.652s2.2.959,2.2,2.652-.93,2.651-2.2,2.651S285.853,861.057,285.853,859.365Zm3.2,0c0-1.165-.41-1.648-1-1.648s-1,.483-1,1.648.41,1.647,1,1.647S289.053,860.53,289.053,859.365Z" fill="#df071b"/>
        <path id="Path_3488" data-name="Path 3488" d="M291.193,859.365c0-1.693.937-2.652,2.2-2.652s2.2.959,2.2,2.652-.93,2.651-2.2,2.651S291.193,861.057,291.193,859.365Zm3.2,0c0-1.165-.411-1.648-1-1.648s-1,.483-1,1.648.41,1.647,1,1.647S294.394,860.53,294.394,859.365Z" fill="#df071b"/>
        <path id="Path_3489" data-name="Path 3489" d="M301.323,857.584h-.535v4.344H299.7v-.454a1.514,1.514,0,0,1-1.231.513,2.03,2.03,0,0,1,0-4.058,1.509,1.509,0,0,1,1.179.476v-.821H298.3v-.658h1.34v-.432h1.143v.432h.535Zm-1.656,2.373a1.01,1.01,0,1,0-1,1.092A1,1,0,0,0,299.667,859.957Z" fill="#df071b"/>
      </g>
    </g>
  </g>
</svg>
