<svg xmlns="http://www.w3.org/2000/svg" width="498.521" height="247.496" viewBox="0 0 498.521 247.496">
  <g id="Group_93" data-name="Group 93" transform="translate(-1235.827 -1236.641)">
    <g id="Group_90" data-name="Group 90">
      <g id="Group_89" data-name="Group 89">
        <path id="Path_694" data-name="Path 694" d="M1240.591,1237.517v10.756H1238.1v-8.759h-2.152v-2Z"
          fill="#68695f" />
        <path id="Path_695" data-name="Path 695"
          d="M1243.157,1246.89a1.491,1.491,0,0,1,2.981,0,1.491,1.491,0,1,1-2.981,0Z" fill="#68695f" />
        <path id="Path_696" data-name="Path 696"
          d="M1263.686,1237.517v10.756h-2.043l-5.364-6.531v6.531h-2.458v-10.756h2.059l5.348,6.53v-6.53Z"
          fill="#68695f" />
        <path id="Path_697" data-name="Path 697"
          d="M1275.364,1240.006v6.884c0,3.073-1.659,4.487-4.639,4.487a6.81,6.81,0,0,1-4.057-1.138l.952-1.721a4.94,4.94,0,0,0,2.92.938c1.691,0,2.428-.768,2.428-2.259v-.354a3.4,3.4,0,0,1-2.612,1.03,4,4,0,1,1,0-7.99,3.318,3.318,0,0,1,2.735,1.183v-1.06Zm-2.366,3.872a2.179,2.179,0,1,0-2.166,2.028A2.007,2.007,0,0,0,1273,1243.878Z"
          fill="#68695f" />
        <path id="Path_698" data-name="Path 698"
          d="M1286.828,1244.139a4.55,4.55,0,1,1-4.533-4.256A4.243,4.243,0,0,1,1286.828,1244.139Zm-5.9-5.194h-1.752l2.028-2.212h2.12l2.029,2.212H1283.6l-1.337-1.167Zm3.472,5.194a2.119,2.119,0,1,0-2.1,2.29A2.086,2.086,0,0,0,1284.4,1244.139Z"
          fill="#68695f" />
        <path id="Path_699" data-name="Path 699"
          d="M1304.269,1248.273l-.016-6.454-3.165,5.316h-1.122l-3.149-5.178v6.316h-2.336v-10.756h2.058l4.027,6.684,3.963-6.684h2.044l.031,10.756Z"
          fill="#68695f" />
        <path id="Path_700" data-name="Path 700"
          d="M1317.96,1240.006l-3.733,8.773c-.8,2-1.937,2.6-3.427,2.6a3.67,3.67,0,0,1-2.305-.753l.876-1.706a2.121,2.121,0,0,0,1.352.523c.661,0,1.029-.292,1.352-1.03l.031-.077-3.58-8.328H1311l2.321,5.608,2.335-5.608Zm-6.622-1.122h-1.214c.03-1.367.722-2.243,1.8-2.243s1.6.983,2.151.983c.416,0,.707-.323.738-.829h1.215c-.032,1.321-.723,2.2-1.8,2.2s-1.6-.968-2.152-.968C1311.66,1238.024,1311.368,1238.331,1311.338,1238.884Z"
          fill="#68695f" />
        <path id="Path_701" data-name="Path 701"
          d="M1244.479,1269.508v2.028h-8.129v-1.613L1240.5,1266c.952-.906,1.121-1.459,1.121-1.981,0-.846-.584-1.337-1.72-1.337a2.632,2.632,0,0,0-2.229,1.075l-1.812-1.168a5,5,0,0,1,4.271-2c2.4,0,3.995,1.229,3.995,3.181,0,1.044-.292,2-1.8,3.4l-2.473,2.336Z"
          fill="#68695f" />
        <path id="Path_702" data-name="Path 702" d="M1246.354,1270.154a1.49,1.49,0,0,1,2.98,0,1.49,1.49,0,1,1-2.98,0Z"
          fill="#68695f" />
        <path id="Path_703" data-name="Path 703"
          d="M1260.936,1267.311l-1.445,1.506v2.719h-2.473V1260.78h2.473v5.025l4.764-5.025h2.766l-4.456,4.794,4.717,5.962h-2.9Z"
          fill="#68695f" />
        <path id="Path_704" data-name="Path 704"
          d="M1277.439,1266.8v4.732h-2.4v-4.364c0-1.337-.614-1.951-1.675-1.951-1.152,0-1.982.707-1.982,2.227v4.088h-2.4v-11.4h2.4v3.995a3.634,3.634,0,0,1,2.628-.983C1275.963,1263.147,1277.439,1264.283,1277.439,1266.8Z"
          fill="#68695f" />
        <path id="Path_705" data-name="Path 705"
          d="M1279.851,1267.4a4.551,4.551,0,1,1,4.549,4.256A4.256,4.256,0,0,1,1279.851,1267.4Zm6.653,0a2.119,2.119,0,1,0-2.1,2.29A2.086,2.086,0,0,0,1286.5,1267.4Z"
          fill="#68695f" />
        <path id="Path_706" data-name="Path 706"
          d="M1298.475,1266.819v4.717h-2.243v-1.029a2.713,2.713,0,0,1-2.52,1.152c-1.936,0-3.089-1.076-3.089-2.505,0-1.459,1.03-2.473,3.55-2.473h1.905c0-1.03-.614-1.629-1.905-1.629a3.979,3.979,0,0,0-2.382.768l-.86-1.674a6.346,6.346,0,0,1,3.564-1C1297.016,1263.147,1298.475,1264.315,1298.475,1266.819Zm-2.4,2.1v-.845h-1.644c-1.121,0-1.475.414-1.475.968,0,.6.507,1,1.352,1A1.765,1.765,0,0,0,1296.078,1268.924Z"
          fill="#68695f" />
        <path id="Path_707" data-name="Path 707"
          d="M1301.119,1260.78a1.371,1.371,0,0,1,1.491-1.336,1.345,1.345,0,0,1,1.49,1.29,1.5,1.5,0,0,1-2.981.046Zm.292,2.49h2.4v8.266h-2.4Z"
          fill="#68695f" />
        <path id="Path_708" data-name="Path 708"
          d="M1317.253,1271.137a3.43,3.43,0,0,1-1.952.522c-1.951,0-3.088-1-3.088-2.965v-3.4h-1.275v-1.844h1.275v-2.013h2.4v2.013h2.059v1.844h-2.059v3.364a.965.965,0,0,0,1.03,1.092,1.62,1.62,0,0,0,.968-.308Z"
          fill="#68695f" />
        <path id="Path_709" data-name="Path 709"
          d="M1326.688,1266.819v4.717h-2.243v-1.029a2.713,2.713,0,0,1-2.52,1.152c-1.937,0-3.089-1.076-3.089-2.505,0-1.459,1.029-2.473,3.55-2.473h1.905c0-1.03-.614-1.629-1.905-1.629a3.979,3.979,0,0,0-2.382.768l-.86-1.674a6.346,6.346,0,0,1,3.564-1C1325.229,1263.147,1326.688,1264.315,1326.688,1266.819Zm-5.071-4.61h-1.752l2.029-2.212h2.121l2.028,2.212h-1.752l-1.337-1.167Zm2.674,6.715v-.845h-1.644c-1.121,0-1.475.414-1.475.968,0,.6.507,1,1.352,1A1.766,1.766,0,0,0,1324.291,1268.924Z"
          fill="#68695f" />
        <path id="Path_710" data-name="Path 710"
          d="M1337.675,1263.27l-3.733,8.773c-.8,2-1.937,2.6-3.427,2.6a3.669,3.669,0,0,1-2.305-.753l.876-1.7a2.125,2.125,0,0,0,1.352.522c.661,0,1.029-.292,1.352-1.03l.031-.076-3.581-8.328h2.474l2.32,5.608,2.336-5.608Z"
          fill="#68695f" />
        <path id="Path_711" data-name="Path 711"
          d="M1343.929,1267.4a4.274,4.274,0,0,1,4.61-4.256,3.8,3.8,0,0,1,3.7,2.1l-1.859,1a2.062,2.062,0,0,0-1.859-1.137,2.294,2.294,0,0,0,0,4.58,2.034,2.034,0,0,0,1.859-1.138l1.859,1.015a3.834,3.834,0,0,1-3.7,2.089A4.274,4.274,0,0,1,1343.929,1267.4Z"
          fill="#68695f" />
        <path id="Path_712" data-name="Path 712"
          d="M1362.783,1266.8v4.732h-2.4v-4.364c0-1.337-.614-1.951-1.675-1.951-1.152,0-1.982.707-1.982,2.227v4.088h-2.4v-11.4h2.4v3.995a3.634,3.634,0,0,1,2.628-.983C1361.308,1263.147,1362.783,1264.283,1362.783,1266.8Z"
          fill="#68695f" />
        <path id="Path_713" data-name="Path 713"
          d="M1365.426,1260.78a1.37,1.37,0,0,1,1.49-1.336,1.345,1.345,0,0,1,1.49,1.29,1.5,1.5,0,0,1-2.98.046Zm.292,2.49h2.4v8.266h-2.4Z"
          fill="#68695f" />
        <path id="Path_714" data-name="Path 714"
          d="M1379.163,1268.079h-6.254a2.2,2.2,0,0,0,2.367,1.659,2.8,2.8,0,0,0,2.074-.8l1.275,1.382a4.329,4.329,0,0,1-3.411,1.337c-2.858,0-4.717-1.8-4.717-4.256a4.208,4.208,0,0,1,4.409-4.256,4.093,4.093,0,0,1,4.3,4.287C1379.209,1267.617,1379.178,1267.879,1379.163,1268.079Zm-5.639-5.87h-1.752L1373.8,1260h2.121l2.028,2.212H1376.2l-1.336-1.167Zm-.646,4.472h4.072a2.065,2.065,0,0,0-4.072,0Z"
          fill="#68695f" />
        <path id="Path_715" data-name="Path 715"
          d="M1390.028,1266.8v4.732h-2.4v-4.364c0-1.337-.614-1.951-1.675-1.951-1.152,0-1.982.707-1.982,2.227v4.088h-2.4v-8.266h2.289v.967a3.624,3.624,0,0,1,2.736-1.09C1388.552,1263.147,1390.028,1264.283,1390.028,1266.8Z"
          fill="#68695f" />
        <path id="Path_716" data-name="Path 716"
          d="M1244.386,1291.512c0,1.813-1.4,3.473-4.456,3.473a7.394,7.394,0,0,1-4.1-1.153l.969-1.905a5.225,5.225,0,0,0,3.072.968c1.245,0,2.014-.507,2.014-1.383,0-.815-.6-1.321-2.014-1.321h-1.136v-1.645l2.213-2.5h-4.58v-2h7.53v1.613l-2.428,2.766A3.056,3.056,0,0,1,1244.386,1291.512Z"
          fill="#68695f" />
        <path id="Path_717" data-name="Path 717" d="M1246.231,1293.417a1.49,1.49,0,0,1,2.98,0,1.49,1.49,0,1,1-2.98,0Z"
          fill="#68695f" />
        <path id="Path_718" data-name="Path 718"
          d="M1260.813,1290.574l-1.445,1.506v2.72H1256.9v-10.756h2.473v5.025l4.764-5.025h2.766l-4.456,4.794,4.717,5.962h-2.9Z"
          fill="#68695f" />
        <path id="Path_719" data-name="Path 719"
          d="M1277.317,1290.068v4.732h-2.4v-4.363c0-1.337-.614-1.952-1.675-1.952-1.152,0-1.982.707-1.982,2.228v4.087h-2.4v-11.4h2.4v3.995a3.631,3.631,0,0,1,2.628-.984C1275.841,1286.41,1277.317,1287.548,1277.317,1290.068Z"
          fill="#68695f" />
        <path id="Path_720" data-name="Path 720"
          d="M1279.73,1290.667a4.55,4.55,0,1,1,4.548,4.256A4.256,4.256,0,0,1,1279.73,1290.667Zm6.652,0a2.119,2.119,0,1,0-2.1,2.289A2.086,2.086,0,0,0,1286.382,1290.667Z"
          fill="#68695f" />
        <path id="Path_721" data-name="Path 721"
          d="M1298.352,1290.083v4.717h-2.243v-1.029a2.713,2.713,0,0,1-2.52,1.152c-1.936,0-3.089-1.075-3.089-2.505,0-1.459,1.029-2.473,3.55-2.473h1.9c0-1.03-.614-1.629-1.9-1.629a3.979,3.979,0,0,0-2.382.768l-.86-1.675a6.354,6.354,0,0,1,3.564-1C1296.893,1286.41,1298.352,1287.578,1298.352,1290.083Zm-2.4,2.1v-.845h-1.644c-1.121,0-1.475.415-1.475.968,0,.6.507,1,1.352,1A1.765,1.765,0,0,0,1295.955,1292.188Z"
          fill="#68695f" />
        <path id="Path_722" data-name="Path 722"
          d="M1301,1284.044a1.371,1.371,0,0,1,1.491-1.337,1.346,1.346,0,0,1,1.49,1.291,1.5,1.5,0,0,1-2.981.046Zm.292,2.489h2.4v8.267h-2.4Z"
          fill="#68695f" />
        <path id="Path_723" data-name="Path 723" d="M1311.8,1283.4h2.4v11.4h-2.4Z" fill="#68695f" />
        <path id="Path_724" data-name="Path 724"
          d="M1324.505,1290.083v4.717h-2.243v-1.029a2.712,2.712,0,0,1-2.52,1.152c-1.936,0-3.088-1.075-3.088-2.505,0-1.459,1.029-2.473,3.549-2.473h1.906c0-1.03-.616-1.629-1.906-1.629a3.979,3.979,0,0,0-2.382.768l-.86-1.675a6.355,6.355,0,0,1,3.565-1C1323.046,1286.41,1324.505,1287.578,1324.505,1290.083Zm-2.4,2.1v-.845h-1.645c-1.121,0-1.475.415-1.475.968,0,.6.507,1,1.352,1A1.767,1.767,0,0,0,1322.109,1292.188Z"
          fill="#68695f" />
        <path id="Path_725" data-name="Path 725"
          d="M1335.893,1290.068v4.732h-2.4v-4.363c0-1.337-.614-1.952-1.674-1.952-1.153,0-1.983.707-1.983,2.228v4.087h-2.4v-8.267h2.289v.968a3.621,3.621,0,0,1,2.735-1.091C1334.417,1286.41,1335.893,1287.548,1335.893,1290.068Z"
          fill="#68695f" />
        <path id="Path_726" data-name="Path 726"
          d="M1347.447,1286.533v6.884c0,3.073-1.659,4.487-4.639,4.487a6.809,6.809,0,0,1-4.057-1.137l.952-1.721a4.948,4.948,0,0,0,2.92.938c1.691,0,2.428-.769,2.428-2.259v-.354a3.4,3.4,0,0,1-2.612,1.03,4,4,0,1,1,0-7.991,3.319,3.319,0,0,1,2.735,1.184v-1.061Zm-2.366,3.872a2.179,2.179,0,1,0-2.166,2.029A2.007,2.007,0,0,0,1345.081,1290.405Z"
          fill="#68695f" />
        <path id="Path_727" data-name="Path 727"
          d="M1354.946,1290.667a4.275,4.275,0,0,1,4.611-4.257,3.8,3.8,0,0,1,3.7,2.106l-1.859,1a2.063,2.063,0,0,0-1.86-1.138,2.293,2.293,0,0,0,0,4.579,2.036,2.036,0,0,0,1.86-1.136l1.859,1.013a3.837,3.837,0,0,1-3.7,2.09A4.274,4.274,0,0,1,1354.946,1290.667Z"
          fill="#68695f" />
        <path id="Path_728" data-name="Path 728"
          d="M1373.8,1290.068v4.732h-2.4v-4.363c0-1.337-.615-1.952-1.675-1.952-1.153,0-1.983.707-1.983,2.228v4.087h-2.4v-11.4h2.4v3.995a3.634,3.634,0,0,1,2.628-.984C1372.325,1286.41,1373.8,1287.548,1373.8,1290.068Z"
          fill="#68695f" />
        <path id="Path_729" data-name="Path 729"
          d="M1376.444,1284.044a1.37,1.37,0,0,1,1.49-1.337,1.346,1.346,0,0,1,1.49,1.291,1.5,1.5,0,0,1-2.98.046Zm.292,2.489h2.4v8.267h-2.4Z"
          fill="#68695f" />
        <path id="Path_730" data-name="Path 730"
          d="M1390.181,1291.343h-6.254a2.2,2.2,0,0,0,2.366,1.659,2.8,2.8,0,0,0,2.074-.8l1.276,1.383a4.33,4.33,0,0,1-3.411,1.337c-2.859,0-4.717-1.8-4.717-4.256a4.208,4.208,0,0,1,4.409-4.257,4.093,4.093,0,0,1,4.3,4.287C1390.227,1290.882,1390.2,1291.143,1390.181,1291.343Zm-5.64-5.87h-1.752l2.029-2.212h2.121l2.028,2.212h-1.752l-1.337-1.167Zm-.645,4.472h4.072a2.065,2.065,0,0,0-4.072,0Z"
          fill="#68695f" />
        <path id="Path_731" data-name="Path 731"
          d="M1401.045,1290.068v4.732h-2.4v-4.363c0-1.337-.615-1.952-1.675-1.952-1.152,0-1.983.707-1.983,2.228v4.087h-2.4v-8.267h2.289v.968a3.623,3.623,0,0,1,2.735-1.091C1399.57,1286.41,1401.045,1287.548,1401.045,1290.068Z"
          fill="#68695f" />
        <path id="Path_732" data-name="Path 732"
          d="M1246.291,1315.805h-1.751v2.259h-2.427v-2.259h-5.793v-1.675l5.07-6.822H1244l-4.7,6.469h2.889v-2.013h2.351v2.013h1.751Z"
          fill="#68695f" />
        <path id="Path_733" data-name="Path 733" d="M1248.029,1316.681a1.49,1.49,0,0,1,2.98,0,1.49,1.49,0,1,1-2.98,0Z"
          fill="#68695f" />
        <path id="Path_734" data-name="Path 734"
          d="M1268.481,1318.064l-.016-6.453-3.165,5.316h-1.122l-3.149-5.179v6.316h-2.336v-10.756h2.058l4.027,6.684,3.963-6.684h2.044l.031,10.756Z"
          fill="#68695f" />
        <path id="Path_735" data-name="Path 735"
          d="M1281.279,1313.347v4.717h-2.243v-1.03a2.711,2.711,0,0,1-2.519,1.153c-1.937,0-3.089-1.075-3.089-2.505,0-1.459,1.029-2.474,3.55-2.474h1.905c0-1.029-.614-1.629-1.905-1.629a3.973,3.973,0,0,0-2.382.769l-.86-1.675a6.355,6.355,0,0,1,3.564-1C1279.821,1309.674,1281.279,1310.842,1281.279,1313.347Zm-6.56-6.822h1.506a1.345,1.345,0,0,0,2.642,0h1.506a2.879,2.879,0,0,1-5.654,0Zm4.164,8.926v-.844h-1.645c-1.121,0-1.474.415-1.474.967,0,.6.507,1,1.351,1A1.766,1.766,0,0,0,1278.883,1315.451Z"
          fill="#68695f" />
        <path id="Path_736" data-name="Path 736"
          d="M1292.667,1313.331v4.733h-2.4V1313.7c0-1.337-.615-1.952-1.675-1.952-1.152,0-1.982.707-1.982,2.229v4.087h-2.4V1309.8h2.289v.968a3.622,3.622,0,0,1,2.735-1.091C1291.192,1309.674,1292.667,1310.812,1292.667,1313.331Z"
          fill="#68695f" />
        <path id="Path_737" data-name="Path 737"
          d="M1304.222,1309.8v6.884c0,3.073-1.659,4.487-4.64,4.487a6.807,6.807,0,0,1-4.056-1.138l.952-1.72a4.945,4.945,0,0,0,2.92.937c1.69,0,2.427-.768,2.427-2.259v-.353a3.4,3.4,0,0,1-2.612,1.029,4,4,0,1,1,0-7.99,3.318,3.318,0,0,1,2.735,1.184V1309.8Zm-2.366,3.872a2.179,2.179,0,1,0-2.166,2.028A2.007,2.007,0,0,0,1301.856,1313.669Z"
          fill="#68695f" />
        <path id="Path_738" data-name="Path 738"
          d="M1317.668,1317.664a3.423,3.423,0,0,1-1.952.523c-1.951,0-3.088-1-3.088-2.966v-3.4h-1.275v-1.843h1.275v-2.013h2.4v2.013h2.059v1.843h-2.059v3.366a.963.963,0,0,0,1.03,1.09,1.618,1.618,0,0,0,.968-.307Z"
          fill="#68695f" />
        <path id="Path_739" data-name="Path 739"
          d="M1324.92,1309.674v2.213c-.2-.016-.353-.03-.538-.03a2.03,2.03,0,0,0-2.2,2.3v3.9h-2.4V1309.8h2.289v1.091A3.338,3.338,0,0,1,1324.92,1309.674Z"
          fill="#68695f" />
        <path id="Path_740" data-name="Path 740"
          d="M1335.508,1309.8v8.267h-2.274v-.984a3.342,3.342,0,0,1-2.566,1.107c-2.075,0-3.534-1.168-3.534-3.719V1309.8h2.4v4.318c0,1.383.616,2,1.675,2,1.107,0,1.906-.707,1.906-2.228V1309.8Zm-3.719-1.06h-1.874l2.074-2.212h2.582Z"
          fill="#68695f" />
        <path id="Path_741" data-name="Path 741"
          d="M1337.89,1313.931a4.275,4.275,0,0,1,4.61-4.257,3.8,3.8,0,0,1,3.7,2.105l-1.859,1a2.059,2.059,0,0,0-1.859-1.138,2.293,2.293,0,0,0,0,4.579,2.033,2.033,0,0,0,1.859-1.137l1.859,1.014a3.835,3.835,0,0,1-3.7,2.09A4.274,4.274,0,0,1,1337.89,1313.931Z"
          fill="#68695f" />
        <path id="Path_742" data-name="Path 742"
          d="M1358.726,1318.064l-1.814-2.535-1.874,2.535h-2.612l3.181-4.164-3.074-4.1h2.69l1.751,2.412,1.8-2.412h2.55l-3.073,4.041,3.2,4.226Z"
          fill="#68695f" />
        <path id="Path_743" data-name="Path 743"
          d="M1370.542,1313.347v4.717H1368.3v-1.03a2.712,2.712,0,0,1-2.52,1.153c-1.936,0-3.088-1.075-3.088-2.505,0-1.459,1.029-2.474,3.549-2.474h1.906c0-1.029-.616-1.629-1.906-1.629a3.968,3.968,0,0,0-2.381.769l-.861-1.675a6.355,6.355,0,0,1,3.565-1C1369.083,1309.674,1370.542,1310.842,1370.542,1313.347Zm-4.21-4.61-2.781-2.212h2.582l2.074,2.212Zm1.814,6.714v-.844H1366.5c-1.121,0-1.474.415-1.474.967,0,.6.506,1,1.351,1A1.767,1.767,0,0,0,1368.146,1315.451Z"
          fill="#68695f" />
        <path id="Path_744" data-name="Path 744"
          d="M1372.956,1313.931a4.55,4.55,0,1,1,4.548,4.256A4.256,4.256,0,0,1,1372.956,1313.931Zm6.653,0a2.119,2.119,0,1,0-2.1,2.289A2.086,2.086,0,0,0,1379.609,1313.931Z"
          fill="#68695f" />
        <path id="Path_745" data-name="Path 745"
          d="M1397.972,1313.331v4.733h-2.4V1313.7c0-1.337-.614-1.952-1.674-1.952-1.153,0-1.983.707-1.983,2.229v4.087h-2.4V1309.8h2.289v.968a3.621,3.621,0,0,1,2.735-1.091C1396.5,1309.674,1397.972,1310.812,1397.972,1313.331Z"
          fill="#68695f" />
        <path id="Path_746" data-name="Path 746"
          d="M1408.22,1313.347v4.717h-2.243v-1.03a2.714,2.714,0,0,1-2.52,1.153c-1.936,0-3.089-1.075-3.089-2.505,0-1.459,1.03-2.474,3.55-2.474h1.905c0-1.029-.615-1.629-1.905-1.629a3.973,3.973,0,0,0-2.382.769l-.86-1.675a6.354,6.354,0,0,1,3.564-1C1406.761,1309.674,1408.22,1310.842,1408.22,1313.347Zm-5.055-4.61H1401.4l2.044-1.751h2.089l2.044,1.751h-1.767l-1.321-.875Zm2.658,6.714v-.844h-1.644c-1.121,0-1.475.415-1.475.967,0,.6.507,1,1.352,1A1.765,1.765,0,0,0,1405.823,1315.451Zm2.244-8.189h-1.737l1.706-1.859h2.443Z"
          fill="#68695f" />
        <path id="Path_747" data-name="Path 747"
          d="M1425.123,1313.331v4.733h-2.4V1313.7c0-1.337-.6-1.952-1.568-1.952-1.075,0-1.828.692-1.828,2.167v4.149h-2.4V1313.7c0-1.337-.569-1.952-1.568-1.952-1.06,0-1.813.692-1.813,2.167v4.149h-2.4V1309.8h2.29v.953a3.348,3.348,0,0,1,2.6-1.076,3.085,3.085,0,0,1,2.72,1.353,3.718,3.718,0,0,1,2.981-1.353C1423.71,1309.674,1425.123,1310.812,1425.123,1313.331Z"
          fill="#68695f" />
        <path id="Path_748" data-name="Path 748"
          d="M1432.567,1317.208a9.088,9.088,0,0,1,2.052-5.824h1.405a9.6,9.6,0,0,0-2.1,5.9,8.015,8.015,0,0,0,.414,2.531h-1.288A6.939,6.939,0,0,1,1432.567,1317.208Z"
          fill="#ea2024" />
        <path id="Path_749" data-name="Path 749"
          d="M1443.1,1314.391a3.6,3.6,0,0,1-3.925,3.673h-3.079l.54-2.719h-.855l.2-.972h.855l.523-2.611h2.637C1441.938,1311.762,1443.1,1312.779,1443.1,1314.391Zm-1.477.081c0-.937-.6-1.513-1.791-1.513h-1.251l-.279,1.414h1.566l-.189.972H1438.1l-.306,1.521h1.422A2.264,2.264,0,0,0,1441.622,1314.472Z"
          fill="#ea2024" />
        <path id="Path_750" data-name="Path 750"
          d="M1449.768,1313.221l-.963,4.843h-1.333l.09-.477a2.157,2.157,0,0,1-1.486.549,2.04,2.04,0,0,1-2.088-2.17,2.692,2.692,0,0,1,2.674-2.817,1.731,1.731,0,0,1,1.576.729l.125-.657Zm-1.837,2.16a1,1,0,0,0-1.108-1.071,1.45,1.45,0,0,0-1.421,1.594,1,1,0,0,0,1.107,1.071A1.451,1.451,0,0,0,1447.931,1315.381Zm-1.179,3.88a.654.654,0,0,1-.684.693.539.539,0,0,1-.577-.557.689.689,0,0,1,.685-.676A.545.545,0,0,1,1446.752,1319.261Zm-.693-7.823a.679.679,0,0,1,.009-.135h.855a.627.627,0,0,0,.711.639.8.8,0,0,0,.838-.639h.909a1.715,1.715,0,0,1-1.828,1.368C1446.7,1312.671,1446.059,1312.195,1446.059,1311.438Z"
          fill="#ea2024" />
        <path id="Path_751" data-name="Path 751"
          d="M1450.639,1315.966a2.8,2.8,0,0,1,2.953-2.817,2.247,2.247,0,0,1,2.179,1.224l-1.189.594a1.105,1.105,0,0,0-1.08-.657,1.461,1.461,0,0,0-1.44,1.585,1.016,1.016,0,0,0,1.125,1.08,1.336,1.336,0,0,0,1.188-.649l1.035.649a2.668,2.668,0,0,1-2.3,1.161A2.189,2.189,0,0,1,1450.639,1315.966Z"
          fill="#ea2024" />
        <path id="Path_752" data-name="Path 752"
          d="M1465.095,1315.319a2.7,2.7,0,0,1-2.684,2.817,1.735,1.735,0,0,1-1.62-.792l-.143.72h-1.333l1.333-6.68h1.4l-.45,2.251a2.128,2.128,0,0,1,1.395-.486A2.047,2.047,0,0,1,1465.095,1315.319Zm-1.423.062a1,1,0,0,0-1.107-1.071,1.449,1.449,0,0,0-1.413,1.594,1,1,0,0,0,1.1,1.071A1.451,1.451,0,0,0,1463.672,1315.381Z"
          fill="#ea2024" />
        <path id="Path_753" data-name="Path 753"
          d="M1466.939,1313.221h1.394l-.963,4.843h-1.4Zm.116-1.4a.855.855,0,0,1,.928-.837.745.745,0,0,1,.828.7.857.857,0,0,1-.937.864A.751.751,0,0,1,1467.055,1311.816Z"
          fill="#ea2024" />
        <path id="Path_754" data-name="Path 754"
          d="M1474.3,1316.021h-3.709c.045.657.45.99,1.251.99a1.991,1.991,0,0,0,1.3-.45l.585.926a3.205,3.205,0,0,1-2.026.649,2.187,2.187,0,0,1-2.475-2.17,2.732,2.732,0,0,1,2.853-2.817,2.077,2.077,0,0,1,2.3,2.133A3.807,3.807,0,0,1,1474.3,1316.021Zm-2.61,3.24a.654.654,0,0,1-.685.693.538.538,0,0,1-.576-.557.688.688,0,0,1,.684-.676A.546.546,0,0,1,1471.691,1319.261Zm-.064-6.652h-1.054l1.37-1.3h1.233l1.017,1.3h-1l-.694-.676Zm-.936,2.592h2.4a.965.965,0,0,0-1.081-1A1.329,1.329,0,0,0,1470.691,1315.2Z"
          fill="#ea2024" />
        <path id="Path_755" data-name="Path 755"
          d="M1477.135,1316.354a.721.721,0,0,0-.019.2c0,.3.163.469.514.469a1.125,1.125,0,0,0,.566-.171l.208,1a2.306,2.306,0,0,1-1.207.288,1.343,1.343,0,0,1-1.512-1.351,2.343,2.343,0,0,1,.045-.423l.387-1.954h-.747l.216-1.08h.747l.235-1.178h1.4l-.234,1.178h1.207l-.217,1.08h-1.206Z"
          fill="#ea2024" />
        <path id="Path_756" data-name="Path 756"
          d="M1480.987,1313.913a7.977,7.977,0,0,0-.415-2.529h1.288a6.91,6.91,0,0,1,.486,2.6,9.086,9.086,0,0,1-2.053,5.825h-1.4A9.6,9.6,0,0,0,1480.987,1313.913Z"
          fill="#ea2024" />
        <path id="Path_757" data-name="Path 757"
          d="M1244.571,1337.947c0,1.906-1.4,3.565-4.472,3.565a7.439,7.439,0,0,1-4.1-1.152l.984-1.906a5.172,5.172,0,0,0,3.057.968c1.245,0,2.014-.522,2.014-1.4,0-.845-.554-1.4-2.505-1.4h-2.75l.553-6.055h6.561v2h-4.487l-.169,2.042h.876C1243.311,1334.612,1244.571,1336.042,1244.571,1337.947Z"
          fill="#68695f" />
        <path id="Path_758" data-name="Path 758" d="M1246.277,1339.945a1.49,1.49,0,0,1,2.98,0,1.49,1.49,0,1,1-2.98,0Z"
          fill="#68695f" />
        <path id="Path_759" data-name="Path 759"
          d="M1266.805,1330.571v10.756h-2.043l-5.363-6.53v6.53h-2.458v-10.756H1259l5.348,6.531v-6.531Z"
          fill="#68695f" />
        <path id="Path_760" data-name="Path 760"
          d="M1278.423,1337.195a4.55,4.55,0,1,1-4.533-4.257A4.242,4.242,0,0,1,1278.423,1337.195Zm-5.9-5.195h-1.752l2.028-2.212h2.12l2.028,2.212H1275.2l-1.337-1.167Zm3.471,5.195a2.119,2.119,0,1,0-2.1,2.289A2.086,2.086,0,0,0,1275.994,1337.195Zm-1.075,6.33a1.06,1.06,0,0,1-2.12,0,1.06,1.06,0,1,1,2.12,0Z"
          fill="#68695f" />
        <path id="Path_761" data-name="Path 761"
          d="M1294.756,1336.595v4.732h-2.4v-4.363c0-1.337-.6-1.952-1.568-1.952-1.075,0-1.828.691-1.828,2.167v4.148h-2.4v-4.363c0-1.337-.569-1.952-1.568-1.952-1.06,0-1.813.691-1.813,2.167v4.148h-2.4v-8.266h2.289v.953a3.35,3.35,0,0,1,2.6-1.076,3.088,3.088,0,0,1,2.72,1.352,3.717,3.717,0,0,1,2.981-1.352C1293.343,1332.938,1294.756,1334.075,1294.756,1336.595Z"
          fill="#68695f" />
        <path id="Path_762" data-name="Path 762"
          d="M1302.179,1337.195a4.274,4.274,0,0,1,4.61-4.257,3.8,3.8,0,0,1,3.7,2.1l-1.859,1a2.061,2.061,0,0,0-1.859-1.138,2.294,2.294,0,0,0,0,4.58,2.033,2.033,0,0,0,1.859-1.137l1.859,1.014a3.834,3.834,0,0,1-3.7,2.089A4.274,4.274,0,0,1,1302.179,1337.195Z"
          fill="#68695f" />
        <path id="Path_763" data-name="Path 763"
          d="M1321.033,1336.595v4.732h-2.4v-4.363c0-1.337-.614-1.952-1.675-1.952-1.152,0-1.982.707-1.982,2.228v4.087h-2.4v-11.4h2.4v3.995a3.634,3.634,0,0,1,2.628-.983C1319.558,1332.938,1321.033,1334.075,1321.033,1336.595Z"
          fill="#68695f" />
        <path id="Path_764" data-name="Path 764"
          d="M1331.281,1336.611v4.716h-2.243V1340.3a2.71,2.71,0,0,1-2.519,1.152c-1.937,0-3.089-1.075-3.089-2.505,0-1.458,1.029-2.473,3.55-2.473h1.905c0-1.029-.614-1.629-1.905-1.629a3.971,3.971,0,0,0-2.382.769l-.86-1.675a6.346,6.346,0,0,1,3.564-1C1329.822,1332.938,1331.281,1334.106,1331.281,1336.611Zm-5.07-4.611h-1.752l2.029-2.212h2.121l2.028,2.212h-1.752l-1.337-1.167Zm2.674,6.715v-.845h-1.645c-1.121,0-1.474.415-1.474.968,0,.6.507,1,1.351,1A1.766,1.766,0,0,0,1328.885,1338.715Z"
          fill="#68695f" />
        <path id="Path_765" data-name="Path 765"
          d="M1342.669,1336.595v4.732h-2.4v-4.363c0-1.337-.615-1.952-1.675-1.952-1.152,0-1.983.707-1.983,2.228v4.087h-2.4v-8.266h2.289v.968a3.619,3.619,0,0,1,2.735-1.091C1341.194,1332.938,1342.669,1334.075,1342.669,1336.595Z"
          fill="#68695f" />
        <path id="Path_766" data-name="Path 766"
          d="M1359.172,1336.595v4.732h-2.4v-4.363c0-1.337-.615-1.952-1.675-1.952-1.153,0-1.983.707-1.983,2.228v4.087h-2.4v-8.266h2.289v.968a3.617,3.617,0,0,1,2.735-1.091C1357.7,1332.938,1359.172,1334.075,1359.172,1336.595Z"
          fill="#68695f" />
        <path id="Path_767" data-name="Path 767"
          d="M1370.727,1333.061v6.884c0,3.073-1.659,4.487-4.64,4.487a6.812,6.812,0,0,1-4.057-1.138l.953-1.721a4.938,4.938,0,0,0,2.92.938c1.69,0,2.427-.769,2.427-2.259v-.353a3.405,3.405,0,0,1-2.612,1.029,4,4,0,1,1,0-7.99,3.319,3.319,0,0,1,2.735,1.183v-1.06Zm-2.366,3.872a2.179,2.179,0,1,0-2.166,2.028A2.008,2.008,0,0,0,1368.361,1336.933Z"
          fill="#68695f" />
        <path id="Path_768" data-name="Path 768"
          d="M1381.037,1336.611v4.716h-2.243V1340.3a2.711,2.711,0,0,1-2.519,1.152c-1.937,0-3.089-1.075-3.089-2.505,0-1.458,1.029-2.473,3.55-2.473h1.905c0-1.029-.614-1.629-1.905-1.629a3.971,3.971,0,0,0-2.382.769l-.861-1.675a6.352,6.352,0,0,1,3.565-1C1379.578,1332.938,1381.037,1334.106,1381.037,1336.611Zm-2.4,2.1v-.845H1377c-1.121,0-1.474.415-1.474.968,0,.6.507,1,1.351,1A1.767,1.767,0,0,0,1378.641,1338.715Z"
          fill="#68695f" />
        <path id="Path_769" data-name="Path 769"
          d="M1392.425,1336.595v4.732h-2.4v-4.363c0-1.337-.615-1.952-1.675-1.952-1.153,0-1.983.707-1.983,2.228v4.087h-2.4v-8.266h2.289v.968a3.617,3.617,0,0,1,2.735-1.091C1390.949,1332.938,1392.425,1334.075,1392.425,1336.595Z"
          fill="#68695f" />
        <path id="Path_770" data-name="Path 770"
          d="M1405.609,1332.938v2.213c-.2-.016-.354-.031-.538-.031a2.031,2.031,0,0,0-2.2,2.305v3.9h-2.4v-8.266h2.289v1.091A3.336,3.336,0,0,1,1405.609,1332.938Z"
          fill="#68695f" />
        <path id="Path_771" data-name="Path 771"
          d="M1416.2,1333.061v8.266h-2.274v-.983a3.341,3.341,0,0,1-2.565,1.106c-2.076,0-3.535-1.168-3.535-3.718v-4.671h2.4v4.318c0,1.383.615,2,1.675,2,1.106,0,1.9-.707,1.9-2.228v-4.087Zm-3.718-1.061H1410.6l2.074-2.212h2.581Z"
          fill="#68695f" />
        <path id="Path_772" data-name="Path 772"
          d="M1424.525,1340.928a3.433,3.433,0,0,1-1.953.522c-1.951,0-3.087-1-3.087-2.965v-3.4h-1.276v-1.844h1.276v-2.012h2.4v2.012h2.06v1.844h-2.06v3.365a.965.965,0,0,0,1.03,1.091,1.611,1.611,0,0,0,.968-.308Z"
          fill="#68695f" />
        <path id="Path_773" data-name="Path 773"
          d="M1437.018,1341.327l-1.814-2.535-1.874,2.535h-2.612l3.181-4.164-3.074-4.1h2.69l1.751,2.412,1.8-2.412h2.55l-3.073,4.041,3.2,4.225Z"
          fill="#68695f" />
        <path id="Path_774" data-name="Path 774"
          d="M1449.848,1334.444v6.883h-2.275v-.983a3.338,3.338,0,0,1-2.565,1.106c-2.075,0-3.534-1.168-3.534-3.718v-4.671h2.4v4.318c0,1.383.616,2,1.675,2,1.107,0,1.9-.707,1.9-2.228v-4.087h1.276a.9.9,0,0,0,.922-.968,1.479,1.479,0,0,0-.307-.922l1.413-.522a2.475,2.475,0,0,1,.492,1.536A2.252,2.252,0,0,1,1449.848,1334.444Z"
          fill="#68695f" />
        <path id="Path_775" data-name="Path 775"
          d="M1461.22,1337.195a4.55,4.55,0,1,1-4.518-4.257c.8,0,1.26.138,1.828.138a.915.915,0,0,0,.984-1,1.568,1.568,0,0,0-.322-.922l1.4-.522a2.565,2.565,0,0,1,.523,1.537,2.143,2.143,0,0,1-1.167,1.982A4.084,4.084,0,0,1,1461.22,1337.195Zm-2.429,0a2.119,2.119,0,1,0-2.1,2.289A2.086,2.086,0,0,0,1458.791,1337.195Z"
          fill="#68695f" />
        <path id="Path_776" data-name="Path 776"
          d="M1472.037,1336.595v4.732h-2.4v-4.363c0-1.337-.614-1.952-1.675-1.952-1.152,0-1.982.707-1.982,2.228v4.087h-2.4v-8.266h2.289v.968a3.62,3.62,0,0,1,2.736-1.091C1470.562,1332.938,1472.037,1334.075,1472.037,1336.595Z"
          fill="#68695f" />
        <path id="Path_777" data-name="Path 777"
          d="M1483.592,1333.061v6.884c0,3.073-1.659,4.487-4.64,4.487a6.806,6.806,0,0,1-4.056-1.138l.952-1.721a4.939,4.939,0,0,0,2.92.938c1.69,0,2.428-.769,2.428-2.259v-.353a3.408,3.408,0,0,1-2.613,1.029,4,4,0,1,1,0-7.99,3.319,3.319,0,0,1,2.736,1.183v-1.06Zm-2.366,3.872a2.179,2.179,0,1,0-2.166,2.028A2.007,2.007,0,0,0,1481.226,1336.933Z"
          fill="#68695f" />
        <path id="Path_778" data-name="Path 778"
          d="M1491.113,1340.472a9.088,9.088,0,0,1,2.052-5.824h1.4a9.6,9.6,0,0,0-2.1,5.9,8.005,8.005,0,0,0,.415,2.53H1491.6A6.907,6.907,0,0,1,1491.113,1340.472Z"
          fill="#ea2024" />
        <path id="Path_779" data-name="Path 779"
          d="M1501.645,1337.654a3.6,3.6,0,0,1-3.925,3.673h-3.079l.54-2.718h-.855l.2-.972h.855l.523-2.611h2.637C1500.484,1335.026,1501.645,1336.043,1501.645,1337.654Zm-1.476.082c0-.937-.6-1.513-1.792-1.513h-1.251l-.279,1.414h1.566l-.189.972h-1.575l-.306,1.521h1.422A2.265,2.265,0,0,0,1500.169,1337.736Z"
          fill="#ea2024" />
        <path id="Path_780" data-name="Path 780"
          d="M1508.314,1336.485l-.963,4.842h-1.333l.09-.476a2.162,2.162,0,0,1-1.486.549,2.039,2.039,0,0,1-2.088-2.17,2.693,2.693,0,0,1,2.674-2.818,1.729,1.729,0,0,1,1.575.73l.126-.657Zm-1.837,2.16a1,1,0,0,0-1.108-1.072,1.451,1.451,0,0,0-1.422,1.594,1,1,0,0,0,1.108,1.071A1.45,1.45,0,0,0,1506.477,1338.645Zm-1.179,3.88a.654.654,0,0,1-.685.693.539.539,0,0,1-.576-.558.688.688,0,0,1,.685-.675A.545.545,0,0,1,1505.3,1342.525Zm-.693-7.824a.749.749,0,0,1,.008-.134h.856a.626.626,0,0,0,.711.638.793.793,0,0,0,.837-.638h.91a1.716,1.716,0,0,1-1.828,1.368C1505.243,1335.935,1504.6,1335.458,1504.6,1334.7Z"
          fill="#ea2024" />
        <path id="Path_781" data-name="Path 781"
          d="M1509.185,1339.23a2.8,2.8,0,0,1,2.953-2.818,2.249,2.249,0,0,1,2.179,1.225l-1.189.594a1.1,1.1,0,0,0-1.08-.658,1.462,1.462,0,0,0-1.44,1.585,1.015,1.015,0,0,0,1.125,1.08,1.337,1.337,0,0,0,1.188-.648l1.035.648a2.668,2.668,0,0,1-2.3,1.162A2.19,2.19,0,0,1,1509.185,1339.23Z"
          fill="#ea2024" />
        <path id="Path_782" data-name="Path 782"
          d="M1523.641,1338.582a2.7,2.7,0,0,1-2.684,2.818,1.735,1.735,0,0,1-1.62-.792l-.143.719h-1.333l1.333-6.679h1.4l-.45,2.251a2.13,2.13,0,0,1,1.4-.487A2.047,2.047,0,0,1,1523.641,1338.582Zm-1.423.063a1,1,0,0,0-1.107-1.072,1.45,1.45,0,0,0-1.414,1.594,1,1,0,0,0,1.1,1.071A1.45,1.45,0,0,0,1522.218,1338.645Z"
          fill="#ea2024" />
        <path id="Path_783" data-name="Path 783"
          d="M1525.485,1336.485h1.394l-.963,4.842h-1.4Zm.116-1.406a.855.855,0,0,1,.928-.837.746.746,0,0,1,.828.7.857.857,0,0,1-.937.864A.751.751,0,0,1,1525.6,1335.079Z"
          fill="#ea2024" />
        <path id="Path_784" data-name="Path 784"
          d="M1532.847,1339.284h-3.709c.045.658.45.991,1.251.991a1.991,1.991,0,0,0,1.3-.451l.585.927a3.21,3.21,0,0,1-2.026.649,2.187,2.187,0,0,1-2.475-2.17,2.733,2.733,0,0,1,2.853-2.818,2.077,2.077,0,0,1,2.3,2.134A3.789,3.789,0,0,1,1532.847,1339.284Zm-2.611,3.241a.654.654,0,0,1-.684.693.539.539,0,0,1-.576-.558.687.687,0,0,1,.683-.675A.545.545,0,0,1,1530.236,1342.525Zm-.063-6.653h-1.054l1.369-1.3h1.234l1.016,1.3h-1l-.693-.676Zm-.936,2.593h2.4a.965.965,0,0,0-1.081-1A1.329,1.329,0,0,0,1529.237,1338.465Z"
          fill="#ea2024" />
        <path id="Path_785" data-name="Path 785"
          d="M1535.681,1339.617a.731.731,0,0,0-.019.2c0,.3.162.468.514.468a1.119,1.119,0,0,0,.566-.171l.207,1a2.309,2.309,0,0,1-1.206.288,1.343,1.343,0,0,1-1.512-1.351,2.335,2.335,0,0,1,.045-.423l.387-1.954h-.747l.216-1.08h.747l.234-1.179h1.4l-.235,1.179h1.206l-.215,1.08h-1.206Z"
          fill="#ea2024" />
        <path id="Path_786" data-name="Path 786"
          d="M1539.532,1337.177a7.976,7.976,0,0,0-.414-2.529h1.287a6.886,6.886,0,0,1,.487,2.6,9.086,9.086,0,0,1-2.053,5.825h-1.4A9.6,9.6,0,0,0,1539.532,1337.177Z"
          fill="#ea2024" />
        <path id="Path_787" data-name="Path 787"
          d="M1245.323,1361.195c0,2.2-1.8,3.582-4.072,3.582-2.965,0-4.808-1.86-4.808-5.332,0-3.719,2.243-5.793,5.485-5.793a5.8,5.8,0,0,1,3,.737l-.922,1.829a3.538,3.538,0,0,0-2.013-.538c-1.8,0-2.95,1.059-3.027,3.119a3.631,3.631,0,0,1,2.658-.953A3.412,3.412,0,0,1,1245.323,1361.195Zm-2.412.124a1.622,1.622,0,0,0-1.829-1.614,1.682,1.682,0,0,0-1.858,1.614c0,.921.691,1.6,1.889,1.6A1.608,1.608,0,0,0,1242.911,1361.319Z"
          fill="#68695f" />
        <path id="Path_788" data-name="Path 788"
          d="M1247.075,1363.209a1.491,1.491,0,0,1,2.981,0,1.491,1.491,0,1,1-2.981,0Z" fill="#68695f" />
        <path id="Path_789" data-name="Path 789"
          d="M1257.064,1359.214a5.922,5.922,0,0,1,10.263-3.657l-1.6,1.474a3.463,3.463,0,0,0-2.7-1.259,3.442,3.442,0,1,0,0,6.883,3.426,3.426,0,0,0,2.7-1.275l1.6,1.476a5.911,5.911,0,0,1-10.263-3.642Z"
          fill="#68695f" />
        <path id="Path_790" data-name="Path 790"
          d="M1278.054,1359.86v4.732h-2.4v-4.364c0-1.337-.614-1.951-1.674-1.951-1.153,0-1.983.707-1.983,2.227v4.088h-2.4v-11.4h2.4v3.995a3.634,3.634,0,0,1,2.628-.984C1276.578,1356.2,1278.054,1357.339,1278.054,1359.86Z"
          fill="#68695f" />
        <path id="Path_791" data-name="Path 791"
          d="M1288.3,1359.874v4.718h-2.243v-1.029a2.713,2.713,0,0,1-2.52,1.152c-1.936,0-3.089-1.076-3.089-2.505,0-1.46,1.03-2.473,3.55-2.473h1.905c0-1.031-.615-1.629-1.905-1.629a3.979,3.979,0,0,0-2.382.768l-.86-1.675a6.354,6.354,0,0,1,3.564-1C1286.843,1356.2,1288.3,1357.37,1288.3,1359.874Zm-5.07-4.609h-1.752l2.028-2.213h2.121l2.028,2.213h-1.752l-1.336-1.168Zm2.673,6.715v-.845h-1.644c-1.121,0-1.475.414-1.475.968,0,.6.507,1,1.352,1A1.765,1.765,0,0,0,1285.905,1361.98Z"
          fill="#68695f" />
        <path id="Path_792" data-name="Path 792"
          d="M1299.69,1359.86v4.732h-2.4v-4.364c0-1.337-.614-1.951-1.675-1.951-1.152,0-1.982.707-1.982,2.227v4.088h-2.4v-8.267h2.29v.968a3.618,3.618,0,0,1,2.735-1.091C1298.214,1356.2,1299.69,1357.339,1299.69,1359.86Z"
          fill="#68695f" />
        <path id="Path_793" data-name="Path 793"
          d="M1316.193,1359.86v4.732h-2.4v-4.364c0-1.337-.614-1.951-1.675-1.951-1.152,0-1.982.707-1.982,2.227v4.088h-2.4v-8.267h2.289v.968a3.621,3.621,0,0,1,2.736-1.091C1314.717,1356.2,1316.193,1357.339,1316.193,1359.86Z"
          fill="#68695f" />
        <path id="Path_794" data-name="Path 794"
          d="M1327.747,1356.325v6.884c0,3.073-1.659,4.486-4.639,4.486a6.809,6.809,0,0,1-4.057-1.136l.952-1.722a4.94,4.94,0,0,0,2.92.938c1.69,0,2.428-.768,2.428-2.259v-.354a3.4,3.4,0,0,1-2.613,1.031,4,4,0,1,1,0-7.991,3.319,3.319,0,0,1,2.736,1.183v-1.06Zm-2.366,3.872a2.179,2.179,0,1,0-2.166,2.029A2.007,2.007,0,0,0,1325.381,1360.2Z"
          fill="#68695f" />
        <path id="Path_795" data-name="Path 795"
          d="M1338.058,1359.874v4.718h-2.243v-1.029a2.713,2.713,0,0,1-2.52,1.152c-1.936,0-3.089-1.076-3.089-2.505,0-1.46,1.03-2.473,3.55-2.473h1.905c0-1.031-.615-1.629-1.905-1.629a3.979,3.979,0,0,0-2.382.768l-.86-1.675a6.354,6.354,0,0,1,3.564-1C1336.6,1356.2,1338.058,1357.37,1338.058,1359.874Zm-2.4,2.106v-.845h-1.644c-1.121,0-1.475.414-1.475.968,0,.6.507,1,1.352,1A1.765,1.765,0,0,0,1335.661,1361.98Z"
          fill="#68695f" />
        <path id="Path_796" data-name="Path 796"
          d="M1349.446,1359.86v4.732h-2.4v-4.364c0-1.337-.614-1.951-1.675-1.951-1.152,0-1.982.707-1.982,2.227v4.088h-2.4v-8.267h2.289v.968a3.622,3.622,0,0,1,2.736-1.091C1347.97,1356.2,1349.446,1357.339,1349.446,1359.86Z"
          fill="#68695f" />
        <path id="Path_797" data-name="Path 797"
          d="M1362.629,1356.2v2.213c-.2-.015-.353-.031-.538-.031a2.031,2.031,0,0,0-2.2,2.3v3.9h-2.4v-8.267h2.289v1.091A3.337,3.337,0,0,1,1362.629,1356.2Z"
          fill="#68695f" />
        <path id="Path_798" data-name="Path 798"
          d="M1373.216,1356.325v8.267h-2.274v-.983a3.349,3.349,0,0,1-2.566,1.106c-2.075,0-3.534-1.168-3.534-3.719v-4.671h2.4v4.318c0,1.383.616,2,1.675,2,1.107,0,1.906-.706,1.906-2.228v-4.087Zm-3.719-1.06h-1.874l2.074-2.213h2.582Z"
          fill="#68695f" />
        <path id="Path_799" data-name="Path 799"
          d="M1381.545,1364.193a3.43,3.43,0,0,1-1.952.522c-1.951,0-3.088-1-3.088-2.966v-3.4h-1.275v-1.845h1.275V1354.5h2.4v2.013h2.059v1.845H1378.9v3.364a.965.965,0,0,0,1.03,1.092,1.625,1.625,0,0,0,.968-.308Z"
          fill="#68695f" />
        <path id="Path_800" data-name="Path 800"
          d="M1394.037,1364.592l-1.813-2.535-1.874,2.535h-2.612l3.18-4.164-3.073-4.1h2.689l1.751,2.412,1.8-2.412h2.551l-3.073,4.041,3.2,4.226Z"
          fill="#68695f" />
        <path id="Path_801" data-name="Path 801"
          d="M1406.868,1357.708v6.884h-2.274v-.983a3.348,3.348,0,0,1-2.565,1.106c-2.076,0-3.535-1.168-3.535-3.719v-4.671h2.4v4.318c0,1.383.615,2,1.675,2,1.106,0,1.9-.706,1.9-2.228v-4.087h1.275a.9.9,0,0,0,.922-.968,1.483,1.483,0,0,0-.306-.922l1.413-.523a2.486,2.486,0,0,1,.492,1.537A2.251,2.251,0,0,1,1406.868,1357.708Z"
          fill="#68695f" />
        <path id="Path_802" data-name="Path 802"
          d="M1418.24,1360.458a4.55,4.55,0,1,1-4.517-4.256c.8,0,1.26.138,1.828.138a.915.915,0,0,0,.983-1,1.554,1.554,0,0,0-.322-.922l1.4-.522a2.566,2.566,0,0,1,.522,1.536,2.144,2.144,0,0,1-1.167,1.982A4.083,4.083,0,0,1,1418.24,1360.458Zm-2.428,0a2.119,2.119,0,1,0-2.1,2.29A2.086,2.086,0,0,0,1415.812,1360.458Z"
          fill="#68695f" />
        <path id="Path_803" data-name="Path 803"
          d="M1429.058,1359.86v4.732h-2.4v-4.364c0-1.337-.614-1.951-1.674-1.951-1.153,0-1.983.707-1.983,2.227v4.088h-2.4v-8.267h2.289v.968a3.618,3.618,0,0,1,2.735-1.091C1427.582,1356.2,1429.058,1357.339,1429.058,1359.86Z"
          fill="#68695f" />
        <path id="Path_804" data-name="Path 804"
          d="M1440.613,1356.325v6.884c0,3.073-1.66,4.486-4.64,4.486a6.809,6.809,0,0,1-4.057-1.136l.952-1.722a4.94,4.94,0,0,0,2.92.938c1.691,0,2.428-.768,2.428-2.259v-.354a3.4,3.4,0,0,1-2.612,1.031,4,4,0,1,1,0-7.991,3.319,3.319,0,0,1,2.735,1.183v-1.06Zm-2.367,3.872a2.179,2.179,0,1,0-2.166,2.029A2.007,2.007,0,0,0,1438.246,1360.2Z"
          fill="#68695f" />
        <path id="Path_805" data-name="Path 805"
          d="M1448.113,1360.458a4.273,4.273,0,0,1,4.609-4.256,3.8,3.8,0,0,1,3.7,2.1l-1.859,1a2.064,2.064,0,0,0-1.86-1.137,2.293,2.293,0,0,0,0,4.579,2.037,2.037,0,0,0,1.86-1.137l1.859,1.014a3.837,3.837,0,0,1-3.7,2.09A4.274,4.274,0,0,1,1448.113,1360.458Z"
          fill="#68695f" />
        <path id="Path_806" data-name="Path 806"
          d="M1466.966,1359.86v4.732h-2.4v-4.364c0-1.337-.615-1.951-1.675-1.951-1.153,0-1.983.707-1.983,2.227v4.088h-2.4v-11.4h2.4v3.995a3.634,3.634,0,0,1,2.628-.984C1465.49,1356.2,1466.966,1357.339,1466.966,1359.86Z"
          fill="#68695f" />
        <path id="Path_807" data-name="Path 807"
          d="M1477.215,1359.874v4.718h-2.243v-1.029a2.712,2.712,0,0,1-2.52,1.152c-1.936,0-3.089-1.076-3.089-2.505,0-1.46,1.03-2.473,3.55-2.473h1.906c0-1.031-.615-1.629-1.906-1.629a3.979,3.979,0,0,0-2.382.768l-.86-1.675a6.355,6.355,0,0,1,3.565-1C1475.756,1356.2,1477.215,1357.37,1477.215,1359.874Zm-2.4,2.106v-.845h-1.645c-1.121,0-1.475.414-1.475.968,0,.6.507,1,1.352,1A1.767,1.767,0,0,0,1474.819,1361.98Zm-.861-6.715h-1.875l2.074-2.213h2.582Z"
          fill="#68695f" />
        <path id="Path_808" data-name="Path 808"
          d="M1488.2,1356.325l-3.733,8.774c-.8,2-1.937,2.6-3.427,2.6a3.667,3.667,0,0,1-2.3-.752l.875-1.706a2.123,2.123,0,0,0,1.352.523c.661,0,1.029-.292,1.353-1.03l.03-.076-3.58-8.329h2.473l2.321,5.609,2.336-5.609Z"
          fill="#68695f" />
        <path id="Path_809" data-name="Path 809"
          d="M1500.4,1364.193a3.434,3.434,0,0,1-1.953.522c-1.951,0-3.088-1-3.088-2.966v-3.4h-1.275v-1.845h1.275V1354.5h2.4v2.013h2.06v1.845h-2.06v3.364a.965.965,0,0,0,1.03,1.092,1.623,1.623,0,0,0,.968-.308Z"
          fill="#68695f" />
        <path id="Path_810" data-name="Path 810"
          d="M1501.648,1360.458a4.55,4.55,0,1,1,4.548,4.257A4.256,4.256,0,0,1,1501.648,1360.458Zm6.653,0a2.119,2.119,0,1,0-2.1,2.29A2.086,2.086,0,0,0,1508.3,1360.458Zm-2.428-5.839c.6-.276.784-.584.784-.937a.653.653,0,0,0-.722-.646,1.627,1.627,0,0,0-.906.292l-.492-.967a2.668,2.668,0,0,1,1.659-.523,1.665,1.665,0,0,1,1.844,1.645,2.062,2.062,0,0,1-1.414,1.935Z"
          fill="#68695f" />
        <path id="Path_811" data-name="Path 811"
          d="M1512.8,1353.836a1.371,1.371,0,0,1,1.49-1.337,1.345,1.345,0,0,1,1.49,1.29,1.5,1.5,0,0,1-2.98.047Zm.292,2.489h2.4v8.267h-2.4Z"
          fill="#68695f" />
        <path id="Path_812" data-name="Path 812"
          d="M1523.013,1363.737a9.092,9.092,0,0,1,2.053-5.826h1.4a9.609,9.609,0,0,0-2.1,5.9,8.009,8.009,0,0,0,.415,2.529H1523.5A6.91,6.91,0,0,1,1523.013,1363.737Z"
          fill="#ea2024" />
        <path id="Path_813" data-name="Path 813"
          d="M1533.545,1360.918a3.6,3.6,0,0,1-3.925,3.674h-3.079l.54-2.719h-.854l.2-.972h.855l.523-2.611h2.638C1532.384,1358.29,1533.545,1359.307,1533.545,1360.918Zm-1.475.081c0-.935-.6-1.512-1.792-1.512h-1.251l-.28,1.414h1.567l-.19.972h-1.575l-.306,1.522h1.422A2.267,2.267,0,0,0,1532.07,1361Z"
          fill="#ea2024" />
        <path id="Path_814" data-name="Path 814"
          d="M1540.214,1359.748l-.963,4.844h-1.333l.09-.478a2.153,2.153,0,0,1-1.485.549,2.039,2.039,0,0,1-2.088-2.169,2.692,2.692,0,0,1,2.674-2.818,1.734,1.734,0,0,1,1.575.729l.126-.657Zm-1.837,2.161a1,1,0,0,0-1.107-1.071,1.45,1.45,0,0,0-1.422,1.593,1,1,0,0,0,1.107,1.071A1.45,1.45,0,0,0,1538.377,1361.909Zm-1.179,3.88a.655.655,0,0,1-.684.694.54.54,0,0,1-.576-.559.688.688,0,0,1,.684-.675A.545.545,0,0,1,1537.2,1365.789Zm-.693-7.823a.694.694,0,0,1,.009-.136h.855a.627.627,0,0,0,.711.64.793.793,0,0,0,.837-.64h.91A1.716,1.716,0,0,1,1538,1359.2C1537.144,1359.2,1536.505,1358.722,1536.505,1357.966Z"
          fill="#ea2024" />
        <path id="Path_815" data-name="Path 815"
          d="M1541.084,1362.494a2.8,2.8,0,0,1,2.953-2.818,2.246,2.246,0,0,1,2.179,1.225l-1.188.593a1.106,1.106,0,0,0-1.081-.656,1.461,1.461,0,0,0-1.44,1.584,1.015,1.015,0,0,0,1.125,1.08,1.341,1.341,0,0,0,1.189-.647l1.035.647a2.666,2.666,0,0,1-2.3,1.161A2.189,2.189,0,0,1,1541.084,1362.494Z"
          fill="#ea2024" />
        <path id="Path_816" data-name="Path 816"
          d="M1555.54,1361.846a2.693,2.693,0,0,1-2.683,2.817,1.732,1.732,0,0,1-1.62-.792l-.144.721h-1.333l1.333-6.681h1.4l-.45,2.251a2.141,2.141,0,0,1,1.4-.486A2.047,2.047,0,0,1,1555.54,1361.846Zm-1.423.063a1,1,0,0,0-1.107-1.071,1.449,1.449,0,0,0-1.413,1.593,1,1,0,0,0,1.1,1.071A1.449,1.449,0,0,0,1554.117,1361.909Z"
          fill="#ea2024" />
        <path id="Path_817" data-name="Path 817"
          d="M1557.384,1359.748h1.4l-.963,4.844h-1.4Zm.116-1.4a.855.855,0,0,1,.928-.837.745.745,0,0,1,.828.7.857.857,0,0,1-.936.864A.751.751,0,0,1,1557.5,1358.344Z"
          fill="#ea2024" />
        <path id="Path_818" data-name="Path 818"
          d="M1564.747,1362.548h-3.709c.045.657.45.99,1.251.99a1.991,1.991,0,0,0,1.3-.45l.585.928a3.206,3.206,0,0,1-2.025.647,2.186,2.186,0,0,1-2.476-2.169,2.733,2.733,0,0,1,2.854-2.818,2.077,2.077,0,0,1,2.3,2.134A3.787,3.787,0,0,1,1564.747,1362.548Zm-2.611,3.241a.655.655,0,0,1-.684.694.54.54,0,0,1-.576-.559.688.688,0,0,1,.684-.675A.545.545,0,0,1,1562.136,1365.789Zm-.063-6.653h-1.053l1.369-1.3h1.233l1.017,1.3h-1l-.694-.675Zm-.936,2.593h2.4a.964.964,0,0,0-1.081-1A1.329,1.329,0,0,0,1561.137,1361.729Z"
          fill="#ea2024" />
        <path id="Path_819" data-name="Path 819"
          d="M1567.581,1362.881a.769.769,0,0,0-.018.2c0,.3.162.468.513.468a1.112,1.112,0,0,0,.567-.171l.207,1a2.291,2.291,0,0,1-1.206.288,1.343,1.343,0,0,1-1.513-1.349,2.427,2.427,0,0,1,.045-.424l.388-1.953h-.747l.215-1.08h.747l.235-1.18h1.4l-.234,1.18h1.206l-.216,1.08h-1.206Z"
          fill="#ea2024" />
        <path id="Path_820" data-name="Path 820"
          d="M1571.433,1360.442a8.015,8.015,0,0,0-.414-2.531h1.287a6.919,6.919,0,0,1,.486,2.6,9.083,9.083,0,0,1-2.053,5.824h-1.4A9.6,9.6,0,0,0,1571.433,1360.442Z"
          fill="#ea2024" />
        <path id="Path_821" data-name="Path 821"
          d="M1244.863,1377.1v1.613l-4,9.143h-2.7l3.857-8.728h-3.565v1.751h-2.213V1377.1Z" fill="#68695f" />
        <path id="Path_822" data-name="Path 822"
          d="M1245.908,1386.473a1.491,1.491,0,0,1,2.981,0,1.491,1.491,0,1,1-2.981,0Z" fill="#68695f" />
        <path id="Path_823" data-name="Path 823"
          d="M1266.36,1387.856l-.016-6.454-3.165,5.316h-1.122l-3.15-5.178v6.316h-2.336V1377.1h2.059l4.026,6.683,3.964-6.683h2.044l.031,10.756Z"
          fill="#68695f" />
        <path id="Path_824" data-name="Path 824"
          d="M1279.944,1383.753c0,.184-.032.445-.046.646h-6.254a2.2,2.2,0,0,0,2.366,1.659,2.8,2.8,0,0,0,2.074-.8l1.276,1.383a4.331,4.331,0,0,1-3.412,1.337c-2.858,0-4.716-1.8-4.716-4.257a4.207,4.207,0,0,1,4.409-4.256A4.093,4.093,0,0,1,1279.944,1383.753Zm-5.67-5.224h-1.768l2.044-1.752h2.09l2.044,1.752h-1.768l-1.321-.876Zm-.661,4.471h4.072a2.065,2.065,0,0,0-4.072,0Zm4.748-5.947-2.413-1.858h2.444l1.689,1.858Z"
          fill="#68695f" />
        <path id="Path_825" data-name="Path 825"
          d="M1295.878,1383.123v4.733h-2.4v-4.365c0-1.337-.615-1.951-1.675-1.951-1.152,0-1.983.707-1.983,2.228v4.088h-2.4v-8.267h2.289v.968a3.619,3.619,0,0,1,2.735-1.091C1294.4,1379.466,1295.878,1380.6,1295.878,1383.123Z"
          fill="#68695f" />
        <path id="Path_826" data-name="Path 826"
          d="M1307.433,1379.589v6.884c0,3.073-1.659,4.486-4.64,4.486a6.806,6.806,0,0,1-4.056-1.137l.952-1.721a4.937,4.937,0,0,0,2.92.937c1.69,0,2.427-.767,2.427-2.259v-.353a3.406,3.406,0,0,1-2.612,1.03,4,4,0,1,1,0-7.99,3.319,3.319,0,0,1,2.735,1.183v-1.06Zm-2.366,3.872a2.179,2.179,0,1,0-2.166,2.028A2.007,2.007,0,0,0,1305.067,1383.461Z"
          fill="#68695f" />
        <path id="Path_827" data-name="Path 827"
          d="M1317.744,1383.138v4.718H1315.5v-1.03a2.711,2.711,0,0,1-2.519,1.153c-1.937,0-3.089-1.076-3.089-2.505,0-1.46,1.029-2.474,3.55-2.474h1.905c0-1.03-.614-1.629-1.905-1.629a3.971,3.971,0,0,0-2.382.769l-.861-1.675a6.36,6.36,0,0,1,3.565-1C1316.285,1379.466,1317.744,1380.634,1317.744,1383.138Zm-2.4,2.105v-.844H1313.7c-1.121,0-1.474.414-1.474.967,0,.6.507,1,1.351,1A1.767,1.767,0,0,0,1315.348,1385.243Z"
          fill="#68695f" />
        <path id="Path_828" data-name="Path 828"
          d="M1329.131,1383.123v4.733h-2.4v-4.365c0-1.337-.615-1.951-1.675-1.951-1.153,0-1.983.707-1.983,2.228v4.088h-2.4v-8.267h2.289v.968a3.617,3.617,0,0,1,2.735-1.091C1327.655,1379.466,1329.131,1380.6,1329.131,1383.123Z"
          fill="#68695f" />
        <path id="Path_829" data-name="Path 829"
          d="M1336.568,1383.722a4.274,4.274,0,0,1,4.61-4.256,3.8,3.8,0,0,1,3.7,2.1l-1.859,1a2.062,2.062,0,0,0-1.86-1.137,2.293,2.293,0,0,0,0,4.579,2.036,2.036,0,0,0,1.86-1.138l1.859,1.015a3.837,3.837,0,0,1-3.7,2.09A4.274,4.274,0,0,1,1336.568,1383.722Z"
          fill="#68695f" />
        <path id="Path_830" data-name="Path 830"
          d="M1355.423,1383.123v4.733h-2.4v-4.365c0-1.337-.615-1.951-1.675-1.951-1.153,0-1.983.707-1.983,2.228v4.088h-2.4v-11.4h2.4v3.995a3.637,3.637,0,0,1,2.628-.983C1353.947,1379.466,1355.423,1380.6,1355.423,1383.123Z"
          fill="#68695f" />
        <path id="Path_831" data-name="Path 831"
          d="M1365.671,1383.138v4.718h-2.243v-1.03a2.713,2.713,0,0,1-2.52,1.153c-1.936,0-3.088-1.076-3.088-2.505,0-1.46,1.029-2.474,3.549-2.474h1.906c0-1.03-.616-1.629-1.906-1.629a3.968,3.968,0,0,0-2.381.769l-.861-1.675a6.356,6.356,0,0,1,3.565-1C1364.212,1379.466,1365.671,1380.634,1365.671,1383.138Zm-2.4,2.105v-.844h-1.645c-1.121,0-1.475.414-1.475.967,0,.6.507,1,1.352,1A1.767,1.767,0,0,0,1363.275,1385.243Zm-.861-6.714h-1.875l2.074-2.213h2.583Z"
          fill="#68695f" />
        <path id="Path_832" data-name="Path 832"
          d="M1376.658,1379.589l-3.733,8.773c-.8,2-1.937,2.6-3.427,2.6a3.663,3.663,0,0,1-2.3-.753l.876-1.705a2.126,2.126,0,0,0,1.351.523c.661,0,1.029-.292,1.353-1.031l.03-.076-3.58-8.328h2.473l2.321,5.608,2.336-5.608Z"
          fill="#68695f" />
        <path id="Path_833" data-name="Path 833"
          d="M1388.86,1387.456a3.426,3.426,0,0,1-1.953.523c-1.951,0-3.087-1-3.087-2.966v-3.4h-1.276v-1.844h1.276v-2.013h2.4v2.013h2.06v1.844h-2.06v3.365a.965.965,0,0,0,1.03,1.091,1.623,1.623,0,0,0,.968-.307Z"
          fill="#68695f" />
        <path id="Path_834" data-name="Path 834"
          d="M1390.1,1383.722a4.55,4.55,0,1,1,4.548,4.257A4.255,4.255,0,0,1,1390.1,1383.722Zm6.652,0a2.119,2.119,0,1,0-2.1,2.29A2.085,2.085,0,0,0,1396.757,1383.722Zm-2.428-5.839c.6-.276.784-.584.784-.938a.652.652,0,0,0-.722-.645,1.626,1.626,0,0,0-.906.292l-.492-.968a2.676,2.676,0,0,1,1.66-.522,1.665,1.665,0,0,1,1.843,1.644,2.063,2.063,0,0,1-1.414,1.936Z"
          fill="#68695f" />
        <path id="Path_835" data-name="Path 835"
          d="M1401.261,1377.1a1.371,1.371,0,0,1,1.49-1.337,1.345,1.345,0,0,1,1.49,1.29,1.5,1.5,0,0,1-2.98.047Zm.292,2.489h2.4v8.267h-2.4Z"
          fill="#68695f" />
        <path id="Path_836" data-name="Path 836"
          d="M1245.446,1408c0,2.029-1.813,3.3-4.547,3.3s-4.518-1.275-4.518-3.3a2.736,2.736,0,0,1,1.629-2.536,2.481,2.481,0,0,1-1.245-2.212c0-1.89,1.69-3.073,4.134-3.073,2.473,0,4.164,1.183,4.164,3.073a2.5,2.5,0,0,1-1.261,2.212A2.726,2.726,0,0,1,1245.446,1408Zm-2.519-.077c0-.953-.784-1.536-2.028-1.536s-2,.583-2,1.536.768,1.552,2,1.552S1242.927,1408.876,1242.927,1407.923Zm-3.689-4.563c0,.814.646,1.321,1.661,1.321s1.689-.507,1.689-1.321c0-.846-.676-1.353-1.689-1.353S1239.238,1402.514,1239.238,1403.36Z"
          fill="#68695f" />
        <path id="Path_837" data-name="Path 837" d="M1247.429,1409.737a1.49,1.49,0,0,1,2.98,0,1.49,1.49,0,1,1-2.98,0Z"
          fill="#68695f" />
        <path id="Path_838" data-name="Path 838" d="M1258.093,1400.363h2.489v8.728h5.394v2.028h-7.883Z"
          fill="#68695f" />
        <path id="Path_839" data-name="Path 839"
          d="M1267.3,1406.986a4.55,4.55,0,1,1,4.548,4.256A4.255,4.255,0,0,1,1267.3,1406.986Zm1.26-7.407h2.581l2.074,2.213h-1.874Zm5.392,7.407a2.119,2.119,0,1,0-2.1,2.29A2.086,2.086,0,0,0,1273.95,1406.986Z"
          fill="#68695f" />
        <path id="Path_840" data-name="Path 840"
          d="M1287.2,1406.387v4.732h-2.4v-4.364c0-1.337-.614-1.951-1.675-1.951-1.152,0-1.982.707-1.982,2.227v4.088h-2.4v-8.266h2.289v.967a3.621,3.621,0,0,1,2.736-1.09C1285.721,1402.73,1287.2,1403.866,1287.2,1406.387Z"
          fill="#68695f" />
        <path id="Path_841" data-name="Path 841"
          d="M1298.751,1402.853v6.884c0,3.073-1.659,4.486-4.639,4.486a6.809,6.809,0,0,1-4.057-1.137l.952-1.722a4.932,4.932,0,0,0,2.92.938c1.69,0,2.428-.768,2.428-2.259v-.353a3.406,3.406,0,0,1-2.613,1.03,4,4,0,1,1,0-7.99,3.319,3.319,0,0,1,2.736,1.182v-1.059Zm-2.366,3.872a2.179,2.179,0,1,0-2.166,2.028A2.007,2.007,0,0,0,1296.385,1406.725Z"
          fill="#68695f" />
        <path id="Path_842" data-name="Path 842"
          d="M1320.832,1406.387v4.732h-2.4v-4.364c0-1.337-.6-1.951-1.568-1.951-1.075,0-1.828.691-1.828,2.166v4.149h-2.4v-4.364c0-1.337-.569-1.951-1.568-1.951-1.06,0-1.813.691-1.813,2.166v4.149h-2.4v-8.266h2.289v.952a3.351,3.351,0,0,1,2.6-1.075,3.086,3.086,0,0,1,2.72,1.351,3.72,3.72,0,0,1,2.981-1.351C1319.419,1402.73,1320.832,1403.866,1320.832,1406.387Z"
          fill="#68695f" />
        <path id="Path_843" data-name="Path 843"
          d="M1331.943,1407.017c0,.183-.032.445-.046.645h-6.254a2.2,2.2,0,0,0,2.366,1.659,2.8,2.8,0,0,0,2.074-.8l1.276,1.382a4.331,4.331,0,0,1-3.412,1.337c-2.858,0-4.717-1.8-4.717-4.256a4.208,4.208,0,0,1,4.41-4.256A4.093,4.093,0,0,1,1331.943,1407.017Zm-5.67-5.225h-1.768l2.044-1.752h2.09l2.044,1.752h-1.768l-1.321-.876Zm-.661,4.472h4.072a2.065,2.065,0,0,0-4.072,0Zm4.748-5.947-2.413-1.859h2.444l1.69,1.859Z"
          fill="#68695f" />
        <path id="Path_844" data-name="Path 844"
          d="M1344.682,1411.119l-1.814-2.535-1.874,2.535h-2.612l3.181-4.164-3.074-4.1h2.69l1.751,2.412,1.8-2.412h2.551l-3.074,4.041,3.2,4.225Z"
          fill="#68695f" />
        <path id="Path_845" data-name="Path 845"
          d="M1356.5,1406.4v4.717h-2.243v-1.029a2.711,2.711,0,0,1-2.519,1.152c-1.937,0-3.089-1.076-3.089-2.5,0-1.459,1.029-2.473,3.55-2.473h1.9c0-1.03-.615-1.629-1.9-1.629a3.971,3.971,0,0,0-2.382.769l-.861-1.675a6.35,6.35,0,0,1,3.565-1C1355.038,1402.73,1356.5,1403.9,1356.5,1406.4Zm-4.21-4.61-2.781-2.213h2.582l2.074,2.213Zm1.814,6.715v-.845h-1.645c-1.121,0-1.474.414-1.474.968,0,.6.506,1,1.351,1A1.767,1.767,0,0,0,1354.1,1408.507Z"
          fill="#68695f" />
        <path id="Path_846" data-name="Path 846"
          d="M1358.911,1406.986a4.55,4.55,0,1,1,4.548,4.256A4.255,4.255,0,0,1,1358.911,1406.986Zm6.653,0a2.119,2.119,0,1,0-2.1,2.29A2.087,2.087,0,0,0,1365.564,1406.986Z"
          fill="#68695f" />
        <path id="Path_847" data-name="Path 847"
          d="M1383.927,1406.387v4.732h-2.4v-4.364c0-1.337-.614-1.951-1.674-1.951-1.153,0-1.983.707-1.983,2.227v4.088h-2.4v-11.4h2.4v3.995a3.637,3.637,0,0,1,2.628-.983C1382.451,1402.73,1383.927,1403.866,1383.927,1406.387Z"
          fill="#68695f" />
        <path id="Path_848" data-name="Path 848"
          d="M1394.176,1406.4v4.717h-2.243v-1.029a2.712,2.712,0,0,1-2.52,1.152c-1.936,0-3.089-1.076-3.089-2.5,0-1.459,1.03-2.473,3.55-2.473h1.905c0-1.03-.614-1.629-1.905-1.629a3.973,3.973,0,0,0-2.382.769l-.86-1.675a6.347,6.347,0,0,1,3.564-1C1392.717,1402.73,1394.176,1403.9,1394.176,1406.4Zm-4.21-4.61-2.781-2.213h2.582l2.074,2.213Zm1.813,6.715v-.845h-1.644c-1.121,0-1.475.414-1.475.968,0,.6.507,1,1.352,1A1.765,1.765,0,0,0,1391.779,1408.507Z"
          fill="#68695f" />
        <path id="Path_849" data-name="Path 849"
          d="M1405.563,1406.387v4.732h-2.4v-4.364c0-1.337-.614-1.951-1.675-1.951-1.152,0-1.982.707-1.982,2.227v4.088h-2.4v-8.266h2.289v.967a3.617,3.617,0,0,1,2.735-1.09C1404.087,1402.73,1405.563,1403.866,1405.563,1406.387Z"
          fill="#68695f" />
        <path id="Path_850" data-name="Path 850"
          d="M1416.949,1406.387v4.732h-2.4v-4.364c0-1.337-.614-1.951-1.675-1.951-1.152,0-1.982.707-1.982,2.227v4.088h-2.4v-11.4h2.4v3.995a3.634,3.634,0,0,1,2.628-.983C1415.474,1402.73,1416.949,1403.866,1416.949,1406.387Z"
          fill="#68695f" />
        <path id="Path_851" data-name="Path 851"
          d="M1433.452,1406.387v4.732h-2.4v-4.364c0-1.337-.614-1.951-1.675-1.951-1.152,0-1.982.707-1.982,2.227v4.088H1425v-8.266h2.289v.967a3.621,3.621,0,0,1,2.736-1.09C1431.977,1402.73,1433.452,1403.866,1433.452,1406.387Z"
          fill="#68695f" />
        <path id="Path_852" data-name="Path 852"
          d="M1443.7,1406.4v4.717h-2.243v-1.029a2.71,2.71,0,0,1-2.519,1.152c-1.937,0-3.089-1.076-3.089-2.5,0-1.459,1.029-2.473,3.55-2.473h1.905c0-1.03-.614-1.629-1.905-1.629a3.971,3.971,0,0,0-2.382.769l-.861-1.675a6.352,6.352,0,0,1,3.565-1C1442.242,1402.73,1443.7,1403.9,1443.7,1406.4Zm-5.054-4.61h-1.768l2.044-1.752h2.09l2.044,1.752h-1.768l-1.321-.876Zm2.658,6.715v-.845h-1.645c-1.121,0-1.474.414-1.474.968,0,.6.507,1,1.351,1A1.766,1.766,0,0,0,1441.305,1408.507Zm2.243-8.19h-1.736l1.706-1.859h2.442Z"
          fill="#68695f" />
        <path id="Path_853" data-name="Path 853"
          d="M1460.6,1406.387v4.732h-2.4v-4.364c0-1.337-.6-1.951-1.567-1.951-1.075,0-1.828.691-1.828,2.166v4.149h-2.4v-4.364c0-1.337-.568-1.951-1.567-1.951-1.061,0-1.814.691-1.814,2.166v4.149h-2.4v-8.266h2.289v.952a3.348,3.348,0,0,1,2.6-1.075,3.085,3.085,0,0,1,2.719,1.351,3.723,3.723,0,0,1,2.982-1.351C1459.191,1402.73,1460.6,1403.866,1460.6,1406.387Z"
          fill="#68695f" />
        <path id="Path_854" data-name="Path 854"
          d="M1245.031,1428.775c0,3.718-2.227,5.793-5.485,5.793a5.737,5.737,0,0,1-2.98-.738l.922-1.829a3.464,3.464,0,0,0,2.012.538c1.782,0,2.95-1.06,3.027-3.135a3.676,3.676,0,0,1-2.673.969,3.412,3.412,0,0,1-3.7-3.35c0-2.2,1.8-3.58,4.071-3.58C1243.2,1423.443,1245.031,1425.3,1245.031,1428.775Zm-2.781-1.874c0-.922-.691-1.6-1.874-1.6a1.618,1.618,0,1,0,.03,3.212A1.669,1.669,0,0,0,1242.25,1426.9Z"
          fill="#68695f" />
        <path id="Path_855" data-name="Path 855" d="M1246.723,1433a1.49,1.49,0,0,1,2.98,0,1.49,1.49,0,1,1-2.98,0Z"
          fill="#68695f" />
        <path id="Path_856" data-name="Path 856" d="M1257.387,1423.627h2.489v8.728h5.394v2.028h-7.883Z"
          fill="#68695f" />
        <path id="Path_857" data-name="Path 857"
          d="M1266.591,1430.25a4.55,4.55,0,1,1,4.548,4.256A4.256,4.256,0,0,1,1266.591,1430.25Zm1.26-7.406h2.581l2.074,2.212h-1.874Zm5.392,7.406a2.119,2.119,0,1,0-2.1,2.289A2.086,2.086,0,0,0,1273.243,1430.25Z"
          fill="#68695f" />
        <path id="Path_858" data-name="Path 858"
          d="M1286.49,1429.651v4.732h-2.4v-4.363c0-1.337-.614-1.952-1.675-1.952-1.152,0-1.982.707-1.982,2.228v4.087h-2.4v-8.267h2.289v.968a3.625,3.625,0,0,1,2.736-1.091C1285.015,1425.993,1286.49,1427.131,1286.49,1429.651Z"
          fill="#68695f" />
        <path id="Path_859" data-name="Path 859"
          d="M1298.045,1426.116V1433c0,3.073-1.659,4.487-4.64,4.487a6.808,6.808,0,0,1-4.056-1.137l.952-1.721a4.945,4.945,0,0,0,2.92.938c1.69,0,2.428-.769,2.428-2.259v-.354a3.4,3.4,0,0,1-2.613,1.03,4,4,0,1,1,0-7.991,3.32,3.32,0,0,1,2.736,1.184v-1.061Zm-2.366,3.872a2.179,2.179,0,1,0-2.166,2.029A2.007,2.007,0,0,0,1295.679,1429.988Z"
          fill="#68695f" />
        <path id="Path_860" data-name="Path 860"
          d="M1320.126,1429.651v4.732h-2.4v-4.363c0-1.337-.6-1.952-1.568-1.952-1.075,0-1.828.691-1.828,2.167v4.148h-2.4v-4.363c0-1.337-.569-1.952-1.568-1.952-1.06,0-1.813.691-1.813,2.167v4.148h-2.4v-8.267h2.289v.954a3.349,3.349,0,0,1,2.6-1.077,3.089,3.089,0,0,1,2.72,1.353,3.718,3.718,0,0,1,2.981-1.353C1318.713,1425.993,1320.126,1427.131,1320.126,1429.651Z"
          fill="#68695f" />
        <path id="Path_861" data-name="Path 861"
          d="M1331.237,1430.28c0,.185-.032.446-.046.646h-6.254a2.2,2.2,0,0,0,2.366,1.659,2.8,2.8,0,0,0,2.074-.8l1.276,1.383a4.331,4.331,0,0,1-3.412,1.337c-2.858,0-4.716-1.8-4.716-4.256a4.208,4.208,0,0,1,4.409-4.257A4.093,4.093,0,0,1,1331.237,1430.28Zm-5.67-5.224H1323.8l2.044-1.751h2.09l2.044,1.751h-1.768l-1.321-.875Zm-.662,4.472h4.073a2.065,2.065,0,0,0-4.073,0Zm4.749-5.947-2.413-1.859h2.444l1.689,1.859Z"
          fill="#68695f" />
        <path id="Path_862" data-name="Path 862"
          d="M1344.052,1433.984a3.43,3.43,0,0,1-1.952.522c-1.951,0-3.088-1-3.088-2.966v-3.4h-1.275V1426.3h1.275v-2.013h2.4v2.013h2.06v1.844h-2.06v3.365a.965.965,0,0,0,1.031,1.091,1.613,1.613,0,0,0,.967-.308Z"
          fill="#68695f" />
        <path id="Path_863" data-name="Path 863"
          d="M1351.305,1425.993v2.213c-.2-.015-.354-.03-.538-.03a2.031,2.031,0,0,0-2.2,2.3v3.9h-2.4v-8.267h2.289v1.091A3.336,3.336,0,0,1,1351.305,1425.993Z"
          fill="#68695f" />
        <path id="Path_864" data-name="Path 864"
          d="M1360.771,1429.666v4.717h-2.243v-1.029a2.713,2.713,0,0,1-2.52,1.152c-1.937,0-3.089-1.075-3.089-2.505,0-1.459,1.029-2.473,3.55-2.473h1.905c0-1.03-.615-1.629-1.905-1.629a3.979,3.979,0,0,0-2.382.768l-.86-1.675a6.355,6.355,0,0,1,3.564-1C1359.312,1425.993,1360.771,1427.161,1360.771,1429.666Zm-5.055-4.61h-1.768l2.044-1.751h2.09l2.044,1.751h-1.767l-1.322-.875Zm2.658,6.715v-.845h-1.644c-1.121,0-1.475.415-1.475.968,0,.6.507,1,1.352,1A1.766,1.766,0,0,0,1358.374,1431.771Zm1.429-8.19-2.412-1.859h2.443l1.69,1.859Z"
          fill="#68695f" />
        <path id="Path_865" data-name="Path 865"
          d="M1372.157,1429.651v4.732h-2.4v-4.363c0-1.337-.614-1.952-1.675-1.952-1.152,0-1.982.707-1.982,2.228v4.087h-2.4v-8.267h2.289v.968a3.625,3.625,0,0,1,2.736-1.091C1370.682,1425.993,1372.157,1427.131,1372.157,1429.651Z"
          fill="#68695f" />
        <path id="Path_866" data-name="Path 866"
          d="M1388.737,1426.116V1433c0,3.073-1.66,4.487-4.64,4.487a6.809,6.809,0,0,1-4.057-1.137l.952-1.721a4.948,4.948,0,0,0,2.92.938c1.691,0,2.428-.769,2.428-2.259v-.354a3.4,3.4,0,0,1-2.612,1.03,4,4,0,1,1,0-7.991,3.319,3.319,0,0,1,2.735,1.184v-1.061Zm-2.367,3.872a2.179,2.179,0,1,0-2.166,2.029A2.007,2.007,0,0,0,1386.37,1429.988Z"
          fill="#68695f" />
        <path id="Path_867" data-name="Path 867"
          d="M1391.442,1423.627a1.37,1.37,0,0,1,1.49-1.337,1.346,1.346,0,0,1,1.49,1.291,1.5,1.5,0,0,1-2.98.046Zm.292,2.489h2.4v8.267h-2.4Z"
          fill="#68695f" />
        <path id="Path_868" data-name="Path 868"
          d="M1404.441,1429.666v4.717H1402.2v-1.029a2.71,2.71,0,0,1-2.519,1.152c-1.937,0-3.089-1.075-3.089-2.505,0-1.459,1.029-2.473,3.55-2.473h1.9c0-1.03-.615-1.629-1.9-1.629a3.98,3.98,0,0,0-2.382.768l-.86-1.675a6.356,6.356,0,0,1,3.564-1C1402.982,1425.993,1404.441,1427.161,1404.441,1429.666Zm-2.4,2.1v-.845H1400.4c-1.121,0-1.475.415-1.475.968,0,.6.507,1,1.352,1A1.766,1.766,0,0,0,1402.044,1431.771Zm-.86-6.715h-1.875l2.074-2.212h2.582Z"
          fill="#68695f" />
        <path id="Path_869" data-name="Path 869" d="M1240.591,1446.891v10.756H1238.1v-8.758h-2.152v-2Z"
          fill="#68695f" />
        <path id="Path_870" data-name="Path 870"
          d="M1243.235,1452.269c0-3.549,1.966-5.563,4.609-5.563,2.658,0,4.609,2.014,4.609,5.563s-1.951,5.562-4.609,5.562C1245.2,1457.831,1243.235,1455.819,1243.235,1452.269Zm6.714,0c0-2.444-.861-3.457-2.1-3.457s-2.09,1.013-2.09,3.457.86,3.457,2.09,3.457S1249.949,1454.712,1249.949,1452.269Z"
          fill="#68695f" />
        <path id="Path_871" data-name="Path 871"
          d="M1254.159,1456.264a1.491,1.491,0,0,1,2.981,0,1.491,1.491,0,1,1-2.981,0Z" fill="#68695f" />
        <path id="Path_872" data-name="Path 872"
          d="M1264.148,1452.269a5.921,5.921,0,0,1,10.263-3.657l-1.6,1.475a3.461,3.461,0,0,0-2.7-1.26,3.442,3.442,0,1,0,0,6.884,3.432,3.432,0,0,0,2.7-1.275l1.6,1.474a5.911,5.911,0,0,1-10.263-3.641Z"
          fill="#68695f" />
        <path id="Path_873" data-name="Path 873"
          d="M1283.939,1452.93v4.717H1281.7v-1.03a2.714,2.714,0,0,1-2.52,1.153c-1.937,0-3.089-1.075-3.089-2.505,0-1.459,1.029-2.474,3.55-2.474h1.905c0-1.029-.615-1.629-1.905-1.629a3.973,3.973,0,0,0-2.382.769l-.86-1.675a6.354,6.354,0,0,1,3.564-1C1282.48,1449.257,1283.939,1450.425,1283.939,1452.93Zm-2.4,2.1v-.844H1279.9c-1.121,0-1.475.415-1.475.967,0,.6.507,1,1.352,1A1.766,1.766,0,0,0,1281.542,1455.034Z"
          fill="#68695f" />
        <path id="Path_874" data-name="Path 874"
          d="M1295.325,1452.914v4.733h-2.4v-4.364c0-1.337-.614-1.952-1.675-1.952-1.152,0-1.982.707-1.982,2.229v4.087h-2.4v-8.267h2.289v.968a3.625,3.625,0,0,1,2.736-1.091C1293.85,1449.257,1295.325,1450.4,1295.325,1452.914Z"
          fill="#68695f" />
        <path id="Path_875" data-name="Path 875"
          d="M1306.712,1452.914v4.733h-2.4v-4.364c0-1.337-.615-1.952-1.675-1.952-1.152,0-1.983.707-1.983,2.229v4.087h-2.4v-11.4h2.4v3.995a3.637,3.637,0,0,1,2.628-.983C1305.237,1449.257,1306.712,1450.4,1306.712,1452.914Z"
          fill="#68695f" />
        <path id="Path_876" data-name="Path 876"
          d="M1328.731,1452.914v4.733h-2.4v-4.364c0-1.337-.6-1.952-1.567-1.952-1.075,0-1.828.692-1.828,2.167v4.149h-2.4v-4.364c0-1.337-.568-1.952-1.567-1.952-1.061,0-1.814.692-1.814,2.167v4.149h-2.4v-8.267h2.289v.953a3.349,3.349,0,0,1,2.6-1.076,3.085,3.085,0,0,1,2.719,1.353,3.72,3.72,0,0,1,2.982-1.353C1327.318,1449.257,1328.731,1450.4,1328.731,1452.914Z"
          fill="#68695f" />
        <path id="Path_877" data-name="Path 877"
          d="M1338.965,1452.93v4.717h-2.243v-1.03a2.713,2.713,0,0,1-2.52,1.153c-1.936,0-3.089-1.075-3.089-2.505,0-1.459,1.03-2.474,3.55-2.474h1.906c0-1.029-.615-1.629-1.906-1.629a3.973,3.973,0,0,0-2.382.769l-.86-1.675a6.355,6.355,0,0,1,3.565-1C1337.506,1449.257,1338.965,1450.425,1338.965,1452.93Zm-2.4,2.1v-.844h-1.645c-1.121,0-1.475.415-1.475.967,0,.6.507,1,1.352,1A1.767,1.767,0,0,0,1336.569,1455.034Z"
          fill="#68695f" />
        <path id="Path_878" data-name="Path 878"
          d="M1350.352,1452.914v4.733h-2.4v-4.364c0-1.337-.614-1.952-1.675-1.952-1.152,0-1.982.707-1.982,2.229v4.087h-2.4v-8.267h2.289v.968a3.621,3.621,0,0,1,2.735-1.091C1348.876,1449.257,1350.352,1450.4,1350.352,1452.914Z"
          fill="#68695f" />
        <path id="Path_879" data-name="Path 879"
          d="M1361.906,1449.38v6.884c0,3.073-1.659,4.487-4.639,4.487a6.81,6.81,0,0,1-4.057-1.138l.952-1.72a4.946,4.946,0,0,0,2.92.937c1.691,0,2.428-.768,2.428-2.259v-.353a3.4,3.4,0,0,1-2.612,1.029,4,4,0,1,1,0-7.99,3.319,3.319,0,0,1,2.735,1.184v-1.061Zm-2.366,3.872a2.179,2.179,0,1,0-2.166,2.028A2.007,2.007,0,0,0,1359.54,1453.252Z"
          fill="#68695f" />
        <path id="Path_880" data-name="Path 880"
          d="M1375.353,1457.247a3.423,3.423,0,0,1-1.952.523c-1.952,0-3.088-1-3.088-2.966v-3.4h-1.276v-1.843h1.276v-2.013h2.4v2.013h2.06v1.843h-2.06v3.366a.964.964,0,0,0,1.03,1.09,1.614,1.614,0,0,0,.968-.307Z"
          fill="#68695f" />
        <path id="Path_881" data-name="Path 881"
          d="M1377.182,1446.891a1.37,1.37,0,0,1,1.49-1.337,1.345,1.345,0,0,1,1.49,1.291,1.5,1.5,0,0,1-2.98.046Zm.292,2.489h2.4v8.267h-2.4Z"
          fill="#68695f" />
        <path id="Path_882" data-name="Path 882"
          d="M1390.965,1453.544c0,.185-.031.445-.046.646h-6.254a2.205,2.205,0,0,0,2.366,1.659,2.8,2.8,0,0,0,2.075-.8l1.275,1.383a4.329,4.329,0,0,1-3.411,1.337c-2.858,0-4.717-1.8-4.717-4.256a4.208,4.208,0,0,1,4.409-4.257A4.093,4.093,0,0,1,1390.965,1453.544Zm-5.67-5.224h-1.767l2.043-1.751h2.09l2.044,1.751h-1.767l-1.322-.875Zm-.661,4.471h4.072a2.065,2.065,0,0,0-4.072,0Zm5.562-5.946h-1.736l1.706-1.859h2.443Z"
          fill="#68695f" />
        <path id="Path_883" data-name="Path 883"
          d="M1398.663,1457.247a3.423,3.423,0,0,1-1.952.523c-1.951,0-3.088-1-3.088-2.966v-3.4h-1.275v-1.843h1.275v-2.013h2.4v2.013h2.059v1.843h-2.059v3.366a.963.963,0,0,0,1.03,1.09,1.616,1.616,0,0,0,.968-.307Z"
          fill="#68695f" />
        <path id="Path_884" data-name="Path 884" d="M1240.591,1470.154v10.756H1238.1v-8.757h-2.152v-2Z"
          fill="#68695f" />
        <path id="Path_885" data-name="Path 885" d="M1247.383,1470.154v10.756h-2.489v-8.757h-2.152v-2Z"
          fill="#68695f" />
        <path id="Path_886" data-name="Path 886"
          d="M1249.949,1479.528a1.491,1.491,0,0,1,2.981,0,1.491,1.491,0,1,1-2.981,0Z" fill="#68695f" />
        <path id="Path_887" data-name="Path 887"
          d="M1270.478,1470.154v10.756h-2.043l-5.364-6.53v6.53h-2.458v-10.756h2.059l5.348,6.531v-6.531Z"
          fill="#68695f" />
        <path id="Path_888" data-name="Path 888"
          d="M1282.1,1476.778a4.55,4.55,0,1,1-4.533-4.257A4.242,4.242,0,0,1,1282.1,1476.778Zm-5.9-5.195h-1.752l2.028-2.212h2.12l2.028,2.212h-1.752l-1.337-1.167Zm3.471,5.195a2.119,2.119,0,1,0-2.1,2.289A2.086,2.086,0,0,0,1279.667,1476.778Zm-1.075,6.33a1.06,1.06,0,0,1-2.12,0,1.06,1.06,0,1,1,2.12,0Z"
          fill="#68695f" />
        <path id="Path_889" data-name="Path 889"
          d="M1298.429,1476.178v4.732h-2.4v-4.363c0-1.337-.6-1.952-1.567-1.952-1.075,0-1.828.691-1.828,2.167v4.148h-2.4v-4.363c0-1.337-.568-1.952-1.567-1.952-1.06,0-1.813.691-1.813,2.167v4.148h-2.4v-8.266h2.289v.953a3.349,3.349,0,0,1,2.6-1.076,3.088,3.088,0,0,1,2.72,1.352,3.72,3.72,0,0,1,2.981-1.352C1297.016,1472.521,1298.429,1473.658,1298.429,1476.178Z"
          fill="#68695f" />
        <path id="Path_890" data-name="Path 890"
          d="M1314.917,1476.178v4.732h-2.4v-4.363c0-1.337-.615-1.952-1.675-1.952-1.152,0-1.982.707-1.982,2.228v4.087h-2.4v-8.266h2.289v.968a3.619,3.619,0,0,1,2.735-1.091C1313.442,1472.521,1314.917,1473.658,1314.917,1476.178Z"
          fill="#68695f" />
        <path id="Path_891" data-name="Path 891"
          d="M1326.473,1472.644v6.884c0,3.073-1.659,4.487-4.64,4.487a6.806,6.806,0,0,1-4.056-1.138l.952-1.721a4.939,4.939,0,0,0,2.92.938c1.69,0,2.427-.769,2.427-2.259v-.353a3.406,3.406,0,0,1-2.612,1.029,4,4,0,1,1,0-7.99,3.317,3.317,0,0,1,2.735,1.183v-1.06Zm-2.366,3.872a2.179,2.179,0,1,0-2.166,2.028A2.008,2.008,0,0,0,1324.107,1476.516Z"
          fill="#68695f" />
        <path id="Path_892" data-name="Path 892"
          d="M1336.783,1476.194v4.716h-2.243v-1.029a2.71,2.71,0,0,1-2.519,1.152c-1.937,0-3.089-1.075-3.089-2.5,0-1.459,1.029-2.474,3.55-2.474h1.9c0-1.029-.614-1.629-1.9-1.629a3.971,3.971,0,0,0-2.382.769l-.861-1.675a6.352,6.352,0,0,1,3.565-1C1335.324,1472.521,1336.783,1473.689,1336.783,1476.194Zm-2.4,2.1v-.845h-1.645c-1.121,0-1.474.415-1.474.968,0,.6.507,1,1.351,1A1.766,1.766,0,0,0,1334.387,1478.3Z"
          fill="#68695f" />
        <path id="Path_893" data-name="Path 893"
          d="M1348.17,1476.178v4.732h-2.4v-4.363c0-1.337-.615-1.952-1.675-1.952-1.152,0-1.983.707-1.983,2.228v4.087h-2.4v-8.266h2.289v.968a3.619,3.619,0,0,1,2.735-1.091C1346.695,1472.521,1348.17,1473.658,1348.17,1476.178Z"
          fill="#68695f" />
      </g>
    </g>
    <g id="Group_92" data-name="Group 92">
      <g id="Group_91" data-name="Group 91">
        <path id="Path_894" data-name="Path 894"
          d="M1674.481,1244.892c0,1.906-1.4,3.565-4.472,3.565a7.432,7.432,0,0,1-4.1-1.153l.984-1.9a5.172,5.172,0,0,0,3.057.968c1.246,0,2.014-.522,2.014-1.4,0-.845-.554-1.4-2.505-1.4h-2.75l.553-6.054h6.562v2h-4.488l-.169,2.044h.876C1673.221,1241.558,1674.481,1242.987,1674.481,1244.892Z"
          fill="#ea2024" />
        <path id="Path_895" data-name="Path 895"
          d="M1684.315,1244.892c0,1.906-1.4,3.565-4.472,3.565a7.432,7.432,0,0,1-4.1-1.153l.984-1.9a5.172,5.172,0,0,0,3.057.968c1.246,0,2.014-.522,2.014-1.4,0-.845-.554-1.4-2.505-1.4h-2.75l.553-6.054h6.561v2h-4.487l-.169,2.044h.876C1683.055,1241.558,1684.315,1242.987,1684.315,1244.892Z"
          fill="#ea2024" />
        <path id="Path_896" data-name="Path 896" d="M1686.021,1246.89a1.49,1.49,0,0,1,2.98,0,1.49,1.49,0,1,1-2.98,0Z"
          fill="#ea2024" />
        <path id="Path_897" data-name="Path 897"
          d="M1690.693,1242.9c0-3.55,1.966-5.563,4.609-5.563,2.658,0,4.609,2.013,4.609,5.563s-1.951,5.562-4.609,5.562C1692.659,1248.457,1690.693,1246.444,1690.693,1242.9Zm6.714,0c0-2.444-.861-3.458-2.1-3.458s-2.09,1.014-2.09,3.458.86,3.457,2.09,3.457S1697.407,1245.338,1697.407,1242.9Z"
          fill="#ea2024" />
        <path id="Path_898" data-name="Path 898"
          d="M1701.9,1242.9c0-3.55,1.967-5.563,4.609-5.563,2.658,0,4.609,2.013,4.609,5.563s-1.951,5.562-4.609,5.562C1703.862,1248.457,1701.9,1246.444,1701.9,1242.9Zm6.715,0c0-2.444-.862-3.458-2.106-3.458-1.229,0-2.09,1.014-2.09,3.458s.861,3.457,2.09,3.457C1707.748,1246.352,1708.61,1245.338,1708.61,1242.9Z"
          fill="#ea2024" />
        <path id="Path_899" data-name="Path 899"
          d="M1713.1,1242.9c0-3.55,1.967-5.563,4.609-5.563,2.658,0,4.61,2.013,4.61,5.563s-1.952,5.562-4.61,5.562C1715.064,1248.457,1713.1,1246.444,1713.1,1242.9Zm6.715,0c0-2.444-.862-3.458-2.106-3.458s-2.09,1.014-2.09,3.458.861,3.457,2.09,3.457S1719.812,1245.338,1719.812,1242.9Z"
          fill="#ea2024" />
        <path id="Path_900" data-name="Path 900"
          d="M1734.348,1239.161h-1.122v9.112h-2.289v-.953a3.182,3.182,0,0,1-2.581,1.076,4.258,4.258,0,0,1,0-8.513,3.176,3.176,0,0,1,2.473,1v-1.721h-2.812v-1.383h2.812v-.907h2.4v.907h1.122Zm-3.473,4.978a2.119,2.119,0,1,0-2.1,2.29A2.094,2.094,0,0,0,1730.875,1244.139Z"
          fill="#ea2024" />
        <path id="Path_901" data-name="Path 901"
          d="M1674.71,1269.278h-1.751v2.258h-2.428v-2.258h-5.793V1267.6l5.071-6.823h2.612l-4.7,6.469h2.889v-2.012h2.351v2.012h1.751Z"
          fill="#ea2024" />
        <path id="Path_902" data-name="Path 902"
          d="M1684.315,1268.155c0,1.906-1.4,3.566-4.472,3.566a7.432,7.432,0,0,1-4.1-1.153l.984-1.906a5.166,5.166,0,0,0,3.057.969c1.246,0,2.014-.522,2.014-1.4,0-.846-.554-1.4-2.505-1.4h-2.75l.553-6.054h6.561v2h-4.487l-.169,2.043h.876C1683.055,1264.821,1684.315,1266.25,1684.315,1268.155Z"
          fill="#ea2024" />
        <path id="Path_903" data-name="Path 903" d="M1686.021,1270.154a1.49,1.49,0,0,1,2.98,0,1.49,1.49,0,1,1-2.98,0Z"
          fill="#ea2024" />
        <path id="Path_904" data-name="Path 904"
          d="M1690.693,1266.158c0-3.549,1.966-5.562,4.609-5.562,2.658,0,4.609,2.013,4.609,5.562s-1.951,5.563-4.609,5.563C1692.659,1271.721,1690.693,1269.707,1690.693,1266.158Zm6.714,0c0-2.443-.861-3.457-2.1-3.457s-2.09,1.014-2.09,3.457.86,3.457,2.09,3.457S1697.407,1268.6,1697.407,1266.158Z"
          fill="#ea2024" />
        <path id="Path_905" data-name="Path 905"
          d="M1701.894,1266.158c0-3.549,1.967-5.562,4.609-5.562,2.658,0,4.61,2.013,4.61,5.562s-1.952,5.563-4.61,5.563C1703.861,1271.721,1701.894,1269.707,1701.894,1266.158Zm6.715,0c0-2.443-.862-3.457-2.106-3.457s-2.09,1.014-2.09,3.457.861,3.457,2.09,3.457S1708.609,1268.6,1708.609,1266.158Z"
          fill="#ea2024" />
        <path id="Path_906" data-name="Path 906"
          d="M1713.1,1266.158c0-3.549,1.967-5.562,4.609-5.562,2.658,0,4.61,2.013,4.61,5.562s-1.952,5.563-4.61,5.563C1715.063,1271.721,1713.1,1269.707,1713.1,1266.158Zm6.715,0c0-2.443-.862-3.457-2.106-3.457-1.229,0-2.09,1.014-2.09,3.457s.861,3.457,2.09,3.457C1718.949,1269.615,1719.811,1268.6,1719.811,1266.158Z"
          fill="#ea2024" />
        <path id="Path_907" data-name="Path 907"
          d="M1734.347,1262.424h-1.122v9.112h-2.289v-.953a3.18,3.18,0,0,1-2.581,1.076,4.258,4.258,0,0,1,0-8.512,3.172,3.172,0,0,1,2.473,1v-1.722h-2.812v-1.382h2.812v-.907h2.4v.907h1.122Zm-3.473,4.979a2.119,2.119,0,1,0-2.1,2.29A2.095,2.095,0,0,0,1730.874,1267.4Z"
          fill="#ea2024" />
        <path id="Path_908" data-name="Path 908"
          d="M1674.481,1291.42c0,1.9-1.4,3.565-4.472,3.565a7.433,7.433,0,0,1-4.1-1.153l.984-1.905a5.179,5.179,0,0,0,3.057.968c1.246,0,2.014-.523,2.014-1.4,0-.844-.554-1.4-2.505-1.4h-2.75l.553-6.055h6.562v2h-4.488l-.169,2.043h.876C1673.221,1288.085,1674.481,1289.515,1674.481,1291.42Z"
          fill="#ea2024" />
        <path id="Path_909" data-name="Path 909"
          d="M1684.315,1291.42c0,1.9-1.4,3.565-4.472,3.565a7.433,7.433,0,0,1-4.1-1.153l.984-1.905a5.179,5.179,0,0,0,3.057.968c1.246,0,2.014-.523,2.014-1.4,0-.844-.554-1.4-2.505-1.4h-2.75l.553-6.055h6.561v2h-4.487l-.169,2.043h.876C1683.055,1288.085,1684.315,1289.515,1684.315,1291.42Z"
          fill="#ea2024" />
        <path id="Path_910" data-name="Path 910" d="M1686.021,1293.417a1.49,1.49,0,0,1,2.98,0,1.49,1.49,0,1,1-2.98,0Z"
          fill="#ea2024" />
        <path id="Path_911" data-name="Path 911"
          d="M1690.693,1289.422c0-3.549,1.966-5.562,4.609-5.562,2.658,0,4.609,2.013,4.609,5.562s-1.951,5.563-4.609,5.563C1692.659,1294.985,1690.693,1292.972,1690.693,1289.422Zm6.714,0c0-2.443-.861-3.457-2.1-3.457s-2.09,1.014-2.09,3.457.86,3.457,2.09,3.457S1697.407,1291.865,1697.407,1289.422Z"
          fill="#ea2024" />
        <path id="Path_912" data-name="Path 912"
          d="M1701.9,1289.422c0-3.549,1.967-5.562,4.609-5.562,2.658,0,4.609,2.013,4.609,5.562s-1.951,5.563-4.609,5.563C1703.862,1294.985,1701.9,1292.972,1701.9,1289.422Zm6.715,0c0-2.443-.862-3.457-2.106-3.457-1.229,0-2.09,1.014-2.09,3.457s.861,3.457,2.09,3.457C1707.748,1292.879,1708.61,1291.865,1708.61,1289.422Z"
          fill="#ea2024" />
        <path id="Path_913" data-name="Path 913"
          d="M1713.1,1289.422c0-3.549,1.967-5.562,4.609-5.562,2.658,0,4.61,2.013,4.61,5.562s-1.952,5.563-4.61,5.563C1715.064,1294.985,1713.1,1292.972,1713.1,1289.422Zm6.715,0c0-2.443-.862-3.457-2.106-3.457s-2.09,1.014-2.09,3.457.861,3.457,2.09,3.457S1719.812,1291.865,1719.812,1289.422Z"
          fill="#ea2024" />
        <path id="Path_914" data-name="Path 914"
          d="M1734.348,1285.689h-1.122v9.111h-2.289v-.952a3.182,3.182,0,0,1-2.581,1.075,4.258,4.258,0,0,1,0-8.513,3.179,3.179,0,0,1,2.473,1v-1.72h-2.812v-1.383h2.812v-.907h2.4v.907h1.122Zm-3.473,4.978a2.119,2.119,0,1,0-2.1,2.289A2.094,2.094,0,0,0,1730.875,1290.667Z"
          fill="#ea2024" />
        <path id="Path_915" data-name="Path 915"
          d="M1674.481,1314.684c0,1.905-1.4,3.564-4.472,3.564a7.439,7.439,0,0,1-4.1-1.152l.984-1.9a5.178,5.178,0,0,0,3.057.967c1.246,0,2.014-.522,2.014-1.4,0-.845-.554-1.4-2.505-1.4h-2.75l.553-6.054h6.562v2h-4.488l-.169,2.043h.876C1673.221,1311.349,1674.481,1312.779,1674.481,1314.684Z"
          fill="#ea2024" />
        <path id="Path_916" data-name="Path 916"
          d="M1684.315,1314.684c0,1.905-1.4,3.564-4.472,3.564a7.439,7.439,0,0,1-4.1-1.152l.984-1.9a5.178,5.178,0,0,0,3.057.967c1.246,0,2.014-.522,2.014-1.4,0-.845-.554-1.4-2.505-1.4h-2.75l.553-6.054h6.561v2h-4.487l-.169,2.043h.876C1683.055,1311.349,1684.315,1312.779,1684.315,1314.684Z"
          fill="#ea2024" />
        <path id="Path_917" data-name="Path 917" d="M1686.021,1316.681a1.49,1.49,0,0,1,2.98,0,1.49,1.49,0,1,1-2.98,0Z"
          fill="#ea2024" />
        <path id="Path_918" data-name="Path 918"
          d="M1690.693,1312.686c0-3.549,1.966-5.563,4.609-5.563,2.658,0,4.609,2.014,4.609,5.563s-1.951,5.562-4.609,5.562C1692.659,1318.248,1690.693,1316.236,1690.693,1312.686Zm6.714,0c0-2.444-.861-3.457-2.1-3.457s-2.09,1.013-2.09,3.457.86,3.457,2.09,3.457S1697.407,1315.129,1697.407,1312.686Z"
          fill="#ea2024" />
        <path id="Path_919" data-name="Path 919"
          d="M1701.9,1312.686c0-3.549,1.967-5.563,4.609-5.563,2.658,0,4.609,2.014,4.609,5.563s-1.951,5.562-4.609,5.562C1703.862,1318.248,1701.9,1316.236,1701.9,1312.686Zm6.715,0c0-2.444-.862-3.457-2.106-3.457-1.229,0-2.09,1.013-2.09,3.457s.861,3.457,2.09,3.457C1707.748,1316.143,1708.61,1315.129,1708.61,1312.686Z"
          fill="#ea2024" />
        <path id="Path_920" data-name="Path 920"
          d="M1713.1,1312.686c0-3.549,1.967-5.563,4.609-5.563,2.658,0,4.61,2.014,4.61,5.563s-1.952,5.562-4.61,5.562C1715.064,1318.248,1713.1,1316.236,1713.1,1312.686Zm6.715,0c0-2.444-.862-3.457-2.106-3.457s-2.09,1.013-2.09,3.457.861,3.457,2.09,3.457S1719.812,1315.129,1719.812,1312.686Z"
          fill="#ea2024" />
        <path id="Path_921" data-name="Path 921"
          d="M1734.348,1308.952h-1.122v9.112h-2.289v-.952a3.185,3.185,0,0,1-2.581,1.075,4.258,4.258,0,0,1,0-8.513,3.176,3.176,0,0,1,2.473,1v-1.721h-2.812v-1.382h2.812v-.908h2.4v.908h1.122Zm-3.473,4.979a2.119,2.119,0,1,0-2.1,2.289A2.094,2.094,0,0,0,1730.875,1313.931Z"
          fill="#ea2024" />
        <path id="Path_922" data-name="Path 922"
          d="M1674.219,1335.719c0,3.719-2.228,5.793-5.485,5.793a5.751,5.751,0,0,1-2.981-.737l.922-1.83a3.466,3.466,0,0,0,2.013.539c1.782,0,2.95-1.061,3.026-3.135a3.676,3.676,0,0,1-2.673.969,3.413,3.413,0,0,1-3.7-3.351c0-2.2,1.8-3.58,4.071-3.58C1672.391,1330.387,1674.219,1332.246,1674.219,1335.719Zm-2.781-1.874c0-.922-.692-1.6-1.874-1.6a1.618,1.618,0,1,0,.03,3.212A1.669,1.669,0,0,0,1671.438,1333.845Z"
          fill="#ea2024" />
        <path id="Path_923" data-name="Path 923"
          d="M1684.315,1337.947c0,1.906-1.4,3.565-4.472,3.565a7.439,7.439,0,0,1-4.1-1.152l.984-1.906a5.172,5.172,0,0,0,3.057.968c1.246,0,2.014-.522,2.014-1.4,0-.845-.554-1.4-2.505-1.4h-2.75l.553-6.055h6.561v2h-4.487l-.169,2.042h.876C1683.055,1334.612,1684.315,1336.042,1684.315,1337.947Z"
          fill="#ea2024" />
        <path id="Path_924" data-name="Path 924" d="M1686.021,1339.945a1.49,1.49,0,0,1,2.98,0,1.49,1.49,0,1,1-2.98,0Z"
          fill="#ea2024" />
        <path id="Path_925" data-name="Path 925"
          d="M1690.693,1335.949c0-3.548,1.966-5.562,4.609-5.562,2.658,0,4.609,2.014,4.609,5.562s-1.951,5.563-4.609,5.563C1692.659,1341.512,1690.693,1339.5,1690.693,1335.949Zm6.714,0c0-2.443-.861-3.457-2.1-3.457s-2.09,1.014-2.09,3.457.86,3.457,2.09,3.457S1697.407,1338.393,1697.407,1335.949Z"
          fill="#ea2024" />
        <path id="Path_926" data-name="Path 926"
          d="M1701.9,1335.949c0-3.548,1.967-5.562,4.609-5.562,2.658,0,4.609,2.014,4.609,5.562s-1.951,5.563-4.609,5.563C1703.862,1341.512,1701.9,1339.5,1701.9,1335.949Zm6.715,0c0-2.443-.862-3.457-2.106-3.457-1.229,0-2.09,1.014-2.09,3.457s.861,3.457,2.09,3.457C1707.748,1339.406,1708.61,1338.393,1708.61,1335.949Z"
          fill="#ea2024" />
        <path id="Path_927" data-name="Path 927"
          d="M1713.1,1335.949c0-3.548,1.967-5.562,4.609-5.562,2.658,0,4.61,2.014,4.61,5.562s-1.952,5.563-4.61,5.563C1715.063,1341.512,1713.1,1339.5,1713.1,1335.949Zm6.715,0c0-2.443-.862-3.457-2.106-3.457-1.229,0-2.09,1.014-2.09,3.457s.861,3.457,2.09,3.457C1718.949,1339.406,1719.811,1338.393,1719.811,1335.949Z"
          fill="#ea2024" />
        <path id="Path_928" data-name="Path 928"
          d="M1734.347,1332.216h-1.122v9.111h-2.289v-.952a3.182,3.182,0,0,1-2.581,1.075,4.258,4.258,0,0,1,0-8.512,3.176,3.176,0,0,1,2.473,1v-1.721h-2.812v-1.383h2.812v-.907h2.4v.907h1.122Zm-3.473,4.979a2.119,2.119,0,1,0-2.1,2.289A2.1,2.1,0,0,0,1730.874,1337.195Z"
          fill="#ea2024" />
        <path id="Path_929" data-name="Path 929" d="M1666.751,1353.836v10.756h-2.489v-8.759h-2.151v-2Z"
          fill="#ea2024" />
        <path id="Path_930" data-name="Path 930" d="M1673.543,1353.836v10.756h-2.489v-8.759H1668.9v-2Z"
          fill="#ea2024" />
        <path id="Path_931" data-name="Path 931"
          d="M1684.315,1361.211c0,1.9-1.4,3.566-4.472,3.566a7.424,7.424,0,0,1-4.1-1.154l.984-1.905a5.173,5.173,0,0,0,3.057.969c1.246,0,2.014-.523,2.014-1.4,0-.845-.554-1.4-2.505-1.4h-2.75l.553-6.054h6.561v2h-4.487l-.169,2.044h.876C1683.055,1357.877,1684.315,1359.306,1684.315,1361.211Z"
          fill="#ea2024" />
        <path id="Path_932" data-name="Path 932" d="M1686.021,1363.209a1.49,1.49,0,0,1,2.98,0,1.49,1.49,0,1,1-2.98,0Z"
          fill="#ea2024" />
        <path id="Path_933" data-name="Path 933"
          d="M1690.693,1359.214c0-3.55,1.966-5.562,4.609-5.562,2.658,0,4.609,2.012,4.609,5.562s-1.951,5.563-4.609,5.563C1692.659,1364.777,1690.693,1362.763,1690.693,1359.214Zm6.714,0c0-2.443-.861-3.458-2.1-3.458s-2.09,1.015-2.09,3.458.86,3.457,2.09,3.457S1697.407,1361.656,1697.407,1359.214Z"
          fill="#ea2024" />
        <path id="Path_934" data-name="Path 934"
          d="M1701.9,1359.214c0-3.55,1.967-5.562,4.609-5.562,2.658,0,4.609,2.012,4.609,5.562s-1.951,5.563-4.609,5.563C1703.862,1364.777,1701.9,1362.763,1701.9,1359.214Zm6.715,0c0-2.443-.862-3.458-2.106-3.458-1.229,0-2.09,1.015-2.09,3.458s.861,3.457,2.09,3.457C1707.748,1362.671,1708.61,1361.656,1708.61,1359.214Z"
          fill="#ea2024" />
        <path id="Path_935" data-name="Path 935"
          d="M1713.1,1359.214c0-3.55,1.967-5.562,4.609-5.562,2.658,0,4.61,2.012,4.61,5.562s-1.952,5.563-4.61,5.563C1715.063,1364.777,1713.1,1362.763,1713.1,1359.214Zm6.715,0c0-2.443-.862-3.458-2.106-3.458-1.229,0-2.09,1.015-2.09,3.458s.861,3.457,2.09,3.457C1718.949,1362.671,1719.811,1361.656,1719.811,1359.214Z"
          fill="#ea2024" />
        <path id="Path_936" data-name="Path 936"
          d="M1734.347,1355.48h-1.122v9.112h-2.289v-.953a3.18,3.18,0,0,1-2.581,1.076,4.258,4.258,0,0,1,0-8.513,3.176,3.176,0,0,1,2.473,1v-1.721h-2.812V1354.1h2.812v-.906h2.4v.906h1.122Zm-3.473,4.978a2.119,2.119,0,1,0-2.1,2.29A2.094,2.094,0,0,0,1730.874,1360.458Z"
          fill="#ea2024" />
        <path id="Path_937" data-name="Path 937"
          d="M1674.28,1384.737c0,2.028-1.813,3.3-4.547,3.3s-4.518-1.275-4.518-3.3a2.737,2.737,0,0,1,1.629-2.537,2.481,2.481,0,0,1-1.245-2.212c0-1.89,1.69-3.073,4.134-3.073,2.473,0,4.164,1.183,4.164,3.073a2.5,2.5,0,0,1-1.261,2.212A2.726,2.726,0,0,1,1674.28,1384.737Zm-2.519-.078c0-.953-.784-1.536-2.028-1.536s-2,.583-2,1.536.768,1.552,2,1.552S1671.761,1385.612,1671.761,1384.659Zm-3.689-4.563c0,.814.646,1.321,1.661,1.321s1.689-.507,1.689-1.321c0-.846-.676-1.353-1.689-1.353S1668.072,1379.25,1668.072,1380.1Z"
          fill="#ea2024" />
        <path id="Path_938" data-name="Path 938"
          d="M1684.315,1384.475c0,1.905-1.4,3.565-4.472,3.565a7.432,7.432,0,0,1-4.1-1.153l.984-1.9a5.172,5.172,0,0,0,3.057.968c1.246,0,2.014-.522,2.014-1.4,0-.846-.554-1.4-2.505-1.4h-2.75l.553-6.054h6.561v2h-4.487l-.169,2.044h.876C1683.055,1381.141,1684.315,1382.57,1684.315,1384.475Z"
          fill="#ea2024" />
        <path id="Path_939" data-name="Path 939" d="M1686.021,1386.473a1.49,1.49,0,0,1,2.98,0,1.49,1.49,0,1,1-2.98,0Z"
          fill="#ea2024" />
        <path id="Path_940" data-name="Path 940"
          d="M1690.693,1382.478c0-3.55,1.966-5.563,4.609-5.563,2.658,0,4.609,2.013,4.609,5.563s-1.951,5.562-4.609,5.562C1692.659,1388.04,1690.693,1386.027,1690.693,1382.478Zm6.714,0c0-2.444-.861-3.458-2.1-3.458s-2.09,1.014-2.09,3.458.86,3.457,2.09,3.457S1697.407,1384.92,1697.407,1382.478Z"
          fill="#ea2024" />
        <path id="Path_941" data-name="Path 941"
          d="M1701.9,1382.478c0-3.55,1.967-5.563,4.609-5.563,2.658,0,4.609,2.013,4.609,5.563s-1.951,5.562-4.609,5.562C1703.862,1388.04,1701.9,1386.027,1701.9,1382.478Zm6.715,0c0-2.444-.862-3.458-2.106-3.458-1.229,0-2.09,1.014-2.09,3.458s.861,3.457,2.09,3.457C1707.748,1385.935,1708.61,1384.92,1708.61,1382.478Z"
          fill="#ea2024" />
        <path id="Path_942" data-name="Path 942"
          d="M1713.1,1382.478c0-3.55,1.967-5.563,4.609-5.563,2.658,0,4.61,2.013,4.61,5.563s-1.952,5.562-4.61,5.562C1715.063,1388.04,1713.1,1386.027,1713.1,1382.478Zm6.715,0c0-2.444-.862-3.458-2.106-3.458-1.229,0-2.09,1.014-2.09,3.458s.861,3.457,2.09,3.457C1718.949,1385.935,1719.811,1384.92,1719.811,1382.478Z"
          fill="#ea2024" />
        <path id="Path_943" data-name="Path 943"
          d="M1734.347,1378.743h-1.122v9.113h-2.289v-.953a3.183,3.183,0,0,1-2.581,1.076,4.258,4.258,0,0,1,0-8.513,3.172,3.172,0,0,1,2.473,1v-1.722h-2.812v-1.382h2.812v-.907h2.4v.907h1.122Zm-3.473,4.979a2.119,2.119,0,1,0-2.1,2.29A2.094,2.094,0,0,0,1730.874,1383.722Z"
          fill="#ea2024" />
        <path id="Path_944" data-name="Path 944"
          d="M1673.19,1408c0,2.029-1.814,3.3-4.548,3.3s-4.518-1.275-4.518-3.3a2.736,2.736,0,0,1,1.629-2.536,2.481,2.481,0,0,1-1.245-2.212c0-1.89,1.69-3.073,4.134-3.073,2.473,0,4.164,1.183,4.164,3.073a2.5,2.5,0,0,1-1.261,2.212A2.727,2.727,0,0,1,1673.19,1408Zm-2.52-.077c0-.953-.784-1.536-2.028-1.536s-2,.583-2,1.536.768,1.552,2,1.552S1670.67,1408.876,1670.67,1407.923Zm-3.688-4.563c0,.814.645,1.321,1.66,1.321s1.689-.507,1.689-1.321c0-.846-.676-1.353-1.689-1.353S1666.982,1402.514,1666.982,1403.36Z"
          fill="#ea2024" />
        <path id="Path_945" data-name="Path 945"
          d="M1675.1,1405.741c0-3.549,1.967-5.562,4.609-5.562,2.658,0,4.61,2.013,4.61,5.562s-1.952,5.563-4.61,5.563C1677.063,1411.3,1675.1,1409.29,1675.1,1405.741Zm6.715,0c0-2.443-.862-3.458-2.106-3.458-1.229,0-2.09,1.015-2.09,3.458s.861,3.457,2.09,3.457C1680.949,1409.2,1681.811,1408.184,1681.811,1405.741Z"
          fill="#ea2024" />
        <path id="Path_946" data-name="Path 946" d="M1686.021,1409.737a1.49,1.49,0,0,1,2.98,0,1.49,1.49,0,1,1-2.98,0Z"
          fill="#ea2024" />
        <path id="Path_947" data-name="Path 947"
          d="M1690.693,1405.741c0-3.549,1.966-5.562,4.609-5.562,2.658,0,4.609,2.013,4.609,5.562s-1.951,5.563-4.609,5.563C1692.659,1411.3,1690.693,1409.29,1690.693,1405.741Zm6.714,0c0-2.443-.861-3.458-2.1-3.458s-2.09,1.015-2.09,3.458.86,3.457,2.09,3.457S1697.407,1408.184,1697.407,1405.741Z"
          fill="#ea2024" />
        <path id="Path_948" data-name="Path 948"
          d="M1701.9,1405.741c0-3.549,1.967-5.562,4.609-5.562,2.658,0,4.609,2.013,4.609,5.562s-1.951,5.563-4.609,5.563C1703.862,1411.3,1701.9,1409.29,1701.9,1405.741Zm6.715,0c0-2.443-.862-3.458-2.106-3.458-1.229,0-2.09,1.015-2.09,3.458s.861,3.457,2.09,3.457C1707.748,1409.2,1708.61,1408.184,1708.61,1405.741Z"
          fill="#ea2024" />
        <path id="Path_949" data-name="Path 949"
          d="M1713.1,1405.741c0-3.549,1.967-5.562,4.609-5.562,2.658,0,4.61,2.013,4.61,5.562s-1.952,5.563-4.61,5.563C1715.064,1411.3,1713.1,1409.29,1713.1,1405.741Zm6.715,0c0-2.443-.862-3.458-2.106-3.458s-2.09,1.015-2.09,3.458.861,3.457,2.09,3.457S1719.812,1408.184,1719.812,1405.741Z"
          fill="#ea2024" />
        <path id="Path_950" data-name="Path 950"
          d="M1734.347,1402.007h-1.122v9.112h-2.289v-.953a3.18,3.18,0,0,1-2.581,1.076,4.258,4.258,0,0,1,0-8.512,3.172,3.172,0,0,1,2.473,1v-1.722h-2.812v-1.383h2.812v-.906h2.4v.906h1.122Zm-3.473,4.979a2.119,2.119,0,1,0-2.1,2.29A2.095,2.095,0,0,0,1730.874,1406.986Z"
          fill="#ea2024" />
        <path id="Path_951" data-name="Path 951"
          d="M1673.19,1431.264c0,2.028-1.814,3.3-4.548,3.3s-4.518-1.276-4.518-3.3a2.734,2.734,0,0,1,1.629-2.535,2.482,2.482,0,0,1-1.245-2.213c0-1.89,1.69-3.073,4.134-3.073,2.473,0,4.164,1.183,4.164,3.073a2.5,2.5,0,0,1-1.261,2.213A2.725,2.725,0,0,1,1673.19,1431.264Zm-2.52-.077c0-.952-.784-1.536-2.028-1.536s-2,.584-2,1.536.768,1.552,2,1.552S1670.67,1432.14,1670.67,1431.187Zm-3.688-4.564c0,.815.645,1.322,1.66,1.322s1.689-.507,1.689-1.322c0-.844-.676-1.351-1.689-1.351S1666.982,1425.779,1666.982,1426.623Z"
          fill="#ea2024" />
        <path id="Path_952" data-name="Path 952"
          d="M1675.1,1429.005c0-3.549,1.967-5.562,4.609-5.562,2.658,0,4.61,2.013,4.61,5.562s-1.952,5.563-4.61,5.563C1677.063,1434.568,1675.1,1432.555,1675.1,1429.005Zm6.715,0c0-2.443-.862-3.457-2.106-3.457-1.229,0-2.09,1.014-2.09,3.457s.861,3.457,2.09,3.457C1680.949,1432.462,1681.811,1431.448,1681.811,1429.005Z"
          fill="#ea2024" />
        <path id="Path_953" data-name="Path 953" d="M1686.021,1433a1.49,1.49,0,0,1,2.98,0,1.49,1.49,0,1,1-2.98,0Z"
          fill="#ea2024" />
        <path id="Path_954" data-name="Path 954"
          d="M1690.693,1429.005c0-3.549,1.966-5.562,4.609-5.562,2.658,0,4.609,2.013,4.609,5.562s-1.951,5.563-4.609,5.563C1692.659,1434.568,1690.693,1432.555,1690.693,1429.005Zm6.714,0c0-2.443-.861-3.457-2.1-3.457s-2.09,1.014-2.09,3.457.86,3.457,2.09,3.457S1697.407,1431.448,1697.407,1429.005Z"
          fill="#ea2024" />
        <path id="Path_955" data-name="Path 955"
          d="M1701.9,1429.005c0-3.549,1.967-5.562,4.609-5.562,2.658,0,4.609,2.013,4.609,5.562s-1.951,5.563-4.609,5.563C1703.862,1434.568,1701.9,1432.555,1701.9,1429.005Zm6.715,0c0-2.443-.862-3.457-2.106-3.457-1.229,0-2.09,1.014-2.09,3.457s.861,3.457,2.09,3.457C1707.748,1432.462,1708.61,1431.448,1708.61,1429.005Z"
          fill="#ea2024" />
        <path id="Path_956" data-name="Path 956"
          d="M1713.1,1429.005c0-3.549,1.967-5.562,4.609-5.562,2.658,0,4.61,2.013,4.61,5.562s-1.952,5.563-4.61,5.563C1715.064,1434.568,1713.1,1432.555,1713.1,1429.005Zm6.715,0c0-2.443-.862-3.457-2.106-3.457s-2.09,1.014-2.09,3.457.861,3.457,2.09,3.457S1719.812,1431.448,1719.812,1429.005Z"
          fill="#ea2024" />
        <path id="Path_957" data-name="Path 957"
          d="M1734.347,1425.272h-1.122v9.111h-2.289v-.952a3.182,3.182,0,0,1-2.581,1.075,4.258,4.258,0,0,1,0-8.513,3.179,3.179,0,0,1,2.473,1v-1.72h-2.812v-1.383h2.812v-.907h2.4v.907h1.122Zm-3.473,4.978a2.119,2.119,0,1,0-2.1,2.289A2.094,2.094,0,0,0,1730.874,1430.25Z"
          fill="#ea2024" />
        <path id="Path_958" data-name="Path 958"
          d="M1673.589,1455.388h-1.751v2.259h-2.428v-2.259h-5.793v-1.675l5.071-6.822h2.612l-4.7,6.469h2.889v-2.013h2.351v2.013h1.751Z"
          fill="#ea2024" />
        <path id="Path_959" data-name="Path 959"
          d="M1675.1,1452.269c0-3.549,1.967-5.563,4.609-5.563,2.658,0,4.61,2.014,4.61,5.563s-1.952,5.562-4.61,5.562C1677.063,1457.831,1675.1,1455.819,1675.1,1452.269Zm6.715,0c0-2.444-.862-3.457-2.106-3.457-1.229,0-2.09,1.013-2.09,3.457s.861,3.457,2.09,3.457C1680.949,1455.726,1681.811,1454.712,1681.811,1452.269Z"
          fill="#ea2024" />
        <path id="Path_960" data-name="Path 960" d="M1686.022,1456.264a1.49,1.49,0,0,1,2.98,0,1.49,1.49,0,1,1-2.98,0Z"
          fill="#ea2024" />
        <path id="Path_961" data-name="Path 961"
          d="M1690.694,1452.269c0-3.549,1.966-5.563,4.609-5.563,2.658,0,4.609,2.014,4.609,5.563s-1.951,5.562-4.609,5.562C1692.66,1457.831,1690.694,1455.819,1690.694,1452.269Zm6.714,0c0-2.444-.861-3.457-2.1-3.457s-2.09,1.013-2.09,3.457.86,3.457,2.09,3.457S1697.408,1454.712,1697.408,1452.269Z"
          fill="#ea2024" />
        <path id="Path_962" data-name="Path 962"
          d="M1701.9,1452.269c0-3.549,1.967-5.563,4.609-5.563,2.658,0,4.609,2.014,4.609,5.563s-1.951,5.562-4.609,5.562C1703.862,1457.831,1701.9,1455.819,1701.9,1452.269Zm6.715,0c0-2.444-.862-3.457-2.106-3.457-1.229,0-2.09,1.013-2.09,3.457s.861,3.457,2.09,3.457C1707.748,1455.726,1708.61,1454.712,1708.61,1452.269Z"
          fill="#ea2024" />
        <path id="Path_963" data-name="Path 963"
          d="M1713.1,1452.269c0-3.549,1.967-5.563,4.609-5.563,2.658,0,4.61,2.014,4.61,5.563s-1.952,5.562-4.61,5.562C1715.064,1457.831,1713.1,1455.819,1713.1,1452.269Zm6.715,0c0-2.444-.862-3.457-2.106-3.457s-2.09,1.013-2.09,3.457.861,3.457,2.09,3.457S1719.812,1454.712,1719.812,1452.269Z"
          fill="#ea2024" />
        <path id="Path_964" data-name="Path 964"
          d="M1734.348,1448.535h-1.122v9.112h-2.289v-.952a3.185,3.185,0,0,1-2.581,1.075,4.258,4.258,0,0,1,0-8.513,3.176,3.176,0,0,1,2.473,1v-1.721h-2.812v-1.382h2.812v-.908h2.4v.908h1.122Zm-3.473,4.979a2.119,2.119,0,1,0-2.1,2.289A2.094,2.094,0,0,0,1730.875,1453.514Z"
          fill="#ea2024" />
        <path id="Path_965" data-name="Path 965"
          d="M1674.219,1475.3c0,3.719-2.228,5.793-5.485,5.793a5.751,5.751,0,0,1-2.981-.737l.922-1.829a3.473,3.473,0,0,0,2.013.538c1.782,0,2.95-1.061,3.026-3.135a3.676,3.676,0,0,1-2.673.969,3.413,3.413,0,0,1-3.7-3.351c0-2.2,1.8-3.58,4.071-3.58C1672.391,1469.97,1674.219,1471.829,1674.219,1475.3Zm-2.781-1.874c0-.922-.692-1.6-1.874-1.6a1.618,1.618,0,1,0,.03,3.212A1.669,1.669,0,0,0,1671.438,1473.428Z"
          fill="#ea2024" />
        <path id="Path_966" data-name="Path 966"
          d="M1684.315,1477.53c0,1.906-1.4,3.565-4.472,3.565a7.439,7.439,0,0,1-4.1-1.152l.984-1.906a5.172,5.172,0,0,0,3.057.968c1.246,0,2.014-.522,2.014-1.4,0-.845-.554-1.4-2.505-1.4h-2.75l.553-6.055h6.561v2h-4.487l-.169,2.042h.876C1683.055,1474.195,1684.315,1475.625,1684.315,1477.53Z"
          fill="#ea2024" />
        <path id="Path_967" data-name="Path 967" d="M1686.021,1479.528a1.49,1.49,0,0,1,2.98,0,1.49,1.49,0,1,1-2.98,0Z"
          fill="#ea2024" />
        <path id="Path_968" data-name="Path 968"
          d="M1690.693,1475.532c0-3.548,1.966-5.562,4.609-5.562,2.658,0,4.609,2.014,4.609,5.562s-1.951,5.563-4.609,5.563C1692.659,1481.095,1690.693,1479.082,1690.693,1475.532Zm6.714,0c0-2.443-.861-3.457-2.1-3.457s-2.09,1.014-2.09,3.457.86,3.457,2.09,3.457S1697.407,1477.976,1697.407,1475.532Z"
          fill="#ea2024" />
        <path id="Path_969" data-name="Path 969"
          d="M1701.9,1475.532c0-3.548,1.967-5.562,4.609-5.562,2.658,0,4.609,2.014,4.609,5.562s-1.951,5.563-4.609,5.563C1703.862,1481.095,1701.9,1479.082,1701.9,1475.532Zm6.715,0c0-2.443-.862-3.457-2.106-3.457-1.229,0-2.09,1.014-2.09,3.457s.861,3.457,2.09,3.457C1707.748,1478.989,1708.61,1477.976,1708.61,1475.532Z"
          fill="#ea2024" />
        <path id="Path_970" data-name="Path 970"
          d="M1713.1,1475.532c0-3.548,1.967-5.562,4.609-5.562,2.658,0,4.61,2.014,4.61,5.562s-1.952,5.563-4.61,5.563C1715.063,1481.095,1713.1,1479.082,1713.1,1475.532Zm6.715,0c0-2.443-.862-3.457-2.106-3.457-1.229,0-2.09,1.014-2.09,3.457s.861,3.457,2.09,3.457C1718.949,1478.989,1719.811,1477.976,1719.811,1475.532Z"
          fill="#ea2024" />
        <path id="Path_971" data-name="Path 971"
          d="M1734.347,1471.8h-1.122v9.111h-2.289v-.952a3.182,3.182,0,0,1-2.581,1.075,4.258,4.258,0,0,1,0-8.512,3.176,3.176,0,0,1,2.473,1V1471.8h-2.812v-1.383h2.812v-.907h2.4v.907h1.122Zm-3.473,4.979a2.119,2.119,0,1,0-2.1,2.289A2.1,2.1,0,0,0,1730.874,1476.778Z"
          fill="#ea2024" />
      </g>
    </g>
  </g>
</svg>
