<svg xmlns="http://www.w3.org/2000/svg" xmlns:xlink="http://www.w3.org/1999/xlink" width="238" height="74" viewBox="0 0 238 74">
  <defs>
    <clipPath id="clip-Web_1920_1">
      <rect width="238" height="74"/>
    </clipPath>
  </defs>
  <g id="Web_1920_1" data-name="Web 1920 – 1" clip-path="url(#clip-Web_1920_1)">
    <g id="Group_346" data-name="Group 346" transform="translate(-62.273 -1091.34)">
      <g id="Group_345" data-name="Group 345">
        <path id="Path_3668" data-name="Path 3668" d="M64.544,1091.978v5.127H63.357v-4.175H62.332v-.952Z" fill="#57574d"/>
        <path id="Path_3669" data-name="Path 3669" d="M65.768,1096.446a.71.71,0,0,1,1.42,0,.71.71,0,1,1-1.42,0Z" fill="#57574d"/>
        <path id="Path_3670" data-name="Path 3670" d="M75.554,1091.978v5.127H74.58l-2.557-3.112v3.112H70.852v-5.127h.981l2.549,3.112v-3.112Z" fill="#57574d"/>
        <path id="Path_3671" data-name="Path 3671" d="M81.121,1093.164v3.282a1.929,1.929,0,0,1-2.212,2.138,3.243,3.243,0,0,1-1.933-.542l.454-.82a2.354,2.354,0,0,0,1.391.446c.806,0,1.157-.365,1.157-1.076v-.168a1.622,1.622,0,0,1-1.245.49,1.905,1.905,0,1,1,0-3.808,1.58,1.58,0,0,1,1.3.564v-.506Zm-1.128,1.846a1.039,1.039,0,1,0-1.033.967A.957.957,0,0,0,79.993,1095.01Z" fill="#57574d"/>
        <path id="Path_3672" data-name="Path 3672" d="M86.037,1094.856v2.249H84.968v-.491a1.294,1.294,0,0,1-1.2.549c-.923,0-1.473-.512-1.473-1.194s.491-1.179,1.692-1.179h.909c0-.491-.293-.776-.909-.776a1.9,1.9,0,0,0-1.135.366l-.41-.8a3.025,3.025,0,0,1,1.7-.476C85.341,1093.106,86.037,1093.662,86.037,1094.856Zm-1.142,1v-.4h-.784c-.535,0-.7.2-.7.461,0,.285.241.477.644.477A.843.843,0,0,0,84.895,1095.86Z" fill="#57574d"/>
        <path id="Path_3673" data-name="Path 3673" d="M91.465,1094.849v2.256H90.322v-2.08c0-.638-.293-.931-.8-.931-.549,0-.945.338-.945,1.063v1.948H87.437v-3.941h1.091v.461a1.727,1.727,0,0,1,1.3-.519A1.545,1.545,0,0,1,91.465,1094.849Z" fill="#57574d"/>
        <path id="Path_3674" data-name="Path 3674" d="M95.011,1095.135a2.037,2.037,0,0,1,2.2-2.029,1.811,1.811,0,0,1,1.766,1l-.887.475a.981.981,0,0,0-.886-.542,1.093,1.093,0,0,0,0,2.183.968.968,0,0,0,.886-.542l.887.483a1.829,1.829,0,0,1-1.766,1A2.037,2.037,0,0,1,95.011,1095.135Z" fill="#57574d"/>
        <path id="Path_3675" data-name="Path 3675" d="M104,1094.849v2.256h-1.143v-2.08c0-.638-.293-.931-.8-.931-.55,0-.945.338-.945,1.063v1.948H99.97v-5.435h1.143v1.9a1.729,1.729,0,0,1,1.252-.469A1.545,1.545,0,0,1,104,1094.849Z" fill="#57574d"/>
        <path id="Path_3676" data-name="Path 3676" d="M108.885,1094.856v2.249h-1.07v-.491a1.292,1.292,0,0,1-1.2.549c-.923,0-1.472-.512-1.472-1.194s.491-1.179,1.692-1.179h.908c0-.491-.293-.776-.908-.776a1.891,1.891,0,0,0-1.135.366l-.41-.8a3.025,3.025,0,0,1,1.7-.476C108.189,1093.106,108.885,1093.662,108.885,1094.856Zm-3.128-3.252h.718a.642.642,0,0,0,1.26,0h.718a1.373,1.373,0,0,1-2.7,0Zm1.985,4.256v-.4h-.784c-.534,0-.7.2-.7.461,0,.285.242.477.645.477A.842.842,0,0,0,107.742,1095.86Zm-.22,2.293a.505.505,0,0,1-1.01,0,.505.505,0,1,1,1.01,0Z" fill="#57574d"/>
        <path id="Path_3677" data-name="Path 3677" d="M112.826,1096.914a1.639,1.639,0,0,1-.931.249,1.3,1.3,0,0,1-1.472-1.413v-1.619h-.608v-.879h.608v-.959h1.143v.959h.981v.879h-.981v1.6a.459.459,0,0,0,.491.52.777.777,0,0,0,.461-.146Z" fill="#57574d"/>
        <path id="Path_3678" data-name="Path 3678" d="M120.342,1093.164v3.282a1.929,1.929,0,0,1-2.212,2.138,3.248,3.248,0,0,1-1.934-.542l.454-.82a2.357,2.357,0,0,0,1.392.446c.806,0,1.157-.365,1.157-1.076v-.168a1.622,1.622,0,0,1-1.245.49,1.905,1.905,0,1,1,0-3.808,1.583,1.583,0,0,1,1.3.564v-.506Zm-1.128,1.846a1.039,1.039,0,1,0-1.033.967A.957.957,0,0,0,119.214,1095.01Z" fill="#57574d"/>
        <path id="Path_3679" data-name="Path 3679" d="M121.478,1095.135a2.169,2.169,0,1,1,2.168,2.028A2.029,2.029,0,0,1,121.478,1095.135Zm3.171,0a1.01,1.01,0,1,0-1,1.091A.994.994,0,0,0,124.649,1095.135Zm-.695-3.531h1.23l-1.326,1.055h-.893Z" fill="#57574d"/>
        <path id="Path_3680" data-name="Path 3680" d="M126.643,1095.135a2.037,2.037,0,0,1,2.2-2.029,1.811,1.811,0,0,1,1.765,1l-.886.475a.984.984,0,0,0-.887-.542,1.093,1.093,0,0,0,0,2.183.971.971,0,0,0,.887-.542l.886.483a1.828,1.828,0,0,1-1.765,1A2.037,2.037,0,0,1,126.643,1095.135Z" fill="#57574d"/>
        <path id="Path_3681" data-name="Path 3681" d="M138.619,1092.762h-.535v4.343h-1.091v-.454a1.52,1.52,0,0,1-1.231.512,2.029,2.029,0,0,1,0-4.057,1.512,1.512,0,0,1,1.179.476v-.82H135.6v-.66h1.34v-.432h1.143v.432h.535Zm-1.656,2.373a1.01,1.01,0,1,0-1,1.091A1,1,0,0,0,136.963,1095.135Z" fill="#57574d"/>
        <path id="Path_3682" data-name="Path 3682" d="M143.475,1093.164v3.941h-1.084v-.469a1.591,1.591,0,0,1-1.223.527,1.57,1.57,0,0,1-1.685-1.772v-2.227h1.143v2.059c0,.658.293.951.8.951.528,0,.908-.336.908-1.061v-1.949Zm-2.226-.5-1.326-1.055h1.23l.989,1.055Z" fill="#57574d"/>
        <path id="Path_3683" data-name="Path 3683" d="M144.765,1091.978a.654.654,0,0,1,.711-.638.642.642,0,0,1,.71.615.713.713,0,0,1-1.421.023Zm.139,1.186h1.143v3.941H144.9Z" fill="#57574d"/>
        <path id="Path_3684" data-name="Path 3684" d="M66.4,1107.228v.967H62.522v-.769l1.978-1.868c.454-.433.535-.7.535-.944,0-.4-.279-.638-.821-.638a1.255,1.255,0,0,0-1.062.513l-.864-.557a2.383,2.383,0,0,1,2.036-.952c1.143,0,1.9.586,1.9,1.516a2.048,2.048,0,0,1-.856,1.619l-1.18,1.113Z" fill="#57574d"/>
        <path id="Path_3685" data-name="Path 3685" d="M67.291,1107.535a.711.711,0,0,1,1.421,0,.711.711,0,1,1-1.421,0Z" fill="#57574d"/>
        <path id="Path_3686" data-name="Path 3686" d="M77.077,1103.068v5.127H76.1l-2.556-3.113v3.113H72.375v-5.127h.981l2.549,3.112v-3.112Z" fill="#57574d"/>
        <path id="Path_3687" data-name="Path 3687" d="M82.645,1104.254v3.281a1.929,1.929,0,0,1-2.212,2.139,3.246,3.246,0,0,1-1.934-.542l.454-.82a2.361,2.361,0,0,0,1.392.446c.805,0,1.157-.365,1.157-1.076v-.168a1.623,1.623,0,0,1-1.245.49,1.905,1.905,0,1,1,0-3.808,1.583,1.583,0,0,1,1.3.564v-.506Zm-1.128,1.846a1.039,1.039,0,1,0-1.033.967A.958.958,0,0,0,81.517,1106.1Z" fill="#57574d"/>
        <path id="Path_3688" data-name="Path 3688" d="M87.561,1105.946v2.249h-1.07v-.492a1.29,1.29,0,0,1-1.2.55c-.923,0-1.472-.512-1.472-1.194s.491-1.179,1.692-1.179h.908c0-.491-.293-.776-.908-.776a1.9,1.9,0,0,0-1.136.366l-.41-.8a3.028,3.028,0,0,1,1.7-.476C86.865,1104.2,87.561,1104.752,87.561,1105.946Zm-1.143,1v-.4h-.784c-.534,0-.7.2-.7.461,0,.285.242.477.645.477A.842.842,0,0,0,86.418,1106.95Z" fill="#57574d"/>
        <path id="Path_3689" data-name="Path 3689" d="M92.988,1105.939v2.256H91.846v-2.08c0-.638-.293-.931-.8-.931-.549,0-.944.338-.944,1.062v1.949H88.96v-3.941h1.091v.461a1.729,1.729,0,0,1,1.3-.519A1.544,1.544,0,0,1,92.988,1105.939Z" fill="#57574d"/>
        <path id="Path_3690" data-name="Path 3690" d="M96.535,1106.225a2.036,2.036,0,0,1,2.2-2.029,1.81,1.81,0,0,1,1.765,1l-.886.475a.983.983,0,0,0-.886-.542,1.093,1.093,0,0,0,0,2.183.97.97,0,0,0,.886-.542l.886.483a1.828,1.828,0,0,1-1.765,1A2.037,2.037,0,0,1,96.535,1106.225Z" fill="#57574d"/>
        <path id="Path_3691" data-name="Path 3691" d="M105.522,1105.939v2.256h-1.143v-2.08c0-.638-.293-.931-.8-.931-.549,0-.945.338-.945,1.062v1.949h-1.142v-5.435h1.142v1.9a1.735,1.735,0,0,1,1.253-.468A1.544,1.544,0,0,1,105.522,1105.939Z" fill="#57574d"/>
        <path id="Path_3692" data-name="Path 3692" d="M110.408,1105.946v2.249h-1.069v-.492a1.292,1.292,0,0,1-1.2.55c-.923,0-1.472-.512-1.472-1.194s.49-1.179,1.691-1.179h.909c0-.491-.293-.776-.909-.776a1.9,1.9,0,0,0-1.135.366l-.41-.8a3.025,3.025,0,0,1,1.7-.476C109.712,1104.2,110.408,1104.752,110.408,1105.946Zm-3.127-3.252H108a.641.641,0,0,0,1.259,0h.718a1.372,1.372,0,0,1-2.695,0Zm1.985,4.256v-.4h-.784c-.535,0-.7.2-.7.461,0,.285.241.477.644.477A.843.843,0,0,0,109.266,1106.95Zm-.22,2.293a.506.506,0,0,1-1.011,0,.506.506,0,1,1,1.011,0Z" fill="#57574d"/>
        <path id="Path_3693" data-name="Path 3693" d="M114.349,1108a1.637,1.637,0,0,1-.93.249,1.3,1.3,0,0,1-1.472-1.413v-1.619h-.608v-.879h.608v-.959h1.142v.959h.982v.879h-.982v1.6a.46.46,0,0,0,.491.52.774.774,0,0,0,.461-.146Z" fill="#57574d"/>
        <path id="Path_3694" data-name="Path 3694" d="M117.881,1102.76h1.985v.894h-.843v5.068h.843v.894h-1.985Z" fill="#57574d"/>
        <path id="Path_3695" data-name="Path 3695" d="M125.038,1103.068v5.127h-1.187v-4.175h-1.025v-.952Z" fill="#57574d"/>
        <path id="Path_3696" data-name="Path 3696" d="M128.187,1102.028h1.019l-2.417,6.9H125.77Z" fill="#57574d"/>
        <path id="Path_3697" data-name="Path 3697" d="M133.366,1107.228v.967h-3.874v-.769l1.977-1.868c.454-.433.535-.7.535-.944,0-.4-.278-.638-.82-.638a1.254,1.254,0,0,0-1.062.513l-.865-.557a2.384,2.384,0,0,1,2.036-.952c1.143,0,1.9.586,1.9,1.516a2.046,2.046,0,0,1-.857,1.619l-1.179,1.113Z" fill="#57574d"/>
        <path id="Path_3698" data-name="Path 3698" d="M136.612,1106.225a2.036,2.036,0,0,1,2.2-2.029,1.809,1.809,0,0,1,1.765,1l-.886.475a.981.981,0,0,0-.886-.542,1.093,1.093,0,0,0,0,2.183.968.968,0,0,0,.886-.542l.886.483a1.827,1.827,0,0,1-1.765,1A2.037,2.037,0,0,1,136.612,1106.225Z" fill="#57574d"/>
        <path id="Path_3699" data-name="Path 3699" d="M141.256,1106.225a2.169,2.169,0,1,1,2.168,2.028A2.028,2.028,0,0,1,141.256,1106.225Zm3.171,0a1.01,1.01,0,1,0-1,1.091A.994.994,0,0,0,144.427,1106.225Z" fill="#57574d"/>
        <path id="Path_3700" data-name="Path 3700" d="M150.742,1105.939v2.256H149.6v-2.08c0-.638-.293-.931-.8-.931-.549,0-.945.338-.945,1.062v1.949h-1.142v-3.941H147.8v.461a1.729,1.729,0,0,1,1.3-.519A1.544,1.544,0,0,1,150.742,1105.939Z" fill="#57574d"/>
        <path id="Path_3701" data-name="Path 3701" d="M154.164,1109.616v-.894H155v-5.068h-.835v-.894h1.978v6.856Z" fill="#57574d"/>
        <path id="Path_3702" data-name="Path 3702" d="M66.353,1117.718c0,.864-.666,1.655-2.124,1.655a3.529,3.529,0,0,1-1.956-.548l.462-.909a2.489,2.489,0,0,0,1.465.461c.593,0,.959-.242.959-.659,0-.388-.285-.63-.959-.63h-.542v-.783l1.054-1.194H62.53v-.952h3.589v.769l-1.158,1.318A1.457,1.457,0,0,1,66.353,1117.718Z" fill="#57574d"/>
        <path id="Path_3703" data-name="Path 3703" d="M67.232,1118.626a.711.711,0,0,1,1.421,0,.711.711,0,1,1-1.421,0Z" fill="#57574d"/>
        <path id="Path_3704" data-name="Path 3704" d="M77.019,1114.159v5.126h-.975l-2.556-3.113v3.113H72.316v-5.126H73.3l2.549,3.113v-3.113Z" fill="#57574d"/>
        <path id="Path_3705" data-name="Path 3705" d="M82.586,1115.345v3.281a1.929,1.929,0,0,1-2.212,2.139,3.248,3.248,0,0,1-1.934-.542l.455-.82a2.352,2.352,0,0,0,1.391.447c.806,0,1.157-.367,1.157-1.077v-.169a1.62,1.62,0,0,1-1.245.491,1.906,1.906,0,1,1,0-3.809,1.581,1.581,0,0,1,1.3.564v-.505Zm-1.128,1.846a1.039,1.039,0,1,0-1.033.967A.957.957,0,0,0,81.458,1117.191Z" fill="#57574d"/>
        <path id="Path_3706" data-name="Path 3706" d="M87.5,1117.037v2.248H86.433v-.49a1.294,1.294,0,0,1-1.2.549c-.922,0-1.472-.513-1.472-1.193,0-.7.491-1.18,1.692-1.18h.908c0-.49-.293-.776-.908-.776a1.9,1.9,0,0,0-1.135.366l-.41-.8a3.033,3.033,0,0,1,1.7-.476C86.806,1115.286,87.5,1115.843,87.5,1117.037Zm-1.143,1v-.4h-.783c-.535,0-.7.2-.7.462,0,.286.241.476.644.476A.841.841,0,0,0,86.359,1118.04Z" fill="#57574d"/>
        <path id="Path_3707" data-name="Path 3707" d="M92.93,1117.03v2.255H91.787v-2.08c0-.636-.293-.929-.8-.929-.55,0-.945.336-.945,1.061v1.948H88.9v-3.94h1.092v.462a1.72,1.72,0,0,1,1.3-.521A1.545,1.545,0,0,1,92.93,1117.03Z" fill="#57574d"/>
        <path id="Path_3708" data-name="Path 3708" d="M99.311,1119.095a1.631,1.631,0,0,1-.931.249,1.3,1.3,0,0,1-1.472-1.414v-1.618H96.3v-.879h.608v-.96h1.143v.96h.981v.879h-.981v1.6a.46.46,0,0,0,.49.52.766.766,0,0,0,.462-.147Z" fill="#57574d"/>
        <path id="Path_3709" data-name="Path 3709" d="M103.808,1117.037v2.248h-1.069v-.49a1.294,1.294,0,0,1-1.2.549c-.923,0-1.473-.513-1.473-1.193,0-.7.491-1.18,1.692-1.18h.909c0-.49-.293-.776-.909-.776a1.9,1.9,0,0,0-1.135.366l-.41-.8a3.033,3.033,0,0,1,1.7-.476C103.112,1115.286,103.808,1115.843,103.808,1117.037Zm-1.142,1v-.4h-.784c-.535,0-.7.2-.7.462,0,.286.241.476.644.476A.843.843,0,0,0,102.666,1118.04Zm-.411-3.2h-.893l.989-1.055h1.23Z" fill="#57574d"/>
        <path id="Path_3710" data-name="Path 3710" d="M105.068,1114.159a.653.653,0,0,1,.711-.637.64.64,0,0,1,.71.615.714.714,0,0,1-1.421.022Zm.139,1.186h1.143v3.94h-1.143Z" fill="#57574d"/>
        <path id="Path_3711" data-name="Path 3711" d="M109.925,1117.315a2.038,2.038,0,0,1,2.2-2.029,1.812,1.812,0,0,1,1.765,1l-.887.477a.983.983,0,0,0-.886-.542,1.093,1.093,0,0,0,0,2.183.97.97,0,0,0,.886-.542l.887.483a1.828,1.828,0,0,1-1.765,1A2.038,2.038,0,0,1,109.925,1117.315Z" fill="#57574d"/>
        <path id="Path_3712" data-name="Path 3712" d="M118.913,1117.03v2.255H117.77v-2.08c0-.636-.292-.929-.8-.929-.549,0-.945.336-.945,1.061v1.948h-1.142v-5.434h1.142v1.9a1.736,1.736,0,0,1,1.253-.469A1.545,1.545,0,0,1,118.913,1117.03Z" fill="#57574d"/>
        <path id="Path_3713" data-name="Path 3713" d="M123.8,1117.037v2.248H122.73v-.49a1.293,1.293,0,0,1-1.2.549c-.923,0-1.472-.513-1.472-1.193,0-.7.49-1.18,1.692-1.18h.908c0-.49-.293-.776-.908-.776a1.9,1.9,0,0,0-1.136.366l-.41-.8a3.033,3.033,0,0,1,1.7-.476C123.1,1115.286,123.8,1115.843,123.8,1117.037Zm-1.142,1v-.4h-.784c-.535,0-.7.2-.7.462,0,.286.242.476.644.476A.843.843,0,0,0,122.657,1118.04Z" fill="#57574d"/>
        <path id="Path_3714" data-name="Path 3714" d="M129.227,1117.03v2.255h-1.143v-2.08c0-.636-.293-.929-.8-.929-.549,0-.945.336-.945,1.061v1.948H125.2v-3.94h1.091v.462a1.723,1.723,0,0,1,1.3-.521A1.545,1.545,0,0,1,129.227,1117.03Z" fill="#57574d"/>
        <path id="Path_3715" data-name="Path 3715" d="M134.655,1117.03v2.255h-1.142v-2.08c0-.636-.293-.929-.8-.929-.549,0-.944.336-.944,1.061v1.948h-1.143v-5.434h1.143v1.9a1.733,1.733,0,0,1,1.252-.469A1.545,1.545,0,0,1,134.655,1117.03Z" fill="#57574d"/>
        <path id="Path_3716" data-name="Path 3716" d="M138.211,1118.878a4.33,4.33,0,0,1,.977-2.774h.669a4.571,4.571,0,0,0-1,2.808,3.817,3.817,0,0,0,.2,1.206h-.613A3.3,3.3,0,0,1,138.211,1118.878Z" fill="#df071b"/>
        <path id="Path_3717" data-name="Path 3717" d="M143.228,1117.536a1.713,1.713,0,0,1-1.869,1.749h-1.466l.257-1.294h-.408l.1-.463h.407l.249-1.243h1.256C142.675,1116.285,143.228,1116.769,143.228,1117.536Zm-.7.039c0-.446-.287-.72-.853-.72h-.6l-.133.673h.746l-.09.463h-.75l-.146.724h.677A1.078,1.078,0,0,0,142.525,1117.575Z" fill="#df071b"/>
        <path id="Path_3718" data-name="Path 3718" d="M146.408,1116.979l-.459,2.306h-.634l.043-.227a1.027,1.027,0,0,1-.708.262.972.972,0,0,1-.995-1.034,1.282,1.282,0,0,1,1.274-1.341.824.824,0,0,1,.75.346l.06-.312Zm-.874,1.029a.479.479,0,0,0-.528-.511.691.691,0,0,0-.677.759.478.478,0,0,0,.527.511A.692.692,0,0,0,145.534,1118.008Zm-.562,1.848a.311.311,0,0,1-.326.33.257.257,0,0,1-.274-.266.327.327,0,0,1,.325-.321A.259.259,0,0,1,144.972,1119.856Zm-.33-3.727a.339.339,0,0,1,0-.063h.407a.3.3,0,0,0,.339.3.379.379,0,0,0,.4-.3h.433a.818.818,0,0,1-.871.651C144.946,1116.717,144.642,1116.49,144.642,1116.129Z" fill="#df071b"/>
        <path id="Path_3719" data-name="Path 3719" d="M146.826,1118.286a1.331,1.331,0,0,1,1.406-1.341,1.07,1.07,0,0,1,1.038.583l-.566.283a.527.527,0,0,0-.515-.314.7.7,0,0,0-.686.755.484.484,0,0,0,.537.515.637.637,0,0,0,.565-.309l.494.309a1.273,1.273,0,0,1-1.1.553A1.042,1.042,0,0,1,146.826,1118.286Z" fill="#df071b"/>
        <path id="Path_3720" data-name="Path 3720" d="M153.715,1117.978a1.283,1.283,0,0,1-1.278,1.342.826.826,0,0,1-.771-.377l-.069.342h-.635l.635-3.181h.669l-.215,1.072a1.022,1.022,0,0,1,.665-.231A.975.975,0,0,1,153.715,1117.978Zm-.677.03a.479.479,0,0,0-.528-.511.69.69,0,0,0-.673.759.475.475,0,0,0,.523.511A.692.692,0,0,0,153.038,1118.008Z" fill="#df071b"/>
        <path id="Path_3721" data-name="Path 3721" d="M154.6,1116.979h.665l-.459,2.306h-.665Zm.056-.669a.407.407,0,0,1,.441-.4.355.355,0,0,1,.4.334.409.409,0,0,1-.446.413A.358.358,0,0,1,154.652,1116.31Z" fill="#df071b"/>
        <path id="Path_3722" data-name="Path 3722" d="M158.1,1118.312h-1.767c.022.313.215.472.6.472a.954.954,0,0,0,.617-.214l.279.441a1.527,1.527,0,0,1-.965.309,1.042,1.042,0,0,1-1.179-1.034,1.3,1.3,0,0,1,1.359-1.341.989.989,0,0,1,1.1,1.015A1.833,1.833,0,0,1,158.1,1118.312Zm-1.243,1.544a.312.312,0,0,1-.326.33.258.258,0,0,1-.275-.266.328.328,0,0,1,.326-.321A.259.259,0,0,1,156.861,1119.856Zm-.03-3.169h-.5l.651-.617h.588l.485.617h-.476l-.33-.321Zm-.446,1.235h1.144a.459.459,0,0,0-.514-.476A.633.633,0,0,0,156.385,1117.922Z" fill="#df071b"/>
        <path id="Path_3723" data-name="Path 3723" d="M159.457,1118.471a.348.348,0,0,0-.009.094c0,.141.077.223.244.223a.531.531,0,0,0,.271-.082l.1.477a1.109,1.109,0,0,1-.575.137.64.64,0,0,1-.72-.643,1.1,1.1,0,0,1,.021-.2l.184-.931h-.356l.1-.513h.356l.112-.563h.668l-.111.563h.575l-.1.513h-.575Z" fill="#df071b"/>
        <path id="Path_3724" data-name="Path 3724" d="M161.293,1117.309a3.838,3.838,0,0,0-.2-1.2h.613a3.29,3.29,0,0,1,.231,1.239,4.333,4.333,0,0,1-.977,2.775h-.669A4.576,4.576,0,0,0,161.293,1117.309Z" fill="#df071b"/>
        <path id="Path_3725" data-name="Path 3725" d="M67.261,1129.3h-.835v1.076H65.269V1129.3H62.508v-.8l2.417-3.252H66.17l-2.241,3.084h1.377v-.96h1.12v.96h.835Z" fill="#57574d"/>
        <path id="Path_3726" data-name="Path 3726" d="M68.09,1129.716a.711.711,0,0,1,1.421,0,.711.711,0,1,1-1.421,0Z" fill="#57574d"/>
        <path id="Path_3727" data-name="Path 3727" d="M77.876,1125.248v5.127H76.9l-2.556-3.113v3.113H73.174v-5.127h.981l2.549,3.114v-3.114Z" fill="#57574d"/>
        <path id="Path_3728" data-name="Path 3728" d="M83.443,1126.435v3.281a1.929,1.929,0,0,1-2.212,2.139,3.243,3.243,0,0,1-1.933-.542l.454-.82a2.355,2.355,0,0,0,1.392.447c.805,0,1.157-.367,1.157-1.077v-.169a1.623,1.623,0,0,1-1.245.491,1.906,1.906,0,1,1,0-3.809,1.58,1.58,0,0,1,1.3.564v-.5Zm-1.128,1.846a1.039,1.039,0,1,0-1.032.966A.957.957,0,0,0,82.315,1128.281Z" fill="#57574d"/>
        <path id="Path_3729" data-name="Path 3729" d="M88.359,1128.127v2.248H87.29v-.49a1.293,1.293,0,0,1-1.2.549c-.923,0-1.472-.513-1.472-1.193,0-.7.49-1.18,1.692-1.18h.908c0-.49-.293-.776-.908-.776a1.9,1.9,0,0,0-1.136.366l-.41-.8a3.033,3.033,0,0,1,1.7-.476C87.664,1126.376,88.359,1126.933,88.359,1128.127Zm-1.142,1v-.4h-.784c-.535,0-.7.2-.7.462,0,.286.242.475.644.475A.842.842,0,0,0,87.217,1129.13Z" fill="#57574d"/>
        <path id="Path_3730" data-name="Path 3730" d="M93.787,1128.119v2.256H92.645v-2.08c0-.636-.293-.929-.8-.929-.549,0-.945.336-.945,1.061v1.948H89.759v-3.94H90.85v.462a1.723,1.723,0,0,1,1.3-.521A1.545,1.545,0,0,1,93.787,1128.119Z" fill="#57574d"/>
        <path id="Path_3731" data-name="Path 3731" d="M97.333,1128.405a2.038,2.038,0,0,1,2.2-2.029,1.811,1.811,0,0,1,1.765,1l-.886.477a.985.985,0,0,0-.887-.542,1.093,1.093,0,0,0,0,2.182.971.971,0,0,0,.887-.542l.886.484a1.828,1.828,0,0,1-1.765,1A2.038,2.038,0,0,1,97.333,1128.405Z" fill="#57574d"/>
        <path id="Path_3732" data-name="Path 3732" d="M106.321,1128.119v2.256h-1.143v-2.08c0-.636-.293-.929-.8-.929-.549,0-.945.336-.945,1.061v1.948h-1.143v-5.434h1.143v1.9a1.731,1.731,0,0,1,1.252-.469A1.545,1.545,0,0,1,106.321,1128.119Z" fill="#57574d"/>
        <path id="Path_3733" data-name="Path 3733" d="M111.207,1128.127v2.248h-1.069v-.49a1.294,1.294,0,0,1-1.2.549c-.923,0-1.473-.513-1.473-1.193,0-.7.491-1.18,1.692-1.18h.908c0-.49-.293-.776-.908-.776a1.9,1.9,0,0,0-1.135.366l-.41-.8a3.033,3.033,0,0,1,1.7-.476C110.511,1126.376,111.207,1126.933,111.207,1128.127Zm-1.143,1v-.4h-.783c-.535,0-.7.2-.7.462,0,.286.241.475.644.475A.84.84,0,0,0,110.064,1129.13Zm-.41-3.2h-.893l.988-1.055h1.231Z" fill="#57574d"/>
        <path id="Path_3734" data-name="Path 3734" d="M116.444,1126.435l-1.779,4.183a1.627,1.627,0,0,1-1.634,1.237,1.747,1.747,0,0,1-1.1-.359l.417-.813a1.019,1.019,0,0,0,.645.249c.315,0,.49-.139.644-.49l.015-.037-1.707-3.97h1.179l1.106,2.673,1.114-2.673Z" fill="#57574d"/>
        <path id="Path_3735" data-name="Path 3735" d="M122.261,1130.185a1.627,1.627,0,0,1-.93.249,1.3,1.3,0,0,1-1.472-1.414V1127.4h-.608v-.879h.608v-.96H121v.96h.982v.879H121v1.6a.46.46,0,0,0,.491.52.767.767,0,0,0,.462-.147Z" fill="#57574d"/>
        <path id="Path_3736" data-name="Path 3736" d="M122.855,1128.405a2.169,2.169,0,1,1,2.168,2.029A2.029,2.029,0,0,1,122.855,1128.405Zm3.171,0a1.01,1.01,0,1,0-1,1.091A.994.994,0,0,0,126.026,1128.405Zm-1.157-2.784c.286-.13.374-.277.374-.446a.312.312,0,0,0-.345-.307.775.775,0,0,0-.432.138l-.234-.461a1.275,1.275,0,0,1,.791-.249.794.794,0,0,1,.879.784.983.983,0,0,1-.674.922Z" fill="#57574d"/>
        <path id="Path_3737" data-name="Path 3737" d="M128.173,1125.248a.652.652,0,0,1,.711-.636.64.64,0,0,1,.71.615.714.714,0,0,1-1.421.021Zm.139,1.187h1.143v3.94h-1.143Z" fill="#57574d"/>
        <path id="Path_3738" data-name="Path 3738" d="M133.4,1124.941h1.985v.893h-.843v5.069h.843v.893H133.4Z" fill="#57574d"/>
        <path id="Path_3739" data-name="Path 3739" d="M140.561,1125.248v5.127h-1.187V1126.2h-1.025v-.953Z" fill="#57574d"/>
        <path id="Path_3740" data-name="Path 3740" d="M143.71,1124.208h1.018l-2.416,6.9h-1.019Z" fill="#57574d"/>
        <path id="Path_3741" data-name="Path 3741" d="M148.89,1129.409v.966h-3.875v-.769l1.978-1.867c.454-.432.534-.7.534-.946,0-.4-.278-.636-.82-.636a1.254,1.254,0,0,0-1.062.512l-.864-.556a2.38,2.38,0,0,1,2.036-.953c1.142,0,1.9.586,1.9,1.516a2.045,2.045,0,0,1-.857,1.619l-1.179,1.114Z" fill="#57574d"/>
        <path id="Path_3742" data-name="Path 3742" d="M152.135,1128.405a2.038,2.038,0,0,1,2.2-2.029,1.812,1.812,0,0,1,1.766,1l-.887.477a.983.983,0,0,0-.886-.542,1.093,1.093,0,0,0,0,2.182.968.968,0,0,0,.886-.542l.887.484a1.829,1.829,0,0,1-1.766,1A2.037,2.037,0,0,1,152.135,1128.405Z" fill="#57574d"/>
        <path id="Path_3743" data-name="Path 3743" d="M156.779,1128.405a2.169,2.169,0,1,1,2.168,2.029A2.029,2.029,0,0,1,156.779,1128.405Zm3.172,0a1.01,1.01,0,1,0-1,1.091A.994.994,0,0,0,159.951,1128.405Z" fill="#57574d"/>
        <path id="Path_3744" data-name="Path 3744" d="M166.265,1128.119v2.256h-1.142v-2.08c0-.636-.293-.929-.8-.929-.549,0-.945.336-.945,1.061v1.948h-1.142v-3.94h1.091v.462a1.723,1.723,0,0,1,1.3-.521A1.545,1.545,0,0,1,166.265,1128.119Z" fill="#57574d"/>
        <path id="Path_3745" data-name="Path 3745" d="M169.687,1131.8v-.893h.835v-5.069h-.835v-.893h1.978v6.855Z" fill="#57574d"/>
        <path id="Path_3746" data-name="Path 3746" d="M175.687,1124.941h1.985v.893h-.842v5.069h.842v.893h-1.985Z" fill="#57574d"/>
        <path id="Path_3747" data-name="Path 3747" d="M182.257,1128.808c0,.864-.666,1.655-2.124,1.655a3.521,3.521,0,0,1-1.955-.549l.461-.908a2.489,2.489,0,0,0,1.465.461c.593,0,.959-.242.959-.659,0-.388-.285-.63-.959-.63h-.542v-.783l1.055-1.194h-2.183v-.953h3.589v.77l-1.157,1.318A1.456,1.456,0,0,1,182.257,1128.808Z" fill="#57574d"/>
        <path id="Path_3748" data-name="Path 3748" d="M183.173,1127.812c0-1.693.938-2.652,2.2-2.652s2.2.959,2.2,2.652-.931,2.651-2.2,2.651S183.173,1129.5,183.173,1127.812Zm3.2,0c0-1.165-.411-1.648-1-1.648s-1,.483-1,1.648.411,1.647,1,1.647S186.374,1128.977,186.374,1127.812Z" fill="#57574d"/>
        <path id="Path_3749" data-name="Path 3749" d="M189.9,1125.585a1.777,1.777,0,0,1-.19.733l-.425,1.054h-.725l.315-1.157a.649.649,0,0,1-.389-.63.707.707,0,0,1,1.414,0Z" fill="#57574d"/>
        <path id="Path_3750" data-name="Path 3750" d="M192.424,1125.585a1.777,1.777,0,0,1-.19.733l-.425,1.054h-.725l.315-1.157a.651.651,0,0,1-.389-.63.707.707,0,0,1,1.414,0Z" fill="#57574d"/>
        <path id="Path_3751" data-name="Path 3751" d="M193.151,1131.8v-.893h.834v-5.069h-.834v-.893h1.976v6.855Z" fill="#57574d"/>
        <path id="Path_3752" data-name="Path 3752" d="M66.441,1139.855c0,.908-.667,1.7-2.131,1.7a3.54,3.54,0,0,1-1.956-.55l.469-.908a2.466,2.466,0,0,0,1.457.462c.594,0,.96-.249.96-.667,0-.4-.264-.666-1.194-.666H62.735l.264-2.886h3.127v.952H63.987l-.08.975h.417C65.84,1138.266,66.441,1138.947,66.441,1139.855Z" fill="#57574d"/>
        <path id="Path_3753" data-name="Path 3753" d="M67.254,1140.807a.711.711,0,0,1,1.421,0,.711.711,0,1,1-1.421,0Z" fill="#57574d"/>
        <path id="Path_3754" data-name="Path 3754" d="M77.041,1136.339v5.127h-.975l-2.556-3.112v3.112H72.338v-5.127h.982l2.549,3.113v-3.113Z" fill="#57574d"/>
        <path id="Path_3755" data-name="Path 3755" d="M82.608,1137.526v3.281a1.929,1.929,0,0,1-2.212,2.139,3.256,3.256,0,0,1-1.934-.542l.454-.821a2.358,2.358,0,0,0,1.392.447c.806,0,1.157-.366,1.157-1.077v-.168a1.62,1.62,0,0,1-1.245.491,1.906,1.906,0,1,1,0-3.809,1.581,1.581,0,0,1,1.3.565v-.506Zm-1.128,1.845a1.039,1.039,0,1,0-1.033.967A.957.957,0,0,0,81.48,1139.371Z" fill="#57574d"/>
        <path id="Path_3756" data-name="Path 3756" d="M87.524,1139.217v2.249H86.455v-.491a1.3,1.3,0,0,1-1.2.55c-.922,0-1.472-.513-1.472-1.2s.491-1.178,1.692-1.178h.908c0-.492-.293-.777-.908-.777a1.891,1.891,0,0,0-1.135.367l-.41-.8a3.017,3.017,0,0,1,1.7-.477C86.828,1137.467,87.524,1138.024,87.524,1139.217Zm-1.143,1v-.4H85.6c-.535,0-.7.2-.7.461,0,.285.241.476.644.476A.842.842,0,0,0,86.381,1140.221Z" fill="#57574d"/>
        <path id="Path_3757" data-name="Path 3757" d="M92.952,1139.21v2.256H91.809v-2.08c0-.638-.293-.931-.8-.931-.55,0-.945.338-.945,1.063v1.948H88.923v-3.94h1.092v.461a1.727,1.727,0,0,1,1.3-.52A1.545,1.545,0,0,1,92.952,1139.21Z" fill="#57574d"/>
        <path id="Path_3758" data-name="Path 3758" d="M96.5,1139.5a2.037,2.037,0,0,1,2.2-2.029,1.81,1.81,0,0,1,1.765,1l-.886.476a.981.981,0,0,0-.886-.542,1.093,1.093,0,0,0,0,2.182.968.968,0,0,0,.886-.542l.886.484a1.827,1.827,0,0,1-1.765,1A2.038,2.038,0,0,1,96.5,1139.5Z" fill="#57574d"/>
        <path id="Path_3759" data-name="Path 3759" d="M105.485,1139.21v2.256h-1.142v-2.08c0-.638-.293-.931-.8-.931-.549,0-.944.338-.944,1.063v1.948h-1.143v-5.434H102.6v1.9a1.729,1.729,0,0,1,1.252-.469A1.544,1.544,0,0,1,105.485,1139.21Z" fill="#57574d"/>
        <path id="Path_3760" data-name="Path 3760" d="M110.372,1139.217v2.249H109.3v-.491a1.292,1.292,0,0,1-1.2.55c-.923,0-1.472-.513-1.472-1.2s.491-1.178,1.692-1.178h.908c0-.492-.293-.777-.908-.777a1.886,1.886,0,0,0-1.135.367l-.411-.8a3.021,3.021,0,0,1,1.7-.477C109.676,1137.467,110.372,1138.024,110.372,1139.217Zm-1.143,1v-.4h-.784c-.534,0-.7.2-.7.461,0,.285.242.476.645.476A.842.842,0,0,0,109.229,1140.221Zm-.41-3.2h-.894l.989-1.055h1.231Z" fill="#57574d"/>
        <path id="Path_3761" data-name="Path 3761" d="M115.609,1137.526l-1.78,4.181a1.627,1.627,0,0,1-1.633,1.239,1.745,1.745,0,0,1-1.1-.36l.418-.812a1.009,1.009,0,0,0,.644.249c.315,0,.491-.14.645-.491l.014-.037-1.706-3.969h1.179l1.106,2.674,1.113-2.674Z" fill="#57574d"/>
        <path id="Path_3762" data-name="Path 3762" d="M121.426,1141.276a1.639,1.639,0,0,1-.93.249,1.3,1.3,0,0,1-1.473-1.413v-1.619h-.607v-.879h.607v-.959h1.143v.959h.981v.879h-.981v1.6a.46.46,0,0,0,.491.521.771.771,0,0,0,.461-.147Z" fill="#57574d"/>
        <path id="Path_3763" data-name="Path 3763" d="M122.02,1139.5a2.168,2.168,0,1,1,2.167,2.029A2.028,2.028,0,0,1,122.02,1139.5Zm3.171,0a1.01,1.01,0,1,0-1,1.091A.994.994,0,0,0,125.191,1139.5Zm-1.157-2.783c.285-.133.373-.279.373-.447a.31.31,0,0,0-.344-.308.765.765,0,0,0-.432.14l-.235-.462a1.274,1.274,0,0,1,.791-.249.794.794,0,0,1,.879.783.985.985,0,0,1-.673.924Z" fill="#57574d"/>
        <path id="Path_3764" data-name="Path 3764" d="M127.338,1136.339a.653.653,0,0,1,.71-.637.641.641,0,0,1,.711.615.714.714,0,0,1-1.421.022Zm.139,1.187h1.143v3.94h-1.143Z" fill="#57574d"/>
        <path id="Path_3765" data-name="Path 3765" d="M134.934,1137.467v1.055c-.1-.008-.168-.015-.256-.015a.969.969,0,0,0-1.048,1.1v1.86h-1.142v-3.94h1.091v.519A1.589,1.589,0,0,1,134.934,1137.467Z" fill="#57574d"/>
        <path id="Path_3766" data-name="Path 3766" d="M139.981,1137.526v3.94H138.9V1141a1.592,1.592,0,0,1-1.223.528,1.571,1.571,0,0,1-1.685-1.773v-2.226h1.143v2.058c0,.659.293.951.8.951.527,0,.908-.335.908-1.061v-1.948Zm-1.773-.506h-.893l.989-1.055h1.23Z" fill="#57574d"/>
        <path id="Path_3767" data-name="Path 3767" d="M143.952,1141.276a1.64,1.64,0,0,1-.931.249,1.3,1.3,0,0,1-1.472-1.413v-1.619h-.608v-.879h.608v-.959h1.143v.959h.981v.879h-.981v1.6a.46.46,0,0,0,.491.521.771.771,0,0,0,.461-.147Z" fill="#57574d"/>
        <path id="Path_3768" data-name="Path 3768" d="M149.908,1141.466l-.865-1.208-.893,1.208H146.9l1.516-1.985-1.465-1.955h1.282l.835,1.15.857-1.15h1.215l-1.464,1.926,1.523,2.014Z" fill="#57574d"/>
        <path id="Path_3769" data-name="Path 3769" d="M156.024,1138.185v3.281H154.94V1141a1.592,1.592,0,0,1-1.223.528,1.571,1.571,0,0,1-1.685-1.773v-2.226h1.143v2.058c0,.659.293.951.8.951.527,0,.908-.335.908-1.061v-1.948h.608a.429.429,0,0,0,.44-.461.7.7,0,0,0-.147-.44l.674-.25a1.185,1.185,0,0,1,.234.733A1.074,1.074,0,0,1,156.024,1138.185Z" fill="#57574d"/>
        <path id="Path_3770" data-name="Path 3770" d="M161.445,1139.5a2.169,2.169,0,1,1-2.154-2.029c.381,0,.6.067.872.067a.437.437,0,0,0,.469-.477.74.74,0,0,0-.154-.439l.667-.249a1.226,1.226,0,0,1,.249.732,1.02,1.02,0,0,1-.557.944A1.95,1.95,0,0,1,161.445,1139.5Zm-1.157,0a1.011,1.011,0,1,0-1,1.091A.995.995,0,0,0,160.288,1139.5Z" fill="#57574d"/>
        <path id="Path_3771" data-name="Path 3771" d="M166.6,1139.21v2.256h-1.143v-2.08c0-.638-.293-.931-.8-.931-.549,0-.945.338-.945,1.063v1.948h-1.142v-3.94h1.091v.461a1.729,1.729,0,0,1,1.3-.52A1.544,1.544,0,0,1,166.6,1139.21Z" fill="#57574d"/>
        <path id="Path_3772" data-name="Path 3772" d="M172.111,1137.526v3.281a1.929,1.929,0,0,1-2.212,2.139,3.256,3.256,0,0,1-1.934-.542l.454-.821a2.357,2.357,0,0,0,1.392.447c.806,0,1.157-.366,1.157-1.077v-.168a1.62,1.62,0,0,1-1.245.491,1.906,1.906,0,1,1,0-3.809,1.583,1.583,0,0,1,1.3.565v-.506Zm-1.128,1.845a1.039,1.039,0,1,0-1.033.967A.957.957,0,0,0,170.983,1139.371Z" fill="#57574d"/>
        <path id="Path_3773" data-name="Path 3773" d="M176.06,1136.032h1.985v.893H177.2v5.069h.842v.893H176.06Z" fill="#57574d"/>
        <path id="Path_3774" data-name="Path 3774" d="M183.217,1136.339v5.127h-1.186v-4.175h-1.026v-.952Z" fill="#57574d"/>
        <path id="Path_3775" data-name="Path 3775" d="M186.368,1135.3h1.017l-2.417,6.9H183.95Z" fill="#57574d"/>
        <path id="Path_3776" data-name="Path 3776" d="M191.545,1140.5v.967H187.67v-.768l1.979-1.869c.453-.432.534-.7.534-.944,0-.4-.278-.638-.82-.638a1.253,1.253,0,0,0-1.062.513l-.865-.557a2.383,2.383,0,0,1,2.037-.952c1.143,0,1.9.586,1.9,1.517a2.045,2.045,0,0,1-.857,1.618l-1.18,1.113Z" fill="#57574d"/>
        <path id="Path_3777" data-name="Path 3777" d="M194.791,1139.5a2.038,2.038,0,0,1,2.2-2.029,1.811,1.811,0,0,1,1.765,1l-.886.476a.983.983,0,0,0-.887-.542,1.093,1.093,0,0,0,0,2.182.971.971,0,0,0,.887-.542l.886.484a1.828,1.828,0,0,1-1.765,1A2.038,2.038,0,0,1,194.791,1139.5Z" fill="#57574d"/>
        <path id="Path_3778" data-name="Path 3778" d="M199.436,1139.5a2.168,2.168,0,1,1,2.168,2.029A2.029,2.029,0,0,1,199.436,1139.5Zm3.172,0a1.011,1.011,0,1,0-1,1.091A.995.995,0,0,0,202.608,1139.5Z" fill="#57574d"/>
        <path id="Path_3779" data-name="Path 3779" d="M208.921,1139.21v2.256h-1.142v-2.08c0-.638-.293-.931-.8-.931-.55,0-.945.338-.945,1.063v1.948h-1.143v-3.94h1.092v.461a1.724,1.724,0,0,1,1.3-.52A1.544,1.544,0,0,1,208.921,1139.21Z" fill="#57574d"/>
        <path id="Path_3780" data-name="Path 3780" d="M212.342,1142.887v-.893h.836v-5.069h-.836v-.893h1.979v6.855Z" fill="#57574d"/>
        <path id="Path_3781" data-name="Path 3781" d="M66.8,1150.938a1.762,1.762,0,0,1-1.941,1.706c-1.414,0-2.293-.886-2.293-2.542a2.5,2.5,0,0,1,2.615-2.761,2.758,2.758,0,0,1,1.428.352l-.439.872a1.678,1.678,0,0,0-.96-.257,1.36,1.36,0,0,0-1.442,1.487,1.727,1.727,0,0,1,1.267-.455A1.627,1.627,0,0,1,66.8,1150.938Zm-1.15.058a.773.773,0,0,0-.872-.769.8.8,0,0,0-.886.769c0,.44.33.762.9.762A.767.767,0,0,0,65.65,1151Z" fill="#57574d"/>
        <path id="Path_3782" data-name="Path 3782" d="M67.635,1151.9a.711.711,0,0,1,1.421,0,.711.711,0,1,1-1.421,0Z" fill="#57574d"/>
        <path id="Path_3783" data-name="Path 3783" d="M72.4,1149.993a2.824,2.824,0,0,1,4.893-1.744l-.762.7a1.651,1.651,0,0,0-1.289-.6,1.641,1.641,0,1,0,0,3.281,1.636,1.636,0,0,0,1.289-.607l.762.7a2.819,2.819,0,0,1-4.893-1.736Z" fill="#57574d"/>
        <path id="Path_3784" data-name="Path 3784" d="M82.4,1150.3v2.256H81.26v-2.08c0-.638-.293-.931-.8-.931-.549,0-.945.338-.945,1.063v1.948H78.374v-5.435h1.143v1.905a1.732,1.732,0,0,1,1.253-.469A1.545,1.545,0,0,1,82.4,1150.3Z" fill="#57574d"/>
        <path id="Path_3785" data-name="Path 3785" d="M87.29,1150.307v2.249H86.22v-.491a1.292,1.292,0,0,1-1.2.55c-.923,0-1.472-.513-1.472-1.195s.491-1.178,1.692-1.178h.908c0-.492-.293-.777-.908-.777a1.9,1.9,0,0,0-1.136.366l-.41-.8a3.02,3.02,0,0,1,1.7-.477C86.594,1148.557,87.29,1149.114,87.29,1150.307Zm-1.143,1v-.4h-.784c-.534,0-.7.2-.7.46,0,.286.242.477.645.477A.842.842,0,0,0,86.147,1151.311Zm-1.179-4.123-.235-.462a1.272,1.272,0,0,1,.791-.249.793.793,0,0,1,.879.783.984.984,0,0,1-.674.924l-.358-.381c.285-.133.373-.279.373-.447a.31.31,0,0,0-.344-.308A.766.766,0,0,0,84.968,1147.188Z" fill="#57574d"/>
        <path id="Path_3786" data-name="Path 3786" d="M95.157,1150.3v2.256H94.014v-2.08c0-.638-.293-.931-.8-.931-.55,0-.945.338-.945,1.063v1.948H91.128v-3.94H92.22v.461a1.727,1.727,0,0,1,1.3-.52A1.545,1.545,0,0,1,95.157,1150.3Z" fill="#57574d"/>
        <path id="Path_3787" data-name="Path 3787" d="M100.666,1148.616v3.281a1.929,1.929,0,0,1-2.212,2.138,3.252,3.252,0,0,1-1.934-.541l.454-.821a2.355,2.355,0,0,0,1.392.446c.805,0,1.157-.365,1.157-1.076v-.168a1.623,1.623,0,0,1-1.245.491,1.906,1.906,0,1,1,0-3.809,1.586,1.586,0,0,1,1.3.564v-.505Zm-1.128,1.845a1.039,1.039,0,1,0-1.033.967A.958.958,0,0,0,99.538,1150.461Z" fill="#57574d"/>
        <path id="Path_3788" data-name="Path 3788" d="M105.581,1150.307v2.249h-1.069v-.491a1.294,1.294,0,0,1-1.2.55c-.923,0-1.473-.513-1.473-1.195s.491-1.178,1.692-1.178h.908c0-.492-.293-.777-.908-.777a1.9,1.9,0,0,0-1.135.366l-.41-.8a3.017,3.017,0,0,1,1.7-.477C104.885,1148.557,105.581,1149.114,105.581,1150.307Zm-1.143,1v-.4h-.783c-.535,0-.7.2-.7.46,0,.286.241.477.644.477A.841.841,0,0,0,104.438,1151.311Z" fill="#57574d"/>
        <path id="Path_3789" data-name="Path 3789" d="M111.009,1150.3v2.256h-1.143v-2.08c0-.638-.293-.931-.8-.931-.549,0-.945.338-.945,1.063v1.948H106.98v-3.94h1.092v.461a1.727,1.727,0,0,1,1.3-.52A1.545,1.545,0,0,1,111.009,1150.3Z" fill="#57574d"/>
        <path id="Path_3790" data-name="Path 3790" d="M114.555,1150.586a2.037,2.037,0,0,1,2.2-2.029,1.811,1.811,0,0,1,1.766,1l-.887.475a.981.981,0,0,0-.886-.542,1.093,1.093,0,0,0,0,2.183.968.968,0,0,0,.886-.542l.887.484a1.831,1.831,0,0,1-1.766,1A2.038,2.038,0,0,1,114.555,1150.586Z" fill="#57574d"/>
        <path id="Path_3791" data-name="Path 3791" d="M123.543,1150.3v2.256H122.4v-2.08c0-.638-.293-.931-.8-.931-.549,0-.945.338-.945,1.063v1.948h-1.142v-5.435h1.142v1.905a1.732,1.732,0,0,1,1.253-.469A1.545,1.545,0,0,1,123.543,1150.3Z" fill="#57574d"/>
        <path id="Path_3792" data-name="Path 3792" d="M128.429,1150.307v2.249H127.36v-.491a1.294,1.294,0,0,1-1.2.55c-.923,0-1.472-.513-1.472-1.195s.49-1.178,1.691-1.178h.909c0-.492-.293-.777-.909-.777a1.9,1.9,0,0,0-1.135.366l-.41-.8a3.017,3.017,0,0,1,1.7-.477C127.733,1148.557,128.429,1149.114,128.429,1150.307Zm-1.142,1v-.4H126.5c-.535,0-.7.2-.7.46,0,.286.241.477.644.477A.843.843,0,0,0,127.287,1151.311Zm-1.18-4.123-.234-.462a1.27,1.27,0,0,1,.791-.249.793.793,0,0,1,.879.783.984.984,0,0,1-.674.924l-.359-.381c.286-.133.374-.279.374-.447a.31.31,0,0,0-.344-.308A.772.772,0,0,0,126.107,1147.188Z" fill="#57574d"/>
        <path id="Path_3793" data-name="Path 3793" d="M129.58,1150.586a2.168,2.168,0,1,1,2.168,2.029A2.028,2.028,0,0,1,129.58,1150.586Zm3.171,0a1.01,1.01,0,1,0-1,1.091A.995.995,0,0,0,132.751,1150.586Z" fill="#57574d"/>
        <path id="Path_3794" data-name="Path 3794" d="M141.505,1150.3v2.256h-1.143v-2.08c0-.638-.293-.931-.8-.931-.549,0-.945.338-.945,1.063v1.948h-1.142v-3.94h1.091v.461a1.728,1.728,0,0,1,1.3-.52A1.545,1.545,0,0,1,141.505,1150.3Z" fill="#57574d"/>
        <path id="Path_3795" data-name="Path 3795" d="M142.656,1150.586a2.168,2.168,0,1,1,2.168,2.029A2.028,2.028,0,0,1,142.656,1150.586Zm3.171,0a1.01,1.01,0,1,0-1,1.091A.995.995,0,0,0,145.827,1150.586Zm-.7-3.531h1.231l-1.326,1.055h-.893Z" fill="#57574d"/>
        <path id="Path_3796" data-name="Path 3796" d="M152.142,1150.3v2.256H151v-2.08c0-.638-.293-.931-.8-.931-.55,0-.945.338-.945,1.063v1.948h-1.143v-3.94h1.092v.461a1.727,1.727,0,0,1,1.3-.52A1.545,1.545,0,0,1,152.142,1150.3Z" fill="#57574d"/>
        <path id="Path_3797" data-name="Path 3797" d="M157.65,1148.616v3.281a1.928,1.928,0,0,1-2.212,2.138,3.249,3.249,0,0,1-1.933-.541l.454-.821a2.355,2.355,0,0,0,1.392.446c.805,0,1.157-.365,1.157-1.076v-.168a1.626,1.626,0,0,1-1.245.491,1.906,1.906,0,1,1,0-3.809,1.583,1.583,0,0,1,1.3.564v-.505Zm-1.128,1.845a1.038,1.038,0,1,0-1.032.967A.957.957,0,0,0,156.522,1150.461Z" fill="#57574d"/>
        <path id="Path_3798" data-name="Path 3798" d="M161.6,1147.121h1.985v.894h-.842v5.068h.842v.894H161.6Z" fill="#57574d"/>
        <path id="Path_3799" data-name="Path 3799" d="M168.17,1150.989c0,.864-.666,1.655-2.124,1.655a3.521,3.521,0,0,1-1.955-.55l.461-.908a2.49,2.49,0,0,0,1.465.462c.593,0,.96-.241.96-.659,0-.389-.286-.63-.96-.63h-.542v-.784l1.055-1.194h-2.183v-.952h3.589v.769l-1.157,1.318A1.456,1.456,0,0,1,168.17,1150.989Z" fill="#57574d"/>
        <path id="Path_3800" data-name="Path 3800" d="M169.086,1149.993c0-1.692.938-2.652,2.2-2.652s2.2.96,2.2,2.652-.93,2.651-2.2,2.651S169.086,1151.684,169.086,1149.993Zm3.2,0c0-1.165-.41-1.649-1-1.649s-1,.484-1,1.649.41,1.648,1,1.648S172.287,1151.157,172.287,1149.993Z" fill="#57574d"/>
        <path id="Path_3801" data-name="Path 3801" d="M175.811,1147.766a1.777,1.777,0,0,1-.191.732l-.425,1.055h-.725l.315-1.157a.651.651,0,0,1-.388-.63.707.707,0,0,1,1.414,0Z" fill="#57574d"/>
        <path id="Path_3802" data-name="Path 3802" d="M178.338,1147.766a1.76,1.76,0,0,1-.191.732l-.424,1.055H177l.314-1.157a.651.651,0,0,1-.388-.63.707.707,0,0,1,1.414,0Z" fill="#57574d"/>
        <path id="Path_3803" data-name="Path 3803" d="M179.063,1153.977v-.894h.835v-5.068h-.835v-.894h1.978v6.856Z" fill="#57574d"/>
        <path id="Path_3804" data-name="Path 3804" d="M184.7,1152.149a4.33,4.33,0,0,1,.977-2.775h.669a4.582,4.582,0,0,0-1,2.809,3.838,3.838,0,0,0,.2,1.2h-.613A3.289,3.289,0,0,1,184.7,1152.149Z" fill="#df071b"/>
        <path id="Path_3805" data-name="Path 3805" d="M189.714,1150.807a1.712,1.712,0,0,1-1.869,1.749h-1.467l.258-1.3h-.407l.094-.463h.407l.249-1.243h1.257C189.162,1149.555,189.714,1150.039,189.714,1150.807Zm-.7.038c0-.445-.287-.72-.852-.72h-.6l-.133.673h.746l-.09.463h-.75l-.146.725h.678A1.079,1.079,0,0,0,189.011,1150.845Z" fill="#df071b"/>
        <path id="Path_3806" data-name="Path 3806" d="M192.893,1150.249l-.458,2.307H191.8l.043-.228a1.025,1.025,0,0,1-.708.262.971.971,0,0,1-.994-1.033,1.283,1.283,0,0,1,1.274-1.342.825.825,0,0,1,.75.347l.06-.313Zm-.874,1.03a.478.478,0,0,0-.527-.511.691.691,0,0,0-.678.759.478.478,0,0,0,.527.51A.69.69,0,0,0,192.019,1151.279Zm-.562,1.847a.311.311,0,0,1-.326.33.256.256,0,0,1-.274-.265.327.327,0,0,1,.326-.322A.259.259,0,0,1,191.457,1153.126Zm-.33-3.725a.354.354,0,0,1,0-.065h.408a.3.3,0,0,0,.338.3.378.378,0,0,0,.4-.3h.433a.818.818,0,0,1-.871.652C191.431,1149.988,191.127,1149.76,191.127,1149.4Z" fill="#df071b"/>
        <path id="Path_3807" data-name="Path 3807" d="M193.311,1151.557a1.331,1.331,0,0,1,1.406-1.342,1.07,1.07,0,0,1,1.038.583l-.566.283a.526.526,0,0,0-.514-.313.7.7,0,0,0-.686.755.484.484,0,0,0,.536.514.635.635,0,0,0,.565-.308l.493.308a1.27,1.27,0,0,1-1.1.553A1.042,1.042,0,0,1,193.311,1151.557Z" fill="#df071b"/>
        <path id="Path_3808" data-name="Path 3808" d="M200.2,1151.248a1.283,1.283,0,0,1-1.278,1.342.827.827,0,0,1-.772-.377l-.068.343h-.635l.635-3.182h.668l-.213,1.073a1.013,1.013,0,0,1,.664-.232A.975.975,0,0,1,200.2,1151.248Zm-.678.031a.478.478,0,0,0-.527-.511.69.69,0,0,0-.673.759.474.474,0,0,0,.523.51A.69.69,0,0,0,199.521,1151.279Z" fill="#df071b"/>
        <path id="Path_3809" data-name="Path 3809" d="M201.08,1150.249h.665l-.459,2.307h-.665Zm.055-.669a.408.408,0,0,1,.443-.4.353.353,0,0,1,.393.334.408.408,0,0,1-.445.412A.359.359,0,0,1,201.135,1149.58Z" fill="#df071b"/>
        <path id="Path_3810" data-name="Path 3810" d="M204.588,1151.582h-1.766c.021.314.215.472.6.472a.952.952,0,0,0,.619-.214l.278.442a1.53,1.53,0,0,1-.965.308,1.041,1.041,0,0,1-1.179-1.033,1.3,1.3,0,0,1,1.36-1.342.989.989,0,0,1,1.1,1.016A1.738,1.738,0,0,1,204.588,1151.582Zm-1.243,1.544a.311.311,0,0,1-.326.33.256.256,0,0,1-.274-.265.327.327,0,0,1,.326-.322A.259.259,0,0,1,203.345,1153.126Zm-.03-3.169h-.5l.652-.617h.587l.485.617h-.476l-.33-.321Zm-.446,1.236h1.145a.46.46,0,0,0-.515-.477A.634.634,0,0,0,202.869,1151.193Z" fill="#df071b"/>
        <path id="Path_3811" data-name="Path 3811" d="M205.94,1151.742a.345.345,0,0,0-.009.093c0,.142.077.224.245.224a.527.527,0,0,0,.27-.082l.1.476a1.094,1.094,0,0,1-.574.137.64.64,0,0,1-.721-.642,1.115,1.115,0,0,1,.022-.2l.185-.93H205.1l.1-.514h.355l.112-.562h.669l-.112.562h.575l-.1.514h-.575Z" fill="#df071b"/>
        <path id="Path_3812" data-name="Path 3812" d="M207.777,1150.579a3.843,3.843,0,0,0-.2-1.2h.613a3.3,3.3,0,0,1,.231,1.24,4.33,4.33,0,0,1-.977,2.774h-.669A4.571,4.571,0,0,0,207.777,1150.579Z" fill="#df071b"/>
        <path id="Path_3813" data-name="Path 3813" d="M66.58,1158.52v.769l-1.9,4.358H63.387l1.838-4.16h-1.7v.835H62.471v-1.8Z" fill="#57574d"/>
        <path id="Path_3814" data-name="Path 3814" d="M67.079,1162.988a.71.71,0,0,1,1.42,0,.71.71,0,1,1-1.42,0Z" fill="#57574d"/>
        <path id="Path_3815" data-name="Path 3815" d="M76.865,1158.52v5.127h-.974l-2.557-3.113v3.113H72.163v-5.127h.981l2.549,3.113v-3.113Z" fill="#57574d"/>
        <path id="Path_3816" data-name="Path 3816" d="M82.432,1159.706v3.282a1.929,1.929,0,0,1-2.212,2.138,3.236,3.236,0,0,1-1.933-.542l.454-.82a2.354,2.354,0,0,0,1.391.447c.806,0,1.158-.367,1.158-1.077v-.169a1.623,1.623,0,0,1-1.246.491,1.905,1.905,0,1,1,0-3.808,1.58,1.58,0,0,1,1.3.563v-.505Zm-1.128,1.846a1.039,1.039,0,1,0-1.033.967A.957.957,0,0,0,81.3,1161.552Z" fill="#57574d"/>
        <path id="Path_3817" data-name="Path 3817" d="M87.348,1161.4v2.248H86.279v-.49a1.3,1.3,0,0,1-1.2.548c-.923,0-1.473-.512-1.473-1.193s.491-1.18,1.692-1.18h.909c0-.49-.293-.776-.909-.776a1.9,1.9,0,0,0-1.135.366l-.41-.8a3.04,3.04,0,0,1,1.7-.475C86.652,1159.648,87.348,1160.2,87.348,1161.4Zm-1.142,1v-.4h-.784c-.535,0-.7.2-.7.462,0,.286.241.476.644.476A.843.843,0,0,0,86.206,1162.4Z" fill="#57574d"/>
        <path id="Path_3818" data-name="Path 3818" d="M92.776,1161.391v2.256H91.633v-2.08c0-.637-.293-.93-.8-.93-.549,0-.945.336-.945,1.062v1.948H88.748v-3.941h1.091v.462a1.72,1.72,0,0,1,1.3-.52A1.545,1.545,0,0,1,92.776,1161.391Z" fill="#57574d"/>
        <path id="Path_3819" data-name="Path 3819" d="M100.644,1161.391v2.256H99.5v-2.08c0-.637-.293-.93-.8-.93-.55,0-.945.336-.945,1.062v1.948H96.615v-5.435h1.143v1.9a1.729,1.729,0,0,1,1.252-.469A1.545,1.545,0,0,1,100.644,1161.391Z" fill="#57574d"/>
        <path id="Path_3820" data-name="Path 3820" d="M105.53,1161.4v2.248h-1.07v-.49a1.293,1.293,0,0,1-1.2.548c-.923,0-1.472-.512-1.472-1.193s.491-1.18,1.692-1.18h.908c0-.49-.293-.776-.908-.776a1.9,1.9,0,0,0-1.135.366l-.41-.8a3.04,3.04,0,0,1,1.7-.475C104.834,1159.648,105.53,1160.2,105.53,1161.4Zm-2.41-2.2h-.842l.974-.836h1l.974.836h-.842l-.63-.418Zm1.267,3.2v-.4H103.6c-.534,0-.7.2-.7.462,0,.286.242.476.645.476A.842.842,0,0,0,104.387,1162.4Zm.681-3.9-1.15-.886h1.165l.806.886Z" fill="#57574d"/>
        <path id="Path_3821" data-name="Path 3821" d="M113.587,1161.391v2.256h-1.143v-2.08c0-.637-.285-.93-.747-.93-.512,0-.871.329-.871,1.032v1.978h-1.143v-2.08c0-.637-.271-.93-.747-.93-.5,0-.864.329-.864,1.032v1.978h-1.143v-3.941h1.091v.454a1.6,1.6,0,0,1,1.238-.512,1.472,1.472,0,0,1,1.3.644,1.77,1.77,0,0,1,1.421-.644A1.526,1.526,0,0,1,113.587,1161.391Z" fill="#57574d"/>
        <path id="Path_3822" data-name="Path 3822" d="M121.711,1161.676a1.914,1.914,0,0,1-1.962,2.029,1.53,1.53,0,0,1-1.238-.512v.454h-1.092v-5.435h1.143v1.911a1.531,1.531,0,0,1,1.187-.475A1.913,1.913,0,0,1,121.711,1161.676Zm-1.157,0a1.007,1.007,0,1,0-1,1.092A.994.994,0,0,0,120.554,1161.676Z" fill="#57574d"/>
        <path id="Path_3823" data-name="Path 3823" d="M126.261,1161.4v2.248h-1.069v-.49a1.3,1.3,0,0,1-1.2.548c-.923,0-1.472-.512-1.472-1.193s.49-1.18,1.691-1.18h.909c0-.49-.293-.776-.909-.776a1.9,1.9,0,0,0-1.135.366l-.41-.8a3.04,3.04,0,0,1,1.7-.475C125.565,1159.648,126.261,1160.2,126.261,1161.4Zm-1.142,1v-.4h-.784c-.535,0-.7.2-.7.462,0,.286.242.476.644.476A.843.843,0,0,0,125.119,1162.4Zm-.411-3.2h-.893l.989-1.055h1.23Z" fill="#57574d"/>
        <path id="Path_3824" data-name="Path 3824" d="M127.412,1161.676a2.037,2.037,0,0,1,2.2-2.028,1.809,1.809,0,0,1,1.765,1l-.886.476a.985.985,0,0,0-.886-.542,1.093,1.093,0,0,0,0,2.183.97.97,0,0,0,.886-.542l.886.483a1.828,1.828,0,0,1-1.765,1A2.036,2.036,0,0,1,127.412,1161.676Z" fill="#57574d"/>
        <path id="Path_3825" data-name="Path 3825" d="M136.4,1161.391v2.256h-1.143v-2.08c0-.637-.293-.93-.8-.93-.549,0-.945.336-.945,1.062v1.948h-1.142v-5.435h1.142v1.9a1.732,1.732,0,0,1,1.253-.469A1.545,1.545,0,0,1,136.4,1161.391Z" fill="#57574d"/>
        <path id="Path_3826" data-name="Path 3826" d="M142.78,1163.456a1.631,1.631,0,0,1-.93.249,1.3,1.3,0,0,1-1.473-1.414v-1.618h-.607v-.879h.607v-.96h1.143v.96h.981v.879h-.981v1.6a.459.459,0,0,0,.491.519.77.77,0,0,0,.461-.146Z" fill="#57574d"/>
        <path id="Path_3827" data-name="Path 3827" d="M147.819,1161.391v2.256h-1.142v-2.08c0-.637-.293-.93-.8-.93-.549,0-.944.336-.944,1.062v1.948h-1.143v-5.435h1.143v1.9a1.729,1.729,0,0,1,1.252-.469A1.545,1.545,0,0,1,147.819,1161.391Z" fill="#57574d"/>
        <path id="Path_3828" data-name="Path 3828" d="M152.706,1161.4v2.248h-1.07v-.49a1.293,1.293,0,0,1-1.2.548c-.923,0-1.472-.512-1.472-1.193s.491-1.18,1.692-1.18h.908c0-.49-.293-.776-.908-.776a1.9,1.9,0,0,0-1.135.366l-.411-.8a3.043,3.043,0,0,1,1.7-.475C152.01,1159.648,152.706,1160.2,152.706,1161.4Zm-1.143,1v-.4h-.784c-.534,0-.7.2-.7.462,0,.286.242.476.645.476A.842.842,0,0,0,151.563,1162.4Zm-1.179-4.124-.235-.461a1.278,1.278,0,0,1,.791-.249.794.794,0,0,1,.879.784.983.983,0,0,1-.674.922l-.358-.381c.285-.131.373-.277.373-.446a.311.311,0,0,0-.344-.308A.772.772,0,0,0,150.384,1158.278Z" fill="#57574d"/>
        <path id="Path_3829" data-name="Path 3829" d="M153.856,1161.676a2.169,2.169,0,1,1,2.168,2.029A2.029,2.029,0,0,1,153.856,1161.676Zm3.171,0a1.01,1.01,0,1,0-1,1.092A.994.994,0,0,0,157.027,1161.676Z" fill="#57574d"/>
        <path id="Path_3830" data-name="Path 3830" d="M161.469,1163.24a4.331,4.331,0,0,1,.977-2.775h.669a4.576,4.576,0,0,0-1,2.809,3.809,3.809,0,0,0,.2,1.2H161.7A3.29,3.29,0,0,1,161.469,1163.24Z" fill="#df071b"/>
        <path id="Path_3831" data-name="Path 3831" d="M166.486,1161.9a1.713,1.713,0,0,1-1.869,1.749H163.15l.258-1.295H163l.1-.463h.407l.248-1.243h1.257C165.933,1160.646,166.486,1161.13,166.486,1161.9Zm-.7.038c0-.445-.287-.72-.853-.72h-.6l-.132.673h.746l-.09.463h-.751l-.146.725h.678A1.079,1.079,0,0,0,165.783,1161.936Z" fill="#df071b"/>
        <path id="Path_3832" data-name="Path 3832" d="M169.666,1161.34l-.459,2.307h-.634l.043-.228a1.026,1.026,0,0,1-.708.262.971.971,0,0,1-1-1.033,1.282,1.282,0,0,1,1.274-1.342.822.822,0,0,1,.75.347l.06-.313Zm-.875,1.029a.478.478,0,0,0-.527-.51.691.691,0,0,0-.678.759.478.478,0,0,0,.528.51A.691.691,0,0,0,168.791,1162.369Zm-.562,1.848a.311.311,0,0,1-.325.33.257.257,0,0,1-.275-.265.328.328,0,0,1,.326-.322A.259.259,0,0,1,168.229,1164.217Zm-.33-3.726a.28.28,0,0,1,.005-.064h.407a.3.3,0,0,0,.339.3.377.377,0,0,0,.4-.3h.433a.816.816,0,0,1-.87.651C168.2,1161.078,167.9,1160.851,167.9,1160.491Z" fill="#df071b"/>
        <path id="Path_3833" data-name="Path 3833" d="M170.084,1162.648a1.331,1.331,0,0,1,1.406-1.342,1.07,1.07,0,0,1,1.038.583l-.566.283a.526.526,0,0,0-.515-.313.7.7,0,0,0-.686.755.484.484,0,0,0,.536.514.636.636,0,0,0,.566-.308l.493.308a1.271,1.271,0,0,1-1.1.553A1.042,1.042,0,0,1,170.084,1162.648Z" fill="#df071b"/>
        <path id="Path_3834" data-name="Path 3834" d="M176.973,1162.339a1.283,1.283,0,0,1-1.278,1.342.827.827,0,0,1-.772-.377l-.069.343h-.634l.634-3.182h.669l-.214,1.072a1.022,1.022,0,0,1,.665-.231A.974.974,0,0,1,176.973,1162.339Zm-.678.03a.477.477,0,0,0-.527-.51.69.69,0,0,0-.673.759.475.475,0,0,0,.523.51A.691.691,0,0,0,176.295,1162.369Z" fill="#df071b"/>
        <path id="Path_3835" data-name="Path 3835" d="M177.853,1161.34h.666l-.459,2.307H177.4Zm.057-.669a.406.406,0,0,1,.441-.4.355.355,0,0,1,.4.334.409.409,0,0,1-.446.412A.358.358,0,0,1,177.91,1160.671Z" fill="#df071b"/>
        <path id="Path_3836" data-name="Path 3836" d="M181.362,1162.673H179.6c.022.314.215.472.6.472a.95.95,0,0,0,.618-.214l.278.441a1.521,1.521,0,0,1-.964.309,1.042,1.042,0,0,1-1.18-1.033,1.3,1.3,0,0,1,1.36-1.342.988.988,0,0,1,1.1,1.016A1.814,1.814,0,0,1,181.362,1162.673Zm-1.243,1.544a.312.312,0,0,1-.327.33.256.256,0,0,1-.274-.265.327.327,0,0,1,.326-.322A.26.26,0,0,1,180.119,1164.217Zm-.031-3.169h-.5l.651-.617h.588l.485.617h-.477l-.33-.321Zm-.445,1.236h1.144a.459.459,0,0,0-.514-.477A.631.631,0,0,0,179.643,1162.284Z" fill="#df071b"/>
        <path id="Path_3837" data-name="Path 3837" d="M182.714,1162.832a.4.4,0,0,0-.008.094c0,.142.077.224.244.224a.54.54,0,0,0,.271-.082l.1.476a1.094,1.094,0,0,1-.574.137.64.64,0,0,1-.721-.643,1.112,1.112,0,0,1,.022-.2l.184-.93h-.356l.1-.514h.356l.111-.563h.669l-.111.563h.575l-.1.514H182.9Z" fill="#df071b"/>
        <path id="Path_3838" data-name="Path 3838" d="M184.55,1161.67a3.809,3.809,0,0,0-.2-1.205h.612a3.289,3.289,0,0,1,.232,1.239,4.326,4.326,0,0,1-.978,2.775h-.668A4.581,4.581,0,0,0,184.55,1161.67Z" fill="#df071b"/>
      </g>
    </g>
    <g id="Group_348" data-name="Group 348" transform="translate(-62.273 -1091.34)">
      <g id="Group_347" data-name="Group 347">
        <path id="Path_3839" data-name="Path 3839" d="M265.7,1091.978v5.127H264.51v-4.175h-1.025v-.952Z" fill="#df071b"/>
        <path id="Path_3840" data-name="Path 3840" d="M270.831,1095.494c0,.908-.666,1.7-2.131,1.7a3.547,3.547,0,0,1-1.956-.55l.468-.908a2.468,2.468,0,0,0,1.458.462c.593,0,.959-.249.959-.667s-.263-.666-1.193-.666h-1.312l.264-2.886h3.128v.952h-2.139l-.081.975h.417C270.23,1093.905,270.831,1094.585,270.831,1095.494Z" fill="#df071b"/>
        <path id="Path_3841" data-name="Path 3841" d="M271.68,1094.541c0-1.691.938-2.651,2.2-2.651s2.2.96,2.2,2.651-.93,2.652-2.2,2.652S271.68,1096.233,271.68,1094.541Zm3.2,0c0-1.164-.41-1.648-1-1.648s-1,.484-1,1.648.41,1.649,1,1.649S274.881,1095.7,274.881,1094.541Z" fill="#df071b"/>
        <path id="Path_3842" data-name="Path 3842" d="M276.889,1096.446a.711.711,0,0,1,1.421,0,.711.711,0,1,1-1.421,0Z" fill="#df071b"/>
        <path id="Path_3843" data-name="Path 3843" d="M279.116,1094.541c0-1.691.937-2.651,2.2-2.651s2.2.96,2.2,2.651-.93,2.652-2.2,2.652S279.116,1096.233,279.116,1094.541Zm3.2,0c0-1.164-.41-1.648-1-1.648s-1,.484-1,1.648.41,1.649,1,1.649S282.316,1095.7,282.316,1094.541Z" fill="#df071b"/>
        <path id="Path_3844" data-name="Path 3844" d="M284.456,1094.541c0-1.691.937-2.651,2.2-2.651s2.2.96,2.2,2.651-.931,2.652-2.2,2.652S284.456,1096.233,284.456,1094.541Zm3.2,0c0-1.164-.41-1.648-1-1.648s-1,.484-1,1.648.41,1.649,1,1.649S287.656,1095.7,287.656,1094.541Z" fill="#df071b"/>
        <path id="Path_3845" data-name="Path 3845" d="M289.8,1094.541c0-1.691.938-2.651,2.2-2.651s2.2.96,2.2,2.651-.931,2.652-2.2,2.652S289.8,1096.233,289.8,1094.541Zm3.2,0c0-1.164-.411-1.648-1-1.648s-1,.484-1,1.648.41,1.649,1,1.649S293,1095.7,293,1094.541Z" fill="#df071b"/>
        <path id="Path_3846" data-name="Path 3846" d="M299.924,1092.762h-.534v4.343H298.3v-.454a1.519,1.519,0,0,1-1.23.512,2.029,2.029,0,0,1,0-4.057,1.518,1.518,0,0,1,1.179.476v-.82h-1.341v-.66h1.341v-.432h1.142v.432h.534Zm-1.654,2.373a1.011,1.011,0,1,0-1,1.091A1,1,0,0,0,298.27,1095.135Z" fill="#df071b"/>
        <path id="Path_3847" data-name="Path 3847" d="M266.1,1107.228v.967h-3.874v-.769l1.977-1.868c.455-.433.535-.7.535-.944,0-.4-.279-.638-.821-.638a1.256,1.256,0,0,0-1.062.513l-.863-.557a2.38,2.38,0,0,1,2.035-.952c1.142,0,1.9.586,1.9,1.516a2.048,2.048,0,0,1-.856,1.619l-1.179,1.113Z" fill="#df071b"/>
        <path id="Path_3848" data-name="Path 3848" d="M270.832,1106.583c0,.909-.667,1.7-2.132,1.7a3.547,3.547,0,0,1-1.955-.55l.468-.908a2.468,2.468,0,0,0,1.457.461c.594,0,.96-.249.96-.667,0-.4-.263-.666-1.194-.666h-1.311l.264-2.885h3.127v.952h-2.139l-.08.974h.418C270.231,1104.994,270.832,1105.675,270.832,1106.583Z" fill="#df071b"/>
        <path id="Path_3849" data-name="Path 3849" d="M271.682,1105.631c0-1.691.938-2.651,2.2-2.651s2.2.96,2.2,2.651-.931,2.652-2.2,2.652S271.682,1107.323,271.682,1105.631Zm3.2,0c0-1.164-.41-1.648-1-1.648s-1,.484-1,1.648.41,1.649,1,1.649S274.882,1106.8,274.882,1105.631Z" fill="#df071b"/>
        <path id="Path_3850" data-name="Path 3850" d="M276.89,1107.535a.711.711,0,0,1,1.421,0,.711.711,0,1,1-1.421,0Z" fill="#df071b"/>
        <path id="Path_3851" data-name="Path 3851" d="M279.116,1105.631c0-1.691.937-2.651,2.2-2.651s2.2.96,2.2,2.651-.929,2.652-2.2,2.652S279.116,1107.323,279.116,1105.631Zm3.2,0c0-1.164-.41-1.648-1-1.648s-1,.484-1,1.648.41,1.649,1,1.649S282.317,1106.8,282.317,1105.631Z" fill="#df071b"/>
        <path id="Path_3852" data-name="Path 3852" d="M284.456,1105.631c0-1.691.937-2.651,2.2-2.651s2.2.96,2.2,2.651-.93,2.652-2.2,2.652S284.456,1107.323,284.456,1105.631Zm3.2,0c0-1.164-.41-1.648-1-1.648s-1,.484-1,1.648.41,1.649,1,1.649S287.657,1106.8,287.657,1105.631Z" fill="#df071b"/>
        <path id="Path_3853" data-name="Path 3853" d="M289.8,1105.631c0-1.691.938-2.651,2.2-2.651s2.2.96,2.2,2.651-.93,2.652-2.2,2.652S289.8,1107.323,289.8,1105.631Zm3.2,0c0-1.164-.411-1.648-1-1.648s-1,.484-1,1.648.41,1.649,1,1.649S293,1106.8,293,1105.631Z" fill="#df071b"/>
        <path id="Path_3854" data-name="Path 3854" d="M299.926,1103.852h-.535v4.343H298.3v-.454a1.518,1.518,0,0,1-1.23.512,2.029,2.029,0,0,1,0-4.057,1.516,1.516,0,0,1,1.18.476v-.82h-1.34v-.66h1.34v-.432h1.142v.432h.535Zm-1.656,2.373a1.01,1.01,0,1,0-1,1.091A1,1,0,0,0,298.27,1106.225Z" fill="#df071b"/>
        <path id="Path_3855" data-name="Path 3855" d="M265.741,1114.159v5.126h-1.188v-4.174h-1.025v-.952Z" fill="#df071b"/>
        <path id="Path_3856" data-name="Path 3856" d="M271.291,1117.8c0,.967-.863,1.574-2.167,1.574s-2.153-.607-2.153-1.574a1.3,1.3,0,0,1,.776-1.209,1.184,1.184,0,0,1-.593-1.055c0-.9.805-1.464,1.97-1.464s1.985.564,1.985,1.464a1.191,1.191,0,0,1-.6,1.055A1.3,1.3,0,0,1,271.291,1117.8Zm-1.2-.037c0-.454-.373-.732-.966-.732s-.952.278-.952.732.366.74.952.74S270.09,1118.216,270.09,1117.762Zm-1.758-2.176c0,.389.309.631.792.631s.806-.242.806-.631-.322-.644-.806-.644S268.332,1115.184,268.332,1115.586Z" fill="#df071b"/>
        <path id="Path_3857" data-name="Path 3857" d="M276.076,1117.674c0,.908-.667,1.7-2.132,1.7a3.545,3.545,0,0,1-1.955-.548l.468-.909a2.47,2.47,0,0,0,1.458.461c.593,0,.959-.249.959-.666s-.263-.667-1.194-.667h-1.31l.263-2.885h3.127v.952h-2.138l-.081.973h.418C275.475,1116.084,276.076,1116.766,276.076,1117.674Z" fill="#df071b"/>
        <path id="Path_3858" data-name="Path 3858" d="M276.889,1118.626a.711.711,0,0,1,1.421,0,.711.711,0,1,1-1.421,0Z" fill="#df071b"/>
        <path id="Path_3859" data-name="Path 3859" d="M279.116,1116.722c0-1.692.937-2.651,2.2-2.651s2.2.959,2.2,2.651-.929,2.651-2.2,2.651S279.116,1118.414,279.116,1116.722Zm3.2,0c0-1.165-.41-1.647-1-1.647s-1,.482-1,1.647.41,1.647,1,1.647S282.317,1117.887,282.317,1116.722Z" fill="#df071b"/>
        <path id="Path_3860" data-name="Path 3860" d="M284.456,1116.722c0-1.692.937-2.651,2.2-2.651s2.2.959,2.2,2.651-.93,2.651-2.2,2.651S284.456,1118.414,284.456,1116.722Zm3.2,0c0-1.165-.41-1.647-1-1.647s-1,.482-1,1.647.41,1.647,1,1.647S287.657,1117.887,287.657,1116.722Z" fill="#df071b"/>
        <path id="Path_3861" data-name="Path 3861" d="M289.8,1116.722c0-1.692.938-2.651,2.2-2.651s2.2.959,2.2,2.651-.93,2.651-2.2,2.651S289.8,1118.414,289.8,1116.722Zm3.2,0c0-1.165-.411-1.647-1-1.647s-1,.482-1,1.647.41,1.647,1,1.647S293,1117.887,293,1116.722Z" fill="#df071b"/>
        <path id="Path_3862" data-name="Path 3862" d="M299.926,1114.942h-.535v4.343H298.3v-.454a1.512,1.512,0,0,1-1.23.513,2.03,2.03,0,0,1,0-4.058,1.516,1.516,0,0,1,1.18.476v-.82h-1.34v-.658h1.34v-.433h1.142v.433h.535Zm-1.656,2.373a1.01,1.01,0,1,0-1,1.092A1,1,0,0,0,298.27,1117.315Z" fill="#df071b"/>
        <path id="Path_3863" data-name="Path 3863" d="M266.1,1129.409v.966h-3.874v-.769l1.977-1.867c.455-.432.535-.7.535-.946,0-.4-.279-.636-.821-.636a1.255,1.255,0,0,0-1.062.512l-.863-.556a2.378,2.378,0,0,1,2.035-.953c1.142,0,1.9.586,1.9,1.516a2.047,2.047,0,0,1-.856,1.619l-1.179,1.114Z" fill="#df071b"/>
        <path id="Path_3864" data-name="Path 3864" d="M270.832,1128.764c0,.908-.667,1.7-2.132,1.7a3.538,3.538,0,0,1-1.955-.549l.468-.908a2.469,2.469,0,0,0,1.457.461c.594,0,.96-.249.96-.666s-.263-.667-1.194-.667h-1.311l.264-2.886h3.127v.953h-2.139l-.08.973h.418C270.231,1127.174,270.832,1127.856,270.832,1128.764Z" fill="#df071b"/>
        <path id="Path_3865" data-name="Path 3865" d="M271.682,1127.812c0-1.693.938-2.652,2.2-2.652s2.2.959,2.2,2.652-.931,2.651-2.2,2.651S271.682,1129.5,271.682,1127.812Zm3.2,0c0-1.165-.41-1.648-1-1.648s-1,.483-1,1.648.41,1.647,1,1.647S274.882,1128.977,274.882,1127.812Z" fill="#df071b"/>
        <path id="Path_3866" data-name="Path 3866" d="M276.89,1129.716a.711.711,0,0,1,1.421,0,.711.711,0,1,1-1.421,0Z" fill="#df071b"/>
        <path id="Path_3867" data-name="Path 3867" d="M279.116,1127.812c0-1.693.937-2.652,2.2-2.652s2.2.959,2.2,2.652-.929,2.651-2.2,2.651S279.116,1129.5,279.116,1127.812Zm3.2,0c0-1.165-.41-1.648-1-1.648s-1,.483-1,1.648.41,1.647,1,1.647S282.317,1128.977,282.317,1127.812Z" fill="#df071b"/>
        <path id="Path_3868" data-name="Path 3868" d="M284.456,1127.812c0-1.693.937-2.652,2.2-2.652s2.2.959,2.2,2.652-.93,2.651-2.2,2.651S284.456,1129.5,284.456,1127.812Zm3.2,0c0-1.165-.41-1.648-1-1.648s-1,.483-1,1.648.41,1.647,1,1.647S287.657,1128.977,287.657,1127.812Z" fill="#df071b"/>
        <path id="Path_3869" data-name="Path 3869" d="M289.8,1127.812c0-1.693.938-2.652,2.2-2.652s2.2.959,2.2,2.652-.93,2.651-2.2,2.651S289.8,1129.5,289.8,1127.812Zm3.2,0c0-1.165-.411-1.648-1-1.648s-1,.483-1,1.648.41,1.647,1,1.647S293,1128.977,293,1127.812Z" fill="#df071b"/>
        <path id="Path_3870" data-name="Path 3870" d="M299.926,1126.032h-.535v4.343H298.3v-.454a1.512,1.512,0,0,1-1.23.513,2.03,2.03,0,0,1,0-4.058,1.516,1.516,0,0,1,1.18.476v-.82h-1.34v-.659h1.34v-.432h1.142v.432h.535Zm-1.656,2.373a1.01,1.01,0,1,0-1,1.091A1,1,0,0,0,298.27,1128.405Z" fill="#df071b"/>
        <path id="Path_3871" data-name="Path 3871" d="M266.1,1140.5v.967h-3.874v-.768l1.977-1.869c.455-.432.535-.7.535-.944,0-.4-.279-.638-.821-.638a1.256,1.256,0,0,0-1.062.513l-.863-.557a2.38,2.38,0,0,1,2.035-.952c1.142,0,1.9.586,1.9,1.517a2.046,2.046,0,0,1-.856,1.618l-1.179,1.113Z" fill="#df071b"/>
        <path id="Path_3872" data-name="Path 3872" d="M270.832,1139.855c0,.908-.667,1.7-2.132,1.7a3.539,3.539,0,0,1-1.955-.55l.468-.908a2.469,2.469,0,0,0,1.457.462c.594,0,.96-.249.96-.667,0-.4-.263-.666-1.194-.666h-1.311l.264-2.886h3.127v.952h-2.139l-.08.975h.418C270.231,1138.266,270.832,1138.947,270.832,1139.855Z" fill="#df071b"/>
        <path id="Path_3873" data-name="Path 3873" d="M271.682,1138.9c0-1.692.938-2.652,2.2-2.652s2.2.96,2.2,2.652-.931,2.651-2.2,2.651S271.682,1140.594,271.682,1138.9Zm3.2,0c0-1.164-.41-1.649-1-1.649s-1,.485-1,1.649.41,1.648,1,1.648S274.882,1140.067,274.882,1138.9Z" fill="#df071b"/>
        <path id="Path_3874" data-name="Path 3874" d="M276.89,1140.807a.711.711,0,0,1,1.421,0,.711.711,0,1,1-1.421,0Z" fill="#df071b"/>
        <path id="Path_3875" data-name="Path 3875" d="M279.116,1138.9c0-1.692.937-2.652,2.2-2.652s2.2.96,2.2,2.652-.929,2.651-2.2,2.651S279.116,1140.594,279.116,1138.9Zm3.2,0c0-1.164-.41-1.649-1-1.649s-1,.485-1,1.649.41,1.648,1,1.648S282.317,1140.067,282.317,1138.9Z" fill="#df071b"/>
        <path id="Path_3876" data-name="Path 3876" d="M284.456,1138.9c0-1.692.937-2.652,2.2-2.652s2.2.96,2.2,2.652-.93,2.651-2.2,2.651S284.456,1140.594,284.456,1138.9Zm3.2,0c0-1.164-.41-1.649-1-1.649s-1,.485-1,1.649.41,1.648,1,1.648S287.657,1140.067,287.657,1138.9Z" fill="#df071b"/>
        <path id="Path_3877" data-name="Path 3877" d="M289.8,1138.9c0-1.692.938-2.652,2.2-2.652s2.2.96,2.2,2.652-.93,2.651-2.2,2.651S289.8,1140.594,289.8,1138.9Zm3.2,0c0-1.164-.411-1.649-1-1.649s-1,.485-1,1.649.41,1.648,1,1.648S293,1140.067,293,1138.9Z" fill="#df071b"/>
        <path id="Path_3878" data-name="Path 3878" d="M299.926,1137.123h-.535v4.343H298.3v-.454a1.515,1.515,0,0,1-1.23.513,2.03,2.03,0,0,1,0-4.058,1.513,1.513,0,0,1,1.18.477v-.821h-1.34v-.66h1.34v-.431h1.142v.431h.535Zm-1.656,2.373a1.01,1.01,0,1,0-1,1.091A1,1,0,0,0,298.27,1139.5Z" fill="#df071b"/>
        <path id="Path_3879" data-name="Path 3879" d="M266.1,1151.589v.967h-3.874v-.769l1.977-1.868c.455-.432.535-.7.535-.944,0-.4-.279-.638-.821-.638a1.256,1.256,0,0,0-1.062.513l-.863-.557a2.38,2.38,0,0,1,2.035-.952c1.142,0,1.9.586,1.9,1.517a2.046,2.046,0,0,1-.856,1.618l-1.179,1.113Z" fill="#df071b"/>
        <path id="Path_3880" data-name="Path 3880" d="M270.832,1150.945c0,.908-.667,1.7-2.132,1.7a3.538,3.538,0,0,1-1.955-.55l.468-.908a2.469,2.469,0,0,0,1.457.462c.594,0,.96-.249.96-.667,0-.4-.263-.666-1.194-.666h-1.311l.264-2.886h3.127v.952h-2.139l-.08.975h.418C270.231,1149.356,270.832,1150.036,270.832,1150.945Z" fill="#df071b"/>
        <path id="Path_3881" data-name="Path 3881" d="M271.682,1149.993c0-1.692.938-2.652,2.2-2.652s2.2.96,2.2,2.652-.931,2.651-2.2,2.651S271.682,1151.684,271.682,1149.993Zm3.2,0c0-1.165-.41-1.649-1-1.649s-1,.484-1,1.649.41,1.648,1,1.648S274.882,1151.157,274.882,1149.993Z" fill="#df071b"/>
        <path id="Path_3882" data-name="Path 3882" d="M276.89,1151.9a.711.711,0,0,1,1.421,0,.711.711,0,1,1-1.421,0Z" fill="#df071b"/>
        <path id="Path_3883" data-name="Path 3883" d="M279.116,1149.993c0-1.692.937-2.652,2.2-2.652s2.2.96,2.2,2.652-.929,2.651-2.2,2.651S279.116,1151.684,279.116,1149.993Zm3.2,0c0-1.165-.41-1.649-1-1.649s-1,.484-1,1.649.41,1.648,1,1.648S282.317,1151.157,282.317,1149.993Z" fill="#df071b"/>
        <path id="Path_3884" data-name="Path 3884" d="M284.456,1149.993c0-1.692.937-2.652,2.2-2.652s2.2.96,2.2,2.652-.93,2.651-2.2,2.651S284.456,1151.684,284.456,1149.993Zm3.2,0c0-1.165-.41-1.649-1-1.649s-1,.484-1,1.649.41,1.648,1,1.648S287.657,1151.157,287.657,1149.993Z" fill="#df071b"/>
        <path id="Path_3885" data-name="Path 3885" d="M289.8,1149.993c0-1.692.938-2.652,2.2-2.652s2.2.96,2.2,2.652-.93,2.651-2.2,2.651S289.8,1151.684,289.8,1149.993Zm3.2,0c0-1.165-.411-1.649-1-1.649s-1,.484-1,1.649.41,1.648,1,1.648S293,1151.157,293,1149.993Z" fill="#df071b"/>
        <path id="Path_3886" data-name="Path 3886" d="M299.926,1148.213h-.535v4.343H298.3v-.454a1.515,1.515,0,0,1-1.23.513,2.03,2.03,0,0,1,0-4.058,1.513,1.513,0,0,1,1.18.477v-.821h-1.34v-.66h1.34v-.432h1.142v.432h.535Zm-1.656,2.373a1.01,1.01,0,1,0-1,1.091A1,1,0,0,0,298.27,1150.586Z" fill="#df071b"/>
        <path id="Path_3887" data-name="Path 3887" d="M266.084,1162.079c0,.865-.666,1.656-2.124,1.656a3.533,3.533,0,0,1-1.956-.549l.462-.908a2.49,2.49,0,0,0,1.465.461c.593,0,.96-.243.96-.66,0-.387-.286-.629-.96-.629h-.542v-.784l1.055-1.194h-2.183v-.952h3.589v.769l-1.157,1.319A1.455,1.455,0,0,1,266.084,1162.079Z" fill="#df071b"/>
        <path id="Path_3888" data-name="Path 3888" d="M271.293,1162.16c0,.967-.865,1.575-2.168,1.575s-2.154-.608-2.154-1.575a1.3,1.3,0,0,1,.778-1.208,1.186,1.186,0,0,1-.594-1.055c0-.9.8-1.465,1.97-1.465s1.985.564,1.985,1.465a1.192,1.192,0,0,1-.6,1.055A1.3,1.3,0,0,1,271.293,1162.16Zm-1.2-.037c0-.454-.374-.732-.967-.732s-.953.278-.953.732.368.741.953.741S270.092,1162.577,270.092,1162.123Zm-1.758-2.175c0,.388.307.63.791.63s.8-.242.8-.63-.322-.645-.8-.645S268.334,1159.545,268.334,1159.948Z" fill="#df071b"/>
        <path id="Path_3889" data-name="Path 3889" d="M276.077,1162.035c0,.909-.666,1.7-2.131,1.7a3.548,3.548,0,0,1-1.956-.549l.468-.908a2.467,2.467,0,0,0,1.458.461c.593,0,.959-.249.959-.666s-.263-.667-1.193-.667h-1.311l.263-2.886h3.128v.952h-2.138l-.082.974h.417C275.476,1160.446,276.077,1161.127,276.077,1162.035Z" fill="#df071b"/>
        <path id="Path_3890" data-name="Path 3890" d="M276.89,1162.988a.711.711,0,0,1,1.421,0,.711.711,0,1,1-1.421,0Z" fill="#df071b"/>
        <path id="Path_3891" data-name="Path 3891" d="M279.118,1161.083c0-1.692.937-2.651,2.2-2.651s2.2.959,2.2,2.651-.93,2.652-2.2,2.652S279.118,1162.776,279.118,1161.083Zm3.2,0c0-1.165-.41-1.647-1-1.647s-1,.482-1,1.647.41,1.648,1,1.648S282.318,1162.248,282.318,1161.083Z" fill="#df071b"/>
        <path id="Path_3892" data-name="Path 3892" d="M284.457,1161.083c0-1.692.938-2.651,2.2-2.651s2.2.959,2.2,2.651-.931,2.652-2.2,2.652S284.457,1162.776,284.457,1161.083Zm3.2,0c0-1.165-.41-1.647-1-1.647s-1,.482-1,1.647.41,1.648,1,1.648S287.658,1162.248,287.658,1161.083Z" fill="#df071b"/>
        <path id="Path_3893" data-name="Path 3893" d="M289.8,1161.083c0-1.692.938-2.651,2.2-2.651s2.2.959,2.2,2.651-.931,2.652-2.2,2.652S289.8,1162.776,289.8,1161.083Zm3.2,0c0-1.165-.411-1.647-1-1.647s-1,.482-1,1.647.41,1.648,1,1.648S293,1162.248,293,1161.083Z" fill="#df071b"/>
        <path id="Path_3894" data-name="Path 3894" d="M299.926,1159.3h-.534v4.344H298.3v-.454a1.516,1.516,0,0,1-1.23.512,2.029,2.029,0,0,1,0-4.057,1.514,1.514,0,0,1,1.178.475v-.82h-1.34v-.658h1.34v-.433h1.143v.433h.534Zm-1.654,2.373a1.011,1.011,0,1,0-1,1.092A1,1,0,0,0,298.272,1161.676Z" fill="#df071b"/>
      </g>
    </g>
  </g>
</svg>
