<svg xmlns="http://www.w3.org/2000/svg" xmlns:xlink="http://www.w3.org/1999/xlink" width="238" height="31" viewBox="0 0 238 31">
  <defs>
    <clipPath id="clip-Web_1920_1">
      <rect width="238" height="31"/>
    </clipPath>
  </defs>
  <g id="Web_1920_1" data-name="Web 1920 – 1" clip-path="url(#clip-Web_1920_1)">
    <g id="Group_389" data-name="Group 389" transform="translate(-349.608 -754.949)">
      <g id="Group_388" data-name="Group 388">
        <path id="Path_4454" data-name="Path 4454" d="M351.879,757.146v5.127h-1.187V758.1h-1.025v-.952Z" fill="#57574d"/>
        <path id="Path_4455" data-name="Path 4455" d="M353.1,761.614a.71.71,0,0,1,1.42,0,.71.71,0,1,1-1.42,0Z" fill="#57574d"/>
        <path id="Path_4456" data-name="Path 4456" d="M357.864,759.709a2.824,2.824,0,0,1,4.893-1.743l-.762.7a1.65,1.65,0,0,0-1.289-.6,1.641,1.641,0,1,0,0,3.281,1.634,1.634,0,0,0,1.289-.607l.762.7a2.819,2.819,0,0,1-4.893-1.737Z" fill="#57574d"/>
        <path id="Path_4457" data-name="Path 4457" d="M363.41,760.3a2.169,2.169,0,1,1,2.168,2.028A2.028,2.028,0,0,1,363.41,760.3Zm3.171,0a1.01,1.01,0,1,0-1,1.091A.994.994,0,0,0,366.581,760.3Z" fill="#57574d"/>
        <path id="Path_4458" data-name="Path 4458" d="M375.525,760.017v2.256h-1.142v-2.08c0-.638-.286-.931-.747-.931-.513,0-.872.33-.872,1.033v1.978h-1.142v-2.08c0-.638-.271-.931-.748-.931-.505,0-.864.33-.864,1.033v1.978h-1.142v-3.941h1.091v.454a1.6,1.6,0,0,1,1.238-.512,1.472,1.472,0,0,1,1.3.644,1.774,1.774,0,0,1,1.421-.644A1.526,1.526,0,0,1,375.525,760.017Z" fill="#57574d"/>
        <path id="Path_4459" data-name="Path 4459" d="M381.21,760.3a1.913,1.913,0,0,1-1.962,2.028,1.533,1.533,0,0,1-1.238-.512v.454h-1.092v-5.435h1.143v1.912a1.531,1.531,0,0,1,1.187-.476A1.914,1.914,0,0,1,381.21,760.3Zm-1.157,0a1.007,1.007,0,1,0-1,1.091A.994.994,0,0,0,380.053,760.3Z" fill="#57574d"/>
        <path id="Path_4460" data-name="Path 4460" d="M382.046,760.3a2.169,2.169,0,1,1,2.168,2.028A2.029,2.029,0,0,1,382.046,760.3Zm3.172,0a1.01,1.01,0,1,0-1,1.091A.995.995,0,0,0,385.218,760.3Z" fill="#57574d"/>
        <path id="Path_4461" data-name="Path 4461" d="M394.726,757.146v5.127h-.974L391.2,759.16v3.113h-1.172v-5.127h.981l2.549,3.112v-3.112Z" fill="#57574d"/>
        <path id="Path_4462" data-name="Path 4462" d="M400.293,758.332v3.282a1.928,1.928,0,0,1-2.211,2.138,3.244,3.244,0,0,1-1.934-.542l.454-.82a2.362,2.362,0,0,0,1.392.446c.805,0,1.157-.365,1.157-1.076v-.168a1.624,1.624,0,0,1-1.245.49,1.905,1.905,0,1,1,0-3.808,1.58,1.58,0,0,1,1.3.564v-.506Zm-1.127,1.846a1.039,1.039,0,1,0-1.033.967A.958.958,0,0,0,399.166,760.178Z" fill="#57574d"/>
        <path id="Path_4463" data-name="Path 4463" d="M405.209,760.024v2.249H404.14v-.491a1.3,1.3,0,0,1-1.2.549c-.922,0-1.472-.512-1.472-1.194s.491-1.179,1.692-1.179h.908c0-.491-.293-.776-.908-.776a1.9,1.9,0,0,0-1.135.366l-.41-.8a3.025,3.025,0,0,1,1.7-.476C404.513,758.274,405.209,758.83,405.209,760.024Zm-1.143,1v-.4h-.783c-.535,0-.7.2-.7.461,0,.285.241.477.644.477A.841.841,0,0,0,404.066,761.028Z" fill="#57574d"/>
        <path id="Path_4464" data-name="Path 4464" d="M410.637,760.017v2.256h-1.143v-2.08c0-.638-.293-.931-.8-.931-.55,0-.945.338-.945,1.063v1.948h-1.143v-3.941H407.7v.461a1.726,1.726,0,0,1,1.3-.519A1.545,1.545,0,0,1,410.637,760.017Z" fill="#57574d"/>
        <path id="Path_4465" data-name="Path 4465" d="M415.619,758.113h-1.641v-.967h4.468v.967h-1.64v4.16h-1.187Z" fill="#57574d"/>
        <path id="Path_4466" data-name="Path 4466" d="M423.251,758.992v3.281h-1.084V761.8a1.59,1.59,0,0,1-1.223.527,1.57,1.57,0,0,1-1.684-1.772v-2.227H420.4v2.059c0,.658.293.951.8.951.527,0,.908-.336.908-1.061v-1.949h.608a.429.429,0,0,0,.439-.461.7.7,0,0,0-.146-.439l.674-.25a1.186,1.186,0,0,1,.234.732A1.075,1.075,0,0,1,423.251,758.992Zm-1.772-1.165h-.894l.989-1.055H422.8Z" fill="#57574d"/>
        <path id="Path_4467" data-name="Path 4467" d="M430.68,761.174H428.3l-.454,1.1h-1.216l2.286-5.127h1.171l2.293,5.127h-1.245Zm-1.809-4.445h-.843l.974-.836h1l.974.836h-.843l-.63-.418Zm1.435,3.545-.813-1.963-.813,1.963Zm-.08-4.813-.191-.351a1.126,1.126,0,0,1,.608-.161c.41,0,.674.227.674.579a.721.721,0,0,1-.513.636l-.278-.271c.2-.1.271-.212.271-.307,0-.133-.1-.213-.249-.213A.651.651,0,0,0,430.226,755.461Z" fill="#57574d"/>
        <path id="Path_4468" data-name="Path 4468" d="M439.858,760.017v2.256h-1.143v-2.08c0-.638-.285-.931-.747-.931-.512,0-.871.33-.871,1.033v1.978h-1.143v-2.08c0-.638-.271-.931-.747-.931-.505,0-.864.33-.864,1.033v1.978H433.2v-3.941h1.091v.454a1.6,1.6,0,0,1,1.238-.512,1.474,1.474,0,0,1,1.3.644,1.773,1.773,0,0,1,1.421-.644A1.526,1.526,0,0,1,439.858,760.017Z" fill="#57574d"/>
        <path id="Path_4469" data-name="Path 4469" d="M443.38,761.45a2.541,2.541,0,0,1,.376-1.408h.448a2.9,2.9,0,0,0,0,2.814h-.448A2.551,2.551,0,0,1,443.38,761.45Z" fill="#57574d"/>
        <path id="Path_4470" data-name="Path 4470" d="M447.56,761.7c0,.364-.289.574-.842.574H445.63v-2.1h1.028c.526,0,.8.22.8.548a.508.508,0,0,1-.28.463A.52.52,0,0,1,447.56,761.7Zm-1.446-1.164v.5h.484c.237,0,.366-.084.366-.25s-.129-.247-.366-.247Zm.956,1.113c0-.178-.135-.262-.388-.262h-.568v.52h.568C446.935,761.906,447.07,761.827,447.07,761.648Z" fill="#57574d"/>
        <path id="Path_4471" data-name="Path 4471" d="M449.515,761.876v.4h-1.59v-.316l.811-.766c.187-.178.22-.286.22-.388,0-.166-.114-.262-.337-.262a.516.516,0,0,0-.435.21l-.355-.227a.974.974,0,0,1,.836-.392c.468,0,.781.241.781.623a.838.838,0,0,1-.352.664l-.484.457Z" fill="#57574d"/>
        <path id="Path_4472" data-name="Path 4472" d="M451.43,762a.7.7,0,0,1-.081.3l-.172.433h-.3l.132-.478a.262.262,0,0,1-.162-.256.29.29,0,0,1,.58,0Z" fill="#57574d"/>
        <path id="Path_4473" data-name="Path 4473" d="M454.859,761.7c0,.364-.289.574-.841.574h-1.089v-2.1h1.028c.526,0,.8.22.8.548a.508.508,0,0,1-.28.463A.52.52,0,0,1,454.859,761.7Zm-1.446-1.164v.5h.484c.238,0,.367-.084.367-.25s-.129-.247-.367-.247Zm.956,1.113c0-.178-.135-.262-.388-.262h-.568v.52h.568C454.234,761.906,454.369,761.827,454.369,761.648Z" fill="#57574d"/>
        <path id="Path_4474" data-name="Path 4474" d="M457.169,761.831h-.343v.442h-.474v-.442h-1.134V761.5l.992-1.335h.511l-.92,1.266h.566v-.394h.459v.394h.343Z" fill="#57574d"/>
        <path id="Path_4475" data-name="Path 4475" d="M459.026,762a.7.7,0,0,1-.081.3l-.171.433h-.3l.132-.478a.262.262,0,0,1-.162-.256.29.29,0,0,1,.58,0Z" fill="#57574d"/>
        <path id="Path_4476" data-name="Path 4476" d="M460.393,761.221a1.158,1.158,0,0,1,2.008-.716l-.313.289a.673.673,0,0,0-.528-.247.673.673,0,1,0,0,1.347.669.669,0,0,0,.528-.249l.313.288a1.156,1.156,0,0,1-2.008-.712Z" fill="#57574d"/>
        <path id="Path_4477" data-name="Path 4477" d="M463.583,760.168v2.1H463.1v-1.714h-.421v-.391Z" fill="#57574d"/>
        <path id="Path_4478" data-name="Path 4478" d="M464.1,761.221c0-.694.385-1.089.9-1.089s.9.395.9,1.089-.382,1.088-.9,1.088S464.1,761.915,464.1,761.221Zm1.314,0c0-.478-.168-.677-.413-.677s-.408.2-.408.677.168.676.408.676S465.412,761.7,465.412,761.221Z" fill="#57574d"/>
        <path id="Path_4479" data-name="Path 4479" d="M467.852,762a.7.7,0,0,1-.081.3l-.172.433h-.3l.132-.478a.262.262,0,0,1-.162-.256.29.29,0,0,1,.58,0Z" fill="#57574d"/>
        <path id="Path_4480" data-name="Path 4480" d="M469.219,761.221a1.158,1.158,0,0,1,2.008-.716l-.312.289a.675.675,0,0,0-.529-.247.673.673,0,1,0,0,1.347.671.671,0,0,0,.529-.249l.312.288a1.156,1.156,0,0,1-2.008-.712Z" fill="#57574d"/>
        <path id="Path_4481" data-name="Path 4481" d="M472.41,760.168v2.1h-.488v-1.714h-.42v-.391Z" fill="#57574d"/>
        <path id="Path_4482" data-name="Path 4482" d="M473.736,760.168v2.1h-.487v-1.714h-.42v-.391Z" fill="#57574d"/>
        <path id="Path_4483" data-name="Path 4483" d="M475.816,762a.7.7,0,0,1-.081.3l-.172.433h-.3l.132-.478a.26.26,0,0,1-.162-.256.29.29,0,0,1,.58,0Z" fill="#57574d"/>
        <path id="Path_4484" data-name="Path 4484" d="M477.182,761.221a1.158,1.158,0,0,1,2.008-.716l-.313.289a.674.674,0,0,0-.529-.247.673.673,0,0,0,0,1.347.67.67,0,0,0,.529-.249l.313.288a1.156,1.156,0,0,1-2.008-.712Z" fill="#57574d"/>
        <path id="Path_4485" data-name="Path 4485" d="M480.374,760.168v2.1h-.488v-1.714h-.42v-.391Z" fill="#57574d"/>
        <path id="Path_4486" data-name="Path 4486" d="M482.46,761.876v.4h-1.589v-.316l.811-.766c.187-.178.219-.286.219-.388,0-.166-.114-.262-.336-.262a.52.52,0,0,0-.437.21l-.354-.227a.974.974,0,0,1,.836-.392c.469,0,.781.241.781.623a.839.839,0,0,1-.351.664l-.485.457Z" fill="#57574d"/>
        <path id="Path_4487" data-name="Path 4487" d="M483.719,762.856a2.888,2.888,0,0,0,0-2.814h.447a2.8,2.8,0,0,1,0,2.814Z" fill="#57574d"/>
        <path id="Path_4488" data-name="Path 4488" d="M487.6,761.866a4.326,4.326,0,0,1,.978-2.775h.669a4.57,4.57,0,0,0-1,2.809,3.81,3.81,0,0,0,.2,1.2h-.613A3.288,3.288,0,0,1,487.6,761.866Z" fill="#df071b"/>
        <path id="Path_4489" data-name="Path 4489" d="M492.615,760.524a1.713,1.713,0,0,1-1.869,1.749h-1.467l.258-1.295h-.408l.094-.463h.407l.249-1.243h1.257C492.062,759.272,492.615,759.756,492.615,760.524Zm-.7.038c0-.445-.288-.72-.853-.72h-.6l-.132.673h.746l-.09.463h-.75l-.147.724h.678A1.078,1.078,0,0,0,491.912,760.562Z" fill="#df071b"/>
        <path id="Path_4490" data-name="Path 4490" d="M495.794,759.966l-.459,2.307H494.7l.043-.228a1.026,1.026,0,0,1-.708.262.971.971,0,0,1-1-1.033,1.282,1.282,0,0,1,1.274-1.342.822.822,0,0,1,.75.347l.06-.313Zm-.875,1.029a.478.478,0,0,0-.527-.51.691.691,0,0,0-.678.759.479.479,0,0,0,.528.51A.691.691,0,0,0,494.919,760.995Zm-.561,1.848a.312.312,0,0,1-.326.33.257.257,0,0,1-.275-.265.328.328,0,0,1,.326-.322A.26.26,0,0,1,494.358,762.843Zm-.33-3.725a.355.355,0,0,1,0-.065h.407a.3.3,0,0,0,.339.3.377.377,0,0,0,.4-.3h.434a.818.818,0,0,1-.871.651C494.332,759.7,494.028,759.477,494.028,759.118Z" fill="#df071b"/>
        <path id="Path_4491" data-name="Path 4491" d="M496.211,761.274a1.331,1.331,0,0,1,1.407-1.342,1.071,1.071,0,0,1,1.038.583l-.567.283a.524.524,0,0,0-.513-.313.7.7,0,0,0-.687.755.484.484,0,0,0,.536.514.637.637,0,0,0,.566-.308l.493.308a1.272,1.272,0,0,1-1.1.553A1.042,1.042,0,0,1,496.211,761.274Z" fill="#df071b"/>
        <path id="Path_4492" data-name="Path 4492" d="M503.1,760.965a1.282,1.282,0,0,1-1.277,1.342.829.829,0,0,1-.773-.377l-.068.343h-.635l.635-3.182h.669l-.214,1.072a1.019,1.019,0,0,1,.664-.231A.974.974,0,0,1,503.1,760.965Zm-.678.03a.477.477,0,0,0-.527-.51.69.69,0,0,0-.673.759.475.475,0,0,0,.524.51A.69.69,0,0,0,502.421,760.995Z" fill="#df071b"/>
        <path id="Path_4493" data-name="Path 4493" d="M503.98,759.966h.665l-.459,2.307h-.665Zm.056-.669a.407.407,0,0,1,.442-.4.354.354,0,0,1,.394.334.409.409,0,0,1-.446.412A.358.358,0,0,1,504.036,759.3Z" fill="#df071b"/>
        <path id="Path_4494" data-name="Path 4494" d="M507.489,761.3h-1.767c.022.314.215.472.6.472a.95.95,0,0,0,.618-.214l.278.441a1.523,1.523,0,0,1-.965.309,1.041,1.041,0,0,1-1.178-1.033,1.3,1.3,0,0,1,1.359-1.342.989.989,0,0,1,1.1,1.016A1.813,1.813,0,0,1,507.489,761.3Zm-1.243,1.544a.312.312,0,0,1-.327.33.256.256,0,0,1-.274-.265.327.327,0,0,1,.326-.322A.26.26,0,0,1,506.246,762.843Zm-.031-3.169h-.5l.653-.617h.587l.484.617h-.476l-.33-.321Zm-.446,1.236h1.146a.46.46,0,0,0-.515-.477A.635.635,0,0,0,505.769,760.91Z" fill="#df071b"/>
        <path id="Path_4495" data-name="Path 4495" d="M508.84,761.458a.4.4,0,0,0-.008.094c0,.142.077.224.245.224a.537.537,0,0,0,.269-.082l.1.476a1.094,1.094,0,0,1-.574.137.64.64,0,0,1-.721-.643,1.207,1.207,0,0,1,.021-.2l.185-.93H508l.1-.514h.355l.113-.563h.669l-.113.563h.576l-.1.514h-.574Z" fill="#df071b"/>
        <path id="Path_4496" data-name="Path 4496" d="M510.677,760.3a3.81,3.81,0,0,0-.2-1.205h.613a3.288,3.288,0,0,1,.232,1.239,4.331,4.331,0,0,1-.978,2.775h-.669A4.576,4.576,0,0,0,510.677,760.3Z" fill="#df071b"/>
        <path id="Path_4497" data-name="Path 4497" d="M353.732,772.4v.967h-3.875v-.769l1.978-1.868c.454-.433.535-.7.535-.944,0-.4-.279-.638-.821-.638a1.255,1.255,0,0,0-1.062.513l-.864-.557a2.383,2.383,0,0,1,2.036-.952c1.143,0,1.9.586,1.9,1.516a2.048,2.048,0,0,1-.856,1.619l-1.18,1.113Z" fill="#57574d"/>
        <path id="Path_4498" data-name="Path 4498" d="M354.626,772.7a.711.711,0,0,1,1.421,0,.711.711,0,1,1-1.421,0Z" fill="#57574d"/>
        <path id="Path_4499" data-name="Path 4499" d="M359.388,770.8a2.823,2.823,0,0,1,4.892-1.743l-.761.7a1.653,1.653,0,0,0-1.29-.6,1.641,1.641,0,0,0,0,3.281,1.636,1.636,0,0,0,1.29-.608l.761.7a2.818,2.818,0,0,1-4.892-1.736Z" fill="#57574d"/>
        <path id="Path_4500" data-name="Path 4500" d="M364.933,771.393a2.169,2.169,0,1,1,2.168,2.028A2.028,2.028,0,0,1,364.933,771.393Zm3.171,0a1.01,1.01,0,1,0-1,1.091A.994.994,0,0,0,368.1,771.393Z" fill="#57574d"/>
        <path id="Path_4501" data-name="Path 4501" d="M377.049,771.107v2.256h-1.143v-2.08c0-.638-.285-.931-.747-.931-.513,0-.871.33-.871,1.033v1.978h-1.143v-2.08c0-.638-.271-.931-.747-.931-.505,0-.864.33-.864,1.033v1.978h-1.143v-3.941h1.091v.454a1.6,1.6,0,0,1,1.238-.512,1.474,1.474,0,0,1,1.3.644,1.773,1.773,0,0,1,1.42-.644A1.526,1.526,0,0,1,377.049,771.107Z" fill="#57574d"/>
        <path id="Path_4502" data-name="Path 4502" d="M382.734,771.393a1.914,1.914,0,0,1-1.963,2.028,1.536,1.536,0,0,1-1.238-.512v.454h-1.091v-5.435h1.142v1.912a1.531,1.531,0,0,1,1.187-.476A1.914,1.914,0,0,1,382.734,771.393Zm-1.157,0a1.007,1.007,0,1,0-1,1.091A.995.995,0,0,0,381.577,771.393Z" fill="#57574d"/>
        <path id="Path_4503" data-name="Path 4503" d="M383.57,771.393a2.169,2.169,0,1,1,2.168,2.028A2.028,2.028,0,0,1,383.57,771.393Zm3.171,0a1.01,1.01,0,1,0-1,1.091A.994.994,0,0,0,386.741,771.393Z" fill="#57574d"/>
        <path id="Path_4504" data-name="Path 4504" d="M396.249,768.236v5.127h-.974l-2.556-3.113v3.113h-1.172v-5.127h.982l2.549,3.112v-3.112Z" fill="#57574d"/>
        <path id="Path_4505" data-name="Path 4505" d="M401.817,769.422V772.7a1.929,1.929,0,0,1-2.212,2.139,3.248,3.248,0,0,1-1.934-.542l.454-.82a2.364,2.364,0,0,0,1.392.446c.806,0,1.157-.365,1.157-1.076v-.168a1.623,1.623,0,0,1-1.245.49,1.905,1.905,0,1,1,0-3.808,1.582,1.582,0,0,1,1.3.564v-.506Zm-1.128,1.846a1.039,1.039,0,1,0-1.033.967A.957.957,0,0,0,400.689,771.268Z" fill="#57574d"/>
        <path id="Path_4506" data-name="Path 4506" d="M406.732,771.114v2.249h-1.069v-.492a1.29,1.29,0,0,1-1.2.55c-.923,0-1.472-.512-1.472-1.194s.49-1.179,1.692-1.179h.908c0-.491-.293-.776-.908-.776a1.89,1.89,0,0,0-1.136.366l-.41-.8a3.027,3.027,0,0,1,1.7-.476C406.037,769.364,406.732,769.92,406.732,771.114Zm-1.142,1v-.4h-.784c-.535,0-.7.2-.7.461,0,.285.242.477.645.477A.843.843,0,0,0,405.59,772.118Z" fill="#57574d"/>
        <path id="Path_4507" data-name="Path 4507" d="M412.16,771.107v2.256h-1.142v-2.08c0-.638-.293-.931-.8-.931-.549,0-.945.338-.945,1.062v1.949h-1.142v-3.941h1.091v.461a1.729,1.729,0,0,1,1.3-.519A1.544,1.544,0,0,1,412.16,771.107Z" fill="#57574d"/>
        <path id="Path_4508" data-name="Path 4508" d="M420.783,768.236v5.127h-.974l-2.557-3.113v3.113h-1.171v-5.127h.981l2.549,3.112v-3.112Z" fill="#57574d"/>
        <path id="Path_4509" data-name="Path 4509" d="M426.35,769.422V772.7a1.929,1.929,0,0,1-2.212,2.139,3.243,3.243,0,0,1-1.933-.542l.454-.82a2.361,2.361,0,0,0,1.391.446c.806,0,1.157-.365,1.157-1.076v-.168a1.623,1.623,0,0,1-1.245.49,1.905,1.905,0,1,1,0-3.808,1.581,1.581,0,0,1,1.3.564v-.506Zm-1.128,1.846a1.039,1.039,0,1,0-1.033.967A.957.957,0,0,0,425.222,771.268Z" fill="#57574d"/>
        <path id="Path_4510" data-name="Path 4510" d="M431.749,769.422v3.941h-1.084v-.469a1.591,1.591,0,0,1-1.223.527,1.571,1.571,0,0,1-1.685-1.772v-2.227H428.9v2.059c0,.658.293.951.8.951.528,0,.908-.336.908-1.062v-1.948Zm-2.827-.535h-.579c.015-.651.344-1.068.857-1.068s.762.468,1.026.468c.2,0,.336-.154.351-.4h.579c-.015.631-.344,1.048-.857,1.048s-.762-.462-1.026-.462C429.076,768.477,428.937,768.623,428.922,768.887Z" fill="#57574d"/>
        <path id="Path_4511" data-name="Path 4511" d="M440.627,768.236l-2.219,5.127h-1.172l-2.212-5.127h1.282l1.56,3.662,1.582-3.662Z" fill="#57574d"/>
        <path id="Path_4512" data-name="Path 4512" d="M441.244,768.236a.653.653,0,0,1,.71-.638.642.642,0,0,1,.711.615.714.714,0,0,1-1.421.023Zm.139,1.186h1.142v3.941h-1.142Zm.066,4.988a.505.505,0,1,1,1.01,0,.505.505,0,0,1-1.01,0Z" fill="#57574d"/>
        <path id="Path_4513" data-name="Path 4513" d="M446.083,772.539a2.539,2.539,0,0,1,.376-1.407h.448a2.9,2.9,0,0,0,0,2.814h-.448A2.554,2.554,0,0,1,446.083,772.539Z" fill="#57574d"/>
        <path id="Path_4514" data-name="Path 4514" d="M450.263,772.788c0,.365-.289.575-.842.575h-1.088v-2.1h1.028c.526,0,.8.22.8.548a.508.508,0,0,1-.28.463A.519.519,0,0,1,450.263,772.788Zm-1.446-1.163v.5h.484c.238,0,.366-.084.366-.25s-.128-.246-.366-.246Zm.956,1.113c0-.178-.135-.262-.388-.262h-.568v.519h.568C449.638,772.995,449.773,772.917,449.773,772.738Z" fill="#57574d"/>
        <path id="Path_4515" data-name="Path 4515" d="M452.218,772.966v.4h-1.59v-.316l.811-.766c.187-.178.22-.287.22-.388,0-.166-.114-.262-.337-.262a.516.516,0,0,0-.435.21l-.355-.227a.974.974,0,0,1,.836-.392c.468,0,.781.241.781.623a.838.838,0,0,1-.352.664l-.484.457Z" fill="#57574d"/>
        <path id="Path_4516" data-name="Path 4516" d="M454.133,773.092a.7.7,0,0,1-.081.3l-.172.433h-.3l.132-.478a.262.262,0,0,1-.162-.256.29.29,0,0,1,.58,0Z" fill="#57574d"/>
        <path id="Path_4517" data-name="Path 4517" d="M457.562,772.788c0,.365-.289.575-.841.575h-1.089v-2.1h1.028c.527,0,.8.22.8.548a.506.506,0,0,1-.28.463A.518.518,0,0,1,457.562,772.788Zm-1.446-1.163v.5h.484c.238,0,.367-.084.367-.25s-.129-.246-.367-.246Zm.956,1.113c0-.178-.135-.262-.387-.262h-.569v.519h.569C456.937,772.995,457.072,772.917,457.072,772.738Z" fill="#57574d"/>
        <path id="Path_4518" data-name="Path 4518" d="M459.5,772.719c0,.356-.273.68-.871.68a1.44,1.44,0,0,1-.8-.226l.19-.373a1.014,1.014,0,0,0,.6.19c.243,0,.393-.1.393-.271s-.117-.258-.393-.258h-.223v-.322l.433-.49h-.9v-.391H459.4v.317l-.475.541A.6.6,0,0,1,459.5,772.719Z" fill="#57574d"/>
        <path id="Path_4519" data-name="Path 4519" d="M461.438,773.092a.7.7,0,0,1-.081.3l-.171.433h-.3l.132-.478a.262.262,0,0,1-.162-.256.29.29,0,0,1,.58,0Z" fill="#57574d"/>
        <path id="Path_4520" data-name="Path 4520" d="M464.868,772.788c0,.365-.289.575-.842.575h-1.089v-2.1h1.028c.527,0,.8.22.8.548a.507.507,0,0,1-.279.463A.519.519,0,0,1,464.868,772.788Zm-1.447-1.163v.5h.485c.237,0,.366-.084.366-.25s-.129-.246-.366-.246Zm.956,1.113c0-.178-.134-.262-.387-.262h-.569v.519h.569C464.243,772.995,464.377,772.917,464.377,772.738Z" fill="#57574d"/>
        <path id="Path_4521" data-name="Path 4521" d="M467.177,772.921h-.343v.442h-.474v-.442h-1.133v-.328l.991-1.335h.512l-.92,1.266h.565v-.394h.459v.394h.343Z" fill="#57574d"/>
        <path id="Path_4522" data-name="Path 4522" d="M469.035,773.092a.7.7,0,0,1-.081.3l-.172.433h-.3l.132-.478a.262.262,0,0,1-.162-.256.29.29,0,0,1,.58,0Z" fill="#57574d"/>
        <path id="Path_4523" data-name="Path 4523" d="M472.463,772.788c0,.365-.288.575-.841.575h-1.088v-2.1h1.028c.525,0,.8.22.8.548a.507.507,0,0,1-.279.463A.519.519,0,0,1,472.463,772.788Zm-1.445-1.163v.5h.483c.238,0,.368-.084.368-.25s-.13-.246-.368-.246Zm.955,1.113c0-.178-.135-.262-.388-.262h-.567v.519h.567C471.838,772.995,471.973,772.917,471.973,772.738Z" fill="#57574d"/>
        <path id="Path_4524" data-name="Path 4524" d="M474.494,771.258v.317l-.782,1.788h-.529l.754-1.707h-.7V772h-.433v-.74Z" fill="#57574d"/>
        <path id="Path_4525" data-name="Path 4525" d="M476.423,773.092a.689.689,0,0,1-.081.3l-.172.433h-.3l.131-.478a.262.262,0,0,1-.162-.256.29.29,0,0,1,.58,0Z" fill="#57574d"/>
        <path id="Path_4526" data-name="Path 4526" d="M477.79,772.311a1.158,1.158,0,0,1,2.007-.716l-.312.289a.677.677,0,0,0-.529-.247.673.673,0,0,0,0,1.347.673.673,0,0,0,.529-.249l.312.288a1.156,1.156,0,0,1-2.007-.712Z" fill="#57574d"/>
        <path id="Path_4527" data-name="Path 4527" d="M481.7,772.7c0,.373-.274.7-.874.7a1.448,1.448,0,0,1-.8-.226l.192-.373a1.01,1.01,0,0,0,.6.19c.244,0,.395-.1.395-.274s-.109-.273-.491-.273h-.538l.109-1.185h1.283v.391h-.878l-.033.4h.172C481.453,772.049,481.7,772.328,481.7,772.7Z" fill="#57574d"/>
        <path id="Path_4528" data-name="Path 4528" d="M483.611,773.092a.7.7,0,0,1-.081.3l-.172.433h-.3l.132-.478a.26.26,0,0,1-.162-.256.29.29,0,0,1,.58,0Z" fill="#57574d"/>
        <path id="Path_4529" data-name="Path 4529" d="M484.977,772.311a1.158,1.158,0,0,1,2.008-.716l-.313.289a.674.674,0,0,0-.529-.247.673.673,0,0,0,0,1.347.67.67,0,0,0,.529-.249l.313.288a1.157,1.157,0,0,1-2.008-.712Z" fill="#57574d"/>
        <path id="Path_4530" data-name="Path 4530" d="M489.052,772.752c0,.4-.354.647-.889.647s-.884-.25-.884-.647a.536.536,0,0,1,.318-.5.485.485,0,0,1-.243-.432c0-.371.33-.6.809-.6s.814.231.814.6a.487.487,0,0,1-.247.432A.534.534,0,0,1,489.052,772.752Zm-.493-.014c0-.187-.153-.3-.4-.3s-.391.114-.391.3.149.3.391.3S488.559,772.924,488.559,772.738Zm-.722-.893c0,.159.127.258.326.258s.33-.1.33-.258-.132-.265-.33-.265S487.837,771.679,487.837,771.845Z" fill="#57574d"/>
        <path id="Path_4531" data-name="Path 4531" d="M490.332,773.946a2.887,2.887,0,0,0,0-2.814h.447a2.8,2.8,0,0,1,0,2.814Z" fill="#57574d"/>
        <path id="Path_4532" data-name="Path 4532" d="M492.769,772.955a4.325,4.325,0,0,1,.978-2.774h.669a4.569,4.569,0,0,0-1,2.809,3.816,3.816,0,0,0,.2,1.205H493A3.315,3.315,0,0,1,492.769,772.955Z" fill="#df071b"/>
        <path id="Path_4533" data-name="Path 4533" d="M497.787,771.614a1.713,1.713,0,0,1-1.87,1.749h-1.466l.257-1.295H494.3l.094-.463h.407l.249-1.243h1.257C497.234,770.362,497.787,770.846,497.787,771.614Zm-.7.038c0-.446-.287-.72-.852-.72h-.6l-.133.673h.747l-.09.463h-.75l-.147.724h.678A1.077,1.077,0,0,0,497.083,771.652Z" fill="#df071b"/>
        <path id="Path_4534" data-name="Path 4534" d="M500.966,771.056l-.459,2.307h-.634l.043-.228a1.027,1.027,0,0,1-.709.262.971.971,0,0,1-.994-1.033,1.282,1.282,0,0,1,1.274-1.342.823.823,0,0,1,.75.347l.06-.313Zm-.875,1.029a.478.478,0,0,0-.527-.51.69.69,0,0,0-.678.758.479.479,0,0,0,.528.511A.691.691,0,0,0,500.091,772.085Zm-.561,1.848a.312.312,0,0,1-.326.33.257.257,0,0,1-.275-.266.327.327,0,0,1,.326-.321A.26.26,0,0,1,499.53,773.933Zm-.33-3.726a.344.344,0,0,1,0-.064h.407a.3.3,0,0,0,.339.3.377.377,0,0,0,.4-.3h.434a.819.819,0,0,1-.871.651C499.5,770.794,499.2,770.567,499.2,770.207Z" fill="#df071b"/>
        <path id="Path_4535" data-name="Path 4535" d="M501.383,772.364a1.331,1.331,0,0,1,1.407-1.342,1.071,1.071,0,0,1,1.038.583l-.567.283a.523.523,0,0,0-.513-.313.7.7,0,0,0-.687.754.484.484,0,0,0,.536.515.637.637,0,0,0,.566-.309l.493.309a1.271,1.271,0,0,1-1.1.553A1.042,1.042,0,0,1,501.383,772.364Z" fill="#df071b"/>
        <path id="Path_4536" data-name="Path 4536" d="M508.271,772.055a1.283,1.283,0,0,1-1.277,1.342.829.829,0,0,1-.773-.377l-.068.343h-.635l.635-3.182h.669l-.214,1.072a1.019,1.019,0,0,1,.664-.231A.974.974,0,0,1,508.271,772.055Zm-.678.03a.477.477,0,0,0-.527-.51.689.689,0,0,0-.673.758.475.475,0,0,0,.523.511A.69.69,0,0,0,507.593,772.085Z" fill="#df071b"/>
        <path id="Path_4537" data-name="Path 4537" d="M509.152,771.056h.665l-.459,2.307h-.665Zm.055-.669a.407.407,0,0,1,.443-.4.353.353,0,0,1,.393.334.408.408,0,0,1-.445.412A.359.359,0,0,1,509.207,770.387Z" fill="#df071b"/>
        <path id="Path_4538" data-name="Path 4538" d="M512.661,772.389h-1.767c.022.313.215.472.6.472a.95.95,0,0,0,.618-.214l.278.441a1.523,1.523,0,0,1-.965.309,1.041,1.041,0,0,1-1.178-1.033,1.3,1.3,0,0,1,1.359-1.342.989.989,0,0,1,1.1,1.015A1.822,1.822,0,0,1,512.661,772.389Zm-1.244,1.544a.311.311,0,0,1-.326.33.256.256,0,0,1-.274-.266.327.327,0,0,1,.326-.321A.259.259,0,0,1,511.417,773.933Zm-.03-3.169h-.5l.653-.617h.586l.485.617h-.476l-.33-.321ZM510.941,772h1.145a.459.459,0,0,0-.514-.476A.634.634,0,0,0,510.941,772Z" fill="#df071b"/>
        <path id="Path_4539" data-name="Path 4539" d="M514.012,772.548a.35.35,0,0,0-.009.094c0,.142.078.224.246.224a.537.537,0,0,0,.269-.082l.1.476a1.1,1.1,0,0,1-.575.137.64.64,0,0,1-.72-.643,1.192,1.192,0,0,1,.021-.2l.185-.931h-.356l.1-.513h.355l.113-.563h.669l-.113.563h.575l-.1.513H514.2Z" fill="#df071b"/>
        <path id="Path_4540" data-name="Path 4540" d="M515.849,771.386a3.81,3.81,0,0,0-.2-1.2h.613a3.288,3.288,0,0,1,.232,1.239,4.331,4.331,0,0,1-.978,2.775h-.669A4.576,4.576,0,0,0,515.849,771.386Z" fill="#df071b"/>
        <path id="Path_4541" data-name="Path 4541" d="M353.688,782.886c0,.864-.667,1.655-2.124,1.655a3.53,3.53,0,0,1-1.956-.548l.462-.909a2.489,2.489,0,0,0,1.465.461c.593,0,.959-.242.959-.659,0-.388-.286-.63-.959-.63h-.542v-.783l1.054-1.194h-2.182v-.952h3.589v.769l-1.158,1.318A1.456,1.456,0,0,1,353.688,782.886Z" fill="#57574d"/>
        <path id="Path_4542" data-name="Path 4542" d="M354.567,783.794a.711.711,0,0,1,1.421,0,.711.711,0,1,1-1.421,0Z" fill="#57574d"/>
        <path id="Path_4543" data-name="Path 4543" d="M359.329,781.89a2.824,2.824,0,0,1,4.893-1.743l-.762.7a1.647,1.647,0,0,0-1.289-.6,1.641,1.641,0,0,0,0,3.282,1.63,1.63,0,0,0,1.289-.609l.762.7a2.818,2.818,0,0,1-4.893-1.735Z" fill="#57574d"/>
        <path id="Path_4544" data-name="Path 4544" d="M364.874,782.483a2.169,2.169,0,1,1,2.168,2.029A2.029,2.029,0,0,1,364.874,782.483Zm3.172,0a1.01,1.01,0,1,0-1,1.092A.994.994,0,0,0,368.046,782.483Z" fill="#57574d"/>
        <path id="Path_4545" data-name="Path 4545" d="M376.99,782.2v2.255h-1.142v-2.08c0-.636-.286-.929-.747-.929-.513,0-.872.329-.872,1.032v1.977h-1.143v-2.08c0-.636-.271-.929-.747-.929-.5,0-.864.329-.864,1.032v1.977h-1.143v-3.94h1.092v.454a1.6,1.6,0,0,1,1.238-.513,1.469,1.469,0,0,1,1.3.645,1.772,1.772,0,0,1,1.421-.645A1.527,1.527,0,0,1,376.99,782.2Z" fill="#57574d"/>
        <path id="Path_4546" data-name="Path 4546" d="M382.675,782.483a1.914,1.914,0,0,1-1.963,2.029,1.527,1.527,0,0,1-1.237-.513v.454h-1.092v-5.434h1.143v1.911a1.53,1.53,0,0,1,1.186-.476A1.914,1.914,0,0,1,382.675,782.483Zm-1.157,0a1.007,1.007,0,1,0-1,1.092A.994.994,0,0,0,381.518,782.483Z" fill="#57574d"/>
        <path id="Path_4547" data-name="Path 4547" d="M383.511,782.483a2.169,2.169,0,1,1,2.168,2.029A2.029,2.029,0,0,1,383.511,782.483Zm3.172,0a1.011,1.011,0,1,0-1,1.092A.995.995,0,0,0,386.683,782.483Z" fill="#57574d"/>
        <path id="Path_4548" data-name="Path 4548" d="M396.191,779.327v5.126h-.974l-2.556-3.113v3.113h-1.172v-5.126h.981l2.549,3.113v-3.113Z" fill="#57574d"/>
        <path id="Path_4549" data-name="Path 4549" d="M401.758,780.513v3.281a1.929,1.929,0,0,1-2.212,2.139,3.243,3.243,0,0,1-1.933-.542l.454-.82a2.354,2.354,0,0,0,1.391.447c.806,0,1.158-.367,1.158-1.077v-.169a1.623,1.623,0,0,1-1.245.491,1.906,1.906,0,1,1,0-3.809,1.58,1.58,0,0,1,1.3.564v-.505Zm-1.128,1.846a1.038,1.038,0,1,0-1.032.967A.956.956,0,0,0,400.63,782.359Z" fill="#57574d"/>
        <path id="Path_4550" data-name="Path 4550" d="M406.674,782.205v2.248H405.6v-.49a1.292,1.292,0,0,1-1.2.549c-.923,0-1.472-.513-1.472-1.193,0-.7.491-1.18,1.692-1.18h.908c0-.49-.293-.776-.908-.776a1.894,1.894,0,0,0-1.135.366l-.41-.8a3.033,3.033,0,0,1,1.7-.476C405.978,780.454,406.674,781.011,406.674,782.205Zm-1.143,1v-.4h-.783c-.535,0-.7.2-.7.462,0,.286.242.476.645.476A.842.842,0,0,0,405.531,783.208Z" fill="#57574d"/>
        <path id="Path_4551" data-name="Path 4551" d="M412.1,782.2v2.255h-1.143v-2.08c0-.636-.293-.929-.8-.929-.55,0-.945.336-.945,1.061v1.948h-1.143v-3.94h1.092v.462a1.72,1.72,0,0,1,1.3-.521A1.546,1.546,0,0,1,412.1,782.2Z" fill="#57574d"/>
        <path id="Path_4552" data-name="Path 4552" d="M417.084,780.293h-1.641v-.966h4.468v.966H418.27v4.16h-1.186Z" fill="#57574d"/>
        <path id="Path_4553" data-name="Path 4553" d="M424.863,782.2v2.255H423.72v-2.08c0-.636-.293-.929-.8-.929-.549,0-.945.336-.945,1.061v1.948h-1.143v-5.434h1.143v1.9a1.735,1.735,0,0,1,1.252-.469A1.545,1.545,0,0,1,424.863,782.2Z" fill="#57574d"/>
        <path id="Path_4554" data-name="Path 4554" d="M429.749,782.205v2.248H428.68v-.49a1.294,1.294,0,0,1-1.2.549c-.922,0-1.472-.513-1.472-1.193,0-.7.491-1.18,1.692-1.18h.908c0-.49-.293-.776-.908-.776a1.9,1.9,0,0,0-1.135.366l-.41-.8a3.032,3.032,0,0,1,1.7-.476C429.053,780.454,429.749,781.011,429.749,782.205Zm-2.41-2.2H426.5l.974-.836h1l.974.836H428.6l-.63-.418Zm1.267,3.2v-.4h-.783c-.535,0-.7.2-.7.462,0,.286.241.476.644.476A.841.841,0,0,0,428.606,783.208Zm1.07-3.9h-.828l.813-.887h1.165Z" fill="#57574d"/>
        <path id="Path_4555" data-name="Path 4555" d="M433.69,784.263a1.628,1.628,0,0,1-.93.249,1.3,1.3,0,0,1-1.472-1.414V781.48h-.608V780.6h.608v-.96h1.142v.96h.982v.879h-.982v1.6a.46.46,0,0,0,.491.52.764.764,0,0,0,.461-.147Z" fill="#57574d"/>
        <path id="Path_4556" data-name="Path 4556" d="M441.923,783.055c0,.886-.7,1.4-2.05,1.4h-2.652v-5.126h2.505c1.282,0,1.941.535,1.941,1.333a1.232,1.232,0,0,1-.681,1.127A1.267,1.267,0,0,1,441.923,783.055ZM438.4,780.22v1.208h1.18c.578,0,.893-.2.893-.607s-.315-.6-.893-.6Zm2.329,2.71c0-.432-.329-.637-.944-.637H438.4v1.267h1.385C440.4,783.56,440.729,783.369,440.729,782.93Z" fill="#57574d"/>
        <path id="Path_4557" data-name="Path 4557" d="M446.6,782.205v2.248h-1.069v-.49a1.294,1.294,0,0,1-1.2.549c-.923,0-1.473-.513-1.473-1.193,0-.7.491-1.18,1.692-1.18h.909c0-.49-.293-.776-.909-.776a1.9,1.9,0,0,0-1.135.366l-.41-.8a3.033,3.033,0,0,1,1.7-.476C445.9,780.454,446.6,781.011,446.6,782.205Zm-1.142,1v-.4h-.784c-.535,0-.7.2-.7.462,0,.286.241.476.644.476A.843.843,0,0,0,445.455,783.208Zm-1.18-4.124-.234-.461a1.276,1.276,0,0,1,.791-.249.794.794,0,0,1,.879.785.982.982,0,0,1-.674.921l-.359-.38c.286-.131.374-.278.374-.447a.311.311,0,0,0-.345-.307A.783.783,0,0,0,444.275,779.084Z" fill="#57574d"/>
        <path id="Path_4558" data-name="Path 4558" d="M447.748,782.483a2.169,2.169,0,1,1,2.168,2.029A2.029,2.029,0,0,1,447.748,782.483Zm3.171,0a1.01,1.01,0,1,0-1,1.092A.994.994,0,0,0,450.919,782.483Z" fill="#57574d"/>
        <path id="Path_4559" data-name="Path 4559" d="M455.334,783.63a2.546,2.546,0,0,1,.376-1.407h.448a2.9,2.9,0,0,0,0,2.813h-.448A2.557,2.557,0,0,1,455.334,783.63Z" fill="#57574d"/>
        <path id="Path_4560" data-name="Path 4560" d="M459.514,783.879c0,.365-.288.574-.841.574h-1.089v-2.1h1.028c.527,0,.8.22.8.548a.506.506,0,0,1-.28.463A.518.518,0,0,1,459.514,783.879Zm-1.446-1.163v.5h.484c.238,0,.367-.084.367-.25s-.129-.246-.367-.246Zm.956,1.112c0-.177-.135-.261-.387-.261h-.569v.519h.569C458.889,784.086,459.024,784.008,459.024,783.828Z" fill="#57574d"/>
        <path id="Path_4561" data-name="Path 4561" d="M461.47,784.057v.4h-1.591v-.315l.812-.767c.186-.177.22-.286.22-.387,0-.165-.115-.262-.337-.262a.515.515,0,0,0-.436.21l-.355-.228a.977.977,0,0,1,.836-.391c.469,0,.781.241.781.623a.839.839,0,0,1-.351.664l-.484.457Z" fill="#57574d"/>
        <path id="Path_4562" data-name="Path 4562" d="M463.385,784.183a.7.7,0,0,1-.082.3l-.171.432h-.3l.133-.477a.262.262,0,0,1-.163-.256.291.291,0,0,1,.581,0Z" fill="#57574d"/>
        <path id="Path_4563" data-name="Path 4563" d="M466.814,783.879c0,.365-.289.574-.842.574h-1.088v-2.1h1.028c.526,0,.8.22.8.548a.507.507,0,0,1-.279.463A.518.518,0,0,1,466.814,783.879Zm-1.446-1.163v.5h.484c.237,0,.366-.084.366-.25s-.129-.246-.366-.246Zm.956,1.112c0-.177-.135-.261-.388-.261h-.568v.519h.568C466.189,784.086,466.324,784.008,466.324,783.828Z" fill="#57574d"/>
        <path id="Path_4564" data-name="Path 4564" d="M468.751,783.81c0,.354-.273.68-.872.68a1.437,1.437,0,0,1-.8-.226l.189-.373a1.017,1.017,0,0,0,.6.189c.243,0,.393-.1.393-.27s-.117-.258-.393-.258h-.223v-.322l.433-.49h-.9v-.391h1.473v.316l-.475.541A.6.6,0,0,1,468.751,783.81Z" fill="#57574d"/>
        <path id="Path_4565" data-name="Path 4565" d="M470.69,784.183a.7.7,0,0,1-.081.3l-.172.432h-.3l.132-.477a.262.262,0,0,1-.162-.256.29.29,0,0,1,.58,0Z" fill="#57574d"/>
        <path id="Path_4566" data-name="Path 4566" d="M474.12,783.879c0,.365-.289.574-.842.574h-1.089v-2.1h1.028c.527,0,.8.22.8.548a.507.507,0,0,1-.279.463A.519.519,0,0,1,474.12,783.879Zm-1.447-1.163v.5h.485c.237,0,.366-.084.366-.25s-.129-.246-.366-.246Zm.956,1.112c0-.177-.135-.261-.387-.261h-.569v.519h.569C473.494,784.086,473.629,784.008,473.629,783.828Z" fill="#57574d"/>
        <path id="Path_4567" data-name="Path 4567" d="M476.429,784.012h-.343v.441h-.474v-.441h-1.134v-.328l.992-1.335h.511l-.919,1.266h.564v-.394h.46v.394h.343Z" fill="#57574d"/>
        <path id="Path_4568" data-name="Path 4568" d="M478.287,784.183a.7.7,0,0,1-.081.3l-.172.432h-.3l.132-.477a.26.26,0,0,1-.162-.256.29.29,0,0,1,.58,0Z" fill="#57574d"/>
        <path id="Path_4569" data-name="Path 4569" d="M481.715,783.879c0,.365-.289.574-.841.574h-1.089v-2.1h1.028c.526,0,.8.22.8.548a.509.509,0,0,1-.279.463A.519.519,0,0,1,481.715,783.879Zm-1.446-1.163v.5h.484c.238,0,.367-.084.367-.25s-.129-.246-.367-.246Zm.956,1.112c0-.177-.136-.261-.388-.261h-.568v.519h.568C481.089,784.086,481.225,784.008,481.225,783.828Z" fill="#57574d"/>
        <path id="Path_4570" data-name="Path 4570" d="M483.835,783.789a.723.723,0,0,1-.8.7c-.581,0-.941-.365-.941-1.043a1.025,1.025,0,0,1,1.073-1.134,1.145,1.145,0,0,1,.586.144l-.18.358a.7.7,0,0,0-.394-.1.559.559,0,0,0-.592.611.708.708,0,0,1,.52-.187A.667.667,0,0,1,483.835,783.789Zm-.471.024a.318.318,0,0,0-.358-.316.33.33,0,0,0-.364.316c0,.181.136.312.37.312A.315.315,0,0,0,483.364,783.813Z" fill="#57574d"/>
        <path id="Path_4571" data-name="Path 4571" d="M485.726,784.183a.7.7,0,0,1-.081.3l-.172.432h-.3l.132-.477a.26.26,0,0,1-.162-.256.29.29,0,0,1,.58,0Z" fill="#57574d"/>
        <path id="Path_4572" data-name="Path 4572" d="M487.092,783.4a1.158,1.158,0,0,1,2.008-.716l-.312.289a.677.677,0,0,0-.53-.247.673.673,0,0,0,0,1.347.673.673,0,0,0,.53-.249l.312.288a1.157,1.157,0,0,1-2.008-.712Z" fill="#57574d"/>
        <path id="Path_4573" data-name="Path 4573" d="M490.284,782.349v2.1H489.8V782.74h-.42v-.391Z" fill="#57574d"/>
        <path id="Path_4574" data-name="Path 4574" d="M490.8,783.4c0-.7.385-1.089.9-1.089s.9.394.9,1.089-.382,1.088-.9,1.088S490.8,784.1,490.8,783.4Zm1.314,0c0-.479-.168-.677-.412-.677s-.408.2-.408.677.167.675.408.675S492.111,783.879,492.111,783.4Z" fill="#57574d"/>
        <path id="Path_4575" data-name="Path 4575" d="M494.552,784.183a.689.689,0,0,1-.081.3l-.172.432H494l.132-.477a.262.262,0,0,1-.162-.256.29.29,0,0,1,.58,0Z" fill="#57574d"/>
        <path id="Path_4576" data-name="Path 4576" d="M495.918,783.4a1.158,1.158,0,0,1,2.008-.716l-.312.289a.678.678,0,0,0-.53-.247.673.673,0,0,0,0,1.347.673.673,0,0,0,.53-.249l.312.288a1.157,1.157,0,0,1-2.008-.712Z" fill="#57574d"/>
        <path id="Path_4577" data-name="Path 4577" d="M499.108,782.349v2.1h-.487V782.74h-.42v-.391Z" fill="#57574d"/>
        <path id="Path_4578" data-name="Path 4578" d="M500.434,782.349v2.1h-.487V782.74h-.42v-.391Z" fill="#57574d"/>
        <path id="Path_4579" data-name="Path 4579" d="M502.515,784.183a.7.7,0,0,1-.081.3l-.172.432h-.3l.132-.477a.262.262,0,0,1-.162-.256.29.29,0,0,1,.58,0Z" fill="#57574d"/>
        <path id="Path_4580" data-name="Path 4580" d="M503.881,783.4a1.158,1.158,0,0,1,2.008-.716l-.312.289a.677.677,0,0,0-.53-.247.673.673,0,0,0,0,1.347.673.673,0,0,0,.53-.249l.312.288a1.157,1.157,0,0,1-2.008-.712Z" fill="#57574d"/>
        <path id="Path_4581" data-name="Path 4581" d="M507.073,782.349v2.1h-.488V782.74h-.419v-.391Z" fill="#57574d"/>
        <path id="Path_4582" data-name="Path 4582" d="M509.16,784.057v.4h-1.59v-.315l.811-.767c.187-.177.219-.286.219-.387,0-.165-.114-.262-.336-.262a.514.514,0,0,0-.436.21l-.355-.228a.976.976,0,0,1,.836-.391c.469,0,.781.241.781.623a.836.836,0,0,1-.351.664l-.485.457Z" fill="#57574d"/>
        <path id="Path_4583" data-name="Path 4583" d="M510.418,785.036a2.879,2.879,0,0,0,0-2.813h.448a2.8,2.8,0,0,1,0,2.813Z" fill="#57574d"/>
        <path id="Path_4584" data-name="Path 4584" d="M513.856,784.046a4.33,4.33,0,0,1,.977-2.774h.669a4.577,4.577,0,0,0-1,2.808,3.807,3.807,0,0,0,.2,1.2h-.614A3.306,3.306,0,0,1,513.856,784.046Z" fill="#df071b"/>
        <path id="Path_4585" data-name="Path 4585" d="M518.874,782.7a1.713,1.713,0,0,1-1.87,1.749h-1.466l.257-1.294h-.407l.094-.463h.407l.249-1.244H517.4C518.321,781.452,518.874,781.937,518.874,782.7Zm-.7.039c0-.446-.287-.72-.852-.72h-.6l-.133.673h.746l-.089.463h-.75l-.147.724h.678A1.077,1.077,0,0,0,518.17,782.743Z" fill="#df071b"/>
        <path id="Path_4586" data-name="Path 4586" d="M522.052,782.147l-.458,2.306h-.635l.043-.227a1.023,1.023,0,0,1-.708.262.971.971,0,0,1-.994-1.034,1.282,1.282,0,0,1,1.274-1.341.825.825,0,0,1,.75.346l.06-.312Zm-.874,1.029a.478.478,0,0,0-.527-.511.691.691,0,0,0-.678.759.478.478,0,0,0,.527.511A.691.691,0,0,0,521.178,783.176Zm-.561,1.848a.312.312,0,0,1-.326.33.257.257,0,0,1-.275-.266.327.327,0,0,1,.326-.321A.259.259,0,0,1,520.617,785.024Zm-.33-3.727a.336.336,0,0,1,0-.063h.407a.3.3,0,0,0,.339.3.377.377,0,0,0,.4-.3h.434a.819.819,0,0,1-.871.651C520.59,781.885,520.287,781.658,520.287,781.3Z" fill="#df071b"/>
        <path id="Path_4587" data-name="Path 4587" d="M522.47,783.454a1.331,1.331,0,0,1,1.406-1.341,1.071,1.071,0,0,1,1.039.583l-.567.283a.525.525,0,0,0-.514-.314.7.7,0,0,0-.686.755.484.484,0,0,0,.536.515.635.635,0,0,0,.565-.309l.494.309a1.271,1.271,0,0,1-1.1.553A1.042,1.042,0,0,1,522.47,783.454Z" fill="#df071b"/>
        <path id="Path_4588" data-name="Path 4588" d="M529.358,783.146a1.283,1.283,0,0,1-1.277,1.342.829.829,0,0,1-.773-.377l-.068.342H526.6l.635-3.181h.669l-.214,1.072a1.019,1.019,0,0,1,.664-.231A.974.974,0,0,1,529.358,783.146Zm-.678.03a.478.478,0,0,0-.527-.511.69.69,0,0,0-.673.759.474.474,0,0,0,.523.511A.69.69,0,0,0,528.68,783.176Z" fill="#df071b"/>
        <path id="Path_4589" data-name="Path 4589" d="M530.239,782.147h.665l-.459,2.306h-.665Zm.055-.669a.408.408,0,0,1,.443-.4.354.354,0,0,1,.393.334.408.408,0,0,1-.445.413A.359.359,0,0,1,530.294,781.478Z" fill="#df071b"/>
        <path id="Path_4590" data-name="Path 4590" d="M533.748,783.48h-1.767c.021.313.215.472.6.472a.955.955,0,0,0,.618-.214l.278.441a1.525,1.525,0,0,1-.965.309,1.042,1.042,0,0,1-1.178-1.034,1.3,1.3,0,0,1,1.359-1.341.989.989,0,0,1,1.1,1.015A1.832,1.832,0,0,1,533.748,783.48Zm-1.244,1.544a.311.311,0,0,1-.326.33.257.257,0,0,1-.274-.266.327.327,0,0,1,.326-.321A.259.259,0,0,1,532.5,785.024Zm-.03-3.169h-.5l.652-.617h.587l.485.617h-.476l-.33-.321Zm-.446,1.235h1.145a.459.459,0,0,0-.514-.476A.634.634,0,0,0,532.028,783.09Z" fill="#df071b"/>
        <path id="Path_4591" data-name="Path 4591" d="M535.1,783.639a.349.349,0,0,0-.009.094c0,.141.077.223.245.223a.527.527,0,0,0,.27-.082l.1.477a1.1,1.1,0,0,1-.575.137.64.64,0,0,1-.72-.643,1.1,1.1,0,0,1,.021-.2l.185-.931h-.356l.1-.513h.355l.113-.563h.669l-.113.563h.575l-.1.513h-.574Z" fill="#df071b"/>
        <path id="Path_4592" data-name="Path 4592" d="M536.936,782.477a3.81,3.81,0,0,0-.2-1.205h.613a3.29,3.29,0,0,1,.231,1.239,4.328,4.328,0,0,1-.977,2.774h-.669A4.571,4.571,0,0,0,536.936,782.477Z" fill="#df071b"/>
      </g>
    </g>
    <g id="Group_391" data-name="Group 391" transform="translate(-349.608 -754.949)">
      <g id="Group_390" data-name="Group 390">
        <path id="Path_4593" data-name="Path 4593" d="M553.441,760.661c0,.909-.666,1.7-2.131,1.7a3.548,3.548,0,0,1-1.956-.55l.469-.908a2.466,2.466,0,0,0,1.458.462c.593,0,.959-.249.959-.667,0-.4-.264-.666-1.194-.666h-1.311l.264-2.886h3.127v.952h-2.138l-.081.975h.417C552.84,759.073,553.441,759.753,553.441,760.661Z" fill="#df071b"/>
        <path id="Path_4594" data-name="Path 4594" d="M558.385,759.6a2.492,2.492,0,0,1-2.614,2.761,2.733,2.733,0,0,1-1.422-.352l.44-.872a1.657,1.657,0,0,0,.96.257,1.366,1.366,0,0,0,1.442-1.494,1.752,1.752,0,0,1-1.274.462,1.627,1.627,0,0,1-1.765-1.6,1.762,1.762,0,0,1,1.941-1.706C557.513,757.058,558.385,757.944,558.385,759.6Zm-1.325-.895c0-.439-.33-.761-.894-.761a.771.771,0,1,0,.015,1.531A.8.8,0,0,0,557.06,758.705Z" fill="#df071b"/>
        <path id="Path_4595" data-name="Path 4595" d="M563.417,759.6a2.493,2.493,0,0,1-2.615,2.761,2.731,2.731,0,0,1-1.42-.352l.44-.872a1.649,1.649,0,0,0,.959.257,1.368,1.368,0,0,0,1.443-1.494,1.756,1.756,0,0,1-1.275.462,1.627,1.627,0,0,1-1.765-1.6,1.762,1.762,0,0,1,1.94-1.706C562.546,757.058,563.417,757.944,563.417,759.6Zm-1.326-.895c0-.439-.329-.761-.892-.761a.771.771,0,1,0,.013,1.531A.8.8,0,0,0,562.091,758.705Z" fill="#df071b"/>
        <path id="Path_4596" data-name="Path 4596" d="M564.224,761.614a.711.711,0,0,1,1.421,0,.711.711,0,1,1-1.421,0Z" fill="#df071b"/>
        <path id="Path_4597" data-name="Path 4597" d="M566.451,759.709c0-1.691.937-2.651,2.2-2.651s2.2.96,2.2,2.651-.93,2.652-2.2,2.652S566.451,761.4,566.451,759.709Zm3.2,0c0-1.164-.41-1.648-1-1.648s-1,.484-1,1.648.41,1.649,1,1.649S569.651,760.873,569.651,759.709Z" fill="#df071b"/>
        <path id="Path_4598" data-name="Path 4598" d="M571.791,759.709c0-1.691.937-2.651,2.2-2.651s2.2.96,2.2,2.651-.931,2.652-2.2,2.652S571.791,761.4,571.791,759.709Zm3.2,0c0-1.164-.41-1.648-1-1.648s-1,.484-1,1.648.41,1.649,1,1.649S574.991,760.873,574.991,759.709Z" fill="#df071b"/>
        <path id="Path_4599" data-name="Path 4599" d="M577.13,759.709c0-1.691.938-2.651,2.2-2.651s2.2.96,2.2,2.651-.931,2.652-2.2,2.652S577.13,761.4,577.13,759.709Zm3.2,0c0-1.164-.411-1.648-1-1.648s-1,.484-1,1.648.41,1.649,1,1.649S580.331,760.873,580.331,759.709Z" fill="#df071b"/>
        <path id="Path_4600" data-name="Path 4600" d="M587.259,757.93h-.534v4.343h-1.091v-.454a1.519,1.519,0,0,1-1.23.512,2.029,2.029,0,0,1,0-4.057,1.514,1.514,0,0,1,1.178.476v-.82h-1.34v-.66h1.34v-.432h1.143v.432h.534ZM585.6,760.3a1.011,1.011,0,1,0-1,1.091A1,1,0,0,0,585.6,760.3Z" fill="#df071b"/>
        <path id="Path_4601" data-name="Path 4601" d="M553.353,770.69a2.493,2.493,0,0,1-2.615,2.761,2.728,2.728,0,0,1-1.42-.352l.439-.872a1.653,1.653,0,0,0,.959.257,1.368,1.368,0,0,0,1.444-1.494,1.762,1.762,0,0,1-1.276.462,1.627,1.627,0,0,1-1.764-1.6,1.761,1.761,0,0,1,1.94-1.706C552.482,768.148,553.353,769.034,553.353,770.69Zm-1.326-.9c0-.439-.329-.761-.893-.761a.771.771,0,1,0,.014,1.531A.8.8,0,0,0,552.027,769.795Z" fill="#df071b"/>
        <path id="Path_4602" data-name="Path 4602" d="M558.385,770.69a2.492,2.492,0,0,1-2.614,2.761,2.733,2.733,0,0,1-1.422-.352l.44-.872a1.656,1.656,0,0,0,.96.257,1.366,1.366,0,0,0,1.442-1.494,1.756,1.756,0,0,1-1.274.462,1.627,1.627,0,0,1-1.765-1.6,1.762,1.762,0,0,1,1.941-1.706C557.513,768.148,558.385,769.034,558.385,770.69Zm-1.325-.9c0-.439-.33-.761-.894-.761a.771.771,0,1,0,.015,1.531A.8.8,0,0,0,557.06,769.795Z" fill="#df071b"/>
        <path id="Path_4603" data-name="Path 4603" d="M563.417,770.69a2.493,2.493,0,0,1-2.615,2.761,2.731,2.731,0,0,1-1.42-.352l.44-.872a1.649,1.649,0,0,0,.959.257,1.368,1.368,0,0,0,1.443-1.494,1.76,1.76,0,0,1-1.275.462,1.627,1.627,0,0,1-1.765-1.6,1.762,1.762,0,0,1,1.94-1.706C562.546,768.148,563.417,769.034,563.417,770.69Zm-1.326-.9c0-.439-.329-.761-.892-.761a.771.771,0,1,0,.013,1.531A.8.8,0,0,0,562.091,769.795Z" fill="#df071b"/>
        <path id="Path_4604" data-name="Path 4604" d="M564.224,772.7a.711.711,0,0,1,1.421,0,.711.711,0,1,1-1.421,0Z" fill="#df071b"/>
        <path id="Path_4605" data-name="Path 4605" d="M566.451,770.8c0-1.691.937-2.651,2.2-2.651s2.2.96,2.2,2.651-.93,2.652-2.2,2.652S566.451,772.491,566.451,770.8Zm3.2,0c0-1.164-.41-1.648-1-1.648s-1,.484-1,1.648.41,1.649,1,1.649S569.651,771.963,569.651,770.8Z" fill="#df071b"/>
        <path id="Path_4606" data-name="Path 4606" d="M571.791,770.8c0-1.691.937-2.651,2.2-2.651s2.2.96,2.2,2.651-.931,2.652-2.2,2.652S571.791,772.491,571.791,770.8Zm3.2,0c0-1.164-.41-1.648-1-1.648s-1,.484-1,1.648.41,1.649,1,1.649S574.991,771.963,574.991,770.8Z" fill="#df071b"/>
        <path id="Path_4607" data-name="Path 4607" d="M577.13,770.8c0-1.691.938-2.651,2.2-2.651s2.2.96,2.2,2.651-.931,2.652-2.2,2.652S577.13,772.491,577.13,770.8Zm3.2,0c0-1.164-.411-1.648-1-1.648s-1,.484-1,1.648.41,1.649,1,1.649S580.331,771.963,580.331,770.8Z" fill="#df071b"/>
        <path id="Path_4608" data-name="Path 4608" d="M587.259,769.02h-.534v4.343h-1.091v-.454a1.519,1.519,0,0,1-1.23.512,2.029,2.029,0,0,1,0-4.057,1.514,1.514,0,0,1,1.178.476v-.82h-1.34v-.66h1.34v-.432h1.143v.432h.534Zm-1.654,2.373a1.011,1.011,0,1,0-1,1.091A1,1,0,0,0,585.6,771.393Z" fill="#df071b"/>
        <path id="Path_4609" data-name="Path 4609" d="M553.353,781.78a2.492,2.492,0,0,1-2.615,2.761,2.748,2.748,0,0,1-1.42-.351l.439-.871a1.667,1.667,0,0,0,.959.256,1.369,1.369,0,0,0,1.444-1.495,1.754,1.754,0,0,1-1.276.461,1.625,1.625,0,0,1-1.764-1.6,1.762,1.762,0,0,1,1.94-1.707C552.482,779.239,553.353,780.125,553.353,781.78Zm-1.326-.893c0-.439-.329-.762-.893-.762a.771.771,0,1,0,.014,1.531A.8.8,0,0,0,552.027,780.887Z" fill="#df071b"/>
        <path id="Path_4610" data-name="Path 4610" d="M558.385,781.78a2.491,2.491,0,0,1-2.614,2.761,2.752,2.752,0,0,1-1.422-.351l.44-.871a1.671,1.671,0,0,0,.96.256,1.367,1.367,0,0,0,1.442-1.495,1.747,1.747,0,0,1-1.274.461,1.625,1.625,0,0,1-1.765-1.6,1.762,1.762,0,0,1,1.941-1.707C557.513,779.239,558.385,780.125,558.385,781.78Zm-1.325-.893c0-.439-.33-.762-.894-.762a.771.771,0,1,0,.015,1.531A.8.8,0,0,0,557.06,780.887Z" fill="#df071b"/>
        <path id="Path_4611" data-name="Path 4611" d="M563.417,781.78a2.492,2.492,0,0,1-2.615,2.761,2.75,2.75,0,0,1-1.42-.351l.44-.871a1.663,1.663,0,0,0,.959.256,1.368,1.368,0,0,0,1.443-1.495,1.751,1.751,0,0,1-1.275.461,1.625,1.625,0,0,1-1.765-1.6,1.762,1.762,0,0,1,1.94-1.707C562.546,779.239,563.417,780.125,563.417,781.78Zm-1.326-.893c0-.439-.329-.762-.892-.762a.771.771,0,1,0,.013,1.531A.8.8,0,0,0,562.091,780.887Z" fill="#df071b"/>
        <path id="Path_4612" data-name="Path 4612" d="M564.224,783.794a.711.711,0,0,1,1.421,0,.711.711,0,1,1-1.421,0Z" fill="#df071b"/>
        <path id="Path_4613" data-name="Path 4613" d="M566.451,781.89c0-1.692.937-2.651,2.2-2.651s2.2.959,2.2,2.651-.93,2.651-2.2,2.651S566.451,783.582,566.451,781.89Zm3.2,0c0-1.165-.41-1.647-1-1.647s-1,.482-1,1.647.41,1.647,1,1.647S569.651,783.055,569.651,781.89Z" fill="#df071b"/>
        <path id="Path_4614" data-name="Path 4614" d="M571.791,781.89c0-1.692.937-2.651,2.2-2.651s2.2.959,2.2,2.651-.931,2.651-2.2,2.651S571.791,783.582,571.791,781.89Zm3.2,0c0-1.165-.41-1.647-1-1.647s-1,.482-1,1.647.41,1.647,1,1.647S574.991,783.055,574.991,781.89Z" fill="#df071b"/>
        <path id="Path_4615" data-name="Path 4615" d="M577.13,781.89c0-1.692.938-2.651,2.2-2.651s2.2.959,2.2,2.651-.931,2.651-2.2,2.651S577.13,783.582,577.13,781.89Zm3.2,0c0-1.165-.411-1.647-1-1.647s-1,.482-1,1.647.41,1.647,1,1.647S580.331,783.055,580.331,781.89Z" fill="#df071b"/>
        <path id="Path_4616" data-name="Path 4616" d="M587.259,780.11h-.534v4.343h-1.091V784a1.514,1.514,0,0,1-1.23.513,2.03,2.03,0,0,1,0-4.058,1.514,1.514,0,0,1,1.178.476v-.82h-1.34v-.658h1.34v-.433h1.143v.433h.534Zm-1.654,2.373a1.011,1.011,0,1,0-1,1.092A1,1,0,0,0,585.6,782.483Z" fill="#df071b"/>
      </g>
    </g>
  </g>
</svg>
