<svg xmlns="http://www.w3.org/2000/svg" xmlns:xlink="http://www.w3.org/1999/xlink" width="501" height="87" viewBox="0 0 501 87">
  <defs>
    <clipPath id="clip-Web_1920_1">
      <rect width="501" height="87"/>
    </clipPath>
  </defs>
  <g id="Web_1920_1" data-name="Web 1920 – 1" clip-path="url(#clip-Web_1920_1)">
    <g id="Group_358" data-name="Group 358" transform="translate(-1304.552 -1018.808)">
      <g id="Group_355" data-name="Group 355">
        <g id="Group_354" data-name="Group 354">
          <path id="Path_3847" data-name="Path 3847" d="M1309.193,1021.113v10.756H1306.7v-8.759h-2.152v-2Z" fill="#68695f"/>
          <path id="Path_3848" data-name="Path 3848" d="M1311.836,1026.491c0-3.549,1.967-5.563,4.61-5.563s4.609,2.014,4.609,5.563-1.951,5.562-4.609,5.562S1311.836,1030.04,1311.836,1026.491Zm6.715,0c0-2.444-.861-3.458-2.1-3.458s-2.09,1.014-2.09,3.458.86,3.457,2.09,3.457S1318.551,1028.934,1318.551,1026.491Z" fill="#68695f"/>
          <path id="Path_3849" data-name="Path 3849" d="M1322.761,1030.486a1.491,1.491,0,0,1,2.981,0,1.491,1.491,0,1,1-2.981,0Z" fill="#68695f"/>
          <path id="Path_3850" data-name="Path 3850" d="M1333.425,1021.113h2.489v8.727h5.394v2.029h-7.883Z" fill="#68695f"/>
          <path id="Path_3851" data-name="Path 3851" d="M1350.711,1027.151v4.718h-2.243v-1.03a2.711,2.711,0,0,1-2.519,1.153c-1.937,0-3.089-1.076-3.089-2.5,0-1.46,1.029-2.474,3.55-2.474h1.9c0-1.029-.614-1.629-1.9-1.629a3.972,3.972,0,0,0-2.382.769l-.861-1.675a6.36,6.36,0,0,1,3.565-1C1349.252,1023.479,1350.711,1024.647,1350.711,1027.151Zm-5.054-4.609h-1.768l2.044-1.752h2.09l2.044,1.752H1348.3l-1.321-.876Zm2.658,6.714v-.844h-1.645c-1.121,0-1.474.414-1.474.968,0,.6.507,1,1.351,1A1.767,1.767,0,0,0,1348.315,1029.256Zm.184-9.373-.4-.737a2.365,2.365,0,0,1,1.275-.338c.861,0,1.414.476,1.414,1.214a1.52,1.52,0,0,1-1.076,1.337l-.584-.569c.415-.2.569-.446.569-.645,0-.277-.215-.446-.523-.446A1.367,1.367,0,0,0,1348.5,1019.883Z" fill="#68695f"/>
          <path id="Path_3852" data-name="Path 3852" d="M1361.976,1023.6v8.267H1359.7v-.984a3.342,3.342,0,0,1-2.566,1.107c-2.075,0-3.534-1.168-3.534-3.719V1023.6h2.4v4.318c0,1.383.616,2,1.675,2,1.107,0,1.906-.706,1.906-2.227V1023.6Z" fill="#68695f"/>
          <path id="Path_3853" data-name="Path 3853" d="M1380.122,1021.113v10.756h-2.042l-5.364-6.531v6.531h-2.458v-10.756h2.059l5.347,6.53v-6.53Z" fill="#68695f"/>
          <path id="Path_3854" data-name="Path 3854" d="M1391.8,1023.6v6.884c0,3.073-1.659,4.487-4.639,4.487a6.817,6.817,0,0,1-4.057-1.137l.952-1.722a4.939,4.939,0,0,0,2.92.938c1.69,0,2.428-.768,2.428-2.259v-.353a3.406,3.406,0,0,1-2.613,1.029,4,4,0,1,1,0-7.99,3.319,3.319,0,0,1,2.736,1.183v-1.06Zm-2.366,3.872a2.179,2.179,0,1,0-2.166,2.029A2.007,2.007,0,0,0,1389.435,1027.474Z" fill="#68695f"/>
          <path id="Path_3855" data-name="Path 3855" d="M1402.112,1027.151v4.718h-2.243v-1.03a2.713,2.713,0,0,1-2.52,1.153c-1.936,0-3.089-1.076-3.089-2.5,0-1.46,1.029-2.474,3.55-2.474h1.9c0-1.029-.614-1.629-1.9-1.629a3.974,3.974,0,0,0-2.382.769l-.86-1.675a6.354,6.354,0,0,1,3.564-1C1400.653,1023.479,1402.112,1024.647,1402.112,1027.151Zm-2.4,2.1v-.844h-1.644c-1.121,0-1.475.414-1.475.968,0,.6.507,1,1.352,1A1.767,1.767,0,0,0,1399.715,1029.256Z" fill="#68695f"/>
          <path id="Path_3856" data-name="Path 3856" d="M1413.5,1027.136v4.733h-2.4v-4.364c0-1.337-.614-1.952-1.675-1.952-1.152,0-1.982.707-1.982,2.228v4.088h-2.4V1023.6h2.289v.968a3.621,3.621,0,0,1,2.736-1.091C1412.023,1023.479,1413.5,1024.616,1413.5,1027.136Z" fill="#68695f"/>
          <path id="Path_3857" data-name="Path 3857" d="M1431.047,1025.016c0,2.4-1.8,3.887-4.672,3.887h-2.166v2.966h-2.489v-10.756h4.655C1429.249,1021.113,1431.047,1022.6,1431.047,1025.016Zm-2.52,0c0-1.183-.768-1.875-2.289-1.875h-2.029v3.734h2.029C1427.759,1026.875,1428.527,1026.184,1428.527,1025.016Z" fill="#68695f"/>
          <path id="Path_3858" data-name="Path 3858" d="M1440.651,1027.151v4.718h-2.243v-1.03a2.713,2.713,0,0,1-2.52,1.153c-1.936,0-3.089-1.076-3.089-2.5,0-1.46,1.03-2.474,3.55-2.474h1.905c0-1.029-.614-1.629-1.905-1.629a3.973,3.973,0,0,0-2.382.769l-.86-1.675a6.354,6.354,0,0,1,3.564-1C1439.192,1023.479,1440.651,1024.647,1440.651,1027.151Zm-2.4,2.1v-.844h-1.644c-1.121,0-1.475.414-1.475.968,0,.6.507,1,1.352,1A1.766,1.766,0,0,0,1438.254,1029.256Z" fill="#68695f"/>
          <path id="Path_3859" data-name="Path 3859" d="M1448.918,1031.469a3.42,3.42,0,0,1-1.952.523c-1.951,0-3.088-1-3.088-2.966v-3.4H1442.6v-1.844h1.275v-2.012h2.4v2.012h2.059v1.844h-2.059v3.365a.965.965,0,0,0,1.03,1.092,1.617,1.617,0,0,0,.968-.308Z" fill="#68695f"/>
          <path id="Path_3860" data-name="Path 3860" d="M1458.83,1028.412h-6.254a2.2,2.2,0,0,0,2.366,1.659,2.8,2.8,0,0,0,2.074-.8l1.275,1.383a4.328,4.328,0,0,1-3.411,1.337c-2.858,0-4.716-1.8-4.716-4.257a4.207,4.207,0,0,1,4.409-4.256,4.093,4.093,0,0,1,4.3,4.287C1458.875,1027.95,1458.844,1028.212,1458.83,1028.412Zm-6.286-1.4h4.073a2.065,2.065,0,0,0-4.073,0Z" fill="#68695f"/>
          <path id="Path_3861" data-name="Path 3861" d="M1468.755,1023.141h-3.441v-2.028h9.373v2.028h-3.442v8.728h-2.49Z" fill="#68695f"/>
          <path id="Path_3862" data-name="Path 3862" d="M1481.571,1023.479v2.213c-.2-.016-.354-.031-.538-.031a2.031,2.031,0,0,0-2.2,2.3v3.9h-2.4V1023.6h2.289v1.091A3.336,3.336,0,0,1,1481.571,1023.479Z" fill="#68695f"/>
          <path id="Path_3863" data-name="Path 3863" d="M1492.159,1024.985v6.884h-2.275v-.984a3.342,3.342,0,0,1-2.565,1.107c-2.075,0-3.534-1.168-3.534-3.719V1023.6h2.4v4.318c0,1.383.615,2,1.675,2,1.106,0,1.905-.706,1.905-2.227V1023.6h1.276a.9.9,0,0,0,.921-.968,1.483,1.483,0,0,0-.306-.922l1.413-.522a2.481,2.481,0,0,1,.492,1.536A2.251,2.251,0,0,1,1492.159,1024.985Zm-3.719-2.443h-1.874l2.074-2.213h2.581Z" fill="#68695f"/>
          <path id="Path_3864" data-name="Path 3864" d="M1503.714,1027.136v4.733h-2.4v-4.364c0-1.337-.614-1.952-1.675-1.952-1.152,0-1.982.707-1.982,2.228v4.088h-2.4V1023.6h2.289v.968a3.62,3.62,0,0,1,2.736-1.091C1502.239,1023.479,1503.714,1024.616,1503.714,1027.136Z" fill="#68695f"/>
          <path id="Path_3865" data-name="Path 3865" d="M1515.269,1023.6v6.884c0,3.073-1.659,4.487-4.64,4.487a6.814,6.814,0,0,1-4.056-1.137l.952-1.722a4.939,4.939,0,0,0,2.92.938c1.69,0,2.427-.768,2.427-2.259v-.353a3.4,3.4,0,0,1-2.612,1.029,4,4,0,1,1,0-7.99,3.319,3.319,0,0,1,2.736,1.183v-1.06Zm-2.366,3.872a2.179,2.179,0,1,0-2.166,2.029A2.007,2.007,0,0,0,1512.9,1027.474Z" fill="#68695f"/>
          <path id="Path_3866" data-name="Path 3866" d="M1533.34,1031.869l-.015-6.454-3.165,5.317h-1.122l-3.15-5.179v6.316h-2.336v-10.756h2.059l4.026,6.684,3.964-6.684h2.044l.03,10.756Z" fill="#68695f"/>
          <path id="Path_3867" data-name="Path 3867" d="M1547.155,1023.6v8.267h-2.275v-.984a3.34,3.34,0,0,1-2.565,1.107c-2.075,0-3.534-1.168-3.534-3.719V1023.6h2.4v4.318c0,1.383.615,2,1.675,2,1.106,0,1.9-.706,1.9-2.227V1023.6Z" fill="#68695f"/>
          <path id="Path_3868" data-name="Path 3868" d="M1558.619,1027.735a4.551,4.551,0,1,1-4.534-4.256A4.244,4.244,0,0,1,1558.619,1027.735Zm-5.886-5.193h-1.767l2.043-1.752h2.09l2.044,1.752h-1.767l-1.322-.876Zm3.457,5.193a2.119,2.119,0,1,0-2.1,2.29A2.085,2.085,0,0,0,1556.19,1027.735Zm1.445-6.668H1555.9l1.7-1.859h2.443Z" fill="#68695f"/>
          <path id="Path_3869" data-name="Path 3869" d="M1560.693,1021.113a1.37,1.37,0,0,1,1.49-1.337,1.345,1.345,0,0,1,1.49,1.291,1.5,1.5,0,0,1-2.98.046Zm.292,2.489h2.4v8.267h-2.4Z" fill="#68695f"/>
          <path id="Path_3870" data-name="Path 3870" d="M1309.193,1044.377v10.756H1306.7v-8.758h-2.152v-2Z" fill="#68695f"/>
          <path id="Path_3871" data-name="Path 3871" d="M1315.985,1044.377v10.756H1313.5v-8.758h-2.152v-2Z" fill="#68695f"/>
          <path id="Path_3872" data-name="Path 3872" d="M1318.551,1053.75a1.491,1.491,0,0,1,2.981,0,1.491,1.491,0,1,1-2.981,0Z" fill="#68695f"/>
          <path id="Path_3873" data-name="Path 3873" d="M1329.215,1044.377h2.49v8.728h5.393v2.028h-7.883Z" fill="#68695f"/>
          <path id="Path_3874" data-name="Path 3874" d="M1346.5,1050.416v4.717h-2.243V1054.1a2.71,2.71,0,0,1-2.519,1.152c-1.937,0-3.089-1.076-3.089-2.505,0-1.459,1.029-2.474,3.55-2.474h1.905c0-1.029-.615-1.628-1.905-1.628a3.977,3.977,0,0,0-2.382.768l-.861-1.675a6.361,6.361,0,0,1,3.565-1C1345.042,1046.743,1346.5,1047.911,1346.5,1050.416Zm-5.054-4.61h-1.768l2.044-1.752h2.09l2.044,1.752h-1.768l-1.321-.876Zm2.658,6.715v-.845h-1.645c-1.121,0-1.474.414-1.474.968,0,.6.507,1,1.351,1A1.766,1.766,0,0,0,1344.1,1052.521Zm.184-9.373-.4-.738a2.368,2.368,0,0,1,1.275-.338c.861,0,1.414.476,1.414,1.214a1.52,1.52,0,0,1-1.076,1.337l-.584-.569c.415-.2.569-.445.569-.645,0-.277-.215-.446-.523-.446A1.359,1.359,0,0,0,1344.289,1043.148Z" fill="#68695f"/>
          <path id="Path_3875" data-name="Path 3875" d="M1357.765,1046.866v8.267h-2.274v-.983a3.345,3.345,0,0,1-2.566,1.106c-2.075,0-3.534-1.168-3.534-3.719v-4.671h2.4v4.318c0,1.383.615,2,1.674,2,1.107,0,1.906-.706,1.906-2.228v-4.087Z" fill="#68695f"/>
          <path id="Path_3876" data-name="Path 3876" d="M1375.912,1044.377v10.756h-2.043l-5.364-6.53v6.53h-2.458v-10.756h2.059l5.348,6.53v-6.53Z" fill="#68695f"/>
          <path id="Path_3877" data-name="Path 3877" d="M1387.59,1046.866v6.884c0,3.073-1.659,4.487-4.639,4.487a6.809,6.809,0,0,1-4.057-1.137l.952-1.721a4.947,4.947,0,0,0,2.92.937c1.69,0,2.428-.768,2.428-2.259v-.353a3.4,3.4,0,0,1-2.613,1.03,4,4,0,1,1,0-7.991,3.322,3.322,0,0,1,2.736,1.183v-1.06Zm-2.366,3.872a2.179,2.179,0,1,0-2.166,2.029A2.007,2.007,0,0,0,1385.224,1050.738Z" fill="#68695f"/>
          <path id="Path_3878" data-name="Path 3878" d="M1397.9,1050.416v4.717h-2.243V1054.1a2.713,2.713,0,0,1-2.52,1.152c-1.936,0-3.089-1.076-3.089-2.505,0-1.459,1.03-2.474,3.55-2.474h1.905c0-1.029-.615-1.628-1.905-1.628a3.979,3.979,0,0,0-2.382.768l-.86-1.675a6.355,6.355,0,0,1,3.564-1C1396.443,1046.743,1397.9,1047.911,1397.9,1050.416Zm-2.4,2.1v-.845h-1.644c-1.121,0-1.475.414-1.475.968,0,.6.507,1,1.352,1A1.765,1.765,0,0,0,1395.505,1052.521Z" fill="#68695f"/>
          <path id="Path_3879" data-name="Path 3879" d="M1409.289,1050.4v4.733h-2.4v-4.364c0-1.337-.614-1.952-1.675-1.952-1.152,0-1.982.708-1.982,2.229v4.087h-2.4v-8.267h2.289v.968a3.625,3.625,0,0,1,2.736-1.091C1407.813,1046.743,1409.289,1047.88,1409.289,1050.4Z" fill="#68695f"/>
          <path id="Path_3880" data-name="Path 3880" d="M1427.373,1044.377v10.756h-2.042l-5.364-6.53v6.53h-2.458v-10.756h2.059l5.347,6.53v-6.53Z" fill="#68695f"/>
          <path id="Path_3881" data-name="Path 3881" d="M1439.052,1046.866v6.884c0,3.073-1.659,4.487-4.639,4.487a6.809,6.809,0,0,1-4.057-1.137l.952-1.721a4.945,4.945,0,0,0,2.92.937c1.69,0,2.428-.768,2.428-2.259v-.353a3.4,3.4,0,0,1-2.613,1.03,4,4,0,1,1,0-7.991,3.322,3.322,0,0,1,2.736,1.183v-1.06Zm-2.366,3.872a2.179,2.179,0,1,0-2.166,2.029A2.007,2.007,0,0,0,1436.686,1050.738Z" fill="#68695f"/>
          <path id="Path_3882" data-name="Path 3882" d="M1450.377,1048.249v6.884H1448.1v-.983a3.345,3.345,0,0,1-2.565,1.106c-2.076,0-3.535-1.168-3.535-3.719v-4.671h2.4v4.318c0,1.383.615,2,1.675,2,1.106,0,1.905-.706,1.905-2.228v-4.087h1.275a.9.9,0,0,0,.922-.968,1.485,1.485,0,0,0-.306-.922l1.413-.522a2.484,2.484,0,0,1,.492,1.536A2.25,2.25,0,0,1,1450.377,1048.249Zm-3.134,9.081a1.061,1.061,0,0,1-2.121,0,1.061,1.061,0,1,1,2.121,0Z" fill="#68695f"/>
          <path id="Path_3883" data-name="Path 3883" d="M1458.784,1050.4v-6.023h2.489v5.931c0,2.044.891,2.889,2.4,2.889,1.522,0,2.4-.845,2.4-2.889v-5.931h2.458v6.023c0,3.166-1.814,4.917-4.871,4.917S1458.784,1053.566,1458.784,1050.4Z" fill="#68695f"/>
          <path id="Path_3884" data-name="Path 3884" d="M1479.789,1046.866l-3.734,8.774c-.8,2-1.936,2.6-3.427,2.6a3.669,3.669,0,0,1-2.3-.753l.876-1.706a2.12,2.12,0,0,0,1.351.523c.661,0,1.03-.292,1.353-1.03l.03-.077-3.58-8.328h2.474l2.32,5.609,2.336-5.609Z" fill="#68695f"/>
          <path id="Path_3885" data-name="Path 3885" d="M1489.362,1051.676h-6.254a2.2,2.2,0,0,0,2.366,1.659,2.8,2.8,0,0,0,2.074-.8l1.276,1.383a4.33,4.33,0,0,1-3.411,1.337c-2.859,0-4.718-1.8-4.718-4.256a4.209,4.209,0,0,1,4.41-4.257,4.093,4.093,0,0,1,4.3,4.287C1489.408,1051.214,1489.376,1051.476,1489.362,1051.676Zm-5.624-5.87h-1.768l2.044-1.752h2.09l2.044,1.752h-1.768l-1.321-.876Zm-.661,4.471h4.072a2.065,2.065,0,0,0-4.072,0Zm3.5-7.129-.4-.738a2.37,2.37,0,0,1,1.275-.338c.861,0,1.414.476,1.414,1.214a1.52,1.52,0,0,1-1.076,1.337l-.584-.569c.415-.2.569-.445.569-.645,0-.277-.215-.446-.523-.446A1.352,1.352,0,0,0,1486.581,1043.148Z" fill="#68695f"/>
          <path id="Path_3886" data-name="Path 3886" d="M1500.226,1050.4v4.733h-2.4v-4.364c0-1.337-.615-1.952-1.675-1.952-1.153,0-1.983.708-1.983,2.229v4.087h-2.4v-8.267h2.289v.968a3.621,3.621,0,0,1,2.735-1.091C1498.75,1046.743,1500.226,1047.88,1500.226,1050.4Z" fill="#68695f"/>
          <path id="Path_3887" data-name="Path 3887" d="M1309.193,1067.641V1078.4H1306.7v-8.759h-2.152v-2Z" fill="#68695f"/>
          <path id="Path_3888" data-name="Path 3888" d="M1319.872,1076.368v2.029h-8.128v-1.614l4.149-3.918c.952-.906,1.121-1.46,1.121-1.982,0-.845-.584-1.337-1.721-1.337a2.632,2.632,0,0,0-2.228,1.076l-1.813-1.168a4.994,4.994,0,0,1,4.272-2c2.4,0,3.995,1.23,3.995,3.181,0,1.045-.292,2-1.8,3.4l-2.474,2.335Z" fill="#68695f"/>
          <path id="Path_3889" data-name="Path 3889" d="M1321.747,1077.014a1.491,1.491,0,0,1,2.981,0,1.491,1.491,0,1,1-2.981,0Z" fill="#68695f"/>
          <path id="Path_3890" data-name="Path 3890" d="M1332.412,1067.641h2.489v8.727h5.393v2.029h-7.882Z" fill="#68695f"/>
          <path id="Path_3891" data-name="Path 3891" d="M1349.7,1073.679v4.718h-2.243v-1.03a2.713,2.713,0,0,1-2.52,1.153c-1.937,0-3.089-1.076-3.089-2.505,0-1.46,1.029-2.474,3.55-2.474h1.905c0-1.03-.614-1.629-1.905-1.629a3.973,3.973,0,0,0-2.382.769l-.86-1.675a6.346,6.346,0,0,1,3.564-1C1348.239,1070.007,1349.7,1071.175,1349.7,1073.679Zm-5.055-4.61h-1.768l2.044-1.751h2.09l2.044,1.751h-1.767l-1.322-.875Zm2.658,6.715v-.844h-1.644c-1.121,0-1.475.414-1.475.967,0,.6.507,1,1.352,1A1.766,1.766,0,0,0,1347.3,1075.784Zm.185-9.373-.4-.737a2.36,2.36,0,0,1,1.276-.338c.86,0,1.413.476,1.413,1.214a1.518,1.518,0,0,1-1.075,1.336l-.584-.568c.415-.2.568-.446.568-.646,0-.276-.215-.445-.522-.445A1.361,1.361,0,0,0,1347.486,1066.411Z" fill="#68695f"/>
          <path id="Path_3892" data-name="Path 3892" d="M1360.961,1070.13v8.267h-2.274v-.984a3.345,3.345,0,0,1-2.565,1.107c-2.076,0-3.535-1.168-3.535-3.719v-4.671h2.4v4.318c0,1.383.615,2,1.675,2,1.106,0,1.9-.707,1.9-2.228v-4.087Z" fill="#68695f"/>
          <path id="Path_3893" data-name="Path 3893" d="M1379.108,1067.641V1078.4h-2.043l-5.363-6.531v6.531h-2.458v-10.756h2.058l5.348,6.53v-6.53Z" fill="#68695f"/>
          <path id="Path_3894" data-name="Path 3894" d="M1390.787,1070.13v6.884c0,3.073-1.66,4.487-4.64,4.487a6.812,6.812,0,0,1-4.057-1.138l.952-1.72a4.946,4.946,0,0,0,2.92.937c1.691,0,2.428-.768,2.428-2.259v-.354a3.4,3.4,0,0,1-2.612,1.03,4,4,0,1,1,0-7.99,3.318,3.318,0,0,1,2.735,1.183v-1.06ZM1388.42,1074a2.179,2.179,0,1,0-2.166,2.028A2.007,2.007,0,0,0,1388.42,1074Z" fill="#68695f"/>
          <path id="Path_3895" data-name="Path 3895" d="M1401.1,1073.679v4.718h-2.243v-1.03a2.712,2.712,0,0,1-2.52,1.153c-1.936,0-3.088-1.076-3.088-2.505,0-1.46,1.029-2.474,3.549-2.474h1.906c0-1.03-.616-1.629-1.906-1.629a3.968,3.968,0,0,0-2.381.769l-.861-1.675a6.348,6.348,0,0,1,3.565-1C1399.638,1070.007,1401.1,1071.175,1401.1,1073.679Zm-2.4,2.105v-.844h-1.645c-1.121,0-1.475.414-1.475.967,0,.6.507,1,1.352,1A1.767,1.767,0,0,0,1398.7,1075.784Z" fill="#68695f"/>
          <path id="Path_3896" data-name="Path 3896" d="M1412.485,1073.664v4.733h-2.4v-4.364c0-1.337-.614-1.952-1.674-1.952-1.153,0-1.983.707-1.983,2.228v4.088h-2.4v-8.267h2.289v.968a3.617,3.617,0,0,1,2.735-1.091C1411.009,1070.007,1412.485,1071.144,1412.485,1073.664Z" fill="#68695f"/>
          <path id="Path_3897" data-name="Path 3897" d="M1424.623,1074.171l-1.444,1.506v2.72h-2.473v-10.756h2.473v5.024l4.764-5.024h2.765l-4.456,4.794,4.718,5.962h-2.9Z" fill="#68695f"/>
          <path id="Path_3898" data-name="Path 3898" d="M1441.127,1073.664v4.733h-2.4v-4.364c0-1.337-.614-1.952-1.675-1.952-1.152,0-1.982.707-1.982,2.228v4.088h-2.4v-11.4h2.4v3.995a3.634,3.634,0,0,1,2.628-.983C1439.652,1070.007,1441.127,1071.144,1441.127,1073.664Z" fill="#68695f"/>
          <path id="Path_3899" data-name="Path 3899" d="M1452.622,1074.263a4.55,4.55,0,1,1-4.534-4.256A4.244,4.244,0,0,1,1452.622,1074.263Zm-5.9-5.194h-1.752l2.028-2.212h2.121l2.028,2.212h-1.752l-1.337-1.167Zm3.472,5.194a2.119,2.119,0,1,0-2.1,2.29A2.086,2.086,0,0,0,1450.193,1074.263Z" fill="#68695f"/>
          <path id="Path_3900" data-name="Path 3900" d="M1462.5,1069.669h-3.441v-2.028h9.373v2.028h-3.442v8.728h-2.49Z" fill="#68695f"/>
          <path id="Path_3901" data-name="Path 3901" d="M1475.317,1070.007v2.213c-.2-.016-.354-.031-.538-.031a2.031,2.031,0,0,0-2.2,2.305v3.9h-2.4v-8.267h2.289v1.091A3.336,3.336,0,0,1,1475.317,1070.007Z" fill="#68695f"/>
          <path id="Path_3902" data-name="Path 3902" d="M1485.905,1070.13v8.267h-2.275v-.984a3.344,3.344,0,0,1-2.565,1.107c-2.075,0-3.534-1.168-3.534-3.719v-4.671h2.4v4.318c0,1.383.615,2,1.675,2,1.106,0,1.9-.707,1.9-2.228v-4.087Zm-4.671-1.061-2.781-2.212h2.581l2.074,2.212Z" fill="#68695f"/>
          <path id="Path_3903" data-name="Path 3903" d="M1497.352,1073.664v4.733h-2.4v-4.364c0-1.337-.615-1.952-1.675-1.952-1.153,0-1.983.707-1.983,2.228v4.088h-2.4v-8.267h2.289v.968a3.617,3.617,0,0,1,2.735-1.091C1495.876,1070.007,1497.352,1071.144,1497.352,1073.664Z" fill="#68695f"/>
          <path id="Path_3904" data-name="Path 3904" d="M1508.907,1070.13v6.884c0,3.073-1.66,4.487-4.64,4.487a6.812,6.812,0,0,1-4.057-1.138l.953-1.72a4.943,4.943,0,0,0,2.919.937c1.691,0,2.428-.768,2.428-2.259v-.354a3.4,3.4,0,0,1-2.612,1.03,4,4,0,1,1,0-7.99,3.319,3.319,0,0,1,2.735,1.183v-1.06ZM1506.54,1074a2.179,2.179,0,1,0-2.166,2.028A2.007,2.007,0,0,0,1506.54,1074Z" fill="#68695f"/>
          <path id="Path_3905" data-name="Path 3905" d="M1521.109,1074.171l-1.445,1.506v2.72h-2.473v-10.756h2.473v5.024l4.764-5.024h2.766l-4.456,4.794,4.718,5.962h-2.905Z" fill="#68695f"/>
          <path id="Path_3906" data-name="Path 3906" d="M1537.612,1073.664v4.733h-2.4v-4.364c0-1.337-.614-1.952-1.675-1.952-1.152,0-1.982.707-1.982,2.228v4.088h-2.4v-11.4h2.4v3.995a3.636,3.636,0,0,1,2.628-.983C1536.136,1070.007,1537.612,1071.144,1537.612,1073.664Z" fill="#68695f"/>
          <path id="Path_3907" data-name="Path 3907" d="M1547.861,1073.679v4.718h-2.243v-1.03a2.714,2.714,0,0,1-2.52,1.153c-1.936,0-3.089-1.076-3.089-2.505,0-1.46,1.03-2.474,3.55-2.474h1.905c0-1.03-.615-1.629-1.905-1.629a3.973,3.973,0,0,0-2.382.769l-.86-1.675a6.347,6.347,0,0,1,3.564-1C1546.4,1070.007,1547.861,1071.175,1547.861,1073.679Zm-2.4,2.105v-.844h-1.644c-1.121,0-1.475.414-1.475.967,0,.6.507,1,1.352,1A1.765,1.765,0,0,0,1545.464,1075.784Zm-.86-6.715h-1.875l2.074-2.212h2.582Z" fill="#68695f"/>
          <path id="Path_3908" data-name="Path 3908" d="M1559.247,1073.664v4.733h-2.4v-4.364c0-1.337-.614-1.952-1.675-1.952-1.152,0-1.982.707-1.982,2.228v4.088h-2.4v-8.267h2.289v.968a3.621,3.621,0,0,1,2.736-1.091C1557.772,1070.007,1559.247,1071.144,1559.247,1073.664Z" fill="#68695f"/>
          <path id="Path_3909" data-name="Path 3909" d="M1570.634,1073.664v4.733h-2.4v-4.364c0-1.337-.615-1.952-1.675-1.952-1.152,0-1.982.707-1.982,2.228v4.088h-2.4v-11.4h2.4v3.995a3.633,3.633,0,0,1,2.627-.983C1569.159,1070.007,1570.634,1071.144,1570.634,1073.664Z" fill="#68695f"/>
          <path id="Path_3910" data-name="Path 3910" d="M1309.193,1090.9v10.756H1306.7V1092.9h-2.152v-2Z" fill="#68695f"/>
          <path id="Path_3911" data-name="Path 3911" d="M1319.78,1098.372c0,1.813-1.4,3.473-4.456,3.473a7.393,7.393,0,0,1-4.1-1.153l.969-1.905a5.223,5.223,0,0,0,3.072.968c1.245,0,2.014-.507,2.014-1.383,0-.814-.6-1.322-2.014-1.322h-1.137v-1.644l2.213-2.5h-4.579v-2h7.53v1.614l-2.428,2.765A3.057,3.057,0,0,1,1319.78,1098.372Z" fill="#68695f"/>
          <path id="Path_3912" data-name="Path 3912" d="M1321.624,1100.277a1.491,1.491,0,0,1,2.981,0,1.491,1.491,0,1,1-2.981,0Z" fill="#68695f"/>
          <path id="Path_3913" data-name="Path 3913" d="M1332.289,1090.9h2.489v8.728h5.393v2.028h-7.882Z" fill="#68695f"/>
          <path id="Path_3914" data-name="Path 3914" d="M1349.575,1096.943v4.717h-2.244v-1.029a2.71,2.71,0,0,1-2.519,1.152c-1.937,0-3.089-1.075-3.089-2.505,0-1.459,1.029-2.473,3.55-2.473h1.905c0-1.03-.614-1.629-1.905-1.629a3.979,3.979,0,0,0-2.382.768l-.86-1.674a6.347,6.347,0,0,1,3.564-1C1348.116,1093.271,1349.575,1094.439,1349.575,1096.943Zm-5.055-4.61h-1.768l2.044-1.751h2.09l2.044,1.751h-1.767l-1.322-.875Zm2.658,6.715v-.845h-1.644c-1.121,0-1.475.415-1.475.968,0,.6.507,1,1.352,1A1.766,1.766,0,0,0,1347.178,1099.048Zm.185-9.373-.4-.737a2.36,2.36,0,0,1,1.276-.338c.86,0,1.413.476,1.413,1.214a1.518,1.518,0,0,1-1.075,1.336l-.584-.568c.415-.2.568-.446.568-.646,0-.276-.215-.445-.522-.445A1.351,1.351,0,0,0,1347.363,1089.675Z" fill="#68695f"/>
          <path id="Path_3915" data-name="Path 3915" d="M1360.838,1093.394v8.266h-2.274v-.983a3.345,3.345,0,0,1-2.566,1.106c-2.075,0-3.534-1.168-3.534-3.718v-4.671h2.4v4.318c0,1.382.615,2,1.675,2,1.106,0,1.905-.707,1.905-2.228v-4.087Z" fill="#68695f"/>
          <path id="Path_3916" data-name="Path 3916" d="M1375.973,1101.66l-2.074-3h-2.289v3h-2.489V1090.9h4.655c2.874,0,4.672,1.491,4.672,3.9a3.5,3.5,0,0,1-2.213,3.4l2.412,3.457Zm-2.335-8.727h-2.028v3.749h2.028c1.522,0,2.289-.707,2.289-1.875C1375.927,1093.624,1375.16,1092.933,1373.638,1092.933Z" fill="#68695f"/>
          <path id="Path_3917" data-name="Path 3917" d="M1380.722,1090.9a1.37,1.37,0,0,1,1.49-1.337,1.346,1.346,0,0,1,1.491,1.291,1.5,1.5,0,0,1-2.981.046Zm.292,2.49h2.4v8.266h-2.4Z" fill="#68695f"/>
          <path id="Path_3918" data-name="Path 3918" d="M1394.459,1098.2h-6.253a2.2,2.2,0,0,0,2.366,1.659,2.8,2.8,0,0,0,2.074-.8l1.275,1.382a4.329,4.329,0,0,1-3.411,1.337c-2.858,0-4.718-1.8-4.718-4.256a4.209,4.209,0,0,1,4.411-4.256,4.093,4.093,0,0,1,4.3,4.287C1394.505,1097.742,1394.474,1098,1394.459,1098.2Zm-5.639-5.87h-1.752l2.028-2.212h2.121l2.029,2.212h-1.752l-1.337-1.167Zm-.646,4.472h4.073a2.065,2.065,0,0,0-4.073,0Z" fill="#68695f"/>
          <path id="Path_3919" data-name="Path 3919" d="M1405.2,1093.394v8.266h-2.275v-.983a3.344,3.344,0,0,1-2.565,1.106c-2.075,0-3.534-1.168-3.534-3.718v-4.671h2.4v4.318c0,1.382.615,2,1.675,2,1.106,0,1.905-.707,1.905-2.228v-4.087Z" fill="#68695f"/>
          <path id="Path_3920" data-name="Path 3920" d="M1423.347,1090.9v10.756H1421.3l-5.363-6.53v6.53h-2.458V1090.9h2.058l5.348,6.531V1090.9Z" fill="#68695f"/>
          <path id="Path_3921" data-name="Path 3921" d="M1435.026,1093.394v6.883c0,3.074-1.659,4.487-4.64,4.487a6.806,6.806,0,0,1-4.056-1.137l.952-1.721a4.938,4.938,0,0,0,2.92.937c1.69,0,2.427-.768,2.427-2.258v-.354a3.4,3.4,0,0,1-2.612,1.03,4,4,0,1,1,0-7.99,3.319,3.319,0,0,1,2.735,1.183v-1.06Zm-2.366,3.872a2.179,2.179,0,1,0-2.166,2.028A2.008,2.008,0,0,0,1432.66,1097.266Z" fill="#68695f"/>
          <path id="Path_3922" data-name="Path 3922" d="M1445.337,1096.943v4.717h-2.243v-1.029a2.71,2.71,0,0,1-2.519,1.152c-1.937,0-3.089-1.075-3.089-2.505,0-1.459,1.029-2.473,3.55-2.473h1.905c0-1.03-.615-1.629-1.905-1.629a3.977,3.977,0,0,0-2.382.768l-.861-1.674a6.352,6.352,0,0,1,3.565-1C1443.878,1093.271,1445.337,1094.439,1445.337,1096.943Zm-2.4,2.1v-.845H1441.3c-1.121,0-1.474.415-1.474.968,0,.6.507,1,1.351,1A1.767,1.767,0,0,0,1442.941,1099.048Z" fill="#68695f"/>
          <path id="Path_3923" data-name="Path 3923" d="M1456.724,1096.928v4.732h-2.4V1097.3c0-1.336-.615-1.951-1.675-1.951-1.153,0-1.983.707-1.983,2.228v4.087h-2.4v-8.266h2.289v.967a3.621,3.621,0,0,1,2.735-1.09C1455.248,1093.271,1456.724,1094.408,1456.724,1096.928Z" fill="#68695f"/>
          <path id="Path_3924" data-name="Path 3924" d="M1474.809,1098.725c0,1.86-1.475,2.935-4.3,2.935h-5.562V1090.9h5.255c2.689,0,4.072,1.122,4.072,2.8a2.586,2.586,0,0,1-1.43,2.366A2.656,2.656,0,0,1,1474.809,1098.725Zm-7.391-5.946v2.535h2.474c1.214,0,1.875-.43,1.875-1.275s-.661-1.26-1.875-1.26Zm4.887,5.685c0-.906-.691-1.336-1.982-1.336h-2.905v2.658h2.905C1471.614,1099.786,1472.305,1099.386,1472.305,1098.464Z" fill="#68695f"/>
          <path id="Path_3925" data-name="Path 3925" d="M1484.613,1096.943v4.717h-2.243v-1.029a2.713,2.713,0,0,1-2.52,1.152c-1.936,0-3.089-1.075-3.089-2.505,0-1.459,1.029-2.473,3.55-2.473h1.9c0-1.03-.615-1.629-1.9-1.629a3.98,3.98,0,0,0-2.382.768l-.86-1.674a6.347,6.347,0,0,1,3.564-1C1483.154,1093.271,1484.613,1094.439,1484.613,1096.943Zm-6.561-6.361h1.445c.061.43.614.722,1.382.722s1.322-.292,1.383-.722h1.444c-.107,1.152-1.244,1.874-2.827,1.874S1478.16,1091.734,1478.052,1090.582Zm4.164,8.466v-.845h-1.644c-1.121,0-1.475.415-1.475.968,0,.6.507,1,1.352,1A1.766,1.766,0,0,0,1482.216,1099.048Zm-.922-8.927h-1.736l1.7-1.86h2.443Z" fill="#68695f"/>
          <path id="Path_3926" data-name="Path 3926" d="M1496.553,1097.527a4.015,4.015,0,0,1-4.118,4.256,3.207,3.207,0,0,1-2.489-1v3.857h-2.4v-11.247h2.289v.952a3.215,3.215,0,0,1,2.6-1.075A4.015,4.015,0,0,1,1496.553,1097.527Zm-2.428,0a2.112,2.112,0,1,0-2.1,2.29A2.086,2.086,0,0,0,1494.125,1097.527Z" fill="#68695f"/>
          <path id="Path_3927" data-name="Path 3927" d="M1514.07,1098.725c0,1.86-1.475,2.935-4.3,2.935h-5.562V1090.9h5.254c2.69,0,4.073,1.122,4.073,2.8a2.586,2.586,0,0,1-1.43,2.366A2.656,2.656,0,0,1,1514.07,1098.725Zm-7.391-5.946v2.535h2.474c1.214,0,1.875-.43,1.875-1.275s-.661-1.26-1.875-1.26Zm4.887,5.685c0-.906-.692-1.336-1.983-1.336h-2.9v2.658h2.9C1510.874,1099.786,1511.566,1099.386,1511.566,1098.464Z" fill="#68695f"/>
          <path id="Path_3928" data-name="Path 3928" d="M1515.945,1097.527a4.551,4.551,0,1,1,4.549,4.256A4.256,4.256,0,0,1,1515.945,1097.527Zm1.261-7.406h2.581l2.074,2.212h-1.874Zm5.392,7.406a2.119,2.119,0,1,0-2.1,2.29A2.086,2.086,0,0,0,1522.6,1097.527Z" fill="#68695f"/>
        </g>
      </g>
      <g id="Group_357" data-name="Group 357">
        <g id="Group_356" data-name="Group 356">
          <path id="Path_3929" data-name="Path 3929" d="M1731.957,1028.581c0,1.813-1.4,3.472-4.456,3.472a7.392,7.392,0,0,1-4.1-1.153l.969-1.905a5.216,5.216,0,0,0,3.072.968c1.245,0,2.014-.507,2.014-1.382,0-.815-.6-1.322-2.014-1.322H1726.3v-1.644l2.213-2.505h-4.579v-2h7.529v1.613l-2.427,2.766A3.055,3.055,0,0,1,1731.957,1028.581Z" fill="#e72024"/>
          <path id="Path_3930" data-name="Path 3930" d="M1742.883,1028.75c0,2.028-1.813,3.3-4.548,3.3-2.719,0-4.517-1.275-4.517-3.3a2.732,2.732,0,0,1,1.629-2.536A2.481,2.481,0,0,1,1734.2,1024c0-1.891,1.69-3.074,4.133-3.074,2.474,0,4.164,1.183,4.164,3.074a2.494,2.494,0,0,1-1.26,2.212A2.724,2.724,0,0,1,1742.883,1028.75Zm-2.519-.077c0-.953-.784-1.537-2.029-1.537-1.229,0-2,.584-2,1.537s.769,1.552,2,1.552C1739.58,1030.225,1740.364,1029.626,1740.364,1028.673Zm-3.689-4.564c0,.814.646,1.322,1.66,1.322,1.03,0,1.69-.508,1.69-1.322,0-.845-.676-1.352-1.69-1.352C1737.336,1022.757,1736.675,1023.264,1736.675,1024.109Z" fill="#e72024"/>
          <path id="Path_3931" data-name="Path 3931" d="M1752.917,1028.488c0,1.906-1.4,3.565-4.471,3.565a7.432,7.432,0,0,1-4.1-1.153l.984-1.905a5.172,5.172,0,0,0,3.057.968c1.245,0,2.014-.522,2.014-1.4,0-.845-.554-1.4-2.505-1.4h-2.75l.553-6.054h6.561v2h-4.487l-.169,2.044h.876C1751.658,1025.154,1752.917,1026.583,1752.917,1028.488Z" fill="#e72024"/>
          <path id="Path_3932" data-name="Path 3932" d="M1754.622,1030.486a1.491,1.491,0,0,1,2.981,0,1.491,1.491,0,1,1-2.981,0Z" fill="#e72024"/>
          <path id="Path_3933" data-name="Path 3933" d="M1759.3,1026.491c0-3.549,1.967-5.563,4.61-5.563s4.609,2.014,4.609,5.563-1.951,5.562-4.609,5.562S1759.3,1030.04,1759.3,1026.491Zm6.715,0c0-2.444-.861-3.458-2.1-3.458s-2.09,1.014-2.09,3.458.86,3.457,2.09,3.457S1766.01,1028.934,1766.01,1026.491Z" fill="#e72024"/>
          <path id="Path_3934" data-name="Path 3934" d="M1770.5,1026.491c0-3.549,1.967-5.563,4.61-5.563s4.609,2.014,4.609,5.563-1.951,5.562-4.609,5.562S1770.5,1030.04,1770.5,1026.491Zm6.715,0c0-2.444-.861-3.458-2.1-3.458s-2.09,1.014-2.09,3.458.86,3.457,2.09,3.457S1777.212,1028.934,1777.212,1026.491Z" fill="#e72024"/>
          <path id="Path_3935" data-name="Path 3935" d="M1781.7,1026.491c0-3.549,1.966-5.563,4.609-5.563,2.658,0,4.609,2.014,4.609,5.563s-1.951,5.562-4.609,5.562C1783.666,1032.053,1781.7,1030.04,1781.7,1026.491Zm6.714,0c0-2.444-.861-3.458-2.1-3.458-1.229,0-2.09,1.014-2.09,3.458s.861,3.457,2.09,3.457C1787.553,1029.948,1788.414,1028.934,1788.414,1026.491Z" fill="#e72024"/>
          <path id="Path_3936" data-name="Path 3936" d="M1802.95,1022.757h-1.122v9.112h-2.289v-.953a3.183,3.183,0,0,1-2.582,1.076,4.258,4.258,0,0,1,0-8.513,3.178,3.178,0,0,1,2.474,1v-1.721h-2.812v-1.383h2.812v-.907h2.4v.907h1.122Zm-3.473,4.978a2.12,2.12,0,1,0-2.105,2.29A2.094,2.094,0,0,0,1799.477,1027.735Z" fill="#e72024"/>
          <path id="Path_3937" data-name="Path 3937" d="M1731.957,1051.845c0,1.813-1.4,3.472-4.456,3.472a7.4,7.4,0,0,1-4.1-1.152l.969-1.906a5.217,5.217,0,0,0,3.072.969c1.245,0,2.014-.508,2.014-1.383,0-.815-.6-1.322-2.014-1.322H1726.3v-1.644l2.213-2.5h-4.579v-2h7.529v1.613l-2.427,2.766A3.056,3.056,0,0,1,1731.957,1051.845Z" fill="#e72024"/>
          <path id="Path_3938" data-name="Path 3938" d="M1742.883,1052.014c0,2.028-1.813,3.3-4.548,3.3-2.719,0-4.517-1.275-4.517-3.3a2.731,2.731,0,0,1,1.629-2.535,2.485,2.485,0,0,1-1.245-2.213c0-1.89,1.69-3.074,4.133-3.074,2.474,0,4.164,1.184,4.164,3.074a2.5,2.5,0,0,1-1.26,2.213A2.723,2.723,0,0,1,1742.883,1052.014Zm-2.519-.077c0-.953-.784-1.537-2.029-1.537-1.229,0-2,.584-2,1.537s.769,1.552,2,1.552C1739.58,1053.489,1740.364,1052.89,1740.364,1051.937Zm-3.689-4.564c0,.815.646,1.322,1.66,1.322,1.03,0,1.69-.507,1.69-1.322,0-.845-.676-1.352-1.69-1.352C1737.336,1046.021,1736.675,1046.528,1736.675,1047.373Z" fill="#e72024"/>
          <path id="Path_3939" data-name="Path 3939" d="M1752.917,1051.753c0,1.9-1.4,3.564-4.471,3.564a7.44,7.44,0,0,1-4.1-1.152l.984-1.906a5.173,5.173,0,0,0,3.057.969c1.245,0,2.014-.523,2.014-1.4,0-.845-.554-1.4-2.505-1.4h-2.75l.553-6.054h6.561v2h-4.487l-.169,2.043h.876C1751.658,1048.418,1752.917,1049.847,1752.917,1051.753Z" fill="#e72024"/>
          <path id="Path_3940" data-name="Path 3940" d="M1754.622,1053.75a1.491,1.491,0,0,1,2.981,0,1.491,1.491,0,1,1-2.981,0Z" fill="#e72024"/>
          <path id="Path_3941" data-name="Path 3941" d="M1759.3,1049.755c0-3.549,1.967-5.563,4.61-5.563s4.609,2.014,4.609,5.563-1.951,5.562-4.609,5.562S1759.3,1053.3,1759.3,1049.755Zm6.715,0c0-2.443-.861-3.458-2.1-3.458s-2.09,1.015-2.09,3.458.86,3.457,2.09,3.457S1766.01,1052.2,1766.01,1049.755Z" fill="#e72024"/>
          <path id="Path_3942" data-name="Path 3942" d="M1770.5,1049.755c0-3.549,1.967-5.563,4.61-5.563s4.609,2.014,4.609,5.563-1.951,5.562-4.609,5.562S1770.5,1053.3,1770.5,1049.755Zm6.715,0c0-2.443-.861-3.458-2.1-3.458s-2.09,1.015-2.09,3.458.86,3.457,2.09,3.457S1777.212,1052.2,1777.212,1049.755Z" fill="#e72024"/>
          <path id="Path_3943" data-name="Path 3943" d="M1781.7,1049.755c0-3.549,1.966-5.563,4.609-5.563,2.658,0,4.609,2.014,4.609,5.563s-1.951,5.562-4.609,5.562C1783.666,1055.317,1781.7,1053.3,1781.7,1049.755Zm6.714,0c0-2.443-.861-3.458-2.1-3.458-1.229,0-2.09,1.015-2.09,3.458s.861,3.457,2.09,3.457C1787.553,1053.212,1788.414,1052.2,1788.414,1049.755Z" fill="#e72024"/>
          <path id="Path_3944" data-name="Path 3944" d="M1802.95,1046.021h-1.122v9.112h-2.289v-.953a3.183,3.183,0,0,1-2.582,1.076,4.258,4.258,0,0,1,0-8.513,3.178,3.178,0,0,1,2.474,1v-1.721h-2.812v-1.383h2.812v-.906h2.4v.906h1.122Zm-3.473,4.979a2.12,2.12,0,1,0-2.105,2.289A2.094,2.094,0,0,0,1799.477,1051Z" fill="#e72024"/>
          <path id="Path_3945" data-name="Path 3945" d="M1731.957,1075.109c0,1.812-1.4,3.472-4.456,3.472a7.391,7.391,0,0,1-4.1-1.153l.969-1.905a5.216,5.216,0,0,0,3.072.968c1.245,0,2.014-.507,2.014-1.382,0-.815-.6-1.322-2.014-1.322H1726.3v-1.644l2.213-2.505h-4.579v-2h7.529v1.613l-2.427,2.766A3.054,3.054,0,0,1,1731.957,1075.109Z" fill="#e72024"/>
          <path id="Path_3946" data-name="Path 3946" d="M1742.883,1075.277c0,2.029-1.813,3.3-4.548,3.3-2.719,0-4.517-1.275-4.517-3.3a2.732,2.732,0,0,1,1.629-2.535,2.482,2.482,0,0,1-1.245-2.213c0-1.89,1.69-3.073,4.133-3.073,2.474,0,4.164,1.183,4.164,3.073a2.5,2.5,0,0,1-1.26,2.213A2.724,2.724,0,0,1,1742.883,1075.277Zm-2.519-.077c0-.952-.784-1.536-2.029-1.536-1.229,0-2,.584-2,1.536s.769,1.553,2,1.553C1739.58,1076.753,1740.364,1076.153,1740.364,1075.2Zm-3.689-4.563c0,.814.646,1.322,1.66,1.322,1.03,0,1.69-.508,1.69-1.322,0-.845-.676-1.352-1.69-1.352C1737.336,1069.285,1736.675,1069.792,1736.675,1070.637Z" fill="#e72024"/>
          <path id="Path_3947" data-name="Path 3947" d="M1752.917,1075.016c0,1.905-1.4,3.565-4.471,3.565a7.431,7.431,0,0,1-4.1-1.153l.984-1.905a5.172,5.172,0,0,0,3.057.968c1.245,0,2.014-.522,2.014-1.4,0-.845-.554-1.4-2.505-1.4h-2.75l.553-6.054h6.561v2h-4.487l-.169,2.044h.876C1751.658,1071.682,1752.917,1073.111,1752.917,1075.016Z" fill="#e72024"/>
          <path id="Path_3948" data-name="Path 3948" d="M1754.622,1077.014a1.491,1.491,0,0,1,2.981,0,1.491,1.491,0,1,1-2.981,0Z" fill="#e72024"/>
          <path id="Path_3949" data-name="Path 3949" d="M1759.3,1073.019c0-3.55,1.967-5.563,4.61-5.563s4.609,2.013,4.609,5.563-1.951,5.562-4.609,5.562S1759.3,1076.568,1759.3,1073.019Zm6.715,0c0-2.444-.861-3.458-2.1-3.458s-2.09,1.014-2.09,3.458.86,3.457,2.09,3.457S1766.01,1075.462,1766.01,1073.019Z" fill="#e72024"/>
          <path id="Path_3950" data-name="Path 3950" d="M1770.5,1073.019c0-3.55,1.967-5.563,4.61-5.563s4.609,2.013,4.609,5.563-1.951,5.562-4.609,5.562S1770.5,1076.568,1770.5,1073.019Zm6.715,0c0-2.444-.861-3.458-2.1-3.458s-2.09,1.014-2.09,3.458.86,3.457,2.09,3.457S1777.212,1075.462,1777.212,1073.019Z" fill="#e72024"/>
          <path id="Path_3951" data-name="Path 3951" d="M1781.7,1073.019c0-3.55,1.966-5.563,4.609-5.563,2.658,0,4.609,2.013,4.609,5.563s-1.951,5.562-4.609,5.562C1783.666,1078.581,1781.7,1076.568,1781.7,1073.019Zm6.714,0c0-2.444-.861-3.458-2.1-3.458-1.229,0-2.09,1.014-2.09,3.458s.861,3.457,2.09,3.457C1787.553,1076.476,1788.414,1075.462,1788.414,1073.019Z" fill="#e72024"/>
          <path id="Path_3952" data-name="Path 3952" d="M1802.95,1069.285h-1.122v9.112h-2.289v-.953a3.183,3.183,0,0,1-2.582,1.076,4.258,4.258,0,0,1,0-8.513,3.178,3.178,0,0,1,2.474,1v-1.721h-2.812V1067.9h2.812v-.907h2.4v.907h1.122Zm-3.473,4.978a2.12,2.12,0,1,0-2.105,2.29A2.094,2.094,0,0,0,1799.477,1074.263Z" fill="#e72024"/>
          <path id="Path_3953" data-name="Path 3953" d="M1732.31,1098.372c0,1.813-1.4,3.473-4.456,3.473a7.393,7.393,0,0,1-4.1-1.153l.969-1.905a5.226,5.226,0,0,0,3.072.968c1.246,0,2.014-.507,2.014-1.383,0-.814-.6-1.322-2.014-1.322h-1.136v-1.644l2.213-2.5h-4.58v-2h7.53v1.614l-2.428,2.765A3.056,3.056,0,0,1,1732.31,1098.372Z" fill="#e72024"/>
          <path id="Path_3954" data-name="Path 3954" d="M1742.821,1096.052c0,3.718-2.228,5.793-5.486,5.793a5.741,5.741,0,0,1-2.98-.738l.922-1.829a3.472,3.472,0,0,0,2.012.539c1.783,0,2.951-1.061,3.027-3.135a3.675,3.675,0,0,1-2.673.968,3.412,3.412,0,0,1-3.7-3.35c0-2.2,1.8-3.58,4.071-3.58C1740.993,1090.72,1742.821,1092.579,1742.821,1096.052Zm-2.782-1.875c0-.922-.691-1.6-1.874-1.6a1.618,1.618,0,1,0,.031,3.212A1.668,1.668,0,0,0,1740.039,1094.177Z" fill="#e72024"/>
          <path id="Path_3955" data-name="Path 3955" d="M1752.916,1098.28c0,1.905-1.4,3.565-4.471,3.565a7.431,7.431,0,0,1-4.1-1.153l.984-1.905a5.179,5.179,0,0,0,3.057.968c1.245,0,2.014-.522,2.014-1.4,0-.846-.554-1.4-2.505-1.4h-2.75l.553-6.055h6.561v2h-4.487l-.169,2.043h.876C1751.657,1094.945,1752.916,1096.375,1752.916,1098.28Z" fill="#e72024"/>
          <path id="Path_3956" data-name="Path 3956" d="M1754.622,1100.277a1.49,1.49,0,0,1,2.98,0,1.49,1.49,0,1,1-2.98,0Z" fill="#e72024"/>
          <path id="Path_3957" data-name="Path 3957" d="M1759.294,1096.282c0-3.549,1.967-5.562,4.61-5.562s4.609,2.013,4.609,5.562-1.951,5.563-4.609,5.563S1759.294,1099.832,1759.294,1096.282Zm6.715,0c0-2.443-.861-3.457-2.1-3.457s-2.09,1.014-2.09,3.457.86,3.457,2.09,3.457S1766.009,1098.725,1766.009,1096.282Z" fill="#e72024"/>
          <path id="Path_3958" data-name="Path 3958" d="M1770.5,1096.282c0-3.549,1.966-5.562,4.609-5.562,2.658,0,4.609,2.013,4.609,5.562s-1.951,5.563-4.609,5.563C1772.463,1101.845,1770.5,1099.832,1770.5,1096.282Zm6.714,0c0-2.443-.861-3.457-2.105-3.457s-2.09,1.014-2.09,3.457.86,3.457,2.09,3.457S1777.211,1098.725,1777.211,1096.282Z" fill="#e72024"/>
          <path id="Path_3959" data-name="Path 3959" d="M1781.7,1096.282c0-3.549,1.966-5.562,4.609-5.562,2.658,0,4.609,2.013,4.609,5.562s-1.951,5.563-4.609,5.563C1783.665,1101.845,1781.7,1099.832,1781.7,1096.282Zm6.715,0c0-2.443-.862-3.457-2.106-3.457-1.229,0-2.09,1.014-2.09,3.457s.861,3.457,2.09,3.457C1787.552,1099.739,1788.414,1098.725,1788.414,1096.282Z" fill="#e72024"/>
          <path id="Path_3960" data-name="Path 3960" d="M1802.949,1092.548h-1.122v9.112h-2.289v-.952a3.182,3.182,0,0,1-2.582,1.075,4.258,4.258,0,0,1,0-8.512,3.173,3.173,0,0,1,2.474,1v-1.722h-2.812v-1.382h2.812v-.907h2.4v.907h1.122Zm-3.473,4.979a2.12,2.12,0,1,0-2.1,2.29A2.095,2.095,0,0,0,1799.476,1097.527Z" fill="#e72024"/>
        </g>
      </g>
      <g id="Group_436" data-name="Group 436">
        <path id="Path_4295" data-name="Path 4295" d="M1594.989,1061.032l3.418-.75c2.521-.555,4.316.433,4.773,2.522.635,2.883-1.019,5.215-4.041,5.879l-3.99.877Zm3.867,6.087a3.008,3.008,0,0,0,2.435-3.789c-.267-1.214-1.212-1.789-2.753-1.45l-1.624.356.1,5.287Z" fill="#e72024"/>
        <path id="Path_4296" data-name="Path 4296" d="M1611.448,1059.4l.129,6.553-1.727.379-.021-.7a3,3,0,0,1-1.873,1.217,2.072,2.072,0,0,1-2.721-1.639,3.785,3.785,0,0,1-.084-.777l-.076-3.63,1.82-.4.074,3.507a2.13,2.13,0,0,0,.053.465.926.926,0,0,0,1.266.75,1.762,1.762,0,0,0,1.4-1.995l-.059-3.327Z" fill="#e72024"/>
        <path id="Path_4297" data-name="Path 4297" d="M1619.952,1057.53l-2.705,7.616c-.6,1.685-1.245,2.3-2.446,2.567a2.746,2.746,0,0,1-1.824-.173l.553-1.493a1.516,1.516,0,0,0,1.088.166c.478-.1.734-.394.963-1.019l.035-.118-2.828-5.972,1.82-.4,1.871,4.066,1.676-4.846Z" fill="#e72024"/>
        <path id="Path_4298" data-name="Path 4298" d="M1631.555,1057.122a3.654,3.654,0,0,1,.084.776l.065,3.632-1.821.4-.062-3.509a2.049,2.049,0,0,0-.047-.442.95.95,0,0,0-1.3-.768,1.777,1.777,0,0,0-1.43,2l.069,3.324-1.823.4-.129-6.553,1.727-.379.008.708a3.063,3.063,0,0,1,1.9-1.224A2.084,2.084,0,0,1,1631.555,1057.122Z" fill="#e72024"/>
        <path id="Path_4299" data-name="Path 4299" d="M1640.2,1055.234a3.478,3.478,0,0,1,.082.765l.064,3.631-1.82.4-.063-3.509a2,2,0,0,0-.047-.442.951.951,0,0,0-1.3-.769,1.779,1.779,0,0,0-1.431,2l.07,3.324-1.822.4-.174-9.038,1.822-.4.065,3.081a3.047,3.047,0,0,1,1.791-1.091A2.094,2.094,0,0,1,1640.2,1055.234Z" fill="#e72024"/>
        <path id="Path_4300" data-name="Path 4300" d="M1647.081,1051.571l1.818-.4.131,6.552-1.727.38-.019-.644a2.858,2.858,0,0,1-1.77,1.134,2.706,2.706,0,0,1-3.324-2.217,3.573,3.573,0,0,1,2.664-4.414,2.3,2.3,0,0,1,2.25.5Zm-2.313-.336-1.365.3,1.459-1.715,1.574-.346,1.658,1.03-1.32.29-1.045-.468Zm2.367,3.26a1.33,1.33,0,0,0-1.74-1.074,1.927,1.927,0,0,0-1.391,2.471,1.332,1.332,0,0,0,1.743,1.072A1.923,1.923,0,0,0,1647.135,1054.495Zm1.1-5.2-1.365.3,1.134-1.728,1.9-.418Z" fill="#e72024"/>
        <path id="Path_4301" data-name="Path 4301" d="M1653.28,1054.465a1.054,1.054,0,0,0,.033.262c.086.386.344.562.8.461a1.5,1.5,0,0,0,.687-.383l.551,1.237a3.062,3.062,0,0,1-1.48.716,1.782,1.782,0,0,1-2.346-1.32,3.032,3.032,0,0,1-.061-.56l-.054-2.643-.969.213-.027-1.462.968-.213-.033-1.6,1.82-.4.034,1.6,1.562-.343.029,1.461-1.564.344Z" fill="#e72024"/>
        <path id="Path_4302" data-name="Path 4302" d="M1660.112,1052.439a3.709,3.709,0,0,1,3.025-4.493,2.98,2.98,0,0,1,3.172.967l-1.371,1.108a1.467,1.467,0,0,0-1.588-.544,1.937,1.937,0,0,0-1.414,2.463,1.347,1.347,0,0,0,1.766,1.08,1.772,1.772,0,0,0,1.355-1.178l1.527.545a3.544,3.544,0,0,1-2.658,2.161C1661.977,1054.977,1660.483,1054.131,1660.112,1052.439Z" fill="#606060"/>
        <path id="Path_4303" data-name="Path 4303" d="M1667.51,1050.814a3.7,3.7,0,0,1,2.99-4.485c1.926-.424,3.405.414,3.78,2.117a3.692,3.692,0,0,1-2.991,4.485C1669.375,1053.352,1667.881,1052.506,1667.51,1050.814Zm4.944-1.881a1.323,1.323,0,0,0-1.729-1.076,1.926,1.926,0,0,0-1.391,2.471,1.333,1.333,0,0,0,1.743,1.072A1.922,1.922,0,0,0,1672.454,1048.933Zm-1.372-5.24,2.008-.441-1.918,2.182-1.47.323Z" fill="#606060"/>
        <path id="Path_4304" data-name="Path 4304" d="M1682.077,1048.14a1.06,1.06,0,0,0,.033.262c.084.385.344.561.8.461a1.5,1.5,0,0,0,.685-.383l.553,1.236a3.058,3.058,0,0,1-1.483.716,1.78,1.78,0,0,1-2.343-1.319,3.053,3.053,0,0,1-.063-.562l-.054-2.642-.969.213-.028-1.462.969-.213-.033-1.595,1.822-.4.032,1.595,1.564-.343.027,1.462-1.564.343Z" fill="#606060"/>
        <path id="Path_4305" data-name="Path 4305" d="M1691.791,1041.749l.129,6.552-1.726.38-.02-.644a2.85,2.85,0,0,1-1.769,1.134,2.706,2.706,0,0,1-3.324-2.216,3.574,3.574,0,0,1,2.664-4.415,2.3,2.3,0,0,1,2.25.5l-.024-.888Zm-1.765,3.324a1.33,1.33,0,0,0-1.74-1.073,1.923,1.923,0,0,0-1.391,2.47,1.332,1.332,0,0,0,1.74,1.074A1.927,1.927,0,0,0,1690.026,1045.073Zm-.424,5.365a.868.868,0,0,1-.689,1.093.716.716,0,0,1-.907-.559.915.915,0,0,1,.7-1.07A.723.723,0,0,1,1689.6,1050.438Z" fill="#606060"/>
        <path id="Path_4306" data-name="Path 4306" d="M1693.805,1039.4a1.136,1.136,0,0,1,.965-1.35.988.988,0,0,1,1.271.676,1.136,1.136,0,0,1-.966,1.386A1,1,0,0,1,1693.805,1039.4Zm.248,1.854,1.809-.4.131,6.552-1.809.4Z" fill="#606060"/>
        <path id="Path_4307" data-name="Path 4307" d="M1628.067,1068.443l.16,8.527-1.551.341-4.17-4.441.1,5.336-1.865.41-.162-8.528,1.564-.343,4.17,4.454-.109-5.346Z" fill="#e72024"/>
        <path id="Path_4308" data-name="Path 4308" d="M1636.977,1068.467l.109,5.456c.053,2.521-1.1,3.813-3.265,4.29a5.159,5.159,0,0,1-3.17-.172l.574-1.509a3.647,3.647,0,0,0,2.354.192,1.864,1.864,0,0,0,1.7-2.073l-.012-.278a2.8,2.8,0,0,1-1.758,1.12,2.649,2.649,0,0,1-3.359-2.027,3.485,3.485,0,0,1,2.748-4.2,2.238,2.238,0,0,1,2.371.654l-.027-1.071Zm-1.893,3.193a1.254,1.254,0,0,0-1.683-.927,1.811,1.811,0,0,0-1.442,2.236,1.276,1.276,0,0,0,1.707.923A1.8,1.8,0,0,0,1635.084,1071.66Z" fill="#e72024"/>
        <path id="Path_4309" data-name="Path 4309" d="M1645.622,1066.569l.13,6.552-1.726.379-.02-.644a2.861,2.861,0,0,1-1.769,1.135,2.706,2.706,0,0,1-3.324-2.218,3.573,3.573,0,0,1,2.664-4.414,2.3,2.3,0,0,1,2.248.5l-.024-.888Zm-1.764,3.322a1.334,1.334,0,0,0-1.742-1.072,1.922,1.922,0,0,0-1.389,2.47,1.331,1.331,0,0,0,1.74,1.073A1.928,1.928,0,0,0,1643.858,1069.891Z" fill="#e72024"/>
        <path id="Path_4310" data-name="Path 4310" d="M1654.272,1066.809a3.648,3.648,0,0,1,.086.776l.062,3.631-1.818.4-.063-3.509a1.929,1.929,0,0,0-.048-.442.949.949,0,0,0-1.293-.768,1.779,1.779,0,0,0-1.432,2l.068,3.324-1.82.4-.129-6.552,1.727-.38.008.708a3.066,3.066,0,0,1,1.9-1.225A2.085,2.085,0,0,1,1654.272,1066.809Z" fill="#e72024"/>
        <path id="Path_4311" data-name="Path 4311" d="M1668.848,1063.057c.633,2.882-1.019,5.214-4.043,5.878l-3.99.877-.074-3.679-1.11.245-.019-1.317,1.109-.243-.068-3.533,3.42-.751C1666.592,1059.98,1668.389,1060.968,1668.848,1063.057Zm-1.891.525c-.267-1.213-1.212-1.788-2.753-1.451l-1.622.357.041,1.912,2.03-.446.031,1.313-2.041.448.037,2.061,1.844-.405A3.006,3.006,0,0,0,1666.957,1063.582Z" fill="#e72024"/>
        <path id="Path_4312" data-name="Path 4312" d="M1676.942,1062.49a5.243,5.243,0,0,1,.1.979l-4.808,1.056c.246.84.865,1.156,1.9.928a2.644,2.644,0,0,0,1.553-.952l1.021,1.035a4.248,4.248,0,0,1-2.441,1.417c-1.959.43-3.451-.4-3.826-2.108a3.627,3.627,0,0,1,2.9-4.465A2.757,2.757,0,0,1,1676.942,1062.49Zm-4.332-2.682-1.365.3,1.457-1.715,1.576-.346,1.656,1.031-1.318.289-1.043-.468Zm-.477,3.627,3.117-.684a1.279,1.279,0,0,0-1.685-.988A1.767,1.767,0,0,0,1672.133,1063.435Zm5.615-7.41-1.673,1.848-1.366.3,1.137-1.729Z" fill="#e72024"/>
      </g>
      <rect id="Rectangle_124" data-name="Rectangle 124" width="115.463" height="32.558" transform="translate(1587.627 1057.925) rotate(-12.884)" fill="none" stroke="#606161" stroke-miterlimit="10" stroke-width="0.5"/>
    </g>
  </g>
</svg>
