<svg xmlns="http://www.w3.org/2000/svg" xmlns:xlink="http://www.w3.org/1999/xlink" width="238" height="128" viewBox="0 0 238 128">
  <defs>
    <clipPath id="clip-Web_1920_1">
      <rect width="238" height="128"/>
    </clipPath>
  </defs>
  <g id="Web_1920_1" data-name="Web 1920 – 1" clip-path="url(#clip-Web_1920_1)">
    <g id="Group_367" data-name="Group 367" transform="translate(-348.614 -1131.437)">
      <g id="Group_364" data-name="Group 364">
        <g id="Group_363" data-name="Group 363">
          <path id="Path_3966" data-name="Path 3966" d="M350.884,1132.075v5.127H349.7v-4.175h-1.025v-.952Z" fill="#57574d"/>
          <path id="Path_3967" data-name="Path 3967" d="M352.107,1136.542a.711.711,0,0,1,1.421,0,.711.711,0,1,1-1.421,0Z" fill="#57574d"/>
          <path id="Path_3968" data-name="Path 3968" d="M361.894,1132.075v5.127h-.975l-2.557-3.113v3.113H357.19v-5.127h.983l2.549,3.112v-3.112Z" fill="#57574d"/>
          <path id="Path_3969" data-name="Path 3969" d="M367.46,1133.261v3.281a1.929,1.929,0,0,1-2.211,2.139,3.251,3.251,0,0,1-1.934-.542l.454-.82a2.361,2.361,0,0,0,1.392.446c.8,0,1.156-.365,1.156-1.076v-.168a1.62,1.62,0,0,1-1.244.49,1.906,1.906,0,1,1,0-3.809,1.581,1.581,0,0,1,1.3.565v-.506Zm-1.127,1.846a1.039,1.039,0,1,0-1.033.967A.958.958,0,0,0,366.333,1135.107Z" fill="#57574d"/>
          <path id="Path_3970" data-name="Path 3970" d="M372.925,1135.232a2.168,2.168,0,1,1-2.16-2.03A2.022,2.022,0,0,1,372.925,1135.232Zm-2.813-2.477h-.834l.967-1.054h1.01l.967,1.054h-.834l-.638-.556Zm1.657,2.477a1.011,1.011,0,1,0-1,1.091A1,1,0,0,0,371.769,1135.232Z" fill="#57574d"/>
          <path id="Path_3971" data-name="Path 3971" d="M381.239,1137.2l-.008-3.077-1.507,2.535h-.536l-1.5-2.469v3.011h-1.114v-5.127h.983l1.918,3.186,1.89-3.186h.974l.015,5.127Z" fill="#57574d"/>
          <path id="Path_3972" data-name="Path 3972" d="M387.767,1133.261l-1.78,4.182a1.627,1.627,0,0,1-1.634,1.238,1.748,1.748,0,0,1-1.1-.359l.418-.813a1.011,1.011,0,0,0,.644.249c.315,0,.491-.139.645-.491l.014-.036-1.706-3.97h1.178l1.107,2.674,1.113-2.674Zm-3.157-.535h-.579c.015-.651.345-1.068.857-1.068s.761.468,1.025.468c.2,0,.338-.154.352-.4h.579c-.015.631-.345,1.048-.857,1.048s-.761-.462-1.025-.462C384.764,1132.316,384.624,1132.462,384.61,1132.726Z" fill="#57574d"/>
          <path id="Path_3973" data-name="Path 3973" d="M390.75,1135.232a2.037,2.037,0,0,1,2.2-2.03,1.811,1.811,0,0,1,1.765,1l-.886.476a.981.981,0,0,0-.886-.542,1.093,1.093,0,0,0,0,2.183.97.97,0,0,0,.886-.542l.886.483a1.828,1.828,0,0,1-1.765,1A2.037,2.037,0,0,1,390.75,1135.232Z" fill="#57574d"/>
          <path id="Path_3974" data-name="Path 3974" d="M399.737,1134.946v2.256H398.6v-2.081c0-.637-.293-.93-.8-.93-.549,0-.944.338-.944,1.062v1.949h-1.143v-5.435h1.143v1.9a1.733,1.733,0,0,1,1.252-.469A1.545,1.545,0,0,1,399.737,1134.946Z" fill="#57574d"/>
          <path id="Path_3975" data-name="Path 3975" d="M401,1132.075a.654.654,0,0,1,.711-.638.642.642,0,0,1,.711.615.714.714,0,0,1-1.422.023Zm.14,1.186h1.142v3.941h-1.142Z" fill="#57574d"/>
          <path id="Path_3976" data-name="Path 3976" d="M407.546,1135.554h-2.981a1.052,1.052,0,0,0,1.127.791,1.339,1.339,0,0,0,.99-.381l.608.658a2.3,2.3,0,0,1-3.875-1.39,2.006,2.006,0,0,1,2.1-2.03,1.95,1.95,0,0,1,2.05,2.043C407.567,1135.333,407.554,1135.458,407.546,1135.554Zm-2.688-2.8h-.836l.967-1.054H406l.967,1.054h-.836l-.637-.556Zm-.308,2.132h1.941a.984.984,0,0,0-1.941,0Z" fill="#57574d"/>
          <path id="Path_3977" data-name="Path 3977" d="M412.725,1134.946v2.256h-1.143v-2.081c0-.637-.293-.93-.8-.93-.55,0-.945.338-.945,1.062v1.949H408.7v-3.941h1.092v.461a1.727,1.727,0,0,1,1.3-.52A1.546,1.546,0,0,1,412.725,1134.946Z" fill="#57574d"/>
          <path id="Path_3978" data-name="Path 3978" d="M420.855,1135.232a1.913,1.913,0,0,1-1.962,2.028,1.531,1.531,0,0,1-1.238-.513v.455h-1.092v-5.435h1.143v1.912a1.531,1.531,0,0,1,1.187-.477A1.914,1.914,0,0,1,420.855,1135.232Zm-1.157,0a1.007,1.007,0,1,0-1,1.091A.994.994,0,0,0,419.7,1135.232Z" fill="#57574d"/>
          <path id="Path_3979" data-name="Path 3979" d="M426.02,1135.232a2.169,2.169,0,1,1-2.154-2.03c.381,0,.6.067.872.067a.436.436,0,0,0,.469-.477.739.739,0,0,0-.153-.439l.666-.249a1.226,1.226,0,0,1,.249.732,1.021,1.021,0,0,1-.557.945A1.947,1.947,0,0,1,426.02,1135.232Zm-1.158,0a1.01,1.01,0,1,0-1,1.091A.994.994,0,0,0,424.862,1135.232Z" fill="#57574d"/>
          <path id="Path_3980" data-name="Path 3980" d="M352.737,1147.325v.966h-3.875v-.768l1.979-1.868c.453-.433.534-.7.534-.945,0-.4-.278-.637-.82-.637a1.254,1.254,0,0,0-1.062.512l-.865-.556a2.383,2.383,0,0,1,2.037-.952c1.143,0,1.9.585,1.9,1.516a2.045,2.045,0,0,1-.857,1.618l-1.18,1.114Z" fill="#57574d"/>
          <path id="Path_3981" data-name="Path 3981" d="M353.632,1147.632a.711.711,0,0,1,1.421,0,.711.711,0,1,1-1.421,0Z" fill="#57574d"/>
          <path id="Path_3982" data-name="Path 3982" d="M360.583,1146.277l-.688.718v1.3h-1.179v-5.127h1.179v2.4l2.27-2.4h1.318l-2.124,2.286,2.249,2.841h-1.384Z" fill="#57574d"/>
          <path id="Path_3983" data-name="Path 3983" d="M368.45,1146.035v2.256h-1.142v-2.08c0-.637-.293-.93-.8-.93-.549,0-.945.338-.945,1.062v1.948h-1.142v-5.434h1.142v1.9a1.733,1.733,0,0,1,1.253-.469A1.545,1.545,0,0,1,368.45,1146.035Z" fill="#57574d"/>
          <path id="Path_3984" data-name="Path 3984" d="M369.6,1146.322a2.169,2.169,0,1,1,2.168,2.028A2.029,2.029,0,0,1,369.6,1146.322Zm3.171,0a1.01,1.01,0,1,0-1,1.09A.994.994,0,0,0,372.772,1146.322Z" fill="#57574d"/>
          <path id="Path_3985" data-name="Path 3985" d="M378.478,1146.042v2.249h-1.069v-.491a1.292,1.292,0,0,1-1.2.55c-.923,0-1.473-.513-1.473-1.194,0-.7.492-1.179,1.693-1.179h.908c0-.491-.293-.776-.908-.776a1.892,1.892,0,0,0-1.136.366l-.41-.8a3.019,3.019,0,0,1,1.7-.477C377.782,1144.292,378.478,1144.849,378.478,1146.042Zm-1.142,1v-.4h-.784c-.534,0-.7.2-.7.461,0,.285.242.476.644.476A.842.842,0,0,0,377.336,1147.046Z" fill="#57574d"/>
          <path id="Path_3986" data-name="Path 3986" d="M379.739,1143.164a.653.653,0,0,1,.71-.637.64.64,0,0,1,.71.615.713.713,0,0,1-1.42.022Zm.139,1.187h1.142v3.94h-1.142Z" fill="#57574d"/>
          <path id="Path_3987" data-name="Path 3987" d="M387.431,1148.1a1.636,1.636,0,0,1-.93.249,1.3,1.3,0,0,1-1.473-1.413v-1.619h-.607v-.879h.607v-.959h1.143v.959h.982v.879h-.982v1.6a.46.46,0,0,0,.491.521.774.774,0,0,0,.462-.147Z" fill="#57574d"/>
          <path id="Path_3988" data-name="Path 3988" d="M391.929,1146.042v2.249h-1.07v-.491a1.29,1.29,0,0,1-1.2.55c-.923,0-1.471-.513-1.471-1.194,0-.7.49-1.179,1.691-1.179h.908c0-.491-.293-.776-.908-.776a1.885,1.885,0,0,0-1.135.366l-.41-.8a3.014,3.014,0,0,1,1.7-.477C391.233,1144.292,391.929,1144.849,391.929,1146.042Zm-2.417-2.2h-.835l.967-1.055h1.01l.967,1.055h-.835l-.637-.557Zm1.274,3.2v-.4H390c-.535,0-.7.2-.7.461,0,.285.241.476.644.476A.84.84,0,0,0,390.786,1147.046Z" fill="#57574d"/>
          <path id="Path_3989" data-name="Path 3989" d="M397.166,1144.351l-1.78,4.182a1.625,1.625,0,0,1-1.633,1.238,1.749,1.749,0,0,1-1.1-.36l.417-.812a1.013,1.013,0,0,0,.645.249c.315,0,.491-.14.644-.491l.016-.036-1.707-3.97h1.18l1.105,2.674,1.113-2.674Z" fill="#57574d"/>
          <path id="Path_3990" data-name="Path 3990" d="M400.148,1146.322a2.037,2.037,0,0,1,2.2-2.03,1.81,1.81,0,0,1,1.764,1l-.885.476a.982.982,0,0,0-.886-.542,1.093,1.093,0,0,0,0,2.182.969.969,0,0,0,.886-.542l.885.484a1.826,1.826,0,0,1-1.764,1A2.037,2.037,0,0,1,400.148,1146.322Z" fill="#57574d"/>
          <path id="Path_3991" data-name="Path 3991" d="M409.136,1146.035v2.256h-1.143v-2.08c0-.637-.293-.93-.8-.93-.549,0-.944.338-.944,1.062v1.948h-1.143v-5.434h1.143v1.9a1.732,1.732,0,0,1,1.253-.469A1.544,1.544,0,0,1,409.136,1146.035Z" fill="#57574d"/>
          <path id="Path_3992" data-name="Path 3992" d="M410.395,1143.164a.654.654,0,0,1,.711-.637.641.641,0,0,1,.711.615.714.714,0,0,1-1.422.022Zm.14,1.187h1.143v3.94h-1.143Z" fill="#57574d"/>
          <path id="Path_3993" data-name="Path 3993" d="M416.944,1146.644h-2.98a1.05,1.05,0,0,0,1.127.791,1.335,1.335,0,0,0,.989-.381l.608.658a2.3,2.3,0,0,1-3.875-1.39,2.007,2.007,0,0,1,2.1-2.03,1.951,1.951,0,0,1,2.051,2.043C416.966,1146.423,416.952,1146.548,416.944,1146.644Zm-2.687-2.8h-.836l.967-1.055H415.4l.967,1.055h-.836l-.636-.557Zm-.309,2.132h1.942a.985.985,0,0,0-1.942,0Z" fill="#57574d"/>
          <path id="Path_3994" data-name="Path 3994" d="M422.123,1146.035v2.256H420.98v-2.08c0-.637-.293-.93-.8-.93-.55,0-.946.338-.946,1.062v1.948H418.1v-3.94h1.092v.461a1.723,1.723,0,0,1,1.3-.52A1.545,1.545,0,0,1,422.123,1146.035Z" fill="#57574d"/>
          <path id="Path_3995" data-name="Path 3995" d="M352.693,1157.815c0,.864-.667,1.655-2.124,1.655a3.522,3.522,0,0,1-1.955-.549l.461-.908a2.49,2.49,0,0,0,1.465.461c.594,0,.959-.242.959-.659,0-.388-.285-.63-.959-.63H350v-.783l1.055-1.195H348.87v-.952h3.589v.77l-1.157,1.318A1.456,1.456,0,0,1,352.693,1157.815Z" fill="#57574d"/>
          <path id="Path_3996" data-name="Path 3996" d="M353.573,1158.723a.711.711,0,0,1,1.421,0,.711.711,0,1,1-1.421,0Z" fill="#57574d"/>
          <path id="Path_3997" data-name="Path 3997" d="M360.524,1157.369l-.688.716v1.3h-1.179v-5.127h1.179v2.4l2.27-2.4h1.319l-2.124,2.285,2.249,2.842h-1.385Z" fill="#57574d"/>
          <path id="Path_3998" data-name="Path 3998" d="M368.392,1157.126v2.256h-1.143v-2.08c0-.637-.293-.93-.8-.93-.549,0-.944.336-.944,1.062v1.948h-1.143v-5.434h1.143v1.9a1.729,1.729,0,0,1,1.253-.469A1.545,1.545,0,0,1,368.392,1157.126Z" fill="#57574d"/>
          <path id="Path_3999" data-name="Path 3999" d="M369.542,1157.411a2.168,2.168,0,1,1,2.168,2.03A2.029,2.029,0,0,1,369.542,1157.411Zm3.172,0a1.011,1.011,0,1,0-1,1.092A.994.994,0,0,0,372.714,1157.411Z" fill="#57574d"/>
          <path id="Path_4000" data-name="Path 4000" d="M378.42,1157.134v2.248h-1.069v-.49a1.3,1.3,0,0,1-1.2.549c-.922,0-1.472-.513-1.472-1.194s.491-1.179,1.692-1.179h.908c0-.491-.293-.777-.908-.777a1.9,1.9,0,0,0-1.136.367l-.41-.8a3.04,3.04,0,0,1,1.7-.476C377.724,1155.383,378.42,1155.94,378.42,1157.134Zm-1.143,1v-.4h-.784c-.534,0-.7.2-.7.462,0,.286.242.475.645.475A.843.843,0,0,0,377.277,1158.137Z" fill="#57574d"/>
          <path id="Path_4001" data-name="Path 4001" d="M379.681,1154.255a.652.652,0,0,1,.71-.636.641.641,0,0,1,.71.615.713.713,0,0,1-1.42.021Zm.138,1.187h1.143v3.94h-1.143Z" fill="#57574d"/>
          <path id="Path_4002" data-name="Path 4002" d="M384.831,1153.948h1.143v5.434h-1.143Z" fill="#57574d"/>
          <path id="Path_4003" data-name="Path 4003" d="M390.889,1157.134v2.248h-1.07v-.49a1.3,1.3,0,0,1-1.2.549c-.923,0-1.473-.513-1.473-1.194s.492-1.179,1.693-1.179h.908c0-.491-.293-.777-.908-.777a1.9,1.9,0,0,0-1.136.367l-.41-.8a3.037,3.037,0,0,1,1.7-.476C390.192,1155.383,390.889,1155.94,390.889,1157.134Zm-1.143,1v-.4h-.784c-.534,0-.7.2-.7.462,0,.286.242.475.644.475A.843.843,0,0,0,389.746,1158.137Z" fill="#57574d"/>
          <path id="Path_4004" data-name="Path 4004" d="M396.316,1157.126v2.256h-1.142v-2.08c0-.637-.293-.93-.8-.93-.55,0-.945.336-.945,1.062v1.948h-1.143v-3.94h1.092v.462a1.719,1.719,0,0,1,1.3-.521A1.544,1.544,0,0,1,396.316,1157.126Z" fill="#57574d"/>
          <path id="Path_4005" data-name="Path 4005" d="M401.825,1155.442v3.281a1.929,1.929,0,0,1-2.213,2.139,3.247,3.247,0,0,1-1.933-.542l.455-.821a2.345,2.345,0,0,0,1.39.448c.807,0,1.159-.368,1.159-1.078v-.168a1.624,1.624,0,0,1-1.246.491,1.906,1.906,0,1,1,0-3.809,1.583,1.583,0,0,1,1.3.564v-.505Zm-1.129,1.845a1.038,1.038,0,1,0-1.032.967A.955.955,0,0,0,400.7,1157.287Z" fill="#57574d"/>
          <path id="Path_4006" data-name="Path 4006" d="M405.4,1157.411a2.037,2.037,0,0,1,2.2-2.028,1.809,1.809,0,0,1,1.764,1l-.885.477a.984.984,0,0,0-.886-.542,1.093,1.093,0,0,0,0,2.182.969.969,0,0,0,.886-.542l.885.484a1.826,1.826,0,0,1-1.764,1A2.037,2.037,0,0,1,405.4,1157.411Z" fill="#57574d"/>
          <path id="Path_4007" data-name="Path 4007" d="M414.388,1157.126v2.256h-1.143v-2.08c0-.637-.293-.93-.8-.93-.549,0-.944.336-.944,1.062v1.948h-1.143v-5.434H411.5v1.9a1.731,1.731,0,0,1,1.253-.469A1.544,1.544,0,0,1,414.388,1157.126Z" fill="#57574d"/>
          <path id="Path_4008" data-name="Path 4008" d="M415.647,1154.255a.653.653,0,0,1,.711-.636.641.641,0,0,1,.711.615.714.714,0,0,1-1.422.021Zm.14,1.187h1.143v3.94h-1.143Z" fill="#57574d"/>
          <path id="Path_4009" data-name="Path 4009" d="M422.2,1157.734h-2.98a1.049,1.049,0,0,0,1.127.791,1.332,1.332,0,0,0,.989-.381l.608.66a2.068,2.068,0,0,1-1.627.637,2.047,2.047,0,0,1-2.248-2.03,2.006,2.006,0,0,1,2.1-2.028,1.951,1.951,0,0,1,2.051,2.044C422.218,1157.515,422.2,1157.639,422.2,1157.734Zm-2.687-2.8h-.836l.967-1.055h1.011l.967,1.055h-.836l-.637-.557Zm-.309,2.131h1.942a.985.985,0,0,0-1.942,0Z" fill="#57574d"/>
          <path id="Path_4010" data-name="Path 4010" d="M427.375,1157.126v2.256h-1.143v-2.08c0-.637-.293-.93-.8-.93-.55,0-.946.336-.946,1.062v1.948h-1.142v-3.94h1.091v.462a1.72,1.72,0,0,1,1.3-.521A1.545,1.545,0,0,1,427.375,1157.126Z" fill="#57574d"/>
          <path id="Path_4011" data-name="Path 4011" d="M353.6,1169.4h-.835v1.076h-1.158V1169.4h-2.76v-.8l2.416-3.252h1.246l-2.242,3.084h1.376v-.96h1.122v.96h.835Z" fill="#57574d"/>
          <path id="Path_4012" data-name="Path 4012" d="M354.43,1169.813a.711.711,0,0,1,1.421,0,.711.711,0,1,1-1.421,0Z" fill="#57574d"/>
          <path id="Path_4013" data-name="Path 4013" d="M364.179,1170.472l-.008-3.076-1.508,2.534h-.535l-1.5-2.468v3.01h-1.113v-5.127h.982l1.918,3.186,1.891-3.186h.973l.015,5.127Z" fill="#57574d"/>
          <path id="Path_4014" data-name="Path 4014" d="M370.281,1168.224v2.248h-1.069v-.49a1.3,1.3,0,0,1-1.2.549c-.923,0-1.473-.513-1.473-1.194,0-.7.491-1.179,1.692-1.179h.909c0-.491-.293-.777-.909-.777a1.9,1.9,0,0,0-1.135.366l-.41-.8a3.035,3.035,0,0,1,1.7-.476C369.585,1166.473,370.281,1167.03,370.281,1168.224Zm-3.128-3.252h.719a.642.642,0,0,0,1.26,0h.717a1.373,1.373,0,0,1-2.7,0Zm1.986,4.255v-.4h-.785c-.534,0-.7.2-.7.461,0,.287.243.476.645.476A.844.844,0,0,0,369.139,1169.227Z" fill="#57574d"/>
          <path id="Path_4015" data-name="Path 4015" d="M375.709,1168.216v2.256h-1.143v-2.08c0-.637-.293-.93-.8-.93-.55,0-.946.336-.946,1.062v1.948h-1.142v-3.94h1.091v.462a1.72,1.72,0,0,1,1.3-.521A1.545,1.545,0,0,1,375.709,1168.216Z" fill="#57574d"/>
          <path id="Path_4016" data-name="Path 4016" d="M381.218,1166.532v3.281a1.929,1.929,0,0,1-2.213,2.139,3.25,3.25,0,0,1-1.934-.542l.455-.821a2.345,2.345,0,0,0,1.391.447c.807,0,1.158-.367,1.158-1.077v-.169a1.623,1.623,0,0,1-1.246.492,1.906,1.906,0,1,1,0-3.809,1.586,1.586,0,0,1,1.3.563v-.5Zm-1.129,1.845a1.038,1.038,0,1,0-1.032.967A.956.956,0,0,0,380.089,1168.377Z" fill="#57574d"/>
          <path id="Path_4017" data-name="Path 4017" d="M387.628,1170.282a1.629,1.629,0,0,1-.931.249,1.3,1.3,0,0,1-1.471-1.414V1167.5h-.609v-.879h.609v-.959h1.142v.959h.981v.879h-.981v1.6a.459.459,0,0,0,.49.519.763.763,0,0,0,.461-.146Z" fill="#57574d"/>
          <path id="Path_4018" data-name="Path 4018" d="M391.086,1166.473v1.055c-.1-.007-.169-.015-.257-.015a.968.968,0,0,0-1.047,1.1v1.86H388.64v-3.94h1.091v.52A1.59,1.59,0,0,1,391.086,1166.473Z" fill="#57574d"/>
          <path id="Path_4019" data-name="Path 4019" d="M396.133,1166.532v3.94h-1.084V1170a1.6,1.6,0,0,1-1.224.528,1.57,1.57,0,0,1-1.683-1.773v-2.226h1.142v2.057c0,.66.293.953.8.953.527,0,.908-.338.908-1.062v-1.948Zm-1.773-.505h-.893l.989-1.055h1.231Z" fill="#57574d"/>
          <path id="Path_4020" data-name="Path 4020" d="M397.269,1168.5a2.038,2.038,0,0,1,2.2-2.028,1.809,1.809,0,0,1,1.765,1l-.886.476a.985.985,0,0,0-.887-.542,1.093,1.093,0,0,0,0,2.183.971.971,0,0,0,.887-.542l.886.484a1.829,1.829,0,0,1-1.765,1A2.038,2.038,0,0,1,397.269,1168.5Z" fill="#57574d"/>
          <path id="Path_4021" data-name="Path 4021" d="M407.2,1170.472l-.864-1.209-.894,1.209H404.2l1.516-1.984-1.465-1.956h1.282l.835,1.149.858-1.149h1.214l-1.464,1.926,1.523,2.014Z" fill="#57574d"/>
          <path id="Path_4022" data-name="Path 4022" d="M412.834,1168.224v2.248h-1.069v-.49a1.3,1.3,0,0,1-1.2.549c-.922,0-1.472-.513-1.472-1.194,0-.7.491-1.179,1.692-1.179h.908c0-.491-.293-.777-.908-.777a1.908,1.908,0,0,0-1.136.366l-.41-.8a3.041,3.041,0,0,1,1.7-.476C412.138,1166.473,412.834,1167.03,412.834,1168.224Zm-2.007-2.2-1.326-1.055h1.23l.99,1.055Zm.864,3.2v-.4h-.784c-.534,0-.7.2-.7.461,0,.287.242.476.645.476A.842.842,0,0,0,411.691,1169.227Z" fill="#57574d"/>
          <path id="Path_4023" data-name="Path 4023" d="M413.984,1168.5a2.169,2.169,0,1,1,2.168,2.03A2.029,2.029,0,0,1,413.984,1168.5Zm3.171,0a1.01,1.01,0,1,0-1,1.092A.994.994,0,0,0,417.155,1168.5Z" fill="#57574d"/>
          <path id="Path_4024" data-name="Path 4024" d="M425.909,1168.216v2.256h-1.142v-2.08c0-.637-.293-.93-.8-.93-.549,0-.945.336-.945,1.062v1.948h-1.142v-3.94h1.091v.462a1.723,1.723,0,0,1,1.3-.521A1.544,1.544,0,0,1,425.909,1168.216Z" fill="#57574d"/>
          <path id="Path_4025" data-name="Path 4025" d="M430.8,1168.224v2.248h-1.069v-.49a1.3,1.3,0,0,1-1.2.549c-.922,0-1.472-.513-1.472-1.194,0-.7.491-1.179,1.692-1.179h.908c0-.491-.293-.777-.908-.777a1.908,1.908,0,0,0-1.136.366l-.41-.8a3.04,3.04,0,0,1,1.7-.476C430.1,1166.473,430.8,1167.03,430.8,1168.224Zm-2.409-2.2h-.843l.974-.836h1l.974.836h-.842l-.63-.418Zm1.266,3.2v-.4h-.784c-.534,0-.7.2-.7.461,0,.287.242.476.645.476A.843.843,0,0,0,429.652,1169.227Zm1.07-3.9h-.828l.813-.887h1.165Z" fill="#57574d"/>
          <path id="Path_4026" data-name="Path 4026" d="M438.853,1168.216v2.256H437.71v-2.08c0-.637-.286-.93-.748-.93-.512,0-.871.329-.871,1.032v1.978h-1.143v-2.08c0-.637-.271-.93-.747-.93-.5,0-.864.329-.864,1.032v1.978h-1.143v-3.94h1.092v.454a1.6,1.6,0,0,1,1.237-.513,1.466,1.466,0,0,1,1.3.645,1.771,1.771,0,0,1,1.422-.645A1.526,1.526,0,0,1,438.853,1168.216Z" fill="#57574d"/>
          <path id="Path_4027" data-name="Path 4027" d="M442.4,1170.065a4.331,4.331,0,0,1,.978-2.775h.669a4.582,4.582,0,0,0-1,2.809,3.81,3.81,0,0,0,.2,1.2h-.613A3.288,3.288,0,0,1,442.4,1170.065Z" fill="#df071b"/>
          <path id="Path_4028" data-name="Path 4028" d="M447.42,1168.723a1.713,1.713,0,0,1-1.869,1.749h-1.467l.258-1.3h-.407l.093-.463h.408l.249-1.243h1.256C446.867,1167.471,447.42,1167.955,447.42,1168.723Zm-.7.038c0-.445-.287-.72-.853-.72h-.6l-.133.673h.746l-.09.463h-.75l-.146.725h.677A1.079,1.079,0,0,0,446.717,1168.761Z" fill="#df071b"/>
          <path id="Path_4029" data-name="Path 4029" d="M450.6,1168.165l-.458,2.307h-.635l.043-.228a1.027,1.027,0,0,1-.708.262.971.971,0,0,1-.994-1.033,1.282,1.282,0,0,1,1.273-1.342.824.824,0,0,1,.75.347l.061-.313Zm-.874,1.03a.479.479,0,0,0-.528-.511.691.691,0,0,0-.677.759.478.478,0,0,0,.527.51A.691.691,0,0,0,449.725,1169.195Zm-.562,1.847a.312.312,0,0,1-.326.33.257.257,0,0,1-.275-.265.328.328,0,0,1,.327-.322A.259.259,0,0,1,449.163,1171.042Zm-.33-3.726a.351.351,0,0,1,0-.064h.407a.3.3,0,0,0,.339.3.377.377,0,0,0,.4-.3h.434a.818.818,0,0,1-.871.652C449.137,1167.9,448.833,1167.676,448.833,1167.316Z" fill="#df071b"/>
          <path id="Path_4030" data-name="Path 4030" d="M451.017,1169.473a1.331,1.331,0,0,1,1.406-1.342,1.071,1.071,0,0,1,1.038.583l-.566.283a.527.527,0,0,0-.514-.313.7.7,0,0,0-.687.755.484.484,0,0,0,.536.514.637.637,0,0,0,.566-.308l.493.308a1.271,1.271,0,0,1-1.1.553A1.042,1.042,0,0,1,451.017,1169.473Z" fill="#df071b"/>
          <path id="Path_4031" data-name="Path 4031" d="M457.9,1169.164a1.282,1.282,0,0,1-1.277,1.342.829.829,0,0,1-.773-.377l-.068.343h-.635l.635-3.182h.669l-.214,1.073a1.016,1.016,0,0,1,.664-.232A.974.974,0,0,1,457.9,1169.164Zm-.677.031a.478.478,0,0,0-.528-.511.691.691,0,0,0-.673.759.475.475,0,0,0,.524.51A.69.69,0,0,0,457.227,1169.195Z" fill="#df071b"/>
          <path id="Path_4032" data-name="Path 4032" d="M458.785,1168.165h.665l-.459,2.307h-.665Zm.056-.669a.407.407,0,0,1,.442-.4.354.354,0,0,1,.394.334.409.409,0,0,1-.446.412A.358.358,0,0,1,458.841,1167.5Z" fill="#df071b"/>
          <path id="Path_4033" data-name="Path 4033" d="M462.294,1169.5h-1.767c.022.314.215.472.6.472a.95.95,0,0,0,.618-.214l.279.442a1.532,1.532,0,0,1-.965.308,1.041,1.041,0,0,1-1.179-1.033,1.3,1.3,0,0,1,1.359-1.342.99.99,0,0,1,1.1,1.016A1.814,1.814,0,0,1,462.294,1169.5Zm-1.243,1.544a.312.312,0,0,1-.326.33.257.257,0,0,1-.275-.265.327.327,0,0,1,.326-.322A.259.259,0,0,1,461.051,1171.042Zm-.031-3.169h-.5l.652-.617h.587l.484.617h-.475l-.33-.321Zm-.446,1.236h1.146a.46.46,0,0,0-.515-.477A.636.636,0,0,0,460.574,1169.109Z" fill="#df071b"/>
          <path id="Path_4034" data-name="Path 4034" d="M463.646,1169.658a.345.345,0,0,0-.009.093c0,.142.077.224.245.224a.528.528,0,0,0,.27-.082l.1.476a1.094,1.094,0,0,1-.574.137.64.64,0,0,1-.721-.642,1.113,1.113,0,0,1,.022-.2l.185-.93h-.356l.1-.514h.356l.112-.562h.669l-.112.562h.575l-.1.514h-.574Z" fill="#df071b"/>
          <path id="Path_4035" data-name="Path 4035" d="M465.483,1168.495a3.843,3.843,0,0,0-.2-1.2h.613a3.294,3.294,0,0,1,.231,1.24,4.33,4.33,0,0,1-.977,2.774h-.669A4.571,4.571,0,0,0,465.483,1168.495Z" fill="#df071b"/>
          <path id="Path_4036" data-name="Path 4036" d="M352.781,1179.952c0,.908-.667,1.7-2.132,1.7a3.546,3.546,0,0,1-1.955-.55l.469-.908a2.47,2.47,0,0,0,1.457.462c.594,0,.96-.249.96-.667s-.264-.666-1.194-.666h-1.311l.264-2.886h3.127v.952h-2.139l-.08.975h.418C352.181,1178.363,352.781,1179.043,352.781,1179.952Z" fill="#57574d"/>
          <path id="Path_4037" data-name="Path 4037" d="M353.6,1180.9a.711.711,0,0,1,1.421,0,.711.711,0,1,1-1.421,0Z" fill="#57574d"/>
          <path id="Path_4038" data-name="Path 4038" d="M363.38,1176.436v5.127h-.974l-2.555-3.112v3.112h-1.172v-5.127h.98l2.549,3.112v-3.112Z" fill="#57574d"/>
          <path id="Path_4039" data-name="Path 4039" d="M368.919,1179.593a2.169,2.169,0,1,1-2.161-2.029A2.022,2.022,0,0,1,368.919,1179.593Zm-2.813-2.476h-.836l.967-1.055h1.012l.967,1.055h-.836l-.637-.557Zm1.655,2.476a1.01,1.01,0,1,0-1,1.091A.994.994,0,0,0,367.761,1179.593Zm-.512,3.018a.506.506,0,0,1-1.012,0,.506.506,0,1,1,1.012,0Z" fill="#57574d"/>
          <path id="Path_4040" data-name="Path 4040" d="M376.7,1179.307v2.256h-1.142v-2.08c0-.638-.286-.931-.747-.931-.513,0-.872.33-.872,1.033v1.978H372.8v-2.08c0-.638-.271-.931-.747-.931-.506,0-.865.33-.865,1.033v1.978h-1.142v-3.941h1.091v.455a1.6,1.6,0,0,1,1.238-.513,1.475,1.475,0,0,1,1.3.644,1.771,1.771,0,0,1,1.42-.644A1.526,1.526,0,0,1,376.7,1179.307Z" fill="#57574d"/>
          <path id="Path_4041" data-name="Path 4041" d="M380.244,1179.593a2.037,2.037,0,0,1,2.2-2.029,1.809,1.809,0,0,1,1.765,1l-.886.475a.98.98,0,0,0-.885-.542,1.093,1.093,0,0,0,0,2.183.968.968,0,0,0,.885-.542l.886.483a1.827,1.827,0,0,1-1.765,1A2.037,2.037,0,0,1,380.244,1179.593Z" fill="#57574d"/>
          <path id="Path_4042" data-name="Path 4042" d="M389.231,1179.307v2.256h-1.142v-2.08c0-.638-.293-.931-.8-.931-.549,0-.944.338-.944,1.063v1.948H385.2v-5.435h1.143v1.9a1.73,1.73,0,0,1,1.253-.469A1.544,1.544,0,0,1,389.231,1179.307Z" fill="#57574d"/>
          <path id="Path_4043" data-name="Path 4043" d="M394.118,1179.314v2.249h-1.069v-.491a1.292,1.292,0,0,1-1.2.549c-.923,0-1.472-.512-1.472-1.194s.49-1.179,1.691-1.179h.909c0-.491-.293-.776-.909-.776a1.888,1.888,0,0,0-1.134.366l-.411-.8a3.026,3.026,0,0,1,1.7-.476C393.423,1177.564,394.118,1178.12,394.118,1179.314Zm-2.417-2.2h-.835l.967-1.055h1.011l.967,1.055h-.835l-.637-.557Zm1.275,3.2v-.4h-.784c-.535,0-.7.2-.7.461,0,.285.241.477.645.477A.842.842,0,0,0,392.976,1180.318Z" fill="#57574d"/>
          <path id="Path_4044" data-name="Path 4044" d="M399.546,1179.307v2.256H398.4v-2.08c0-.638-.293-.931-.8-.931-.548,0-.944.338-.944,1.063v1.948h-1.142v-3.941h1.09v.461a1.732,1.732,0,0,1,1.3-.519A1.545,1.545,0,0,1,399.546,1179.307Z" fill="#57574d"/>
          <path id="Path_4045" data-name="Path 4045" d="M407.413,1179.307v2.256H406.27v-2.08c0-.638-.292-.931-.8-.931-.549,0-.945.338-.945,1.063v1.948h-1.142v-3.941h1.091v.461a1.728,1.728,0,0,1,1.3-.519A1.545,1.545,0,0,1,407.413,1179.307Z" fill="#57574d"/>
          <path id="Path_4046" data-name="Path 4046" d="M412.921,1177.622v3.282a1.928,1.928,0,0,1-2.211,2.138,3.244,3.244,0,0,1-1.934-.542l.453-.82a2.36,2.36,0,0,0,1.393.446c.8,0,1.156-.365,1.156-1.076v-.168a1.622,1.622,0,0,1-1.244.49,1.905,1.905,0,1,1,0-3.808,1.58,1.58,0,0,1,1.3.564v-.506Zm-1.127,1.846a1.039,1.039,0,1,0-1.033.967A.958.958,0,0,0,411.794,1179.468Z" fill="#57574d"/>
          <path id="Path_4047" data-name="Path 4047" d="M417.837,1179.314v2.249h-1.069v-.491a1.293,1.293,0,0,1-1.2.549c-.922,0-1.471-.512-1.471-1.194s.49-1.179,1.691-1.179h.908c0-.491-.293-.776-.908-.776a1.893,1.893,0,0,0-1.135.366l-.41-.8a3.025,3.025,0,0,1,1.7-.476C417.142,1177.564,417.837,1178.12,417.837,1179.314Zm-1.143,1v-.4h-.783c-.535,0-.7.2-.7.461,0,.285.241.477.645.477A.841.841,0,0,0,416.694,1180.318Z" fill="#57574d"/>
          <path id="Path_4048" data-name="Path 4048" d="M423.265,1179.307v2.256h-1.143v-2.08c0-.638-.293-.931-.8-.931-.549,0-.944.338-.944,1.063v1.948h-1.143v-3.941h1.091v.461a1.732,1.732,0,0,1,1.3-.519A1.545,1.545,0,0,1,423.265,1179.307Z" fill="#57574d"/>
          <path id="Path_4049" data-name="Path 4049" d="M429.55,1177.564v1.055c-.1-.008-.168-.015-.256-.015a.968.968,0,0,0-1.048,1.1v1.861H427.1v-3.941h1.091v.52A1.594,1.594,0,0,1,429.55,1177.564Z" fill="#57574d"/>
          <path id="Path_4050" data-name="Path 4050" d="M434.6,1177.622v3.941h-1.084v-.469a1.594,1.594,0,0,1-1.223.527,1.571,1.571,0,0,1-1.686-1.772v-2.227h1.143v2.059c0,.658.293.951.8.951.527,0,.908-.336.908-1.061v-1.949Zm-1.773-.505h-.893l.988-1.055h1.23Z" fill="#57574d"/>
          <path id="Path_4051" data-name="Path 4051" d="M438.567,1181.372a1.635,1.635,0,0,1-.93.249,1.3,1.3,0,0,1-1.472-1.413v-1.619h-.608v-.879h.608v-.959h1.143v.959h.98v.879h-.98v1.6a.458.458,0,0,0,.49.52.776.776,0,0,0,.461-.146Z" fill="#57574d"/>
          <path id="Path_4052" data-name="Path 4052" d="M444.522,1181.563l-.864-1.208-.893,1.208H441.52l1.516-1.986-1.465-1.955h1.282l.834,1.151.857-1.151h1.217l-1.465,1.926,1.523,2.015Z" fill="#57574d"/>
          <path id="Path_4053" data-name="Path 4053" d="M450.639,1178.282v3.281h-1.084v-.469a1.592,1.592,0,0,1-1.224.527,1.57,1.57,0,0,1-1.684-1.772v-2.227h1.143v2.059c0,.658.293.951.8.951.527,0,.908-.336.908-1.061v-1.949h.608a.429.429,0,0,0,.44-.461.7.7,0,0,0-.147-.439l.674-.25a1.18,1.18,0,0,1,.235.732A1.076,1.076,0,0,1,450.639,1178.282Z" fill="#57574d"/>
          <path id="Path_4054" data-name="Path 4054" d="M456.06,1179.593a2.17,2.17,0,1,1-2.155-2.029c.381,0,.6.066.872.066a.436.436,0,0,0,.469-.476.742.742,0,0,0-.153-.44l.666-.249a1.227,1.227,0,0,1,.249.733,1.02,1.02,0,0,1-.557.944A1.948,1.948,0,0,1,456.06,1179.593Zm-1.159,0a1.01,1.01,0,1,0-1,1.091A.994.994,0,0,0,454.9,1179.593Z" fill="#57574d"/>
          <path id="Path_4055" data-name="Path 4055" d="M461.216,1179.307v2.256h-1.143v-2.08c0-.638-.293-.931-.8-.931-.548,0-.944.338-.944,1.063v1.948h-1.143v-3.941h1.091v.461a1.732,1.732,0,0,1,1.3-.519A1.545,1.545,0,0,1,461.216,1179.307Z" fill="#57574d"/>
          <path id="Path_4056" data-name="Path 4056" d="M466.726,1177.622v3.282a1.929,1.929,0,0,1-2.213,2.138,3.25,3.25,0,0,1-1.934-.542l.456-.82a2.348,2.348,0,0,0,1.39.446c.807,0,1.158-.365,1.158-1.076v-.168a1.623,1.623,0,0,1-1.246.49,1.905,1.905,0,1,1,0-3.808,1.584,1.584,0,0,1,1.3.564v-.506Zm-1.129,1.846a1.038,1.038,0,1,0-1.032.967A.957.957,0,0,0,465.6,1179.468Z" fill="#57574d"/>
          <path id="Path_4057" data-name="Path 4057" d="M470.313,1181.156a4.326,4.326,0,0,1,.978-2.775h.668a4.582,4.582,0,0,0-1,2.809,3.812,3.812,0,0,0,.2,1.205h-.614A3.309,3.309,0,0,1,470.313,1181.156Z" fill="#df071b"/>
          <path id="Path_4058" data-name="Path 4058" d="M475.331,1179.814a1.713,1.713,0,0,1-1.87,1.749h-1.466l.257-1.3h-.407l.094-.463h.407l.249-1.243h1.257C474.778,1178.562,475.331,1179.046,475.331,1179.814Zm-.7.038c0-.445-.287-.72-.852-.72h-.6l-.133.673h.746l-.089.463h-.75l-.147.725h.678A1.078,1.078,0,0,0,474.627,1179.852Z" fill="#df071b"/>
          <path id="Path_4059" data-name="Path 4059" d="M478.509,1179.256l-.458,2.307h-.635l.043-.228a1.023,1.023,0,0,1-.708.262.971.971,0,0,1-.994-1.033,1.282,1.282,0,0,1,1.274-1.342.823.823,0,0,1,.75.347l.06-.313Zm-.874,1.029a.478.478,0,0,0-.527-.51.691.691,0,0,0-.678.759.478.478,0,0,0,.527.51A.691.691,0,0,0,477.635,1180.285Zm-.561,1.848a.312.312,0,0,1-.326.33.256.256,0,0,1-.275-.265.327.327,0,0,1,.326-.322A.26.26,0,0,1,477.074,1182.133Zm-.33-3.725a.354.354,0,0,1,0-.065h.407a.3.3,0,0,0,.339.3.377.377,0,0,0,.4-.3h.434a.819.819,0,0,1-.871.651C477.047,1178.994,476.744,1178.767,476.744,1178.408Z" fill="#df071b"/>
          <path id="Path_4060" data-name="Path 4060" d="M478.927,1180.564a1.331,1.331,0,0,1,1.406-1.342,1.071,1.071,0,0,1,1.039.583l-.567.283a.524.524,0,0,0-.514-.313.7.7,0,0,0-.686.755.484.484,0,0,0,.536.514.637.637,0,0,0,.566-.308l.493.308a1.272,1.272,0,0,1-1.1.553A1.042,1.042,0,0,1,478.927,1180.564Z" fill="#df071b"/>
          <path id="Path_4061" data-name="Path 4061" d="M485.815,1180.255a1.283,1.283,0,0,1-1.277,1.342.829.829,0,0,1-.773-.377l-.068.343h-.635l.635-3.182h.669l-.214,1.072a1.019,1.019,0,0,1,.664-.231A.974.974,0,0,1,485.815,1180.255Zm-.678.03a.477.477,0,0,0-.527-.51.69.69,0,0,0-.673.759.474.474,0,0,0,.523.51A.69.69,0,0,0,485.137,1180.285Z" fill="#df071b"/>
          <path id="Path_4062" data-name="Path 4062" d="M486.7,1179.256h.665l-.459,2.307h-.665Zm.055-.669a.408.408,0,0,1,.443-.4.354.354,0,0,1,.393.334.408.408,0,0,1-.445.412A.359.359,0,0,1,486.751,1178.587Z" fill="#df071b"/>
          <path id="Path_4063" data-name="Path 4063" d="M490.2,1180.589h-1.767c.021.314.215.472.6.472a.95.95,0,0,0,.618-.214l.278.441a1.522,1.522,0,0,1-.965.309,1.041,1.041,0,0,1-1.178-1.033,1.3,1.3,0,0,1,1.359-1.342.989.989,0,0,1,1.1,1.016A1.809,1.809,0,0,1,490.2,1180.589Zm-1.244,1.544a.311.311,0,0,1-.326.33.256.256,0,0,1-.274-.265.327.327,0,0,1,.326-.322A.259.259,0,0,1,488.961,1182.133Zm-.03-3.169h-.5l.653-.617h.586l.485.617h-.476l-.33-.321Zm-.446,1.236h1.145a.46.46,0,0,0-.514-.477A.634.634,0,0,0,488.485,1180.2Z" fill="#df071b"/>
          <path id="Path_4064" data-name="Path 4064" d="M491.556,1180.748a.354.354,0,0,0-.009.094c0,.142.077.224.245.224a.537.537,0,0,0,.27-.082l.1.476a1.1,1.1,0,0,1-.575.137.64.64,0,0,1-.72-.643,1.111,1.111,0,0,1,.021-.2l.185-.93h-.356l.1-.514h.355l.113-.563h.669l-.113.563h.575l-.1.514h-.574Z" fill="#df071b"/>
          <path id="Path_4065" data-name="Path 4065" d="M493.393,1179.586a3.81,3.81,0,0,0-.2-1.205h.613a3.289,3.289,0,0,1,.232,1.239,4.331,4.331,0,0,1-.978,2.775h-.669A4.576,4.576,0,0,0,493.393,1179.586Z" fill="#df071b"/>
          <path id="Path_4066" data-name="Path 4066" d="M353.14,1191.035a1.763,1.763,0,0,1-1.941,1.706c-1.413,0-2.292-.886-2.292-2.542a2.5,2.5,0,0,1,2.614-2.761,2.773,2.773,0,0,1,1.429.351l-.439.872a1.686,1.686,0,0,0-.96-.256,1.362,1.362,0,0,0-1.443,1.487,1.728,1.728,0,0,1,1.267-.455A1.627,1.627,0,0,1,353.14,1191.035Zm-1.15.058a.773.773,0,0,0-.872-.769.8.8,0,0,0-.886.769c0,.44.33.762.9.762A.766.766,0,0,0,351.99,1191.093Z" fill="#57574d"/>
          <path id="Path_4067" data-name="Path 4067" d="M353.976,1191.994a.71.71,0,0,1,1.42,0,.71.71,0,1,1-1.42,0Z" fill="#57574d"/>
          <path id="Path_4068" data-name="Path 4068" d="M358.737,1190.089a2.824,2.824,0,0,1,4.893-1.743l-.762.7a1.653,1.653,0,0,0-1.289-.6,1.641,1.641,0,1,0,0,3.281,1.635,1.635,0,0,0,1.289-.608l.762.7a2.819,2.819,0,0,1-4.893-1.737Z" fill="#57574d"/>
          <path id="Path_4069" data-name="Path 4069" d="M368.742,1190.4v2.256H367.6v-2.08c0-.638-.293-.931-.8-.931-.55,0-.946.338-.946,1.062v1.949h-1.142v-5.435h1.142v1.9a1.734,1.734,0,0,1,1.252-.468A1.545,1.545,0,0,1,368.742,1190.4Z" fill="#57574d"/>
          <path id="Path_4070" data-name="Path 4070" d="M373.628,1190.4v2.249h-1.069v-.492a1.291,1.291,0,0,1-1.2.55c-.922,0-1.471-.512-1.471-1.194s.49-1.179,1.691-1.179h.908c0-.491-.293-.776-.908-.776a1.894,1.894,0,0,0-1.135.366l-.41-.8a3.025,3.025,0,0,1,1.7-.476C372.933,1188.654,373.628,1189.21,373.628,1190.4Zm-2.417-2.2h-.835l.967-1.054h1.01l.967,1.054h-.835l-.636-.556Zm1.274,3.2v-.4H371.7c-.535,0-.7.2-.7.461,0,.285.241.477.645.477A.841.841,0,0,0,372.485,1191.408Z" fill="#57574d"/>
          <path id="Path_4071" data-name="Path 4071" d="M379.056,1190.4v2.256h-1.143v-2.08c0-.638-.293-.931-.8-.931-.549,0-.944.338-.944,1.062v1.949h-1.143v-3.941h1.091v.461a1.733,1.733,0,0,1,1.3-.519A1.544,1.544,0,0,1,379.056,1190.4Z" fill="#57574d"/>
          <path id="Path_4072" data-name="Path 4072" d="M386.923,1190.4v2.256H385.78v-2.08c0-.638-.293-.931-.8-.931-.548,0-.944.338-.944,1.062v1.949h-1.142v-3.941h1.09v.461a1.733,1.733,0,0,1,1.305-.519A1.544,1.544,0,0,1,386.923,1190.4Z" fill="#57574d"/>
          <path id="Path_4073" data-name="Path 4073" d="M392.433,1188.712v3.282a1.929,1.929,0,0,1-2.213,2.138,3.25,3.25,0,0,1-1.934-.542l.455-.82a2.358,2.358,0,0,0,1.391.446c.806,0,1.158-.365,1.158-1.076v-.168a1.625,1.625,0,0,1-1.246.49,1.905,1.905,0,1,1,0-3.808,1.584,1.584,0,0,1,1.3.564v-.506Zm-1.129,1.846a1.039,1.039,0,1,0-1.033.967A.957.957,0,0,0,391.3,1190.558Z" fill="#57574d"/>
          <path id="Path_4074" data-name="Path 4074" d="M397.348,1190.4v2.249h-1.07v-.492a1.292,1.292,0,0,1-1.2.55c-.923,0-1.473-.512-1.473-1.194s.492-1.179,1.693-1.179h.908c0-.491-.293-.776-.908-.776a1.9,1.9,0,0,0-1.136.366l-.41-.8a3.029,3.029,0,0,1,1.7-.476C396.651,1188.654,397.348,1189.21,397.348,1190.4Zm-1.143,1v-.4h-.784c-.534,0-.7.2-.7.461,0,.285.242.477.644.477A.843.843,0,0,0,396.2,1191.408Z" fill="#57574d"/>
          <path id="Path_4075" data-name="Path 4075" d="M402.775,1190.4v2.256h-1.142v-2.08c0-.638-.293-.931-.8-.931-.55,0-.945.338-.945,1.062v1.949h-1.143v-3.941h1.092v.461a1.723,1.723,0,0,1,1.3-.519A1.544,1.544,0,0,1,402.775,1190.4Z" fill="#57574d"/>
          <path id="Path_4076" data-name="Path 4076" d="M409.061,1188.654v1.054c-.1-.007-.169-.014-.257-.014a.968.968,0,0,0-1.047,1.1v1.861h-1.143v-3.941h1.092v.52A1.586,1.586,0,0,1,409.061,1188.654Z" fill="#57574d"/>
          <path id="Path_4077" data-name="Path 4077" d="M414.107,1188.712v3.941h-1.084v-.469a1.588,1.588,0,0,1-1.223.527,1.57,1.57,0,0,1-1.684-1.772v-2.227h1.143v2.059c0,.658.293.951.8.951.527,0,.908-.336.908-1.062v-1.948Zm-1.772-.506h-.894l.99-1.054h1.23Z" fill="#57574d"/>
          <path id="Path_4078" data-name="Path 4078" d="M418.077,1192.462a1.634,1.634,0,0,1-.93.249,1.3,1.3,0,0,1-1.472-1.413v-1.619h-.608v-.879h.608v-.959h1.142v.959h.983v.879h-.983v1.6a.46.46,0,0,0,.492.52.776.776,0,0,0,.461-.146Z" fill="#57574d"/>
          <path id="Path_4079" data-name="Path 4079" d="M424.033,1192.653l-.864-1.208-.894,1.208H421.03l1.516-1.986-1.465-1.955h1.282l.835,1.151.858-1.151h1.214l-1.464,1.926,1.523,2.015Z" fill="#57574d"/>
          <path id="Path_4080" data-name="Path 4080" d="M430.149,1189.371v3.282h-1.084v-.469a1.59,1.59,0,0,1-1.222.527,1.571,1.571,0,0,1-1.686-1.772v-2.227H427.3v2.059c0,.658.293.951.8.951.527,0,.908-.336.908-1.062v-1.948h.607a.429.429,0,0,0,.44-.461.7.7,0,0,0-.147-.439l.674-.25a1.18,1.18,0,0,1,.234.732A1.073,1.073,0,0,1,430.149,1189.371Z" fill="#57574d"/>
          <path id="Path_4081" data-name="Path 4081" d="M435.569,1190.683a2.168,2.168,0,1,1-2.152-2.029c.381,0,.6.066.871.066a.436.436,0,0,0,.469-.476.75.75,0,0,0-.154-.44l.667-.249a1.226,1.226,0,0,1,.249.732,1.023,1.023,0,0,1-.557.945A1.946,1.946,0,0,1,435.569,1190.683Zm-1.156,0a1.011,1.011,0,1,0-1,1.091A1,1,0,0,0,434.413,1190.683Z" fill="#57574d"/>
          <path id="Path_4082" data-name="Path 4082" d="M440.727,1190.4v2.256h-1.143v-2.08c0-.638-.293-.931-.8-.931-.55,0-.945.338-.945,1.062v1.949H436.7v-3.941h1.092v.461a1.726,1.726,0,0,1,1.3-.519A1.545,1.545,0,0,1,440.727,1190.4Z" fill="#57574d"/>
          <path id="Path_4083" data-name="Path 4083" d="M446.235,1188.712v3.282a1.929,1.929,0,0,1-2.213,2.138,3.247,3.247,0,0,1-1.933-.542l.455-.82a2.358,2.358,0,0,0,1.391.446c.806,0,1.158-.365,1.158-1.076v-.168a1.626,1.626,0,0,1-1.246.49,1.905,1.905,0,1,1,0-3.808,1.582,1.582,0,0,1,1.3.564v-.506Zm-1.129,1.846a1.038,1.038,0,1,0-1.032.967A.957.957,0,0,0,445.106,1190.558Z" fill="#57574d"/>
          <path id="Path_4084" data-name="Path 4084" d="M449.811,1190.683a2.036,2.036,0,0,1,2.2-2.029,1.808,1.808,0,0,1,1.764,1l-.885.475a.982.982,0,0,0-.886-.542,1.093,1.093,0,0,0,0,2.183.969.969,0,0,0,.886-.542l.885.483a1.826,1.826,0,0,1-1.764,1A2.037,2.037,0,0,1,449.811,1190.683Z" fill="#57574d"/>
          <path id="Path_4085" data-name="Path 4085" d="M458.8,1190.4v2.256h-1.143v-2.08c0-.638-.293-.931-.8-.931-.548,0-.944.338-.944,1.062v1.949H454.77v-5.435h1.142v1.9a1.735,1.735,0,0,1,1.253-.468A1.544,1.544,0,0,1,458.8,1190.4Z" fill="#57574d"/>
          <path id="Path_4086" data-name="Path 4086" d="M463.685,1190.4v2.249h-1.07v-.492a1.29,1.29,0,0,1-1.2.55c-.923,0-1.472-.512-1.472-1.194s.491-1.179,1.692-1.179h.908c0-.491-.293-.776-.908-.776a1.892,1.892,0,0,0-1.135.366l-.41-.8a3.02,3.02,0,0,1,1.7-.476C462.99,1188.654,463.685,1189.21,463.685,1190.4Zm-1.143,1v-.4h-.783c-.535,0-.7.2-.7.461,0,.285.241.477.644.477A.842.842,0,0,0,462.542,1191.408Zm-.41-3.2h-.894l.99-1.054h1.23Z" fill="#57574d"/>
          <path id="Path_4087" data-name="Path 4087" d="M468.922,1188.712l-1.78,4.182a1.625,1.625,0,0,1-1.633,1.238,1.749,1.749,0,0,1-1.1-.359l.417-.813a1,1,0,0,0,.644.249c.316,0,.491-.139.645-.491l.015-.036-1.707-3.97h1.18l1.1,2.674,1.114-2.674Z" fill="#57574d"/>
          <path id="Path_4088" data-name="Path 4088" d="M474.74,1192.462a1.64,1.64,0,0,1-.931.249,1.3,1.3,0,0,1-1.472-1.413v-1.619h-.608v-.879h.608v-.959h1.143v.959h.98v.879h-.98v1.6a.459.459,0,0,0,.49.52.776.776,0,0,0,.461-.146Z" fill="#57574d"/>
          <path id="Path_4089" data-name="Path 4089" d="M475.333,1190.683a2.169,2.169,0,1,1,2.168,2.028A2.028,2.028,0,0,1,475.333,1190.683Zm3.172,0a1.01,1.01,0,1,0-1,1.091A.995.995,0,0,0,478.505,1190.683Zm-1.158-2.783c.286-.133.374-.28.374-.448a.311.311,0,0,0-.345-.307.765.765,0,0,0-.431.14l-.235-.462a1.272,1.272,0,0,1,.791-.249.793.793,0,0,1,.879.783.984.984,0,0,1-.673.924Z" fill="#57574d"/>
          <path id="Path_4090" data-name="Path 4090" d="M480.652,1187.526a.653.653,0,0,1,.71-.638.641.641,0,0,1,.71.615.713.713,0,0,1-1.42.023Zm.139,1.186h1.142v3.941h-1.142Z" fill="#57574d"/>
          <path id="Path_4091" data-name="Path 4091" d="M485.52,1192.245a4.325,4.325,0,0,1,.978-2.774h.668a4.582,4.582,0,0,0-1,2.809,3.816,3.816,0,0,0,.2,1.2h-.614A3.314,3.314,0,0,1,485.52,1192.245Z" fill="#df071b"/>
          <path id="Path_4092" data-name="Path 4092" d="M490.538,1190.9a1.713,1.713,0,0,1-1.87,1.749H487.2l.257-1.295h-.407l.094-.463h.407l.249-1.243h1.257C489.985,1189.652,490.538,1190.136,490.538,1190.9Zm-.7.038c0-.446-.287-.72-.852-.72h-.6l-.133.673H489l-.09.463h-.75l-.147.724h.678A1.077,1.077,0,0,0,489.834,1190.942Z" fill="#df071b"/>
          <path id="Path_4093" data-name="Path 4093" d="M493.716,1190.346l-.458,2.307h-.634l.042-.228a1.023,1.023,0,0,1-.708.262.971.971,0,0,1-.994-1.033,1.282,1.282,0,0,1,1.274-1.342.823.823,0,0,1,.75.347l.06-.313Zm-.874,1.029a.478.478,0,0,0-.527-.51.69.69,0,0,0-.678.758.479.479,0,0,0,.528.511A.69.69,0,0,0,492.842,1191.375Zm-.561,1.848a.312.312,0,0,1-.326.33.256.256,0,0,1-.275-.266.327.327,0,0,1,.326-.321A.26.26,0,0,1,492.281,1193.223Zm-.33-3.726a.344.344,0,0,1,0-.064h.407a.3.3,0,0,0,.339.3.377.377,0,0,0,.4-.3h.434a.819.819,0,0,1-.871.651C492.254,1190.084,491.951,1189.857,491.951,1189.5Z" fill="#df071b"/>
          <path id="Path_4094" data-name="Path 4094" d="M494.134,1191.654a1.331,1.331,0,0,1,1.407-1.342,1.071,1.071,0,0,1,1.038.583l-.567.283a.524.524,0,0,0-.513-.313.7.7,0,0,0-.687.754.484.484,0,0,0,.536.515.639.639,0,0,0,.566-.308l.493.308a1.272,1.272,0,0,1-1.1.553A1.042,1.042,0,0,1,494.134,1191.654Z" fill="#df071b"/>
          <path id="Path_4095" data-name="Path 4095" d="M501.022,1191.345a1.283,1.283,0,0,1-1.277,1.342.829.829,0,0,1-.773-.377l-.068.343h-.635l.635-3.182h.669l-.214,1.072a1.019,1.019,0,0,1,.664-.231A.974.974,0,0,1,501.022,1191.345Zm-.678.03a.477.477,0,0,0-.527-.51.69.69,0,0,0-.673.758.474.474,0,0,0,.523.511A.69.69,0,0,0,500.344,1191.375Z" fill="#df071b"/>
          <path id="Path_4096" data-name="Path 4096" d="M501.9,1190.346h.665l-.459,2.307h-.665Zm.055-.669a.407.407,0,0,1,.443-.4.353.353,0,0,1,.393.334.408.408,0,0,1-.445.412A.359.359,0,0,1,501.958,1189.677Z" fill="#df071b"/>
          <path id="Path_4097" data-name="Path 4097" d="M505.412,1191.679h-1.767c.021.314.215.472.6.472a.95.95,0,0,0,.618-.214l.278.441a1.523,1.523,0,0,1-.965.309,1.041,1.041,0,0,1-1.178-1.033,1.3,1.3,0,0,1,1.359-1.342.989.989,0,0,1,1.1,1.015A1.819,1.819,0,0,1,505.412,1191.679Zm-1.244,1.544a.311.311,0,0,1-.326.33.256.256,0,0,1-.274-.266.327.327,0,0,1,.326-.321A.259.259,0,0,1,504.168,1193.223Zm-.03-3.169h-.5l.653-.617h.586l.485.617h-.476l-.33-.321Zm-.446,1.235h1.145a.459.459,0,0,0-.514-.476A.635.635,0,0,0,503.692,1191.289Z" fill="#df071b"/>
          <path id="Path_4098" data-name="Path 4098" d="M506.763,1191.838a.351.351,0,0,0-.009.094c0,.142.078.224.245.224a.537.537,0,0,0,.27-.082l.1.476a1.1,1.1,0,0,1-.575.137.64.64,0,0,1-.72-.643,1.2,1.2,0,0,1,.021-.2l.185-.931h-.356l.1-.513h.355l.113-.563h.669l-.113.563h.575l-.1.513h-.574Z" fill="#df071b"/>
          <path id="Path_4099" data-name="Path 4099" d="M508.6,1190.676a3.811,3.811,0,0,0-.2-1.205h.613a3.289,3.289,0,0,1,.232,1.239,4.331,4.331,0,0,1-.978,2.775H507.6A4.576,4.576,0,0,0,508.6,1190.676Z" fill="#df071b"/>
          <path id="Path_4100" data-name="Path 4100" d="M352.921,1198.617v.769l-1.9,4.358h-1.289l1.837-4.161h-1.7v.835h-1.054v-1.8Z" fill="#57574d"/>
          <path id="Path_4101" data-name="Path 4101" d="M353.419,1203.084a.711.711,0,0,1,1.421,0,.711.711,0,1,1-1.421,0Z" fill="#57574d"/>
          <path id="Path_4102" data-name="Path 4102" d="M363.168,1203.744l-.007-3.077-1.51,2.535h-.534l-1.5-2.468v3.01H358.5v-5.127h.98l1.92,3.185,1.889-3.185h.975l.014,5.127Z" fill="#57574d"/>
          <path id="Path_4103" data-name="Path 4103" d="M369.644,1201.788c0,.088-.014.212-.022.307h-2.98a1.049,1.049,0,0,0,1.127.791,1.333,1.333,0,0,0,.989-.381l.608.66a2.068,2.068,0,0,1-1.627.637,2.046,2.046,0,0,1-2.248-2.029,2.006,2.006,0,0,1,2.1-2.029A1.951,1.951,0,0,1,369.644,1201.788Zm-2.7-2.49H366.1l.974-.836h1l.975.836H368.2l-.63-.418Zm-.315,2.131h1.941a.984.984,0,0,0-1.941,0Zm2.264-2.834-1.151-.887H368.9l.806.887Z" fill="#57574d"/>
          <path id="Path_4104" data-name="Path 4104" d="M377.24,1201.488v2.256H376.1v-2.081c0-.636-.293-.929-.8-.929-.55,0-.946.336-.946,1.061v1.949h-1.142V1199.8H374.3v.462a1.716,1.716,0,0,1,1.3-.521A1.545,1.545,0,0,1,377.24,1201.488Z" fill="#57574d"/>
          <path id="Path_4105" data-name="Path 4105" d="M382.749,1199.8v3.281a1.929,1.929,0,0,1-2.213,2.139,3.245,3.245,0,0,1-1.933-.542l.455-.82a2.349,2.349,0,0,0,1.39.447c.807,0,1.158-.367,1.158-1.077v-.169a1.621,1.621,0,0,1-1.246.491,1.906,1.906,0,1,1,0-3.809,1.584,1.584,0,0,1,1.305.564v-.505Zm-1.129,1.846a1.038,1.038,0,1,0-1.032.967A.956.956,0,0,0,381.62,1201.649Z" fill="#57574d"/>
          <path id="Path_4106" data-name="Path 4106" d="M387.664,1201.495v2.249H386.6v-.491a1.294,1.294,0,0,1-1.2.549c-.923,0-1.473-.513-1.473-1.193,0-.7.491-1.18,1.692-1.18h.908c0-.49-.293-.776-.908-.776a1.9,1.9,0,0,0-1.135.366l-.411-.8a3.041,3.041,0,0,1,1.7-.476C386.968,1199.744,387.664,1200.3,387.664,1201.495Zm-1.143,1v-.4h-.784c-.534,0-.7.2-.7.462,0,.286.242.476.645.476A.841.841,0,0,0,386.521,1202.5Z" fill="#57574d"/>
          <path id="Path_4107" data-name="Path 4107" d="M393.093,1201.488v2.256H391.95v-2.081c0-.636-.293-.929-.8-.929-.548,0-.944.336-.944,1.061v1.949h-1.143V1199.8h1.091v.462a1.726,1.726,0,0,1,1.3-.521A1.545,1.545,0,0,1,393.093,1201.488Z" fill="#57574d"/>
          <path id="Path_4108" data-name="Path 4108" d="M396.639,1201.773a2.037,2.037,0,0,1,2.2-2.029,1.812,1.812,0,0,1,1.765,1l-.886.477a.984.984,0,0,0-.886-.542,1.093,1.093,0,0,0,0,2.183.971.971,0,0,0,.886-.542l.886.483a1.829,1.829,0,0,1-1.765,1A2.037,2.037,0,0,1,396.639,1201.773Z" fill="#57574d"/>
          <path id="Path_4109" data-name="Path 4109" d="M405.626,1201.488v2.256h-1.143v-2.081c0-.636-.293-.929-.8-.929-.549,0-.945.336-.945,1.061v1.949H401.6v-5.435h1.142v1.9a1.736,1.736,0,0,1,1.253-.469A1.545,1.545,0,0,1,405.626,1201.488Z" fill="#57574d"/>
          <path id="Path_4110" data-name="Path 4110" d="M410.512,1201.495v2.249h-1.07v-.491a1.294,1.294,0,0,1-1.2.549c-.923,0-1.472-.513-1.472-1.193,0-.7.491-1.18,1.692-1.18h.908c0-.49-.293-.776-.908-.776a1.9,1.9,0,0,0-1.136.366l-.41-.8a3.037,3.037,0,0,1,1.7-.476C409.815,1199.744,410.512,1200.3,410.512,1201.495Zm-1.143,1v-.4h-.784c-.534,0-.7.2-.7.462,0,.286.242.476.644.476A.843.843,0,0,0,409.369,1202.5Zm-.41-3.2h-.894l.989-1.054h1.23Z" fill="#57574d"/>
          <path id="Path_4111" data-name="Path 4111" d="M415.749,1199.8l-1.779,4.183a1.628,1.628,0,0,1-1.634,1.237,1.756,1.756,0,0,1-1.1-.358l.418-.814a1.017,1.017,0,0,0,.645.249c.314,0,.49-.139.644-.49l.014-.037-1.706-3.97h1.179l1.106,2.673,1.113-2.673Z" fill="#57574d"/>
          <path id="Path_4112" data-name="Path 4112" d="M421.567,1203.553a1.628,1.628,0,0,1-.93.249,1.3,1.3,0,0,1-1.472-1.414v-1.618h-.608v-.879h.608v-.96h1.143v.96h.98v.879h-.98v1.6a.459.459,0,0,0,.49.52.763.763,0,0,0,.461-.147Z" fill="#57574d"/>
          <path id="Path_4113" data-name="Path 4113" d="M422.16,1201.773a2.169,2.169,0,1,1,2.168,2.029A2.029,2.029,0,0,1,422.16,1201.773Zm3.171,0a1.01,1.01,0,1,0-1,1.092A.994.994,0,0,0,425.331,1201.773Zm-1.156-2.783c.285-.131.373-.278.373-.447a.311.311,0,0,0-.344-.307.786.786,0,0,0-.433.138l-.234-.461a1.276,1.276,0,0,1,.791-.249.794.794,0,0,1,.879.785.983.983,0,0,1-.674.921Z" fill="#57574d"/>
          <path id="Path_4114" data-name="Path 4114" d="M427.478,1198.617a.652.652,0,0,1,.71-.637.642.642,0,0,1,.711.615.714.714,0,0,1-1.421.022Zm.139,1.186h1.143v3.941h-1.143Z" fill="#57574d"/>
          <path id="Path_4115" data-name="Path 4115" d="M353.2,1213.347c0,.967-.863,1.574-2.168,1.574s-2.152-.607-2.152-1.574a1.3,1.3,0,0,1,.775-1.209,1.183,1.183,0,0,1-.592-1.055c0-.9.8-1.464,1.969-1.464,1.18,0,1.986.564,1.986,1.464a1.191,1.191,0,0,1-.6,1.055A1.3,1.3,0,0,1,353.2,1213.347Zm-1.2-.037c0-.454-.373-.733-.967-.733s-.951.279-.951.733.365.74.951.74S352,1213.764,352,1213.31Zm-1.758-2.176c0,.389.309.631.791.631s.807-.242.807-.631-.322-.644-.807-.644S350.239,1210.732,350.239,1211.134Z" fill="#57574d"/>
          <path id="Path_4116" data-name="Path 4116" d="M354.145,1214.174a.71.71,0,0,1,1.42,0,.71.71,0,1,1-1.42,0Z" fill="#57574d"/>
          <path id="Path_4117" data-name="Path 4117" d="M359.228,1209.706h1.187v4.161h2.57v.966h-3.757Z" fill="#57574d"/>
          <path id="Path_4118" data-name="Path 4118" d="M363.616,1212.863a2.168,2.168,0,1,1,2.168,2.029A2.029,2.029,0,0,1,363.616,1212.863Zm.6-3.53h1.23l.99,1.055h-.9Zm2.571,3.53a1.011,1.011,0,1,0-1,1.091A.995.995,0,0,0,366.788,1212.863Z" fill="#57574d"/>
          <path id="Path_4119" data-name="Path 4119" d="M373.1,1212.577v2.256h-1.143v-2.08c0-.636-.293-.929-.8-.929-.55,0-.945.336-.945,1.061v1.948h-1.143v-3.94h1.092v.462a1.72,1.72,0,0,1,1.3-.521A1.545,1.545,0,0,1,373.1,1212.577Z" fill="#57574d"/>
          <path id="Path_4120" data-name="Path 4120" d="M378.61,1210.893v3.281a1.929,1.929,0,0,1-2.213,2.139,3.247,3.247,0,0,1-1.933-.542l.455-.82a2.352,2.352,0,0,0,1.391.447c.806,0,1.158-.367,1.158-1.077v-.169a1.623,1.623,0,0,1-1.246.491,1.906,1.906,0,1,1,0-3.809,1.582,1.582,0,0,1,1.3.564v-.505Zm-1.129,1.846a1.039,1.039,0,1,0-1.032.966A.956.956,0,0,0,377.481,1212.739Z" fill="#57574d"/>
          <path id="Path_4121" data-name="Path 4121" d="M389.136,1212.577v2.256h-1.143v-2.08c0-.636-.285-.929-.746-.929-.514,0-.872.329-.872,1.032v1.977h-1.143v-2.08c0-.636-.27-.929-.747-.929-.506,0-.864.329-.864,1.032v1.977h-1.143v-3.94h1.091v.454a1.6,1.6,0,0,1,1.239-.513,1.471,1.471,0,0,1,1.3.645,1.772,1.772,0,0,1,1.42-.645A1.526,1.526,0,0,1,389.136,1212.577Z" fill="#57574d"/>
          <path id="Path_4122" data-name="Path 4122" d="M394.435,1212.878c0,.088-.016.212-.023.307h-2.981a1.051,1.051,0,0,0,1.129.791,1.334,1.334,0,0,0,.988-.381l.607.66a2.3,2.3,0,0,1-3.874-1.392,2.007,2.007,0,0,1,2.1-2.029A1.952,1.952,0,0,1,394.435,1212.878Zm-2.7-2.49h-.841l.973-.836h1l.974.836h-.842l-.63-.418Zm-.314,2.131h1.94a.984.984,0,0,0-1.94,0Zm2.263-2.834-1.15-.887h1.164l.806.887Z" fill="#57574d"/>
          <path id="Path_4123" data-name="Path 4123" d="M400.507,1214.833l-.864-1.209-.894,1.209H397.5l1.516-1.984-1.464-1.956h1.281l.835,1.149.856-1.149h1.217l-1.465,1.927,1.524,2.013Z" fill="#57574d"/>
          <path id="Path_4124" data-name="Path 4124" d="M406.14,1212.585v2.248h-1.07v-.49a1.292,1.292,0,0,1-1.2.549c-.923,0-1.472-.513-1.472-1.193,0-.7.491-1.18,1.692-1.18H405c0-.49-.293-.776-.908-.776a1.891,1.891,0,0,0-1.135.366l-.41-.8a3.03,3.03,0,0,1,1.7-.476C405.444,1210.834,406.14,1211.391,406.14,1212.585Zm-2.007-2.2-1.325-1.055h1.23l.988,1.055Zm.864,3.2v-.4h-.783c-.535,0-.7.2-.7.462,0,.286.241.475.644.475A.841.841,0,0,0,405,1213.588Z" fill="#57574d"/>
          <path id="Path_4125" data-name="Path 4125" d="M407.29,1212.863a2.168,2.168,0,1,1,2.168,2.029A2.029,2.029,0,0,1,407.29,1212.863Zm3.172,0a1.011,1.011,0,1,0-1,1.091A.995.995,0,0,0,410.462,1212.863Z" fill="#57574d"/>
          <path id="Path_4126" data-name="Path 4126" d="M419.215,1212.577v2.256h-1.143v-2.08c0-.636-.293-.929-.8-.929-.549,0-.945.336-.945,1.061v1.948h-1.142V1209.4h1.142v1.9a1.731,1.731,0,0,1,1.252-.469A1.545,1.545,0,0,1,419.215,1212.577Z" fill="#57574d"/>
          <path id="Path_4127" data-name="Path 4127" d="M424.1,1212.585v2.248h-1.07v-.49a1.292,1.292,0,0,1-1.2.549c-.923,0-1.472-.513-1.472-1.193,0-.7.491-1.18,1.692-1.18h.908c0-.49-.293-.776-.908-.776a1.891,1.891,0,0,0-1.135.366l-.41-.8a3.03,3.03,0,0,1,1.7-.476C423.4,1210.834,424.1,1211.391,424.1,1212.585Zm-2.007-2.2-1.325-1.055H422l.988,1.055Zm.864,3.2v-.4h-.783c-.535,0-.7.2-.7.462,0,.286.241.475.644.475A.841.841,0,0,0,422.958,1213.588Z" fill="#57574d"/>
          <path id="Path_4128" data-name="Path 4128" d="M429.528,1212.577v2.256h-1.142v-2.08c0-.636-.293-.929-.8-.929-.549,0-.944.336-.944,1.061v1.948H425.5v-3.94h1.091v.462a1.722,1.722,0,0,1,1.3-.521A1.545,1.545,0,0,1,429.528,1212.577Z" fill="#57574d"/>
          <path id="Path_4129" data-name="Path 4129" d="M434.956,1212.577v2.256h-1.143v-2.08c0-.636-.293-.929-.8-.929-.549,0-.945.336-.945,1.061v1.948h-1.142V1209.4h1.142v1.9a1.731,1.731,0,0,1,1.253-.469A1.545,1.545,0,0,1,434.956,1212.577Z" fill="#57574d"/>
          <path id="Path_4130" data-name="Path 4130" d="M442.823,1212.577v2.256h-1.142v-2.08c0-.636-.293-.929-.8-.929-.549,0-.945.336-.945,1.061v1.948H438.8v-3.94h1.091v.462a1.723,1.723,0,0,1,1.3-.521A1.545,1.545,0,0,1,442.823,1212.577Z" fill="#57574d"/>
          <path id="Path_4131" data-name="Path 4131" d="M447.709,1212.585v2.248H446.64v-.49a1.3,1.3,0,0,1-1.2.549c-.922,0-1.472-.513-1.472-1.193,0-.7.491-1.18,1.692-1.18h.908c0-.49-.293-.776-.908-.776a1.9,1.9,0,0,0-1.136.366l-.41-.8a3.041,3.041,0,0,1,1.7-.476C447.013,1210.834,447.709,1211.391,447.709,1212.585Zm-2.409-2.2h-.843l.974-.836h1l.974.836h-.841l-.631-.418Zm1.266,3.2v-.4h-.784c-.534,0-.7.2-.7.462,0,.286.242.475.645.475A.841.841,0,0,0,446.566,1213.588Zm1.07-3.9h-.828l.813-.887h1.165Z" fill="#57574d"/>
          <path id="Path_4132" data-name="Path 4132" d="M455.767,1212.577v2.256h-1.143v-2.08c0-.636-.286-.929-.748-.929-.512,0-.871.329-.871,1.032v1.977h-1.143v-2.08c0-.636-.271-.929-.747-.929-.505,0-.864.329-.864,1.032v1.977h-1.143v-3.94H450.2v.454a1.6,1.6,0,0,1,1.237-.513,1.466,1.466,0,0,1,1.3.645,1.776,1.776,0,0,1,1.422-.645A1.526,1.526,0,0,1,455.767,1212.577Z" fill="#57574d"/>
          <path id="Path_4133" data-name="Path 4133" d="M353,1223.251a2.493,2.493,0,0,1-2.615,2.761,2.729,2.729,0,0,1-1.42-.352l.439-.872a1.646,1.646,0,0,0,.959.257,1.368,1.368,0,0,0,1.444-1.494,1.759,1.759,0,0,1-1.276.462,1.627,1.627,0,0,1-1.764-1.6,1.762,1.762,0,0,1,1.94-1.706C352.13,1220.709,353,1221.595,353,1223.251Zm-1.326-.894c0-.44-.329-.762-.893-.762a.771.771,0,1,0,.014,1.531A.8.8,0,0,0,351.675,1222.357Z" fill="#57574d"/>
          <path id="Path_4134" data-name="Path 4134" d="M353.808,1225.265a.71.71,0,0,1,1.42,0,.71.71,0,1,1-1.42,0Z" fill="#57574d"/>
          <path id="Path_4135" data-name="Path 4135" d="M358.892,1220.8h1.185v4.16h2.571v.967h-3.756Z" fill="#57574d"/>
          <path id="Path_4136" data-name="Path 4136" d="M363.279,1223.954a2.169,2.169,0,1,1,2.168,2.029A2.028,2.028,0,0,1,363.279,1223.954Zm.6-3.531h1.23l.989,1.055h-.893Zm2.57,3.531a1.01,1.01,0,1,0-1,1.091A.994.994,0,0,0,366.45,1223.954Z" fill="#57574d"/>
          <path id="Path_4137" data-name="Path 4137" d="M372.765,1223.668v2.256h-1.143v-2.08c0-.638-.293-.931-.8-.931-.549,0-.944.338-.944,1.063v1.948h-1.143v-3.94h1.091v.461a1.733,1.733,0,0,1,1.3-.52A1.544,1.544,0,0,1,372.765,1223.668Z" fill="#57574d"/>
          <path id="Path_4138" data-name="Path 4138" d="M378.272,1221.984v3.281a1.928,1.928,0,0,1-2.21,2.139,3.249,3.249,0,0,1-1.934-.542l.453-.821a2.361,2.361,0,0,0,1.393.447c.8,0,1.156-.366,1.156-1.077v-.167a1.623,1.623,0,0,1-1.244.49,1.906,1.906,0,1,1,0-3.809,1.577,1.577,0,0,1,1.3.565v-.506Zm-1.127,1.845a1.039,1.039,0,1,0-1.033.967A.957.957,0,0,0,377.145,1223.829Z" fill="#57574d"/>
          <path id="Path_4139" data-name="Path 4139" d="M388.8,1223.668v2.256h-1.143v-2.08c0-.638-.286-.931-.748-.931-.512,0-.871.331-.871,1.034v1.977h-1.143v-2.08c0-.638-.271-.931-.747-.931-.5,0-.864.331-.864,1.034v1.977h-1.142v-3.94h1.091v.454a1.6,1.6,0,0,1,1.238-.513,1.471,1.471,0,0,1,1.3.645,1.772,1.772,0,0,1,1.421-.645A1.526,1.526,0,0,1,388.8,1223.668Z" fill="#57574d"/>
          <path id="Path_4140" data-name="Path 4140" d="M394.1,1223.968c0,.088-.014.213-.022.309H391.1a1.05,1.05,0,0,0,1.127.791,1.337,1.337,0,0,0,.989-.381l.608.658a2.3,2.3,0,0,1-3.875-1.391,2.006,2.006,0,0,1,2.1-2.029A1.951,1.951,0,0,1,394.1,1223.968Zm-2.7-2.49h-.843l.974-.834h1l.975.834h-.843l-.63-.417Zm-.316,2.132h1.941a.984.984,0,0,0-1.941,0Zm2.264-2.835-1.151-.886h1.165l.806.886Z" fill="#57574d"/>
          <path id="Path_4141" data-name="Path 4141" d="M400.206,1225.734a1.634,1.634,0,0,1-.93.249,1.3,1.3,0,0,1-1.472-1.413v-1.619H397.2v-.879h.608v-.959h1.142v.959h.983v.879h-.983v1.6a.46.46,0,0,0,.491.521.774.774,0,0,0,.462-.147Z" fill="#57574d"/>
          <path id="Path_4142" data-name="Path 4142" d="M403.664,1221.925v1.055c-.1-.008-.169-.015-.257-.015a.969.969,0,0,0-1.047,1.1v1.86h-1.142v-3.94h1.092v.519A1.586,1.586,0,0,1,403.664,1221.925Z" fill="#57574d"/>
          <path id="Path_4143" data-name="Path 4143" d="M408.176,1223.675v2.249h-1.07v-.491a1.293,1.293,0,0,1-1.2.55c-.923,0-1.472-.513-1.472-1.2s.491-1.178,1.692-1.178h.908c0-.491-.293-.777-.908-.777a1.894,1.894,0,0,0-1.136.367l-.41-.8a3.022,3.022,0,0,1,1.7-.477C407.479,1221.925,408.176,1222.482,408.176,1223.675Zm-2.409-2.2h-.843l.973-.834h1l.974.834h-.842l-.631-.417Zm1.266,3.2v-.4h-.784c-.534,0-.7.2-.7.461,0,.285.242.476.644.476A.843.843,0,0,0,407.033,1224.679Zm.681-3.9-1.15-.886h1.165l.8.886Z" fill="#57574d"/>
          <path id="Path_4144" data-name="Path 4144" d="M413.6,1223.668v2.256h-1.142v-2.08c0-.638-.293-.931-.8-.931-.55,0-.945.338-.945,1.063v1.948h-1.143v-3.94h1.092v.461a1.727,1.727,0,0,1,1.3-.52A1.544,1.544,0,0,1,413.6,1223.668Z" fill="#57574d"/>
          <path id="Path_4145" data-name="Path 4145" d="M421.507,1221.984v3.281a1.929,1.929,0,0,1-2.211,2.139,3.251,3.251,0,0,1-1.934-.542l.453-.821a2.361,2.361,0,0,0,1.393.447c.8,0,1.156-.366,1.156-1.077v-.167a1.622,1.622,0,0,1-1.244.49,1.906,1.906,0,1,1,0-3.809,1.581,1.581,0,0,1,1.3.565v-.506Zm-1.127,1.845a1.039,1.039,0,1,0-1.033.967A.957.957,0,0,0,420.38,1223.829Z" fill="#57574d"/>
          <path id="Path_4146" data-name="Path 4146" d="M422.8,1220.8a.653.653,0,0,1,.71-.637.64.64,0,0,1,.71.615.713.713,0,0,1-1.42.022Zm.139,1.187h1.142v3.94h-1.142Z" fill="#57574d"/>
          <path id="Path_4147" data-name="Path 4147" d="M428.994,1223.675v2.249h-1.069v-.491a1.294,1.294,0,0,1-1.2.55c-.923,0-1.473-.513-1.473-1.2s.491-1.178,1.692-1.178h.909c0-.491-.293-.777-.909-.777a1.89,1.89,0,0,0-1.135.367l-.411-.8a3.025,3.025,0,0,1,1.7-.477C428.3,1221.925,428.994,1222.482,428.994,1223.675Zm-1.142,1v-.4h-.785c-.534,0-.7.2-.7.461,0,.285.242.476.645.476A.843.843,0,0,0,427.852,1224.679Zm-.411-3.2h-.893l.988-1.055h1.231Z" fill="#57574d"/>
          <path id="Path_4148" data-name="Path 4148" d="M350.884,1231.887v5.127H349.7v-4.175h-1.025v-.952Z" fill="#57574d"/>
          <path id="Path_4149" data-name="Path 4149" d="M352.144,1234.451c0-1.692.937-2.652,2.2-2.652s2.2.96,2.2,2.652-.93,2.651-2.2,2.651S352.144,1236.142,352.144,1234.451Zm3.2,0c0-1.165-.41-1.649-1-1.649s-1,.484-1,1.649.41,1.648,1,1.648S355.345,1235.615,355.345,1234.451Z" fill="#57574d"/>
          <path id="Path_4150" data-name="Path 4150" d="M357.353,1236.355a.71.71,0,0,1,1.42,0,.71.71,0,1,1-1.42,0Z" fill="#57574d"/>
          <path id="Path_4151" data-name="Path 4151" d="M367.1,1237.014l-.007-3.076-1.51,2.534h-.534l-1.5-2.469v3.011h-1.113v-5.127h.98l1.92,3.187,1.889-3.187h.974l.015,5.127Z" fill="#57574d"/>
          <path id="Path_4152" data-name="Path 4152" d="M369.579,1231.887a.654.654,0,0,1,.71-.638.641.641,0,0,1,.71.616.713.713,0,0,1-1.42.022Zm.139,1.187h1.142v3.94h-1.142Z" fill="#57574d"/>
          <path id="Path_4153" data-name="Path 4153" d="M376.149,1235.058c0,.088-.015.213-.022.309h-2.982a1.053,1.053,0,0,0,1.129.791,1.34,1.34,0,0,0,.989-.381l.607.658a2.3,2.3,0,0,1-3.874-1.391,2.007,2.007,0,0,1,2.1-2.029A1.95,1.95,0,0,1,376.149,1235.058Zm-2.7-2.49H372.6l.974-.834h1l.974.834h-.842l-.63-.417Zm-.314,2.132h1.94a.984.984,0,0,0-1.94,0Zm2.65-2.835h-.827l.814-.886h1.164Z" fill="#57574d"/>
          <path id="Path_4154" data-name="Path 4154" d="M381.306,1234.758v2.256h-1.143v-2.08c0-.638-.293-.931-.8-.931-.549,0-.944.338-.944,1.063v1.948h-1.143v-3.94h1.091v.461a1.733,1.733,0,0,1,1.3-.52A1.545,1.545,0,0,1,381.306,1234.758Z" fill="#57574d"/>
          <path id="Path_4155" data-name="Path 4155" d="M387.65,1237.014l-.864-1.208-.893,1.208h-1.246l1.516-1.985-1.465-1.955h1.282l.835,1.15.858-1.15h1.215L387.423,1235l1.523,2.015Z" fill="#57574d"/>
          <path id="Path_4156" data-name="Path 4156" d="M393.283,1234.765v2.249h-1.069v-.491a1.294,1.294,0,0,1-1.2.55c-.923,0-1.473-.513-1.473-1.195s.491-1.178,1.692-1.178h.909c0-.492-.293-.777-.909-.777a1.9,1.9,0,0,0-1.135.366l-.41-.8a3.02,3.02,0,0,1,1.7-.477C392.587,1233.015,393.283,1233.572,393.283,1234.765Zm-2.007-2.2-1.326-1.055h1.231l.989,1.055Zm.865,3.2v-.4h-.785c-.534,0-.7.2-.7.46,0,.286.242.477.645.477A.843.843,0,0,0,392.141,1235.769Z" fill="#57574d"/>
          <path id="Path_4157" data-name="Path 4157" d="M394.434,1235.044a2.169,2.169,0,1,1,2.168,2.029A2.028,2.028,0,0,1,394.434,1235.044Zm3.17,0a1.01,1.01,0,1,0-1,1.091A.994.994,0,0,0,397.6,1235.044Z" fill="#57574d"/>
          <path id="Path_4158" data-name="Path 4158" d="M402.33,1231.579h1.143v5.435H402.33Z" fill="#57574d"/>
          <path id="Path_4159" data-name="Path 4159" d="M404.608,1235.044a2.169,2.169,0,1,1,2.168,2.029A2.029,2.029,0,0,1,404.608,1235.044Zm.6-3.531h1.23l.99,1.055h-.895Zm2.571,3.531a1.01,1.01,0,1,0-1,1.091A1,1,0,0,0,407.78,1235.044Z" fill="#57574d"/>
          <path id="Path_4160" data-name="Path 4160" d="M414.094,1234.758v2.256h-1.143v-2.08c0-.638-.293-.931-.8-.931-.55,0-.945.338-.945,1.063v1.948h-1.143v-3.94h1.092v.461a1.727,1.727,0,0,1,1.3-.52A1.545,1.545,0,0,1,414.094,1234.758Z" fill="#57574d"/>
          <path id="Path_4161" data-name="Path 4161" d="M419.6,1233.074v3.281a1.929,1.929,0,0,1-2.213,2.139,3.257,3.257,0,0,1-1.934-.542l.455-.821a2.351,2.351,0,0,0,1.391.446c.806,0,1.158-.365,1.158-1.076v-.168a1.626,1.626,0,0,1-1.246.491,1.906,1.906,0,1,1,0-3.809,1.587,1.587,0,0,1,1.305.564v-.505Zm-1.129,1.845a1.039,1.039,0,1,0-1.033.967A.957.957,0,0,0,418.474,1234.919Z" fill="#57574d"/>
          <path id="Path_4162" data-name="Path 4162" d="M430.128,1234.758v2.256h-1.143v-2.08c0-.638-.285-.931-.746-.931-.513,0-.872.33-.872,1.033v1.978h-1.142v-2.08c0-.638-.271-.931-.747-.931-.506,0-.865.33-.865,1.033v1.978h-1.142v-3.94h1.091v.454a1.594,1.594,0,0,1,1.238-.513,1.475,1.475,0,0,1,1.3.645,1.769,1.769,0,0,1,1.42-.645A1.526,1.526,0,0,1,430.128,1234.758Z" fill="#57574d"/>
          <path id="Path_4163" data-name="Path 4163" d="M435.425,1235.058c0,.088-.014.213-.022.309h-2.98a1.05,1.05,0,0,0,1.127.791,1.335,1.335,0,0,0,.989-.381l.608.658a2.3,2.3,0,0,1-3.875-1.391,2.006,2.006,0,0,1,2.1-2.029A1.95,1.95,0,0,1,435.425,1235.058Zm-2.7-2.49h-.843l.974-.834h1l.974.834h-.843l-.629-.417Zm-.316,2.132h1.942a.985.985,0,0,0-1.942,0Zm2.264-2.835-1.151-.886h1.166l.8.886Z" fill="#57574d"/>
          <path id="Path_4164" data-name="Path 4164" d="M350.884,1242.978v5.127H349.7v-4.175h-1.025v-.952Z" fill="#57574d"/>
          <path id="Path_4165" data-name="Path 4165" d="M354.122,1242.978v5.127h-1.187v-4.175h-1.026v-.952Z" fill="#57574d"/>
          <path id="Path_4166" data-name="Path 4166" d="M355.345,1247.446a.711.711,0,0,1,1.421,0,.711.711,0,1,1-1.421,0Z" fill="#57574d"/>
          <path id="Path_4167" data-name="Path 4167" d="M360.106,1245.541A2.824,2.824,0,0,1,365,1243.8l-.762.7a1.651,1.651,0,0,0-1.289-.6,1.641,1.641,0,0,0,0,3.281,1.634,1.634,0,0,0,1.289-.608l.762.7a2.818,2.818,0,0,1-4.893-1.736Z" fill="#57574d"/>
          <path id="Path_4168" data-name="Path 4168" d="M369.54,1245.857v2.248h-1.069v-.49a1.293,1.293,0,0,1-1.2.548c-.923,0-1.472-.512-1.472-1.193s.49-1.18,1.691-1.18h.908c0-.49-.293-.776-.908-.776a1.9,1.9,0,0,0-1.135.366l-.41-.8a3.041,3.041,0,0,1,1.7-.475C368.845,1244.106,369.54,1244.662,369.54,1245.857Zm-1.143,1v-.4h-.783c-.535,0-.7.2-.7.462,0,.286.241.476.645.476A.84.84,0,0,0,368.4,1246.86Z" fill="#57574d"/>
          <path id="Path_4169" data-name="Path 4169" d="M374.968,1245.849v2.256h-1.143v-2.08c0-.637-.293-.93-.8-.93-.548,0-.944.336-.944,1.062v1.948h-1.143v-3.941h1.091v.462a1.726,1.726,0,0,1,1.3-.52A1.544,1.544,0,0,1,374.968,1245.849Z" fill="#57574d"/>
          <path id="Path_4170" data-name="Path 4170" d="M380.395,1245.849v2.256h-1.142v-2.08c0-.637-.293-.93-.8-.93-.549,0-.944.336-.944,1.062v1.948h-1.143v-5.435h1.143v1.9a1.73,1.73,0,0,1,1.253-.469A1.544,1.544,0,0,1,380.395,1245.849Z" fill="#57574d"/>
          <path id="Path_4171" data-name="Path 4171" d="M390.894,1245.849v2.256h-1.143v-2.08c0-.637-.286-.93-.748-.93-.512,0-.871.329-.871,1.032v1.978h-1.143v-2.08c0-.637-.271-.93-.747-.93-.505,0-.864.329-.864,1.032v1.978h-1.143v-3.941h1.092v.455a1.6,1.6,0,0,1,1.237-.513,1.468,1.468,0,0,1,1.3.644,1.774,1.774,0,0,1,1.422-.644A1.526,1.526,0,0,1,390.894,1245.849Z" fill="#57574d"/>
          <path id="Path_4172" data-name="Path 4172" d="M395.772,1245.857v2.248H394.7v-.49a1.293,1.293,0,0,1-1.2.548c-.923,0-1.472-.512-1.472-1.193s.49-1.18,1.692-1.18h.908c0-.49-.293-.776-.908-.776a1.9,1.9,0,0,0-1.135.366l-.41-.8a3.035,3.035,0,0,1,1.7-.475C395.077,1244.106,395.772,1244.662,395.772,1245.857Zm-3.127-3.252h.717a.642.642,0,0,0,1.26,0h.719a1.373,1.373,0,0,1-2.7,0Zm1.985,4.255v-.4h-.783c-.535,0-.7.2-.7.462,0,.286.241.476.644.476A.842.842,0,0,0,394.63,1246.86Z" fill="#57574d"/>
          <path id="Path_4173" data-name="Path 4173" d="M401.2,1245.849v2.256h-1.142v-2.08c0-.637-.293-.93-.8-.93-.549,0-.945.336-.945,1.062v1.948h-1.142v-3.941h1.091v.462a1.722,1.722,0,0,1,1.3-.52A1.545,1.545,0,0,1,401.2,1245.849Z" fill="#57574d"/>
          <path id="Path_4174" data-name="Path 4174" d="M406.708,1244.164v3.282a1.928,1.928,0,0,1-2.211,2.138,3.237,3.237,0,0,1-1.934-.542l.454-.82a2.349,2.349,0,0,0,1.392.447c.8,0,1.156-.367,1.156-1.077v-.169a1.617,1.617,0,0,1-1.244.491,1.905,1.905,0,1,1,0-3.808,1.579,1.579,0,0,1,1.3.563v-.505Zm-1.127,1.846a1.039,1.039,0,1,0-1.033.967A.957.957,0,0,0,405.581,1246.01Z" fill="#57574d"/>
          <path id="Path_4175" data-name="Path 4175" d="M413.118,1247.914a1.626,1.626,0,0,1-.93.249,1.3,1.3,0,0,1-1.472-1.414v-1.618h-.608v-.879h.608v-.96h1.142v.96h.983v.879h-.983v1.6a.46.46,0,0,0,.492.519.773.773,0,0,0,.462-.146Z" fill="#57574d"/>
          <path id="Path_4176" data-name="Path 4176" d="M413.991,1242.978a.652.652,0,0,1,.71-.637.641.641,0,0,1,.71.615.713.713,0,0,1-1.42.022Zm.139,1.186h1.142v3.941H414.13Z" fill="#57574d"/>
          <path id="Path_4177" data-name="Path 4177" d="M420.562,1246.15c0,.088-.016.212-.023.306h-2.981a1.05,1.05,0,0,0,1.129.791,1.338,1.338,0,0,0,.988-.38l.607.66a2.3,2.3,0,0,1-3.874-1.393,2.006,2.006,0,0,1,2.1-2.028A1.951,1.951,0,0,1,420.562,1246.15Zm-2.7-2.49h-.841l.973-.836h1l.974.836h-.842l-.63-.418Zm-.314,2.13h1.94a.984.984,0,0,0-1.94,0Zm2.65-2.834h-.827l.814-.886h1.164Z" fill="#57574d"/>
          <path id="Path_4178" data-name="Path 4178" d="M424.231,1247.914a1.628,1.628,0,0,1-.93.249,1.3,1.3,0,0,1-1.472-1.414v-1.618h-.608v-.879h.608v-.96h1.143v.96h.98v.879h-.98v1.6a.459.459,0,0,0,.49.519.77.77,0,0,0,.461-.146Z" fill="#57574d"/>
          <path id="Path_4179" data-name="Path 4179" d="M427.763,1242.67h1.984v.894H428.9v5.068h.842v.894h-1.984Z" fill="#57574d"/>
          <path id="Path_4180" data-name="Path 4180" d="M435.131,1246.091l-.689.717v1.3h-1.179v-5.127h1.179v2.394l2.271-2.394h1.318l-2.124,2.285,2.248,2.842h-1.384Z" fill="#57574d"/>
          <path id="Path_4181" data-name="Path 4181" d="M442.646,1246.456h-2.981a1.05,1.05,0,0,0,1.129.791,1.335,1.335,0,0,0,.988-.38l.608.66a2.3,2.3,0,0,1-3.874-1.393,2.006,2.006,0,0,1,2.1-2.028,1.951,1.951,0,0,1,2.051,2.044C442.669,1246.238,442.653,1246.362,442.646,1246.456Zm-2.278-2.8-1.325-1.055h1.23l.99,1.055Zm-.717,2.13h1.941a.984.984,0,0,0-1.941,0Z" fill="#57574d"/>
          <path id="Path_4182" data-name="Path 4182" d="M450.454,1245.849v2.256h-1.142v-2.08c0-.637-.286-.93-.747-.93-.513,0-.872.329-.872,1.032v1.978h-1.142v-2.08c0-.637-.271-.93-.747-.93-.506,0-.865.329-.865,1.032v1.978H443.8v-3.941h1.091v.455a1.6,1.6,0,0,1,1.238-.513,1.473,1.473,0,0,1,1.3.644,1.768,1.768,0,0,1,1.42-.644A1.526,1.526,0,0,1,450.454,1245.849Z" fill="#57574d"/>
          <path id="Path_4183" data-name="Path 4183" d="M458.58,1246.134a1.913,1.913,0,0,1-1.963,2.029,1.529,1.529,0,0,1-1.237-.512v.454h-1.092v-5.435h1.143v1.911a1.528,1.528,0,0,1,1.186-.475A1.913,1.913,0,0,1,458.58,1246.134Zm-1.157,0a1.007,1.007,0,1,0-1,1.092A.994.994,0,0,0,457.423,1246.134Z" fill="#57574d"/>
          <path id="Path_4184" data-name="Path 4184" d="M463.679,1244.164v3.941H462.6v-.469a1.6,1.6,0,0,1-1.223.527,1.57,1.57,0,0,1-1.685-1.772v-2.227h1.142v2.058c0,.66.293.953.8.953.527,0,.908-.338.908-1.062v-1.949Zm-1.773-.5h-.893L462,1242.6h1.231Z" fill="#57574d"/>
          <path id="Path_4185" data-name="Path 4185" d="M469.136,1245.849v2.256h-1.142v-2.08c0-.637-.293-.93-.8-.93-.549,0-.945.336-.945,1.062v1.948h-1.142v-3.941H466.2v.462a1.722,1.722,0,0,1,1.3-.52A1.544,1.544,0,0,1,469.136,1245.849Z" fill="#57574d"/>
          <path id="Path_4186" data-name="Path 4186" d="M472.558,1249.526v-.894h.834v-5.068h-.834v-.894h1.977v6.856Z" fill="#57574d"/>
        </g>
      </g>
      <g id="Group_366" data-name="Group 366">
        <g id="Group_365" data-name="Group 365">
          <path id="Path_4187" data-name="Path 4187" d="M557.728,1135.59c0,.908-.666,1.7-2.131,1.7a3.548,3.548,0,0,1-1.956-.549l.469-.909a2.468,2.468,0,0,0,1.458.462c.593,0,.959-.249.959-.667,0-.4-.264-.666-1.194-.666h-1.311l.264-2.885h3.128v.952h-2.139l-.081.974h.417C557.127,1134,557.728,1134.682,557.728,1135.59Z" fill="#df071b"/>
          <path id="Path_4188" data-name="Path 4188" d="M562.416,1135.59c0,.908-.667,1.7-2.131,1.7a3.546,3.546,0,0,1-1.955-.549l.468-.909a2.47,2.47,0,0,0,1.457.462c.594,0,.96-.249.96-.667,0-.4-.263-.666-1.194-.666H558.71l.264-2.885H562.1v.952h-2.139l-.08.974h.418C561.816,1134,562.416,1134.682,562.416,1135.59Z" fill="#df071b"/>
          <path id="Path_4189" data-name="Path 4189" d="M563.23,1136.542a.711.711,0,0,1,1.421,0,.711.711,0,1,1-1.421,0Z" fill="#df071b"/>
          <path id="Path_4190" data-name="Path 4190" d="M565.457,1134.638c0-1.691.937-2.651,2.2-2.651s2.2.96,2.2,2.651-.931,2.651-2.2,2.651S565.457,1136.329,565.457,1134.638Zm3.2,0c0-1.164-.41-1.648-1-1.648s-1,.484-1,1.648.41,1.648,1,1.648S568.657,1135.8,568.657,1134.638Z" fill="#df071b"/>
          <path id="Path_4191" data-name="Path 4191" d="M570.8,1134.638c0-1.691.938-2.651,2.2-2.651s2.2.96,2.2,2.651-.931,2.651-2.2,2.651S570.8,1136.329,570.8,1134.638Zm3.2,0c0-1.164-.411-1.648-1-1.648s-1,.484-1,1.648.41,1.648,1,1.648S574,1135.8,574,1134.638Z" fill="#df071b"/>
          <path id="Path_4192" data-name="Path 4192" d="M576.136,1134.638c0-1.691.938-2.651,2.2-2.651s2.2.96,2.2,2.651-.931,2.651-2.2,2.651S576.136,1136.329,576.136,1134.638Zm3.2,0c0-1.164-.41-1.648-1-1.648s-1,.484-1,1.648.411,1.648,1,1.648S579.336,1135.8,579.336,1134.638Z" fill="#df071b"/>
          <path id="Path_4193" data-name="Path 4193" d="M586.265,1132.859h-.534v4.343H584.64v-.455a1.517,1.517,0,0,1-1.23.513,2.03,2.03,0,0,1,0-4.058,1.516,1.516,0,0,1,1.178.477v-.82h-1.34v-.66h1.34v-.432h1.143v.432h.534Zm-1.654,2.373a1.011,1.011,0,1,0-1,1.091A1,1,0,0,0,584.611,1135.232Z" fill="#df071b"/>
          <path id="Path_4194" data-name="Path 4194" d="M557.838,1147.214H557v1.077h-1.157v-1.077h-2.761v-.8l2.416-3.252h1.247l-2.243,3.083h1.377v-.959H557v.959h.835Z" fill="#df071b"/>
          <path id="Path_4195" data-name="Path 4195" d="M562.416,1146.68c0,.908-.667,1.7-2.131,1.7a3.538,3.538,0,0,1-1.955-.55l.468-.908a2.47,2.47,0,0,0,1.457.462c.594,0,.96-.249.96-.667,0-.4-.263-.666-1.194-.666H558.71l.264-2.886H562.1v.953h-2.139l-.08.974h.418C561.816,1145.091,562.416,1145.772,562.416,1146.68Z" fill="#df071b"/>
          <path id="Path_4196" data-name="Path 4196" d="M563.23,1147.632a.711.711,0,0,1,1.421,0,.711.711,0,1,1-1.421,0Z" fill="#df071b"/>
          <path id="Path_4197" data-name="Path 4197" d="M565.457,1145.728c0-1.692.937-2.651,2.2-2.651s2.2.959,2.2,2.651-.93,2.651-2.2,2.651S565.457,1147.419,565.457,1145.728Zm3.2,0c0-1.164-.41-1.649-1-1.649s-1,.485-1,1.649.41,1.648,1,1.648S568.658,1146.892,568.658,1145.728Z" fill="#df071b"/>
          <path id="Path_4198" data-name="Path 4198" d="M570.8,1145.728c0-1.692.938-2.651,2.2-2.651s2.2.959,2.2,2.651-.93,2.651-2.2,2.651S570.8,1147.419,570.8,1145.728Zm3.2,0c0-1.164-.411-1.649-1-1.649s-1,.485-1,1.649.41,1.648,1,1.648S574,1146.892,574,1145.728Z" fill="#df071b"/>
          <path id="Path_4199" data-name="Path 4199" d="M576.136,1145.728c0-1.692.938-2.651,2.2-2.651s2.2.959,2.2,2.651-.93,2.651-2.2,2.651S576.136,1147.419,576.136,1145.728Zm3.2,0c0-1.164-.41-1.649-1-1.649s-1,.485-1,1.649.411,1.648,1,1.648S579.337,1146.892,579.337,1145.728Z" fill="#df071b"/>
          <path id="Path_4200" data-name="Path 4200" d="M586.267,1143.949h-.535v4.342H584.64v-.454a1.515,1.515,0,0,1-1.23.513,2.03,2.03,0,0,1,0-4.058,1.513,1.513,0,0,1,1.179.477v-.82h-1.34v-.661h1.34v-.431h1.143v.431h.535Zm-1.656,2.373a1.01,1.01,0,1,0-1,1.09A1,1,0,0,0,584.611,1146.322Z" fill="#df071b"/>
          <path id="Path_4201" data-name="Path 4201" d="M557.728,1157.771c0,.908-.666,1.7-2.131,1.7a3.539,3.539,0,0,1-1.956-.549l.469-.908a2.467,2.467,0,0,0,1.458.461c.593,0,.959-.249.959-.666s-.264-.667-1.194-.667h-1.311l.264-2.886h3.128v.952h-2.139l-.081.974h.417C557.127,1156.181,557.728,1156.863,557.728,1157.771Z" fill="#df071b"/>
          <path id="Path_4202" data-name="Path 4202" d="M562.416,1157.771c0,.908-.667,1.7-2.131,1.7a3.538,3.538,0,0,1-1.955-.549l.468-.908a2.468,2.468,0,0,0,1.457.461c.594,0,.96-.249.96-.666s-.263-.667-1.194-.667H558.71l.264-2.886H562.1v.952h-2.139l-.08.974h.418C561.816,1156.181,562.416,1156.863,562.416,1157.771Z" fill="#df071b"/>
          <path id="Path_4203" data-name="Path 4203" d="M563.23,1158.723a.711.711,0,0,1,1.421,0,.711.711,0,1,1-1.421,0Z" fill="#df071b"/>
          <path id="Path_4204" data-name="Path 4204" d="M565.457,1156.819c0-1.693.937-2.652,2.2-2.652s2.2.959,2.2,2.652-.931,2.651-2.2,2.651S565.457,1158.511,565.457,1156.819Zm3.2,0c0-1.165-.41-1.648-1-1.648s-1,.483-1,1.648.41,1.647,1,1.647S568.657,1157.984,568.657,1156.819Z" fill="#df071b"/>
          <path id="Path_4205" data-name="Path 4205" d="M570.8,1156.819c0-1.693.938-2.652,2.2-2.652s2.2.959,2.2,2.652-.931,2.651-2.2,2.651S570.8,1158.511,570.8,1156.819Zm3.2,0c0-1.165-.411-1.648-1-1.648s-1,.483-1,1.648.41,1.647,1,1.647S574,1157.984,574,1156.819Z" fill="#df071b"/>
          <path id="Path_4206" data-name="Path 4206" d="M576.136,1156.819c0-1.693.938-2.652,2.2-2.652s2.2.959,2.2,2.652-.931,2.651-2.2,2.651S576.136,1158.511,576.136,1156.819Zm3.2,0c0-1.165-.41-1.648-1-1.648s-1,.483-1,1.648.411,1.647,1,1.647S579.336,1157.984,579.336,1156.819Z" fill="#df071b"/>
          <path id="Path_4207" data-name="Path 4207" d="M586.265,1155.038h-.534v4.344H584.64v-.454a1.514,1.514,0,0,1-1.23.513,2.03,2.03,0,0,1,0-4.058,1.511,1.511,0,0,1,1.178.476v-.821h-1.34v-.658h1.34v-.432h1.143v.432h.534Zm-1.654,2.373a1.011,1.011,0,1,0-1,1.092A1,1,0,0,0,584.611,1157.411Z" fill="#df071b"/>
          <path id="Path_4208" data-name="Path 4208" d="M557.728,1168.861c0,.908-.666,1.7-2.131,1.7a3.539,3.539,0,0,1-1.956-.549l.469-.908a2.467,2.467,0,0,0,1.458.461c.593,0,.959-.249.959-.666s-.264-.667-1.194-.667h-1.311l.264-2.886h3.128v.952h-2.139l-.081.974h.417C557.127,1167.271,557.728,1167.952,557.728,1168.861Z" fill="#df071b"/>
          <path id="Path_4209" data-name="Path 4209" d="M562.416,1168.861c0,.908-.667,1.7-2.131,1.7a3.538,3.538,0,0,1-1.955-.549l.468-.908a2.469,2.469,0,0,0,1.457.461c.594,0,.96-.249.96-.666s-.263-.667-1.194-.667H558.71l.264-2.886H562.1v.952h-2.139l-.08.974h.418C561.816,1167.271,562.416,1167.952,562.416,1168.861Z" fill="#df071b"/>
          <path id="Path_4210" data-name="Path 4210" d="M563.23,1169.813a.711.711,0,0,1,1.421,0,.711.711,0,1,1-1.421,0Z" fill="#df071b"/>
          <path id="Path_4211" data-name="Path 4211" d="M565.457,1167.909c0-1.693.937-2.652,2.2-2.652s2.2.959,2.2,2.652-.931,2.651-2.2,2.651S565.457,1169.6,565.457,1167.909Zm3.2,0c0-1.165-.41-1.648-1-1.648s-1,.483-1,1.648.41,1.647,1,1.647S568.657,1169.074,568.657,1167.909Z" fill="#df071b"/>
          <path id="Path_4212" data-name="Path 4212" d="M570.8,1167.909c0-1.693.938-2.652,2.2-2.652s2.2.959,2.2,2.652-.931,2.651-2.2,2.651S570.8,1169.6,570.8,1167.909Zm3.2,0c0-1.165-.411-1.648-1-1.648s-1,.483-1,1.648.41,1.647,1,1.647S574,1169.074,574,1167.909Z" fill="#df071b"/>
          <path id="Path_4213" data-name="Path 4213" d="M576.136,1167.909c0-1.693.938-2.652,2.2-2.652s2.2.959,2.2,2.652-.931,2.651-2.2,2.651S576.136,1169.6,576.136,1167.909Zm3.2,0c0-1.165-.41-1.648-1-1.648s-1,.483-1,1.648.411,1.647,1,1.647S579.336,1169.074,579.336,1167.909Z" fill="#df071b"/>
          <path id="Path_4214" data-name="Path 4214" d="M586.265,1166.128h-.534v4.344H584.64v-.454a1.513,1.513,0,0,1-1.23.513,2.03,2.03,0,0,1,0-4.058,1.511,1.511,0,0,1,1.178.476v-.821h-1.34v-.658h1.34v-.433h1.143v.433h.534Zm-1.654,2.373a1.011,1.011,0,1,0-1,1.092A1,1,0,0,0,584.611,1168.5Z" fill="#df071b"/>
          <path id="Path_4215" data-name="Path 4215" d="M557.6,1178.89a2.492,2.492,0,0,1-2.614,2.761,2.733,2.733,0,0,1-1.422-.352l.439-.872a1.653,1.653,0,0,0,.96.257,1.367,1.367,0,0,0,1.443-1.494,1.753,1.753,0,0,1-1.274.462,1.627,1.627,0,0,1-1.765-1.6,1.762,1.762,0,0,1,1.941-1.706C556.732,1176.348,557.6,1177.234,557.6,1178.89Zm-1.325-.9c0-.439-.33-.761-.9-.761a.766.766,0,0,0-.856.761.774.774,0,0,0,.872.77A.8.8,0,0,0,556.279,1177.995Z" fill="#df071b"/>
          <path id="Path_4216" data-name="Path 4216" d="M562.416,1179.952c0,.908-.667,1.7-2.131,1.7a3.546,3.546,0,0,1-1.955-.55l.468-.908a2.47,2.47,0,0,0,1.457.462c.594,0,.96-.249.96-.667s-.263-.666-1.194-.666H558.71l.264-2.886H562.1v.952h-2.139l-.08.975h.418C561.816,1178.363,562.416,1179.043,562.416,1179.952Z" fill="#df071b"/>
          <path id="Path_4217" data-name="Path 4217" d="M563.23,1180.9a.711.711,0,0,1,1.421,0,.711.711,0,1,1-1.421,0Z" fill="#df071b"/>
          <path id="Path_4218" data-name="Path 4218" d="M565.457,1179c0-1.691.937-2.651,2.2-2.651s2.2.96,2.2,2.651-.93,2.652-2.2,2.652S565.457,1180.691,565.457,1179Zm3.2,0c0-1.164-.41-1.648-1-1.648s-1,.484-1,1.648.41,1.649,1,1.649S568.658,1180.163,568.658,1179Z" fill="#df071b"/>
          <path id="Path_4219" data-name="Path 4219" d="M570.8,1179c0-1.691.938-2.651,2.2-2.651s2.2.96,2.2,2.651-.93,2.652-2.2,2.652S570.8,1180.691,570.8,1179Zm3.2,0c0-1.164-.411-1.648-1-1.648s-1,.484-1,1.648.41,1.649,1,1.649S574,1180.163,574,1179Z" fill="#df071b"/>
          <path id="Path_4220" data-name="Path 4220" d="M576.136,1179c0-1.691.938-2.651,2.2-2.651s2.2.96,2.2,2.651-.93,2.652-2.2,2.652S576.136,1180.691,576.136,1179Zm3.2,0c0-1.164-.41-1.648-1-1.648s-1,.484-1,1.648.411,1.649,1,1.649S579.337,1180.163,579.337,1179Z" fill="#df071b"/>
          <path id="Path_4221" data-name="Path 4221" d="M586.267,1177.22h-.535v4.343H584.64v-.454a1.518,1.518,0,0,1-1.23.512,2.029,2.029,0,0,1,0-4.057,1.512,1.512,0,0,1,1.179.476v-.82h-1.34v-.66h1.34v-.432h1.143v.432h.535Zm-1.656,2.373a1.01,1.01,0,1,0-1,1.091A1,1,0,0,0,584.611,1179.593Z" fill="#df071b"/>
          <path id="Path_4222" data-name="Path 4222" d="M554.044,1187.526v5.127h-1.187v-4.175h-1.025v-.952Z" fill="#df071b"/>
          <path id="Path_4223" data-name="Path 4223" d="M557.281,1187.526v5.127h-1.186v-4.175H555.07v-.952Z" fill="#df071b"/>
          <path id="Path_4224" data-name="Path 4224" d="M562.416,1191.041c0,.909-.667,1.7-2.131,1.7a3.548,3.548,0,0,1-1.956-.55l.468-.908a2.467,2.467,0,0,0,1.458.461c.593,0,.959-.249.959-.667,0-.4-.263-.666-1.193-.666h-1.312l.264-2.885H562.1v.952h-2.139l-.081.974h.417C561.815,1189.452,562.416,1190.133,562.416,1191.041Z" fill="#df071b"/>
          <path id="Path_4225" data-name="Path 4225" d="M563.229,1191.994a.711.711,0,0,1,1.421,0,.711.711,0,1,1-1.421,0Z" fill="#df071b"/>
          <path id="Path_4226" data-name="Path 4226" d="M565.457,1190.089c0-1.691.937-2.651,2.2-2.651s2.2.96,2.2,2.651-.931,2.652-2.2,2.652S565.457,1191.781,565.457,1190.089Zm3.2,0c0-1.164-.41-1.648-1-1.648s-1,.484-1,1.648.41,1.649,1,1.649S568.657,1191.253,568.657,1190.089Z" fill="#df071b"/>
          <path id="Path_4227" data-name="Path 4227" d="M570.8,1190.089c0-1.691.938-2.651,2.2-2.651s2.2.96,2.2,2.651-.931,2.652-2.2,2.652S570.8,1191.781,570.8,1190.089Zm3.2,0c0-1.164-.411-1.648-1-1.648s-1,.484-1,1.648.41,1.649,1,1.649S574,1191.253,574,1190.089Z" fill="#df071b"/>
          <path id="Path_4228" data-name="Path 4228" d="M576.136,1190.089c0-1.691.938-2.651,2.2-2.651s2.2.96,2.2,2.651-.931,2.652-2.2,2.652S576.136,1191.781,576.136,1190.089Zm3.2,0c0-1.164-.41-1.648-1-1.648s-1,.484-1,1.648.411,1.649,1,1.649S579.336,1191.253,579.336,1190.089Z" fill="#df071b"/>
          <path id="Path_4229" data-name="Path 4229" d="M586.265,1188.31h-.534v4.343H584.64v-.454a1.519,1.519,0,0,1-1.23.512,2.029,2.029,0,0,1,0-4.057,1.515,1.515,0,0,1,1.178.476v-.82h-1.34v-.66h1.34v-.432h1.143v.432h.534Zm-1.654,2.373a1.011,1.011,0,1,0-1,1.091A1,1,0,0,0,584.611,1190.683Z" fill="#df071b"/>
          <path id="Path_4230" data-name="Path 4230" d="M557.632,1202.257c0,.967-.863,1.574-2.168,1.574s-2.152-.607-2.152-1.574a1.3,1.3,0,0,1,.775-1.209,1.185,1.185,0,0,1-.592-1.054c0-.9.8-1.465,1.969-1.465,1.18,0,1.986.564,1.986,1.465a1.191,1.191,0,0,1-.6,1.054A1.3,1.3,0,0,1,557.632,1202.257Zm-1.2-.037c0-.454-.373-.732-.967-.732s-.951.278-.951.732.365.74.951.74S556.431,1202.674,556.431,1202.22Zm-1.758-2.176c0,.389.309.631.791.631s.807-.242.807-.631-.322-.644-.807-.644S554.673,1199.642,554.673,1200.044Z" fill="#df071b"/>
          <path id="Path_4231" data-name="Path 4231" d="M562.416,1202.132c0,.908-.667,1.7-2.131,1.7a3.545,3.545,0,0,1-1.955-.548l.468-.909a2.469,2.469,0,0,0,1.457.461c.594,0,.96-.249.96-.666s-.263-.667-1.194-.667H558.71l.264-2.885H562.1v.952h-2.139l-.08.973h.418C561.816,1200.542,562.416,1201.224,562.416,1202.132Z" fill="#df071b"/>
          <path id="Path_4232" data-name="Path 4232" d="M563.23,1203.084a.711.711,0,0,1,1.421,0,.711.711,0,1,1-1.421,0Z" fill="#df071b"/>
          <path id="Path_4233" data-name="Path 4233" d="M565.457,1201.18c0-1.692.937-2.651,2.2-2.651s2.2.959,2.2,2.651-.93,2.651-2.2,2.651S565.457,1202.872,565.457,1201.18Zm3.2,0c0-1.165-.41-1.647-1-1.647s-1,.482-1,1.647.41,1.647,1,1.647S568.658,1202.345,568.658,1201.18Z" fill="#df071b"/>
          <path id="Path_4234" data-name="Path 4234" d="M570.8,1201.18c0-1.692.938-2.651,2.2-2.651s2.2.959,2.2,2.651-.93,2.651-2.2,2.651S570.8,1202.872,570.8,1201.18Zm3.2,0c0-1.165-.411-1.647-1-1.647s-1,.482-1,1.647.41,1.647,1,1.647S574,1202.345,574,1201.18Z" fill="#df071b"/>
          <path id="Path_4235" data-name="Path 4235" d="M576.136,1201.18c0-1.692.938-2.651,2.2-2.651s2.2.959,2.2,2.651-.93,2.651-2.2,2.651S576.136,1202.872,576.136,1201.18Zm3.2,0c0-1.165-.41-1.647-1-1.647s-1,.482-1,1.647.411,1.647,1,1.647S579.337,1202.345,579.337,1201.18Z" fill="#df071b"/>
          <path id="Path_4236" data-name="Path 4236" d="M586.267,1199.4h-.535v4.344H584.64v-.455a1.512,1.512,0,0,1-1.23.513,2.03,2.03,0,0,1,0-4.058,1.512,1.512,0,0,1,1.179.476v-.82h-1.34v-.658h1.34v-.433h1.143v.433h.535Zm-1.656,2.373a1.01,1.01,0,1,0-1,1.092A1,1,0,0,0,584.611,1201.773Z" fill="#df071b"/>
          <path id="Path_4237" data-name="Path 4237" d="M557.113,1213.347c0,.967-.864,1.574-2.168,1.574s-2.153-.607-2.153-1.574a1.3,1.3,0,0,1,.776-1.209,1.184,1.184,0,0,1-.593-1.055c0-.9.806-1.464,1.97-1.464,1.179,0,1.985.564,1.985,1.464a1.192,1.192,0,0,1-.6,1.055A1.3,1.3,0,0,1,557.113,1213.347Zm-1.2-.037c0-.454-.373-.733-.967-.733s-.951.279-.951.733.365.74.951.74S555.912,1213.764,555.912,1213.31Zm-1.758-2.176c0,.389.308.631.791.631s.806-.242.806-.631-.322-.644-.806-.644S554.154,1210.732,554.154,1211.134Z" fill="#df071b"/>
          <path id="Path_4238" data-name="Path 4238" d="M558.023,1212.27c0-1.693.937-2.651,2.2-2.651s2.2.958,2.2,2.651-.93,2.651-2.2,2.651S558.023,1213.962,558.023,1212.27Zm3.2,0c0-1.165-.41-1.648-1-1.648s-1,.483-1,1.648.41,1.647,1,1.647S561.223,1213.435,561.223,1212.27Z" fill="#df071b"/>
          <path id="Path_4239" data-name="Path 4239" d="M563.231,1214.174a.711.711,0,0,1,1.421,0,.711.711,0,1,1-1.421,0Z" fill="#df071b"/>
          <path id="Path_4240" data-name="Path 4240" d="M565.457,1212.27c0-1.693.937-2.651,2.2-2.651s2.2.958,2.2,2.651-.93,2.651-2.2,2.651S565.457,1213.962,565.457,1212.27Zm3.2,0c0-1.165-.41-1.648-1-1.648s-1,.483-1,1.648.41,1.647,1,1.647S568.658,1213.435,568.658,1212.27Z" fill="#df071b"/>
          <path id="Path_4241" data-name="Path 4241" d="M570.8,1212.27c0-1.693.938-2.651,2.2-2.651s2.2.958,2.2,2.651-.93,2.651-2.2,2.651S570.8,1213.962,570.8,1212.27Zm3.2,0c0-1.165-.411-1.648-1-1.648s-1,.483-1,1.648.41,1.647,1,1.647S574,1213.435,574,1212.27Z" fill="#df071b"/>
          <path id="Path_4242" data-name="Path 4242" d="M576.136,1212.27c0-1.693.938-2.651,2.2-2.651s2.2.958,2.2,2.651-.93,2.651-2.2,2.651S576.136,1213.962,576.136,1212.27Zm3.2,0c0-1.165-.41-1.648-1-1.648s-1,.483-1,1.648.411,1.647,1,1.647S579.337,1213.435,579.337,1212.27Z" fill="#df071b"/>
          <path id="Path_4243" data-name="Path 4243" d="M586.267,1210.49h-.535v4.343H584.64v-.454a1.512,1.512,0,0,1-1.23.513,2.03,2.03,0,0,1,0-4.058,1.512,1.512,0,0,1,1.179.476v-.82h-1.34v-.659h1.34v-.432h1.143v.432h.535Zm-1.656,2.373a1.01,1.01,0,1,0-1,1.091A1,1,0,0,0,584.611,1212.863Z" fill="#df071b"/>
          <path id="Path_4244" data-name="Path 4244" d="M557.113,1224.437c0,.967-.864,1.575-2.168,1.575s-2.153-.608-2.153-1.575a1.3,1.3,0,0,1,.776-1.208,1.184,1.184,0,0,1-.593-1.055c0-.9.806-1.465,1.97-1.465,1.179,0,1.985.564,1.985,1.465a1.192,1.192,0,0,1-.6,1.055A1.3,1.3,0,0,1,557.113,1224.437Zm-1.2-.036c0-.454-.373-.733-.967-.733s-.951.279-.951.733.365.739.951.739S555.912,1224.855,555.912,1224.4Zm-1.758-2.175c0,.388.308.629.791.629s.806-.241.806-.629-.322-.645-.806-.645S554.154,1221.823,554.154,1222.226Z" fill="#df071b"/>
          <path id="Path_4245" data-name="Path 4245" d="M558.023,1223.361c0-1.692.937-2.652,2.2-2.652s2.2.96,2.2,2.652-.93,2.651-2.2,2.651S558.023,1225.052,558.023,1223.361Zm3.2,0c0-1.164-.41-1.649-1-1.649s-1,.485-1,1.649.41,1.648,1,1.648S561.223,1224.525,561.223,1223.361Z" fill="#df071b"/>
          <path id="Path_4246" data-name="Path 4246" d="M563.231,1225.265a.711.711,0,0,1,1.421,0,.711.711,0,1,1-1.421,0Z" fill="#df071b"/>
          <path id="Path_4247" data-name="Path 4247" d="M565.457,1223.361c0-1.692.937-2.652,2.2-2.652s2.2.96,2.2,2.652-.93,2.651-2.2,2.651S565.457,1225.052,565.457,1223.361Zm3.2,0c0-1.164-.41-1.649-1-1.649s-1,.485-1,1.649.41,1.648,1,1.648S568.658,1224.525,568.658,1223.361Z" fill="#df071b"/>
          <path id="Path_4248" data-name="Path 4248" d="M570.8,1223.361c0-1.692.938-2.652,2.2-2.652s2.2.96,2.2,2.652-.93,2.651-2.2,2.651S570.8,1225.052,570.8,1223.361Zm3.2,0c0-1.164-.411-1.649-1-1.649s-1,.485-1,1.649.41,1.648,1,1.648S574,1224.525,574,1223.361Z" fill="#df071b"/>
          <path id="Path_4249" data-name="Path 4249" d="M576.136,1223.361c0-1.692.938-2.652,2.2-2.652s2.2.96,2.2,2.652-.93,2.651-2.2,2.651S576.136,1225.052,576.136,1223.361Zm3.2,0c0-1.164-.41-1.649-1-1.649s-1,.485-1,1.649.411,1.648,1,1.648S579.337,1224.525,579.337,1223.361Z" fill="#df071b"/>
          <path id="Path_4250" data-name="Path 4250" d="M586.267,1221.581h-.535v4.343H584.64v-.454a1.515,1.515,0,0,1-1.23.513,2.03,2.03,0,0,1,0-4.058,1.51,1.51,0,0,1,1.179.477v-.821h-1.34v-.66h1.34v-.431h1.143v.431h.535Zm-1.656,2.373a1.01,1.01,0,1,0-1,1.091A1,1,0,0,0,584.611,1223.954Z" fill="#df071b"/>
          <path id="Path_4251" data-name="Path 4251" d="M557.632,1235.527c0,.967-.863,1.575-2.168,1.575s-2.152-.608-2.152-1.575a1.3,1.3,0,0,1,.775-1.208,1.185,1.185,0,0,1-.592-1.055c0-.9.8-1.465,1.969-1.465,1.18,0,1.986.564,1.986,1.465a1.191,1.191,0,0,1-.6,1.055A1.3,1.3,0,0,1,557.632,1235.527Zm-1.2-.036c0-.455-.373-.733-.967-.733s-.951.278-.951.733.365.739.951.739S556.431,1235.945,556.431,1235.491Zm-1.758-2.175c0,.387.309.629.791.629s.807-.242.807-.629c0-.4-.322-.645-.807-.645S554.673,1232.912,554.673,1233.316Z" fill="#df071b"/>
          <path id="Path_4252" data-name="Path 4252" d="M562.416,1235.4c0,.908-.667,1.7-2.131,1.7a3.538,3.538,0,0,1-1.955-.55l.468-.908a2.47,2.47,0,0,0,1.457.462c.594,0,.96-.249.96-.667,0-.4-.263-.666-1.194-.666H558.71l.264-2.886H562.1v.952h-2.139l-.08.975h.418C561.816,1233.814,562.416,1234.494,562.416,1235.4Z" fill="#df071b"/>
          <path id="Path_4253" data-name="Path 4253" d="M563.23,1236.355a.711.711,0,0,1,1.421,0,.711.711,0,1,1-1.421,0Z" fill="#df071b"/>
          <path id="Path_4254" data-name="Path 4254" d="M565.457,1234.451c0-1.692.937-2.652,2.2-2.652s2.2.96,2.2,2.652-.93,2.651-2.2,2.651S565.457,1236.142,565.457,1234.451Zm3.2,0c0-1.165-.41-1.649-1-1.649s-1,.484-1,1.649.41,1.648,1,1.648S568.658,1235.615,568.658,1234.451Z" fill="#df071b"/>
          <path id="Path_4255" data-name="Path 4255" d="M570.8,1234.451c0-1.692.938-2.652,2.2-2.652s2.2.96,2.2,2.652-.93,2.651-2.2,2.651S570.8,1236.142,570.8,1234.451Zm3.2,0c0-1.165-.411-1.649-1-1.649s-1,.484-1,1.649.41,1.648,1,1.648S574,1235.615,574,1234.451Z" fill="#df071b"/>
          <path id="Path_4256" data-name="Path 4256" d="M576.136,1234.451c0-1.692.938-2.652,2.2-2.652s2.2.96,2.2,2.652-.93,2.651-2.2,2.651S576.136,1236.142,576.136,1234.451Zm3.2,0c0-1.165-.41-1.649-1-1.649s-1,.484-1,1.649.411,1.648,1,1.648S579.337,1235.615,579.337,1234.451Z" fill="#df071b"/>
          <path id="Path_4257" data-name="Path 4257" d="M586.267,1232.671h-.535v4.343H584.64v-.454a1.515,1.515,0,0,1-1.23.513,2.03,2.03,0,0,1,0-4.058,1.51,1.51,0,0,1,1.179.477v-.821h-1.34v-.66h1.34v-.432h1.143v.432h.535Zm-1.656,2.373a1.01,1.01,0,1,0-1,1.091A1,1,0,0,0,584.611,1235.044Z" fill="#df071b"/>
          <path id="Path_4258" data-name="Path 4258" d="M557.728,1246.494c0,.908-.666,1.7-2.131,1.7a3.548,3.548,0,0,1-1.956-.549l.469-.908a2.467,2.467,0,0,0,1.458.461c.593,0,.959-.249.959-.666s-.264-.667-1.194-.667h-1.311l.264-2.886h3.128v.952h-2.139l-.081.974h.417C557.127,1244.9,557.728,1245.585,557.728,1246.494Z" fill="#df071b"/>
          <path id="Path_4259" data-name="Path 4259" d="M562.416,1246.494c0,.908-.667,1.7-2.131,1.7a3.546,3.546,0,0,1-1.955-.549l.468-.908a2.468,2.468,0,0,0,1.457.461c.594,0,.96-.249.96-.666s-.263-.667-1.194-.667H558.71l.264-2.886H562.1v.952h-2.139l-.08.974h.418C561.816,1244.9,562.416,1245.585,562.416,1246.494Z" fill="#df071b"/>
          <path id="Path_4260" data-name="Path 4260" d="M563.23,1247.446a.711.711,0,0,1,1.421,0,.711.711,0,1,1-1.421,0Z" fill="#df071b"/>
          <path id="Path_4261" data-name="Path 4261" d="M565.457,1245.541c0-1.692.937-2.651,2.2-2.651s2.2.959,2.2,2.651-.931,2.652-2.2,2.652S565.457,1247.234,565.457,1245.541Zm3.2,0c0-1.165-.41-1.647-1-1.647s-1,.482-1,1.647.41,1.648,1,1.648S568.657,1246.706,568.657,1245.541Z" fill="#df071b"/>
          <path id="Path_4262" data-name="Path 4262" d="M570.8,1245.541c0-1.692.938-2.651,2.2-2.651s2.2.959,2.2,2.651-.931,2.652-2.2,2.652S570.8,1247.234,570.8,1245.541Zm3.2,0c0-1.165-.411-1.647-1-1.647s-1,.482-1,1.647.41,1.648,1,1.648S574,1246.706,574,1245.541Z" fill="#df071b"/>
          <path id="Path_4263" data-name="Path 4263" d="M576.136,1245.541c0-1.692.938-2.651,2.2-2.651s2.2.959,2.2,2.651-.931,2.652-2.2,2.652S576.136,1247.234,576.136,1245.541Zm3.2,0c0-1.165-.41-1.647-1-1.647s-1,.482-1,1.647.411,1.648,1,1.648S579.336,1246.706,579.336,1245.541Z" fill="#df071b"/>
          <path id="Path_4264" data-name="Path 4264" d="M586.265,1243.761h-.534v4.344H584.64v-.454a1.516,1.516,0,0,1-1.23.512,2.029,2.029,0,0,1,0-4.057,1.514,1.514,0,0,1,1.178.475v-.82h-1.34v-.658h1.34v-.433h1.143v.433h.534Zm-1.654,2.373a1.011,1.011,0,1,0-1,1.092A1,1,0,0,0,584.611,1246.134Z" fill="#df071b"/>
        </g>
      </g>
    </g>
    <g id="Group_329" data-name="Group 329" transform="translate(-625.81 -576.216)">
      <g id="Group_326" data-name="Group 326">
        <g id="Group_325" data-name="Group 325">
          <path id="Path_3490" data-name="Path 3490" d="M628.021,697.622v5.127h-1.186v-4.174H625.81v-.953Z" fill="#57574d"/>
          <path id="Path_3491" data-name="Path 3491" d="M633.112,701.783v.966h-3.874v-.768l1.976-1.868c.455-.433.535-.7.535-.945,0-.4-.278-.637-.82-.637a1.258,1.258,0,0,0-1.062.512l-.864-.556a2.383,2.383,0,0,1,2.036-.952c1.142,0,1.9.585,1.9,1.516a2.045,2.045,0,0,1-.857,1.618l-1.178,1.114Z" fill="#57574d"/>
          <path id="Path_3492" data-name="Path 3492" d="M634.006,702.09a.711.711,0,0,1,1.421,0,.711.711,0,1,1-1.421,0Z" fill="#57574d"/>
          <path id="Path_3493" data-name="Path 3493" d="M643.792,697.622v5.127h-.974l-2.557-3.112v3.112h-1.172v-5.127h.983l2.549,3.113v-3.113Z" fill="#57574d"/>
          <path id="Path_3494" data-name="Path 3494" d="M649.33,700.78a2.169,2.169,0,1,1-2.161-2.03A2.023,2.023,0,0,1,649.33,700.78Zm-2.813-2.477h-.834l.967-1.055h1.01l.966,1.055h-.834l-.637-.557Zm1.656,2.477a1.01,1.01,0,1,0-1,1.09A.995.995,0,0,0,648.173,700.78Zm-.513,3.017a.505.505,0,0,1-1.01,0,.505.505,0,1,1,1.01,0Z" fill="#57574d"/>
          <path id="Path_3495" data-name="Path 3495" d="M657.117,700.494v2.255h-1.143v-2.08c0-.637-.286-.93-.748-.93-.512,0-.871.33-.871,1.033v1.977h-1.143v-2.08c0-.637-.271-.93-.747-.93-.505,0-.864.33-.864,1.033v1.977h-1.143v-3.94h1.092v.454a1.6,1.6,0,0,1,1.238-.513,1.468,1.468,0,0,1,1.295.645,1.779,1.779,0,0,1,1.422-.645A1.527,1.527,0,0,1,657.117,700.494Z" fill="#57574d"/>
          <path id="Path_3496" data-name="Path 3496" d="M664.977,700.494v2.255h-1.143v-2.08c0-.637-.293-.93-.8-.93-.55,0-.946.338-.946,1.062v1.948h-1.142v-3.94h1.092v.461a1.723,1.723,0,0,1,1.3-.52A1.545,1.545,0,0,1,664.977,700.494Z" fill="#57574d"/>
          <path id="Path_3497" data-name="Path 3497" d="M670.486,698.809v3.281a1.929,1.929,0,0,1-2.211,2.139,3.251,3.251,0,0,1-1.934-.542l.453-.82a2.367,2.367,0,0,0,1.393.446c.8,0,1.156-.365,1.156-1.076v-.168a1.622,1.622,0,0,1-1.244.49,1.906,1.906,0,1,1,0-3.809,1.581,1.581,0,0,1,1.3.565v-.506Zm-1.127,1.846a1.039,1.039,0,1,0-1.033.966A.958.958,0,0,0,669.359,700.655Z" fill="#57574d"/>
          <path id="Path_3498" data-name="Path 3498" d="M675.4,700.5v2.249h-1.07v-.491a1.289,1.289,0,0,1-1.2.55c-.923,0-1.471-.513-1.471-1.194,0-.7.49-1.179,1.691-1.179h.908c0-.491-.293-.776-.908-.776a1.885,1.885,0,0,0-1.135.366l-.41-.8a3.015,3.015,0,0,1,1.7-.477C674.707,698.75,675.4,699.307,675.4,700.5Zm-1.143,1v-.4h-.783c-.535,0-.7.2-.7.461,0,.285.241.476.644.476A.84.84,0,0,0,674.259,701.5Z" fill="#57574d"/>
          <path id="Path_3499" data-name="Path 3499" d="M680.83,700.494v2.255h-1.143v-2.08c0-.637-.293-.93-.8-.93-.549,0-.944.338-.944,1.062v1.948H676.8v-3.94h1.091v.461a1.733,1.733,0,0,1,1.3-.52A1.545,1.545,0,0,1,680.83,700.494Z" fill="#57574d"/>
          <path id="Path_3500" data-name="Path 3500" d="M688.7,700.494v2.255h-1.143v-2.08c0-.637-.293-.93-.8-.93-.548,0-.944.338-.944,1.062v1.948h-1.143v-3.94h1.091v.461a1.733,1.733,0,0,1,1.305-.52A1.545,1.545,0,0,1,688.7,700.494Z" fill="#57574d"/>
          <path id="Path_3501" data-name="Path 3501" d="M694.205,698.809v3.281a1.929,1.929,0,0,1-2.211,2.139,3.251,3.251,0,0,1-1.934-.542l.453-.82a2.367,2.367,0,0,0,1.393.446c.8,0,1.156-.365,1.156-1.076v-.168a1.622,1.622,0,0,1-1.244.49,1.906,1.906,0,1,1,0-3.809,1.581,1.581,0,0,1,1.3.565v-.506Zm-1.127,1.846a1.04,1.04,0,1,0-1.034.966A.958.958,0,0,0,693.078,700.655Z" fill="#57574d"/>
          <path id="Path_3502" data-name="Path 3502" d="M699.6,698.809v3.94H698.52v-.468a1.594,1.594,0,0,1-1.224.527,1.57,1.57,0,0,1-1.683-1.773v-2.226h1.142v2.059c0,.658.293.951.8.951.528,0,.908-.336.908-1.062v-1.948Zm-2.827-.535H696.2c.013-.652.343-1.069.856-1.069s.762.469,1.026.469c.2,0,.336-.154.351-.4h.579c-.015.631-.345,1.048-.857,1.048s-.762-.462-1.026-.462C696.931,697.864,696.791,698.01,696.777,698.274Z" fill="#57574d"/>
          <path id="Path_3503" data-name="Path 3503" d="M703.091,702.383l.381-.82a2.709,2.709,0,0,0,1.369.381c.528,0,.726-.139.726-.36,0-.644-2.38.016-2.38-1.559,0-.747.674-1.275,1.823-1.275a3.254,3.254,0,0,1,1.517.344l-.381.814a2.264,2.264,0,0,0-1.136-.293c-.512,0-.732.161-.732.366,0,.674,2.38.021,2.38,1.574,0,.732-.681,1.253-1.86,1.253A3.379,3.379,0,0,1,703.091,702.383Z" fill="#57574d"/>
          <path id="Path_3504" data-name="Path 3504" d="M711.214,700.5v2.249h-1.069v-.491a1.29,1.29,0,0,1-1.2.55c-.923,0-1.472-.513-1.472-1.194,0-.7.49-1.179,1.692-1.179h.908c0-.491-.293-.776-.908-.776a1.885,1.885,0,0,0-1.135.366l-.41-.8a3.013,3.013,0,0,1,1.7-.477C710.519,698.75,711.214,699.307,711.214,700.5Zm-3.127-3.031h.688c.029.205.293.344.66.344s.629-.139.658-.344h.69c-.052.549-.594.893-1.348.893S708.138,698.018,708.087,697.469Zm1.985,4.035v-.4h-.783c-.536,0-.7.2-.7.461,0,.285.242.476.645.476A.84.84,0,0,0,710.072,701.5Zm-.44-4.256H708.8l.814-.885h1.165Z" fill="#57574d"/>
          <path id="Path_3505" data-name="Path 3505" d="M712.365,700.78a2.038,2.038,0,0,1,2.2-2.03,1.814,1.814,0,0,1,1.766,1l-.887.476a.982.982,0,0,0-.887-.542,1.093,1.093,0,0,0,0,2.182.97.97,0,0,0,.887-.542l.887.484a1.83,1.83,0,0,1-1.766,1A2.038,2.038,0,0,1,712.365,700.78Z" fill="#57574d"/>
        </g>
      </g>
      <g id="Group_328" data-name="Group 328">
        <g id="Group_327" data-name="Group 327">
          <path id="Path_3506" data-name="Path 3506" d="M834.741,700.077a2.492,2.492,0,0,1-2.615,2.76,2.739,2.739,0,0,1-1.421-.351l.439-.872a1.656,1.656,0,0,0,.96.256,1.365,1.365,0,0,0,1.442-1.494,1.749,1.749,0,0,1-1.273.462,1.628,1.628,0,0,1-1.766-1.6,1.763,1.763,0,0,1,1.942-1.706C833.869,697.535,834.741,698.42,834.741,700.077Zm-1.325-.9c0-.439-.331-.762-.9-.762a.772.772,0,1,0,.016,1.532A.8.8,0,0,0,833.416,699.182Z" fill="#df071b"/>
          <path id="Path_3507" data-name="Path 3507" d="M839.553,701.138c0,.908-.667,1.7-2.132,1.7a3.539,3.539,0,0,1-1.955-.55l.469-.908a2.469,2.469,0,0,0,1.457.462c.594,0,.96-.249.96-.667,0-.4-.264-.666-1.194-.666h-1.311l.264-2.886h3.127v.953H837.1l-.08.974h.418C838.953,699.549,839.553,700.23,839.553,701.138Z" fill="#df071b"/>
          <path id="Path_3508" data-name="Path 3508" d="M840.367,702.09a.711.711,0,0,1,1.421,0,.711.711,0,1,1-1.421,0Z" fill="#df071b"/>
          <path id="Path_3509" data-name="Path 3509" d="M842.593,700.186c0-1.692.938-2.651,2.2-2.651s2.2.959,2.2,2.651-.93,2.651-2.2,2.651S842.593,701.877,842.593,700.186Zm3.2,0c0-1.164-.41-1.649-1-1.649s-1,.485-1,1.649.411,1.648,1,1.648S845.794,701.35,845.794,700.186Z" fill="#df071b"/>
          <path id="Path_3510" data-name="Path 3510" d="M847.933,700.186c0-1.692.938-2.651,2.2-2.651s2.2.959,2.2,2.651-.93,2.651-2.2,2.651S847.933,701.877,847.933,700.186Zm3.2,0c0-1.164-.41-1.649-1-1.649s-1,.485-1,1.649.41,1.648,1,1.648S851.134,701.35,851.134,700.186Z" fill="#df071b"/>
          <path id="Path_3511" data-name="Path 3511" d="M853.273,700.186c0-1.692.937-2.651,2.2-2.651s2.2.959,2.2,2.651-.929,2.651-2.2,2.651S853.273,701.877,853.273,700.186Zm3.2,0c0-1.164-.41-1.649-1-1.649s-1,.485-1,1.649.41,1.648,1,1.648S856.474,701.35,856.474,700.186Z" fill="#df071b"/>
          <path id="Path_3512" data-name="Path 3512" d="M863.4,698.407h-.535v4.342h-1.092v-.454a1.516,1.516,0,0,1-1.231.513,2.03,2.03,0,0,1,0-4.058,1.514,1.514,0,0,1,1.18.477v-.82h-1.34v-.661h1.34v-.431h1.143v.431h.535Zm-1.656,2.373a1.01,1.01,0,1,0-1,1.09A1,1,0,0,0,861.748,700.78Z" fill="#df071b"/>
        </g>
      </g>
    </g>
  </g>
</svg>
