<svg xmlns="http://www.w3.org/2000/svg" width="498.197" height="98.704" viewBox="0 0 498.197 98.704">
  <g id="Group_353" data-name="Group 353" transform="translate(-708.469 -1618.75)">
    <g id="Group_350" data-name="Group 350">
      <g id="Group_347" data-name="Group 347">
        <g id="Group_346" data-name="Group 346">
          <path id="Path_3737" data-name="Path 3737" d="M717.181,1657.066v1.613l-4,9.143h-2.7l3.856-8.728h-3.564v1.751h-2.213v-3.779Z" fill="#68695f"/>
          <path id="Path_3738" data-name="Path 3738" d="M718.227,1666.439a1.49,1.49,0,0,1,2.98,0,1.49,1.49,0,1,1-2.98,0Z" fill="#68695f"/>
          <path id="Path_3739" data-name="Path 3739" d="M728.89,1657.066h2.489v8.728h5.394v2.028H728.89Z" fill="#68695f"/>
          <path id="Path_3740" data-name="Path 3740" d="M746.176,1663.1v4.718h-2.243v-1.029a2.711,2.711,0,0,1-2.519,1.152c-1.937,0-3.089-1.076-3.089-2.505,0-1.46,1.029-2.474,3.549-2.474h1.906c0-1.03-.615-1.628-1.906-1.628a3.974,3.974,0,0,0-2.381.768l-.861-1.675a6.358,6.358,0,0,1,3.565-1C744.717,1659.432,746.176,1660.6,746.176,1663.1Zm-5.054-4.609h-1.768l2.044-1.752h2.09l2.044,1.752h-1.768l-1.321-.876Zm2.658,6.715v-.845h-1.645c-1.121,0-1.474.414-1.474.968,0,.6.506,1,1.351,1A1.767,1.767,0,0,0,743.78,1665.21Zm.184-9.373-.4-.738a2.363,2.363,0,0,1,1.275-.338c.861,0,1.413.476,1.413,1.214a1.517,1.517,0,0,1-1.075,1.336l-.584-.568c.415-.2.569-.446.569-.646,0-.276-.215-.445-.523-.445A1.348,1.348,0,0,0,743.964,1655.837Z" fill="#68695f"/>
          <path id="Path_3741" data-name="Path 3741" d="M757.441,1659.555v8.267h-2.275v-.984a3.342,3.342,0,0,1-2.565,1.107c-2.075,0-3.534-1.168-3.534-3.719v-4.671h2.4v4.318c0,1.382.616,2,1.675,2,1.107,0,1.905-.706,1.905-2.228v-4.087Z" fill="#68695f"/>
          <path id="Path_3742" data-name="Path 3742" d="M774.005,1663.089v4.733h-2.4v-4.364c0-1.337-.614-1.952-1.675-1.952-1.152,0-1.982.707-1.982,2.228v4.088h-2.4v-8.267h2.289v.968a3.62,3.62,0,0,1,2.736-1.091C772.53,1659.432,774.005,1660.569,774.005,1663.089Z" fill="#68695f"/>
          <path id="Path_3743" data-name="Path 3743" d="M785.56,1659.555v6.884c0,3.073-1.659,4.486-4.64,4.486a6.806,6.806,0,0,1-4.056-1.136l.952-1.722a4.939,4.939,0,0,0,2.92.938c1.69,0,2.428-.768,2.428-2.259v-.354a3.4,3.4,0,0,1-2.613,1.03,4,4,0,1,1,0-7.99,3.319,3.319,0,0,1,2.736,1.183v-1.06Zm-2.366,3.872a2.179,2.179,0,1,0-2.166,2.029A2.007,2.007,0,0,0,783.194,1663.427Z" fill="#68695f"/>
          <path id="Path_3744" data-name="Path 3744" d="M795.872,1663.1v4.718h-2.244v-1.029a2.71,2.71,0,0,1-2.519,1.152c-1.937,0-3.089-1.076-3.089-2.505,0-1.46,1.029-2.474,3.55-2.474h1.9c0-1.03-.614-1.628-1.9-1.628a3.98,3.98,0,0,0-2.382.768l-.86-1.675a6.354,6.354,0,0,1,3.564-1C794.413,1659.432,795.872,1660.6,795.872,1663.1Zm-2.4,2.106v-.845h-1.644c-1.122,0-1.475.414-1.475.968,0,.6.507,1,1.351,1A1.766,1.766,0,0,0,793.475,1665.21Z" fill="#68695f"/>
          <path id="Path_3745" data-name="Path 3745" d="M807.258,1663.089v4.733h-2.4v-4.364c0-1.337-.614-1.952-1.675-1.952-1.152,0-1.982.707-1.982,2.228v4.088h-2.4v-8.267H801.1v.968a3.619,3.619,0,0,1,2.735-1.091C805.783,1659.432,807.258,1660.569,807.258,1663.089Z" fill="#68695f"/>
          <path id="Path_3746" data-name="Path 3746" d="M829.277,1663.089v4.733h-2.4v-4.364c0-1.337-.6-1.952-1.567-1.952-1.075,0-1.828.692-1.828,2.166v4.15h-2.4v-4.364c0-1.337-.568-1.952-1.567-1.952-1.061,0-1.814.692-1.814,2.166v4.15h-2.4v-8.267H817.6v.952a3.348,3.348,0,0,1,2.6-1.075,3.086,3.086,0,0,1,2.719,1.352,3.721,3.721,0,0,1,2.982-1.352C827.864,1659.432,829.277,1660.569,829.277,1663.089Z" fill="#68695f"/>
          <path id="Path_3747" data-name="Path 3747" d="M839.511,1663.1v4.718h-2.243v-1.029a2.712,2.712,0,0,1-2.52,1.152c-1.936,0-3.088-1.076-3.088-2.505,0-1.46,1.029-2.474,3.549-2.474h1.906c0-1.03-.616-1.628-1.906-1.628a3.974,3.974,0,0,0-2.381.768l-.861-1.675a6.356,6.356,0,0,1,3.565-1C838.052,1659.432,839.511,1660.6,839.511,1663.1Zm-6.56-6.822h1.505a1.346,1.346,0,0,0,2.643,0H838.6a2.879,2.879,0,0,1-5.654,0Zm4.164,8.928v-.845H835.47c-1.121,0-1.474.414-1.474.968,0,.6.506,1,1.351,1A1.767,1.767,0,0,0,837.115,1665.21Z" fill="#68695f"/>
          <path id="Path_3748" data-name="Path 3748" d="M850.9,1663.089v4.733h-2.4v-4.364c0-1.337-.614-1.952-1.674-1.952-1.153,0-1.983.707-1.983,2.228v4.088h-2.4v-8.267h2.289v.968a3.618,3.618,0,0,1,2.735-1.091C849.422,1659.432,850.9,1660.569,850.9,1663.089Z" fill="#68695f"/>
          <path id="Path_3749" data-name="Path 3749" d="M862.453,1659.555v6.884c0,3.073-1.66,4.486-4.64,4.486a6.811,6.811,0,0,1-4.057-1.136l.952-1.722a4.941,4.941,0,0,0,2.92.938c1.691,0,2.428-.768,2.428-2.259v-.354a3.4,3.4,0,0,1-2.612,1.03,4,4,0,1,1,0-7.99,3.319,3.319,0,0,1,2.735,1.183v-1.06Zm-2.367,3.872a2.179,2.179,0,1,0-2.166,2.029A2.007,2.007,0,0,0,860.086,1663.427Z" fill="#68695f"/>
          <path id="Path_3750" data-name="Path 3750" d="M869.953,1663.688a4.273,4.273,0,0,1,4.609-4.256,3.8,3.8,0,0,1,3.7,2.1l-1.859,1a2.064,2.064,0,0,0-1.86-1.137,2.293,2.293,0,0,0,0,4.579,2.036,2.036,0,0,0,1.86-1.138l1.859,1.015a3.837,3.837,0,0,1-3.7,2.09A4.274,4.274,0,0,1,869.953,1663.688Z" fill="#68695f"/>
          <path id="Path_3751" data-name="Path 3751" d="M887.73,1663.1v4.718h-2.243v-1.029a2.713,2.713,0,0,1-2.52,1.152c-1.936,0-3.089-1.076-3.089-2.505,0-1.46,1.03-2.474,3.55-2.474h1.905c0-1.03-.615-1.628-1.905-1.628a3.979,3.979,0,0,0-2.382.768l-.86-1.675a6.355,6.355,0,0,1,3.564-1C886.271,1659.432,887.73,1660.6,887.73,1663.1Zm-2.4,2.106v-.845h-1.644c-1.121,0-1.475.414-1.475.968,0,.6.507,1,1.352,1A1.765,1.765,0,0,0,885.333,1665.21Z" fill="#68695f"/>
          <path id="Path_3752" data-name="Path 3752" d="M898.717,1659.555l-3.733,8.774c-.8,2-1.937,2.6-3.427,2.6a3.664,3.664,0,0,1-2.3-.753l.876-1.7a2.123,2.123,0,0,0,1.352.523c.661,0,1.029-.292,1.352-1.03l.031-.077-3.58-8.328h2.473l2.321,5.609,2.336-5.609Z" fill="#68695f"/>
          <path id="Path_3753" data-name="Path 3753" d="M904.993,1666.966a9.091,9.091,0,0,1,2.052-5.825h1.405a9.607,9.607,0,0,0-2.1,5.9,8,8,0,0,0,.414,2.529h-1.288A6.931,6.931,0,0,1,904.993,1666.966Z" fill="#e72024"/>
          <path id="Path_3754" data-name="Path 3754" d="M915.525,1664.148a3.6,3.6,0,0,1-3.925,3.674h-3.079l.54-2.719h-.855l.2-.973h.855l.523-2.61h2.637C914.364,1661.52,915.525,1662.537,915.525,1664.148Zm-1.477.081c0-.935-.6-1.512-1.791-1.512h-1.251l-.279,1.413h1.566l-.189.973h-1.575l-.306,1.522h1.422A2.265,2.265,0,0,0,914.048,1664.229Z" fill="#e72024"/>
          <path id="Path_3755" data-name="Path 3755" d="M922.194,1662.978l-.963,4.844H919.9l.09-.478a2.152,2.152,0,0,1-1.486.549,2.039,2.039,0,0,1-2.088-2.169,2.692,2.692,0,0,1,2.674-2.818,1.733,1.733,0,0,1,1.576.729l.125-.657Zm-1.837,2.161a1,1,0,0,0-1.108-1.071,1.449,1.449,0,0,0-1.421,1.593,1,1,0,0,0,1.107,1.071A1.45,1.45,0,0,0,920.357,1665.139Zm-1.179,3.88a.655.655,0,0,1-.684.694.54.54,0,0,1-.577-.559.689.689,0,0,1,.685-.675A.545.545,0,0,1,919.178,1669.019Zm-.693-7.823a.693.693,0,0,1,.009-.136h.855a.627.627,0,0,0,.711.64.8.8,0,0,0,.838-.64h.909a1.716,1.716,0,0,1-1.828,1.369C919.123,1662.429,918.485,1661.952,918.485,1661.2Z" fill="#e72024"/>
          <path id="Path_3756" data-name="Path 3756" d="M923.065,1665.724a2.8,2.8,0,0,1,2.953-2.818,2.247,2.247,0,0,1,2.179,1.224l-1.189.594a1.106,1.106,0,0,0-1.08-.656,1.46,1.46,0,0,0-1.44,1.584,1.015,1.015,0,0,0,1.125,1.08,1.338,1.338,0,0,0,1.188-.647l1.035.647a2.663,2.663,0,0,1-2.3,1.161A2.189,2.189,0,0,1,923.065,1665.724Z" fill="#e72024"/>
          <path id="Path_3757" data-name="Path 3757" d="M937.521,1665.076a2.694,2.694,0,0,1-2.684,2.817,1.735,1.735,0,0,1-1.62-.792l-.143.721h-1.333l1.333-6.681h1.4l-.45,2.251a2.14,2.14,0,0,1,1.395-.486A2.048,2.048,0,0,1,937.521,1665.076Zm-1.423.063a1,1,0,0,0-1.107-1.071,1.448,1.448,0,0,0-1.413,1.593,1,1,0,0,0,1.1,1.071A1.45,1.45,0,0,0,936.1,1665.139Z" fill="#e72024"/>
          <path id="Path_3758" data-name="Path 3758" d="M939.365,1662.978h1.394l-.963,4.844h-1.4Zm.116-1.4a.855.855,0,0,1,.928-.837.745.745,0,0,1,.828.7.857.857,0,0,1-.937.864A.751.751,0,0,1,939.481,1661.574Z" fill="#e72024"/>
          <path id="Path_3759" data-name="Path 3759" d="M946.727,1665.778h-3.709c.045.657.45.99,1.251.99a1.991,1.991,0,0,0,1.3-.45l.585.928a3.209,3.209,0,0,1-2.026.647,2.186,2.186,0,0,1-2.475-2.169,2.732,2.732,0,0,1,2.853-2.818,2.078,2.078,0,0,1,2.3,2.134A3.79,3.79,0,0,1,946.727,1665.778Zm-2.61,3.241a.656.656,0,0,1-.685.694.539.539,0,0,1-.576-.559.688.688,0,0,1,.684-.675A.546.546,0,0,1,944.117,1669.019Zm-.064-6.653H943l1.37-1.3H945.6l1.017,1.3h-1l-.694-.675Zm-.936,2.593h2.4a.965.965,0,0,0-1.081-1A1.329,1.329,0,0,0,943.117,1664.959Z" fill="#e72024"/>
          <path id="Path_3760" data-name="Path 3760" d="M949.562,1666.111a.733.733,0,0,0-.019.2c0,.3.163.468.514.468a1.115,1.115,0,0,0,.566-.171l.208,1a2.3,2.3,0,0,1-1.207.288,1.342,1.342,0,0,1-1.512-1.349,2.336,2.336,0,0,1,.045-.424l.387-1.953H947.8l.216-1.08h.747l.235-1.18h1.4l-.235,1.18h1.207l-.216,1.08h-1.206Z" fill="#e72024"/>
          <path id="Path_3761" data-name="Path 3761" d="M953.413,1663.671a7.984,7.984,0,0,0-.415-2.53h1.288a6.918,6.918,0,0,1,.486,2.6,9.083,9.083,0,0,1-2.053,5.824h-1.4A9.6,9.6,0,0,0,953.413,1663.671Z" fill="#e72024"/>
          <path id="Path_3762" data-name="Path 3762" d="M717.765,1687.966c0,2.029-1.813,3.3-4.548,3.3-2.72,0-4.517-1.275-4.517-3.3a2.733,2.733,0,0,1,1.629-2.535,2.484,2.484,0,0,1-1.246-2.213c0-1.889,1.691-3.073,4.134-3.073,2.474,0,4.164,1.184,4.164,3.073a2.5,2.5,0,0,1-1.26,2.213A2.726,2.726,0,0,1,717.765,1687.966Zm-2.519-.077c0-.952-.785-1.536-2.029-1.536-1.229,0-2,.584-2,1.536s.769,1.553,2,1.553C714.461,1689.442,715.246,1688.842,715.246,1687.889Zm-3.689-4.563c0,.814.646,1.322,1.66,1.322,1.03,0,1.69-.508,1.69-1.322,0-.845-.676-1.352-1.69-1.352C712.218,1681.974,711.557,1682.481,711.557,1683.326Z" fill="#68695f"/>
          <path id="Path_3763" data-name="Path 3763" d="M719.747,1689.7a1.491,1.491,0,0,1,2.981,0,1.491,1.491,0,1,1-2.981,0Z" fill="#68695f"/>
          <path id="Path_3764" data-name="Path 3764" d="M740.276,1680.33v10.756h-2.043l-5.363-6.531v6.531h-2.458V1680.33h2.058l5.348,6.53v-6.53Z" fill="#68695f"/>
          <path id="Path_3765" data-name="Path 3765" d="M751.955,1682.819v6.884c0,3.073-1.66,4.487-4.64,4.487a6.809,6.809,0,0,1-4.057-1.138l.952-1.72a4.947,4.947,0,0,0,2.92.937c1.691,0,2.428-.768,2.428-2.259v-.353a3.4,3.4,0,0,1-2.612,1.029,4,4,0,1,1,0-7.99,3.319,3.319,0,0,1,2.735,1.184v-1.061Zm-2.367,3.872a2.179,2.179,0,1,0-2.166,2.028A2.007,2.007,0,0,0,749.588,1686.691Z" fill="#68695f"/>
          <path id="Path_3766" data-name="Path 3766" d="M762.265,1686.369v4.717h-2.243v-1.03a2.712,2.712,0,0,1-2.52,1.153c-1.936,0-3.088-1.076-3.088-2.505,0-1.459,1.029-2.474,3.549-2.474h1.906c0-1.029-.616-1.629-1.906-1.629a3.973,3.973,0,0,0-2.382.769l-.86-1.675a6.348,6.348,0,0,1,3.565-1C760.806,1682.7,762.265,1683.864,762.265,1686.369Zm-2.4,2.1v-.844h-1.645c-1.121,0-1.475.415-1.475.967,0,.6.507,1,1.352,1A1.767,1.767,0,0,0,759.869,1688.473Z" fill="#68695f"/>
          <path id="Path_3767" data-name="Path 3767" d="M773.652,1686.353v4.733h-2.4v-4.364c0-1.337-.614-1.952-1.674-1.952-1.153,0-1.983.707-1.983,2.229v4.087h-2.4v-8.267h2.289v.968a3.621,3.621,0,0,1,2.735-1.091C772.176,1682.7,773.652,1683.834,773.652,1686.353Z" fill="#68695f"/>
          <path id="Path_3768" data-name="Path 3768" d="M781.089,1686.953a4.551,4.551,0,1,1,4.549,4.256A4.256,4.256,0,0,1,781.089,1686.953Zm6.654,0a2.119,2.119,0,1,0-2.1,2.289A2.086,2.086,0,0,0,787.743,1686.953Z" fill="#68695f"/>
          <path id="Path_3769" data-name="Path 3769" d="M806.5,1686.353v4.733h-2.4v-4.364c0-1.337-.6-1.952-1.568-1.952-1.075,0-1.828.692-1.828,2.167v4.149h-2.4v-4.364c0-1.337-.568-1.952-1.568-1.952-1.06,0-1.813.692-1.813,2.167v4.149h-2.4v-8.267h2.289v.953a3.348,3.348,0,0,1,2.6-1.076,3.087,3.087,0,0,1,2.72,1.352,3.72,3.72,0,0,1,2.981-1.352C805.091,1682.7,806.5,1683.834,806.5,1686.353Z" fill="#68695f"/>
          <path id="Path_3770" data-name="Path 3770" d="M813.744,1690.318l.8-1.722a5.652,5.652,0,0,0,2.873.8c1.107,0,1.522-.291,1.522-.753,0-1.351-4.994.031-4.994-3.272,0-1.568,1.414-2.674,3.826-2.674a6.8,6.8,0,0,1,3.181.723l-.8,1.705a4.75,4.75,0,0,0-2.382-.615c-1.075,0-1.536.338-1.536.769,0,1.413,4.993.046,4.993,3.3,0,1.536-1.429,2.627-3.9,2.627A7.091,7.091,0,0,1,813.744,1690.318Z" fill="#68695f"/>
          <path id="Path_3771" data-name="Path 3771" d="M830.784,1686.369v4.717H828.54v-1.03a2.711,2.711,0,0,1-2.519,1.153c-1.937,0-3.089-1.076-3.089-2.505,0-1.459,1.029-2.474,3.55-2.474h1.905c0-1.029-.614-1.629-1.905-1.629a3.973,3.973,0,0,0-2.382.769l-.86-1.675a6.347,6.347,0,0,1,3.564-1C829.325,1682.7,830.784,1683.864,830.784,1686.369Zm-5.055-4.611h-1.768l2.044-1.751h2.09l2.044,1.751h-1.767l-1.322-.875Zm2.658,6.715v-.844h-1.644c-1.121,0-1.475.415-1.475.967,0,.6.507,1,1.352,1A1.766,1.766,0,0,0,828.387,1688.473Zm2.243-8.189h-1.736l1.706-1.86h2.442Z" fill="#68695f"/>
          <path id="Path_3772" data-name="Path 3772" d="M842.047,1682.819v8.267h-2.274v-.984a3.343,3.343,0,0,1-2.566,1.107c-2.075,0-3.534-1.168-3.534-3.719v-4.671h2.4v4.318c0,1.383.615,2,1.675,2,1.106,0,1.905-.707,1.905-2.228v-4.087Z" fill="#68695f"/>
          <path id="Path_3773" data-name="Path 3773" d="M864.127,1686.353v4.733h-2.4v-4.364c0-1.337-.6-1.952-1.567-1.952-1.076,0-1.829.692-1.829,2.167v4.149h-2.4v-4.364c0-1.337-.568-1.952-1.567-1.952-1.061,0-1.814.692-1.814,2.167v4.149h-2.4v-8.267h2.289v.953a3.348,3.348,0,0,1,2.6-1.076,3.087,3.087,0,0,1,2.72,1.352,3.72,3.72,0,0,1,2.981-1.352C862.714,1682.7,864.127,1683.834,864.127,1686.353Z" fill="#68695f"/>
          <path id="Path_3774" data-name="Path 3774" d="M875.193,1687.629h-6.254a2.2,2.2,0,0,0,2.366,1.659,2.8,2.8,0,0,0,2.074-.8l1.276,1.383a4.33,4.33,0,0,1-3.411,1.337c-2.859,0-4.717-1.8-4.717-4.256a4.208,4.208,0,0,1,4.409-4.257,4.093,4.093,0,0,1,4.3,4.287C875.239,1687.168,875.207,1687.428,875.193,1687.629Zm-6.285-1.4h4.072a2.065,2.065,0,0,0-4.072,0Z" fill="#68695f"/>
          <path id="Path_3775" data-name="Path 3775" d="M882.891,1679.684h4.164v1.875h-1.766v10.633h1.766v1.875h-4.164Z" fill="#68695f"/>
          <path id="Path_3776" data-name="Path 3776" d="M898.241,1688.827H896.49v2.259h-2.428v-2.259h-5.793v-1.675l5.07-6.822h2.613l-4.7,6.468h2.889v-2.012h2.352v2.012h1.751Z" fill="#68695f"/>
          <path id="Path_3777" data-name="Path 3777" d="M899.748,1685.708c0-3.549,1.967-5.563,4.61-5.563,2.658,0,4.609,2.014,4.609,5.563s-1.951,5.562-4.609,5.562C901.715,1691.27,899.748,1689.257,899.748,1685.708Zm6.715,0c0-2.444-.861-3.457-2.105-3.457s-2.09,1.013-2.09,3.457.86,3.457,2.09,3.457S906.463,1688.151,906.463,1685.708Z" fill="#68695f"/>
          <path id="Path_3778" data-name="Path 3778" d="M920.46,1686.953a4.015,4.015,0,0,1-4.118,4.256,3.21,3.21,0,0,1-2.489-1v3.857h-2.4v-11.248h2.29v.953a3.209,3.209,0,0,1,2.6-1.076A4.015,4.015,0,0,1,920.46,1686.953Zm-2.427,0a2.112,2.112,0,1,0-2.105,2.289A2.086,2.086,0,0,0,918.033,1686.953Z" fill="#68695f"/>
          <path id="Path_3779" data-name="Path 3779" d="M921.952,1694.067v-1.875H923.7v-10.633h-1.752v-1.875H926.1v14.383Z" fill="#68695f"/>
          <path id="Path_3780" data-name="Path 3780" d="M933.774,1690.23a9.089,9.089,0,0,1,2.053-5.824h1.4a9.6,9.6,0,0,0-2.1,5.9,8.013,8.013,0,0,0,.414,2.531H934.26A6.937,6.937,0,0,1,933.774,1690.23Z" fill="#17a31e"/>
          <path id="Path_3781" data-name="Path 3781" d="M943.326,1689.1c0,1.351-1.2,1.99-2.836,1.99h-3.3l1.261-6.3h3.043c1.359,0,2.115.513,2.115,1.44a1.692,1.692,0,0,1-1.125,1.612A1.277,1.277,0,0,1,943.326,1689.1Zm-1.451-.018c0-.468-.369-.648-.945-.648h-1.765l-.3,1.558h1.72C941.38,1689.988,941.875,1689.681,941.875,1689.078Zm-2.205-3.2-.3,1.486h1.487c.756,0,1.215-.307,1.215-.892,0-.414-.342-.594-.927-.594Z" fill="#17a31e"/>
          <path id="Path_3782" data-name="Path 3782" d="M950.309,1686.243l-.963,4.843h-1.333l.09-.477a2.157,2.157,0,0,1-1.485.549,2.039,2.039,0,0,1-2.088-2.17,2.691,2.691,0,0,1,2.674-2.817,1.73,1.73,0,0,1,1.575.729l.126-.657Zm-1.837,2.16a1,1,0,0,0-1.107-1.071,1.45,1.45,0,0,0-1.422,1.593A1,1,0,0,0,947.05,1690,1.451,1.451,0,0,0,948.472,1688.4Zm-.162-2.782h-1.134l1.351-1.3h1.548Z" fill="#17a31e"/>
          <path id="Path_3783" data-name="Path 3783" d="M956.636,1687.818a2.761,2.761,0,0,1-.063.585l-.54,2.683h-1.405l.523-2.593a1.565,1.565,0,0,0,.036-.333c0-.495-.271-.775-.828-.775a1.341,1.341,0,0,0-1.378,1.244l-.486,2.457h-1.4l.964-4.843h1.332l-.108.521a2.308,2.308,0,0,1,1.594-.593A1.57,1.57,0,0,1,956.636,1687.818Z" fill="#17a31e"/>
          <path id="Path_3784" data-name="Path 3784" d="M960.846,1688.988a2.8,2.8,0,0,1,2.953-2.817,2.247,2.247,0,0,1,2.179,1.224l-1.189.594a1.1,1.1,0,0,0-1.08-.657,1.461,1.461,0,0,0-1.44,1.585,1.016,1.016,0,0,0,1.125,1.08,1.338,1.338,0,0,0,1.188-.649l1.036.649a2.671,2.671,0,0,1-2.3,1.161A2.189,2.189,0,0,1,960.846,1688.988Z" fill="#17a31e"/>
          <path id="Path_3785" data-name="Path 3785" d="M972.035,1687.827a2.692,2.692,0,0,1-.064.576l-.54,2.683h-1.4l.522-2.593a1.5,1.5,0,0,0,.036-.333c0-.495-.27-.775-.828-.775a1.341,1.341,0,0,0-1.378,1.244l-.486,2.457h-1.4l1.333-6.68h1.4l-.45,2.277a2.305,2.305,0,0,1,1.494-.512A1.577,1.577,0,0,1,972.035,1687.827Z" fill="#17a31e"/>
          <path id="Path_3786" data-name="Path 3786" d="M979.09,1686.243l-.963,4.843h-1.333l.09-.477a2.155,2.155,0,0,1-1.485.549,2.039,2.039,0,0,1-2.088-2.17,2.692,2.692,0,0,1,2.674-2.817,1.729,1.729,0,0,1,1.575.729l.126-.657Zm-1.837,2.16a1,1,0,0,0-1.107-1.071,1.45,1.45,0,0,0-1.422,1.593,1,1,0,0,0,1.107,1.072A1.451,1.451,0,0,0,977.253,1688.4Zm-1.178,3.88a.655.655,0,0,1-.685.693.538.538,0,0,1-.576-.557.688.688,0,0,1,.684-.676A.545.545,0,0,1,976.075,1692.283Z" fill="#17a31e"/>
          <path id="Path_3787" data-name="Path 3787" d="M985.642,1686.243l-3.223,5.167c-.711,1.143-1.287,1.494-2.214,1.494a2.07,2.07,0,0,1-1.315-.423l.649-1.008a1.144,1.144,0,0,0,.774.3c.369,0,.6-.171.873-.595l.045-.081-1.116-4.851h1.4l.721,3.295,2.016-3.295Z" fill="#17a31e"/>
          <path id="Path_3788" data-name="Path 3788" d="M987.1,1686.935a8.006,8.006,0,0,0-.414-2.529h1.287a6.911,6.911,0,0,1,.486,2.6,9.086,9.086,0,0,1-2.052,5.826H985A9.6,9.6,0,0,0,987.1,1686.935Z" fill="#17a31e"/>
          <path id="Path_3789" data-name="Path 3789" d="M717.35,1708.741c0,3.719-2.228,5.793-5.485,5.793a5.742,5.742,0,0,1-2.981-.738l.922-1.829a3.465,3.465,0,0,0,2.013.538c1.782,0,2.95-1.06,3.026-3.134a3.675,3.675,0,0,1-2.673.968,3.412,3.412,0,0,1-3.7-3.35c0-2.2,1.8-3.58,4.071-3.58C715.522,1703.409,717.35,1705.268,717.35,1708.741Zm-2.781-1.874c0-.922-.692-1.6-1.874-1.6a1.618,1.618,0,1,0,.03,3.212A1.669,1.669,0,0,0,714.569,1706.867Z" fill="#68695f"/>
          <path id="Path_3790" data-name="Path 3790" d="M719.041,1712.966a1.491,1.491,0,0,1,2.981,0,1.491,1.491,0,1,1-2.981,0Z" fill="#68695f"/>
          <path id="Path_3791" data-name="Path 3791" d="M739.57,1703.593v10.756h-2.043l-5.363-6.53v6.53h-2.458v-10.756h2.058l5.348,6.531v-6.531Z" fill="#68695f"/>
          <path id="Path_3792" data-name="Path 3792" d="M751.247,1706.083v6.883c0,3.074-1.659,4.488-4.639,4.488a6.81,6.81,0,0,1-4.057-1.138l.952-1.721a4.941,4.941,0,0,0,2.92.938c1.691,0,2.428-.769,2.428-2.259v-.353a3.4,3.4,0,0,1-2.612,1.029,4,4,0,1,1,0-7.99,3.319,3.319,0,0,1,2.735,1.183v-1.06Zm-2.366,3.872a2.179,2.179,0,1,0-2.166,2.028A2.007,2.007,0,0,0,748.881,1709.955Z" fill="#68695f"/>
          <path id="Path_3793" data-name="Path 3793" d="M761.559,1709.632v4.717h-2.243v-1.029a2.712,2.712,0,0,1-2.52,1.152c-1.936,0-3.089-1.075-3.089-2.505,0-1.459,1.03-2.473,3.55-2.473h1.906c0-1.03-.615-1.629-1.906-1.629a3.979,3.979,0,0,0-2.382.768l-.86-1.674a6.348,6.348,0,0,1,3.565-1C760.1,1705.96,761.559,1707.128,761.559,1709.632Zm-2.4,2.105v-.845h-1.645c-1.121,0-1.475.415-1.475.968,0,.6.507,1,1.352,1A1.767,1.767,0,0,0,759.163,1711.737Z" fill="#68695f"/>
          <path id="Path_3794" data-name="Path 3794" d="M772.946,1709.617v4.732h-2.4v-4.363c0-1.337-.614-1.952-1.675-1.952-1.152,0-1.982.707-1.982,2.228v4.087h-2.4v-8.266h2.289v.967a3.62,3.62,0,0,1,2.735-1.09C771.47,1705.96,772.946,1707.1,772.946,1709.617Z" fill="#68695f"/>
          <path id="Path_3795" data-name="Path 3795" d="M780.382,1710.216a4.551,4.551,0,1,1,4.549,4.256A4.256,4.256,0,0,1,780.382,1710.216Zm6.654,0a2.119,2.119,0,1,0-2.1,2.289A2.087,2.087,0,0,0,787.036,1710.216Z" fill="#68695f"/>
          <path id="Path_3796" data-name="Path 3796" d="M805.8,1709.617v4.732h-2.4v-4.363c0-1.337-.6-1.952-1.568-1.952-1.075,0-1.828.691-1.828,2.167v4.148h-2.4v-4.363c0-1.337-.569-1.952-1.568-1.952-1.06,0-1.813.691-1.813,2.167v4.148h-2.4v-8.266h2.29v.953a3.348,3.348,0,0,1,2.6-1.076,3.087,3.087,0,0,1,2.72,1.352,3.717,3.717,0,0,1,2.981-1.352C804.385,1705.96,805.8,1707.1,805.8,1709.617Z" fill="#68695f"/>
          <path id="Path_3797" data-name="Path 3797" d="M822.363,1706.083v6.883c0,3.074-1.659,4.488-4.64,4.488a6.812,6.812,0,0,1-4.057-1.138l.953-1.721a4.938,4.938,0,0,0,2.92.938c1.69,0,2.427-.769,2.427-2.259v-.353a3.4,3.4,0,0,1-2.612,1.029,4,4,0,1,1,0-7.99,3.319,3.319,0,0,1,2.735,1.183v-1.06ZM820,1709.955a2.179,2.179,0,1,0-2.166,2.028A2.008,2.008,0,0,0,820,1709.955Z" fill="#68695f"/>
          <path id="Path_3798" data-name="Path 3798" d="M825.069,1703.593a1.37,1.37,0,0,1,1.49-1.337,1.345,1.345,0,0,1,1.49,1.291,1.5,1.5,0,0,1-2.98.046Zm.292,2.49h2.4v8.266h-2.4Z" fill="#68695f"/>
          <path id="Path_3799" data-name="Path 3799" d="M838.852,1710.247c0,.184-.031.445-.046.645h-6.254a2.205,2.205,0,0,0,2.366,1.659,2.8,2.8,0,0,0,2.075-.8l1.275,1.382a4.331,4.331,0,0,1-3.411,1.337c-2.859,0-4.717-1.8-4.717-4.256a4.208,4.208,0,0,1,4.409-4.256A4.092,4.092,0,0,1,838.852,1710.247Zm-5.67-5.225h-1.768l2.044-1.751h2.09l2.044,1.751h-1.767l-1.322-.875Zm-.661,4.472h4.072a2.065,2.065,0,0,0-4.072,0Zm4.748-5.947-2.412-1.859H837.3l1.69,1.859Z" fill="#68695f"/>
          <path id="Path_3800" data-name="Path 3800" d="M849.669,1709.617v4.732h-2.4v-4.363c0-1.337-.614-1.952-1.675-1.952-1.152,0-1.982.707-1.982,2.228v4.087h-2.4v-8.266h2.289v.967a3.624,3.624,0,0,1,2.736-1.09C848.194,1705.96,849.669,1707.1,849.669,1709.617Z" fill="#68695f"/>
          <path id="Path_3801" data-name="Path 3801" d="M861.224,1706.083v6.883c0,3.074-1.659,4.488-4.64,4.488a6.809,6.809,0,0,1-4.056-1.138l.952-1.721a4.939,4.939,0,0,0,2.92.938c1.69,0,2.428-.769,2.428-2.259v-.353a3.407,3.407,0,0,1-2.613,1.029,4,4,0,1,1,0-7.99,3.319,3.319,0,0,1,2.736,1.183v-1.06Zm-2.366,3.872a2.179,2.179,0,1,0-2.166,2.028A2.007,2.007,0,0,0,858.858,1709.955Z" fill="#68695f"/>
          <path id="Path_3802" data-name="Path 3802" d="M883.3,1709.617v4.732h-2.4v-4.363c0-1.337-.6-1.952-1.568-1.952-1.075,0-1.828.691-1.828,2.167v4.148h-2.4v-4.363c0-1.337-.569-1.952-1.568-1.952-1.06,0-1.813.691-1.813,2.167v4.148h-2.4v-8.266h2.289v.953a3.35,3.35,0,0,1,2.6-1.076,3.088,3.088,0,0,1,2.72,1.352,3.718,3.718,0,0,1,2.981-1.352C881.892,1705.96,883.3,1707.1,883.3,1709.617Z" fill="#68695f"/>
          <path id="Path_3803" data-name="Path 3803" d="M894.371,1710.892h-6.254a2.2,2.2,0,0,0,2.366,1.659,2.8,2.8,0,0,0,2.074-.8l1.275,1.382a4.328,4.328,0,0,1-3.411,1.337c-2.858,0-4.716-1.8-4.716-4.256a4.207,4.207,0,0,1,4.409-4.256,4.092,4.092,0,0,1,4.3,4.287C894.416,1710.431,894.385,1710.692,894.371,1710.892Zm-6.286-1.4h4.073a2.065,2.065,0,0,0-4.073,0Zm.846-6.407-.492-.968a2.671,2.671,0,0,1,1.66-.523,1.665,1.665,0,0,1,1.844,1.644,2.065,2.065,0,0,1-1.414,1.936l-.753-.8c.6-.278.784-.584.784-.938a.652.652,0,0,0-.723-.645A1.611,1.611,0,0,0,888.931,1703.087Z" fill="#68695f"/>
          <path id="Path_3804" data-name="Path 3804" d="M902.069,1702.948h4.164v1.875h-1.767v10.633h1.767v1.875h-4.164Z" fill="#68695f"/>
          <path id="Path_3805" data-name="Path 3805" d="M917.418,1712.09h-1.751v2.259H913.24v-2.259h-5.793v-1.674l5.07-6.823h2.612l-4.7,6.469h2.889v-2.013h2.351v2.013h1.751Z" fill="#68695f"/>
          <path id="Path_3806" data-name="Path 3806" d="M918.926,1708.971c0-3.549,1.967-5.562,4.61-5.562s4.609,2.013,4.609,5.562-1.951,5.563-4.609,5.563S918.926,1712.521,918.926,1708.971Zm6.715,0c0-2.443-.861-3.457-2.1-3.457s-2.09,1.014-2.09,3.457.86,3.457,2.09,3.457S925.641,1711.415,925.641,1708.971Z" fill="#68695f"/>
          <path id="Path_3807" data-name="Path 3807" d="M939.638,1710.216a4.015,4.015,0,0,1-4.118,4.256,3.207,3.207,0,0,1-2.489-1v3.858h-2.4v-11.248h2.289v.953a3.212,3.212,0,0,1,2.6-1.076A4.015,4.015,0,0,1,939.638,1710.216Zm-2.428,0a2.112,2.112,0,1,0-2.1,2.289A2.086,2.086,0,0,0,937.21,1710.216Z" fill="#68695f"/>
          <path id="Path_3808" data-name="Path 3808" d="M941.129,1717.331v-1.875h1.752v-10.633h-1.752v-1.875h4.149v14.383Z" fill="#68695f"/>
        </g>
      </g>
      <g id="Group_349" data-name="Group 349">
        <g id="Group_348" data-name="Group 348">
          <path id="Path_3809" data-name="Path 3809" d="M1135.259,1664.534c0,1.812-1.4,3.472-4.456,3.472a7.39,7.39,0,0,1-4.1-1.153l.968-1.905a5.222,5.222,0,0,0,3.073.969c1.245,0,2.013-.508,2.013-1.383,0-.815-.6-1.322-2.013-1.322H1129.6v-1.644l2.213-2.505h-4.579v-2h7.529v1.613l-2.428,2.766A3.056,3.056,0,0,1,1135.259,1664.534Z" fill="#e72024"/>
          <path id="Path_3810" data-name="Path 3810" d="M1147.03,1665.563h-1.751v2.259h-2.428v-2.259h-5.793v-1.675l5.07-6.822h2.613l-4.7,6.469h2.888v-2.013h2.352v2.013h1.751Z" fill="#e72024"/>
          <path id="Path_3811" data-name="Path 3811" d="M1156.634,1664.441c0,1.9-1.4,3.565-4.471,3.565a7.429,7.429,0,0,1-4.1-1.153l.983-1.905a5.178,5.178,0,0,0,3.058.969c1.245,0,2.014-.523,2.014-1.4,0-.846-.554-1.4-2.505-1.4h-2.75l.553-6.054h6.561v2h-4.487l-.169,2.044h.876C1155.374,1661.107,1156.634,1662.536,1156.634,1664.441Z" fill="#e72024"/>
          <path id="Path_3812" data-name="Path 3812" d="M1158.34,1666.439a1.491,1.491,0,0,1,2.981,0,1.491,1.491,0,1,1-2.981,0Z" fill="#e72024"/>
          <path id="Path_3813" data-name="Path 3813" d="M1163.012,1662.444c0-3.55,1.967-5.563,4.61-5.563,2.658,0,4.609,2.013,4.609,5.563s-1.951,5.562-4.609,5.562C1164.979,1668.006,1163.012,1665.993,1163.012,1662.444Zm6.715,0c0-2.443-.861-3.458-2.105-3.458s-2.09,1.015-2.09,3.458.86,3.457,2.09,3.457S1169.727,1664.886,1169.727,1662.444Z" fill="#e72024"/>
          <path id="Path_3814" data-name="Path 3814" d="M1174.213,1662.444c0-3.55,1.967-5.563,4.61-5.563,2.658,0,4.609,2.013,4.609,5.563s-1.951,5.562-4.609,5.562C1176.18,1668.006,1174.213,1665.993,1174.213,1662.444Zm6.715,0c0-2.443-.861-3.458-2.1-3.458s-2.09,1.015-2.09,3.458.86,3.457,2.09,3.457S1180.928,1664.886,1180.928,1662.444Z" fill="#e72024"/>
          <path id="Path_3815" data-name="Path 3815" d="M1185.415,1662.444c0-3.55,1.967-5.563,4.61-5.563s4.609,2.013,4.609,5.563-1.951,5.562-4.609,5.562S1185.415,1665.993,1185.415,1662.444Zm6.715,0c0-2.443-.861-3.458-2.1-3.458s-2.09,1.015-2.09,3.458.86,3.457,2.09,3.457S1192.13,1664.886,1192.13,1662.444Z" fill="#e72024"/>
          <path id="Path_3816" data-name="Path 3816" d="M1206.666,1658.71h-1.122v9.112h-2.289v-.953a3.18,3.18,0,0,1-2.581,1.076,4.258,4.258,0,0,1,0-8.513,3.178,3.178,0,0,1,2.474,1v-1.721h-2.813v-1.383h2.813v-.906h2.4v.906h1.122Zm-3.472,4.978a2.12,2.12,0,1,0-2.106,2.29A2.094,2.094,0,0,0,1203.194,1663.688Z" fill="#e72024"/>
          <path id="Path_3817" data-name="Path 3817" d="M1135.259,1687.8c0,1.814-1.4,3.473-4.456,3.473a7.4,7.4,0,0,1-4.1-1.152l.968-1.905a5.228,5.228,0,0,0,3.073.967c1.245,0,2.013-.507,2.013-1.383,0-.814-.6-1.321-2.013-1.321H1129.6v-1.644l2.213-2.5h-4.579v-2h7.529v1.613l-2.428,2.766A3.054,3.054,0,0,1,1135.259,1687.8Z" fill="#e72024"/>
          <path id="Path_3818" data-name="Path 3818" d="M1147.03,1688.827h-1.751v2.259h-2.428v-2.259h-5.793v-1.675l5.07-6.822h2.613l-4.7,6.468h2.888v-2.012h2.352v2.012h1.751Z" fill="#e72024"/>
          <path id="Path_3819" data-name="Path 3819" d="M1156.634,1687.706c0,1.9-1.4,3.564-4.471,3.564a7.437,7.437,0,0,1-4.1-1.152l.983-1.905a5.184,5.184,0,0,0,3.058.967c1.245,0,2.014-.522,2.014-1.4,0-.845-.554-1.4-2.505-1.4h-2.75l.553-6.054h6.561v2h-4.487l-.169,2.043h.876C1155.374,1684.371,1156.634,1685.8,1156.634,1687.706Z" fill="#e72024"/>
          <path id="Path_3820" data-name="Path 3820" d="M1158.34,1689.7a1.491,1.491,0,0,1,2.981,0,1.491,1.491,0,1,1-2.981,0Z" fill="#e72024"/>
          <path id="Path_3821" data-name="Path 3821" d="M1163.012,1685.708c0-3.549,1.967-5.563,4.61-5.563,2.658,0,4.609,2.014,4.609,5.563s-1.951,5.562-4.609,5.562C1164.979,1691.27,1163.012,1689.257,1163.012,1685.708Zm6.715,0c0-2.444-.861-3.457-2.105-3.457s-2.09,1.013-2.09,3.457.86,3.457,2.09,3.457S1169.727,1688.151,1169.727,1685.708Z" fill="#e72024"/>
          <path id="Path_3822" data-name="Path 3822" d="M1174.213,1685.708c0-3.549,1.967-5.563,4.61-5.563,2.658,0,4.609,2.014,4.609,5.563s-1.951,5.562-4.609,5.562C1176.18,1691.27,1174.213,1689.257,1174.213,1685.708Zm6.715,0c0-2.444-.861-3.457-2.1-3.457s-2.09,1.013-2.09,3.457.86,3.457,2.09,3.457S1180.928,1688.151,1180.928,1685.708Z" fill="#e72024"/>
          <path id="Path_3823" data-name="Path 3823" d="M1185.415,1685.708c0-3.549,1.967-5.563,4.61-5.563s4.609,2.014,4.609,5.563-1.951,5.562-4.609,5.562S1185.415,1689.257,1185.415,1685.708Zm6.715,0c0-2.444-.861-3.457-2.1-3.457s-2.09,1.013-2.09,3.457.86,3.457,2.09,3.457S1192.13,1688.151,1192.13,1685.708Z" fill="#e72024"/>
          <path id="Path_3824" data-name="Path 3824" d="M1206.666,1681.974h-1.122v9.112h-2.289v-.953a3.18,3.18,0,0,1-2.581,1.076,4.258,4.258,0,0,1,0-8.513,3.178,3.178,0,0,1,2.474,1v-1.721h-2.813v-1.383h2.813v-.907h2.4v.907h1.122Zm-3.472,4.979a2.12,2.12,0,1,0-2.106,2.289A2.095,2.095,0,0,0,1203.194,1686.953Z" fill="#e72024"/>
          <path id="Path_3825" data-name="Path 3825" d="M1135.259,1711.061c0,1.814-1.4,3.473-4.456,3.473a7.389,7.389,0,0,1-4.1-1.153l.968-1.905a5.229,5.229,0,0,0,3.073.968c1.245,0,2.013-.507,2.013-1.383,0-.814-.6-1.321-2.013-1.321H1129.6v-1.645l2.213-2.5h-4.579v-2h7.529v1.614l-2.428,2.765A3.056,3.056,0,0,1,1135.259,1711.061Z" fill="#e72024"/>
          <path id="Path_3826" data-name="Path 3826" d="M1147.03,1712.09h-1.751v2.259h-2.428v-2.259h-5.793v-1.674l5.07-6.823h2.613l-4.7,6.469h2.888v-2.013h2.352v2.013h1.751Z" fill="#e72024"/>
          <path id="Path_3827" data-name="Path 3827" d="M1156.634,1710.969c0,1.906-1.4,3.565-4.471,3.565a7.429,7.429,0,0,1-4.1-1.153l.983-1.905a5.184,5.184,0,0,0,3.058.968c1.245,0,2.014-.523,2.014-1.4,0-.845-.554-1.4-2.505-1.4h-2.75l.553-6.055h6.561v2h-4.487l-.169,2.043h.876C1155.374,1707.634,1156.634,1709.064,1156.634,1710.969Z" fill="#e72024"/>
          <path id="Path_3828" data-name="Path 3828" d="M1158.34,1712.966a1.491,1.491,0,0,1,2.981,0,1.491,1.491,0,1,1-2.981,0Z" fill="#e72024"/>
          <path id="Path_3829" data-name="Path 3829" d="M1163.012,1708.971c0-3.549,1.967-5.562,4.61-5.562,2.658,0,4.609,2.013,4.609,5.562s-1.951,5.563-4.609,5.563C1164.979,1714.534,1163.012,1712.521,1163.012,1708.971Zm6.715,0c0-2.443-.861-3.457-2.105-3.457s-2.09,1.014-2.09,3.457.86,3.457,2.09,3.457S1169.727,1711.415,1169.727,1708.971Z" fill="#e72024"/>
          <path id="Path_3830" data-name="Path 3830" d="M1174.213,1708.971c0-3.549,1.967-5.562,4.61-5.562,2.658,0,4.609,2.013,4.609,5.562s-1.951,5.563-4.609,5.563C1176.18,1714.534,1174.213,1712.521,1174.213,1708.971Zm6.715,0c0-2.443-.861-3.457-2.1-3.457s-2.09,1.014-2.09,3.457.86,3.457,2.09,3.457S1180.928,1711.415,1180.928,1708.971Z" fill="#e72024"/>
          <path id="Path_3831" data-name="Path 3831" d="M1185.415,1708.971c0-3.549,1.967-5.562,4.61-5.562s4.609,2.013,4.609,5.562-1.951,5.563-4.609,5.563S1185.415,1712.521,1185.415,1708.971Zm6.715,0c0-2.443-.861-3.457-2.1-3.457s-2.09,1.014-2.09,3.457.86,3.457,2.09,3.457S1192.13,1711.415,1192.13,1708.971Z" fill="#e72024"/>
          <path id="Path_3832" data-name="Path 3832" d="M1206.666,1705.238h-1.122v9.111h-2.289v-.952a3.179,3.179,0,0,1-2.581,1.075,4.258,4.258,0,0,1,0-8.512,3.178,3.178,0,0,1,2.474,1v-1.721h-2.813v-1.383h2.813v-.907h2.4v.907h1.122Zm-3.472,4.978a2.12,2.12,0,1,0-2.106,2.289A2.1,2.1,0,0,0,1203.194,1710.216Z" fill="#e72024"/>
        </g>
      </g>
    </g>
    <g id="Group_352" data-name="Group 352">
      <g id="Group_351" data-name="Group 351">
        <path id="Path_3833" data-name="Path 3833" d="M719.286,1622.96v10.755h-2.043l-5.364-6.53v6.53h-2.458V1622.96h2.059l5.348,6.53v-6.53Z" fill="#e72024"/>
        <path id="Path_3834" data-name="Path 3834" d="M729.873,1628.169h2.275v4.364a7.433,7.433,0,0,1-4.349,1.367,5.534,5.534,0,0,1-5.869-5.562c0-3.243,2.489-5.563,5.915-5.563a5.737,5.737,0,0,1,4.5,1.859l-1.6,1.476a3.638,3.638,0,0,0-2.781-1.214,3.443,3.443,0,1,0-.03,6.884,3.946,3.946,0,0,0,1.935-.461Z" fill="#e72024"/>
        <path id="Path_3835" data-name="Path 3835" d="M742.3,1631.411h-4.993l-.953,2.3h-2.551l4.795-10.755h2.458l4.81,10.755h-2.613Zm-.783-1.89-1.705-4.118-1.706,4.118Z" fill="#e72024"/>
        <path id="Path_3836" data-name="Path 3836" d="M757.624,1622.96v10.755h-2.043l-5.363-6.53v6.53H747.76V1622.96h2.059l5.347,6.53v-6.53Z" fill="#e72024"/>
        <path id="Path_3837" data-name="Path 3837" d="M777.08,1628.338c0,3.257-2.414,5.377-5.932,5.377h-4.887v-4.64H764.8v-1.659h1.459v-4.456h4.887C774.666,1622.96,777.08,1625.081,777.08,1628.338Zm-2.521,0a3.21,3.21,0,0,0-3.534-3.334H768.75v2.412h2.69v1.659h-2.69v2.6h2.275A3.21,3.21,0,0,0,774.559,1628.338Z" fill="#e72024"/>
        <path id="Path_3838" data-name="Path 3838" d="M790.816,1628.338a5.894,5.894,0,1,1-5.885-5.563A5.566,5.566,0,0,1,790.816,1628.338Zm-2.52,0a3.366,3.366,0,1,0-3.365,3.442A3.281,3.281,0,0,0,788.3,1628.338Zm-4.686-6.254h-1.768l2.044-1.751h2.09l2.044,1.751h-1.768l-1.321-.876Zm4.087-1.475-2.412-1.859h2.443l1.689,1.859Z" fill="#e72024"/>
        <path id="Path_3839" data-name="Path 3839" d="M803.324,1622.96v10.755h-2.043l-5.364-6.53v6.53h-2.458V1622.96h2.059l5.348,6.53v-6.53Z" fill="#e72024"/>
        <path id="Path_3840" data-name="Path 3840" d="M813.912,1628.169h2.274v4.364a7.433,7.433,0,0,1-4.349,1.367,5.534,5.534,0,0,1-5.869-5.562c0-3.243,2.489-5.563,5.915-5.563a5.737,5.737,0,0,1,4.5,1.859l-1.6,1.476a3.641,3.641,0,0,0-2.782-1.214,3.443,3.443,0,1,0-.03,6.884,3.952,3.952,0,0,0,1.936-.461Z" fill="#e72024"/>
        <path id="Path_3841" data-name="Path 3841" d="M835.394,1628.338c0,3.257-2.413,5.377-5.932,5.377h-4.886v-4.64h-1.459v-1.659h1.459v-4.456h4.886C832.981,1622.96,835.394,1625.081,835.394,1628.338Zm-2.521,0a3.21,3.21,0,0,0-3.534-3.334h-2.274v2.412h2.689v1.659h-2.689v2.6h2.274A3.21,3.21,0,0,0,832.873,1628.338Z" fill="#e72024"/>
        <path id="Path_3842" data-name="Path 3842" d="M849.131,1628.338a5.894,5.894,0,1,1-5.884-5.563A5.566,5.566,0,0,1,849.131,1628.338Zm-2.519,0a3.366,3.366,0,1,0-3.365,3.442A3.282,3.282,0,0,0,846.612,1628.338Zm-4.7-6.254h-1.752l2.028-2.212h2.121l2.028,2.212h-1.752l-1.336-1.167Zm2.4,13.829a1.061,1.061,0,0,1-2.121,0,1.061,1.061,0,1,1,2.121,0Z" fill="#e72024"/>
        <path id="Path_3843" data-name="Path 3843" d="M851.775,1622.96h2.489v10.755h-2.489Z" fill="#e72024"/>
        <path id="Path_3844" data-name="Path 3844" d="M862.7,1622.314h4.164v1.875H865.1v10.633h1.767v1.875H862.7Z" fill="#e72024"/>
        <path id="Path_3845" data-name="Path 3845" d="M873.564,1628.338a5.923,5.923,0,0,1,10.264-3.658l-1.6,1.476a3.461,3.461,0,0,0-2.7-1.26,3.442,3.442,0,1,0,0,6.884,3.432,3.432,0,0,0,2.7-1.275l1.6,1.474a5.912,5.912,0,0,1-10.264-3.641Z" fill="#e72024"/>
        <path id="Path_3846" data-name="Path 3846" d="M890.343,1636.7v-1.875h1.752v-10.633h-1.752v-1.875h4.149V1636.7Z" fill="#e72024"/>
      </g>
    </g>
  </g>
</svg>
