<svg xmlns="http://www.w3.org/2000/svg" xmlns:xlink="http://www.w3.org/1999/xlink" width="239" height="96" viewBox="0 0 239 96">
  <defs>
    <clipPath id="clip-Web_1920_1">
      <rect width="239" height="96"/>
    </clipPath>
  </defs>
  <g id="Web_1920_1" data-name="Web 1920 – 1" clip-path="url(#clip-Web_1920_1)">
    <g id="Group_564" data-name="Group 564" transform="translate(-59 -167)">
      <path id="Path_6098" data-name="Path 6098" d="M61.645,168.418v5.127H60.459V169.37H59.434v-.952Z" fill="#57574d"/>
      <path id="Path_6099" data-name="Path 6099" d="M62.869,172.886a.711.711,0,0,1,1.421,0,.711.711,0,1,1-1.421,0Z" fill="#57574d"/>
      <path id="Path_6100" data-name="Path 6100" d="M67.631,170.982a2.822,2.822,0,0,1,4.892-1.743l-.761.7a1.65,1.65,0,0,0-1.289-.6,1.64,1.64,0,1,0,0,3.281,1.637,1.637,0,0,0,1.289-.607l.761.7a2.818,2.818,0,0,1-4.892-1.736Z" fill="#57574d"/>
      <path id="Path_6101" data-name="Path 6101" d="M77.065,171.3v2.249H76v-.491a1.292,1.292,0,0,1-1.2.55c-.923,0-1.472-.513-1.472-1.194s.49-1.179,1.692-1.179h.908c0-.491-.293-.777-.908-.777a1.891,1.891,0,0,0-1.136.367l-.41-.8a3.02,3.02,0,0,1,1.7-.477C76.37,169.546,77.065,170.1,77.065,171.3Zm-1.142,1v-.4h-.784c-.535,0-.7.2-.7.461,0,.285.242.476.645.476A.841.841,0,0,0,75.923,172.3Z" fill="#57574d"/>
      <path id="Path_6102" data-name="Path 6102" d="M79.718,169.693h1.01v.879h-.981v2.973H78.6v-2.973H78v-.879H78.6v-.176a1.375,1.375,0,0,1,1.524-1.465,1.622,1.622,0,0,1,.871.213l-.3.827a.8.8,0,0,0-.461-.14c-.337,0-.52.184-.52.573Z" fill="#57574d"/>
      <path id="Path_6103" data-name="Path 6103" d="M85.453,171.9H82.472a1.051,1.051,0,0,0,1.128.791,1.337,1.337,0,0,0,.989-.381l.608.658a2.3,2.3,0,0,1-3.875-1.39,2.007,2.007,0,0,1,2.1-2.03,1.951,1.951,0,0,1,2.051,2.043C85.475,171.677,85.46,171.8,85.453,171.9Zm-3-.667H84.4a.984.984,0,0,0-1.941,0Z" fill="#57574d"/>
      <path id="Path_6104" data-name="Path 6104" d="M93.826,172.146c0,.887-.7,1.4-2.051,1.4H89.124v-5.127h2.5c1.282,0,1.941.534,1.941,1.333a1.23,1.23,0,0,1-.681,1.128A1.266,1.266,0,0,1,93.826,172.146ZM90.3,169.312v1.209h1.179c.579,0,.893-.205.893-.609s-.314-.6-.893-.6Zm2.329,2.71c0-.433-.33-.638-.945-.638H90.3v1.268h1.384C92.3,172.652,92.632,172.461,92.632,172.022Z" fill="#57574d"/>
      <path id="Path_6105" data-name="Path 6105" d="M98.5,171.3v2.249H97.43v-.491a1.292,1.292,0,0,1-1.2.55c-.923,0-1.472-.513-1.472-1.194s.491-1.179,1.692-1.179h.908c0-.491-.293-.777-.908-.777a1.891,1.891,0,0,0-1.136.367l-.41-.8a3.021,3.021,0,0,1,1.7-.477C97.8,169.546,98.5,170.1,98.5,171.3Zm-1.142,1v-.4h-.784c-.534,0-.7.2-.7.461,0,.285.242.476.645.476A.841.841,0,0,0,97.357,172.3Zm-.22,2.293a.506.506,0,0,1-1.011,0,.506.506,0,1,1,1.011,0Z" fill="#57574d"/>
      <path id="Path_6106" data-name="Path 6106" d="M99.65,171.576a2.037,2.037,0,0,1,2.2-2.03,1.81,1.81,0,0,1,1.765,1l-.886.476a.981.981,0,0,0-.886-.542,1.093,1.093,0,0,0,0,2.182.968.968,0,0,0,.886-.542l.886.484a1.827,1.827,0,0,1-1.765,1A2.037,2.037,0,0,1,99.65,171.576Z" fill="#57574d"/>
      <path id="Path_6107" data-name="Path 6107" d="M110.388,173.545l-1.238-1.78-1.215,1.78h-1.363l1.9-2.607-1.8-2.52h1.348l1.179,1.663,1.158-1.663h1.281l-1.787,2.476,1.912,2.651Z" fill="#57574d"/>
      <path id="Path_6108" data-name="Path 6108" d="M113.034,168.792c.285-.132.373-.279.373-.447a.31.31,0,0,0-.344-.308.766.766,0,0,0-.432.14l-.235-.462a1.274,1.274,0,0,1,.791-.249.794.794,0,0,1,.879.783.985.985,0,0,1-.673.924Zm-.432.813h1.142v3.94H112.6Z" fill="#57574d"/>
      <path id="Path_6109" data-name="Path 6109" d="M119.143,169.6v3.94h-1.084v-.468a1.6,1.6,0,0,1-1.224.527,1.571,1.571,0,0,1-1.684-1.773V169.6h1.142v2.058c0,.659.293.952.8.952.527,0,.908-.336.908-1.062V169.6Z" fill="#57574d"/>
      <path id="Path_6110" data-name="Path 6110" d="M63.5,183.668v.967H59.624v-.768L61.6,182c.454-.432.534-.7.534-.944,0-.4-.278-.638-.82-.638a1.254,1.254,0,0,0-1.062.513l-.864-.557a2.382,2.382,0,0,1,2.036-.952c1.142,0,1.9.586,1.9,1.517a2.045,2.045,0,0,1-.857,1.618l-1.179,1.113Z" fill="#57574d"/>
      <path id="Path_6111" data-name="Path 6111" d="M64.393,183.976a.71.71,0,0,1,1.42,0,.71.71,0,1,1-1.42,0Z" fill="#57574d"/>
      <path id="Path_6112" data-name="Path 6112" d="M69.154,182.072a2.824,2.824,0,0,1,4.893-1.744l-.762.7a1.647,1.647,0,0,0-1.289-.6,1.641,1.641,0,1,0,0,3.281,1.635,1.635,0,0,0,1.289-.607l.762.7a2.819,2.819,0,0,1-4.893-1.736Z" fill="#57574d"/>
      <path id="Path_6113" data-name="Path 6113" d="M78.589,182.386v2.249H77.52v-.491a1.3,1.3,0,0,1-1.2.55c-.923,0-1.472-.513-1.472-1.2s.491-1.178,1.692-1.178h.908c0-.492-.293-.777-.908-.777a1.894,1.894,0,0,0-1.135.366l-.41-.8a3.017,3.017,0,0,1,1.7-.477C77.893,180.636,78.589,181.193,78.589,182.386Zm-1.143,1v-.4h-.783c-.535,0-.7.2-.7.461,0,.285.242.476.645.476A.842.842,0,0,0,77.446,183.39Z" fill="#57574d"/>
      <path id="Path_6114" data-name="Path 6114" d="M81.241,180.783h1.011v.878H81.27v2.974H80.128v-2.974H79.52v-.878h.608v-.176a1.375,1.375,0,0,1,1.523-1.465,1.614,1.614,0,0,1,.872.213l-.3.827a.8.8,0,0,0-.462-.14c-.337,0-.52.184-.52.573Z" fill="#57574d"/>
      <path id="Path_6115" data-name="Path 6115" d="M86.977,182.988H84a1.051,1.051,0,0,0,1.128.791,1.336,1.336,0,0,0,.988-.381l.608.658a2.3,2.3,0,0,1-3.874-1.391,2.006,2.006,0,0,1,2.1-2.029A1.951,1.951,0,0,1,87,182.679C87,182.767,86.984,182.892,86.977,182.988Zm-3-.667h1.941a.984.984,0,0,0-1.941,0Z" fill="#57574d"/>
      <path id="Path_6116" data-name="Path 6116" d="M95.9,182.072a2.556,2.556,0,0,1-2.827,2.563H90.742v-2.212h-.7v-.791h.7v-2.124h2.329A2.557,2.557,0,0,1,95.9,182.072Zm-1.2,0a1.53,1.53,0,0,0-1.684-1.59H91.929v1.15H93.21v.791H91.929v1.238h1.084A1.53,1.53,0,0,0,94.7,182.072Z" fill="#57574d"/>
      <path id="Path_6117" data-name="Path 6117" d="M100.916,182.988h-2.98a1.05,1.05,0,0,0,1.127.791,1.337,1.337,0,0,0,.989-.381l.608.658a2.3,2.3,0,0,1-3.874-1.391,2.006,2.006,0,0,1,2.1-2.029,1.95,1.95,0,0,1,2.05,2.043C100.938,182.767,100.924,182.892,100.916,182.988Zm-3-.667h1.941a.984.984,0,0,0-1.941,0Z" fill="#57574d"/>
      <path id="Path_6118" data-name="Path 6118" d="M106.1,182.379v2.256h-1.143v-2.08c0-.638-.293-.931-.8-.931-.55,0-.945.338-.945,1.063v1.948h-1.143V180.7h1.092v.461a1.727,1.727,0,0,1,1.3-.52A1.545,1.545,0,0,1,106.1,182.379Z" fill="#57574d"/>
      <path id="Path_6119" data-name="Path 6119" d="M63.455,194.159c0,.864-.667,1.655-2.124,1.655a3.522,3.522,0,0,1-1.956-.549l.461-.908a2.493,2.493,0,0,0,1.465.461c.594,0,.96-.242.96-.659,0-.388-.286-.63-.96-.63h-.542v-.784l1.055-1.194H59.631V190.6H63.22v.77l-1.157,1.318A1.456,1.456,0,0,1,63.455,194.159Z" fill="#57574d"/>
      <path id="Path_6120" data-name="Path 6120" d="M64.334,195.067a.711.711,0,0,1,1.421,0,.711.711,0,1,1-1.421,0Z" fill="#57574d"/>
      <path id="Path_6121" data-name="Path 6121" d="M69.1,193.162a2.823,2.823,0,0,1,4.892-1.743l-.761.7a1.653,1.653,0,0,0-1.29-.6,1.64,1.64,0,0,0,0,3.281,1.636,1.636,0,0,0,1.29-.608l.761.7a2.818,2.818,0,0,1-4.892-1.736Z" fill="#57574d"/>
      <path id="Path_6122" data-name="Path 6122" d="M78.53,193.478v2.248H77.461v-.49a1.3,1.3,0,0,1-1.2.549c-.923,0-1.472-.513-1.472-1.194s.49-1.18,1.691-1.18h.909c0-.49-.293-.776-.909-.776a1.9,1.9,0,0,0-1.135.366l-.41-.8a3.04,3.04,0,0,1,1.7-.475C77.834,191.727,78.53,192.284,78.53,193.478Zm-1.142,1v-.4H76.6c-.535,0-.7.2-.7.462,0,.287.242.476.644.476A.843.843,0,0,0,77.388,194.481Z" fill="#57574d"/>
      <path id="Path_6123" data-name="Path 6123" d="M81.183,191.873h1.01v.879h-.981v2.974H80.069v-2.974h-.608v-.879h.608V191.7a1.376,1.376,0,0,1,1.524-1.465,1.613,1.613,0,0,1,.871.212l-.3.828a.8.8,0,0,0-.461-.139c-.337,0-.52.183-.52.57Z" fill="#57574d"/>
      <path id="Path_6124" data-name="Path 6124" d="M86.918,194.077H83.937a1.05,1.05,0,0,0,1.128.792,1.339,1.339,0,0,0,.989-.381l.608.66a2.067,2.067,0,0,1-1.626.637,2.046,2.046,0,0,1-2.249-2.03,2.006,2.006,0,0,1,2.1-2.028,1.951,1.951,0,0,1,2.051,2.044C86.94,193.859,86.925,193.983,86.918,194.077Zm-3-.666h1.941a.984.984,0,0,0-1.941,0Z" fill="#57574d"/>
      <path id="Path_6125" data-name="Path 6125" d="M95.291,190.6v5.127h-.975l-2.556-3.113v3.113H90.588V190.6h.982l2.549,3.113V190.6Z" fill="#57574d"/>
      <path id="Path_6126" data-name="Path 6126" d="M100.279,193.478v2.248H99.21v-.49a1.3,1.3,0,0,1-1.2.549c-.923,0-1.472-.513-1.472-1.194s.49-1.18,1.691-1.18h.909c0-.49-.293-.776-.909-.776a1.9,1.9,0,0,0-1.135.366l-.41-.8a3.04,3.04,0,0,1,1.7-.475C99.583,191.727,100.279,192.284,100.279,193.478Zm-2.417-2.2h-.835l.967-1.055H99l.967,1.055h-.835l-.638-.557Zm1.275,3.2v-.4h-.784c-.535,0-.7.2-.7.462,0,.287.242.476.644.476A.843.843,0,0,0,99.137,194.481Z" fill="#57574d"/>
      <path id="Path_6127" data-name="Path 6127" d="M105.648,191.785v3.941h-1.084v-.469a1.594,1.594,0,0,1-1.223.528,1.571,1.571,0,0,1-1.684-1.773v-2.227H102.8v2.058c0,.66.293.953.8.953.527,0,.908-.338.908-1.062v-1.949Z" fill="#57574d"/>
      <path id="Path_6128" data-name="Path 6128" d="M64.363,205.74h-.835v1.076H62.371V205.74H59.609v-.8l2.417-3.252h1.245l-2.241,3.084h1.377v-.96h1.121v.96h.835Z" fill="#57574d"/>
      <path id="Path_6129" data-name="Path 6129" d="M65.191,206.157a.711.711,0,0,1,1.421,0,.711.711,0,1,1-1.421,0Z" fill="#57574d"/>
      <path id="Path_6130" data-name="Path 6130" d="M69.953,204.252a2.824,2.824,0,0,1,4.893-1.743l-.762.7a1.65,1.65,0,0,0-1.289-.6,1.641,1.641,0,1,0,0,3.281,1.633,1.633,0,0,0,1.289-.608l.762.7a2.818,2.818,0,0,1-4.893-1.736Z" fill="#57574d"/>
      <path id="Path_6131" data-name="Path 6131" d="M79.388,204.568v2.248h-1.07v-.49a1.293,1.293,0,0,1-1.2.548c-.923,0-1.472-.512-1.472-1.193s.491-1.18,1.692-1.18h.908c0-.49-.293-.776-.908-.776a1.9,1.9,0,0,0-1.135.366l-.411-.8a3.046,3.046,0,0,1,1.7-.475C78.692,202.817,79.388,203.373,79.388,204.568Zm-1.143,1v-.4h-.784c-.534,0-.7.2-.7.462,0,.286.242.476.645.476A.842.842,0,0,0,78.245,205.571Z" fill="#57574d"/>
      <path id="Path_6132" data-name="Path 6132" d="M82.04,202.963h1.011v.879h-.982v2.974H80.927v-2.974h-.608v-.879h.608v-.176a1.375,1.375,0,0,1,1.523-1.464,1.618,1.618,0,0,1,.872.212l-.3.828a.8.8,0,0,0-.461-.139c-.337,0-.52.183-.52.57Z" fill="#57574d"/>
      <path id="Path_6133" data-name="Path 6133" d="M87.775,205.167H84.794a1.05,1.05,0,0,0,1.128.791,1.333,1.333,0,0,0,.989-.381l.608.661a2.3,2.3,0,0,1-3.874-1.393,2.005,2.005,0,0,1,2.1-2.028,1.95,1.95,0,0,1,2.05,2.044C87.8,204.949,87.783,205.073,87.775,205.167Zm-3-.666h1.941a.984.984,0,0,0-1.941,0Z" fill="#57574d"/>
      <path id="Path_6134" data-name="Path 6134" d="M94.822,205.717h-2.38l-.454,1.1H90.772l2.285-5.127h1.172l2.292,5.127H95.276Zm-.373-.9-.813-1.963-.813,1.963Z" fill="#57574d"/>
      <path id="Path_6135" data-name="Path 6135" d="M104,204.56v2.256h-1.142v-2.08c0-.637-.286-.93-.747-.93-.513,0-.872.329-.872,1.032v1.978H100.1v-2.08c0-.637-.271-.93-.747-.93-.506,0-.865.329-.865,1.032v1.978H97.343v-3.941h1.091v.454a1.6,1.6,0,0,1,1.238-.512,1.47,1.47,0,0,1,1.3.644,1.772,1.772,0,0,1,1.421-.644A1.526,1.526,0,0,1,104,204.56Z" fill="#57574d"/>
      <path id="Path_6136" data-name="Path 6136" d="M109.275,205.167h-2.981a1.05,1.05,0,0,0,1.128.791,1.333,1.333,0,0,0,.989-.381l.608.661a2.3,2.3,0,0,1-3.874-1.393,2.005,2.005,0,0,1,2.1-2.028,1.95,1.95,0,0,1,2.05,2.044C109.3,204.949,109.283,205.073,109.275,205.167Zm-3-.666h1.941a.984.984,0,0,0-1.941,0Z" fill="#57574d"/>
      <path id="Path_6137" data-name="Path 6137" d="M112.872,202.817v1.054c-.1-.006-.168-.014-.256-.014a.968.968,0,0,0-1.048,1.1v1.861h-1.142v-3.941h1.091v.521A1.59,1.59,0,0,1,112.872,202.817Z" fill="#57574d"/>
      <path id="Path_6138" data-name="Path 6138" d="M113.781,201.689a.652.652,0,0,1,.71-.637.642.642,0,0,1,.711.615.714.714,0,0,1-1.421.022Zm.139,1.186h1.142v3.941H113.92Z" fill="#57574d"/>
      <path id="Path_6139" data-name="Path 6139" d="M116.2,204.845a2.037,2.037,0,0,1,2.2-2.028,1.809,1.809,0,0,1,1.765,1l-.886.476a.984.984,0,0,0-.886-.542,1.093,1.093,0,0,0,0,2.183.969.969,0,0,0,.886-.542l.886.483a1.828,1.828,0,0,1-1.765,1A2.036,2.036,0,0,1,116.2,204.845Z" fill="#57574d"/>
      <path id="Path_6140" data-name="Path 6140" d="M124.673,204.568v2.248H123.6v-.49a1.294,1.294,0,0,1-1.2.548c-.923,0-1.472-.512-1.472-1.193s.49-1.18,1.692-1.18h.908c0-.49-.293-.776-.908-.776a1.9,1.9,0,0,0-1.136.366l-.41-.8a3.04,3.04,0,0,1,1.7-.475C123.978,202.817,124.673,203.373,124.673,204.568Zm-1.142,1v-.4h-.784c-.535,0-.7.2-.7.462,0,.286.242.476.644.476A.843.843,0,0,0,123.531,205.571Z" fill="#57574d"/>
      <path id="Path_6141" data-name="Path 6141" d="M130.1,204.56v2.256h-1.143v-2.08c0-.637-.292-.93-.8-.93-.549,0-.945.336-.945,1.062v1.948h-1.142v-3.941h1.091v.462a1.722,1.722,0,0,1,1.3-.52A1.544,1.544,0,0,1,130.1,204.56Z" fill="#57574d"/>
      <path id="Path_6142" data-name="Path 6142" d="M131.252,204.845a2.169,2.169,0,1,1,2.168,2.029A2.029,2.029,0,0,1,131.252,204.845Zm3.171,0a1.01,1.01,0,1,0-1,1.092A.994.994,0,0,0,134.423,204.845Z" fill="#57574d"/>
      <path id="Path_6143" data-name="Path 6143" d="M63.542,216.295c0,.908-.666,1.7-2.131,1.7a3.546,3.546,0,0,1-1.955-.549l.468-.909a2.468,2.468,0,0,0,1.458.462c.593,0,.959-.249.959-.667,0-.4-.263-.666-1.194-.666H59.836l.264-2.885h3.128v.952H61.089l-.081.974h.418C62.942,214.706,63.542,215.387,63.542,216.295Z" fill="#57574d"/>
      <path id="Path_6144" data-name="Path 6144" d="M64.356,217.247a.711.711,0,0,1,1.421,0,.711.711,0,1,1-1.421,0Z" fill="#57574d"/>
      <path id="Path_6145" data-name="Path 6145" d="M69.118,215.343A2.823,2.823,0,0,1,74.01,213.6l-.761.7a1.654,1.654,0,0,0-1.29-.6,1.641,1.641,0,0,0,0,3.282,1.636,1.636,0,0,0,1.29-.608l.761.7a2.818,2.818,0,0,1-4.892-1.736Z" fill="#57574d"/>
      <path id="Path_6146" data-name="Path 6146" d="M78.552,215.658v2.249H77.483v-.492a1.292,1.292,0,0,1-1.2.55c-.923,0-1.472-.513-1.472-1.194s.49-1.179,1.691-1.179h.909c0-.491-.293-.776-.909-.776a1.889,1.889,0,0,0-1.135.366l-.41-.8a3.025,3.025,0,0,1,1.7-.476C77.856,213.908,78.552,214.464,78.552,215.658Zm-1.142,1v-.4h-.784c-.535,0-.7.2-.7.461,0,.285.242.477.644.477A.842.842,0,0,0,77.41,216.661Z" fill="#57574d"/>
      <path id="Path_6147" data-name="Path 6147" d="M81.205,214.054h1.01v.879h-.981v2.974H80.091v-2.974h-.608v-.879h.608v-.176a1.376,1.376,0,0,1,1.524-1.465,1.622,1.622,0,0,1,.871.213l-.3.827a.806.806,0,0,0-.461-.139c-.337,0-.52.183-.52.572Z" fill="#57574d"/>
      <path id="Path_6148" data-name="Path 6148" d="M86.94,216.259H83.959a1.051,1.051,0,0,0,1.128.791,1.339,1.339,0,0,0,.989-.381l.608.658a2.3,2.3,0,0,1-3.875-1.39,2.006,2.006,0,0,1,2.1-2.029,1.951,1.951,0,0,1,2.051,2.043C86.962,216.038,86.947,216.163,86.94,216.259Zm-3-.667h1.941a.984.984,0,0,0-1.941,0Z" fill="#57574d"/>
      <path id="Path_6149" data-name="Path 6149" d="M90.611,212.78H91.8v4.16h2.571v.967H90.611Z" fill="#57574d"/>
      <path id="Path_6150" data-name="Path 6150" d="M98.851,215.658v2.249H97.782v-.492a1.292,1.292,0,0,1-1.2.55c-.923,0-1.473-.513-1.473-1.194s.491-1.179,1.692-1.179h.908c0-.491-.292-.776-.908-.776a1.889,1.889,0,0,0-1.135.366l-.41-.8a3.025,3.025,0,0,1,1.7-.476C98.155,213.908,98.851,214.464,98.851,215.658Zm-1.143,1v-.4h-.783c-.535,0-.7.2-.7.461,0,.285.241.477.644.477A.84.84,0,0,0,97.708,216.661Z" fill="#57574d"/>
      <path id="Path_6151" data-name="Path 6151" d="M102.792,217.716a1.636,1.636,0,0,1-.93.249,1.3,1.3,0,0,1-1.472-1.413v-1.619h-.608v-.879h.608V213.1h1.142v.959h.982v.879h-.982v1.6a.46.46,0,0,0,.491.521.77.77,0,0,0,.461-.147Z" fill="#57574d"/>
      <path id="Path_6152" data-name="Path 6152" d="M106.257,217.716a1.638,1.638,0,0,1-.93.249,1.3,1.3,0,0,1-1.473-1.413v-1.619h-.607v-.879h.607V213.1H105v.959h.981v.879H105v1.6a.46.46,0,0,0,.491.521.77.77,0,0,0,.461-.147Z" fill="#57574d"/>
      <path id="Path_6153" data-name="Path 6153" d="M110.981,216.259H108a1.052,1.052,0,0,0,1.128.791,1.337,1.337,0,0,0,.989-.381l.608.658a2.3,2.3,0,0,1-3.874-1.39,2.005,2.005,0,0,1,2.1-2.029,1.95,1.95,0,0,1,2.05,2.043C111,216.038,110.989,216.163,110.981,216.259Zm-3-.667h1.941a.984.984,0,0,0-1.941,0Z" fill="#57574d"/>
      <path id="Path_6154" data-name="Path 6154" d="M63.9,227.378a1.762,1.762,0,0,1-1.941,1.706c-1.413,0-2.292-.885-2.292-2.542a2.5,2.5,0,0,1,2.615-2.76,2.768,2.768,0,0,1,1.428.351l-.44.872a1.682,1.682,0,0,0-.959-.257,1.362,1.362,0,0,0-1.443,1.488,1.728,1.728,0,0,1,1.267-.455A1.626,1.626,0,0,1,63.9,227.378Zm-1.15.059a.773.773,0,0,0-.871-.77.8.8,0,0,0-.886.77c0,.439.329.762.9.762A.766.766,0,0,0,62.751,227.437Z" fill="#57574d"/>
      <path id="Path_6155" data-name="Path 6155" d="M64.737,228.337a.711.711,0,0,1,1.421,0,.711.711,0,1,1-1.421,0Z" fill="#57574d"/>
      <path id="Path_6156" data-name="Path 6156" d="M69.5,226.433a2.823,2.823,0,0,1,4.892-1.743l-.762.7a1.647,1.647,0,0,0-1.289-.6,1.641,1.641,0,0,0,0,3.282,1.633,1.633,0,0,0,1.289-.608l.762.7a2.818,2.818,0,0,1-4.892-1.736Z" fill="#57574d"/>
      <path id="Path_6157" data-name="Path 6157" d="M78.933,226.747V229H77.864v-.491a1.292,1.292,0,0,1-1.2.55c-.923,0-1.473-.513-1.473-1.194s.491-1.179,1.692-1.179h.909c0-.491-.293-.776-.909-.776a1.889,1.889,0,0,0-1.135.366l-.41-.8a3.017,3.017,0,0,1,1.7-.477C78.237,225,78.933,225.554,78.933,226.747Zm-1.142,1v-.4h-.784c-.535,0-.7.2-.7.461,0,.285.241.476.644.476A.842.842,0,0,0,77.791,227.751Z" fill="#57574d"/>
      <path id="Path_6158" data-name="Path 6158" d="M84.625,227.027a1.914,1.914,0,0,1-1.963,2.028,1.526,1.526,0,0,1-1.186-.476v1.838H80.333v-5.361h1.091v.454A1.53,1.53,0,0,1,82.662,225,1.914,1.914,0,0,1,84.625,227.027Zm-1.157,0a1.007,1.007,0,1,0-1,1.091A.995.995,0,0,0,83.468,227.027Z" fill="#57574d"/>
      <path id="Path_6159" data-name="Path 6159" d="M90.046,227.027a1.914,1.914,0,0,1-1.963,2.028,1.528,1.528,0,0,1-1.187-.476v1.838H85.754v-5.361h1.091v.454A1.53,1.53,0,0,1,88.083,225,1.914,1.914,0,0,1,90.046,227.027Zm-1.157,0a1.007,1.007,0,1,0-1,1.091A.995.995,0,0,0,88.889,227.027Z" fill="#57574d"/>
      <path id="Path_6160" data-name="Path 6160" d="M95.145,225.056V229H94.061v-.468a1.6,1.6,0,0,1-1.224.527,1.571,1.571,0,0,1-1.684-1.772v-2.227h1.142v2.059c0,.658.293.951.8.951.527,0,.908-.336.908-1.062v-1.948Z" fill="#57574d"/>
      <path id="Path_6161" data-name="Path 6161" d="M96.281,227.027a2.037,2.037,0,0,1,2.2-2.03,1.811,1.811,0,0,1,1.765,1l-.886.476a.981.981,0,0,0-.886-.542,1.093,1.093,0,0,0,0,2.183.97.97,0,0,0,.886-.542l.886.483a1.828,1.828,0,0,1-1.765,1A2.037,2.037,0,0,1,96.281,227.027Z" fill="#57574d"/>
      <path id="Path_6162" data-name="Path 6162" d="M105.268,226.741V229h-1.143v-2.08c0-.637-.293-.93-.8-.93-.549,0-.945.338-.945,1.062V229H101.24v-5.434h1.142v1.9a1.736,1.736,0,0,1,1.253-.469A1.545,1.545,0,0,1,105.268,226.741Z" fill="#57574d"/>
      <path id="Path_6163" data-name="Path 6163" d="M106.529,223.869a.653.653,0,0,1,.71-.637.641.641,0,0,1,.711.615.714.714,0,0,1-1.421.022Zm.139,1.187h1.143V229h-1.143Z" fill="#57574d"/>
      <path id="Path_6164" data-name="Path 6164" d="M113.268,226.741V229h-1.143v-2.08c0-.637-.293-.93-.8-.93-.55,0-.945.338-.945,1.062V229h-1.143v-3.94h1.092v.461a1.727,1.727,0,0,1,1.3-.52A1.546,1.546,0,0,1,113.268,226.741Z" fill="#57574d"/>
      <path id="Path_6165" data-name="Path 6165" d="M114.418,227.027a2.169,2.169,0,1,1,2.168,2.028A2.029,2.029,0,0,1,114.418,227.027Zm3.172,0a1.01,1.01,0,1,0-1,1.091A.995.995,0,0,0,117.59,227.027Z" fill="#57574d"/>
      <path id="Path_6166" data-name="Path 6166" d="M63.682,234.96v.77l-1.9,4.357H60.488l1.839-4.16h-1.7v.835H59.573v-1.8Z" fill="#57574d"/>
      <path id="Path_6167" data-name="Path 6167" d="M64.18,239.428a.711.711,0,0,1,1.421,0,.711.711,0,1,1-1.421,0Z" fill="#57574d"/>
      <path id="Path_6168" data-name="Path 6168" d="M68.942,237.524a2.822,2.822,0,0,1,4.892-1.743l-.761.7a1.65,1.65,0,0,0-1.289-.6,1.641,1.641,0,1,0,0,3.281,1.635,1.635,0,0,0,1.289-.608l.761.7a2.818,2.818,0,0,1-4.892-1.735Z" fill="#57574d"/>
      <path id="Path_6169" data-name="Path 6169" d="M78.376,237.839v2.248H77.307v-.49a1.294,1.294,0,0,1-1.2.549c-.923,0-1.472-.513-1.472-1.194s.49-1.179,1.692-1.179h.908c0-.49-.293-.777-.908-.777a1.9,1.9,0,0,0-1.136.367l-.41-.8a3.035,3.035,0,0,1,1.7-.476C77.681,236.088,78.376,236.645,78.376,237.839Zm-1.142,1v-.4H76.45c-.534,0-.7.2-.7.462,0,.286.242.475.645.475A.842.842,0,0,0,77.234,238.842Z" fill="#57574d"/>
      <path id="Path_6170" data-name="Path 6170" d="M81.029,236.235H82.04v.879h-.982v2.973H79.916v-2.973h-.608v-.879h.608v-.176a1.375,1.375,0,0,1,1.523-1.465,1.627,1.627,0,0,1,.872.212l-.3.828a.8.8,0,0,0-.461-.139c-.337,0-.52.183-.52.571Z" fill="#57574d"/>
      <path id="Path_6171" data-name="Path 6171" d="M86.764,238.439H83.783a1.051,1.051,0,0,0,1.128.791,1.333,1.333,0,0,0,.989-.381l.608.66a2.3,2.3,0,0,1-3.875-1.392,2.006,2.006,0,0,1,2.1-2.029,1.951,1.951,0,0,1,2.051,2.044C86.786,238.22,86.771,238.344,86.764,238.439Zm-3-.666h1.94a.984.984,0,0,0-1.94,0Z" fill="#57574d"/>
      <path id="Path_6172" data-name="Path 6172" d="M95.1,240.087l-.007-3.076-1.509,2.534h-.535l-1.5-2.468v3.01H90.435V234.96h.981l1.919,3.186,1.89-3.186H96.2l.014,5.127Z" fill="#57574d"/>
      <path id="Path_6173" data-name="Path 6173" d="M97.423,238.117a2.168,2.168,0,1,1,2.168,2.029A2.029,2.029,0,0,1,97.423,238.117Zm3.171,0a1.01,1.01,0,1,0-1,1.091A.994.994,0,0,0,100.594,238.117Z" fill="#57574d"/>
      <path id="Path_6174" data-name="Path 6174" d="M102.587,238.117a2.038,2.038,0,0,1,2.2-2.029,1.811,1.811,0,0,1,1.765,1l-.886.477a.985.985,0,0,0-.887-.542,1.093,1.093,0,0,0,0,2.182.971.971,0,0,0,.887-.542l.886.484a1.829,1.829,0,0,1-1.765,1A2.038,2.038,0,0,1,102.587,238.117Z" fill="#57574d"/>
      <path id="Path_6175" data-name="Path 6175" d="M111.575,237.831v2.256h-1.143v-2.08c0-.637-.293-.93-.8-.93-.55,0-.945.336-.945,1.062v1.948h-1.143v-5.434h1.143v1.9a1.731,1.731,0,0,1,1.252-.469A1.545,1.545,0,0,1,111.575,237.831Z" fill="#57574d"/>
      <path id="Path_6176" data-name="Path 6176" d="M116.461,237.839v2.248h-1.069v-.49a1.3,1.3,0,0,1-1.2.549c-.922,0-1.472-.513-1.472-1.194s.491-1.179,1.692-1.179h.908c0-.49-.293-.777-.908-.777a1.9,1.9,0,0,0-1.135.367l-.41-.8a3.033,3.033,0,0,1,1.7-.476C115.765,236.088,116.461,236.645,116.461,237.839Zm-1.143,1v-.4h-.783c-.535,0-.7.2-.7.462,0,.286.241.475.644.475A.84.84,0,0,0,115.318,238.842Z" fill="#57574d"/>
      <path id="Path_6177" data-name="Path 6177" d="M63.96,249.691c0,.967-.864,1.574-2.168,1.574s-2.153-.607-2.153-1.574a1.3,1.3,0,0,1,.776-1.209,1.185,1.185,0,0,1-.593-1.055c0-.9.805-1.465,1.97-1.465s1.985.565,1.985,1.465a1.192,1.192,0,0,1-.6,1.055A1.3,1.3,0,0,1,63.96,249.691Zm-1.2-.037c0-.454-.374-.733-.967-.733s-.952.279-.952.733.366.74.952.74S62.759,250.108,62.759,249.654ZM61,247.478c0,.389.308.631.791.631s.806-.242.806-.631-.323-.645-.806-.645S61,247.076,61,247.478Z" fill="#57574d"/>
      <path id="Path_6178" data-name="Path 6178" d="M64.9,250.518a.711.711,0,0,1,1.421,0,.711.711,0,1,1-1.421,0Z" fill="#57574d"/>
      <path id="Path_6179" data-name="Path 6179" d="M69.667,248.614a2.824,2.824,0,0,1,4.893-1.744l-.762.7a1.649,1.649,0,0,0-1.289-.6,1.64,1.64,0,1,0,0,3.281,1.634,1.634,0,0,0,1.289-.608l.762.7a2.818,2.818,0,0,1-4.893-1.735Z" fill="#57574d"/>
      <path id="Path_6180" data-name="Path 6180" d="M79.1,248.929v2.248h-1.07v-.49a1.294,1.294,0,0,1-1.2.549c-.923,0-1.472-.513-1.472-1.194,0-.7.491-1.179,1.692-1.179h.908c0-.491-.293-.777-.908-.777a1.9,1.9,0,0,0-1.135.366l-.411-.8a3.036,3.036,0,0,1,1.7-.476C78.406,247.178,79.1,247.735,79.1,248.929Zm-1.143,1v-.4h-.784c-.534,0-.7.2-.7.462,0,.286.242.475.645.475A.842.842,0,0,0,77.959,249.932Z" fill="#57574d"/>
      <path id="Path_6181" data-name="Path 6181" d="M81.754,247.325h1.011v.878h-.982v2.974H80.641V248.2h-.608v-.878h.608v-.176a1.375,1.375,0,0,1,1.523-1.465,1.618,1.618,0,0,1,.872.212l-.3.828a.8.8,0,0,0-.461-.139c-.337,0-.52.183-.52.571Z" fill="#57574d"/>
      <path id="Path_6182" data-name="Path 6182" d="M87.489,249.529H84.508a1.051,1.051,0,0,0,1.128.791,1.333,1.333,0,0,0,.989-.381l.608.66a2.3,2.3,0,0,1-3.875-1.393,2.006,2.006,0,0,1,2.1-2.028,1.95,1.95,0,0,1,2.051,2.044C87.511,249.31,87.5,249.434,87.489,249.529Zm-2.995-.666h1.941a.984.984,0,0,0-1.941,0Z" fill="#57574d"/>
      <path id="Path_6183" data-name="Path 6183" d="M95.129,250.225v.952H91.16V246.05h3.874V247H92.339v1.114h2.38v.922h-2.38v1.187Z" fill="#57574d"/>
      <path id="Path_6184" data-name="Path 6184" d="M95.95,250.811l.381-.82a2.7,2.7,0,0,0,1.37.38c.527,0,.725-.139.725-.358,0-.644-2.381.014-2.381-1.561,0-.747.674-1.274,1.824-1.274a3.223,3.223,0,0,1,1.516.345l-.381.812a2.269,2.269,0,0,0-1.135-.293c-.513,0-.732.161-.732.367,0,.673,2.38.022,2.38,1.575,0,.732-.681,1.252-1.86,1.252A3.39,3.39,0,0,1,95.95,250.811Z" fill="#57574d"/>
      <path id="Path_6185" data-name="Path 6185" d="M104.879,249.206a1.914,1.914,0,0,1-1.963,2.03,1.532,1.532,0,0,1-1.187-.477V252.6h-1.142v-5.361h1.091v.454a1.533,1.533,0,0,1,1.238-.513A1.914,1.914,0,0,1,104.879,249.206Zm-1.157,0a1.007,1.007,0,1,0-1,1.092A.994.994,0,0,0,103.722,249.206Z" fill="#57574d"/>
      <path id="Path_6186" data-name="Path 6186" d="M108.454,247.178v1.055c-.1-.007-.168-.015-.256-.015a.969.969,0,0,0-1.048,1.1v1.86h-1.142v-3.94H107.1v.52A1.59,1.59,0,0,1,108.454,247.178Z" fill="#57574d"/>
      <path id="Path_6187" data-name="Path 6187" d="M113.3,249.529h-2.981a1.051,1.051,0,0,0,1.128.791,1.333,1.333,0,0,0,.989-.381l.608.66a2.3,2.3,0,0,1-3.875-1.393,2.006,2.006,0,0,1,2.1-2.028,1.95,1.95,0,0,1,2.051,2.044C113.325,249.31,113.311,249.434,113.3,249.529Zm-3-.666h1.941a.984.984,0,0,0-1.941,0Z" fill="#57574d"/>
      <path id="Path_6188" data-name="Path 6188" d="M114.073,250.811l.381-.82a2.7,2.7,0,0,0,1.37.38c.527,0,.725-.139.725-.358,0-.644-2.381.014-2.381-1.561,0-.747.674-1.274,1.824-1.274a3.223,3.223,0,0,1,1.516.345l-.381.812a2.269,2.269,0,0,0-1.135-.293c-.513,0-.732.161-.732.367,0,.673,2.38.022,2.38,1.575,0,.732-.681,1.252-1.86,1.252A3.39,3.39,0,0,1,114.073,250.811Z" fill="#57574d"/>
      <path id="Path_6189" data-name="Path 6189" d="M118.329,250.811l.381-.82a2.7,2.7,0,0,0,1.37.38c.527,0,.725-.139.725-.358,0-.644-2.381.014-2.381-1.561,0-.747.674-1.274,1.824-1.274a3.223,3.223,0,0,1,1.516.345l-.381.812a2.269,2.269,0,0,0-1.135-.293c-.513,0-.732.161-.732.367,0,.673,2.38.022,2.38,1.575,0,.732-.681,1.252-1.86,1.252A3.39,3.39,0,0,1,118.329,250.811Z" fill="#57574d"/>
      <path id="Path_6190" data-name="Path 6190" d="M122.673,249.206a2.168,2.168,0,1,1,2.168,2.03A2.029,2.029,0,0,1,122.673,249.206Zm3.171,0a1.01,1.01,0,1,0-1,1.092A.994.994,0,0,0,125.844,249.206Z" fill="#57574d"/>
      <path id="Path_6191" data-name="Path 6191" d="M63.762,259.6a2.492,2.492,0,0,1-2.615,2.761,2.726,2.726,0,0,1-1.42-.352l.439-.872a1.646,1.646,0,0,0,.959.257,1.367,1.367,0,0,0,1.443-1.494,1.752,1.752,0,0,1-1.274.462,1.627,1.627,0,0,1-1.765-1.6,1.762,1.762,0,0,1,1.941-1.706C62.891,257.053,63.762,257.939,63.762,259.6Zm-1.325-.894c0-.44-.33-.762-.894-.762a.771.771,0,1,0,.015,1.531A.8.8,0,0,0,62.437,258.7Z" fill="#57574d"/>
      <path id="Path_6192" data-name="Path 6192" d="M64.568,261.609a.711.711,0,0,1,1.421,0,.711.711,0,1,1-1.421,0Z" fill="#57574d"/>
      <path id="Path_6193" data-name="Path 6193" d="M69.33,259.7a2.824,2.824,0,0,1,4.893-1.743l-.762.7a1.65,1.65,0,0,0-1.289-.6,1.641,1.641,0,1,0,0,3.281,1.635,1.635,0,0,0,1.289-.607l.762.7A2.819,2.819,0,0,1,69.33,259.7Z" fill="#57574d"/>
      <path id="Path_6194" data-name="Path 6194" d="M78.765,260.019v2.249h-1.07v-.491a1.292,1.292,0,0,1-1.2.55c-.923,0-1.472-.513-1.472-1.2s.491-1.179,1.692-1.179h.908c0-.491-.293-.776-.908-.776a1.892,1.892,0,0,0-1.135.366l-.411-.8a3.03,3.03,0,0,1,1.7-.476C78.069,258.269,78.765,258.826,78.765,260.019Zm-1.143,1v-.4h-.784c-.534,0-.7.2-.7.461,0,.286.242.477.645.477A.842.842,0,0,0,77.622,261.023Z" fill="#57574d"/>
      <path id="Path_6195" data-name="Path 6195" d="M81.417,258.415h1.011v.879h-.982v2.974H80.3v-2.974H79.7v-.879H80.3v-.175a1.375,1.375,0,0,1,1.523-1.465,1.619,1.619,0,0,1,.872.213l-.3.827a.8.8,0,0,0-.461-.14c-.337,0-.52.184-.52.572Z" fill="#57574d"/>
      <path id="Path_6196" data-name="Path 6196" d="M87.152,260.62H84.171a1.051,1.051,0,0,0,1.128.791,1.34,1.34,0,0,0,.989-.38l.608.658a2.3,2.3,0,0,1-3.875-1.391,2.007,2.007,0,0,1,2.1-2.029,1.95,1.95,0,0,1,2.05,2.043C87.174,260.4,87.16,260.525,87.152,260.62Zm-3-.667H86.1a.984.984,0,0,0-1.941,0Zm1.172-2.131h-.894l.989-1.055h1.23Z" fill="#57574d"/>
      <path id="Path_6197" data-name="Path 6197" d="M90.5,259.7a2.824,2.824,0,0,1,4.893-1.743l-.762.7a1.651,1.651,0,0,0-1.289-.6,1.641,1.641,0,1,0,0,3.281,1.636,1.636,0,0,0,1.289-.607l.762.7A2.819,2.819,0,0,1,90.5,259.7Z" fill="#57574d"/>
      <path id="Path_6198" data-name="Path 6198" d="M99.936,260.019v2.249h-1.07v-.491a1.292,1.292,0,0,1-1.2.55c-.923,0-1.472-.513-1.472-1.2s.491-1.179,1.692-1.179h.908c0-.491-.293-.776-.908-.776a1.9,1.9,0,0,0-1.136.366l-.41-.8a3.028,3.028,0,0,1,1.7-.476C99.24,258.269,99.936,258.826,99.936,260.019Zm-1.143,1v-.4h-.784c-.534,0-.7.2-.7.461,0,.286.242.477.645.477A.842.842,0,0,0,98.793,261.023Z" fill="#57574d"/>
      <path id="Path_6199" data-name="Path 6199" d="M103.781,258.269v1.055c-.1-.008-.168-.015-.256-.015a.968.968,0,0,0-1.047,1.1v1.86h-1.143v-3.941h1.091v.52A1.59,1.59,0,0,1,103.781,258.269Z" fill="#57574d"/>
      <path id="Path_6200" data-name="Path 6200" d="M108.294,260.019v2.249h-1.069v-.491a1.3,1.3,0,0,1-1.2.55c-.922,0-1.472-.513-1.472-1.2s.491-1.179,1.692-1.179h.908c0-.491-.293-.776-.908-.776a1.9,1.9,0,0,0-1.135.366l-.41-.8a3.025,3.025,0,0,1,1.7-.476C107.6,258.269,108.294,258.826,108.294,260.019Zm-1.143,1v-.4h-.783c-.535,0-.7.2-.7.461,0,.286.241.477.644.477A.841.841,0,0,0,107.151,261.023Z" fill="#57574d"/>
      <path id="Path_6201" data-name="Path 6201" d="M116.351,260.012v2.256h-1.143v-2.08c0-.638-.285-.931-.747-.931-.512,0-.871.33-.871,1.033v1.978h-1.143v-2.08c0-.638-.271-.931-.747-.931-.5,0-.864.33-.864,1.033v1.978h-1.143v-3.941h1.092v.455a1.6,1.6,0,0,1,1.237-.513,1.473,1.473,0,0,1,1.3.644,1.773,1.773,0,0,1,1.421-.644A1.526,1.526,0,0,1,116.351,260.012Z" fill="#57574d"/>
      <path id="Path_6202" data-name="Path 6202" d="M121.626,260.62h-2.981a1.051,1.051,0,0,0,1.128.791,1.34,1.34,0,0,0,.989-.38l.608.658A2.3,2.3,0,0,1,117.5,260.3a2.006,2.006,0,0,1,2.1-2.029,1.95,1.95,0,0,1,2.05,2.043C121.648,260.4,121.634,260.525,121.626,260.62Zm-3-.667h1.941a.984.984,0,0,0-1.941,0Z" fill="#57574d"/>
      <path id="Path_6203" data-name="Path 6203" d="M122.777,256.833h1.143v5.435h-1.143Z" fill="#57574d"/>
      <path id="Path_6204" data-name="Path 6204" d="M132.534,262.268l-.007-3.076-1.509,2.534h-.535l-1.5-2.469v3.011h-1.113v-5.127h.981l1.919,3.186,1.89-3.186h.974l.014,5.127Z" fill="#57574d"/>
      <path id="Path_6205" data-name="Path 6205" d="M138.636,260.019v2.249h-1.069v-.491a1.294,1.294,0,0,1-1.2.55c-.923,0-1.472-.513-1.472-1.2s.49-1.179,1.691-1.179h.909c0-.491-.293-.776-.909-.776a1.9,1.9,0,0,0-1.135.366l-.41-.8a3.025,3.025,0,0,1,1.7-.476C137.94,258.269,138.636,258.826,138.636,260.019Zm-1.142,1v-.4h-.784c-.535,0-.7.2-.7.461,0,.286.242.477.644.477A.843.843,0,0,0,137.494,261.023Z" fill="#57574d"/>
      <path id="Path_6206" data-name="Path 6206" d="M139.786,260.3a2.037,2.037,0,0,1,2.2-2.029,1.811,1.811,0,0,1,1.766,1l-.887.475a.981.981,0,0,0-.886-.542,1.093,1.093,0,0,0,0,2.183.968.968,0,0,0,.886-.542l.887.483a1.83,1.83,0,0,1-1.766,1A2.038,2.038,0,0,1,139.786,260.3Z" fill="#57574d"/>
      <path id="Path_6207" data-name="Path 6207" d="M148.773,260.012v2.256h-1.142v-2.08c0-.638-.293-.931-.8-.931-.549,0-.944.338-.944,1.063v1.948h-1.143v-5.435h1.143v1.9a1.729,1.729,0,0,1,1.252-.469A1.544,1.544,0,0,1,148.773,260.012Z" fill="#57574d"/>
      <path id="Path_6208" data-name="Path 6208" d="M150.035,257.141a.654.654,0,0,1,.71-.638.642.642,0,0,1,.711.616.714.714,0,0,1-1.421.022Zm.139,1.186h1.142v3.941h-1.142Z" fill="#57574d"/>
      <path id="Path_6209" data-name="Path 6209" d="M156.232,260.019v2.249h-1.069v-.491a1.3,1.3,0,0,1-1.2.55c-.922,0-1.472-.513-1.472-1.2s.491-1.179,1.692-1.179h.908c0-.491-.293-.776-.908-.776a1.9,1.9,0,0,0-1.135.366l-.41-.8a3.025,3.025,0,0,1,1.7-.476C155.536,258.269,156.232,258.826,156.232,260.019Zm-1.143,1v-.4h-.783c-.535,0-.7.2-.7.461,0,.286.241.477.644.477A.842.842,0,0,0,155.089,261.023Z" fill="#57574d"/>
      <path id="Path_6210" data-name="Path 6210" d="M160.173,262.077a1.639,1.639,0,0,1-.93.25,1.3,1.3,0,0,1-1.473-1.414v-1.619h-.607v-.879h.607v-.959h1.143v.959h.982v.879h-.982v1.6a.459.459,0,0,0,.491.52.77.77,0,0,0,.461-.146Z" fill="#57574d"/>
      <path id="Path_6211" data-name="Path 6211" d="M160.766,260.3a2.169,2.169,0,1,1,2.168,2.029A2.029,2.029,0,0,1,160.766,260.3Zm3.171,0a1.01,1.01,0,1,0-1,1.091A.995.995,0,0,0,163.937,260.3Z" fill="#57574d"/>
    </g>
    <g id="Group_565" data-name="Group 565" transform="translate(-60 -168)">
      <path id="Path_6035" data-name="Path 6035" d="M269.571,171.934c0,.908-.667,1.7-2.132,1.7a3.538,3.538,0,0,1-1.955-.55l.469-.908a2.469,2.469,0,0,0,1.457.462c.594,0,.96-.249.96-.667,0-.4-.264-.666-1.194-.666h-1.311l.264-2.886h3.127v.952h-2.139l-.08.975h.418C268.971,170.345,269.571,171.026,269.571,171.934Z" fill="#df071b"/>
      <path id="Path_6036" data-name="Path 6036" d="M270.422,170.982c0-1.692.937-2.652,2.2-2.652s2.2.96,2.2,2.652-.93,2.651-2.2,2.651S270.422,172.673,270.422,170.982Zm3.2,0c0-1.164-.41-1.649-1-1.649s-1,.485-1,1.649.41,1.648,1,1.648S273.622,172.146,273.622,170.982Z" fill="#df071b"/>
      <path id="Path_6037" data-name="Path 6037" d="M275.63,172.886a.711.711,0,0,1,1.421,0,.711.711,0,1,1-1.421,0Z" fill="#df071b"/>
      <path id="Path_6038" data-name="Path 6038" d="M277.855,170.982c0-1.692.938-2.652,2.2-2.652s2.2.96,2.2,2.652-.93,2.651-2.2,2.651S277.855,172.673,277.855,170.982Zm3.2,0c0-1.164-.411-1.649-1-1.649s-1,.485-1,1.649.41,1.648,1,1.648S281.057,172.146,281.057,170.982Z" fill="#df071b"/>
      <path id="Path_6039" data-name="Path 6039" d="M283.2,170.982c0-1.692.938-2.652,2.2-2.652s2.2.96,2.2,2.652-.93,2.651-2.2,2.651S283.2,172.673,283.2,170.982Zm3.2,0c0-1.164-.41-1.649-1-1.649s-1,.485-1,1.649.411,1.648,1,1.648S286.4,172.146,286.4,170.982Z" fill="#df071b"/>
      <path id="Path_6040" data-name="Path 6040" d="M288.535,170.982c0-1.692.938-2.652,2.2-2.652s2.2.96,2.2,2.652-.93,2.651-2.2,2.651S288.535,172.673,288.535,170.982Zm3.2,0c0-1.164-.41-1.649-1-1.649s-1,.485-1,1.649.41,1.648,1,1.648S291.736,172.146,291.736,170.982Z" fill="#df071b"/>
      <path id="Path_6041" data-name="Path 6041" d="M298.666,169.2h-.535v4.343h-1.092v-.454a1.515,1.515,0,0,1-1.23.513,2.03,2.03,0,0,1,0-4.058,1.513,1.513,0,0,1,1.179.477V169.2h-1.34v-.66h1.34v-.431h1.143v.431h.535Zm-1.656,2.374a1.01,1.01,0,1,0-1,1.09A1,1,0,0,0,297.01,171.576Z" fill="#df071b"/>
      <path id="Path_6042" data-name="Path 6042" d="M269.7,183.558h-.835v1.077h-1.157v-1.077h-2.762v-.8l2.418-3.252h1.244l-2.24,3.083h1.377v-.959h1.12v.959h.835Z" fill="#df071b"/>
      <path id="Path_6043" data-name="Path 6043" d="M270.422,182.072c0-1.692.937-2.652,2.2-2.652s2.2.96,2.2,2.652-.93,2.651-2.2,2.651S270.422,183.763,270.422,182.072Zm3.2,0c0-1.164-.41-1.649-1-1.649s-1,.485-1,1.649.41,1.648,1,1.648S273.622,183.236,273.622,182.072Z" fill="#df071b"/>
      <path id="Path_6044" data-name="Path 6044" d="M275.63,183.976a.711.711,0,0,1,1.421,0,.711.711,0,1,1-1.421,0Z" fill="#df071b"/>
      <path id="Path_6045" data-name="Path 6045" d="M277.855,182.072c0-1.692.938-2.652,2.2-2.652s2.2.96,2.2,2.652-.93,2.651-2.2,2.651S277.855,183.763,277.855,182.072Zm3.2,0c0-1.164-.411-1.649-1-1.649s-1,.485-1,1.649.41,1.648,1,1.648S281.057,183.236,281.057,182.072Z" fill="#df071b"/>
      <path id="Path_6046" data-name="Path 6046" d="M283.2,182.072c0-1.692.938-2.652,2.2-2.652s2.2.96,2.2,2.652-.93,2.651-2.2,2.651S283.2,183.763,283.2,182.072Zm3.2,0c0-1.164-.41-1.649-1-1.649s-1,.485-1,1.649.411,1.648,1,1.648S286.4,183.236,286.4,182.072Z" fill="#df071b"/>
      <path id="Path_6047" data-name="Path 6047" d="M288.535,182.072c0-1.692.938-2.652,2.2-2.652s2.2.96,2.2,2.652-.93,2.651-2.2,2.651S288.535,183.763,288.535,182.072Zm3.2,0c0-1.164-.41-1.649-1-1.649s-1,.485-1,1.649.41,1.648,1,1.648S291.736,183.236,291.736,182.072Z" fill="#df071b"/>
      <path id="Path_6048" data-name="Path 6048" d="M298.666,180.292h-.535v4.343h-1.092v-.454a1.515,1.515,0,0,1-1.23.513,2.03,2.03,0,0,1,0-4.058,1.51,1.51,0,0,1,1.179.477v-.821h-1.34v-.66h1.34V179.2h1.143v.431h.535Zm-1.656,2.373a1.01,1.01,0,1,0-1,1.091A1,1,0,0,0,297.01,182.665Z" fill="#df071b"/>
      <path id="Path_6049" data-name="Path 6049" d="M269.7,194.65h-.835v1.076h-1.157V194.65h-2.762v-.8l2.418-3.252h1.244l-2.24,3.084h1.377v-.96h1.12v.96h.835Z" fill="#df071b"/>
      <path id="Path_6050" data-name="Path 6050" d="M270.422,193.162c0-1.692.937-2.651,2.2-2.651s2.2.959,2.2,2.651-.93,2.652-2.2,2.652S270.422,194.855,270.422,193.162Zm3.2,0c0-1.165-.41-1.647-1-1.647s-1,.482-1,1.647.41,1.648,1,1.648S273.622,194.327,273.622,193.162Z" fill="#df071b"/>
      <path id="Path_6051" data-name="Path 6051" d="M275.63,195.067a.711.711,0,0,1,1.421,0,.711.711,0,1,1-1.421,0Z" fill="#df071b"/>
      <path id="Path_6052" data-name="Path 6052" d="M277.855,193.162c0-1.692.938-2.651,2.2-2.651s2.2.959,2.2,2.651-.93,2.652-2.2,2.652S277.855,194.855,277.855,193.162Zm3.2,0c0-1.165-.411-1.647-1-1.647s-1,.482-1,1.647.41,1.648,1,1.648S281.057,194.327,281.057,193.162Z" fill="#df071b"/>
      <path id="Path_6053" data-name="Path 6053" d="M283.2,193.162c0-1.692.938-2.651,2.2-2.651s2.2.959,2.2,2.651-.93,2.652-2.2,2.652S283.2,194.855,283.2,193.162Zm3.2,0c0-1.165-.41-1.647-1-1.647s-1,.482-1,1.647.411,1.648,1,1.648S286.4,194.327,286.4,193.162Z" fill="#df071b"/>
      <path id="Path_6054" data-name="Path 6054" d="M288.535,193.162c0-1.692.938-2.651,2.2-2.651s2.2.959,2.2,2.651-.93,2.652-2.2,2.652S288.535,194.855,288.535,193.162Zm3.2,0c0-1.165-.41-1.647-1-1.647s-1,.482-1,1.647.41,1.648,1,1.648S291.736,194.327,291.736,193.162Z" fill="#df071b"/>
      <path id="Path_6055" data-name="Path 6055" d="M298.666,191.382h-.535v4.344h-1.092v-.454a1.512,1.512,0,0,1-1.23.513,2.03,2.03,0,0,1,0-4.058,1.512,1.512,0,0,1,1.179.475v-.82h-1.34v-.658h1.34v-.433h1.143v.433h.535Zm-1.656,2.373a1.01,1.01,0,1,0-1,1.092A1,1,0,0,0,297.01,193.755Z" fill="#df071b"/>
      <path id="Path_6056" data-name="Path 6056" d="M269.571,205.2c0,.909-.667,1.7-2.132,1.7a3.546,3.546,0,0,1-1.955-.549l.469-.908a2.469,2.469,0,0,0,1.457.461c.594,0,.96-.249.96-.666s-.264-.667-1.194-.667h-1.311l.264-2.886h3.127v.952h-2.139l-.08.974h.418C268.971,203.615,269.571,204.3,269.571,205.2Z" fill="#df071b"/>
      <path id="Path_6057" data-name="Path 6057" d="M270.422,204.252c0-1.692.937-2.651,2.2-2.651s2.2.959,2.2,2.651-.93,2.652-2.2,2.652S270.422,205.945,270.422,204.252Zm3.2,0c0-1.165-.41-1.647-1-1.647s-1,.482-1,1.647.41,1.648,1,1.648S273.622,205.417,273.622,204.252Z" fill="#df071b"/>
      <path id="Path_6058" data-name="Path 6058" d="M275.63,206.157a.711.711,0,0,1,1.421,0,.711.711,0,1,1-1.421,0Z" fill="#df071b"/>
      <path id="Path_6059" data-name="Path 6059" d="M277.855,204.252c0-1.692.938-2.651,2.2-2.651s2.2.959,2.2,2.651-.93,2.652-2.2,2.652S277.855,205.945,277.855,204.252Zm3.2,0c0-1.165-.411-1.647-1-1.647s-1,.482-1,1.647.41,1.648,1,1.648S281.057,205.417,281.057,204.252Z" fill="#df071b"/>
      <path id="Path_6060" data-name="Path 6060" d="M283.2,204.252c0-1.692.938-2.651,2.2-2.651s2.2.959,2.2,2.651-.93,2.652-2.2,2.652S283.2,205.945,283.2,204.252Zm3.2,0c0-1.165-.41-1.647-1-1.647s-1,.482-1,1.647.411,1.648,1,1.648S286.4,205.417,286.4,204.252Z" fill="#df071b"/>
      <path id="Path_6061" data-name="Path 6061" d="M288.535,204.252c0-1.692.938-2.651,2.2-2.651s2.2.959,2.2,2.651-.93,2.652-2.2,2.652S288.535,205.945,288.535,204.252Zm3.2,0c0-1.165-.41-1.647-1-1.647s-1,.482-1,1.647.41,1.648,1,1.648S291.736,205.417,291.736,204.252Z" fill="#df071b"/>
      <path id="Path_6062" data-name="Path 6062" d="M298.666,202.472h-.535v4.344h-1.092v-.454a1.515,1.515,0,0,1-1.23.512,2.029,2.029,0,0,1,0-4.057,1.512,1.512,0,0,1,1.179.475v-.82h-1.34v-.658h1.34v-.433h1.143v.433h.535Zm-1.656,2.373a1.01,1.01,0,1,0-1,1.092A1,1,0,0,0,297.01,204.845Z" fill="#df071b"/>
      <path id="Path_6063" data-name="Path 6063" d="M269.571,216.295c0,.908-.667,1.7-2.132,1.7a3.546,3.546,0,0,1-1.955-.549l.469-.909a2.469,2.469,0,0,0,1.457.462c.594,0,.96-.249.96-.667,0-.4-.264-.666-1.194-.666h-1.311l.264-2.885h3.127v.952h-2.139l-.08.974h.418C268.971,214.706,269.571,215.387,269.571,216.295Z" fill="#df071b"/>
      <path id="Path_6064" data-name="Path 6064" d="M270.422,215.343c0-1.691.937-2.651,2.2-2.651s2.2.96,2.2,2.651-.93,2.651-2.2,2.651S270.422,217.035,270.422,215.343Zm3.2,0c0-1.164-.41-1.648-1-1.648s-1,.484-1,1.648.41,1.649,1,1.649S273.622,216.507,273.622,215.343Z" fill="#df071b"/>
      <path id="Path_6065" data-name="Path 6065" d="M275.63,217.247a.711.711,0,0,1,1.421,0,.711.711,0,1,1-1.421,0Z" fill="#df071b"/>
      <path id="Path_6066" data-name="Path 6066" d="M277.855,215.343c0-1.691.938-2.651,2.2-2.651s2.2.96,2.2,2.651-.93,2.651-2.2,2.651S277.855,217.035,277.855,215.343Zm3.2,0c0-1.164-.411-1.648-1-1.648s-1,.484-1,1.648.41,1.649,1,1.649S281.057,216.507,281.057,215.343Z" fill="#df071b"/>
      <path id="Path_6067" data-name="Path 6067" d="M283.2,215.343c0-1.691.938-2.651,2.2-2.651s2.2.96,2.2,2.651-.93,2.651-2.2,2.651S283.2,217.035,283.2,215.343Zm3.2,0c0-1.164-.41-1.648-1-1.648s-1,.484-1,1.648.411,1.649,1,1.649S286.4,216.507,286.4,215.343Z" fill="#df071b"/>
      <path id="Path_6068" data-name="Path 6068" d="M288.535,215.343c0-1.691.938-2.651,2.2-2.651s2.2.96,2.2,2.651-.93,2.651-2.2,2.651S288.535,217.035,288.535,215.343Zm3.2,0c0-1.164-.41-1.648-1-1.648s-1,.484-1,1.648.41,1.649,1,1.649S291.736,216.507,291.736,215.343Z" fill="#df071b"/>
      <path id="Path_6069" data-name="Path 6069" d="M298.666,213.564h-.535v4.343h-1.092v-.455a1.515,1.515,0,0,1-1.23.513,2.029,2.029,0,0,1,0-4.057,1.512,1.512,0,0,1,1.179.476v-.82h-1.34v-.66h1.34v-.432h1.143v.432h.535Zm-1.656,2.373a1.01,1.01,0,1,0-1,1.091A1,1,0,0,0,297.01,215.937Z" fill="#df071b"/>
      <path id="Path_6070" data-name="Path 6070" d="M269.571,227.385c0,.908-.667,1.7-2.132,1.7a3.546,3.546,0,0,1-1.955-.549l.469-.909a2.469,2.469,0,0,0,1.457.462c.594,0,.96-.249.96-.667,0-.4-.264-.666-1.194-.666h-1.311l.264-2.886h3.127v.953h-2.139l-.08.974h.418C268.971,225.8,269.571,226.477,269.571,227.385Z" fill="#df071b"/>
      <path id="Path_6071" data-name="Path 6071" d="M270.422,226.433c0-1.691.937-2.651,2.2-2.651s2.2.96,2.2,2.651-.93,2.651-2.2,2.651S270.422,228.124,270.422,226.433Zm3.2,0c0-1.164-.41-1.648-1-1.648s-1,.484-1,1.648.41,1.648,1,1.648S273.622,227.6,273.622,226.433Z" fill="#df071b"/>
      <path id="Path_6072" data-name="Path 6072" d="M275.63,228.337a.711.711,0,0,1,1.421,0,.711.711,0,1,1-1.421,0Z" fill="#df071b"/>
      <path id="Path_6073" data-name="Path 6073" d="M277.855,226.433c0-1.691.938-2.651,2.2-2.651s2.2.96,2.2,2.651-.93,2.651-2.2,2.651S277.855,228.124,277.855,226.433Zm3.2,0c0-1.164-.411-1.648-1-1.648s-1,.484-1,1.648.41,1.648,1,1.648S281.057,227.6,281.057,226.433Z" fill="#df071b"/>
      <path id="Path_6074" data-name="Path 6074" d="M283.2,226.433c0-1.691.938-2.651,2.2-2.651s2.2.96,2.2,2.651-.93,2.651-2.2,2.651S283.2,228.124,283.2,226.433Zm3.2,0c0-1.164-.41-1.648-1-1.648s-1,.484-1,1.648.411,1.648,1,1.648S286.4,227.6,286.4,226.433Z" fill="#df071b"/>
      <path id="Path_6075" data-name="Path 6075" d="M288.535,226.433c0-1.691.938-2.651,2.2-2.651s2.2.96,2.2,2.651-.93,2.651-2.2,2.651S288.535,228.124,288.535,226.433Zm3.2,0c0-1.164-.41-1.648-1-1.648s-1,.484-1,1.648.41,1.648,1,1.648S291.736,227.6,291.736,226.433Z" fill="#df071b"/>
      <path id="Path_6076" data-name="Path 6076" d="M298.666,224.654h-.535V229h-1.092v-.454a1.515,1.515,0,0,1-1.23.513,2.03,2.03,0,0,1,0-4.058,1.513,1.513,0,0,1,1.179.477v-.82h-1.34v-.66h1.34v-.432h1.143v.432h.535Zm-1.656,2.373a1.01,1.01,0,1,0-1,1.091A1,1,0,0,0,297.01,227.027Z" fill="#df071b"/>
      <path id="Path_6077" data-name="Path 6077" d="M269.571,238.476c0,.908-.667,1.7-2.132,1.7a3.538,3.538,0,0,1-1.955-.549l.469-.908a2.469,2.469,0,0,0,1.457.461c.594,0,.96-.249.96-.666s-.264-.667-1.194-.667h-1.311l.264-2.886h3.127v.952h-2.139l-.08.974h.418C268.971,236.886,269.571,237.568,269.571,238.476Z" fill="#df071b"/>
      <path id="Path_6078" data-name="Path 6078" d="M270.422,237.524c0-1.693.937-2.652,2.2-2.652s2.2.959,2.2,2.652-.93,2.651-2.2,2.651S270.422,239.216,270.422,237.524Zm3.2,0c0-1.165-.41-1.648-1-1.648s-1,.483-1,1.648.41,1.647,1,1.647S273.622,238.689,273.622,237.524Z" fill="#df071b"/>
      <path id="Path_6079" data-name="Path 6079" d="M275.63,239.428a.711.711,0,0,1,1.421,0,.711.711,0,1,1-1.421,0Z" fill="#df071b"/>
      <path id="Path_6080" data-name="Path 6080" d="M277.855,237.524c0-1.693.938-2.652,2.2-2.652s2.2.959,2.2,2.652-.93,2.651-2.2,2.651S277.855,239.216,277.855,237.524Zm3.2,0c0-1.165-.411-1.648-1-1.648s-1,.483-1,1.648.41,1.647,1,1.647S281.057,238.689,281.057,237.524Z" fill="#df071b"/>
      <path id="Path_6081" data-name="Path 6081" d="M283.2,237.524c0-1.693.938-2.652,2.2-2.652s2.2.959,2.2,2.652-.93,2.651-2.2,2.651S283.2,239.216,283.2,237.524Zm3.2,0c0-1.165-.41-1.648-1-1.648s-1,.483-1,1.648.411,1.647,1,1.647S286.4,238.689,286.4,237.524Z" fill="#df071b"/>
      <path id="Path_6082" data-name="Path 6082" d="M288.535,237.524c0-1.693.938-2.652,2.2-2.652s2.2.959,2.2,2.652-.93,2.651-2.2,2.651S288.535,239.216,288.535,237.524Zm3.2,0c0-1.165-.41-1.648-1-1.648s-1,.483-1,1.648.41,1.647,1,1.647S291.736,238.689,291.736,237.524Z" fill="#df071b"/>
      <path id="Path_6083" data-name="Path 6083" d="M298.666,235.744h-.535v4.343h-1.092v-.454a1.512,1.512,0,0,1-1.23.513,2.03,2.03,0,0,1,0-4.058,1.513,1.513,0,0,1,1.179.476v-.82h-1.34v-.659h1.34v-.432h1.143v.432h.535Zm-1.656,2.373a1.01,1.01,0,1,0-1,1.091A1,1,0,0,0,297.01,238.117Z" fill="#df071b"/>
      <path id="Path_6084" data-name="Path 6084" d="M269.389,250.1h-.835v1.076H267.4V250.1h-2.761v-.8l2.418-3.252H268.3l-2.24,3.084h1.377v-.96h1.12v.96h.835Z" fill="#df071b"/>
      <path id="Path_6085" data-name="Path 6085" d="M274.8,250.1h-.835v1.076H272.81V250.1h-2.761v-.8l2.416-3.252h1.246l-2.242,3.084h1.377v-.96h1.121v.96h.835Z" fill="#df071b"/>
      <path id="Path_6086" data-name="Path 6086" d="M275.63,250.518a.711.711,0,0,1,1.421,0,.711.711,0,1,1-1.421,0Z" fill="#df071b"/>
      <path id="Path_6087" data-name="Path 6087" d="M277.857,248.614c0-1.693.938-2.652,2.2-2.652s2.2.959,2.2,2.652-.931,2.651-2.2,2.651S277.857,250.306,277.857,248.614Zm3.2,0c0-1.165-.411-1.648-1-1.648s-1,.483-1,1.648.41,1.647,1,1.647S281.058,249.779,281.058,248.614Z" fill="#df071b"/>
      <path id="Path_6088" data-name="Path 6088" d="M283.2,248.614c0-1.693.938-2.652,2.2-2.652s2.2.959,2.2,2.652-.931,2.651-2.2,2.651S283.2,250.306,283.2,248.614Zm3.2,0c0-1.165-.41-1.648-1-1.648s-1,.483-1,1.648.411,1.647,1,1.647S286.4,249.779,286.4,248.614Z" fill="#df071b"/>
      <path id="Path_6089" data-name="Path 6089" d="M288.537,248.614c0-1.693.938-2.652,2.2-2.652s2.2.959,2.2,2.652-.931,2.651-2.2,2.651S288.537,250.306,288.537,248.614Zm3.2,0c0-1.165-.41-1.648-1-1.648s-1,.483-1,1.648.41,1.647,1,1.647S291.737,249.779,291.737,248.614Z" fill="#df071b"/>
      <path id="Path_6090" data-name="Path 6090" d="M298.666,246.833h-.534v4.344h-1.091v-.454a1.514,1.514,0,0,1-1.23.513,2.03,2.03,0,0,1,0-4.058,1.511,1.511,0,0,1,1.178.476v-.821h-1.341v-.658h1.341v-.432h1.143v.432h.534Zm-1.654,2.373a1.011,1.011,0,1,0-1,1.092A1,1,0,0,0,297.012,249.206Z" fill="#df071b"/>
      <path id="Path_6091" data-name="Path 6091" d="M269.623,260.65a1.762,1.762,0,0,1-1.941,1.706c-1.414,0-2.293-.886-2.293-2.542A2.5,2.5,0,0,1,268,257.053a2.759,2.759,0,0,1,1.428.352l-.44.872a1.674,1.674,0,0,0-.959-.257,1.362,1.362,0,0,0-1.443,1.487,1.728,1.728,0,0,1,1.267-.455A1.628,1.628,0,0,1,269.623,260.65Zm-1.15.058a.773.773,0,0,0-.871-.769.8.8,0,0,0-.887.769c0,.44.33.762.9.762A.767.767,0,0,0,268.473,260.708Z" fill="#df071b"/>
      <path id="Path_6092" data-name="Path 6092" d="M270.422,259.7c0-1.691.937-2.651,2.2-2.651s2.2.96,2.2,2.651-.93,2.652-2.2,2.652S270.422,261.4,270.422,259.7Zm3.2,0c0-1.164-.41-1.648-1-1.648s-1,.484-1,1.648.41,1.649,1,1.649S273.622,260.869,273.622,259.7Z" fill="#df071b"/>
      <path id="Path_6093" data-name="Path 6093" d="M275.63,261.609a.711.711,0,0,1,1.421,0,.711.711,0,1,1-1.421,0Z" fill="#df071b"/>
      <path id="Path_6094" data-name="Path 6094" d="M277.855,259.7c0-1.691.938-2.651,2.2-2.651s2.2.96,2.2,2.651-.93,2.652-2.2,2.652S277.855,261.4,277.855,259.7Zm3.2,0c0-1.164-.411-1.648-1-1.648s-1,.484-1,1.648.41,1.649,1,1.649S281.057,260.869,281.057,259.7Z" fill="#df071b"/>
      <path id="Path_6095" data-name="Path 6095" d="M283.2,259.7c0-1.691.938-2.651,2.2-2.651s2.2.96,2.2,2.651-.93,2.652-2.2,2.652S283.2,261.4,283.2,259.7Zm3.2,0c0-1.164-.41-1.648-1-1.648s-1,.484-1,1.648.411,1.649,1,1.649S286.4,260.869,286.4,259.7Z" fill="#df071b"/>
      <path id="Path_6096" data-name="Path 6096" d="M288.535,259.7c0-1.691.938-2.651,2.2-2.651s2.2.96,2.2,2.651-.93,2.652-2.2,2.652S288.535,261.4,288.535,259.7Zm3.2,0c0-1.164-.41-1.648-1-1.648s-1,.484-1,1.648.41,1.649,1,1.649S291.736,260.869,291.736,259.7Z" fill="#df071b"/>
      <path id="Path_6097" data-name="Path 6097" d="M298.666,257.925h-.535v4.343h-1.092v-.454a1.515,1.515,0,0,1-1.23.513,2.03,2.03,0,0,1,0-4.058,1.513,1.513,0,0,1,1.179.476v-.82h-1.34v-.66h1.34v-.432h1.143v.432h.535ZM297.01,260.3a1.01,1.01,0,1,0-1,1.091A1,1,0,0,0,297.01,260.3Z" fill="#df071b"/>
    </g>
  </g>
</svg>
