<svg xmlns="http://www.w3.org/2000/svg" xmlns:xlink="http://www.w3.org/1999/xlink" width="239" height="73" viewBox="0 0 239 73">
  <defs>
    <clipPath id="clip-Web_1920_1">
      <rect width="239" height="73"/>
    </clipPath>
  </defs>
  <g id="Web_1920_1" data-name="Web 1920 – 1" clip-path="url(#clip-Web_1920_1)">
    <g id="Group_419" data-name="Group 419" transform="translate(-625.816 -1087.4)">
      <g id="Group_418" data-name="Group 418">
        <path id="Path_4999" data-name="Path 4999" d="M835.852,1091.758h-.835v1.076H833.86v-1.076H831.1v-.8l2.417-3.252h1.245l-2.241,3.084H833.9v-.96h1.121v.96h.835Z" fill="#df071b"/>
        <path id="Path_5000" data-name="Path 5000" d="M836.571,1090.271c0-1.693.937-2.652,2.2-2.652s2.2.959,2.2,2.652-.93,2.651-2.2,2.651S836.571,1091.963,836.571,1090.271Zm3.2,0c0-1.165-.41-1.648-1-1.648s-1,.483-1,1.648.41,1.647,1,1.647S839.771,1091.436,839.771,1090.271Z" fill="#df071b"/>
        <path id="Path_5001" data-name="Path 5001" d="M841.779,1092.175a.711.711,0,0,1,1.421,0,.711.711,0,1,1-1.421,0Z" fill="#df071b"/>
        <path id="Path_5002" data-name="Path 5002" d="M844.005,1090.271c0-1.693.938-2.652,2.2-2.652s2.2.959,2.2,2.652-.93,2.651-2.2,2.651S844.005,1091.963,844.005,1090.271Zm3.2,0c0-1.165-.411-1.648-1-1.648s-1,.483-1,1.648.41,1.647,1,1.647S847.207,1091.436,847.207,1090.271Z" fill="#df071b"/>
        <path id="Path_5003" data-name="Path 5003" d="M849.345,1090.271c0-1.693.938-2.652,2.2-2.652s2.2.959,2.2,2.652-.93,2.651-2.2,2.651S849.345,1091.963,849.345,1090.271Zm3.2,0c0-1.165-.41-1.648-1-1.648s-1,.483-1,1.648.411,1.647,1,1.647S852.546,1091.436,852.546,1090.271Z" fill="#df071b"/>
        <path id="Path_5004" data-name="Path 5004" d="M854.686,1090.271c0-1.693.938-2.652,2.2-2.652s2.2.959,2.2,2.652-.931,2.651-2.2,2.651S854.686,1091.963,854.686,1090.271Zm3.2,0c0-1.165-.41-1.648-1-1.648s-1,.483-1,1.648.41,1.647,1,1.647S857.886,1091.436,857.886,1090.271Z" fill="#df071b"/>
        <path id="Path_5005" data-name="Path 5005" d="M864.816,1088.491h-.535v4.343H863.19v-.454a1.514,1.514,0,0,1-1.231.513,2.03,2.03,0,0,1,0-4.058,1.512,1.512,0,0,1,1.179.476v-.82H861.8v-.659h1.34v-.432h1.143v.432h.535Zm-1.655,2.373a1.011,1.011,0,1,0-1,1.091A1,1,0,0,0,863.161,1090.864Z" fill="#df071b"/>
        <path id="Path_5006" data-name="Path 5006" d="M835.852,1102.848h-.835v1.076H833.86v-1.076H831.1v-.8l2.417-3.252h1.245l-2.241,3.084H833.9v-.96h1.121v.96h.835Z" fill="#df071b"/>
        <path id="Path_5007" data-name="Path 5007" d="M836.571,1101.361c0-1.693.937-2.652,2.2-2.652s2.2.959,2.2,2.652-.93,2.651-2.2,2.651S836.571,1103.053,836.571,1101.361Zm3.2,0c0-1.165-.41-1.648-1-1.648s-1,.483-1,1.648.41,1.647,1,1.647S839.771,1102.526,839.771,1101.361Z" fill="#df071b"/>
        <path id="Path_5008" data-name="Path 5008" d="M841.779,1103.265a.711.711,0,0,1,1.421,0,.711.711,0,1,1-1.421,0Z" fill="#df071b"/>
        <path id="Path_5009" data-name="Path 5009" d="M844.005,1101.361c0-1.693.938-2.652,2.2-2.652s2.2.959,2.2,2.652-.93,2.651-2.2,2.651S844.005,1103.053,844.005,1101.361Zm3.2,0c0-1.165-.411-1.648-1-1.648s-1,.483-1,1.648.41,1.647,1,1.647S847.207,1102.526,847.207,1101.361Z" fill="#df071b"/>
        <path id="Path_5010" data-name="Path 5010" d="M849.345,1101.361c0-1.693.938-2.652,2.2-2.652s2.2.959,2.2,2.652-.93,2.651-2.2,2.651S849.345,1103.053,849.345,1101.361Zm3.2,0c0-1.165-.41-1.648-1-1.648s-1,.483-1,1.648.411,1.647,1,1.647S852.546,1102.526,852.546,1101.361Z" fill="#df071b"/>
        <path id="Path_5011" data-name="Path 5011" d="M854.686,1101.361c0-1.693.938-2.652,2.2-2.652s2.2.959,2.2,2.652-.931,2.651-2.2,2.651S854.686,1103.053,854.686,1101.361Zm3.2,0c0-1.165-.41-1.648-1-1.648s-1,.483-1,1.648.41,1.647,1,1.647S857.886,1102.526,857.886,1101.361Z" fill="#df071b"/>
        <path id="Path_5012" data-name="Path 5012" d="M864.816,1099.58h-.535v4.344H863.19v-.454a1.514,1.514,0,0,1-1.231.513,2.03,2.03,0,0,1,0-4.058,1.509,1.509,0,0,1,1.179.476v-.821H861.8v-.658h1.34v-.432h1.143v.432h.535Zm-1.655,2.373a1.011,1.011,0,1,0-1,1.092A1,1,0,0,0,863.161,1101.953Z" fill="#df071b"/>
        <path id="Path_5013" data-name="Path 5013" d="M835.852,1113.938h-.835v1.077H833.86v-1.077H831.1v-.8l2.417-3.252h1.245l-2.241,3.083H833.9v-.959h1.121v.959h.835Z" fill="#df071b"/>
        <path id="Path_5014" data-name="Path 5014" d="M836.571,1112.452c0-1.692.937-2.652,2.2-2.652s2.2.96,2.2,2.652-.93,2.651-2.2,2.651S836.571,1114.143,836.571,1112.452Zm3.2,0c0-1.165-.41-1.649-1-1.649s-1,.484-1,1.649.41,1.648,1,1.648S839.771,1113.616,839.771,1112.452Z" fill="#df071b"/>
        <path id="Path_5015" data-name="Path 5015" d="M841.779,1114.356a.711.711,0,0,1,1.421,0,.711.711,0,1,1-1.421,0Z" fill="#df071b"/>
        <path id="Path_5016" data-name="Path 5016" d="M844.005,1112.452c0-1.692.938-2.652,2.2-2.652s2.2.96,2.2,2.652-.93,2.651-2.2,2.651S844.005,1114.143,844.005,1112.452Zm3.2,0c0-1.165-.411-1.649-1-1.649s-1,.484-1,1.649.41,1.648,1,1.648S847.207,1113.616,847.207,1112.452Z" fill="#df071b"/>
        <path id="Path_5017" data-name="Path 5017" d="M849.345,1112.452c0-1.692.938-2.652,2.2-2.652s2.2.96,2.2,2.652-.93,2.651-2.2,2.651S849.345,1114.143,849.345,1112.452Zm3.2,0c0-1.165-.41-1.649-1-1.649s-1,.484-1,1.649.411,1.648,1,1.648S852.546,1113.616,852.546,1112.452Z" fill="#df071b"/>
        <path id="Path_5018" data-name="Path 5018" d="M854.686,1112.452c0-1.692.938-2.652,2.2-2.652s2.2.96,2.2,2.652-.931,2.651-2.2,2.651S854.686,1114.143,854.686,1112.452Zm3.2,0c0-1.165-.41-1.649-1-1.649s-1,.484-1,1.649.41,1.648,1,1.648S857.886,1113.616,857.886,1112.452Z" fill="#df071b"/>
        <path id="Path_5019" data-name="Path 5019" d="M864.816,1110.672h-.535v4.343H863.19v-.454a1.517,1.517,0,0,1-1.231.513,2.03,2.03,0,0,1,0-4.058,1.51,1.51,0,0,1,1.179.477v-.821H861.8v-.66h1.34v-.432h1.143v.432h.535Zm-1.655,2.373a1.011,1.011,0,1,0-1,1.091A1,1,0,0,0,863.161,1113.045Z" fill="#df071b"/>
        <path id="Path_5020" data-name="Path 5020" d="M835.39,1124.487a1.761,1.761,0,0,1-1.94,1.706c-1.414,0-2.293-.886-2.293-2.542a2.5,2.5,0,0,1,2.615-2.761,2.759,2.759,0,0,1,1.428.352l-.44.872a1.674,1.674,0,0,0-.959-.257,1.362,1.362,0,0,0-1.443,1.487,1.728,1.728,0,0,1,1.267-.455A1.627,1.627,0,0,1,835.39,1124.487Zm-1.149.058a.774.774,0,0,0-.872-.769.8.8,0,0,0-.886.769c0,.44.329.762.9.762A.767.767,0,0,0,834.241,1124.545Z" fill="#df071b"/>
        <path id="Path_5021" data-name="Path 5021" d="M836.189,1123.541c0-1.691.937-2.651,2.2-2.651s2.2.96,2.2,2.651-.929,2.652-2.2,2.652S836.189,1125.233,836.189,1123.541Zm3.2,0c0-1.164-.41-1.648-1-1.648s-1,.484-1,1.648.41,1.649,1,1.649S839.39,1124.7,839.39,1123.541Z" fill="#df071b"/>
        <path id="Path_5022" data-name="Path 5022" d="M841.4,1125.446a.711.711,0,0,1,1.421,0,.711.711,0,1,1-1.421,0Z" fill="#df071b"/>
        <path id="Path_5023" data-name="Path 5023" d="M843.624,1123.541c0-1.691.938-2.651,2.2-2.651s2.2.96,2.2,2.651-.931,2.652-2.2,2.652S843.624,1125.233,843.624,1123.541Zm3.2,0c0-1.164-.41-1.648-1-1.648s-1,.484-1,1.648.41,1.649,1,1.649S846.825,1124.7,846.825,1123.541Z" fill="#df071b"/>
        <path id="Path_5024" data-name="Path 5024" d="M848.964,1123.541c0-1.691.938-2.651,2.2-2.651s2.2.96,2.2,2.651-.931,2.652-2.2,2.652S848.964,1125.233,848.964,1123.541Zm3.2,0c0-1.164-.411-1.648-1-1.648s-1,.484-1,1.648.41,1.649,1,1.649S852.165,1124.7,852.165,1123.541Z" fill="#df071b"/>
        <path id="Path_5025" data-name="Path 5025" d="M854.3,1123.541c0-1.691.938-2.651,2.2-2.651s2.2.96,2.2,2.651-.93,2.652-2.2,2.652S854.3,1125.233,854.3,1123.541Zm3.2,0c0-1.164-.41-1.648-1-1.648s-1,.484-1,1.648.411,1.649,1,1.649S857.505,1124.7,857.505,1123.541Z" fill="#df071b"/>
        <path id="Path_5026" data-name="Path 5026" d="M864.434,1121.762H863.9v4.343h-1.092v-.454a1.518,1.518,0,0,1-1.23.512,2.029,2.029,0,0,1,0-4.057,1.515,1.515,0,0,1,1.179.476v-.82h-1.341v-.66h1.341v-.432H863.9v.432h.534Zm-1.655,2.373a1.01,1.01,0,1,0-1,1.091A1,1,0,0,0,862.779,1124.135Z" fill="#df071b"/>
        <path id="Path_5027" data-name="Path 5027" d="M835.852,1136.119h-.835v1.077H833.86v-1.077H831.1v-.8l2.417-3.252h1.245l-2.241,3.084H833.9v-.96h1.121v.96h.835Z" fill="#df071b"/>
        <path id="Path_5028" data-name="Path 5028" d="M836.571,1134.632c0-1.692.937-2.651,2.2-2.651s2.2.959,2.2,2.651-.93,2.652-2.2,2.652S836.571,1136.325,836.571,1134.632Zm3.2,0c0-1.165-.41-1.647-1-1.647s-1,.482-1,1.647.41,1.648,1,1.648S839.771,1135.8,839.771,1134.632Z" fill="#df071b"/>
        <path id="Path_5029" data-name="Path 5029" d="M841.779,1136.536a.711.711,0,0,1,1.421,0,.711.711,0,1,1-1.421,0Z" fill="#df071b"/>
        <path id="Path_5030" data-name="Path 5030" d="M844.005,1134.632c0-1.692.938-2.651,2.2-2.651s2.2.959,2.2,2.651-.93,2.652-2.2,2.652S844.005,1136.325,844.005,1134.632Zm3.2,0c0-1.165-.411-1.647-1-1.647s-1,.482-1,1.647.41,1.648,1,1.648S847.207,1135.8,847.207,1134.632Z" fill="#df071b"/>
        <path id="Path_5031" data-name="Path 5031" d="M849.345,1134.632c0-1.692.938-2.651,2.2-2.651s2.2.959,2.2,2.651-.93,2.652-2.2,2.652S849.345,1136.325,849.345,1134.632Zm3.2,0c0-1.165-.41-1.647-1-1.647s-1,.482-1,1.647.411,1.648,1,1.648S852.546,1135.8,852.546,1134.632Z" fill="#df071b"/>
        <path id="Path_5032" data-name="Path 5032" d="M854.686,1134.632c0-1.692.938-2.651,2.2-2.651s2.2.959,2.2,2.651-.931,2.652-2.2,2.652S854.686,1136.325,854.686,1134.632Zm3.2,0c0-1.165-.41-1.647-1-1.647s-1,.482-1,1.647.41,1.648,1,1.648S857.886,1135.8,857.886,1134.632Z" fill="#df071b"/>
        <path id="Path_5033" data-name="Path 5033" d="M864.816,1132.852h-.535v4.344H863.19v-.454a1.516,1.516,0,0,1-1.231.512,2.029,2.029,0,0,1,0-4.057,1.512,1.512,0,0,1,1.179.475v-.82H861.8v-.658h1.34v-.433h1.143v.433h.535Zm-1.655,2.373a1.011,1.011,0,1,0-1,1.092A1,1,0,0,0,863.161,1135.225Z" fill="#df071b"/>
        <path id="Path_5034" data-name="Path 5034" d="M835.852,1147.209h-.835v1.076H833.86v-1.076H831.1v-.8l2.417-3.251h1.245l-2.241,3.084H833.9v-.96h1.121v.96h.835Z" fill="#df071b"/>
        <path id="Path_5035" data-name="Path 5035" d="M840.43,1146.674c0,.908-.666,1.7-2.131,1.7a3.546,3.546,0,0,1-1.956-.548l.469-.909a2.47,2.47,0,0,0,1.458.461c.593,0,.959-.249.959-.666s-.264-.667-1.193-.667h-1.312l.264-2.885h3.128v.952h-2.139l-.081.973h.418C839.83,1145.084,840.43,1145.766,840.43,1146.674Z" fill="#df071b"/>
        <path id="Path_5036" data-name="Path 5036" d="M841.244,1147.626a.711.711,0,0,1,1.421,0,.711.711,0,1,1-1.421,0Z" fill="#df071b"/>
        <path id="Path_5037" data-name="Path 5037" d="M843.471,1145.722c0-1.692.938-2.651,2.2-2.651s2.2.959,2.2,2.651-.931,2.651-2.2,2.651S843.471,1147.414,843.471,1145.722Zm3.2,0c0-1.165-.41-1.647-1-1.647s-1,.482-1,1.647.41,1.647,1,1.647S846.671,1146.887,846.671,1145.722Z" fill="#df071b"/>
        <path id="Path_5038" data-name="Path 5038" d="M848.811,1145.722c0-1.692.938-2.651,2.2-2.651s2.2.959,2.2,2.651-.931,2.651-2.2,2.651S848.811,1147.414,848.811,1145.722Zm3.2,0c0-1.165-.41-1.647-1-1.647s-1,.482-1,1.647.41,1.647,1,1.647S852.011,1146.887,852.011,1145.722Z" fill="#df071b"/>
        <path id="Path_5039" data-name="Path 5039" d="M854.151,1145.722c0-1.692.937-2.651,2.2-2.651s2.2.959,2.2,2.651-.929,2.651-2.2,2.651S854.151,1147.414,854.151,1145.722Zm3.2,0c0-1.165-.41-1.647-1-1.647s-1,.482-1,1.647.41,1.647,1,1.647S857.352,1146.887,857.352,1145.722Z" fill="#df071b"/>
        <path id="Path_5040" data-name="Path 5040" d="M864.281,1143.942h-.534v4.343h-1.092v-.454a1.513,1.513,0,0,1-1.231.513,2.03,2.03,0,0,1,0-4.058,1.516,1.516,0,0,1,1.18.476v-.82h-1.341v-.658H862.6v-.433h1.143v.433h.534Zm-1.656,2.373a1.01,1.01,0,1,0-1,1.092A1,1,0,0,0,862.625,1146.315Z" fill="#df071b"/>
        <path id="Path_5041" data-name="Path 5041" d="M835.032,1157.765c0,.908-.667,1.7-2.132,1.7a3.538,3.538,0,0,1-1.955-.55l.469-.908a2.463,2.463,0,0,0,1.457.462c.593,0,.96-.249.96-.667,0-.4-.264-.666-1.2-.666h-1.31l.263-2.886h3.127v.953h-2.138l-.08.974h.417C834.431,1156.176,835.032,1156.857,835.032,1157.765Z" fill="#df071b"/>
        <path id="Path_5042" data-name="Path 5042" d="M835.881,1156.813c0-1.692.938-2.652,2.2-2.652s2.2.96,2.2,2.652-.93,2.651-2.2,2.651S835.881,1158.5,835.881,1156.813Zm3.2,0c0-1.164-.41-1.649-1-1.649s-1,.485-1,1.649.411,1.648,1,1.648S839.082,1157.977,839.082,1156.813Z" fill="#df071b"/>
        <path id="Path_5043" data-name="Path 5043" d="M841.089,1158.717a.711.711,0,0,1,1.421,0,.711.711,0,1,1-1.421,0Z" fill="#df071b"/>
        <path id="Path_5044" data-name="Path 5044" d="M843.317,1156.813c0-1.692.937-2.652,2.2-2.652s2.2.96,2.2,2.652-.93,2.651-2.2,2.651S843.317,1158.5,843.317,1156.813Zm3.2,0c0-1.164-.41-1.649-1-1.649s-1,.485-1,1.649.41,1.648,1,1.648S846.517,1157.977,846.517,1156.813Z" fill="#df071b"/>
        <path id="Path_5045" data-name="Path 5045" d="M848.657,1156.813c0-1.692.937-2.652,2.2-2.652s2.2.96,2.2,2.652-.93,2.651-2.2,2.651S848.657,1158.5,848.657,1156.813Zm3.2,0c0-1.164-.41-1.649-1-1.649s-1,.485-1,1.649.41,1.648,1,1.648S851.857,1157.977,851.857,1156.813Z" fill="#df071b"/>
        <path id="Path_5046" data-name="Path 5046" d="M854,1156.813c0-1.692.937-2.652,2.2-2.652s2.2.96,2.2,2.652-.93,2.651-2.2,2.651S854,1158.5,854,1156.813Zm3.2,0c0-1.164-.41-1.649-1-1.649s-1,.485-1,1.649.41,1.648,1,1.648S857.2,1157.977,857.2,1156.813Z" fill="#df071b"/>
        <path id="Path_5047" data-name="Path 5047" d="M864.126,1155.034h-.534v4.342H862.5v-.454a1.515,1.515,0,0,1-1.23.513,2.03,2.03,0,0,1,0-4.058,1.518,1.518,0,0,1,1.18.477v-.82h-1.341v-.661h1.341v-.431h1.142v.431h.534Zm-1.655,2.373a1.01,1.01,0,1,0-1,1.09A1,1,0,0,0,862.471,1157.407Z" fill="#df071b"/>
      </g>
    </g>
    <g id="Group_420" data-name="Group 420" transform="translate(-625.038 -1087.071)">
      <g id="Group_413" data-name="Group 413">
        <path id="Path_4857" data-name="Path 4857" d="M627.308,1087.707v5.127h-1.186v-4.174H625.1v-.953Z" fill="#57574d"/>
        <path id="Path_4858" data-name="Path 4858" d="M628.532,1092.175a.711.711,0,0,1,1.421,0,.711.711,0,1,1-1.421,0Z" fill="#57574d"/>
        <path id="Path_4859" data-name="Path 4859" d="M633.616,1087.707h2.329a2.576,2.576,0,1,1,0,5.127h-2.329Zm2.27,4.153a1.592,1.592,0,1,0,0-3.178H634.8v3.178Z" fill="#57574d"/>
        <path id="Path_4860" data-name="Path 4860" d="M643.922,1089.553v3.281h-1.084v-.468a1.6,1.6,0,0,1-1.223.527,1.571,1.571,0,0,1-1.685-1.773v-2.226h1.143v2.058c0,.66.293.953.8.953.527,0,.908-.338.908-1.063v-1.948h.607a.43.43,0,0,0,.44-.462.7.7,0,0,0-.147-.439l.674-.249a1.187,1.187,0,0,1,.234.733A1.071,1.071,0,0,1,643.922,1089.553Z" fill="#57574d"/>
        <path id="Path_4861" data-name="Path 4861" d="M649.343,1090.864a2.168,2.168,0,1,1-2.153-2.029c.381,0,.6.066.872.066a.437.437,0,0,0,.469-.476.739.739,0,0,0-.155-.439l.667-.249a1.219,1.219,0,0,1,.249.732,1.022,1.022,0,0,1-.556.945A1.945,1.945,0,0,1,649.343,1090.864Zm-2.951-2.5h-.5c.007-.653.3-1.071.739-1.071s.667.469.894.469c.169,0,.293-.153.3-.394h.5c-.014.629-.3,1.046-.747,1.046-.431,0-.659-.46-.885-.46C646.531,1087.95,646.407,1088.1,646.392,1088.36Zm1.794,2.5a1.01,1.01,0,1,0-1,1.091A.994.994,0,0,0,648.186,1090.864Z" fill="#57574d"/>
        <path id="Path_4862" data-name="Path 4862" d="M654.5,1090.578v2.256h-1.142v-2.08c0-.636-.293-.929-.8-.929-.55,0-.945.335-.945,1.061v1.948h-1.143v-3.94h1.092v.462a1.721,1.721,0,0,1,1.3-.521A1.544,1.544,0,0,1,654.5,1090.578Z" fill="#57574d"/>
        <path id="Path_4863" data-name="Path 4863" d="M660.009,1088.894v3.281a1.929,1.929,0,0,1-2.212,2.139,3.245,3.245,0,0,1-1.933-.542l.454-.82a2.357,2.357,0,0,0,1.391.447c.806,0,1.158-.367,1.158-1.077v-.169a1.621,1.621,0,0,1-1.245.491,1.906,1.906,0,1,1,0-3.809,1.58,1.58,0,0,1,1.3.564v-.505Zm-1.128,1.846a1.039,1.039,0,1,0-1.032.966A.955.955,0,0,0,658.881,1090.74Z" fill="#57574d"/>
        <path id="Path_4864" data-name="Path 4864" d="M667.907,1090.578v2.256h-1.143v-2.08c0-.636-.293-.929-.8-.929-.549,0-.944.335-.944,1.061v1.948h-1.143v-3.94h1.091v.462a1.724,1.724,0,0,1,1.3-.521A1.545,1.545,0,0,1,667.907,1090.578Z" fill="#57574d"/>
        <path id="Path_4865" data-name="Path 4865" d="M673.334,1090.578v2.256h-1.142v-2.08c0-.636-.293-.929-.8-.929-.55,0-.945.335-.945,1.061v1.948h-1.143V1087.4h1.143v1.9a1.73,1.73,0,0,1,1.253-.469A1.544,1.544,0,0,1,673.334,1090.578Z" fill="#57574d"/>
        <path id="Path_4866" data-name="Path 4866" d="M678.221,1090.586v2.248h-1.069v-.49a1.3,1.3,0,0,1-1.2.549c-.923,0-1.473-.513-1.473-1.193,0-.7.491-1.18,1.692-1.18h.909c0-.49-.293-.776-.909-.776a1.894,1.894,0,0,0-1.135.366l-.411-.8a3.038,3.038,0,0,1,1.7-.476C677.525,1088.835,678.221,1089.392,678.221,1090.586Zm-1.142,1v-.4h-.785c-.534,0-.7.2-.7.462,0,.286.242.475.645.475A.842.842,0,0,0,677.079,1091.589Z" fill="#57574d"/>
        <path id="Path_4867" data-name="Path 4867" d="M683.649,1090.578v2.256h-1.143v-2.08c0-.636-.293-.929-.8-.929-.548,0-.944.335-.944,1.061v1.948h-1.142v-3.94h1.09v.462a1.724,1.724,0,0,1,1.3-.521A1.545,1.545,0,0,1,683.649,1090.578Z" fill="#57574d"/>
        <path id="Path_4868" data-name="Path 4868" d="M687.489,1087.4h1.142v5.434h-1.142Z" fill="#57574d"/>
        <path id="Path_4869" data-name="Path 4869" d="M689.92,1087.707a.653.653,0,0,1,.711-.636.64.64,0,0,1,.71.615.714.714,0,0,1-1.421.021Zm.14,1.187H691.2v3.94H690.06Z" fill="#57574d"/>
        <path id="Path_4870" data-name="Path 4870" d="M696.66,1090.578v2.256h-1.143v-2.08c0-.636-.293-.929-.8-.929-.549,0-.944.335-.944,1.061v1.948h-1.143v-3.94h1.091v.462a1.724,1.724,0,0,1,1.3-.521A1.545,1.545,0,0,1,696.66,1090.578Z" fill="#57574d"/>
        <path id="Path_4871" data-name="Path 4871" d="M702.087,1090.578v2.256h-1.142v-2.08c0-.636-.293-.929-.8-.929-.55,0-.945.335-.945,1.061v1.948h-1.143V1087.4H699.2v1.9a1.73,1.73,0,0,1,1.253-.469A1.544,1.544,0,0,1,702.087,1090.578Z" fill="#57574d"/>
        <path id="Path_4872" data-name="Path 4872" d="M708.468,1092.644a1.626,1.626,0,0,1-.929.249,1.3,1.3,0,0,1-1.473-1.414v-1.618h-.608v-.879h.608v-.96h1.142v.96h.982v.879h-.982v1.6a.461.461,0,0,0,.492.52.764.764,0,0,0,.461-.147Z" fill="#57574d"/>
        <path id="Path_4873" data-name="Path 4873" d="M711.926,1088.835v1.055c-.1-.007-.169-.015-.257-.015a.968.968,0,0,0-1.046,1.1v1.86H709.48v-3.94h1.091v.52A1.593,1.593,0,0,1,711.926,1088.835Z" fill="#57574d"/>
        <path id="Path_4874" data-name="Path 4874" d="M716.439,1090.586v2.248H715.37v-.49a1.3,1.3,0,0,1-1.2.549c-.922,0-1.472-.513-1.472-1.193,0-.7.491-1.18,1.692-1.18h.908c0-.49-.293-.776-.908-.776a1.9,1.9,0,0,0-1.136.366l-.41-.8a3.037,3.037,0,0,1,1.7-.476C715.743,1088.835,716.439,1089.392,716.439,1090.586Zm-2.007-2.2-1.326-1.055h1.23l.99,1.055Zm.864,3.2v-.4h-.784c-.534,0-.7.2-.7.462,0,.286.242.475.645.475A.841.841,0,0,0,715.3,1091.589Z" fill="#57574d"/>
        <path id="Path_4875" data-name="Path 4875" d="M629.162,1102.957v.967h-3.875v-.769l1.977-1.868c.454-.431.535-.695.535-.945,0-.4-.278-.637-.82-.637a1.256,1.256,0,0,0-1.063.513l-.864-.557a2.382,2.382,0,0,1,2.036-.952c1.143,0,1.9.586,1.9,1.516a2.045,2.045,0,0,1-.857,1.619l-1.179,1.113Z" fill="#57574d"/>
        <path id="Path_4876" data-name="Path 4876" d="M630.055,1103.265a.711.711,0,0,1,1.421,0,.711.711,0,1,1-1.421,0Z" fill="#57574d"/>
        <path id="Path_4877" data-name="Path 4877" d="M636.055,1097.325h1.231l-1.327,1.054h-.893Zm-.916,1.472h1.187v5.127h-1.187Z" fill="#57574d"/>
        <path id="Path_4878" data-name="Path 4878" d="M637.535,1101.953a2.038,2.038,0,0,1,2.2-2.028,1.813,1.813,0,0,1,1.766,1l-.887.477a.984.984,0,0,0-.886-.542,1.093,1.093,0,0,0,0,2.182.969.969,0,0,0,.886-.542l.887.484a1.83,1.83,0,0,1-1.766,1A2.038,2.038,0,0,1,637.535,1101.953Z" fill="#57574d"/>
        <path id="Path_4879" data-name="Path 4879" d="M646.523,1101.668v2.256H645.38v-2.08c0-.637-.293-.93-.8-.93-.549,0-.945.336-.945,1.062v1.948h-1.142v-5.434h1.142v1.9a1.731,1.731,0,0,1,1.252-.469A1.545,1.545,0,0,1,646.523,1101.668Z" fill="#57574d"/>
        <path id="Path_4880" data-name="Path 4880" d="M654.39,1101.668v2.256h-1.142v-2.08c0-.637-.293-.93-.8-.93-.55,0-.946.336-.946,1.062v1.948h-1.142v-5.434H651.5v1.9a1.731,1.731,0,0,1,1.253-.469A1.544,1.544,0,0,1,654.39,1101.668Z" fill="#57574d"/>
        <path id="Path_4881" data-name="Path 4881" d="M659.87,1101.953a2.169,2.169,0,1,1-2.161-2.028A2.023,2.023,0,0,1,659.87,1101.953Zm-2.8-2.474h-.843l.975-.836h1l.973.836h-.841l-.63-.418Zm1.647,2.474a1.01,1.01,0,1,0-1,1.092A.993.993,0,0,0,658.712,1101.953Zm.3-3.177-1.15-.887h1.165l.8.887Z" fill="#57574d"/>
        <path id="Path_4882" data-name="Path 4882" d="M665.027,1101.668v2.256h-1.143v-2.08c0-.637-.293-.93-.8-.93-.549,0-.945.336-.945,1.062v1.948H661v-3.94h1.091v.462a1.722,1.722,0,0,1,1.3-.521A1.544,1.544,0,0,1,665.027,1101.668Z" fill="#57574d"/>
        <path id="Path_4883" data-name="Path 4883" d="M670.536,1099.984v3.281a1.929,1.929,0,0,1-2.212,2.139,3.249,3.249,0,0,1-1.934-.542l.454-.821a2.352,2.352,0,0,0,1.392.448c.8,0,1.157-.368,1.157-1.078v-.168a1.62,1.62,0,0,1-1.245.491,1.906,1.906,0,1,1,0-3.809,1.581,1.581,0,0,1,1.3.564v-.505Zm-1.128,1.845a1.039,1.039,0,1,0-1.033.967A.956.956,0,0,0,669.408,1101.829Z" fill="#57574d"/>
        <path id="Path_4884" data-name="Path 4884" d="M676.946,1103.734a1.629,1.629,0,0,1-.93.249,1.3,1.3,0,0,1-1.473-1.414v-1.618h-.607v-.879h.607v-.96h1.143v.96h.981v.879h-.981v1.6a.46.46,0,0,0,.491.52.763.763,0,0,0,.461-.147Z" fill="#57574d"/>
        <path id="Path_4885" data-name="Path 4885" d="M680.4,1099.925v1.055c-.095-.007-.168-.015-.256-.015a.969.969,0,0,0-1.048,1.1v1.86h-1.143v-3.94h1.092v.52A1.591,1.591,0,0,1,680.4,1099.925Z" fill="#57574d"/>
        <path id="Path_4886" data-name="Path 4886" d="M684.916,1101.676v2.248h-1.069v-.49a1.3,1.3,0,0,1-1.2.549c-.923,0-1.473-.513-1.473-1.194s.492-1.179,1.693-1.179h.908c0-.491-.293-.777-.908-.777a1.9,1.9,0,0,0-1.136.367l-.41-.8a3.032,3.032,0,0,1,1.7-.476C684.22,1099.925,684.916,1100.482,684.916,1101.676Zm-2.006-2.2-1.327-1.055h1.231l.989,1.055Zm.864,3.2v-.4h-.784c-.534,0-.7.2-.7.462,0,.286.242.475.644.475A.843.843,0,0,0,683.774,1102.679Z" fill="#57574d"/>
        <path id="Path_4887" data-name="Path 4887" d="M629.118,1113.448c0,.864-.667,1.655-2.124,1.655a3.522,3.522,0,0,1-1.956-.55l.461-.908a2.49,2.49,0,0,0,1.465.462c.593,0,.959-.241.959-.659,0-.389-.285-.63-.959-.63h-.542v-.784l1.055-1.194h-2.183v-.952h3.589v.769l-1.157,1.318A1.457,1.457,0,0,1,629.118,1113.448Z" fill="#57574d"/>
        <path id="Path_4888" data-name="Path 4888" d="M630,1114.356a.71.71,0,0,1,1.42,0,.71.71,0,1,1-1.42,0Z" fill="#57574d"/>
        <path id="Path_4889" data-name="Path 4889" d="M636.143,1110.855H634.5v-.967h4.468v.967h-1.64v4.16h-1.187Z" fill="#57574d"/>
        <path id="Path_4890" data-name="Path 4890" d="M639.666,1109.888a.654.654,0,0,1,.71-.638.642.642,0,0,1,.711.616.713.713,0,0,1-1.421.022Zm.139,1.187h1.143v3.94H639.8Zm.067,4.988a.505.505,0,1,1,1.01,0,.505.505,0,0,1-1.01,0Z" fill="#57574d"/>
        <path id="Path_4891" data-name="Path 4891" d="M646.406,1112.759v2.256h-1.143v-2.08c0-.638-.293-.931-.8-.931-.548,0-.944.338-.944,1.063v1.948h-1.143v-3.94h1.091v.46a1.733,1.733,0,0,1,1.3-.519A1.545,1.545,0,0,1,646.406,1112.759Z" fill="#57574d"/>
        <path id="Path_4892" data-name="Path 4892" d="M651.833,1112.759v2.256h-1.142v-2.08c0-.638-.293-.931-.8-.931-.55,0-.945.338-.945,1.063v1.948H647.8v-5.435h1.143v1.905a1.73,1.73,0,0,1,1.253-.469A1.544,1.544,0,0,1,651.833,1112.759Z" fill="#57574d"/>
        <path id="Path_4893" data-name="Path 4893" d="M657.365,1113.469l-.549.543v1h-1.143v-5.435h1.143v3.077l1.67-1.582h1.362l-1.641,1.669,1.788,2.271H658.61Z" fill="#57574d"/>
        <path id="Path_4894" data-name="Path 4894" d="M664.558,1111.075l-1.78,4.181a1.626,1.626,0,0,1-1.633,1.238,1.744,1.744,0,0,1-1.1-.359l.417-.812a1.013,1.013,0,0,0,.645.249c.315,0,.491-.14.644-.492l.015-.036-1.706-3.969h1.179l1.106,2.673,1.113-2.673Zm-2.1-.506h-.894l.989-1.055h1.231Z" fill="#57574d"/>
        <path id="Path_4895" data-name="Path 4895" d="M670.374,1114.825a1.636,1.636,0,0,1-.93.249,1.3,1.3,0,0,1-1.472-1.414v-1.619h-.608v-.879h.608v-.959h1.143v.959h.981v.879h-.981v1.6a.458.458,0,0,0,.49.52.773.773,0,0,0,.462-.146Z" fill="#57574d"/>
        <path id="Path_4896" data-name="Path 4896" d="M673.832,1111.016v1.055c-.095-.008-.168-.015-.256-.015a.969.969,0,0,0-1.048,1.1v1.86h-1.143v-3.94h1.092v.519A1.589,1.589,0,0,1,673.832,1111.016Z" fill="#57574d"/>
        <path id="Path_4897" data-name="Path 4897" d="M678.344,1112.766v2.249h-1.069v-.491a1.292,1.292,0,0,1-1.2.55c-.923,0-1.472-.513-1.472-1.195s.49-1.178,1.691-1.178h.909c0-.492-.293-.777-.909-.777a1.89,1.89,0,0,0-1.134.366l-.41-.8a3.014,3.014,0,0,1,1.7-.477C677.649,1111.016,678.344,1111.573,678.344,1112.766Zm-2.007-2.2-1.325-1.055h1.231l.988,1.055Zm.865,3.2v-.4h-.784c-.535,0-.7.2-.7.46,0,.286.242.477.645.477A.842.842,0,0,0,677.2,1113.77Z" fill="#57574d"/>
        <path id="Path_4898" data-name="Path 4898" d="M630.026,1125.028h-.835v1.077h-1.157v-1.077h-2.762v-.8l2.417-3.252h1.245l-2.241,3.083h1.377v-.959h1.121v.959h.835Z" fill="#57574d"/>
        <path id="Path_4899" data-name="Path 4899" d="M630.854,1125.446a.711.711,0,0,1,1.421,0,.711.711,0,1,1-1.421,0Z" fill="#57574d"/>
        <path id="Path_4900" data-name="Path 4900" d="M640.64,1120.978v5.127h-.974l-2.556-3.112v3.112h-1.172v-5.127h.981l2.549,3.112v-3.112Z" fill="#57574d"/>
        <path id="Path_4901" data-name="Path 4901" d="M646.207,1122.164v3.282a1.928,1.928,0,0,1-2.211,2.138,3.248,3.248,0,0,1-1.934-.542l.454-.82a2.357,2.357,0,0,0,1.392.446c.8,0,1.157-.365,1.157-1.076v-.168a1.624,1.624,0,0,1-1.245.49,1.905,1.905,0,1,1,0-3.808,1.581,1.581,0,0,1,1.3.564v-.506Zm-1.127,1.846a1.039,1.039,0,1,0-1.033.967A.957.957,0,0,0,645.08,1124.01Z" fill="#57574d"/>
        <path id="Path_4902" data-name="Path 4902" d="M647.344,1124.135a2.169,2.169,0,1,1,2.168,2.028A2.029,2.029,0,0,1,647.344,1124.135Zm3.172,0a1.011,1.011,0,1,0-1,1.091A1,1,0,0,0,650.516,1124.135Zm-1.523,3.018a.505.505,0,1,1,1.01,0,.505.505,0,0,1-1.01,0Z" fill="#57574d"/>
        <path id="Path_4903" data-name="Path 4903" d="M652.509,1124.135a2.037,2.037,0,0,1,2.2-2.029,1.808,1.808,0,0,1,1.764,1l-.886.475a.981.981,0,0,0-.886-.542,1.093,1.093,0,0,0,0,2.183.968.968,0,0,0,.886-.542l.886.483a1.826,1.826,0,0,1-1.764,1A2.037,2.037,0,0,1,652.509,1124.135Z" fill="#57574d"/>
        <path id="Path_4904" data-name="Path 4904" d="M659.937,1120.67h1.143v5.435h-1.143Z" fill="#57574d"/>
        <path id="Path_4905" data-name="Path 4905" d="M662.369,1120.978a.654.654,0,0,1,.711-.638.642.642,0,0,1,.71.615.713.713,0,0,1-1.421.023Zm.139,1.186h1.143v3.941h-1.143Z" fill="#57574d"/>
        <path id="Path_4906" data-name="Path 4906" d="M669.108,1123.849v2.256h-1.143v-2.08c0-.638-.293-.931-.8-.931-.548,0-.944.338-.944,1.063v1.948H665.08v-3.941h1.09v.461a1.73,1.73,0,0,1,1.3-.519A1.545,1.545,0,0,1,669.108,1123.849Z" fill="#57574d"/>
        <path id="Path_4907" data-name="Path 4907" d="M674.536,1123.849v2.256h-1.143v-2.08c0-.638-.293-.931-.8-.931-.55,0-.945.338-.945,1.063v1.948h-1.143v-5.435h1.143v1.9a1.73,1.73,0,0,1,1.253-.469A1.545,1.545,0,0,1,674.536,1123.849Z" fill="#57574d"/>
        <path id="Path_4908" data-name="Path 4908" d="M680.917,1125.914a1.636,1.636,0,0,1-.93.249,1.3,1.3,0,0,1-1.472-1.413v-1.619h-.608v-.879h.608v-.959h1.143v.959h.981v.879h-.981v1.6a.458.458,0,0,0,.49.52.779.779,0,0,0,.462-.146Z" fill="#57574d"/>
        <path id="Path_4909" data-name="Path 4909" d="M685.957,1123.849v2.256h-1.143v-2.08c0-.638-.293-.931-.8-.931-.55,0-.945.338-.945,1.063v1.948h-1.143v-5.435h1.143v1.9a1.73,1.73,0,0,1,1.253-.469A1.545,1.545,0,0,1,685.957,1123.849Z" fill="#57574d"/>
        <path id="Path_4910" data-name="Path 4910" d="M691.327,1122.824v3.281h-1.084v-.469a1.6,1.6,0,0,1-1.224.527,1.571,1.571,0,0,1-1.685-1.772v-2.227h1.143v2.059c0,.658.293.951.8.951.527,0,.908-.336.908-1.061v-1.949h.607a.429.429,0,0,0,.44-.461.7.7,0,0,0-.147-.439l.674-.25a1.18,1.18,0,0,1,.235.732A1.075,1.075,0,0,1,691.327,1122.824Z" fill="#57574d"/>
        <path id="Path_4911" data-name="Path 4911" d="M696.748,1124.135a2.17,2.17,0,1,1-2.154-2.029c.381,0,.6.066.871.066a.436.436,0,0,0,.469-.476.742.742,0,0,0-.153-.44l.666-.249a1.227,1.227,0,0,1,.249.733,1.02,1.02,0,0,1-.557.944A1.947,1.947,0,0,1,696.748,1124.135Zm-1.158,0a1.01,1.01,0,1,0-1,1.091A.995.995,0,0,0,695.59,1124.135Zm-.5,3.018a.505.505,0,0,1-1.01,0,.505.505,0,1,1,1.01,0Z" fill="#57574d"/>
        <path id="Path_4912" data-name="Path 4912" d="M701.905,1123.849v2.256h-1.143v-2.08c0-.638-.293-.931-.8-.931-.548,0-.944.338-.944,1.063v1.948h-1.143v-3.941h1.091v.461a1.73,1.73,0,0,1,1.3-.519A1.545,1.545,0,0,1,701.905,1123.849Z" fill="#57574d"/>
        <path id="Path_4913" data-name="Path 4913" d="M707.414,1122.164v3.282a1.929,1.929,0,0,1-2.212,2.138,3.246,3.246,0,0,1-1.934-.542l.454-.82a2.355,2.355,0,0,0,1.392.446c.8,0,1.157-.365,1.157-1.076v-.168a1.624,1.624,0,0,1-1.245.49,1.905,1.905,0,1,1,0-3.808,1.583,1.583,0,0,1,1.3.564v-.506Zm-1.128,1.846a1.04,1.04,0,1,0-1.034.967A.958.958,0,0,0,706.286,1124.01Z" fill="#57574d"/>
        <path id="Path_4914" data-name="Path 4914" d="M715.831,1121.762h-.536v4.343h-1.09v-.454a1.522,1.522,0,0,1-1.231.512,2.029,2.029,0,0,1,0-4.057,1.514,1.514,0,0,1,1.179.476v-.82h-1.34v-.66h1.34v-.432h1.142v.432h.536Zm-1.656,2.373a1.01,1.01,0,1,0-1,1.091A1,1,0,0,0,714.175,1124.135Z" fill="#57574d"/>
        <path id="Path_4915" data-name="Path 4915" d="M717.15,1121.352c.286-.133.374-.279.374-.447a.311.311,0,0,0-.345-.308.765.765,0,0,0-.431.14l-.235-.462a1.269,1.269,0,0,1,.791-.249.793.793,0,0,1,.879.783.985.985,0,0,1-.674.924Zm-.432.812h1.143v3.941h-1.143Z" fill="#57574d"/>
        <path id="Path_4916" data-name="Path 4916" d="M723.318,1123.849v2.256h-1.143v-2.08c0-.638-.293-.931-.8-.931-.548,0-.944.338-.944,1.063v1.948H719.29v-3.941h1.09v.461a1.73,1.73,0,0,1,1.3-.519A1.545,1.545,0,0,1,723.318,1123.849Z" fill="#57574d"/>
        <path id="Path_4917" data-name="Path 4917" d="M728.746,1123.849v2.256H727.6v-2.08c0-.638-.293-.931-.8-.931-.55,0-.945.338-.945,1.063v1.948h-1.143v-5.435h1.143v1.9a1.73,1.73,0,0,1,1.253-.469A1.545,1.545,0,0,1,728.746,1123.849Z" fill="#57574d"/>
        <path id="Path_4918" data-name="Path 4918" d="M735.126,1125.914a1.632,1.632,0,0,1-.929.249,1.3,1.3,0,0,1-1.473-1.413v-1.619h-.607v-.879h.607v-.959h1.143v.959h.981v.879h-.981v1.6a.459.459,0,0,0,.491.52.776.776,0,0,0,.461-.146Z" fill="#57574d"/>
        <path id="Path_4919" data-name="Path 4919" d="M738.584,1122.106v1.054c-.095-.007-.168-.014-.256-.014a.968.968,0,0,0-1.047,1.1v1.861h-1.143v-3.941h1.091v.52A1.589,1.589,0,0,1,738.584,1122.106Z" fill="#57574d"/>
        <path id="Path_4920" data-name="Path 4920" d="M743.1,1123.856v2.249h-1.069v-.491a1.292,1.292,0,0,1-1.2.549c-.923,0-1.472-.512-1.472-1.194s.49-1.179,1.691-1.179h.909c0-.491-.293-.776-.909-.776a1.89,1.89,0,0,0-1.134.366l-.411-.8a3.028,3.028,0,0,1,1.7-.476C742.4,1122.106,743.1,1122.662,743.1,1123.856Zm-2.007-2.2-1.325-1.055h1.231l.988,1.055Zm.865,3.2v-.4h-.784c-.535,0-.7.2-.7.461,0,.285.241.477.645.477A.842.842,0,0,0,741.954,1124.86Z" fill="#57574d"/>
        <path id="Path_4921" data-name="Path 4921" d="M629.206,1135.584c0,.909-.667,1.7-2.132,1.7a3.546,3.546,0,0,1-1.955-.549l.468-.908a2.473,2.473,0,0,0,1.457.46c.594,0,.96-.249.96-.666s-.263-.667-1.194-.667H625.5l.264-2.885h3.127v.952h-2.139l-.08.973h.417C628.6,1133.994,629.206,1134.676,629.206,1135.584Z" fill="#57574d"/>
        <path id="Path_4922" data-name="Path 4922" d="M630.019,1136.536a.711.711,0,0,1,1.421,0,.711.711,0,1,1-1.421,0Z" fill="#57574d"/>
        <path id="Path_4923" data-name="Path 4923" d="M634.781,1134.632a2.823,2.823,0,0,1,4.892-1.743l-.761.7a1.652,1.652,0,0,0-1.289-.6,1.641,1.641,0,1,0,0,3.281,1.633,1.633,0,0,0,1.289-.609l.761.7a2.817,2.817,0,0,1-4.892-1.736Z" fill="#57574d"/>
        <path id="Path_4924" data-name="Path 4924" d="M644.625,1133.255v3.941h-1.084v-.469a1.6,1.6,0,0,1-1.223.527,1.571,1.571,0,0,1-1.685-1.772v-2.227h1.143v2.058c0,.66.293.953.8.953.527,0,.908-.338.908-1.063v-1.948Zm-1.772-.505h-.894l.989-1.054h1.23Z" fill="#57574d"/>
        <path id="Path_4925" data-name="Path 4925" d="M645.762,1135.225a2.037,2.037,0,0,1,2.2-2.028,1.808,1.808,0,0,1,1.765,1l-.886.476a.984.984,0,0,0-.886-.542,1.093,1.093,0,0,0,0,2.183.969.969,0,0,0,.886-.542l.886.483a1.827,1.827,0,0,1-1.765,1A2.037,2.037,0,0,1,645.762,1135.225Z" fill="#57574d"/>
        <path id="Path_4926" data-name="Path 4926" d="M655.731,1137.005a1.627,1.627,0,0,1-.93.249,1.3,1.3,0,0,1-1.472-1.414v-1.618h-.608v-.879h.608v-.96h1.142v.96h.982v.879h-.982v1.6a.46.46,0,0,0,.491.519.769.769,0,0,0,.461-.146Z" fill="#57574d"/>
        <path id="Path_4927" data-name="Path 4927" d="M656.6,1132.069a.653.653,0,0,1,.711-.637.641.641,0,0,1,.71.615.714.714,0,0,1-1.421.022Zm.14,1.186h1.142v3.941h-1.142Zm.065,4.988a.506.506,0,1,1,1.011,0,.506.506,0,0,1-1.011,0Z" fill="#57574d"/>
        <path id="Path_4928" data-name="Path 4928" d="M663.342,1134.94v2.256H662.2v-2.08c0-.637-.293-.93-.8-.93-.549,0-.944.336-.944,1.061v1.949h-1.143v-3.941h1.091v.462a1.719,1.719,0,0,1,1.3-.52A1.545,1.545,0,0,1,663.342,1134.94Z" fill="#57574d"/>
        <path id="Path_4929" data-name="Path 4929" d="M668.77,1134.94v2.256h-1.143v-2.08c0-.637-.293-.93-.8-.93-.55,0-.946.336-.946,1.061v1.949h-1.142v-5.435h1.142v1.9a1.735,1.735,0,0,1,1.253-.468A1.544,1.544,0,0,1,668.77,1134.94Z" fill="#57574d"/>
        <path id="Path_4930" data-name="Path 4930" d="M676.609,1133.255v5.362h-1.143v-1.839a1.515,1.515,0,0,1-1.179.476,2.029,2.029,0,0,1,0-4.057,1.518,1.518,0,0,1,1.23.512v-.454Zm-1.121,1.97a1.01,1.01,0,1,0-1,1.092A1,1,0,0,0,675.488,1135.225Z" fill="#57574d"/>
        <path id="Path_4931" data-name="Path 4931" d="M682,1133.255v3.941h-1.084v-.469a1.591,1.591,0,0,1-1.222.527,1.571,1.571,0,0,1-1.685-1.772v-2.227h1.143v2.058c0,.66.293.953.8.953.527,0,.908-.338.908-1.063v-1.948Z" fill="#57574d"/>
        <path id="Path_4932" data-name="Path 4932" d="M687.29,1135.241c0,.087-.015.211-.022.306h-2.981a1.05,1.05,0,0,0,1.128.791,1.336,1.336,0,0,0,.989-.381l.607.661a2.3,2.3,0,0,1-3.874-1.393,2.006,2.006,0,0,1,2.1-2.028A1.951,1.951,0,0,1,687.29,1135.241Zm-2.7-2.491h-.842l.974-.836h1l.974.836h-.842l-.63-.418Zm-.315,2.131h1.941a.984.984,0,0,0-1.941,0Zm2.651-2.834H686.1l.813-.887h1.165Z" fill="#57574d"/>
        <path id="Path_4933" data-name="Path 4933" d="M693.4,1137.005a1.63,1.63,0,0,1-.931.249A1.3,1.3,0,0,1,691,1135.84v-1.618h-.609v-.879H691v-.96h1.142v.96h.982v.879h-.982v1.6a.459.459,0,0,0,.49.519.772.772,0,0,0,.462-.146Z" fill="#57574d"/>
        <path id="Path_4934" data-name="Path 4934" d="M696.857,1133.2v1.054c-.095-.007-.168-.014-.256-.014a.968.968,0,0,0-1.048,1.1v1.861h-1.142v-3.941H695.5v.521A1.591,1.591,0,0,1,696.857,1133.2Z" fill="#57574d"/>
        <path id="Path_4935" data-name="Path 4935" d="M701.37,1134.948v2.248H700.3v-.491a1.294,1.294,0,0,1-1.2.549c-.923,0-1.473-.512-1.473-1.193,0-.7.492-1.18,1.693-1.18h.908c0-.49-.293-.776-.908-.776a1.9,1.9,0,0,0-1.136.366l-.41-.8a3.042,3.042,0,0,1,1.7-.475C700.673,1133.2,701.37,1133.753,701.37,1134.948Zm-2.007-2.2-1.326-1.054h1.23l.989,1.054Zm.864,3.2v-.4h-.784c-.534,0-.7.2-.7.462,0,.286.242.476.644.476A.844.844,0,0,0,700.227,1135.951Z" fill="#57574d"/>
        <path id="Path_4936" data-name="Path 4936" d="M629.564,1146.666a1.762,1.762,0,0,1-1.94,1.707c-1.415,0-2.293-.886-2.293-2.541a2.5,2.5,0,0,1,2.615-2.761,2.779,2.779,0,0,1,1.428.351l-.44.871a1.7,1.7,0,0,0-.959-.256,1.362,1.362,0,0,0-1.443,1.487,1.73,1.73,0,0,1,1.267-.453A1.625,1.625,0,0,1,629.564,1146.666Zm-1.149.059a.774.774,0,0,0-.873-.769.8.8,0,0,0-.885.769c0,.439.329.762.9.762A.767.767,0,0,0,628.415,1146.725Z" fill="#57574d"/>
        <path id="Path_4937" data-name="Path 4937" d="M630.4,1147.626a.711.711,0,0,1,1.421,0,.711.711,0,1,1-1.421,0Z" fill="#57574d"/>
        <path id="Path_4938" data-name="Path 4938" d="M640.186,1143.159v5.126H639v-2.1H636.67v2.1h-1.186v-5.126h1.186v2.021H639v-2.021Z" fill="#57574d"/>
        <path id="Path_4939" data-name="Path 4939" d="M645.724,1146.315a2.169,2.169,0,1,1-2.161-2.029A2.022,2.022,0,0,1,645.724,1146.315Zm-2.806-2.475h-.841l.973-.836h1l.975.836h-.843l-.63-.418Zm1.649,2.475a1.011,1.011,0,1,0-1,1.092A.995.995,0,0,0,644.567,1146.315Zm.3-3.178-1.15-.887h1.164l.806.887Z" fill="#57574d"/>
        <path id="Path_4940" data-name="Path 4940" d="M650.881,1146.03v2.255h-1.142v-2.08c0-.636-.293-.929-.8-.929-.55,0-.945.336-.945,1.061v1.948h-1.143v-3.94h1.092v.462a1.719,1.719,0,0,1,1.3-.521A1.545,1.545,0,0,1,650.881,1146.03Z" fill="#57574d"/>
        <path id="Path_4941" data-name="Path 4941" d="M656.39,1144.345v3.281a1.929,1.929,0,0,1-2.212,2.139,3.245,3.245,0,0,1-1.933-.542l.454-.82a2.355,2.355,0,0,0,1.391.447c.806,0,1.158-.367,1.158-1.077v-.169a1.622,1.622,0,0,1-1.246.491,1.906,1.906,0,1,1,0-3.809,1.581,1.581,0,0,1,1.3.564v-.505Zm-1.128,1.846a1.038,1.038,0,1,0-1.032.967A.956.956,0,0,0,655.262,1146.191Z" fill="#57574d"/>
        <path id="Path_4942" data-name="Path 4942" d="M664.288,1146.03v2.255h-1.143v-2.08c0-.636-.293-.929-.8-.929-.549,0-.944.336-.944,1.061v1.948h-1.143v-5.434H661.4v1.9a1.733,1.733,0,0,1,1.252-.469A1.546,1.546,0,0,1,664.288,1146.03Z" fill="#57574d"/>
        <path id="Path_4943" data-name="Path 4943" d="M665.438,1146.315a2.169,2.169,0,1,1,2.168,2.029A2.029,2.029,0,0,1,665.438,1146.315Zm3.172,0a1.011,1.011,0,1,0-1,1.092A.995.995,0,0,0,668.61,1146.315Z" fill="#57574d"/>
        <path id="Path_4944" data-name="Path 4944" d="M674.316,1146.037v2.248h-1.069v-.49a1.293,1.293,0,0,1-1.2.549c-.922,0-1.471-.513-1.471-1.193,0-.7.49-1.18,1.691-1.18h.908c0-.49-.293-.776-.908-.776a1.9,1.9,0,0,0-1.135.366l-.41-.8a3.035,3.035,0,0,1,1.7-.476C673.621,1144.286,674.316,1144.843,674.316,1146.037Zm-1.143,1v-.4h-.783c-.535,0-.7.2-.7.462,0,.286.241.476.645.476A.841.841,0,0,0,673.173,1147.04Z" fill="#57574d"/>
        <path id="Path_4945" data-name="Path 4945" d="M680.7,1148.095a1.632,1.632,0,0,1-.931.249,1.3,1.3,0,0,1-1.472-1.414v-1.618h-.608v-.879h.608v-.96h1.143v.96h.981v.879h-.981v1.6a.46.46,0,0,0,.49.52.766.766,0,0,0,.462-.147Z" fill="#57574d"/>
        <path id="Path_4946" data-name="Path 4946" d="M685.2,1146.037v2.248h-1.07v-.49a1.293,1.293,0,0,1-1.2.549c-.923,0-1.472-.513-1.472-1.193,0-.7.491-1.18,1.692-1.18h.908c0-.49-.293-.776-.908-.776a1.9,1.9,0,0,0-1.136.366l-.41-.8a3.035,3.035,0,0,1,1.7-.476C684.5,1144.286,685.2,1144.843,685.2,1146.037Zm-2.417-2.2h-.835l.967-1.055h1.01l.967,1.055h-.835l-.637-.556Zm1.274,3.2v-.4h-.784c-.534,0-.7.2-.7.462,0,.286.242.476.644.476A.843.843,0,0,0,684.052,1147.04Z" fill="#57574d"/>
        <path id="Path_4947" data-name="Path 4947" d="M693.251,1146.03v2.255h-1.142v-2.08c0-.636-.285-.929-.747-.929-.513,0-.871.329-.871,1.032v1.977h-1.143v-2.08c0-.636-.271-.929-.747-.929-.506,0-.864.329-.864,1.032v1.977h-1.143v-3.94h1.091v.454a1.6,1.6,0,0,1,1.238-.513,1.469,1.469,0,0,1,1.3.645,1.774,1.774,0,0,1,1.421-.645A1.526,1.526,0,0,1,693.251,1146.03Z" fill="#57574d"/>
        <path id="Path_4948" data-name="Path 4948" d="M699.625,1148.095a1.625,1.625,0,0,1-.929.249,1.3,1.3,0,0,1-1.473-1.414v-1.618h-.607v-.879h.607v-.96h1.143v.96h.981v.879h-.981v1.6a.46.46,0,0,0,.491.52.763.763,0,0,0,.461-.147Z" fill="#57574d"/>
        <path id="Path_4949" data-name="Path 4949" d="M703.083,1144.286v1.055c-.1-.007-.168-.014-.256-.014a.967.967,0,0,0-1.047,1.1v1.86h-1.143v-3.94h1.091v.521A1.59,1.59,0,0,1,703.083,1144.286Z" fill="#57574d"/>
        <path id="Path_4950" data-name="Path 4950" d="M707.595,1146.037v2.248h-1.069v-.49a1.292,1.292,0,0,1-1.2.549c-.923,0-1.472-.513-1.472-1.193,0-.7.49-1.18,1.691-1.18h.909c0-.49-.293-.776-.909-.776a1.891,1.891,0,0,0-1.134.366l-.411-.8a3.036,3.036,0,0,1,1.7-.476C706.9,1144.286,707.595,1144.843,707.595,1146.037Zm-2.007-2.2-1.325-1.055h1.231l.988,1.055Zm.865,3.2v-.4h-.784c-.535,0-.7.2-.7.462,0,.286.241.476.645.476A.842.842,0,0,0,706.453,1147.04Z" fill="#57574d"/>
        <path id="Path_4951" data-name="Path 4951" d="M629.344,1154.249v.769l-1.9,4.358h-1.289l1.839-4.16h-1.7v.835h-1.055v-1.8Z" fill="#57574d"/>
        <path id="Path_4952" data-name="Path 4952" d="M629.843,1158.717a.711.711,0,0,1,1.421,0,.711.711,0,1,1-1.421,0Z" fill="#57574d"/>
        <path id="Path_4953" data-name="Path 4953" d="M639.629,1157.977c0,.887-.7,1.4-2.05,1.4h-2.652v-5.127h2.505c1.281,0,1.941.535,1.941,1.333a1.232,1.232,0,0,1-.681,1.128A1.266,1.266,0,0,1,639.629,1157.977Zm-3.523-2.834v1.209h1.18c.578,0,.893-.205.893-.608s-.315-.6-.893-.6Zm2.329,2.71c0-.433-.329-.638-.944-.638h-1.385v1.268h1.385C638.106,1158.483,638.435,1158.292,638.435,1157.853Z" fill="#57574d"/>
        <path id="Path_4954" data-name="Path 4954" d="M644.852,1157.407a2.168,2.168,0,1,1-2.16-2.03A2.022,2.022,0,0,1,644.852,1157.407Zm-2.8-2.477h-.842l.974-.834h1l.974.834h-.842l-.63-.417Zm1.648,2.477a1.01,1.01,0,1,0-1,1.09A.994.994,0,0,0,643.7,1157.407Zm.688-3.18h-.827l.813-.886h1.165Z" fill="#57574d"/>
        <path id="Path_4955" data-name="Path 4955" d="M648.128,1157.407a2.037,2.037,0,0,1,2.2-2.03,1.81,1.81,0,0,1,1.764,1l-.885.476a.983.983,0,0,0-.887-.542,1.093,1.093,0,0,0,0,2.182.971.971,0,0,0,.887-.542l.885.484a1.826,1.826,0,0,1-1.764,1A2.038,2.038,0,0,1,648.128,1157.407Z" fill="#57574d"/>
        <path id="Path_4956" data-name="Path 4956" d="M657.116,1157.12v2.256h-1.143v-2.08c0-.637-.293-.93-.8-.93-.549,0-.944.337-.944,1.062v1.948h-1.143v-5.434h1.143v1.9a1.731,1.731,0,0,1,1.252-.469A1.545,1.545,0,0,1,657.116,1157.12Z" fill="#57574d"/>
        <path id="Path_4957" data-name="Path 4957" d="M659.409,1153.875h1.23l-1.325,1.055h-.894Zm-.894,1.561h1.143v3.94h-1.143Z" fill="#57574d"/>
        <path id="Path_4958" data-name="Path 4958" d="M665.115,1157.12v2.256h-1.143v-2.08c0-.637-.293-.93-.8-.93-.55,0-.945.337-.945,1.062v1.948h-1.143v-3.94h1.092v.461a1.73,1.73,0,0,1,1.3-.52A1.545,1.545,0,0,1,665.115,1157.12Z" fill="#57574d"/>
        <path id="Path_4959" data-name="Path 4959" d="M670.543,1157.12v2.256H669.4v-2.08c0-.637-.293-.93-.8-.93-.549,0-.944.337-.944,1.062v1.948h-1.143v-5.434h1.143v1.9a1.729,1.729,0,0,1,1.252-.469A1.545,1.545,0,0,1,670.543,1157.12Z" fill="#57574d"/>
        <path id="Path_4960" data-name="Path 4960" d="M678.411,1157.12v2.256h-1.143v-2.08c0-.637-.293-.93-.8-.93-.55,0-.945.337-.945,1.062v1.948h-1.143v-3.94h1.092v.461a1.729,1.729,0,0,1,1.3-.52A1.545,1.545,0,0,1,678.411,1157.12Z" fill="#57574d"/>
        <path id="Path_4961" data-name="Path 4961" d="M683.839,1157.12v2.256H682.7v-2.08c0-.637-.293-.93-.8-.93-.55,0-.945.337-.945,1.062v1.948h-1.143v-5.434h1.143v1.9a1.73,1.73,0,0,1,1.253-.469A1.544,1.544,0,0,1,683.839,1157.12Z" fill="#57574d"/>
        <path id="Path_4962" data-name="Path 4962" d="M688.726,1157.127v2.249h-1.069v-.491a1.294,1.294,0,0,1-1.2.55c-.923,0-1.473-.513-1.473-1.194s.491-1.179,1.692-1.179h.908c0-.491-.292-.777-.908-.777a1.888,1.888,0,0,0-1.135.367l-.411-.8a3.023,3.023,0,0,1,1.7-.477C688.03,1155.377,688.726,1155.934,688.726,1157.127Zm-2.41-2.2h-.842l.974-.834h1l.974.834h-.842l-.63-.417Zm1.267,3.2v-.4H686.8c-.534,0-.7.2-.7.461,0,.285.242.476.645.476A.84.84,0,0,0,687.583,1158.131Zm1.07-3.9h-.828l.813-.886H689.8Z" fill="#57574d"/>
        <path id="Path_4963" data-name="Path 4963" d="M692.666,1159.186a1.633,1.633,0,0,1-.929.249,1.3,1.3,0,0,1-1.473-1.413V1156.4h-.607v-.879h.607v-.959h1.143v.959h.981v.879h-.981v1.6a.46.46,0,0,0,.491.521.771.771,0,0,0,.461-.147Z" fill="#57574d"/>
        <path id="Path_4964" data-name="Path 4964" d="M700.666,1155.034h-.535v4.342H699.04v-.454a1.519,1.519,0,0,1-1.231.513,2.03,2.03,0,0,1,0-4.058,1.518,1.518,0,0,1,1.18.477v-.82h-1.341v-.661h1.341v-.431h1.142v.431h.535Zm-1.656,2.373a1.01,1.01,0,1,0-1,1.09A1,1,0,0,0,699.01,1157.407Z" fill="#57574d"/>
        <path id="Path_4965" data-name="Path 4965" d="M705.04,1157.127v2.249h-1.07v-.491a1.294,1.294,0,0,1-1.2.55c-.923,0-1.473-.513-1.473-1.194s.492-1.179,1.693-1.179h.908c0-.491-.293-.777-.908-.777a1.89,1.89,0,0,0-1.136.367l-.41-.8a3.018,3.018,0,0,1,1.7-.477C704.343,1155.377,705.04,1155.934,705.04,1157.127Zm-3.128-3.031h.688c.029.205.293.344.659.344s.63-.139.659-.344h.689c-.051.549-.593.893-1.348.893S701.963,1154.645,701.912,1154.1Zm1.985,4.035v-.4h-.784c-.534,0-.7.2-.7.461,0,.285.242.476.644.476A.842.842,0,0,0,703.9,1158.131Zm-1.033-4.754-.191-.351a1.129,1.129,0,0,1,.609-.16c.41,0,.674.226.674.578a.722.722,0,0,1-.513.636l-.278-.27c.2-.1.27-.212.27-.308a.22.22,0,0,0-.249-.213A.653.653,0,0,0,702.864,1153.377Z" fill="#57574d"/>
        <path id="Path_4966" data-name="Path 4966" d="M710.467,1157.12v2.256h-1.142v-2.08c0-.637-.293-.93-.8-.93-.549,0-.944.337-.944,1.062v1.948h-1.143v-3.94h1.091v.461a1.727,1.727,0,0,1,1.3-.52A1.545,1.545,0,0,1,710.467,1157.12Z" fill="#57574d"/>
        <path id="Path_4967" data-name="Path 4967" d="M715.976,1155.436v3.281a1.929,1.929,0,0,1-2.212,2.139,3.247,3.247,0,0,1-1.933-.542l.454-.82a2.358,2.358,0,0,0,1.391.446c.806,0,1.157-.365,1.157-1.076v-.168a1.623,1.623,0,0,1-1.245.49,1.906,1.906,0,1,1,0-3.809,1.584,1.584,0,0,1,1.3.565v-.506Zm-1.128,1.846a1.039,1.039,0,1,0-1.033.966A.957.957,0,0,0,714.848,1157.282Z" fill="#57574d"/>
        <path id="Path_4968" data-name="Path 4968" d="M722.386,1159.186a1.633,1.633,0,0,1-.929.249,1.3,1.3,0,0,1-1.473-1.413V1156.4h-.608v-.879h.608v-.959h1.142v.959h.982v.879h-.982v1.6a.461.461,0,0,0,.492.521.771.771,0,0,0,.461-.147Z" fill="#57574d"/>
        <path id="Path_4969" data-name="Path 4969" d="M725.844,1155.377v1.055c-.095-.008-.169-.015-.257-.015a.968.968,0,0,0-1.046,1.1v1.86H723.4v-3.94h1.091v.519A1.592,1.592,0,0,1,725.844,1155.377Z" fill="#57574d"/>
        <path id="Path_4970" data-name="Path 4970" d="M730.356,1157.127v2.249h-1.069v-.491a1.293,1.293,0,0,1-1.2.55c-.922,0-1.471-.513-1.471-1.194s.49-1.179,1.691-1.179h.908c0-.491-.293-.777-.908-.777a1.89,1.89,0,0,0-1.135.367l-.41-.8a3.02,3.02,0,0,1,1.7-.477C729.661,1155.377,730.356,1155.934,730.356,1157.127Zm-2.007-2.2-1.325-1.055h1.23l.989,1.055Zm.864,3.2v-.4h-.783c-.535,0-.7.2-.7.461,0,.285.241.476.645.476A.839.839,0,0,0,729.213,1158.131Z" fill="#57574d"/>
      </g>
    </g>
  </g>
</svg>
