<svg xmlns="http://www.w3.org/2000/svg" width="501.537" height="178.043" viewBox="0 0 501.537 178.043">
  <g id="Group_162" data-name="Group 162" transform="translate(-48.506 -276.668)">
    <g id="Group_74" data-name="Group 74" transform="translate(0 -887.455)">
      <g id="Group_73" data-name="Group 73">
        <path id="Path_323" data-name="Path 323" d="M53.27,1165.46v10.756H50.78v-8.759H48.629v-2Z" fill="#68695f" />
        <path id="Path_324" data-name="Path 324"
          d="M55.836,1174.833a1.491,1.491,0,0,1,2.981,0,1.491,1.491,0,1,1-2.981,0Z" fill="#68695f" />
        <path id="Path_325" data-name="Path 325"
          d="M73.277,1176.216l-2.6-3.734-2.551,3.734H65.271l3.979-5.471-3.779-5.285H68.3l2.474,3.487,2.427-3.487h2.69l-3.75,5.193,4.011,5.563Z"
          fill="#68695f" />
        <path id="Path_326" data-name="Path 326"
          d="M86.076,1172.082a4.551,4.551,0,1,1-4.533-4.256A4.244,4.244,0,0,1,86.076,1172.082Zm-5.9-5.194H78.424l2.028-2.212h2.12l2.029,2.212H82.849l-1.337-1.167Zm3.472,5.194a2.119,2.119,0,1,0-2.105,2.29A2.086,2.086,0,0,0,83.648,1172.082Z"
          fill="#68695f" />
        <path id="Path_327" data-name="Path 327"
          d="M88.152,1165.46a1.37,1.37,0,0,1,1.49-1.337,1.345,1.345,0,0,1,1.49,1.29,1.5,1.5,0,0,1-2.98.047Zm.292,2.489h2.4v8.267h-2.4Z"
          fill="#68695f" />
        <path id="Path_328" data-name="Path 328"
          d="M107.4,1171.483v4.733h-2.4v-4.364c0-1.337-.614-1.952-1.675-1.952-1.152,0-1.982.707-1.982,2.228v4.088h-2.4v-8.267h2.289v.968a3.621,3.621,0,0,1,2.736-1.091C105.929,1167.826,107.4,1168.963,107.4,1171.483Z"
          fill="#68695f" />
        <path id="Path_329" data-name="Path 329"
          d="M118.959,1167.949v6.884c0,3.073-1.659,4.487-4.639,4.487a6.809,6.809,0,0,1-4.057-1.138l.952-1.721a4.938,4.938,0,0,0,2.92.938c1.69,0,2.428-.768,2.428-2.259v-.354a3.4,3.4,0,0,1-2.613,1.03,4,4,0,1,1,0-7.99,3.319,3.319,0,0,1,2.736,1.183v-1.06Zm-2.366,3.872a2.179,2.179,0,1,0-2.166,2.028A2.007,2.007,0,0,0,116.593,1171.821Z"
          fill="#68695f" />
        <path id="Path_330" data-name="Path 330"
          d="M129.271,1171.5v4.718h-2.243v-1.03a2.714,2.714,0,0,1-2.52,1.153c-1.937,0-3.089-1.076-3.089-2.505,0-1.46,1.029-2.474,3.55-2.474h1.9c0-1.03-.614-1.629-1.9-1.629a3.973,3.973,0,0,0-2.382.769l-.86-1.675a6.347,6.347,0,0,1,3.564-1C127.812,1167.826,129.271,1168.994,129.271,1171.5Zm-2.4,2.1v-.845H125.23c-1.121,0-1.475.415-1.475.968,0,.6.507,1,1.352,1A1.766,1.766,0,0,0,126.874,1173.6Z"
          fill="#68695f" />
        <path id="Path_331" data-name="Path 331"
          d="M140.657,1171.483v4.733h-2.4v-4.364c0-1.337-.614-1.952-1.675-1.952-1.152,0-1.982.707-1.982,2.228v4.088h-2.4v-8.267h2.289v.968a3.621,3.621,0,0,1,2.736-1.091C139.182,1167.826,140.657,1168.963,140.657,1171.483Z"
          fill="#68695f" />
        <path id="Path_332" data-name="Path 332"
          d="M57.157,1197.451v2.028H49.029v-1.613l4.149-3.919c.952-.906,1.121-1.459,1.121-1.981,0-.846-.584-1.337-1.721-1.337a2.63,2.63,0,0,0-2.228,1.075l-1.813-1.168a4.993,4.993,0,0,1,4.272-2c2.4,0,4,1.229,4,3.18,0,1.045-.292,2-1.8,3.4l-2.474,2.336Z"
          fill="#68695f" />
        <path id="Path_333" data-name="Path 333" d="M59.032,1198.1a1.491,1.491,0,0,1,2.981,0,1.491,1.491,0,1,1-2.981,0Z"
          fill="#68695f" />
        <path id="Path_334" data-name="Path 334"
          d="M79.561,1196.544c0,1.86-1.475,2.935-4.3,2.935H69.7v-10.756h5.255c2.69,0,4.073,1.122,4.073,2.8a2.586,2.586,0,0,1-1.43,2.366A2.656,2.656,0,0,1,79.561,1196.544ZM72.17,1190.6v2.535h2.474c1.214,0,1.875-.43,1.875-1.275s-.661-1.26-1.875-1.26Zm4.887,5.685c0-.906-.692-1.337-1.983-1.337h-2.9v2.659h2.9C76.365,1197.6,77.057,1197.2,77.057,1196.283Z"
          fill="#68695f" />
        <path id="Path_335" data-name="Path 335"
          d="M90.379,1191.213v8.266H88.105v-.983a3.345,3.345,0,0,1-2.566,1.106c-2.075,0-3.534-1.168-3.534-3.719v-4.67h2.4v4.317c0,1.383.615,2,1.674,2,1.107,0,1.906-.707,1.906-2.228v-4.087Zm-3.719-1.061H84.786l2.075-2.212h2.581Z"
          fill="#68695f" />
        <path id="Path_336" data-name="Path 336"
          d="M101.827,1194.747v4.732h-2.4v-4.364c0-1.336-.614-1.951-1.675-1.951-1.152,0-1.982.707-1.982,2.228v4.087h-2.4v-8.266h2.289v.967a3.624,3.624,0,0,1,2.736-1.09C100.352,1191.09,101.827,1192.227,101.827,1194.747Z"
          fill="#68695f" />
        <path id="Path_337" data-name="Path 337"
          d="M118.33,1194.747v4.732h-2.4v-4.364c0-1.336-.614-1.951-1.675-1.951-1.152,0-1.982.707-1.982,2.228v4.087h-2.4v-8.266h2.289v.967a3.623,3.623,0,0,1,2.736-1.09C116.855,1191.09,118.33,1192.227,118.33,1194.747Z"
          fill="#68695f" />
        <path id="Path_338" data-name="Path 338"
          d="M129.885,1191.213v6.883c0,3.074-1.659,4.487-4.64,4.487a6.807,6.807,0,0,1-4.056-1.137l.952-1.721a4.938,4.938,0,0,0,2.92.937c1.69,0,2.427-.768,2.427-2.258v-.354a3.4,3.4,0,0,1-2.612,1.03,4,4,0,1,1,0-7.99,3.319,3.319,0,0,1,2.736,1.183v-1.06Zm-2.366,3.872a2.179,2.179,0,1,0-2.166,2.028A2.007,2.007,0,0,0,127.519,1195.085Z"
          fill="#68695f" />
        <path id="Path_339" data-name="Path 339"
          d="M140.2,1194.762v4.717h-2.244v-1.029a2.71,2.71,0,0,1-2.519,1.152c-1.937,0-3.089-1.075-3.089-2.505,0-1.459,1.029-2.473,3.55-2.473h1.9c0-1.03-.615-1.629-1.9-1.629a3.979,3.979,0,0,0-2.382.768l-.86-1.674a6.347,6.347,0,0,1,3.564-1C138.737,1191.09,140.2,1192.258,140.2,1194.762Zm-2.4,2.1v-.845h-1.645c-1.121,0-1.474.415-1.474.968,0,.6.507,1,1.351,1A1.766,1.766,0,0,0,137.8,1196.867Z"
          fill="#68695f" />
        <path id="Path_340" data-name="Path 340"
          d="M151.583,1194.747v4.732h-2.4v-4.364c0-1.336-.615-1.951-1.675-1.951-1.152,0-1.982.707-1.982,2.228v4.087h-2.4v-8.266h2.289v.967a3.622,3.622,0,0,1,2.735-1.09C150.108,1191.09,151.583,1192.227,151.583,1194.747Z"
          fill="#68695f" />
        <path id="Path_341" data-name="Path 341"
          d="M168.639,1195.346a4.015,4.015,0,0,1-4.118,4.256,3.214,3.214,0,0,1-2.6-1.075v.952h-2.289v-11.4h2.4v4.011a3.209,3.209,0,0,1,2.49-1A4.015,4.015,0,0,1,168.639,1195.346Zm-2.428,0a2.112,2.112,0,1,0-2.1,2.289A2.086,2.086,0,0,0,166.211,1195.346Z"
          fill="#68695f" />
        <path id="Path_342" data-name="Path 342"
          d="M178.181,1194.762v4.717h-2.243v-1.029a2.713,2.713,0,0,1-2.52,1.152c-1.936,0-3.089-1.075-3.089-2.505,0-1.459,1.03-2.473,3.55-2.473h1.9c0-1.03-.614-1.629-1.9-1.629a3.979,3.979,0,0,0-2.382.768l-.86-1.674a6.347,6.347,0,0,1,3.564-1C176.722,1191.09,178.181,1192.258,178.181,1194.762Zm-2.4,2.1v-.845H174.14c-1.121,0-1.475.415-1.475.968,0,.6.507,1,1.352,1A1.765,1.765,0,0,0,175.784,1196.867Zm-.86-6.715h-1.875l2.074-2.212h2.582Z"
          fill="#68695f" />
        <path id="Path_343" data-name="Path 343"
          d="M189.569,1194.747v4.732h-2.4v-4.364c0-1.336-.614-1.951-1.675-1.951-1.152,0-1.982.707-1.982,2.228v4.087h-2.4v-8.266h2.289v.967a3.624,3.624,0,0,1,2.736-1.09C188.093,1191.09,189.569,1192.227,189.569,1194.747Z"
          fill="#68695f" />
        <path id="Path_344" data-name="Path 344"
          d="M200.954,1194.747v4.732h-2.4v-4.364c0-1.336-.614-1.951-1.675-1.951-1.152,0-1.982.707-1.982,2.228v4.087h-2.4v-11.4h2.4v3.995a3.63,3.63,0,0,1,2.628-.983C199.479,1191.09,200.954,1192.227,200.954,1194.747Z"
          fill="#68695f" />
        <path id="Path_345" data-name="Path 345"
          d="M214.339,1199.08a3.43,3.43,0,0,1-1.952.522c-1.951,0-3.088-1-3.088-2.966v-3.4h-1.275V1191.4H209.3v-2.013h2.4v2.013h2.059v1.844H211.7v3.365a.964.964,0,0,0,1.03,1.091,1.619,1.619,0,0,0,.968-.308Z"
          fill="#68695f" />
        <path id="Path_346" data-name="Path 346"
          d="M224.25,1196.022H218a2.206,2.206,0,0,0,2.367,1.659,2.806,2.806,0,0,0,2.074-.8l1.275,1.382a4.329,4.329,0,0,1-3.411,1.337c-2.858,0-4.717-1.8-4.717-4.256a4.208,4.208,0,0,1,4.409-4.256,4.092,4.092,0,0,1,4.3,4.287C224.3,1195.561,224.265,1195.822,224.25,1196.022Zm-6.285-1.4h4.072a2.065,2.065,0,0,0-4.072,0Zm.846-6.408-.492-.968a2.674,2.674,0,0,1,1.66-.522,1.664,1.664,0,0,1,1.843,1.644,2.063,2.063,0,0,1-1.414,1.936l-.753-.8c.6-.277.785-.584.785-.937a.652.652,0,0,0-.723-.646A1.614,1.614,0,0,0,218.811,1188.216Z"
          fill="#68695f" />
        <path id="Path_347" data-name="Path 347"
          d="M57.065,1219.455c0,1.813-1.4,3.473-4.456,3.473a7.394,7.394,0,0,1-4.1-1.153l.969-1.905a5.216,5.216,0,0,0,3.072.968c1.245,0,2.014-.507,2.014-1.383,0-.814-.6-1.322-2.014-1.322H51.41v-1.644l2.213-2.5H49.044v-2h7.529v1.614l-2.427,2.765A3.057,3.057,0,0,1,57.065,1219.455Z"
          fill="#68695f" />
        <path id="Path_348" data-name="Path 348"
          d="M58.909,1221.361a1.491,1.491,0,0,1,2.981,0,1.491,1.491,0,1,1-2.981,0Z" fill="#68695f" />
        <path id="Path_349" data-name="Path 349"
          d="M79.438,1219.808c0,1.86-1.475,2.935-4.3,2.935H69.573v-10.756h5.255c2.69,0,4.073,1.122,4.073,2.8a2.585,2.585,0,0,1-1.43,2.366A2.656,2.656,0,0,1,79.438,1219.808Zm-7.391-5.946v2.535h2.474c1.214,0,1.875-.43,1.875-1.275s-.661-1.26-1.875-1.26Zm4.887,5.685c0-.906-.692-1.336-1.983-1.336h-2.9v2.658h2.9C76.242,1220.869,76.934,1220.469,76.934,1219.547Z"
          fill="#68695f" />
        <path id="Path_350" data-name="Path 350"
          d="M90.256,1214.477v8.266H87.982v-.983a3.345,3.345,0,0,1-2.566,1.106c-2.075,0-3.534-1.168-3.534-3.718v-4.671h2.4v4.318c0,1.382.615,2,1.674,2,1.107,0,1.906-.707,1.906-2.228v-4.087Zm-3.719-1.061H84.663l2.075-2.212h2.581Z"
          fill="#68695f" />
        <path id="Path_351" data-name="Path 351"
          d="M101.7,1218.011v4.732h-2.4v-4.363c0-1.337-.614-1.952-1.675-1.952-1.152,0-1.982.707-1.982,2.228v4.087h-2.4v-8.266h2.289v.968a3.62,3.62,0,0,1,2.736-1.091C100.229,1214.354,101.7,1215.491,101.7,1218.011Z"
          fill="#68695f" />
        <path id="Path_352" data-name="Path 352"
          d="M118.207,1218.011v4.732h-2.4v-4.363c0-1.337-.614-1.952-1.675-1.952-1.152,0-1.982.707-1.982,2.228v4.087h-2.4v-8.266h2.289v.968a3.619,3.619,0,0,1,2.735-1.091C116.732,1214.354,118.207,1215.491,118.207,1218.011Z"
          fill="#68695f" />
        <path id="Path_353" data-name="Path 353"
          d="M129.762,1214.477v6.884c0,3.073-1.659,4.486-4.64,4.486a6.806,6.806,0,0,1-4.056-1.137l.952-1.721a4.938,4.938,0,0,0,2.92.937c1.69,0,2.427-.768,2.427-2.258v-.354a3.4,3.4,0,0,1-2.612,1.03,4,4,0,1,1,0-7.99,3.317,3.317,0,0,1,2.735,1.183v-1.06Zm-2.366,3.872a2.179,2.179,0,1,0-2.166,2.028A2.008,2.008,0,0,0,127.4,1218.349Z"
          fill="#68695f" />
        <path id="Path_354" data-name="Path 354"
          d="M140.073,1218.026v4.717H137.83v-1.029a2.71,2.71,0,0,1-2.519,1.152c-1.937,0-3.089-1.075-3.089-2.5,0-1.46,1.029-2.474,3.55-2.474h1.9c0-1.03-.614-1.629-1.9-1.629a3.971,3.971,0,0,0-2.382.769l-.861-1.675a6.352,6.352,0,0,1,3.565-1C138.614,1214.354,140.073,1215.522,140.073,1218.026Zm-2.4,2.1v-.845h-1.645c-1.121,0-1.474.415-1.474.968,0,.6.507,1,1.351,1A1.766,1.766,0,0,0,137.677,1220.131Z"
          fill="#68695f" />
        <path id="Path_355" data-name="Path 355"
          d="M151.46,1218.011v4.732h-2.4v-4.363c0-1.337-.615-1.952-1.675-1.952-1.152,0-1.983.707-1.983,2.228v4.087h-2.4v-8.266H145.3v.968a3.619,3.619,0,0,1,2.735-1.091C149.985,1214.354,151.46,1215.491,151.46,1218.011Z"
          fill="#68695f" />
        <path id="Path_356" data-name="Path 356"
          d="M169.054,1213.632h-1.122v9.111h-2.289v-.952a3.182,3.182,0,0,1-2.581,1.075,4.258,4.258,0,0,1,0-8.512,3.172,3.172,0,0,1,2.473,1v-1.721h-2.812v-1.383h2.812v-.907h2.4v.907h1.122Zm-3.473,4.978a2.119,2.119,0,1,0-2.1,2.29A2.095,2.095,0,0,0,165.581,1218.61Z"
          fill="#68695f" />
        <path id="Path_357" data-name="Path 357"
          d="M179.011,1218.641c0,.184-.031.445-.046.645h-6.254a2.2,2.2,0,0,0,2.366,1.659,2.807,2.807,0,0,0,2.075-.8l1.275,1.382a4.331,4.331,0,0,1-3.411,1.337c-2.859,0-4.717-1.8-4.717-4.256a4.208,4.208,0,0,1,4.409-4.256A4.093,4.093,0,0,1,179.011,1218.641Zm-5.67-5.225h-1.768l2.044-1.751h2.09l2.044,1.751h-1.767l-1.322-.875Zm-.661,4.472h4.072a2.065,2.065,0,0,0-4.072,0Zm5.562-5.947h-1.736l1.706-1.859h2.442Z"
          fill="#68695f" />
        <path id="Path_358" data-name="Path 358"
          d="M185.9,1221.888a9.091,9.091,0,0,1,2.052-5.825h1.4a9.6,9.6,0,0,0-2.1,5.9,8.007,8.007,0,0,0,.414,2.53h-1.288A6.932,6.932,0,0,1,185.9,1221.888Z"
          fill="#ea2024" />
        <path id="Path_359" data-name="Path 359"
          d="M196.434,1219.07a3.6,3.6,0,0,1-3.925,3.673H189.43l.54-2.718h-.855l.2-.973h.855l.523-2.61h2.637C195.273,1216.442,196.434,1217.459,196.434,1219.07Zm-1.477.081c0-.936-.6-1.512-1.791-1.512h-1.251l-.279,1.413H193.2l-.189.973h-1.575l-.306,1.521h1.422A2.264,2.264,0,0,0,194.957,1219.151Z"
          fill="#ea2024" />
        <path id="Path_360" data-name="Path 360"
          d="M203.1,1217.9l-.963,4.843h-1.333l.09-.477a2.158,2.158,0,0,1-1.486.55,2.04,2.04,0,0,1-2.088-2.17,2.692,2.692,0,0,1,2.674-2.818,1.731,1.731,0,0,1,1.575.729l.126-.657Zm-1.837,2.161a1,1,0,0,0-1.108-1.072,1.45,1.45,0,0,0-1.421,1.594,1,1,0,0,0,1.107,1.071A1.45,1.45,0,0,0,201.266,1220.061Zm-1.179,3.88a.655.655,0,0,1-.684.693.54.54,0,0,1-.577-.558.688.688,0,0,1,.685-.675A.545.545,0,0,1,200.087,1223.941Zm-.693-7.824a.685.685,0,0,1,.009-.135h.855a.627.627,0,0,0,.711.639.8.8,0,0,0,.838-.639h.909a1.716,1.716,0,0,1-1.828,1.369C200.032,1217.351,199.394,1216.874,199.394,1216.117Z"
          fill="#ea2024" />
        <path id="Path_361" data-name="Path 361"
          d="M203.973,1220.646a2.8,2.8,0,0,1,2.953-2.818,2.247,2.247,0,0,1,2.179,1.224l-1.189.595a1.1,1.1,0,0,0-1.08-.658,1.461,1.461,0,0,0-1.44,1.585,1.015,1.015,0,0,0,1.125,1.08,1.337,1.337,0,0,0,1.188-.648l1.035.648a2.667,2.667,0,0,1-2.3,1.162A2.19,2.19,0,0,1,203.973,1220.646Z"
          fill="#ea2024" />
        <path id="Path_362" data-name="Path 362"
          d="M218.429,1220a2.7,2.7,0,0,1-2.684,2.818,1.736,1.736,0,0,1-1.62-.793l-.143.72h-1.333l1.333-6.68h1.4l-.45,2.251a2.135,2.135,0,0,1,1.395-.486A2.047,2.047,0,0,1,218.429,1220Zm-1.423.063a1,1,0,0,0-1.107-1.072,1.449,1.449,0,0,0-1.413,1.594,1,1,0,0,0,1.1,1.071A1.45,1.45,0,0,0,217.006,1220.061Z"
          fill="#ea2024" />
        <path id="Path_363" data-name="Path 363"
          d="M220.273,1217.9h1.394l-.963,4.843h-1.395Zm.116-1.405a.855.855,0,0,1,.928-.837.746.746,0,0,1,.828.7.857.857,0,0,1-.937.864A.751.751,0,0,1,220.389,1216.495Z"
          fill="#ea2024" />
        <path id="Path_364" data-name="Path 364"
          d="M227.636,1220.7h-3.709c.045.657.45.99,1.251.99a1.991,1.991,0,0,0,1.3-.45l.585.927a3.211,3.211,0,0,1-2.026.649,2.187,2.187,0,0,1-2.475-2.17,2.732,2.732,0,0,1,2.853-2.818,2.077,2.077,0,0,1,2.3,2.134A3.781,3.781,0,0,1,227.636,1220.7Zm-2.61,3.241a.655.655,0,0,1-.685.693.539.539,0,0,1-.576-.558.687.687,0,0,1,.684-.675A.546.546,0,0,1,225.026,1223.941Zm-.064-6.653h-1.054l1.37-1.3h1.233l1.017,1.3h-1l-.694-.676Zm-.936,2.593h2.4a.965.965,0,0,0-1.081-1A1.329,1.329,0,0,0,224.026,1219.881Z"
          fill="#ea2024" />
        <path id="Path_365" data-name="Path 365"
          d="M230.47,1221.033a.733.733,0,0,0-.019.2c0,.3.162.468.514.468a1.115,1.115,0,0,0,.566-.171l.207,1a2.308,2.308,0,0,1-1.206.288,1.343,1.343,0,0,1-1.512-1.351,2.332,2.332,0,0,1,.045-.423l.387-1.954h-.747l.216-1.08h.747l.235-1.179h1.4l-.235,1.179h1.207l-.216,1.08h-1.206Z"
          fill="#ea2024" />
        <path id="Path_366" data-name="Path 366"
          d="M234.321,1218.593a7.983,7.983,0,0,0-.414-2.53H235.2a6.913,6.913,0,0,1,.486,2.6,9.084,9.084,0,0,1-2.053,5.825h-1.4A9.6,9.6,0,0,0,234.321,1218.593Z"
          fill="#ea2024" />
        <path id="Path_367" data-name="Path 367"
          d="M58.97,1243.748H57.219v2.259H54.791v-2.259H49v-1.675l5.071-6.822h2.612l-4.7,6.469h2.888v-2.013h2.352v2.013H58.97Z"
          fill="#68695f" />
        <path id="Path_368" data-name="Path 368"
          d="M60.707,1244.624a1.491,1.491,0,0,1,2.981,0,1.491,1.491,0,1,1-2.981,0Z" fill="#68695f" />
        <path id="Path_369" data-name="Path 369"
          d="M81.159,1246.007l-.015-6.454-3.165,5.317H76.857l-3.15-5.178v6.315H71.371v-10.756H73.43l4.026,6.684,3.964-6.684h2.044l.03,10.756Z"
          fill="#68695f" />
        <path id="Path_370" data-name="Path 370"
          d="M86.353,1235.251a1.37,1.37,0,0,1,1.49-1.337,1.345,1.345,0,0,1,1.49,1.291,1.5,1.5,0,0,1-2.98.046Zm.292,2.489h2.4v8.267h-2.4Z"
          fill="#68695f" />
        <path id="Path_371" data-name="Path 371"
          d="M100.136,1241.9c0,.185-.031.446-.046.646H93.836a2.205,2.205,0,0,0,2.366,1.659,2.8,2.8,0,0,0,2.075-.8l1.275,1.383a4.331,4.331,0,0,1-3.411,1.337c-2.859,0-4.717-1.8-4.717-4.256a4.209,4.209,0,0,1,4.409-4.257A4.093,4.093,0,0,1,100.136,1241.9Zm-5.67-5.224H92.7l2.044-1.752h2.09l2.044,1.752H97.109l-1.322-.876Zm-.661,4.472h4.072a2.065,2.065,0,0,0-4.072,0Zm5.562-5.947H97.631l1.706-1.859h2.442Z"
          fill="#68695f" />
        <path id="Path_372" data-name="Path 372"
          d="M110.954,1241.275v4.732h-2.4v-4.364c0-1.337-.614-1.951-1.675-1.951-1.152,0-1.982.707-1.982,2.228v4.087h-2.4v-8.267h2.289v.968a3.623,3.623,0,0,1,2.736-1.091C109.479,1237.617,110.954,1238.755,110.954,1241.275Z"
          fill="#68695f" />
        <path id="Path_373" data-name="Path 373"
          d="M127.457,1241.275v4.732h-2.4v-4.364c0-1.337-.614-1.951-1.675-1.951-1.152,0-1.982.707-1.982,2.228v4.087h-2.4v-8.267h2.289v.968a3.622,3.622,0,0,1,2.735-1.091C125.982,1237.617,127.457,1238.755,127.457,1241.275Z"
          fill="#68695f" />
        <path id="Path_374" data-name="Path 374"
          d="M139.012,1237.74v6.884c0,3.073-1.659,4.487-4.64,4.487a6.806,6.806,0,0,1-4.056-1.137l.952-1.721a4.944,4.944,0,0,0,2.92.937c1.69,0,2.427-.768,2.427-2.259v-.353a3.4,3.4,0,0,1-2.612,1.03,4,4,0,1,1,0-7.991,3.32,3.32,0,0,1,2.735,1.183v-1.06Zm-2.366,3.872a2.179,2.179,0,1,0-2.166,2.029A2.008,2.008,0,0,0,136.646,1241.612Z"
          fill="#68695f" />
        <path id="Path_375" data-name="Path 375"
          d="M149.323,1241.29v4.717H147.08v-1.029a2.71,2.71,0,0,1-2.519,1.152c-1.937,0-3.089-1.076-3.089-2.505,0-1.459,1.029-2.473,3.55-2.473h1.9c0-1.03-.614-1.629-1.9-1.629a3.976,3.976,0,0,0-2.382.768l-.861-1.675a6.36,6.36,0,0,1,3.565-1C147.864,1237.617,149.323,1238.785,149.323,1241.29Zm-2.4,2.1v-.845h-1.645c-1.121,0-1.474.415-1.474.968,0,.6.507,1,1.351,1A1.766,1.766,0,0,0,146.927,1243.4Z"
          fill="#68695f" />
        <path id="Path_376" data-name="Path 376"
          d="M160.71,1241.275v4.732h-2.4v-4.364c0-1.337-.615-1.951-1.675-1.951-1.152,0-1.983.707-1.983,2.228v4.087h-2.4v-8.267h2.289v.968a3.622,3.622,0,0,1,2.735-1.091C159.235,1237.617,160.71,1238.755,160.71,1241.275Z"
          fill="#68695f" />
        <path id="Path_377" data-name="Path 377"
          d="M177.766,1241.874a4.015,4.015,0,0,1-4.118,4.256,3.212,3.212,0,0,1-2.6-1.076v.953h-2.289v-11.4h2.4v4.01a3.213,3.213,0,0,1,2.49-1A4.016,4.016,0,0,1,177.766,1241.874Zm-2.428,0a2.112,2.112,0,1,0-2.1,2.289A2.086,2.086,0,0,0,175.338,1241.874Z"
          fill="#68695f" />
        <path id="Path_378" data-name="Path 378"
          d="M187.309,1241.29v4.717h-2.243v-1.029a2.713,2.713,0,0,1-2.52,1.152c-1.936,0-3.089-1.076-3.089-2.505,0-1.459,1.03-2.473,3.55-2.473h1.9c0-1.03-.615-1.629-1.9-1.629a3.979,3.979,0,0,0-2.382.768l-.86-1.675a6.354,6.354,0,0,1,3.564-1C185.85,1237.617,187.309,1238.785,187.309,1241.29Zm-2.4,2.1v-.845h-1.644c-1.121,0-1.475.415-1.475.968,0,.6.507,1,1.352,1A1.765,1.765,0,0,0,184.912,1243.4Zm-.86-6.715h-1.875l2.074-2.213h2.582Z"
          fill="#68695f" />
        <path id="Path_379" data-name="Path 379"
          d="M198.7,1241.275v4.732h-2.4v-4.364c0-1.337-.614-1.951-1.675-1.951-1.152,0-1.982.707-1.982,2.228v4.087h-2.4v-8.267h2.289v.968a3.625,3.625,0,0,1,2.736-1.091C197.22,1237.617,198.7,1238.755,198.7,1241.275Z"
          fill="#68695f" />
        <path id="Path_380" data-name="Path 380"
          d="M210.082,1241.275v4.732h-2.4v-4.364c0-1.337-.614-1.951-1.675-1.951-1.152,0-1.982.707-1.982,2.228v4.087h-2.4v-11.4h2.4v3.995a3.63,3.63,0,0,1,2.627-.984C208.607,1237.617,210.082,1238.755,210.082,1241.275Z"
          fill="#68695f" />
        <path id="Path_381" data-name="Path 381"
          d="M223.466,1245.608a3.43,3.43,0,0,1-1.952.522c-1.951,0-3.088-1-3.088-2.966v-3.395h-1.275v-1.845h1.275v-2.012h2.4v2.012h2.06v1.845h-2.06v3.364a.965.965,0,0,0,1.031,1.092,1.619,1.619,0,0,0,.968-.308Z"
          fill="#68695f" />
        <path id="Path_382" data-name="Path 382"
          d="M233.377,1242.55h-6.254a2.205,2.205,0,0,0,2.366,1.659,2.8,2.8,0,0,0,2.075-.8l1.275,1.383a4.329,4.329,0,0,1-3.411,1.337c-2.858,0-4.717-1.8-4.717-4.256a4.209,4.209,0,0,1,4.409-4.257,4.093,4.093,0,0,1,4.3,4.287C233.423,1242.089,233.392,1242.35,233.377,1242.55Zm-6.285-1.4h4.072a2.065,2.065,0,0,0-4.072,0Zm.846-6.408-.492-.968a2.674,2.674,0,0,1,1.66-.522,1.664,1.664,0,0,1,1.843,1.644,2.063,2.063,0,0,1-1.414,1.936l-.753-.8c.6-.277.785-.584.785-.938a.652.652,0,0,0-.723-.645A1.613,1.613,0,0,0,227.938,1234.744Z"
          fill="#68695f" />
        <path id="Path_383" data-name="Path 383"
          d="M57.249,1265.89c0,1.905-1.4,3.565-4.471,3.565a7.429,7.429,0,0,1-4.1-1.153l.983-1.905a5.178,5.178,0,0,0,3.058.968c1.245,0,2.014-.522,2.014-1.4,0-.846-.554-1.4-2.505-1.4h-2.75l.553-6.054h6.561v2H52.1l-.169,2.044h.876C55.989,1262.556,57.249,1263.985,57.249,1265.89Z"
          fill="#68695f" />
        <path id="Path_384" data-name="Path 384"
          d="M58.955,1267.888a1.491,1.491,0,0,1,2.981,0,1.491,1.491,0,1,1-2.981,0Z" fill="#68695f" />
        <path id="Path_385" data-name="Path 385"
          d="M79.407,1269.271l-.015-6.454-3.165,5.316H75.105l-3.15-5.178v6.316H69.619v-10.756h2.059L75.7,1265.2l3.964-6.683h2.044l.03,10.756Z"
          fill="#68695f" />
        <path id="Path_386" data-name="Path 386"
          d="M84.6,1258.515a1.37,1.37,0,0,1,1.49-1.337,1.345,1.345,0,0,1,1.49,1.29,1.5,1.5,0,0,1-2.98.047Zm.292,2.489h2.4v8.267h-2.4Z"
          fill="#68695f" />
        <path id="Path_387" data-name="Path 387"
          d="M98.385,1265.168c0,.184-.031.445-.046.646H92.085a2.205,2.205,0,0,0,2.366,1.659,2.807,2.807,0,0,0,2.075-.8l1.275,1.383a4.331,4.331,0,0,1-3.411,1.337c-2.859,0-4.718-1.8-4.718-4.257a4.209,4.209,0,0,1,4.41-4.256A4.093,4.093,0,0,1,98.385,1265.168Zm-5.67-5.224H90.947l2.044-1.752h2.09l2.044,1.752H95.358l-1.322-.876Zm-.661,4.471h4.072a2.065,2.065,0,0,0-4.072,0Zm5.562-5.947H95.88l1.706-1.858h2.443Z"
          fill="#68695f" />
        <path id="Path_388" data-name="Path 388"
          d="M109.2,1264.538v4.733h-2.4v-4.365c0-1.336-.614-1.951-1.675-1.951-1.152,0-1.982.707-1.982,2.228v4.088h-2.4V1261h2.289v.968a3.621,3.621,0,0,1,2.736-1.091C107.727,1260.881,109.2,1262.018,109.2,1264.538Z"
          fill="#68695f" />
        <path id="Path_389" data-name="Path 389"
          d="M125.706,1264.538v4.733h-2.4v-4.365c0-1.336-.614-1.951-1.675-1.951-1.152,0-1.982.707-1.982,2.228v4.088h-2.4V1261h2.289v.968a3.619,3.619,0,0,1,2.735-1.091C124.231,1260.881,125.706,1262.018,125.706,1264.538Z"
          fill="#68695f" />
        <path id="Path_390" data-name="Path 390"
          d="M137.261,1261v6.884c0,3.073-1.659,4.486-4.64,4.486a6.807,6.807,0,0,1-4.056-1.137l.952-1.72a4.944,4.944,0,0,0,2.92.936c1.69,0,2.427-.767,2.427-2.258v-.354a3.4,3.4,0,0,1-2.612,1.03,4,4,0,1,1,0-7.99,3.321,3.321,0,0,1,2.736,1.183V1261Zm-2.366,3.872a2.179,2.179,0,1,0-2.166,2.028A2.007,2.007,0,0,0,134.9,1264.876Z"
          fill="#68695f" />
        <path id="Path_391" data-name="Path 391"
          d="M147.571,1264.553v4.718h-2.243v-1.03a2.711,2.711,0,0,1-2.519,1.153c-1.937,0-3.089-1.076-3.089-2.505,0-1.46,1.029-2.474,3.55-2.474h1.9c0-1.03-.614-1.629-1.9-1.629a3.973,3.973,0,0,0-2.382.769l-.86-1.675a6.354,6.354,0,0,1,3.564-1C146.113,1260.881,147.571,1262.049,147.571,1264.553Zm-2.4,2.1v-.844H143.53c-1.121,0-1.474.414-1.474.967,0,.6.507,1,1.351,1A1.766,1.766,0,0,0,145.175,1266.658Z"
          fill="#68695f" />
        <path id="Path_392" data-name="Path 392"
          d="M158.958,1264.538v4.733h-2.4v-4.365c0-1.336-.615-1.951-1.675-1.951-1.152,0-1.982.707-1.982,2.228v4.088h-2.4V1261H152.8v.968a3.619,3.619,0,0,1,2.735-1.091C157.483,1260.881,158.958,1262.018,158.958,1264.538Z"
          fill="#68695f" />
        <path id="Path_393" data-name="Path 393"
          d="M176.553,1260.159h-1.122v9.112h-2.289v-.953a3.183,3.183,0,0,1-2.581,1.076,4.258,4.258,0,0,1,0-8.513,3.176,3.176,0,0,1,2.473,1v-1.721h-2.812v-1.383h2.812v-.907h2.4v.907h1.122Zm-3.473,4.978a2.119,2.119,0,1,0-2.1,2.29A2.094,2.094,0,0,0,173.08,1265.137Z"
          fill="#68695f" />
        <path id="Path_394" data-name="Path 394"
          d="M186.51,1265.168c0,.184-.031.445-.046.646H180.21a2.205,2.205,0,0,0,2.366,1.659,2.807,2.807,0,0,0,2.075-.8l1.275,1.383a4.331,4.331,0,0,1-3.411,1.337c-2.859,0-4.718-1.8-4.718-4.257a4.209,4.209,0,0,1,4.41-4.256A4.093,4.093,0,0,1,186.51,1265.168Zm-5.67-5.224h-1.768l2.044-1.752h2.09l2.044,1.752h-1.767l-1.322-.876Zm-.661,4.471h4.072a2.065,2.065,0,0,0-4.072,0Zm5.562-5.947h-1.736l1.706-1.858h2.443Z"
          fill="#68695f" />
        <path id="Path_395" data-name="Path 395"
          d="M193.4,1268.415a9.086,9.086,0,0,1,2.052-5.824h1.4a9.6,9.6,0,0,0-2.1,5.9,8.007,8.007,0,0,0,.414,2.53h-1.288A6.935,6.935,0,0,1,193.4,1268.415Z"
          fill="#ea2024" />
        <path id="Path_396" data-name="Path 396"
          d="M203.932,1265.6a3.6,3.6,0,0,1-3.925,3.673h-3.079l.54-2.719h-.855l.2-.973h.855l.523-2.61h2.637C202.771,1262.969,203.932,1263.986,203.932,1265.6Zm-1.477.08c0-.936-.6-1.512-1.791-1.512h-1.251l-.279,1.413H200.7l-.189.973h-1.575l-.306,1.521h1.422A2.264,2.264,0,0,0,202.455,1265.678Z"
          fill="#ea2024" />
        <path id="Path_397" data-name="Path 397"
          d="M210.6,1264.427l-.963,4.844H208.3l.09-.478a2.153,2.153,0,0,1-1.486.55,2.04,2.04,0,0,1-2.088-2.17,2.692,2.692,0,0,1,2.674-2.818,1.733,1.733,0,0,1,1.576.729l.125-.657Zm-1.837,2.161a1,1,0,0,0-1.108-1.071,1.449,1.449,0,0,0-1.421,1.593,1,1,0,0,0,1.107,1.071A1.45,1.45,0,0,0,208.764,1266.588Zm-1.179,3.88a.655.655,0,0,1-.684.693.54.54,0,0,1-.577-.558.689.689,0,0,1,.685-.675A.545.545,0,0,1,207.585,1270.468Zm-.693-7.823a.7.7,0,0,1,.009-.136h.855a.627.627,0,0,0,.711.64.8.8,0,0,0,.838-.64h.909a1.716,1.716,0,0,1-1.828,1.369C207.53,1263.878,206.892,1263.4,206.892,1262.645Z"
          fill="#ea2024" />
        <path id="Path_398" data-name="Path 398"
          d="M211.472,1267.173a2.8,2.8,0,0,1,2.953-2.818,2.247,2.247,0,0,1,2.179,1.224l-1.189.595a1.105,1.105,0,0,0-1.08-.657,1.46,1.46,0,0,0-1.44,1.584,1.015,1.015,0,0,0,1.125,1.08,1.337,1.337,0,0,0,1.188-.648l1.035.648a2.667,2.667,0,0,1-2.3,1.162A2.189,2.189,0,0,1,211.472,1267.173Z"
          fill="#ea2024" />
        <path id="Path_399" data-name="Path 399"
          d="M225.928,1266.525a2.7,2.7,0,0,1-2.684,2.818,1.736,1.736,0,0,1-1.62-.793l-.143.721h-1.333l1.333-6.68h1.4l-.45,2.25a2.135,2.135,0,0,1,1.4-.486A2.048,2.048,0,0,1,225.928,1266.525Zm-1.423.063a1,1,0,0,0-1.107-1.071,1.448,1.448,0,0,0-1.413,1.593,1,1,0,0,0,1.1,1.071A1.45,1.45,0,0,0,224.505,1266.588Z"
          fill="#ea2024" />
        <path id="Path_400" data-name="Path 400"
          d="M227.772,1264.427h1.394l-.963,4.844h-1.4Zm.116-1.4a.855.855,0,0,1,.928-.837.745.745,0,0,1,.828.7.857.857,0,0,1-.937.864A.751.751,0,0,1,227.888,1263.023Z"
          fill="#ea2024" />
        <path id="Path_401" data-name="Path 401"
          d="M235.134,1267.227h-3.709c.045.657.45.99,1.251.99a1.991,1.991,0,0,0,1.3-.45l.585.928a3.21,3.21,0,0,1-2.026.648,2.187,2.187,0,0,1-2.475-2.17,2.732,2.732,0,0,1,2.853-2.818,2.078,2.078,0,0,1,2.3,2.133A3.785,3.785,0,0,1,235.134,1267.227Zm-2.61,3.241a.655.655,0,0,1-.685.693.539.539,0,0,1-.576-.558.688.688,0,0,1,.684-.675A.546.546,0,0,1,232.524,1270.468Zm-.064-6.653h-1.054l1.37-1.3h1.233l1.017,1.3h-1l-.694-.675Zm-.936,2.592h2.4a.965.965,0,0,0-1.081-1A1.33,1.33,0,0,0,231.524,1266.407Z"
          fill="#ea2024" />
        <path id="Path_402" data-name="Path 402"
          d="M237.968,1267.56a.732.732,0,0,0-.019.2c0,.3.163.468.514.468a1.116,1.116,0,0,0,.566-.171l.208,1a2.306,2.306,0,0,1-1.207.288,1.343,1.343,0,0,1-1.512-1.351,2.333,2.333,0,0,1,.045-.423l.387-1.954H236.2l.216-1.08h.747l.235-1.179h1.4l-.234,1.179h1.207l-.217,1.08h-1.206Z"
          fill="#ea2024" />
        <path id="Path_403" data-name="Path 403"
          d="M241.82,1265.12a7.975,7.975,0,0,0-.415-2.529h1.288a6.909,6.909,0,0,1,.486,2.6,9.083,9.083,0,0,1-2.053,5.824h-1.4A9.6,9.6,0,0,0,241.82,1265.12Z"
          fill="#ea2024" />
        <path id="Path_404" data-name="Path 404"
          d="M58,1289.139c0,2.2-1.8,3.58-4.072,3.58-2.965,0-4.809-1.859-4.809-5.332,0-3.718,2.243-5.793,5.486-5.793a5.812,5.812,0,0,1,3,.738l-.922,1.828a3.549,3.549,0,0,0-2.013-.538c-1.8,0-2.95,1.061-3.027,3.119a3.635,3.635,0,0,1,2.658-.952A3.412,3.412,0,0,1,58,1289.139Zm-2.412.123a1.622,1.622,0,0,0-1.829-1.613,1.681,1.681,0,0,0-1.858,1.613c0,.922.691,1.6,1.889,1.6A1.608,1.608,0,0,0,55.59,1289.262Z"
          fill="#68695f" />
        <path id="Path_405" data-name="Path 405"
          d="M59.754,1291.152a1.491,1.491,0,0,1,2.981,0,1.491,1.491,0,1,1-2.981,0Z" fill="#68695f" />
        <path id="Path_406" data-name="Path 406"
          d="M80.282,1281.779v10.755H78.239L72.876,1286v6.53H70.418v-10.755h2.059l5.347,6.53v-6.53Z" fill="#68695f" />
        <path id="Path_407" data-name="Path 407"
          d="M91.961,1284.268v6.884c0,3.073-1.659,4.487-4.64,4.487a6.808,6.808,0,0,1-4.056-1.138l.952-1.721a4.938,4.938,0,0,0,2.92.938c1.69,0,2.428-.769,2.428-2.259v-.353a3.406,3.406,0,0,1-2.613,1.029,4,4,0,1,1,0-7.99,3.319,3.319,0,0,1,2.736,1.183v-1.06ZM89.6,1288.14a2.179,2.179,0,1,0-2.166,2.028A2.007,2.007,0,0,0,89.6,1288.14Z"
          fill="#68695f" />
        <path id="Path_408" data-name="Path 408"
          d="M102.272,1287.818v4.716h-2.243v-1.029a2.713,2.713,0,0,1-2.52,1.152c-1.937,0-3.089-1.075-3.089-2.5,0-1.459,1.029-2.474,3.55-2.474h1.9c0-1.029-.615-1.629-1.9-1.629a3.974,3.974,0,0,0-2.382.769l-.86-1.675a6.347,6.347,0,0,1,3.564-1C100.813,1284.145,102.272,1285.313,102.272,1287.818Zm-2.4,2.1v-.845H98.231c-1.121,0-1.475.415-1.475.968,0,.6.507,1,1.352,1A1.766,1.766,0,0,0,99.875,1289.922Z"
          fill="#68695f" />
        <path id="Path_409" data-name="Path 409"
          d="M113.659,1287.8v4.732h-2.4v-4.363c0-1.337-.614-1.952-1.675-1.952-1.152,0-1.982.707-1.982,2.228v4.087h-2.4v-8.266H107.5v.968a3.621,3.621,0,0,1,2.736-1.091C112.184,1284.145,113.659,1285.282,113.659,1287.8Z"
          fill="#68695f" />
        <path id="Path_410" data-name="Path 410"
          d="M127.043,1292.135a3.43,3.43,0,0,1-1.952.522c-1.951,0-3.088-1-3.088-2.965v-3.4h-1.275v-1.844H122v-2.012h2.4v2.012h2.059v1.844H124.4v3.365a.964.964,0,0,0,1.03,1.091,1.618,1.618,0,0,0,.968-.307Z"
          fill="#68695f" />
        <path id="Path_411" data-name="Path 411"
          d="M134.295,1284.145v2.213c-.2-.016-.353-.031-.538-.031a2.031,2.031,0,0,0-2.2,2.3v3.9h-2.4v-8.266h2.289v1.091A3.338,3.338,0,0,1,134.295,1284.145Z"
          fill="#68695f" />
        <path id="Path_412" data-name="Path 412"
          d="M144.884,1288.4a4.55,4.55,0,1,1-4.533-4.257A4.242,4.242,0,0,1,144.884,1288.4Zm-5.9-5.195h-1.752l2.028-2.212h2.12l2.028,2.212h-1.752l-1.336-1.167Zm3.471,5.195a2.119,2.119,0,1,0-2.1,2.289A2.086,2.086,0,0,0,142.455,1288.4Zm-1.075,6.33a1.06,1.06,0,0,1-2.12,0,1.06,1.06,0,1,1,2.12,0Z"
          fill="#68695f" />
        <path id="Path_413" data-name="Path 413"
          d="M155.7,1287.8v4.732h-2.4v-4.363c0-1.337-.614-1.952-1.675-1.952-1.152,0-1.982.707-1.982,2.228v4.087h-2.4v-8.266h2.289v.968a3.621,3.621,0,0,1,2.736-1.091C154.226,1284.145,155.7,1285.282,155.7,1287.8Z"
          fill="#68695f" />
        <path id="Path_414" data-name="Path 414"
          d="M172.757,1288.4a4.015,4.015,0,0,1-4.118,4.255,3.214,3.214,0,0,1-2.6-1.075v.952h-2.289v-11.4h2.4v4.011a3.211,3.211,0,0,1,2.489-1A4.016,4.016,0,0,1,172.757,1288.4Zm-2.428,0a2.112,2.112,0,1,0-2.1,2.289A2.086,2.086,0,0,0,170.329,1288.4Z"
          fill="#68695f" />
        <path id="Path_415" data-name="Path 415"
          d="M183.452,1284.268v8.266h-2.274v-.983a3.341,3.341,0,0,1-2.565,1.106c-2.076,0-3.535-1.168-3.535-3.718v-4.671h2.4v4.318c0,1.383.615,2,1.675,2,1.106,0,1.9-.707,1.9-2.227v-4.088Zm-3.718-1.061H177.86l2.074-2.212h2.581Z"
          fill="#68695f" />
        <path id="Path_416" data-name="Path 416"
          d="M194.9,1287.8v4.732h-2.4v-4.363c0-1.337-.614-1.952-1.675-1.952-1.152,0-1.982.707-1.982,2.228v4.087h-2.4v-8.266h2.289v.968a3.621,3.621,0,0,1,2.736-1.091C193.425,1284.145,194.9,1285.282,194.9,1287.8Z"
          fill="#68695f" />
        <path id="Path_417" data-name="Path 417"
          d="M57.541,1305.042v1.613l-3.995,9.143h-2.7l3.856-8.728H51.134v1.752H48.921v-3.78Z" fill="#68695f" />
        <path id="Path_418" data-name="Path 418"
          d="M58.587,1314.415a1.491,1.491,0,0,1,2.981,0,1.491,1.491,0,1,1-2.981,0Z" fill="#68695f" />
        <path id="Path_419" data-name="Path 419"
          d="M79.114,1305.042V1315.8H77.071l-5.363-6.53v6.53H69.25v-10.756h2.059l5.347,6.53v-6.53Z" fill="#68695f" />
        <path id="Path_420" data-name="Path 420"
          d="M90.793,1307.531v6.884c0,3.073-1.659,4.488-4.639,4.488a6.81,6.81,0,0,1-4.057-1.138l.952-1.721a4.944,4.944,0,0,0,2.92.938c1.69,0,2.428-.769,2.428-2.259v-.354a3.4,3.4,0,0,1-2.613,1.03,4,4,0,1,1,0-7.991,3.32,3.32,0,0,1,2.736,1.184v-1.061Zm-2.366,3.873a2.179,2.179,0,1,0-2.166,2.028A2.007,2.007,0,0,0,88.427,1311.4Z"
          fill="#68695f" />
        <path id="Path_421" data-name="Path 421"
          d="M101.105,1311.081v4.717H98.862v-1.029a2.713,2.713,0,0,1-2.52,1.152c-1.937,0-3.089-1.075-3.089-2.505,0-1.459,1.029-2.473,3.55-2.473h1.9c0-1.03-.614-1.629-1.9-1.629a3.979,3.979,0,0,0-2.382.768l-.86-1.675a6.354,6.354,0,0,1,3.564-1C99.646,1307.408,101.105,1308.576,101.105,1311.081Zm-2.4,2.1v-.845H97.064c-1.121,0-1.475.415-1.475.968,0,.6.507,1,1.352,1A1.766,1.766,0,0,0,98.708,1313.186Z"
          fill="#68695f" />
        <path id="Path_422" data-name="Path 422"
          d="M112.491,1311.066v4.732h-2.4v-4.363c0-1.337-.614-1.952-1.675-1.952-1.152,0-1.982.707-1.982,2.228v4.087h-2.4v-8.267h2.289v.968a3.625,3.625,0,0,1,2.736-1.091C111.016,1307.408,112.491,1308.546,112.491,1311.066Z"
          fill="#68695f" />
        <path id="Path_423" data-name="Path 423"
          d="M125.875,1315.4a3.431,3.431,0,0,1-1.952.522c-1.951,0-3.088-1-3.088-2.966v-3.395H119.56v-1.844h1.275V1305.7h2.4v2.013h2.059v1.844h-2.059v3.365a.964.964,0,0,0,1.03,1.091,1.619,1.619,0,0,0,.968-.308Z"
          fill="#68695f" />
        <path id="Path_424" data-name="Path 424"
          d="M133.128,1307.408v2.213c-.2-.015-.353-.03-.538-.03a2.031,2.031,0,0,0-2.2,2.305v3.9H128v-8.267h2.289v1.091A3.338,3.338,0,0,1,133.128,1307.408Z"
          fill="#68695f" />
        <path id="Path_425" data-name="Path 425"
          d="M143.716,1311.665a4.55,4.55,0,1,1-4.533-4.257A4.243,4.243,0,0,1,143.716,1311.665Zm-5.9-5.194h-1.752l2.028-2.212h2.12l2.028,2.212h-1.752l-1.336-1.167Zm3.471,5.194a2.119,2.119,0,1,0-2.1,2.289A2.086,2.086,0,0,0,141.287,1311.665Zm-1.075,6.33a1.06,1.06,0,0,1-2.12,0,1.06,1.06,0,1,1,2.12,0Z"
          fill="#68695f" />
        <path id="Path_426" data-name="Path 426"
          d="M154.533,1311.066v4.732h-2.4v-4.363c0-1.337-.614-1.952-1.675-1.952-1.152,0-1.982.707-1.982,2.228v4.087h-2.4v-8.267h2.289v.968a3.625,3.625,0,0,1,2.736-1.091C153.058,1307.408,154.533,1308.546,154.533,1311.066Z"
          fill="#68695f" />
        <path id="Path_427" data-name="Path 427"
          d="M176.553,1311.066v4.732h-2.4v-4.363c0-1.337-.6-1.952-1.567-1.952-1.075,0-1.828.691-1.828,2.167v4.148h-2.4v-4.363c0-1.337-.568-1.952-1.567-1.952-1.06,0-1.813.691-1.813,2.167v4.148h-2.4v-8.267h2.289v.954a3.35,3.35,0,0,1,2.6-1.077,3.089,3.089,0,0,1,2.72,1.353,3.718,3.718,0,0,1,2.981-1.353C175.14,1307.408,176.553,1308.546,176.553,1311.066Z"
          fill="#68695f" />
        <path id="Path_428" data-name="Path 428"
          d="M179.182,1305.042a1.37,1.37,0,0,1,1.49-1.337,1.345,1.345,0,0,1,1.49,1.291,1.5,1.5,0,0,1-2.98.046Zm.292,2.489h2.4v8.267h-2.4Z"
          fill="#68695f" />
        <path id="Path_429" data-name="Path 429"
          d="M192.965,1311.695c0,.185-.031.446-.046.646h-6.254a2.205,2.205,0,0,0,2.366,1.659,2.8,2.8,0,0,0,2.075-.8l1.275,1.383a4.329,4.329,0,0,1-3.411,1.337c-2.858,0-4.718-1.8-4.718-4.256a4.21,4.21,0,0,1,4.41-4.257A4.093,4.093,0,0,1,192.965,1311.695Zm-5.67-5.224h-1.767l2.043-1.751h2.09l2.044,1.751h-1.767l-1.322-.875Zm-.661,4.472h4.072a2.065,2.065,0,0,0-4.072,0ZM192.2,1305H190.46l1.706-1.859h2.443Z"
          fill="#68695f" />
        <path id="Path_430" data-name="Path 430"
          d="M203.782,1311.066v4.732h-2.4v-4.363c0-1.337-.614-1.952-1.675-1.952-1.152,0-1.982.707-1.982,2.228v4.087h-2.4v-8.267h2.289v.968a3.625,3.625,0,0,1,2.736-1.091C202.307,1307.408,203.782,1308.546,203.782,1311.066Z"
          fill="#68695f" />
        <path id="Path_431" data-name="Path 431"
          d="M58.125,1335.943c0,2.028-1.813,3.3-4.548,3.3-2.719,0-4.517-1.275-4.517-3.3a2.734,2.734,0,0,1,1.629-2.536,2.481,2.481,0,0,1-1.245-2.212c0-1.89,1.69-3.074,4.133-3.074,2.474,0,4.164,1.184,4.164,3.074a2.5,2.5,0,0,1-1.26,2.212A2.725,2.725,0,0,1,58.125,1335.943Zm-2.519-.077c0-.953-.785-1.537-2.029-1.537s-2,.584-2,1.537.769,1.552,2,1.552S55.606,1336.819,55.606,1335.866Zm-3.689-4.564c0,.814.646,1.322,1.66,1.322,1.03,0,1.69-.508,1.69-1.322,0-.845-.676-1.352-1.69-1.352S51.917,1330.457,51.917,1331.3Z"
          fill="#68695f" />
        <path id="Path_432" data-name="Path 432" d="M60.108,1337.679a1.49,1.49,0,0,1,2.98,0,1.49,1.49,0,1,1-2.98,0Z"
          fill="#68695f" />
        <path id="Path_433" data-name="Path 433"
          d="M70.1,1333.684a5.922,5.922,0,0,1,10.264-3.657l-1.6,1.475a3.461,3.461,0,0,0-2.7-1.26,3.442,3.442,0,1,0,0,6.884,3.432,3.432,0,0,0,2.7-1.275l1.6,1.474a5.912,5.912,0,0,1-10.264-3.641Z"
          fill="#68695f" />
        <path id="Path_434" data-name="Path 434"
          d="M91.085,1334.329v4.733h-2.4V1334.7c0-1.336-.615-1.952-1.675-1.952-1.152,0-1.983.707-1.983,2.229v4.087h-2.4v-11.4h2.4v3.995a3.637,3.637,0,0,1,2.628-.983C89.61,1330.672,91.085,1331.81,91.085,1334.329Z"
          fill="#68695f" />
        <path id="Path_435" data-name="Path 435"
          d="M101.334,1334.345v4.717H99.091v-1.03a2.712,2.712,0,0,1-2.52,1.153c-1.936,0-3.088-1.075-3.088-2.505,0-1.459,1.029-2.474,3.549-2.474h1.906c0-1.029-.616-1.629-1.906-1.629a3.968,3.968,0,0,0-2.381.769l-.861-1.675a6.355,6.355,0,0,1,3.565-1C99.875,1330.672,101.334,1331.84,101.334,1334.345Zm-2.4,2.1v-.844H97.293c-1.121,0-1.474.415-1.474.967,0,.6.506,1,1.351,1A1.767,1.767,0,0,0,98.938,1336.449Zm-.861-6.714H96.2l2.075-2.212h2.582Z"
          fill="#68695f" />
        <path id="Path_436" data-name="Path 436"
          d="M103.748,1334.929a4.55,4.55,0,1,1,4.548,4.256A4.256,4.256,0,0,1,103.748,1334.929Zm6.653,0a2.119,2.119,0,1,0-2.105,2.289A2.086,2.086,0,0,0,110.4,1334.929Z"
          fill="#68695f" />
        <path id="Path_437" data-name="Path 437"
          d="M128.764,1334.329v4.733h-2.4V1334.7c0-1.336-.614-1.952-1.674-1.952-1.153,0-1.983.707-1.983,2.229v4.087h-2.4V1330.8H122.6v.968a3.621,3.621,0,0,1,2.735-1.091C127.288,1330.672,128.764,1331.81,128.764,1334.329Z"
          fill="#68695f" />
        <path id="Path_438" data-name="Path 438"
          d="M140.319,1330.8v6.884c0,3.073-1.66,4.487-4.64,4.487a6.819,6.819,0,0,1-4.057-1.137l.952-1.721a4.947,4.947,0,0,0,2.92.937c1.691,0,2.428-.768,2.428-2.258v-.354a3.405,3.405,0,0,1-2.612,1.029,4,4,0,1,1,0-7.99,3.319,3.319,0,0,1,2.735,1.184V1330.8Zm-2.367,3.872a2.179,2.179,0,1,0-2.166,2.028A2.007,2.007,0,0,0,137.952,1334.667Z"
          fill="#68695f" />
        <path id="Path_439" data-name="Path 439"
          d="M150.629,1334.345v4.717h-2.243v-1.03a2.712,2.712,0,0,1-2.52,1.153c-1.936,0-3.088-1.075-3.088-2.505,0-1.459,1.029-2.474,3.549-2.474h1.906c0-1.029-.616-1.629-1.906-1.629a3.968,3.968,0,0,0-2.381.769l-.861-1.675a6.355,6.355,0,0,1,3.565-1C149.17,1330.672,150.629,1331.84,150.629,1334.345Zm-2.4,2.1v-.844h-1.645c-1.121,0-1.475.415-1.475.967,0,.6.507,1,1.352,1A1.767,1.767,0,0,0,148.233,1336.449Z"
          fill="#68695f" />
        <path id="Path_440" data-name="Path 440"
          d="M162.016,1334.329v4.733h-2.4V1334.7c0-1.336-.614-1.952-1.674-1.952-1.153,0-1.983.707-1.983,2.229v4.087h-2.4V1330.8h2.289v.968a3.621,3.621,0,0,1,2.735-1.091C160.54,1330.672,162.016,1331.81,162.016,1334.329Z"
          fill="#68695f" />
      </g>
    </g>
    <g id="Group_76" data-name="Group 76" transform="translate(0 -887.455)">
      <g id="Group_75" data-name="Group 75">
        <path id="Path_441" data-name="Path 441"
          d="M489.008,1172.835c0,1.905-1.4,3.565-4.472,3.565a7.428,7.428,0,0,1-4.1-1.153l.983-1.9a5.178,5.178,0,0,0,3.058.968c1.245,0,2.013-.522,2.013-1.4,0-.845-.553-1.4-2.5-1.4h-2.75l.552-6.054h6.562v2h-4.487l-.169,2.044h.876C487.748,1169.5,489.008,1170.93,489.008,1172.835Z"
          fill="#ea2024" />
        <path id="Path_442" data-name="Path 442"
          d="M498.842,1172.835c0,1.905-1.4,3.565-4.472,3.565a7.428,7.428,0,0,1-4.1-1.153l.983-1.9a5.178,5.178,0,0,0,3.058.968c1.245,0,2.013-.522,2.013-1.4,0-.845-.553-1.4-2.5-1.4h-2.75l.552-6.054h6.562v2H493.7l-.169,2.044h.876C497.582,1169.5,498.842,1170.93,498.842,1172.835Z"
          fill="#ea2024" />
        <path id="Path_443" data-name="Path 443"
          d="M500.548,1174.833a1.491,1.491,0,0,1,2.981,0,1.491,1.491,0,1,1-2.981,0Z" fill="#ea2024" />
        <path id="Path_444" data-name="Path 444"
          d="M505.22,1170.838c0-3.55,1.967-5.563,4.609-5.563,2.659,0,4.61,2.013,4.61,5.563s-1.951,5.562-4.61,5.562C507.187,1176.4,505.22,1174.387,505.22,1170.838Zm6.715,0c0-2.444-.862-3.458-2.106-3.458s-2.09,1.014-2.09,3.458.861,3.457,2.09,3.457S511.935,1173.28,511.935,1170.838Z"
          fill="#ea2024" />
        <path id="Path_445" data-name="Path 445"
          d="M516.422,1170.838c0-3.55,1.967-5.563,4.609-5.563,2.659,0,4.61,2.013,4.61,5.563s-1.951,5.562-4.61,5.562C518.389,1176.4,516.422,1174.387,516.422,1170.838Zm6.715,0c0-2.444-.861-3.458-2.106-3.458-1.229,0-2.089,1.014-2.089,3.458s.86,3.457,2.089,3.457C522.276,1174.3,523.137,1173.28,523.137,1170.838Z"
          fill="#ea2024" />
        <path id="Path_446" data-name="Path 446"
          d="M527.624,1170.838c0-3.55,1.967-5.563,4.61-5.563,2.658,0,4.609,2.013,4.609,5.563s-1.951,5.562-4.609,5.562C529.591,1176.4,527.624,1174.387,527.624,1170.838Zm6.715,0c0-2.444-.861-3.458-2.1-3.458s-2.09,1.014-2.09,3.458.86,3.457,2.09,3.457S534.339,1173.28,534.339,1170.838Z"
          fill="#ea2024" />
        <path id="Path_447" data-name="Path 447"
          d="M548.875,1167.1h-1.122v9.112h-2.289v-.953a3.183,3.183,0,0,1-2.581,1.076,4.258,4.258,0,0,1,0-8.513,3.178,3.178,0,0,1,2.474,1V1167.1h-2.813v-1.383h2.813v-.907h2.4v.907h1.122Zm-3.472,4.978a2.12,2.12,0,1,0-2.106,2.29A2.094,2.094,0,0,0,545.4,1172.082Z"
          fill="#ea2024" />
        <path id="Path_448" data-name="Path 448"
          d="M489.008,1196.1c0,1.905-1.4,3.565-4.472,3.565a7.428,7.428,0,0,1-4.1-1.153l.983-1.905a5.184,5.184,0,0,0,3.058.968c1.245,0,2.013-.523,2.013-1.4,0-.845-.553-1.4-2.5-1.4h-2.75l.552-6.055h6.562v2h-4.487l-.169,2.043h.876C487.748,1192.764,489.008,1194.194,489.008,1196.1Z"
          fill="#ea2024" />
        <path id="Path_449" data-name="Path 449"
          d="M490.791,1194.1c0-3.549,1.967-5.562,4.61-5.562s4.609,2.013,4.609,5.562-1.951,5.563-4.609,5.563S490.791,1197.651,490.791,1194.1Zm6.715,0c0-2.443-.861-3.457-2.105-3.457s-2.09,1.014-2.09,3.457.86,3.457,2.09,3.457S497.506,1196.544,497.506,1194.1Z"
          fill="#ea2024" />
        <path id="Path_450" data-name="Path 450" d="M501.716,1198.1a1.49,1.49,0,0,1,2.98,0,1.49,1.49,0,1,1-2.98,0Z"
          fill="#ea2024" />
        <path id="Path_451" data-name="Path 451"
          d="M506.388,1194.1c0-3.549,1.967-5.562,4.609-5.562,2.658,0,4.61,2.013,4.61,5.562s-1.952,5.563-4.61,5.563C508.355,1199.664,506.388,1197.651,506.388,1194.1Zm6.715,0c0-2.443-.862-3.457-2.106-3.457-1.229,0-2.09,1.014-2.09,3.457s.861,3.457,2.09,3.457C512.241,1197.558,513.1,1196.544,513.1,1194.1Z"
          fill="#ea2024" />
        <path id="Path_452" data-name="Path 452"
          d="M517.59,1194.1c0-3.549,1.967-5.562,4.609-5.562,2.659,0,4.61,2.013,4.61,5.562s-1.951,5.563-4.61,5.563C519.557,1199.664,517.59,1197.651,517.59,1194.1Zm6.715,0c0-2.443-.861-3.457-2.106-3.457-1.229,0-2.089,1.014-2.089,3.457s.86,3.457,2.089,3.457C523.444,1197.558,524.3,1196.544,524.3,1194.1Z"
          fill="#ea2024" />
        <path id="Path_453" data-name="Path 453"
          d="M528.792,1194.1c0-3.549,1.967-5.562,4.61-5.562,2.658,0,4.609,2.013,4.609,5.562s-1.951,5.563-4.609,5.563C530.759,1199.664,528.792,1197.651,528.792,1194.1Zm6.715,0c0-2.443-.861-3.457-2.105-3.457s-2.09,1.014-2.09,3.457.86,3.457,2.09,3.457S535.507,1196.544,535.507,1194.1Z"
          fill="#ea2024" />
        <path id="Path_454" data-name="Path 454"
          d="M550.043,1190.367h-1.122v9.112h-2.289v-.952a3.182,3.182,0,0,1-2.581,1.075,4.258,4.258,0,0,1,0-8.512,3.175,3.175,0,0,1,2.474,1v-1.722h-2.813v-1.382h2.813v-.907h2.4v.907h1.122Zm-3.472,4.979a2.12,2.12,0,1,0-2.106,2.289A2.1,2.1,0,0,0,546.571,1195.346Z"
          fill="#ea2024" />
        <path id="Path_455" data-name="Path 455"
          d="M489.3,1211.987v1.614l-3.995,9.142h-2.7l3.856-8.727h-3.564v1.751H480.68v-3.78Z" fill="#ea2024" />
        <path id="Path_456" data-name="Path 456"
          d="M499.042,1219.363c0,1.9-1.4,3.565-4.471,3.565a7.43,7.43,0,0,1-4.1-1.153l.983-1.905a5.178,5.178,0,0,0,3.058.968c1.245,0,2.014-.522,2.014-1.4,0-.846-.554-1.4-2.505-1.4h-2.75l.553-6.055h6.561v2h-4.487l-.169,2.044h.876C497.782,1216.029,499.042,1217.458,499.042,1219.363Z"
          fill="#ea2024" />
        <path id="Path_457" data-name="Path 457"
          d="M500.748,1221.361a1.491,1.491,0,0,1,2.981,0,1.491,1.491,0,1,1-2.981,0Z" fill="#ea2024" />
        <path id="Path_458" data-name="Path 458"
          d="M505.42,1217.365c0-3.549,1.967-5.562,4.609-5.562,2.659,0,4.61,2.013,4.61,5.562s-1.951,5.563-4.61,5.563C507.387,1222.928,505.42,1220.915,505.42,1217.365Zm6.715,0c0-2.443-.861-3.457-2.106-3.457-1.229,0-2.089,1.014-2.089,3.457s.86,3.457,2.089,3.457C511.274,1220.822,512.135,1219.808,512.135,1217.365Z"
          fill="#ea2024" />
        <path id="Path_459" data-name="Path 459"
          d="M516.622,1217.365c0-3.549,1.967-5.562,4.61-5.562,2.658,0,4.609,2.013,4.609,5.562s-1.951,5.563-4.609,5.563C518.589,1222.928,516.622,1220.915,516.622,1217.365Zm6.715,0c0-2.443-.861-3.457-2.1-3.457s-2.09,1.014-2.09,3.457.86,3.457,2.09,3.457S523.337,1219.808,523.337,1217.365Z"
          fill="#ea2024" />
        <path id="Path_460" data-name="Path 460"
          d="M527.823,1217.365c0-3.549,1.967-5.562,4.61-5.562,2.658,0,4.609,2.013,4.609,5.562s-1.951,5.563-4.609,5.563C529.79,1222.928,527.823,1220.915,527.823,1217.365Zm6.715,0c0-2.443-.861-3.457-2.105-3.457s-2.09,1.014-2.09,3.457.86,3.457,2.09,3.457S534.538,1219.808,534.538,1217.365Z"
          fill="#ea2024" />
        <path id="Path_461" data-name="Path 461"
          d="M549.074,1213.632h-1.122v9.111h-2.289v-.952a3.18,3.18,0,0,1-2.581,1.075,4.258,4.258,0,0,1,0-8.512,3.175,3.175,0,0,1,2.474,1v-1.721h-2.813v-1.383h2.813v-.907h2.4v.907h1.122Zm-3.472,4.978a2.12,2.12,0,1,0-2.106,2.29A2.1,2.1,0,0,0,545.6,1218.61Z"
          fill="#ea2024" />
        <path id="Path_462" data-name="Path 462"
          d="M489.008,1242.627c0,1.905-1.4,3.565-4.472,3.565a7.428,7.428,0,0,1-4.1-1.153l.983-1.906a5.178,5.178,0,0,0,3.058.969c1.245,0,2.013-.523,2.013-1.4,0-.845-.553-1.4-2.5-1.4h-2.75l.552-6.054h6.562v2h-4.487l-.169,2.043h.876C487.748,1239.292,489.008,1240.721,489.008,1242.627Z"
          fill="#ea2024" />
        <path id="Path_463" data-name="Path 463"
          d="M490.791,1240.629c0-3.549,1.967-5.562,4.61-5.562s4.609,2.013,4.609,5.562-1.951,5.563-4.609,5.563S490.791,1244.178,490.791,1240.629Zm6.715,0c0-2.443-.861-3.457-2.105-3.457s-2.09,1.014-2.09,3.457.86,3.457,2.09,3.457S497.506,1243.072,497.506,1240.629Z"
          fill="#ea2024" />
        <path id="Path_464" data-name="Path 464" d="M501.716,1244.624a1.49,1.49,0,0,1,2.98,0,1.49,1.49,0,1,1-2.98,0Z"
          fill="#ea2024" />
        <path id="Path_465" data-name="Path 465"
          d="M506.388,1240.629c0-3.549,1.967-5.562,4.609-5.562,2.658,0,4.61,2.013,4.61,5.562s-1.952,5.563-4.61,5.563C508.355,1246.192,506.388,1244.178,506.388,1240.629Zm6.715,0c0-2.443-.862-3.457-2.106-3.457-1.229,0-2.09,1.014-2.09,3.457s.861,3.457,2.09,3.457C512.241,1244.086,513.1,1243.072,513.1,1240.629Z"
          fill="#ea2024" />
        <path id="Path_466" data-name="Path 466"
          d="M517.59,1240.629c0-3.549,1.967-5.562,4.609-5.562,2.659,0,4.61,2.013,4.61,5.562s-1.951,5.563-4.61,5.563C519.557,1246.192,517.59,1244.178,517.59,1240.629Zm6.715,0c0-2.443-.861-3.457-2.106-3.457-1.229,0-2.089,1.014-2.089,3.457s.86,3.457,2.089,3.457C523.444,1244.086,524.3,1243.072,524.3,1240.629Z"
          fill="#ea2024" />
        <path id="Path_467" data-name="Path 467"
          d="M528.792,1240.629c0-3.549,1.967-5.562,4.61-5.562,2.658,0,4.609,2.013,4.609,5.562s-1.951,5.563-4.609,5.563C530.759,1246.192,528.792,1244.178,528.792,1240.629Zm6.715,0c0-2.443-.861-3.457-2.105-3.457s-2.09,1.014-2.09,3.457.86,3.457,2.09,3.457S535.507,1243.072,535.507,1240.629Z"
          fill="#ea2024" />
        <path id="Path_468" data-name="Path 468"
          d="M550.043,1236.9h-1.122v9.112h-2.289v-.953a3.18,3.18,0,0,1-2.581,1.076,4.258,4.258,0,0,1,0-8.513,3.178,3.178,0,0,1,2.474,1V1236.9h-2.813v-1.383h2.813v-.906h2.4v.906h1.122Zm-3.472,4.979a2.12,2.12,0,1,0-2.106,2.289A2.1,2.1,0,0,0,546.571,1241.874Z"
          fill="#ea2024" />
        <path id="Path_469" data-name="Path 469"
          d="M489.3,1258.515v1.613l-3.995,9.143h-2.7l3.856-8.728h-3.564v1.752H480.68v-3.78Z" fill="#ea2024" />
        <path id="Path_470" data-name="Path 470"
          d="M499.042,1265.89c0,1.905-1.4,3.565-4.471,3.565a7.429,7.429,0,0,1-4.1-1.153l.983-1.905a5.178,5.178,0,0,0,3.058.968c1.245,0,2.014-.522,2.014-1.4,0-.846-.554-1.4-2.505-1.4h-2.75l.553-6.054h6.561v2h-4.487l-.169,2.044h.876C497.782,1262.556,499.042,1263.985,499.042,1265.89Z"
          fill="#ea2024" />
        <path id="Path_471" data-name="Path 471"
          d="M500.748,1267.888a1.491,1.491,0,0,1,2.981,0,1.491,1.491,0,1,1-2.981,0Z" fill="#ea2024" />
        <path id="Path_472" data-name="Path 472"
          d="M505.42,1263.893c0-3.55,1.967-5.563,4.609-5.563,2.659,0,4.61,2.013,4.61,5.563s-1.951,5.562-4.61,5.562C507.387,1269.455,505.42,1267.442,505.42,1263.893Zm6.715,0c0-2.444-.861-3.458-2.106-3.458-1.229,0-2.089,1.014-2.089,3.458s.86,3.457,2.089,3.457C511.274,1267.35,512.135,1266.335,512.135,1263.893Z"
          fill="#ea2024" />
        <path id="Path_473" data-name="Path 473"
          d="M516.622,1263.893c0-3.55,1.967-5.563,4.61-5.563,2.658,0,4.609,2.013,4.609,5.563s-1.951,5.562-4.609,5.562C518.589,1269.455,516.622,1267.442,516.622,1263.893Zm6.715,0c0-2.444-.861-3.458-2.1-3.458s-2.09,1.014-2.09,3.458.86,3.457,2.09,3.457S523.337,1266.335,523.337,1263.893Z"
          fill="#ea2024" />
        <path id="Path_474" data-name="Path 474"
          d="M527.823,1263.893c0-3.55,1.967-5.563,4.61-5.563,2.658,0,4.609,2.013,4.609,5.563s-1.951,5.562-4.609,5.562C529.79,1269.455,527.823,1267.442,527.823,1263.893Zm6.715,0c0-2.444-.861-3.458-2.105-3.458s-2.09,1.014-2.09,3.458.86,3.457,2.09,3.457S534.538,1266.335,534.538,1263.893Z"
          fill="#ea2024" />
        <path id="Path_475" data-name="Path 475"
          d="M549.074,1260.159h-1.122v9.112h-2.289v-.953a3.18,3.18,0,0,1-2.581,1.076,4.258,4.258,0,0,1,0-8.513,3.178,3.178,0,0,1,2.474,1v-1.721h-2.813v-1.383h2.813v-.907h2.4v.907h1.122Zm-3.472,4.978a2.12,2.12,0,1,0-2.106,2.29A2.094,2.094,0,0,0,545.6,1265.137Z"
          fill="#ea2024" />
        <path id="Path_476" data-name="Path 476"
          d="M489.008,1289.154c0,1.906-1.4,3.565-4.472,3.565a7.437,7.437,0,0,1-4.1-1.152l.983-1.906a5.178,5.178,0,0,0,3.058.968c1.245,0,2.013-.522,2.013-1.4,0-.845-.553-1.4-2.5-1.4h-2.75l.552-6.054h6.562v2h-4.487l-.169,2.043h.876C487.748,1285.82,489.008,1287.249,489.008,1289.154Z"
          fill="#ea2024" />
        <path id="Path_477" data-name="Path 477"
          d="M498.842,1289.154c0,1.906-1.4,3.565-4.472,3.565a7.436,7.436,0,0,1-4.1-1.152l.983-1.906a5.178,5.178,0,0,0,3.058.968c1.245,0,2.013-.522,2.013-1.4,0-.845-.553-1.4-2.5-1.4h-2.75l.552-6.054h6.562v2H493.7l-.169,2.043h.876C497.582,1285.82,498.842,1287.249,498.842,1289.154Z"
          fill="#ea2024" />
        <path id="Path_478" data-name="Path 478"
          d="M500.548,1291.152a1.491,1.491,0,0,1,2.981,0,1.491,1.491,0,1,1-2.981,0Z" fill="#ea2024" />
        <path id="Path_479" data-name="Path 479"
          d="M505.22,1287.156c0-3.548,1.967-5.562,4.609-5.562,2.659,0,4.61,2.014,4.61,5.562s-1.951,5.563-4.61,5.563C507.187,1292.719,505.22,1290.706,505.22,1287.156Zm6.715,0c0-2.443-.862-3.457-2.106-3.457s-2.09,1.014-2.09,3.457.861,3.457,2.09,3.457S511.935,1289.6,511.935,1287.156Z"
          fill="#ea2024" />
        <path id="Path_480" data-name="Path 480"
          d="M516.422,1287.156c0-3.548,1.967-5.562,4.609-5.562,2.659,0,4.61,2.014,4.61,5.562s-1.951,5.563-4.61,5.563C518.389,1292.719,516.422,1290.706,516.422,1287.156Zm6.715,0c0-2.443-.861-3.457-2.106-3.457-1.229,0-2.089,1.014-2.089,3.457s.86,3.457,2.089,3.457C522.276,1290.613,523.137,1289.6,523.137,1287.156Z"
          fill="#ea2024" />
        <path id="Path_481" data-name="Path 481"
          d="M527.624,1287.156c0-3.548,1.967-5.562,4.61-5.562,2.658,0,4.609,2.014,4.609,5.562s-1.951,5.563-4.609,5.563C529.591,1292.719,527.624,1290.706,527.624,1287.156Zm6.715,0c0-2.443-.861-3.457-2.1-3.457s-2.09,1.014-2.09,3.457.86,3.457,2.09,3.457S534.339,1289.6,534.339,1287.156Z"
          fill="#ea2024" />
        <path id="Path_482" data-name="Path 482"
          d="M548.875,1283.423h-1.122v9.111h-2.289v-.952a3.182,3.182,0,0,1-2.581,1.075,4.258,4.258,0,0,1,0-8.512,3.178,3.178,0,0,1,2.474,1v-1.721h-2.813v-1.383h2.813v-.907h2.4v.907h1.122ZM545.4,1288.4a2.12,2.12,0,1,0-2.106,2.289A2.095,2.095,0,0,0,545.4,1288.4Z"
          fill="#ea2024" />
        <path id="Path_483" data-name="Path 483"
          d="M489.008,1312.418c0,1.905-1.4,3.565-4.472,3.565a7.428,7.428,0,0,1-4.1-1.153l.983-1.9a5.185,5.185,0,0,0,3.058.968c1.245,0,2.013-.523,2.013-1.4,0-.844-.553-1.4-2.5-1.4h-2.75l.552-6.055h6.562v2h-4.487l-.169,2.043h.876C487.748,1309.083,489.008,1310.513,489.008,1312.418Z"
          fill="#ea2024" />
        <path id="Path_484" data-name="Path 484"
          d="M498.842,1312.418c0,1.905-1.4,3.565-4.472,3.565a7.428,7.428,0,0,1-4.1-1.153l.983-1.9a5.185,5.185,0,0,0,3.058.968c1.245,0,2.013-.523,2.013-1.4,0-.844-.553-1.4-2.5-1.4h-2.75l.552-6.055h6.562v2H493.7l-.169,2.043h.876C497.582,1309.083,498.842,1310.513,498.842,1312.418Z"
          fill="#ea2024" />
        <path id="Path_485" data-name="Path 485"
          d="M500.548,1314.415a1.491,1.491,0,0,1,2.981,0,1.491,1.491,0,1,1-2.981,0Z" fill="#ea2024" />
        <path id="Path_486" data-name="Path 486"
          d="M505.22,1310.42c0-3.549,1.967-5.562,4.609-5.562,2.659,0,4.61,2.013,4.61,5.562s-1.951,5.563-4.61,5.563C507.187,1315.983,505.22,1313.97,505.22,1310.42Zm6.715,0c0-2.443-.862-3.457-2.106-3.457s-2.09,1.014-2.09,3.457.861,3.457,2.09,3.457S511.935,1312.863,511.935,1310.42Z"
          fill="#ea2024" />
        <path id="Path_487" data-name="Path 487"
          d="M516.422,1310.42c0-3.549,1.967-5.562,4.609-5.562,2.659,0,4.61,2.013,4.61,5.562s-1.951,5.563-4.61,5.563C518.389,1315.983,516.422,1313.97,516.422,1310.42Zm6.715,0c0-2.443-.861-3.457-2.106-3.457-1.229,0-2.089,1.014-2.089,3.457s.86,3.457,2.089,3.457C522.276,1313.877,523.137,1312.863,523.137,1310.42Z"
          fill="#ea2024" />
        <path id="Path_488" data-name="Path 488"
          d="M527.624,1310.42c0-3.549,1.967-5.562,4.61-5.562,2.658,0,4.609,2.013,4.609,5.562s-1.951,5.563-4.609,5.563C529.591,1315.983,527.624,1313.97,527.624,1310.42Zm6.715,0c0-2.443-.861-3.457-2.1-3.457s-2.09,1.014-2.09,3.457.86,3.457,2.09,3.457S534.339,1312.863,534.339,1310.42Z"
          fill="#ea2024" />
        <path id="Path_489" data-name="Path 489"
          d="M548.875,1306.687h-1.122v9.111h-2.289v-.952a3.182,3.182,0,0,1-2.581,1.075,4.258,4.258,0,0,1,0-8.513,3.182,3.182,0,0,1,2.474,1v-1.72h-2.813V1305.3h2.813v-.907h2.4v.907h1.122Zm-3.472,4.978a2.12,2.12,0,1,0-2.106,2.289A2.1,2.1,0,0,0,545.4,1311.665Z"
          fill="#ea2024" />
        <path id="Path_490" data-name="Path 490"
          d="M489.008,1335.682c0,1.905-1.4,3.564-4.472,3.564a7.435,7.435,0,0,1-4.1-1.152l.983-1.905a5.184,5.184,0,0,0,3.058.967c1.245,0,2.013-.522,2.013-1.4,0-.845-.553-1.4-2.5-1.4h-2.75l.552-6.055h6.562v2h-4.487l-.169,2.043h.876C487.748,1332.347,489.008,1333.777,489.008,1335.682Z"
          fill="#ea2024" />
        <path id="Path_491" data-name="Path 491"
          d="M490.791,1333.684c0-3.549,1.967-5.563,4.61-5.563s4.609,2.014,4.609,5.563-1.951,5.562-4.609,5.562S490.791,1337.234,490.791,1333.684Zm6.715,0c0-2.444-.861-3.457-2.105-3.457s-2.09,1.013-2.09,3.457.86,3.457,2.09,3.457S497.506,1336.127,497.506,1333.684Z"
          fill="#ea2024" />
        <path id="Path_492" data-name="Path 492" d="M501.716,1337.679a1.49,1.49,0,0,1,2.98,0,1.49,1.49,0,1,1-2.98,0Z"
          fill="#ea2024" />
        <path id="Path_493" data-name="Path 493"
          d="M506.388,1333.684c0-3.549,1.967-5.563,4.609-5.563,2.658,0,4.61,2.014,4.61,5.563s-1.952,5.562-4.61,5.562C508.355,1339.246,506.388,1337.234,506.388,1333.684Zm6.715,0c0-2.444-.862-3.457-2.106-3.457-1.229,0-2.09,1.013-2.09,3.457s.861,3.457,2.09,3.457C512.241,1337.141,513.1,1336.127,513.1,1333.684Z"
          fill="#ea2024" />
        <path id="Path_494" data-name="Path 494"
          d="M517.59,1333.684c0-3.549,1.967-5.563,4.609-5.563,2.659,0,4.61,2.014,4.61,5.563s-1.951,5.562-4.61,5.562C519.557,1339.246,517.59,1337.234,517.59,1333.684Zm6.715,0c0-2.444-.861-3.457-2.106-3.457-1.229,0-2.089,1.013-2.089,3.457s.86,3.457,2.089,3.457C523.444,1337.141,524.3,1336.127,524.3,1333.684Z"
          fill="#ea2024" />
        <path id="Path_495" data-name="Path 495"
          d="M528.792,1333.684c0-3.549,1.967-5.563,4.61-5.563,2.658,0,4.609,2.014,4.609,5.563s-1.951,5.562-4.609,5.562C530.759,1339.246,528.792,1337.234,528.792,1333.684Zm6.715,0c0-2.444-.861-3.457-2.105-3.457s-2.09,1.013-2.09,3.457.86,3.457,2.09,3.457S535.507,1336.127,535.507,1333.684Z"
          fill="#ea2024" />
        <path id="Path_496" data-name="Path 496"
          d="M550.043,1329.95h-1.122v9.112h-2.289v-.952a3.185,3.185,0,0,1-2.581,1.075,4.258,4.258,0,0,1,0-8.513,3.178,3.178,0,0,1,2.474,1v-1.721h-2.813v-1.382h2.813v-.908h2.4v.908h1.122Zm-3.472,4.979a2.12,2.12,0,1,0-2.106,2.289A2.095,2.095,0,0,0,546.571,1334.929Z"
          fill="#ea2024" />
      </g>
    </g>
  </g>
</svg>
