<svg xmlns="http://www.w3.org/2000/svg" width="498.52" height="130.963" viewBox="0 0 498.52 130.963">
  <g id="Group_165" data-name="Group 165" transform="translate(-640.552 -96.65)">
    <g id="Group_78" data-name="Group 78" transform="translate(0 -887.455)">
      <g id="Group_77" data-name="Group 77">
        <path id="Path_497" data-name="Path 497" d="M645.316,984.889v10.756h-2.49v-8.759h-2.151v-2Z" fill="#68695f" />
        <path id="Path_498" data-name="Path 498"
          d="M647.882,994.262a1.491,1.491,0,0,1,2.981,0,1.491,1.491,0,1,1-2.981,0Z" fill="#68695f" />
        <path id="Path_499" data-name="Path 499"
          d="M668.41,984.889v10.756h-2.043L661,989.114v6.531h-2.458V984.889H660.6l5.347,6.53v-6.53Z" fill="#68695f" />
        <path id="Path_500" data-name="Path 500"
          d="M680.089,987.378v6.884c0,3.073-1.659,4.487-4.64,4.487a6.815,6.815,0,0,1-4.056-1.137l.952-1.722a4.939,4.939,0,0,0,2.92.938c1.69,0,2.428-.768,2.428-2.259v-.353a3.407,3.407,0,0,1-2.613,1.029,4,4,0,1,1,0-7.99,3.319,3.319,0,0,1,2.736,1.183v-1.06Zm-2.366,3.872a2.179,2.179,0,1,0-2.166,2.029A2.007,2.007,0,0,0,677.723,991.25Z"
          fill="#68695f" />
        <path id="Path_501" data-name="Path 501"
          d="M690.4,990.927v4.718h-2.244v-1.03a2.711,2.711,0,0,1-2.519,1.153c-1.937,0-3.089-1.076-3.089-2.505,0-1.46,1.029-2.474,3.55-2.474H688c0-1.03-.615-1.629-1.9-1.629a3.973,3.973,0,0,0-2.382.769l-.86-1.675a6.354,6.354,0,0,1,3.564-1C688.941,987.255,690.4,988.423,690.4,990.927Zm-2.4,2.1v-.844h-1.644c-1.121,0-1.475.414-1.475.967,0,.6.507,1,1.352,1A1.766,1.766,0,0,0,688,993.032Z"
          fill="#68695f" />
        <path id="Path_502" data-name="Path 502"
          d="M701.786,990.912v4.733h-2.4v-4.364c0-1.337-.614-1.952-1.675-1.952-1.152,0-1.982.707-1.982,2.228v4.088h-2.4v-8.267h2.289v.968a3.621,3.621,0,0,1,2.736-1.091C700.311,987.255,701.786,988.392,701.786,990.912Z"
          fill="#68695f" />
        <path id="Path_503" data-name="Path 503"
          d="M709.224,991.511a4.274,4.274,0,0,1,4.61-4.256,3.8,3.8,0,0,1,3.7,2.1l-1.859,1a2.061,2.061,0,0,0-1.859-1.137,2.293,2.293,0,0,0,0,4.579,2.034,2.034,0,0,0,1.859-1.137l1.859,1.014a3.835,3.835,0,0,1-3.7,2.09A4.274,4.274,0,0,1,709.224,991.511Z"
          fill="#68695f" />
        <path id="Path_504" data-name="Path 504"
          d="M728.078,990.912v4.733h-2.4v-4.364c0-1.337-.614-1.952-1.675-1.952-1.152,0-1.982.707-1.982,2.228v4.088h-2.4v-11.4h2.4v3.995a3.634,3.634,0,0,1,2.628-.983C726.6,987.255,728.078,988.392,728.078,990.912Z"
          fill="#68695f" />
        <path id="Path_505" data-name="Path 505"
          d="M738.326,990.927v4.718h-2.243v-1.03a2.711,2.711,0,0,1-2.519,1.153c-1.937,0-3.089-1.076-3.089-2.505,0-1.46,1.029-2.474,3.55-2.474h1.9c0-1.03-.614-1.629-1.9-1.629a3.971,3.971,0,0,0-2.382.769l-.861-1.675a6.36,6.36,0,0,1,3.565-1C736.867,987.255,738.326,988.423,738.326,990.927Zm-6.56-6.822h1.506a1.345,1.345,0,0,0,2.642,0h1.506a2.879,2.879,0,0,1-5.654,0Zm4.164,8.927v-.844h-1.645c-1.121,0-1.474.414-1.474.967,0,.6.507,1,1.351,1A1.766,1.766,0,0,0,735.93,993.032Zm-.461,4.81a1.06,1.06,0,0,1-2.12,0,1.06,1.06,0,1,1,2.12,0Z"
          fill="#68695f" />
        <path id="Path_506" data-name="Path 506"
          d="M746.595,995.245a3.423,3.423,0,0,1-1.952.523c-1.951,0-3.088-1-3.088-2.966v-3.4h-1.276v-1.844h1.276v-2.013h2.4v2.013h2.06v1.844h-2.06v3.365a.965.965,0,0,0,1.031,1.091,1.613,1.613,0,0,0,.967-.307Z"
          fill="#68695f" />
        <path id="Path_507" data-name="Path 507"
          d="M649.2,1016.88v2.028h-8.129v-1.613l4.15-3.918c.952-.907,1.121-1.46,1.121-1.982,0-.846-.584-1.337-1.721-1.337a2.63,2.63,0,0,0-2.228,1.075l-1.813-1.167a4.994,4.994,0,0,1,4.272-2c2.4,0,3.995,1.229,3.995,3.181,0,1.045-.292,2-1.8,3.4l-2.474,2.335Z"
          fill="#68695f" />
        <path id="Path_508" data-name="Path 508"
          d="M651.078,1017.526a1.491,1.491,0,0,1,2.981,0,1.491,1.491,0,1,1-2.981,0Z" fill="#68695f" />
        <path id="Path_509" data-name="Path 509"
          d="M671.607,1008.153v10.755h-2.043l-5.364-6.53v6.53h-2.458v-10.755H663.8l5.348,6.53v-6.53Z" fill="#68695f" />
        <path id="Path_510" data-name="Path 510"
          d="M683.284,1010.642v6.884c0,3.073-1.659,4.486-4.639,4.486a6.81,6.81,0,0,1-4.057-1.137l.952-1.721a4.94,4.94,0,0,0,2.92.937c1.691,0,2.428-.768,2.428-2.258v-.354a3.4,3.4,0,0,1-2.612,1.03,4,4,0,1,1,0-7.99,3.319,3.319,0,0,1,2.735,1.183v-1.06Zm-2.366,3.872a2.179,2.179,0,1,0-2.166,2.028A2.007,2.007,0,0,0,680.918,1014.514Z"
          fill="#68695f" />
        <path id="Path_511" data-name="Path 511"
          d="M693.6,1014.191v4.717h-2.243v-1.029a2.713,2.713,0,0,1-2.52,1.152c-1.936,0-3.089-1.075-3.089-2.5,0-1.46,1.03-2.474,3.55-2.474h1.9c0-1.03-.614-1.629-1.9-1.629a3.973,3.973,0,0,0-2.382.769l-.86-1.675a6.347,6.347,0,0,1,3.564-1C692.137,1010.519,693.6,1011.687,693.6,1014.191Zm-2.4,2.105v-.845h-1.644c-1.121,0-1.475.415-1.475.968,0,.6.507,1,1.352,1A1.765,1.765,0,0,0,691.2,1016.3Z"
          fill="#68695f" />
        <path id="Path_512" data-name="Path 512"
          d="M704.983,1014.176v4.732h-2.4v-4.363c0-1.337-.614-1.952-1.675-1.952-1.152,0-1.982.707-1.982,2.228v4.087h-2.4v-8.266h2.29v.968a3.618,3.618,0,0,1,2.735-1.091C703.507,1010.519,704.983,1011.656,704.983,1014.176Z"
          fill="#68695f" />
        <path id="Path_513" data-name="Path 513"
          d="M712.419,1014.775a4.274,4.274,0,0,1,4.61-4.256,3.8,3.8,0,0,1,3.7,2.105l-1.86,1a2.06,2.06,0,0,0-1.859-1.137,2.293,2.293,0,0,0,0,4.579,2.034,2.034,0,0,0,1.859-1.138l1.86,1.015a3.837,3.837,0,0,1-3.7,2.089A4.274,4.274,0,0,1,712.419,1014.775Z"
          fill="#68695f" />
        <path id="Path_514" data-name="Path 514"
          d="M731.275,1014.176v4.732h-2.4v-4.363c0-1.337-.614-1.952-1.675-1.952-1.152,0-1.982.707-1.982,2.228v4.087h-2.4v-11.4h2.4v3.995a3.634,3.634,0,0,1,2.628-.983C729.8,1010.519,731.275,1011.656,731.275,1014.176Z"
          fill="#68695f" />
        <path id="Path_515" data-name="Path 515"
          d="M741.523,1014.191v4.717h-2.244v-1.029a2.71,2.71,0,0,1-2.519,1.152c-1.937,0-3.089-1.075-3.089-2.5,0-1.46,1.029-2.474,3.55-2.474h1.9c0-1.03-.615-1.629-1.9-1.629a3.973,3.973,0,0,0-2.382.769l-.86-1.675a6.347,6.347,0,0,1,3.564-1C740.064,1010.519,741.523,1011.687,741.523,1014.191Zm-2.4,2.105v-.845h-1.644c-1.121,0-1.475.415-1.475.968,0,.6.507,1,1.352,1A1.766,1.766,0,0,0,739.126,1016.3Zm-.86-6.715h-1.875l2.074-2.212h2.582Z"
          fill="#68695f" />
        <path id="Path_516" data-name="Path 516"
          d="M752.51,1010.642l-3.733,8.773c-.8,2-1.937,2.6-3.427,2.6a3.664,3.664,0,0,1-2.3-.753l.876-1.7a2.119,2.119,0,0,0,1.352.522c.661,0,1.029-.292,1.352-1.029l.03-.077-3.58-8.328h2.474l2.32,5.608,2.336-5.608Z"
          fill="#68695f" />
        <path id="Path_517" data-name="Path 517"
          d="M764.711,1018.509a3.43,3.43,0,0,1-1.952.522c-1.951,0-3.088-1-3.088-2.965v-3.4H758.4v-1.844h1.275v-2.013h2.4v2.013h2.059v1.844h-2.059v3.365a.964.964,0,0,0,1.03,1.091,1.625,1.625,0,0,0,.968-.307Z"
          fill="#68695f" />
        <path id="Path_518" data-name="Path 518"
          d="M765.956,1014.775a4.55,4.55,0,1,1,4.548,4.256A4.255,4.255,0,0,1,765.956,1014.775Zm6.653,0a2.119,2.119,0,1,0-2.1,2.29A2.086,2.086,0,0,0,772.609,1014.775Zm-2.428-5.839c.6-.277.784-.584.784-.937a.652.652,0,0,0-.723-.646,1.623,1.623,0,0,0-.906.292l-.491-.968a2.674,2.674,0,0,1,1.659-.522,1.665,1.665,0,0,1,1.844,1.644,2.064,2.064,0,0,1-1.414,1.936Z"
          fill="#68695f" />
        <path id="Path_519" data-name="Path 519"
          d="M777.113,1008.153a1.37,1.37,0,0,1,1.49-1.337,1.345,1.345,0,0,1,1.49,1.29,1.5,1.5,0,0,1-2.98.047Zm.291,2.489h2.4v8.266h-2.4Z"
          fill="#68695f" />
        <path id="Path_520" data-name="Path 520"
          d="M649.111,1038.884c0,1.813-1.4,3.473-4.457,3.473a7.392,7.392,0,0,1-4.1-1.153l.969-1.905a5.216,5.216,0,0,0,3.072.968c1.245,0,2.014-.507,2.014-1.383,0-.814-.6-1.321-2.014-1.321h-1.137v-1.644l2.213-2.505H641.09v-2h7.529v1.613l-2.427,2.766A3.055,3.055,0,0,1,649.111,1038.884Z"
          fill="#68695f" />
        <path id="Path_521" data-name="Path 521"
          d="M650.955,1040.79a1.491,1.491,0,0,1,2.981,0,1.491,1.491,0,1,1-2.981,0Z" fill="#68695f" />
        <path id="Path_522" data-name="Path 522"
          d="M671.484,1031.417v10.756h-2.043l-5.364-6.531v6.531h-2.458v-10.756h2.059l5.348,6.53v-6.53Z"
          fill="#68695f" />
        <path id="Path_523" data-name="Path 523"
          d="M683.162,1033.906v6.884c0,3.073-1.659,4.487-4.639,4.487a6.81,6.81,0,0,1-4.057-1.138l.952-1.72a4.946,4.946,0,0,0,2.92.937c1.691,0,2.428-.768,2.428-2.259v-.354a3.4,3.4,0,0,1-2.612,1.03,4,4,0,1,1,0-7.99,3.319,3.319,0,0,1,2.735,1.183v-1.06Zm-2.366,3.872a2.179,2.179,0,1,0-2.166,2.028A2.007,2.007,0,0,0,680.8,1037.778Z"
          fill="#68695f" />
        <path id="Path_524" data-name="Path 524"
          d="M693.473,1037.455v4.718H691.23v-1.03a2.713,2.713,0,0,1-2.52,1.153c-1.936,0-3.089-1.076-3.089-2.505,0-1.46,1.03-2.474,3.55-2.474h1.9c0-1.03-.614-1.629-1.9-1.629a3.973,3.973,0,0,0-2.382.769l-.86-1.675a6.347,6.347,0,0,1,3.564-1C692.014,1033.783,693.473,1034.951,693.473,1037.455Zm-2.4,2.105v-.844h-1.644c-1.121,0-1.475.414-1.475.967,0,.6.507,1,1.352,1A1.765,1.765,0,0,0,691.076,1039.56Z"
          fill="#68695f" />
        <path id="Path_525" data-name="Path 525"
          d="M704.86,1037.44v4.733h-2.4v-4.364c0-1.337-.614-1.952-1.675-1.952-1.152,0-1.982.707-1.982,2.228v4.088h-2.4v-8.267H698.7v.968a3.621,3.621,0,0,1,2.736-1.091C703.384,1033.783,704.86,1034.92,704.86,1037.44Z"
          fill="#68695f" />
        <path id="Path_526" data-name="Path 526"
          d="M712.3,1038.039a4.55,4.55,0,1,1,4.548,4.257A4.255,4.255,0,0,1,712.3,1038.039Zm6.652,0a2.119,2.119,0,1,0-2.1,2.29A2.085,2.085,0,0,0,718.95,1038.039Z"
          fill="#68695f" />
        <path id="Path_527" data-name="Path 527"
          d="M737.712,1037.44v4.733h-2.4v-4.364c0-1.337-.6-1.952-1.568-1.952-1.075,0-1.828.692-1.828,2.167v4.149h-2.4v-4.364c0-1.337-.569-1.952-1.568-1.952-1.06,0-1.813.692-1.813,2.167v4.149h-2.4v-8.267h2.289v.953a3.35,3.35,0,0,1,2.6-1.076,3.088,3.088,0,0,1,2.72,1.352,3.717,3.717,0,0,1,2.981-1.352C736.3,1033.783,737.712,1034.92,737.712,1037.44Z"
          fill="#68695f" />
        <path id="Path_528" data-name="Path 528"
          d="M754.277,1033.906v6.884c0,3.073-1.66,4.487-4.64,4.487a6.812,6.812,0,0,1-4.057-1.138l.952-1.72a4.946,4.946,0,0,0,2.92.937c1.691,0,2.428-.768,2.428-2.259v-.354a3.4,3.4,0,0,1-2.612,1.03,4,4,0,1,1,0-7.99,3.319,3.319,0,0,1,2.735,1.183v-1.06Zm-2.367,3.872a2.179,2.179,0,1,0-2.166,2.028A2.007,2.007,0,0,0,751.91,1037.778Z"
          fill="#68695f" />
        <path id="Path_529" data-name="Path 529"
          d="M756.983,1031.417a1.37,1.37,0,0,1,1.49-1.337,1.345,1.345,0,0,1,1.49,1.29,1.5,1.5,0,0,1-2.98.047Zm.292,2.489h2.4v8.267h-2.4Z"
          fill="#68695f" />
        <path id="Path_530" data-name="Path 530"
          d="M770.766,1038.07c0,.184-.031.445-.046.646h-6.254a2.2,2.2,0,0,0,2.366,1.659,2.8,2.8,0,0,0,2.074-.8l1.276,1.383a4.331,4.331,0,0,1-3.411,1.337c-2.859,0-4.717-1.8-4.717-4.257a4.208,4.208,0,0,1,4.409-4.256A4.093,4.093,0,0,1,770.766,1038.07Zm-5.67-5.225h-1.768l2.044-1.751h2.09l2.044,1.751h-1.768l-1.321-.875Zm-.661,4.472h4.072a2.065,2.065,0,0,0-4.072,0Zm4.748-5.947-2.412-1.859h2.443l1.69,1.859Z"
          fill="#68695f" />
        <path id="Path_531" data-name="Path 531"
          d="M781.583,1037.44v4.733h-2.4v-4.364c0-1.337-.615-1.952-1.675-1.952-1.152,0-1.982.707-1.982,2.228v4.088h-2.4v-8.267h2.289v.968a3.619,3.619,0,0,1,2.735-1.091C780.108,1033.783,781.583,1034.92,781.583,1037.44Z"
          fill="#68695f" />
        <path id="Path_532" data-name="Path 532"
          d="M793.138,1033.906v6.884c0,3.073-1.659,4.487-4.64,4.487a6.807,6.807,0,0,1-4.056-1.138l.952-1.72a4.944,4.944,0,0,0,2.92.937c1.69,0,2.427-.768,2.427-2.259v-.354a3.4,3.4,0,0,1-2.612,1.03,4,4,0,1,1,0-7.99,3.317,3.317,0,0,1,2.735,1.183v-1.06Zm-2.366,3.872a2.179,2.179,0,1,0-2.166,2.028A2.007,2.007,0,0,0,790.772,1037.778Z"
          fill="#68695f" />
        <path id="Path_533" data-name="Path 533"
          d="M815.219,1037.44v4.733h-2.4v-4.364c0-1.337-.6-1.952-1.567-1.952-1.075,0-1.828.692-1.828,2.167v4.149h-2.4v-4.364c0-1.337-.568-1.952-1.567-1.952-1.06,0-1.813.692-1.813,2.167v4.149h-2.4v-8.267h2.289v.953a3.349,3.349,0,0,1,2.6-1.076,3.088,3.088,0,0,1,2.72,1.352,3.718,3.718,0,0,1,2.981-1.352C813.806,1033.783,815.219,1034.92,815.219,1037.44Z"
          fill="#68695f" />
        <path id="Path_534" data-name="Path 534"
          d="M826.284,1038.716H820.03a2.206,2.206,0,0,0,2.367,1.659,2.8,2.8,0,0,0,2.074-.8l1.275,1.383a4.329,4.329,0,0,1-3.411,1.337c-2.858,0-4.717-1.8-4.717-4.257a4.208,4.208,0,0,1,4.41-4.256,4.093,4.093,0,0,1,4.3,4.287C826.33,1038.254,826.3,1038.515,826.284,1038.716Zm-6.285-1.4h4.072a2.065,2.065,0,0,0-4.072,0Zm.846-6.408-.492-.967a2.671,2.671,0,0,1,1.66-.523,1.665,1.665,0,0,1,1.844,1.644,2.065,2.065,0,0,1-1.414,1.936l-.753-.8c.6-.276.784-.584.784-.937a.652.652,0,0,0-.723-.645A1.624,1.624,0,0,0,820.845,1030.909Z"
          fill="#68695f" />
        <path id="Path_535" data-name="Path 535"
          d="M833.22,1041.317a9.092,9.092,0,0,1,2.053-5.825h1.4a9.607,9.607,0,0,0-2.1,5.9,8,8,0,0,0,.415,2.53h-1.288A6.912,6.912,0,0,1,833.22,1041.317Z"
          fill="#ea2024" />
        <path id="Path_536" data-name="Path 536"
          d="M843.752,1038.5a3.6,3.6,0,0,1-3.925,3.673h-3.079l.54-2.719h-.854l.2-.972h.856l.522-2.611h2.638C842.591,1035.871,843.752,1036.888,843.752,1038.5Zm-1.475.08c0-.936-.6-1.512-1.792-1.512h-1.251l-.28,1.414h1.567l-.19.972h-1.575l-.306,1.521h1.422A2.266,2.266,0,0,0,842.277,1038.58Z"
          fill="#ea2024" />
        <path id="Path_537" data-name="Path 537"
          d="M850.421,1037.329l-.963,4.844h-1.333l.09-.478a2.153,2.153,0,0,1-1.485.55,2.04,2.04,0,0,1-2.088-2.17,2.692,2.692,0,0,1,2.674-2.818,1.73,1.73,0,0,1,1.575.73l.126-.658Zm-1.837,2.161a1,1,0,0,0-1.107-1.071,1.45,1.45,0,0,0-1.422,1.593,1,1,0,0,0,1.107,1.071A1.45,1.45,0,0,0,848.584,1039.49Zm-1.179,3.88a.654.654,0,0,1-.684.693.539.539,0,0,1-.576-.558.688.688,0,0,1,.684-.675A.544.544,0,0,1,847.405,1043.37Zm-.693-7.823a.693.693,0,0,1,.009-.136h.855a.627.627,0,0,0,.711.639.792.792,0,0,0,.837-.639h.91a1.716,1.716,0,0,1-1.828,1.369C847.351,1036.78,846.712,1036.3,846.712,1035.547Z"
          fill="#ea2024" />
        <path id="Path_538" data-name="Path 538"
          d="M851.292,1040.075a2.8,2.8,0,0,1,2.953-2.818,2.246,2.246,0,0,1,2.179,1.225l-1.188.594a1.106,1.106,0,0,0-1.081-.657,1.461,1.461,0,0,0-1.44,1.584,1.015,1.015,0,0,0,1.125,1.08,1.34,1.34,0,0,0,1.189-.648l1.035.648a2.67,2.67,0,0,1-2.305,1.162A2.189,2.189,0,0,1,851.292,1040.075Z"
          fill="#ea2024" />
        <path id="Path_539" data-name="Path 539"
          d="M865.748,1039.427a2.7,2.7,0,0,1-2.683,2.818,1.733,1.733,0,0,1-1.62-.793l-.144.721h-1.333l1.333-6.681h1.4l-.45,2.251a2.135,2.135,0,0,1,1.4-.486A2.046,2.046,0,0,1,865.748,1039.427Zm-1.423.063a1,1,0,0,0-1.107-1.071,1.449,1.449,0,0,0-1.413,1.593,1,1,0,0,0,1.1,1.071A1.45,1.45,0,0,0,864.325,1039.49Z"
          fill="#ea2024" />
        <path id="Path_540" data-name="Path 540"
          d="M867.591,1037.329h1.4l-.963,4.844h-1.4Zm.116-1.405a.854.854,0,0,1,.928-.836.745.745,0,0,1,.828.7.857.857,0,0,1-.936.864A.751.751,0,0,1,867.707,1035.924Z"
          fill="#ea2024" />
        <path id="Path_541" data-name="Path 541"
          d="M874.954,1040.129h-3.709c.045.657.451.99,1.251.99a1.991,1.991,0,0,0,1.3-.45l.585.927a3.2,3.2,0,0,1-2.025.649,2.188,2.188,0,0,1-2.476-2.17,2.733,2.733,0,0,1,2.854-2.818,2.077,2.077,0,0,1,2.3,2.134A3.778,3.778,0,0,1,874.954,1040.129Zm-2.611,3.241a.654.654,0,0,1-.684.693.539.539,0,0,1-.576-.558.688.688,0,0,1,.684-.675A.545.545,0,0,1,872.343,1043.37Zm-.063-6.653h-1.053l1.369-1.3h1.233l1.017,1.3h-1l-.693-.675Zm-.936,2.593h2.4a.965.965,0,0,0-1.081-1A1.329,1.329,0,0,0,871.344,1039.31Z"
          fill="#ea2024" />
        <path id="Path_542" data-name="Path 542"
          d="M877.788,1040.462a.772.772,0,0,0-.018.2c0,.3.162.468.513.468a1.123,1.123,0,0,0,.567-.171l.207,1a2.3,2.3,0,0,1-1.206.288,1.344,1.344,0,0,1-1.513-1.351,2.427,2.427,0,0,1,.045-.423l.388-1.954h-.747l.215-1.08h.748l.234-1.179h1.4l-.234,1.179H879.6l-.216,1.08h-1.206Z"
          fill="#ea2024" />
        <path id="Path_543" data-name="Path 543"
          d="M881.64,1038.022a8.012,8.012,0,0,0-.414-2.53h1.287a6.917,6.917,0,0,1,.486,2.6,9.084,9.084,0,0,1-2.053,5.825h-1.4A9.6,9.6,0,0,0,881.64,1038.022Z"
          fill="#ea2024" />
        <path id="Path_544" data-name="Path 544"
          d="M651.016,1063.177h-1.751v2.259h-2.428v-2.259h-5.793V1061.5l5.07-6.823h2.613l-4.7,6.469h2.888v-2.013h2.352v2.013h1.751Z"
          fill="#68695f" />
        <path id="Path_545" data-name="Path 545"
          d="M652.753,1064.053a1.491,1.491,0,0,1,2.981,0,1.491,1.491,0,1,1-2.981,0Z" fill="#68695f" />
        <path id="Path_546" data-name="Path 546"
          d="M673.281,1054.68v10.756h-2.043l-5.363-6.53v6.53h-2.458V1054.68h2.059l5.347,6.531v-6.531Z" fill="#68695f" />
        <path id="Path_547" data-name="Path 547"
          d="M684.959,1057.17v6.883c0,3.074-1.659,4.487-4.639,4.487a6.809,6.809,0,0,1-4.057-1.137l.952-1.721a4.938,4.938,0,0,0,2.92.937c1.69,0,2.428-.768,2.428-2.258v-.354a3.4,3.4,0,0,1-2.613,1.03,4,4,0,1,1,0-7.99,3.319,3.319,0,0,1,2.736,1.183v-1.06Zm-2.366,3.872a2.179,2.179,0,1,0-2.166,2.028A2.007,2.007,0,0,0,682.593,1061.042Z"
          fill="#68695f" />
        <path id="Path_548" data-name="Path 548"
          d="M695.271,1060.719v4.717h-2.243v-1.029a2.713,2.713,0,0,1-2.52,1.152c-1.937,0-3.089-1.075-3.089-2.505,0-1.459,1.029-2.473,3.55-2.473h1.905c0-1.03-.615-1.629-1.905-1.629a3.98,3.98,0,0,0-2.382.768l-.86-1.674a6.347,6.347,0,0,1,3.564-1C693.812,1057.047,695.271,1058.215,695.271,1060.719Zm-2.4,2.1v-.845H691.23c-1.121,0-1.475.415-1.475.968,0,.6.507,1,1.352,1A1.766,1.766,0,0,0,692.874,1062.824Z"
          fill="#68695f" />
        <path id="Path_549" data-name="Path 549"
          d="M706.657,1060.7v4.732h-2.4v-4.364c0-1.336-.614-1.951-1.675-1.951-1.152,0-1.982.707-1.982,2.228v4.087h-2.4v-8.266h2.289v.967a3.624,3.624,0,0,1,2.736-1.09C705.182,1057.047,706.657,1058.184,706.657,1060.7Z"
          fill="#68695f" />
        <path id="Path_550" data-name="Path 550"
          d="M714.095,1061.3a4.55,4.55,0,1,1,4.548,4.256A4.255,4.255,0,0,1,714.095,1061.3Zm6.652,0a2.119,2.119,0,1,0-2.1,2.289A2.086,2.086,0,0,0,720.747,1061.3Z"
          fill="#68695f" />
        <path id="Path_551" data-name="Path 551"
          d="M739.51,1060.7v4.732h-2.4v-4.364c0-1.336-.6-1.951-1.567-1.951-1.075,0-1.828.691-1.828,2.166v4.149h-2.4v-4.364c0-1.336-.569-1.951-1.568-1.951-1.06,0-1.813.691-1.813,2.166v4.149h-2.4v-8.266h2.289v.952a3.349,3.349,0,0,1,2.6-1.075,3.085,3.085,0,0,1,2.72,1.352,3.717,3.717,0,0,1,2.981-1.352C738.1,1057.047,739.51,1058.184,739.51,1060.7Z"
          fill="#68695f" />
        <path id="Path_552" data-name="Path 552"
          d="M746.748,1064.668l.8-1.721a5.647,5.647,0,0,0,2.873.8c1.107,0,1.522-.292,1.522-.753,0-1.352-4.995.031-4.995-3.273,0-1.567,1.415-2.673,3.827-2.673a6.8,6.8,0,0,1,3.18.722l-.8,1.7a4.742,4.742,0,0,0-2.381-.614c-1.076,0-1.536.338-1.536.768,0,1.414,4.993.046,4.993,3.3,0,1.536-1.429,2.627-3.9,2.627A7.1,7.1,0,0,1,746.748,1064.668Z"
          fill="#68695f" />
        <path id="Path_553" data-name="Path 553"
          d="M763.788,1060.719v4.717h-2.243v-1.029a2.711,2.711,0,0,1-2.519,1.152c-1.937,0-3.089-1.075-3.089-2.505,0-1.459,1.029-2.473,3.55-2.473h1.905c0-1.03-.615-1.629-1.905-1.629a3.977,3.977,0,0,0-2.382.768l-.861-1.674a6.352,6.352,0,0,1,3.565-1C762.329,1057.047,763.788,1058.215,763.788,1060.719Zm-5.054-4.61h-1.768l2.044-1.751h2.09l2.044,1.751h-1.768l-1.321-.875Zm2.658,6.715v-.845h-1.645c-1.121,0-1.474.415-1.474.968,0,.6.506,1,1.351,1A1.767,1.767,0,0,0,761.392,1062.824Zm2.243-8.19H761.9l1.706-1.859h2.442Z"
          fill="#68695f" />
        <path id="Path_554" data-name="Path 554"
          d="M775.053,1057.17v8.266h-2.274v-.983a3.345,3.345,0,0,1-2.566,1.106c-2.075,0-3.534-1.168-3.534-3.718v-4.671h2.4v4.317c0,1.383.616,2,1.675,2,1.107,0,1.905-.707,1.905-2.228v-4.087Z"
          fill="#68695f" />
        <path id="Path_555" data-name="Path 555"
          d="M797.133,1060.7v4.732h-2.4v-4.364c0-1.336-.6-1.951-1.568-1.951-1.075,0-1.828.691-1.828,2.166v4.149h-2.4v-4.364c0-1.336-.569-1.951-1.568-1.951-1.06,0-1.813.691-1.813,2.166v4.149h-2.4v-8.266h2.289v.952a3.35,3.35,0,0,1,2.6-1.075,3.085,3.085,0,0,1,2.72,1.352,3.717,3.717,0,0,1,2.981-1.352C795.72,1057.047,797.133,1058.184,797.133,1060.7Z"
          fill="#68695f" />
        <path id="Path_556" data-name="Path 556"
          d="M808.2,1061.979h-6.253a2.2,2.2,0,0,0,2.366,1.659,2.8,2.8,0,0,0,2.074-.8l1.275,1.382a4.329,4.329,0,0,1-3.411,1.337c-2.858,0-4.718-1.8-4.718-4.256a4.209,4.209,0,0,1,4.411-4.256,4.092,4.092,0,0,1,4.3,4.287C808.243,1061.518,808.212,1061.779,808.2,1061.979Zm-6.285-1.4h4.073a2.065,2.065,0,0,0-4.073,0Z"
          fill="#68695f" />
        <path id="Path_557" data-name="Path 557"
          d="M815.134,1064.581a9.09,9.09,0,0,1,2.053-5.825h1.4a9.606,9.606,0,0,0-2.1,5.9,8.013,8.013,0,0,0,.415,2.53H815.62A6.916,6.916,0,0,1,815.134,1064.581Z"
          fill="#ea2024" />
        <path id="Path_558" data-name="Path 558"
          d="M825.665,1061.763a3.6,3.6,0,0,1-3.925,3.673h-3.079l.54-2.719h-.854l.2-.972h.856l.522-2.611h2.638C824.5,1059.134,825.665,1060.152,825.665,1061.763Zm-1.476.081c0-.936-.6-1.512-1.791-1.512h-1.251l-.28,1.413h1.567l-.19.972h-1.575l-.306,1.522h1.422A2.265,2.265,0,0,0,824.189,1061.844Z"
          fill="#ea2024" />
        <path id="Path_559" data-name="Path 559"
          d="M832.334,1060.593l-.963,4.843h-1.333l.09-.477a2.154,2.154,0,0,1-1.485.549,2.039,2.039,0,0,1-2.088-2.169,2.692,2.692,0,0,1,2.674-2.818,1.732,1.732,0,0,1,1.575.729l.126-.657Zm-1.837,2.161a1,1,0,0,0-1.107-1.072,1.451,1.451,0,0,0-1.422,1.594,1,1,0,0,0,1.107,1.071A1.45,1.45,0,0,0,830.5,1062.754Zm-1.178,3.879a.655.655,0,0,1-.685.694.539.539,0,0,1-.576-.558.688.688,0,0,1,.684-.676A.546.546,0,0,1,829.319,1066.633Zm-.694-7.823a.683.683,0,0,1,.009-.135h.855a.627.627,0,0,0,.711.639.8.8,0,0,0,.838-.639h.909a1.716,1.716,0,0,1-1.828,1.369C829.264,1060.044,828.625,1059.567,828.625,1058.81Z"
          fill="#ea2024" />
        <path id="Path_560" data-name="Path 560"
          d="M833.205,1063.339a2.8,2.8,0,0,1,2.953-2.818,2.246,2.246,0,0,1,2.179,1.224l-1.188.595a1.1,1.1,0,0,0-1.08-.658,1.461,1.461,0,0,0-1.441,1.585,1.015,1.015,0,0,0,1.125,1.08,1.339,1.339,0,0,0,1.189-.648l1.035.648a2.669,2.669,0,0,1-2.3,1.161A2.189,2.189,0,0,1,833.205,1063.339Z"
          fill="#ea2024" />
        <path id="Path_561" data-name="Path 561"
          d="M847.661,1062.691a2.694,2.694,0,0,1-2.683,2.817,1.735,1.735,0,0,1-1.62-.792l-.144.72h-1.333l1.333-6.68h1.4l-.45,2.251a2.135,2.135,0,0,1,1.4-.486A2.046,2.046,0,0,1,847.661,1062.691Zm-1.423.063a1,1,0,0,0-1.107-1.072,1.449,1.449,0,0,0-1.413,1.594,1,1,0,0,0,1.1,1.071A1.45,1.45,0,0,0,846.238,1062.754Z"
          fill="#ea2024" />
        <path id="Path_562" data-name="Path 562"
          d="M849.505,1060.593h1.4l-.963,4.843h-1.4Zm.116-1.405a.855.855,0,0,1,.928-.837.745.745,0,0,1,.828.7.857.857,0,0,1-.936.865A.752.752,0,0,1,849.621,1059.188Z"
          fill="#ea2024" />
        <path id="Path_563" data-name="Path 563"
          d="M856.867,1063.393h-3.709c.045.657.451.99,1.251.99a1.991,1.991,0,0,0,1.3-.45l.585.927a3.207,3.207,0,0,1-2.025.648,2.187,2.187,0,0,1-2.476-2.169,2.733,2.733,0,0,1,2.854-2.818,2.076,2.076,0,0,1,2.3,2.133A3.784,3.784,0,0,1,856.867,1063.393Zm-2.61,3.24a.655.655,0,0,1-.685.694.539.539,0,0,1-.576-.558.689.689,0,0,1,.685-.676A.546.546,0,0,1,854.257,1066.633Zm-.063-6.652H853.14l1.369-1.3h1.233l1.017,1.3h-1l-.693-.676Zm-.937,2.592h2.4a.964.964,0,0,0-1.081-1A1.328,1.328,0,0,0,853.257,1062.573Z"
          fill="#ea2024" />
        <path id="Path_564" data-name="Path 564"
          d="M859.7,1063.726a.772.772,0,0,0-.018.2c0,.3.162.468.513.468a1.122,1.122,0,0,0,.567-.171l.207,1a2.3,2.3,0,0,1-1.206.288,1.343,1.343,0,0,1-1.513-1.35,2.426,2.426,0,0,1,.045-.423l.388-1.954h-.747l.216-1.08h.747l.234-1.179h1.4l-.234,1.179h1.206l-.216,1.08h-1.206Z"
          fill="#ea2024" />
        <path id="Path_565" data-name="Path 565"
          d="M863.554,1061.286a8.012,8.012,0,0,0-.414-2.53h1.287a6.913,6.913,0,0,1,.486,2.6,9.091,9.091,0,0,1-2.052,5.825h-1.405A9.6,9.6,0,0,0,863.554,1061.286Z"
          fill="#ea2024" />
        <path id="Path_566" data-name="Path 566"
          d="M649.295,1085.32c0,1.905-1.4,3.564-4.472,3.564a7.436,7.436,0,0,1-4.1-1.152l.983-1.906a5.178,5.178,0,0,0,3.058.969c1.245,0,2.014-.523,2.014-1.4,0-.845-.554-1.4-2.505-1.4h-2.75l.552-6.054h6.562v2h-4.487l-.169,2.043h.876C648.035,1081.985,649.295,1083.414,649.295,1085.32Z"
          fill="#68695f" />
        <path id="Path_567" data-name="Path 567" d="M651,1087.317a1.491,1.491,0,0,1,2.981,0,1.491,1.491,0,1,1-2.981,0Z"
          fill="#68695f" />
        <path id="Path_568" data-name="Path 568" d="M661.665,1077.944h2.489v8.728h5.394v2.028h-7.883Z" fill="#68695f" />
        <path id="Path_569" data-name="Path 569"
          d="M678.951,1083.983v4.717h-2.243v-1.029a2.71,2.71,0,0,1-2.519,1.152c-1.937,0-3.089-1.076-3.089-2.505,0-1.459,1.029-2.474,3.55-2.474h1.9c0-1.029-.614-1.628-1.9-1.628a3.977,3.977,0,0,0-2.382.768l-.861-1.675a6.36,6.36,0,0,1,3.565-1C677.492,1080.31,678.951,1081.478,678.951,1083.983Zm-5.054-4.61h-1.768l2.044-1.752h2.09l2.044,1.752h-1.768l-1.321-.876Zm2.658,6.715v-.845H674.91c-1.121,0-1.474.414-1.474.968,0,.6.507,1,1.351,1A1.766,1.766,0,0,0,676.555,1086.088Zm.184-9.373-.4-.738a2.364,2.364,0,0,1,1.275-.338c.861,0,1.414.476,1.414,1.214a1.52,1.52,0,0,1-1.076,1.337l-.584-.569c.415-.2.569-.446.569-.645,0-.277-.215-.446-.523-.446A1.359,1.359,0,0,0,676.739,1076.715Z"
          fill="#68695f" />
        <path id="Path_570" data-name="Path 570"
          d="M690.215,1080.433v8.267h-2.274v-.984a3.342,3.342,0,0,1-2.566,1.107c-2.075,0-3.534-1.168-3.534-3.719v-4.671h2.4v4.318c0,1.383.615,2,1.674,2,1.107,0,1.906-.706,1.906-2.228v-4.087Z"
          fill="#68695f" />
        <path id="Path_571" data-name="Path 571"
          d="M706.78,1083.967v4.733h-2.4v-4.364c0-1.337-.614-1.952-1.675-1.952-1.152,0-1.982.707-1.982,2.228v4.088h-2.4v-8.267h2.289v.968a3.625,3.625,0,0,1,2.736-1.091C705.3,1080.31,706.78,1081.447,706.78,1083.967Z"
          fill="#68695f" />
        <path id="Path_572" data-name="Path 572"
          d="M718.335,1080.433v6.884c0,3.073-1.659,4.487-4.639,4.487a6.809,6.809,0,0,1-4.057-1.137l.952-1.721a4.945,4.945,0,0,0,2.92.937c1.69,0,2.428-.768,2.428-2.259v-.353a3.4,3.4,0,0,1-2.613,1.029,4,4,0,1,1,0-7.99,3.322,3.322,0,0,1,2.736,1.183v-1.06Zm-2.366,3.872a2.179,2.179,0,1,0-2.166,2.029A2.007,2.007,0,0,0,715.969,1084.305Z"
          fill="#68695f" />
        <path id="Path_573" data-name="Path 573"
          d="M728.646,1083.983v4.717H726.4v-1.029a2.713,2.713,0,0,1-2.52,1.152c-1.937,0-3.089-1.076-3.089-2.505,0-1.459,1.029-2.474,3.55-2.474h1.905c0-1.029-.615-1.628-1.905-1.628a3.98,3.98,0,0,0-2.382.768l-.86-1.675a6.354,6.354,0,0,1,3.564-1C727.187,1080.31,728.646,1081.478,728.646,1083.983Zm-2.4,2.1v-.845H724.6c-1.121,0-1.475.414-1.475.968,0,.6.507,1,1.352,1A1.766,1.766,0,0,0,726.249,1086.088Z"
          fill="#68695f" />
        <path id="Path_574" data-name="Path 574"
          d="M740.032,1083.967v4.733h-2.4v-4.364c0-1.337-.614-1.952-1.675-1.952-1.152,0-1.982.707-1.982,2.228v4.088h-2.4v-8.267h2.289v.968a3.625,3.625,0,0,1,2.736-1.091C738.557,1080.31,740.032,1081.447,740.032,1083.967Z"
          fill="#68695f" />
        <path id="Path_575" data-name="Path 575"
          d="M762.052,1083.967v4.733h-2.4v-4.364c0-1.337-.6-1.952-1.567-1.952-1.075,0-1.828.692-1.828,2.167v4.149h-2.4v-4.364c0-1.337-.569-1.952-1.568-1.952-1.06,0-1.813.692-1.813,2.167v4.149h-2.4v-8.267h2.289v.953a3.349,3.349,0,0,1,2.6-1.076,3.088,3.088,0,0,1,2.72,1.352,3.72,3.72,0,0,1,2.981-1.352C760.639,1080.31,762.052,1081.447,762.052,1083.967Z"
          fill="#68695f" />
        <path id="Path_576" data-name="Path 576"
          d="M772.286,1083.983v4.717h-2.243v-1.029a2.71,2.71,0,0,1-2.519,1.152c-1.937,0-3.089-1.076-3.089-2.505,0-1.459,1.029-2.474,3.55-2.474h1.905c0-1.029-.615-1.628-1.905-1.628a3.977,3.977,0,0,0-2.382.768l-.861-1.675a6.36,6.36,0,0,1,3.565-1C770.827,1080.31,772.286,1081.478,772.286,1083.983Zm-6.56-6.823h1.506a1.345,1.345,0,0,0,2.642,0h1.506a2.879,2.879,0,0,1-5.654,0Zm4.164,8.928v-.845h-1.645c-1.121,0-1.474.414-1.474.968,0,.6.507,1,1.351,1A1.767,1.767,0,0,0,769.89,1086.088Z"
          fill="#68695f" />
        <path id="Path_577" data-name="Path 577"
          d="M783.673,1083.967v4.733h-2.4v-4.364c0-1.337-.615-1.952-1.675-1.952-1.153,0-1.983.707-1.983,2.228v4.088h-2.4v-8.267h2.289v.968a3.621,3.621,0,0,1,2.735-1.091C782.2,1080.31,783.673,1081.447,783.673,1083.967Z"
          fill="#68695f" />
        <path id="Path_578" data-name="Path 578"
          d="M795.228,1080.433v6.884c0,3.073-1.659,4.487-4.64,4.487a6.811,6.811,0,0,1-4.057-1.137l.953-1.721a4.945,4.945,0,0,0,2.92.937c1.69,0,2.427-.768,2.427-2.259v-.353a3.4,3.4,0,0,1-2.612,1.029,4,4,0,1,1,0-7.99,3.321,3.321,0,0,1,2.735,1.183v-1.06Zm-2.366,3.872a2.179,2.179,0,1,0-2.166,2.029A2.007,2.007,0,0,0,792.862,1084.305Z"
          fill="#68695f" />
        <path id="Path_579" data-name="Path 579"
          d="M802.728,1084.567a4.274,4.274,0,0,1,4.609-4.257,3.8,3.8,0,0,1,3.7,2.1l-1.859,1a2.063,2.063,0,0,0-1.86-1.137,2.293,2.293,0,0,0,0,4.579,2.034,2.034,0,0,0,1.86-1.137l1.859,1.014a3.836,3.836,0,0,1-3.7,2.09A4.273,4.273,0,0,1,802.728,1084.567Z"
          fill="#68695f" />
        <path id="Path_580" data-name="Path 580"
          d="M820.505,1083.983v4.717h-2.243v-1.029a2.712,2.712,0,0,1-2.52,1.152c-1.936,0-3.088-1.076-3.088-2.505,0-1.459,1.029-2.474,3.549-2.474h1.906c0-1.029-.616-1.628-1.906-1.628a3.98,3.98,0,0,0-2.382.768l-.86-1.675a6.355,6.355,0,0,1,3.565-1C819.046,1080.31,820.505,1081.478,820.505,1083.983Zm-2.4,2.1v-.845h-1.645c-1.121,0-1.475.414-1.475.968,0,.6.507,1,1.352,1A1.767,1.767,0,0,0,818.109,1086.088Z"
          fill="#68695f" />
        <path id="Path_581" data-name="Path 581"
          d="M831.492,1080.433l-3.733,8.774c-.8,2-1.937,2.6-3.427,2.6a3.669,3.669,0,0,1-2.3-.753l.876-1.706a2.12,2.12,0,0,0,1.351.523c.661,0,1.029-.292,1.353-1.03l.03-.077-3.58-8.328h2.473l2.321,5.609,2.336-5.609Z"
          fill="#68695f" />
        <path id="Path_582" data-name="Path 582"
          d="M837.768,1087.844a9.089,9.089,0,0,1,2.053-5.824h1.4a9.6,9.6,0,0,0-2.1,5.9,8,8,0,0,0,.414,2.529h-1.288A6.928,6.928,0,0,1,837.768,1087.844Z"
          fill="#ea2024" />
        <path id="Path_583" data-name="Path 583"
          d="M848.3,1085.027a3.6,3.6,0,0,1-3.925,3.673H841.3l.54-2.719h-.854l.2-.972h.855l.523-2.611H845.2C847.139,1082.4,848.3,1083.415,848.3,1085.027Zm-1.477.081c0-.936-.6-1.513-1.791-1.513h-1.251l-.279,1.414h1.567l-.19.972H843.3L843,1087.5h1.422A2.265,2.265,0,0,0,846.823,1085.108Z"
          fill="#ea2024" />
        <path id="Path_584" data-name="Path 584"
          d="M854.969,1083.857l-.963,4.843h-1.333l.09-.477a2.157,2.157,0,0,1-1.485.549,2.039,2.039,0,0,1-2.088-2.17,2.692,2.692,0,0,1,2.673-2.818,1.731,1.731,0,0,1,1.576.73l.126-.657Zm-1.837,2.16a1,1,0,0,0-1.107-1.071,1.45,1.45,0,0,0-1.422,1.593,1,1,0,0,0,1.107,1.072A1.451,1.451,0,0,0,853.132,1086.017Zm-1.179,3.88a.655.655,0,0,1-.684.694.539.539,0,0,1-.576-.559.688.688,0,0,1,.684-.675A.545.545,0,0,1,851.953,1089.9Zm-.693-7.823a.684.684,0,0,1,.009-.135h.855a.627.627,0,0,0,.711.639.794.794,0,0,0,.838-.639h.909a1.716,1.716,0,0,1-1.828,1.368C851.9,1083.307,851.26,1082.83,851.26,1082.074Z"
          fill="#ea2024" />
        <path id="Path_585" data-name="Path 585"
          d="M855.839,1086.6a2.8,2.8,0,0,1,2.953-2.818,2.248,2.248,0,0,1,2.179,1.225l-1.189.594a1.1,1.1,0,0,0-1.08-.657,1.461,1.461,0,0,0-1.44,1.584,1.016,1.016,0,0,0,1.125,1.081,1.34,1.34,0,0,0,1.188-.648l1.036.648a2.669,2.669,0,0,1-2.3,1.161A2.189,2.189,0,0,1,855.839,1086.6Z"
          fill="#ea2024" />
        <path id="Path_586" data-name="Path 586"
          d="M870.295,1085.954a2.7,2.7,0,0,1-2.683,2.818,1.736,1.736,0,0,1-1.621-.792l-.143.72h-1.333l1.333-6.68h1.4l-.45,2.251a2.135,2.135,0,0,1,1.4-.487A2.048,2.048,0,0,1,870.295,1085.954Zm-1.423.063a1,1,0,0,0-1.107-1.071,1.449,1.449,0,0,0-1.413,1.593,1,1,0,0,0,1.1,1.072A1.45,1.45,0,0,0,868.872,1086.017Z"
          fill="#ea2024" />
        <path id="Path_587" data-name="Path 587"
          d="M872.139,1083.857h1.394l-.962,4.843h-1.4Zm.116-1.405a.855.855,0,0,1,.928-.837.745.745,0,0,1,.828.7.857.857,0,0,1-.937.864A.751.751,0,0,1,872.255,1082.452Z"
          fill="#ea2024" />
        <path id="Path_588" data-name="Path 588"
          d="M879.5,1086.656h-3.709c.045.658.45.991,1.251.991a1.987,1.987,0,0,0,1.3-.451l.585.928a3.209,3.209,0,0,1-2.025.648,2.187,2.187,0,0,1-2.476-2.17,2.733,2.733,0,0,1,2.854-2.818,2.077,2.077,0,0,1,2.3,2.134A3.783,3.783,0,0,1,879.5,1086.656Zm-2.61,3.241a.656.656,0,0,1-.685.694.539.539,0,0,1-.576-.559.688.688,0,0,1,.685-.675A.545.545,0,0,1,876.892,1089.9Zm-.064-6.653h-1.053l1.369-1.3h1.233l1.017,1.3h-1l-.694-.675Zm-.936,2.593h2.4a.965.965,0,0,0-1.081-1A1.328,1.328,0,0,0,875.892,1085.837Z"
          fill="#ea2024" />
        <path id="Path_589" data-name="Path 589"
          d="M882.336,1086.989a.772.772,0,0,0-.018.2c0,.3.162.468.513.468a1.13,1.13,0,0,0,.567-.17l.207,1a2.3,2.3,0,0,1-1.206.288,1.343,1.343,0,0,1-1.513-1.35,2.33,2.33,0,0,1,.045-.424l.388-1.953h-.748l.216-1.08h.747l.235-1.18h1.4l-.234,1.18h1.207l-.217,1.08h-1.206Z"
          fill="#ea2024" />
        <path id="Path_590" data-name="Path 590"
          d="M886.188,1084.549a8.005,8.005,0,0,0-.414-2.529h1.287a6.906,6.906,0,0,1,.486,2.6,9.083,9.083,0,0,1-2.053,5.824h-1.4A9.6,9.6,0,0,0,886.188,1084.549Z"
          fill="#ea2024" />
        <path id="Path_591" data-name="Path 591"
          d="M650.048,1108.568c0,2.2-1.8,3.581-4.072,3.581-2.965,0-4.809-1.86-4.809-5.332,0-3.719,2.243-5.793,5.486-5.793a5.813,5.813,0,0,1,3,.737l-.922,1.829a3.541,3.541,0,0,0-2.013-.538c-1.8,0-2.95,1.06-3.027,3.119a3.631,3.631,0,0,1,2.658-.953A3.412,3.412,0,0,1,650.048,1108.568Zm-2.412.123a1.622,1.622,0,0,0-1.829-1.613,1.682,1.682,0,0,0-1.859,1.613c0,.922.692,1.6,1.89,1.6A1.608,1.608,0,0,0,647.636,1108.691Z"
          fill="#68695f" />
        <path id="Path_592" data-name="Path 592" d="M651.8,1110.581a1.49,1.49,0,0,1,2.98,0,1.49,1.49,0,1,1-2.98,0Z"
          fill="#68695f" />
        <path id="Path_593" data-name="Path 593"
          d="M661.788,1106.586a5.923,5.923,0,0,1,10.264-3.657l-1.6,1.475a3.459,3.459,0,0,0-2.7-1.26,3.442,3.442,0,1,0,0,6.884,3.428,3.428,0,0,0,2.7-1.275l1.6,1.475a5.912,5.912,0,0,1-10.264-3.642Z"
          fill="#68695f" />
        <path id="Path_594" data-name="Path 594"
          d="M682.779,1107.232v4.732h-2.4V1107.6c0-1.337-.614-1.951-1.675-1.951-1.152,0-1.982.707-1.982,2.228v4.087h-2.4v-11.4h2.4v3.995a3.631,3.631,0,0,1,2.628-.984C681.3,1103.574,682.779,1104.712,682.779,1107.232Z"
          fill="#68695f" />
        <path id="Path_595" data-name="Path 595"
          d="M693.027,1107.247v4.717h-2.244v-1.029a2.71,2.71,0,0,1-2.519,1.152c-1.937,0-3.089-1.076-3.089-2.505,0-1.459,1.029-2.473,3.55-2.473h1.905c0-1.03-.615-1.629-1.905-1.629a3.979,3.979,0,0,0-2.382.768l-.86-1.675a6.355,6.355,0,0,1,3.564-1C691.568,1103.574,693.027,1104.742,693.027,1107.247Zm-2.4,2.105v-.845h-1.644c-1.122,0-1.475.415-1.475.968,0,.6.507,1,1.352,1A1.766,1.766,0,0,0,690.63,1109.352Zm-2.474-8.651-.492-.968a2.675,2.675,0,0,1,1.659-.522,1.665,1.665,0,0,1,1.845,1.644,2.063,2.063,0,0,1-1.414,1.936l-.753-.8c.6-.277.783-.584.783-.938a.651.651,0,0,0-.721-.645A1.619,1.619,0,0,0,688.156,1100.7Z"
          fill="#68695f" />
        <path id="Path_596" data-name="Path 596"
          d="M709.53,1107.232v4.732h-2.4V1107.6c0-1.337-.614-1.951-1.675-1.951-1.152,0-1.982.707-1.982,2.228v4.087h-2.4V1103.7h2.289v.968a3.625,3.625,0,0,1,2.736-1.091C708.055,1103.574,709.53,1104.712,709.53,1107.232Z"
          fill="#68695f" />
        <path id="Path_597" data-name="Path 597"
          d="M721.085,1103.7v6.884c0,3.073-1.659,4.487-4.639,4.487a6.81,6.81,0,0,1-4.057-1.137l.952-1.721a4.937,4.937,0,0,0,2.92.937c1.69,0,2.428-.768,2.428-2.259v-.353a3.407,3.407,0,0,1-2.613,1.03,4,4,0,1,1,0-7.991,3.32,3.32,0,0,1,2.736,1.184V1103.7Zm-2.366,3.873a2.179,2.179,0,1,0-2.166,2.028A2.007,2.007,0,0,0,718.719,1107.57Z"
          fill="#68695f" />
        <path id="Path_598" data-name="Path 598"
          d="M731.4,1107.247v4.717h-2.243v-1.029a2.713,2.713,0,0,1-2.52,1.152c-1.937,0-3.089-1.076-3.089-2.505,0-1.459,1.029-2.473,3.55-2.473H729c0-1.03-.614-1.629-1.905-1.629a3.979,3.979,0,0,0-2.382.768l-.86-1.675a6.354,6.354,0,0,1,3.564-1C729.938,1103.574,731.4,1104.742,731.4,1107.247Zm-2.4,2.105v-.845h-1.644c-1.121,0-1.475.415-1.475.968,0,.6.507,1,1.352,1A1.766,1.766,0,0,0,729,1109.352Z"
          fill="#68695f" />
        <path id="Path_599" data-name="Path 599"
          d="M742.783,1107.232v4.732h-2.4V1107.6c0-1.337-.614-1.951-1.675-1.951-1.152,0-1.982.707-1.982,2.228v4.087h-2.4V1103.7h2.289v.968a3.625,3.625,0,0,1,2.736-1.091C741.308,1103.574,742.783,1104.712,742.783,1107.232Z"
          fill="#68695f" />
        <path id="Path_600" data-name="Path 600"
          d="M750.22,1107.831a4.274,4.274,0,0,1,4.61-4.257,3.8,3.8,0,0,1,3.7,2.1l-1.859,1a2.062,2.062,0,0,0-1.859-1.137,2.293,2.293,0,0,0,0,4.579,2.033,2.033,0,0,0,1.859-1.137l1.859,1.014a3.833,3.833,0,0,1-3.7,2.09A4.274,4.274,0,0,1,750.22,1107.831Z"
          fill="#68695f" />
        <path id="Path_601" data-name="Path 601"
          d="M769.074,1107.232v4.732h-2.4V1107.6c0-1.337-.614-1.951-1.675-1.951-1.152,0-1.982.707-1.982,2.228v4.087h-2.4v-11.4h2.4v3.995a3.63,3.63,0,0,1,2.628-.984C767.6,1103.574,769.074,1104.712,769.074,1107.232Z"
          fill="#68695f" />
        <path id="Path_602" data-name="Path 602"
          d="M779.323,1107.247v4.717H777.08v-1.029a2.71,2.71,0,0,1-2.519,1.152c-1.937,0-3.089-1.076-3.089-2.505,0-1.459,1.029-2.473,3.55-2.473h1.905c0-1.03-.615-1.629-1.905-1.629a3.976,3.976,0,0,0-2.382.768l-.861-1.675a6.36,6.36,0,0,1,3.565-1C777.864,1103.574,779.323,1104.742,779.323,1107.247Zm-2.4,2.105v-.845h-1.645c-1.121,0-1.474.415-1.474.968,0,.6.507,1,1.351,1A1.766,1.766,0,0,0,776.927,1109.352Zm-2.474-8.651-.492-.968a2.673,2.673,0,0,1,1.659-.522,1.665,1.665,0,0,1,1.845,1.644,2.065,2.065,0,0,1-1.414,1.936l-.753-.8c.6-.277.783-.584.783-.938a.651.651,0,0,0-.721-.645A1.619,1.619,0,0,0,774.453,1100.7Z"
          fill="#68695f" />
        <path id="Path_603" data-name="Path 603"
          d="M781.738,1107.831a4.55,4.55,0,1,1,4.547,4.256A4.255,4.255,0,0,1,781.738,1107.831Zm6.652,0a2.119,2.119,0,1,0-2.105,2.289A2.086,2.086,0,0,0,788.39,1107.831Z"
          fill="#68695f" />
        <path id="Path_604" data-name="Path 604"
          d="M806.753,1107.232v4.732h-2.4V1107.6c0-1.337-.615-1.951-1.675-1.951-1.152,0-1.983.707-1.983,2.228v4.087h-2.4V1103.7h2.289v.968a3.622,3.622,0,0,1,2.735-1.091C805.278,1103.574,806.753,1104.712,806.753,1107.232Z"
          fill="#68695f" />
        <path id="Path_605" data-name="Path 605"
          d="M809.165,1107.831a4.551,4.551,0,1,1,4.549,4.256A4.256,4.256,0,0,1,809.165,1107.831Zm6.654,0a2.119,2.119,0,1,0-2.1,2.289A2.087,2.087,0,0,0,815.819,1107.831Zm-1.459-7.407h2.581l-2.782,2.213h-1.874Z"
          fill="#68695f" />
        <path id="Path_606" data-name="Path 606"
          d="M829.065,1107.232v4.732h-2.4V1107.6c0-1.337-.614-1.951-1.675-1.951-1.152,0-1.982.707-1.982,2.228v4.087h-2.4V1103.7h2.29v.968a3.621,3.621,0,0,1,2.735-1.091C827.589,1103.574,829.065,1104.712,829.065,1107.232Z"
          fill="#68695f" />
        <path id="Path_607" data-name="Path 607"
          d="M840.619,1103.7v6.884c0,3.073-1.659,4.487-4.639,4.487a6.81,6.81,0,0,1-4.057-1.137l.952-1.721a4.939,4.939,0,0,0,2.92.937c1.691,0,2.428-.768,2.428-2.259v-.353a3.406,3.406,0,0,1-2.612,1.03,4,4,0,1,1,0-7.991,3.319,3.319,0,0,1,2.735,1.184V1103.7Zm-2.366,3.873a2.179,2.179,0,1,0-2.166,2.028A2.007,2.007,0,0,0,838.253,1107.57Z"
          fill="#68695f" />
        <path id="Path_608" data-name="Path 608"
          d="M848.14,1111.109a9.089,9.089,0,0,1,2.053-5.825h1.4a9.6,9.6,0,0,0-2.1,5.9,8.014,8.014,0,0,0,.415,2.53h-1.288A6.917,6.917,0,0,1,848.14,1111.109Z"
          fill="#ea2024" />
        <path id="Path_609" data-name="Path 609"
          d="M858.672,1108.291a3.6,3.6,0,0,1-3.925,3.673h-3.079l.54-2.719h-.854l.2-.972h.855l.523-2.611h2.638C857.511,1105.662,858.672,1106.679,858.672,1108.291Zm-1.476.081c0-.936-.6-1.512-1.792-1.512h-1.25l-.28,1.413h1.567l-.19.972h-1.575l-.306,1.522h1.422A2.266,2.266,0,0,0,857.2,1108.372Z"
          fill="#ea2024" />
        <path id="Path_610" data-name="Path 610"
          d="M865.341,1107.121l-.963,4.843h-1.333l.09-.477a2.157,2.157,0,0,1-1.485.549,2.04,2.04,0,0,1-2.088-2.17,2.691,2.691,0,0,1,2.674-2.817,1.732,1.732,0,0,1,1.575.729l.126-.657Zm-1.837,2.16a1,1,0,0,0-1.107-1.071,1.45,1.45,0,0,0-1.422,1.593,1,1,0,0,0,1.107,1.072A1.451,1.451,0,0,0,863.5,1109.281Zm-1.179,3.88a.654.654,0,0,1-.684.694.539.539,0,0,1-.576-.558.688.688,0,0,1,.684-.676A.545.545,0,0,1,862.325,1113.161Zm-.693-7.823a.683.683,0,0,1,.009-.135h.855a.627.627,0,0,0,.711.639.793.793,0,0,0,.837-.639h.91a1.716,1.716,0,0,1-1.828,1.368C862.271,1106.571,861.632,1106.094,861.632,1105.338Z"
          fill="#ea2024" />
        <path id="Path_611" data-name="Path 611"
          d="M866.212,1109.866a2.8,2.8,0,0,1,2.953-2.817,2.247,2.247,0,0,1,2.179,1.224l-1.189.594a1.1,1.1,0,0,0-1.08-.657,1.461,1.461,0,0,0-1.44,1.585,1.015,1.015,0,0,0,1.125,1.08,1.34,1.34,0,0,0,1.188-.648l1.036.648a2.669,2.669,0,0,1-2.3,1.161A2.189,2.189,0,0,1,866.212,1109.866Z"
          fill="#ea2024" />
        <path id="Path_612" data-name="Path 612"
          d="M880.668,1109.218a2.7,2.7,0,0,1-2.683,2.818,1.737,1.737,0,0,1-1.621-.792l-.143.72h-1.333l1.333-6.68h1.4l-.45,2.251a2.135,2.135,0,0,1,1.4-.486A2.046,2.046,0,0,1,880.668,1109.218Zm-1.423.063a1,1,0,0,0-1.107-1.071,1.449,1.449,0,0,0-1.413,1.593,1,1,0,0,0,1.1,1.072A1.45,1.45,0,0,0,879.245,1109.281Z"
          fill="#ea2024" />
        <path id="Path_613" data-name="Path 613"
          d="M882.511,1107.121h1.394l-.962,4.843h-1.4Zm.116-1.405a.855.855,0,0,1,.928-.837.745.745,0,0,1,.828.7.857.857,0,0,1-.937.864A.751.751,0,0,1,882.627,1105.716Z"
          fill="#ea2024" />
        <path id="Path_614" data-name="Path 614"
          d="M889.874,1109.921h-3.709c.045.657.45.99,1.251.99a1.991,1.991,0,0,0,1.3-.45l.585.927a3.208,3.208,0,0,1-2.025.648,2.187,2.187,0,0,1-2.476-2.17,2.732,2.732,0,0,1,2.854-2.817,2.076,2.076,0,0,1,2.3,2.133A3.8,3.8,0,0,1,889.874,1109.921Zm-2.611,3.24a.655.655,0,0,1-.684.694.539.539,0,0,1-.576-.558.688.688,0,0,1,.684-.676A.545.545,0,0,1,887.263,1113.161Zm-.063-6.653h-1.053l1.369-1.3h1.233l1.017,1.3h-1l-.694-.675Zm-.936,2.593h2.4a.964.964,0,0,0-1.081-1A1.329,1.329,0,0,0,886.264,1109.1Z"
          fill="#ea2024" />
        <path id="Path_615" data-name="Path 615"
          d="M892.708,1110.254a.764.764,0,0,0-.018.2c0,.3.162.468.513.468a1.122,1.122,0,0,0,.567-.171l.207,1a2.3,2.3,0,0,1-1.206.288,1.343,1.343,0,0,1-1.513-1.35,2.428,2.428,0,0,1,.045-.424l.388-1.953h-.747l.215-1.08h.747l.235-1.18h1.4l-.234,1.18h1.206l-.216,1.08h-1.206Z"
          fill="#ea2024" />
        <path id="Path_616" data-name="Path 616"
          d="M896.56,1107.814a8.007,8.007,0,0,0-.414-2.53h1.287a6.912,6.912,0,0,1,.486,2.6,9.086,9.086,0,0,1-2.053,5.825h-1.4A9.6,9.6,0,0,0,896.56,1107.814Z"
          fill="#ea2024" />
      </g>
    </g>
    <g id="Group_80" data-name="Group 80" transform="translate(0 -887.455)">
      <g id="Group_79" data-name="Group 79">
        <path id="Path_617" data-name="Path 617"
          d="M1068.111,993.616v2.029h-8.129v-1.614l4.149-3.918c.952-.906,1.121-1.459,1.121-1.982,0-.845-.584-1.337-1.721-1.337a2.631,2.631,0,0,0-2.228,1.076l-1.813-1.168a5,5,0,0,1,4.272-2c2.4,0,3.995,1.23,3.995,3.181,0,1.045-.292,2-1.8,3.4l-2.473,2.335Z"
          fill="#ea2024" />
        <path id="Path_618" data-name="Path 618"
          d="M1078.036,992.264c0,1.906-1.4,3.565-4.471,3.565a7.429,7.429,0,0,1-4.1-1.153l.984-1.905a5.172,5.172,0,0,0,3.057.968c1.245,0,2.014-.522,2.014-1.4,0-.845-.554-1.4-2.505-1.4h-2.75l.553-6.054h6.561v2h-4.487l-.169,2.044h.876C1076.777,988.93,1078.036,990.359,1078.036,992.264Z"
          fill="#ea2024" />
        <path id="Path_619" data-name="Path 619"
          d="M1079.82,990.267c0-3.55,1.966-5.563,4.609-5.563,2.658,0,4.609,2.013,4.609,5.563s-1.951,5.562-4.609,5.562C1081.786,995.829,1079.82,993.816,1079.82,990.267Zm6.714,0c0-2.444-.861-3.458-2.105-3.458s-2.09,1.014-2.09,3.458.86,3.457,2.09,3.457S1086.534,992.71,1086.534,990.267Z"
          fill="#ea2024" />
        <path id="Path_620" data-name="Path 620"
          d="M1090.745,994.262a1.491,1.491,0,0,1,2.981,0,1.491,1.491,0,1,1-2.981,0Z" fill="#ea2024" />
        <path id="Path_621" data-name="Path 621"
          d="M1095.417,990.267c0-3.55,1.967-5.563,4.61-5.563,2.658,0,4.609,2.013,4.609,5.563s-1.951,5.562-4.609,5.562C1097.384,995.829,1095.417,993.816,1095.417,990.267Zm6.715,0c0-2.444-.861-3.458-2.1-3.458s-2.09,1.014-2.09,3.458.86,3.457,2.09,3.457S1102.132,992.71,1102.132,990.267Z"
          fill="#ea2024" />
        <path id="Path_622" data-name="Path 622"
          d="M1106.619,990.267c0-3.55,1.967-5.563,4.61-5.563,2.658,0,4.609,2.013,4.609,5.563s-1.951,5.562-4.609,5.562C1108.586,995.829,1106.619,993.816,1106.619,990.267Zm6.715,0c0-2.444-.861-3.458-2.1-3.458s-2.09,1.014-2.09,3.458.86,3.457,2.09,3.457S1113.334,992.71,1113.334,990.267Z"
          fill="#ea2024" />
        <path id="Path_623" data-name="Path 623"
          d="M1117.821,990.267c0-3.55,1.966-5.563,4.609-5.563s4.609,2.013,4.609,5.563-1.951,5.562-4.609,5.562S1117.821,993.816,1117.821,990.267Zm6.714,0c0-2.444-.861-3.458-2.1-3.458s-2.09,1.014-2.09,3.458.86,3.457,2.09,3.457S1124.535,992.71,1124.535,990.267Z"
          fill="#ea2024" />
        <path id="Path_624" data-name="Path 624"
          d="M1139.071,986.533h-1.122v9.112h-2.289v-.953a3.18,3.18,0,0,1-2.581,1.076,4.258,4.258,0,0,1,0-8.513,3.178,3.178,0,0,1,2.474,1v-1.721h-2.813V985.15h2.813v-.907h2.4v.907h1.122Zm-3.472,4.978a2.12,2.12,0,1,0-2.106,2.29A2.094,2.094,0,0,0,1135.6,991.511Z"
          fill="#ea2024" />
        <path id="Path_625" data-name="Path 625"
          d="M1068.111,1016.88v2.028h-8.129v-1.613l4.149-3.918c.952-.907,1.121-1.46,1.121-1.982,0-.846-.584-1.337-1.721-1.337a2.631,2.631,0,0,0-2.228,1.075l-1.813-1.167a5,5,0,0,1,4.272-2c2.4,0,3.995,1.229,3.995,3.181,0,1.045-.292,2-1.8,3.4l-2.473,2.335Z"
          fill="#ea2024" />
        <path id="Path_626" data-name="Path 626"
          d="M1078.036,1015.528c0,1.9-1.4,3.565-4.471,3.565a7.429,7.429,0,0,1-4.1-1.153l.984-1.905a5.172,5.172,0,0,0,3.057.968c1.245,0,2.014-.522,2.014-1.4,0-.846-.554-1.4-2.505-1.4h-2.75l.553-6.054h6.561v2h-4.487l-.169,2.044h.876C1076.777,1012.194,1078.036,1013.623,1078.036,1015.528Z"
          fill="#ea2024" />
        <path id="Path_627" data-name="Path 627"
          d="M1079.82,1013.53c0-3.549,1.966-5.562,4.609-5.562,2.658,0,4.609,2.013,4.609,5.562s-1.951,5.563-4.609,5.563C1081.786,1019.093,1079.82,1017.08,1079.82,1013.53Zm6.714,0c0-2.443-.861-3.457-2.105-3.457s-2.09,1.014-2.09,3.457.86,3.457,2.09,3.457S1086.534,1015.973,1086.534,1013.53Z"
          fill="#ea2024" />
        <path id="Path_628" data-name="Path 628"
          d="M1090.745,1017.526a1.491,1.491,0,0,1,2.981,0,1.491,1.491,0,1,1-2.981,0Z" fill="#ea2024" />
        <path id="Path_629" data-name="Path 629"
          d="M1095.417,1013.53c0-3.549,1.967-5.562,4.61-5.562,2.658,0,4.609,2.013,4.609,5.562s-1.951,5.563-4.609,5.563C1097.384,1019.093,1095.417,1017.08,1095.417,1013.53Zm6.715,0c0-2.443-.861-3.457-2.1-3.457s-2.09,1.014-2.09,3.457.86,3.457,2.09,3.457S1102.132,1015.973,1102.132,1013.53Z"
          fill="#ea2024" />
        <path id="Path_630" data-name="Path 630"
          d="M1106.619,1013.53c0-3.549,1.967-5.562,4.61-5.562,2.658,0,4.609,2.013,4.609,5.562s-1.951,5.563-4.609,5.563C1108.586,1019.093,1106.619,1017.08,1106.619,1013.53Zm6.715,0c0-2.443-.861-3.457-2.1-3.457s-2.09,1.014-2.09,3.457.86,3.457,2.09,3.457S1113.334,1015.973,1113.334,1013.53Z"
          fill="#ea2024" />
        <path id="Path_631" data-name="Path 631"
          d="M1117.821,1013.53c0-3.549,1.966-5.562,4.609-5.562s4.609,2.013,4.609,5.562-1.951,5.563-4.609,5.563S1117.821,1017.08,1117.821,1013.53Zm6.714,0c0-2.443-.861-3.457-2.1-3.457s-2.09,1.014-2.09,3.457.86,3.457,2.09,3.457S1124.535,1015.973,1124.535,1013.53Z"
          fill="#ea2024" />
        <path id="Path_632" data-name="Path 632"
          d="M1139.071,1009.8h-1.122v9.111h-2.289v-.952a3.179,3.179,0,0,1-2.581,1.075,4.258,4.258,0,0,1,0-8.512,3.174,3.174,0,0,1,2.474,1V1009.8h-2.813v-1.383h2.813v-.907h2.4v.907h1.122Zm-3.472,4.978a2.12,2.12,0,1,0-2.106,2.29A2.094,2.094,0,0,0,1135.6,1014.775Z"
          fill="#ea2024" />
        <path id="Path_633" data-name="Path 633"
          d="M1072.2,1038.884c0,1.813-1.4,3.473-4.456,3.473a7.391,7.391,0,0,1-4.1-1.153l.969-1.905a5.216,5.216,0,0,0,3.072.968c1.245,0,2.014-.507,2.014-1.383,0-.814-.6-1.321-2.014-1.321h-1.137v-1.644l2.213-2.505h-4.579v-2h7.529v1.613l-2.427,2.766A3.054,3.054,0,0,1,1072.2,1038.884Z"
          fill="#ea2024" />
        <path id="Path_634" data-name="Path 634" d="M1078.268,1031.417v10.756h-2.489v-8.759h-2.152v-2Z"
          fill="#ea2024" />
        <path id="Path_635" data-name="Path 635"
          d="M1089.039,1038.792c0,1.905-1.4,3.565-4.471,3.565a7.429,7.429,0,0,1-4.1-1.153l.983-1.905a5.177,5.177,0,0,0,3.058.968c1.245,0,2.014-.522,2.014-1.4,0-.845-.554-1.4-2.505-1.4h-2.75l.553-6.054h6.561v2h-4.487l-.169,2.044h.876C1087.779,1035.458,1089.039,1036.887,1089.039,1038.792Z"
          fill="#ea2024" />
        <path id="Path_636" data-name="Path 636"
          d="M1090.745,1040.79a1.491,1.491,0,0,1,2.981,0,1.491,1.491,0,1,1-2.981,0Z" fill="#ea2024" />
        <path id="Path_637" data-name="Path 637"
          d="M1095.417,1036.8c0-3.55,1.967-5.563,4.61-5.563,2.658,0,4.609,2.013,4.609,5.563s-1.951,5.562-4.609,5.562C1097.384,1042.357,1095.417,1040.344,1095.417,1036.8Zm6.715,0c0-2.444-.861-3.458-2.1-3.458s-2.09,1.014-2.09,3.458.86,3.457,2.09,3.457S1102.132,1039.237,1102.132,1036.8Z"
          fill="#ea2024" />
        <path id="Path_638" data-name="Path 638"
          d="M1106.619,1036.8c0-3.55,1.967-5.563,4.61-5.563,2.658,0,4.609,2.013,4.609,5.563s-1.951,5.562-4.609,5.562C1108.586,1042.357,1106.619,1040.344,1106.619,1036.8Zm6.715,0c0-2.444-.861-3.458-2.1-3.458s-2.09,1.014-2.09,3.458.86,3.457,2.09,3.457S1113.334,1039.237,1113.334,1036.8Z"
          fill="#ea2024" />
        <path id="Path_639" data-name="Path 639"
          d="M1117.821,1036.8c0-3.55,1.966-5.563,4.609-5.563s4.609,2.013,4.609,5.563-1.951,5.562-4.609,5.562S1117.821,1040.344,1117.821,1036.8Zm6.714,0c0-2.444-.861-3.458-2.1-3.458s-2.09,1.014-2.09,3.458.86,3.457,2.09,3.457S1124.535,1039.237,1124.535,1036.8Z"
          fill="#ea2024" />
        <path id="Path_640" data-name="Path 640"
          d="M1139.071,1033.061h-1.122v9.112h-2.289v-.953a3.18,3.18,0,0,1-2.581,1.076,4.258,4.258,0,0,1,0-8.513,3.178,3.178,0,0,1,2.474,1v-1.721h-2.813v-1.383h2.813v-.907h2.4v.907h1.122Zm-3.472,4.978a2.12,2.12,0,1,0-2.106,2.29A2.094,2.094,0,0,0,1135.6,1038.039Z"
          fill="#ea2024" />
        <path id="Path_641" data-name="Path 641"
          d="M1067.665,1062.148c0,1.813-1.4,3.473-4.456,3.473a7.389,7.389,0,0,1-4.1-1.153l.968-1.905a5.229,5.229,0,0,0,3.073.968c1.245,0,2.013-.507,2.013-1.383,0-.814-.6-1.322-2.013-1.322h-1.137v-1.644l2.213-2.5h-4.579v-2h7.529v1.614l-2.428,2.765A3.056,3.056,0,0,1,1067.665,1062.148Z"
          fill="#ea2024" />
        <path id="Path_642" data-name="Path 642"
          d="M1079.436,1063.177h-1.751v2.259h-2.428v-2.259h-5.793V1061.5l5.07-6.823h2.613l-4.7,6.469h2.888v-2.013h2.352v2.013h1.751Z"
          fill="#ea2024" />
        <path id="Path_643" data-name="Path 643"
          d="M1089.04,1062.056c0,1.905-1.4,3.565-4.471,3.565a7.429,7.429,0,0,1-4.1-1.153l.983-1.905a5.184,5.184,0,0,0,3.058.968c1.245,0,2.014-.523,2.014-1.4,0-.846-.554-1.4-2.505-1.4h-2.75l.553-6.055h6.561v2h-4.487l-.169,2.043h.876C1087.78,1058.721,1089.04,1060.151,1089.04,1062.056Z"
          fill="#ea2024" />
        <path id="Path_644" data-name="Path 644"
          d="M1090.746,1064.053a1.491,1.491,0,0,1,2.981,0,1.491,1.491,0,1,1-2.981,0Z" fill="#ea2024" />
        <path id="Path_645" data-name="Path 645"
          d="M1095.418,1060.058c0-3.549,1.967-5.562,4.61-5.562,2.658,0,4.609,2.013,4.609,5.562s-1.951,5.563-4.609,5.563C1097.385,1065.621,1095.418,1063.608,1095.418,1060.058Zm6.715,0c0-2.443-.861-3.457-2.105-3.457s-2.09,1.014-2.09,3.457.86,3.457,2.09,3.457S1102.133,1062.5,1102.133,1060.058Z"
          fill="#ea2024" />
        <path id="Path_646" data-name="Path 646"
          d="M1106.619,1060.058c0-3.549,1.967-5.562,4.61-5.562,2.658,0,4.609,2.013,4.609,5.562s-1.951,5.563-4.609,5.563C1108.586,1065.621,1106.619,1063.608,1106.619,1060.058Zm6.715,0c0-2.443-.861-3.457-2.1-3.457s-2.09,1.014-2.09,3.457.86,3.457,2.09,3.457S1113.334,1062.5,1113.334,1060.058Z"
          fill="#ea2024" />
        <path id="Path_647" data-name="Path 647"
          d="M1117.821,1060.058c0-3.549,1.967-5.562,4.61-5.562s4.609,2.013,4.609,5.562-1.951,5.563-4.609,5.563S1117.821,1063.608,1117.821,1060.058Zm6.715,0c0-2.443-.861-3.457-2.1-3.457s-2.09,1.014-2.09,3.457.86,3.457,2.09,3.457S1124.536,1062.5,1124.536,1060.058Z"
          fill="#ea2024" />
        <path id="Path_648" data-name="Path 648"
          d="M1139.072,1056.324h-1.122v9.112h-2.289v-.952a3.179,3.179,0,0,1-2.581,1.075,4.258,4.258,0,0,1,0-8.512,3.174,3.174,0,0,1,2.474,1v-1.722h-2.813v-1.382h2.813v-.907h2.4v.907h1.122Zm-3.472,4.979a2.12,2.12,0,1,0-2.106,2.289A2.1,2.1,0,0,0,1135.6,1061.3Z"
          fill="#ea2024" />
        <path id="Path_649" data-name="Path 649"
          d="M1067.665,1085.412c0,1.813-1.4,3.472-4.456,3.472a7.4,7.4,0,0,1-4.1-1.152l.968-1.906a5.222,5.222,0,0,0,3.073.969c1.245,0,2.013-.508,2.013-1.383,0-.815-.6-1.322-2.013-1.322h-1.137v-1.644l2.213-2.5h-4.579v-2h7.529v1.613l-2.428,2.766A3.056,3.056,0,0,1,1067.665,1085.412Z"
          fill="#ea2024" />
        <path id="Path_650" data-name="Path 650"
          d="M1079.436,1086.441h-1.751v2.259h-2.428v-2.259h-5.793v-1.675l5.07-6.822h2.613l-4.7,6.469h2.888V1082.4h2.352v2.013h1.751Z"
          fill="#ea2024" />
        <path id="Path_651" data-name="Path 651"
          d="M1089.04,1085.32c0,1.905-1.4,3.564-4.471,3.564a7.438,7.438,0,0,1-4.1-1.152l.983-1.906a5.178,5.178,0,0,0,3.058.969c1.245,0,2.014-.523,2.014-1.4,0-.845-.554-1.4-2.505-1.4h-2.75l.553-6.054h6.561v2h-4.487l-.169,2.043h.876C1087.78,1081.985,1089.04,1083.414,1089.04,1085.32Z"
          fill="#ea2024" />
        <path id="Path_652" data-name="Path 652"
          d="M1090.746,1087.317a1.491,1.491,0,0,1,2.981,0,1.491,1.491,0,1,1-2.981,0Z" fill="#ea2024" />
        <path id="Path_653" data-name="Path 653"
          d="M1095.418,1083.322c0-3.549,1.967-5.563,4.61-5.563,2.658,0,4.609,2.014,4.609,5.563s-1.951,5.562-4.609,5.562C1097.385,1088.884,1095.418,1086.871,1095.418,1083.322Zm6.715,0c0-2.443-.861-3.458-2.105-3.458s-2.09,1.015-2.09,3.458.86,3.457,2.09,3.457S1102.133,1085.765,1102.133,1083.322Z"
          fill="#ea2024" />
        <path id="Path_654" data-name="Path 654"
          d="M1106.619,1083.322c0-3.549,1.967-5.563,4.61-5.563,2.658,0,4.609,2.014,4.609,5.563s-1.951,5.562-4.609,5.562C1108.586,1088.884,1106.619,1086.871,1106.619,1083.322Zm6.715,0c0-2.443-.861-3.458-2.1-3.458s-2.09,1.015-2.09,3.458.86,3.457,2.09,3.457S1113.334,1085.765,1113.334,1083.322Z"
          fill="#ea2024" />
        <path id="Path_655" data-name="Path 655"
          d="M1117.821,1083.322c0-3.549,1.967-5.563,4.61-5.563s4.609,2.014,4.609,5.563-1.951,5.562-4.609,5.562S1117.821,1086.871,1117.821,1083.322Zm6.715,0c0-2.443-.861-3.458-2.1-3.458s-2.09,1.015-2.09,3.458.86,3.457,2.09,3.457S1124.536,1085.765,1124.536,1083.322Z"
          fill="#ea2024" />
        <path id="Path_656" data-name="Path 656"
          d="M1139.072,1079.588h-1.122v9.112h-2.289v-.953a3.18,3.18,0,0,1-2.581,1.076,4.258,4.258,0,0,1,0-8.513,3.178,3.178,0,0,1,2.474,1v-1.721h-2.813V1078.2h2.813v-.906h2.4v.906h1.122Zm-3.472,4.979a2.12,2.12,0,1,0-2.106,2.289A2.095,2.095,0,0,0,1135.6,1084.567Z"
          fill="#ea2024" />
        <path id="Path_657" data-name="Path 657"
          d="M1067.665,1108.676c0,1.813-1.4,3.473-4.456,3.473a7.389,7.389,0,0,1-4.1-1.153l.968-1.905a5.229,5.229,0,0,0,3.073.968c1.245,0,2.013-.508,2.013-1.383,0-.814-.6-1.322-2.013-1.322h-1.137v-1.644l2.213-2.5h-4.579v-2h7.529v1.613l-2.428,2.766A3.056,3.056,0,0,1,1067.665,1108.676Z"
          fill="#ea2024" />
        <path id="Path_658" data-name="Path 658"
          d="M1079.436,1109.7h-1.751v2.259h-2.428V1109.7h-5.793v-1.675l5.07-6.822h2.613l-4.7,6.469h2.888v-2.013h2.352v2.013h1.751Z"
          fill="#ea2024" />
        <path id="Path_659" data-name="Path 659"
          d="M1089.04,1108.584c0,1.905-1.4,3.565-4.471,3.565a7.429,7.429,0,0,1-4.1-1.153l.983-1.905a5.184,5.184,0,0,0,3.058.968c1.245,0,2.014-.523,2.014-1.4,0-.845-.554-1.4-2.505-1.4h-2.75l.553-6.054h6.561v2h-4.487l-.169,2.043h.876C1087.78,1105.249,1089.04,1106.678,1089.04,1108.584Z"
          fill="#ea2024" />
        <path id="Path_660" data-name="Path 660"
          d="M1090.746,1110.581a1.491,1.491,0,0,1,2.981,0,1.491,1.491,0,1,1-2.981,0Z" fill="#ea2024" />
        <path id="Path_661" data-name="Path 661"
          d="M1095.418,1106.586c0-3.549,1.967-5.562,4.61-5.562,2.658,0,4.609,2.013,4.609,5.562s-1.951,5.563-4.609,5.563C1097.385,1112.149,1095.418,1110.135,1095.418,1106.586Zm6.715,0c0-2.443-.861-3.457-2.105-3.457s-2.09,1.014-2.09,3.457.86,3.457,2.09,3.457S1102.133,1109.029,1102.133,1106.586Z"
          fill="#ea2024" />
        <path id="Path_662" data-name="Path 662"
          d="M1106.619,1106.586c0-3.549,1.967-5.562,4.61-5.562,2.658,0,4.609,2.013,4.609,5.562s-1.951,5.563-4.609,5.563C1108.586,1112.149,1106.619,1110.135,1106.619,1106.586Zm6.715,0c0-2.443-.861-3.457-2.1-3.457s-2.09,1.014-2.09,3.457.86,3.457,2.09,3.457S1113.334,1109.029,1113.334,1106.586Z"
          fill="#ea2024" />
        <path id="Path_663" data-name="Path 663"
          d="M1117.821,1106.586c0-3.549,1.967-5.562,4.61-5.562s4.609,2.013,4.609,5.562-1.951,5.563-4.609,5.563S1117.821,1110.135,1117.821,1106.586Zm6.715,0c0-2.443-.861-3.457-2.1-3.457s-2.09,1.014-2.09,3.457.86,3.457,2.09,3.457S1124.536,1109.029,1124.536,1106.586Z"
          fill="#ea2024" />
        <path id="Path_664" data-name="Path 664"
          d="M1139.072,1102.852h-1.122v9.112h-2.289v-.953a3.177,3.177,0,0,1-2.581,1.076,4.258,4.258,0,0,1,0-8.513,3.178,3.178,0,0,1,2.474,1v-1.721h-2.813v-1.383h2.813v-.906h2.4v.906h1.122Zm-3.472,4.979a2.12,2.12,0,1,0-2.106,2.289A2.1,2.1,0,0,0,1135.6,1107.831Z"
          fill="#ea2024" />
      </g>
    </g>
  </g>
</svg>
