<svg xmlns="http://www.w3.org/2000/svg" xmlns:xlink="http://www.w3.org/1999/xlink" width="502" height="155" viewBox="0 0 502 155">
  <defs>
    <clipPath id="clip-Web_1920_1">
      <rect width="502" height="155"/>
    </clipPath>
  </defs>
  <g id="Web_1920_1" data-name="Web 1920 – 1" clip-path="url(#clip-Web_1920_1)">
    <g id="Group_504" data-name="Group 504" transform="translate(-712.628 -126.736)">
      <g id="Group_503" data-name="Group 503">
        <g id="Group_502" data-name="Group 502">
          <g id="Group_501" data-name="Group 501">
            <path id="Path_5141" data-name="Path 5141" d="M717.392,128.073v10.756H714.9v-8.758h-2.152v-2Z" fill="#68695f"/>
            <path id="Path_5142" data-name="Path 5142" d="M719.958,137.446a1.491,1.491,0,0,1,2.981,0,1.491,1.491,0,1,1-2.981,0Z" fill="#68695f"/>
            <path id="Path_5143" data-name="Path 5143" d="M729.947,133.451a5.922,5.922,0,0,1,10.263-3.657l-1.6,1.475a3.464,3.464,0,0,0-2.7-1.26,3.442,3.442,0,1,0,0,6.884,3.429,3.429,0,0,0,2.7-1.275l1.6,1.475a5.911,5.911,0,0,1-10.263-3.642Z" fill="#68695f"/>
            <path id="Path_5144" data-name="Path 5144" d="M750.66,134.7a4.551,4.551,0,1,1-4.518-4.256c.8,0,1.26.138,1.828.138a.916.916,0,0,0,.984-1,1.56,1.56,0,0,0-.323-.922l1.4-.522a2.568,2.568,0,0,1,.522,1.536,2.14,2.14,0,0,1-1.167,1.982A4.085,4.085,0,0,1,750.66,134.7Zm-2.429,0a2.119,2.119,0,1,0-2.105,2.289A2.086,2.086,0,0,0,748.231,134.7Z" fill="#68695f"/>
            <path id="Path_5145" data-name="Path 5145" d="M766.994,134.1v4.732h-2.4v-4.364c0-1.336-.6-1.951-1.567-1.951-1.075,0-1.828.691-1.828,2.166v4.149h-2.4v-4.364c0-1.336-.568-1.951-1.567-1.951-1.061,0-1.814.691-1.814,2.166v4.149h-2.4v-8.266h2.289v.952a3.348,3.348,0,0,1,2.6-1.075,3.084,3.084,0,0,1,2.719,1.352,3.719,3.719,0,0,1,2.982-1.352C765.581,130.44,766.994,131.577,766.994,134.1Z" fill="#68695f"/>
            <path id="Path_5146" data-name="Path 5146" d="M784.573,129.717h-1.122v9.112h-2.289v-.952a3.182,3.182,0,0,1-2.581,1.075,4.258,4.258,0,0,1,0-8.512,3.172,3.172,0,0,1,2.473,1v-1.722h-2.812v-1.382h2.812v-.907h2.4v.907h1.122ZM781.1,134.7a2.12,2.12,0,1,0-2.1,2.289A2.095,2.095,0,0,0,781.1,134.7Z" fill="#68695f"/>
            <path id="Path_5147" data-name="Path 5147" d="M794.761,130.563v8.266h-2.274v-.983a3.345,3.345,0,0,1-2.566,1.106c-2.075,0-3.534-1.168-3.534-3.718v-4.671h2.4v4.317c0,1.383.615,2,1.674,2,1.107,0,1.906-.707,1.906-2.228v-4.087ZM790.09,129.5l-2.781-2.212h2.581l2.074,2.212Z" fill="#68695f"/>
            <path id="Path_5148" data-name="Path 5148" d="M797.465,128.073a1.371,1.371,0,0,1,1.491-1.337,1.346,1.346,0,0,1,1.49,1.291,1.5,1.5,0,0,1-2.981.046Zm.292,2.49h2.4v8.266h-2.4Z" fill="#68695f"/>
            <path id="Path_5149" data-name="Path 5149" d="M816.795,130.563v6.883c0,3.074-1.659,4.487-4.639,4.487A6.81,6.81,0,0,1,808.1,140.8l.952-1.721a4.94,4.94,0,0,0,2.92.937c1.691,0,2.428-.768,2.428-2.258V137.4a3.406,3.406,0,0,1-2.612,1.03,4,4,0,1,1,0-7.99,3.318,3.318,0,0,1,2.735,1.183v-1.06Zm-2.366,3.872a2.179,2.179,0,1,0-2.166,2.028A2.007,2.007,0,0,0,814.429,134.435Z" fill="#68695f"/>
            <path id="Path_5150" data-name="Path 5150" d="M827.106,134.112v4.717h-2.243V137.8a2.713,2.713,0,0,1-2.52,1.152c-1.936,0-3.089-1.075-3.089-2.5,0-1.459,1.03-2.473,3.55-2.473h1.9c0-1.03-.614-1.629-1.9-1.629a3.979,3.979,0,0,0-2.382.768l-.86-1.674a6.347,6.347,0,0,1,3.564-1C825.647,130.44,827.106,131.608,827.106,134.112Zm-4.21-4.61-2.781-2.212H822.7l2.074,2.212Zm1.813,6.715v-.845h-1.644c-1.121,0-1.475.415-1.475.968,0,.6.507,1,1.352,1A1.765,1.765,0,0,0,824.709,136.217Z" fill="#68695f"/>
            <path id="Path_5151" data-name="Path 5151" d="M843.61,134.1v4.732h-2.4v-4.364c0-1.336-.614-1.951-1.674-1.951-1.153,0-1.983.707-1.983,2.228v4.087h-2.4v-8.266h2.289v.967a3.62,3.62,0,0,1,2.735-1.09C842.134,130.44,843.61,131.577,843.61,134.1Z" fill="#68695f"/>
            <path id="Path_5152" data-name="Path 5152" d="M854.873,131.945v6.884H852.6v-.983a3.344,3.344,0,0,1-2.565,1.106c-2.076,0-3.535-1.168-3.535-3.718v-4.671h2.4v4.317c0,1.383.615,2,1.675,2,1.106,0,1.905-.707,1.905-2.228v-4.087h1.275a.9.9,0,0,0,.922-.969,1.487,1.487,0,0,0-.306-.922l1.413-.522a2.485,2.485,0,0,1,.492,1.537A2.249,2.249,0,0,1,854.873,131.945Z" fill="#68695f"/>
            <path id="Path_5153" data-name="Path 5153" d="M866.245,134.7a4.55,4.55,0,1,1-4.518-4.256c.8,0,1.26.138,1.828.138a.916.916,0,0,0,.984-1,1.56,1.56,0,0,0-.323-.922l1.4-.522a2.568,2.568,0,0,1,.522,1.536,2.142,2.142,0,0,1-1.167,1.982A4.085,4.085,0,0,1,866.245,134.7Zm-2.429,0a2.119,2.119,0,1,0-2.1,2.289A2.086,2.086,0,0,0,863.816,134.7Zm-1.628-5.194h-1.875l2.074-2.212h2.582Z" fill="#68695f"/>
            <path id="Path_5154" data-name="Path 5154" d="M877.063,134.1v4.732h-2.4v-4.364c0-1.336-.614-1.951-1.674-1.951-1.153,0-1.983.707-1.983,2.228v4.087h-2.4v-8.266H870.9v.967a3.62,3.62,0,0,1,2.735-1.09C875.587,130.44,877.063,131.577,877.063,134.1Z" fill="#68695f"/>
            <path id="Path_5155" data-name="Path 5155" d="M888.618,130.563v6.883c0,3.074-1.66,4.487-4.64,4.487a6.812,6.812,0,0,1-4.057-1.137l.952-1.721a4.942,4.942,0,0,0,2.92.937c1.691,0,2.428-.768,2.428-2.258V137.4a3.406,3.406,0,0,1-2.612,1.03,4,4,0,1,1,0-7.99,3.319,3.319,0,0,1,2.735,1.183v-1.06Zm-2.367,3.872a2.179,2.179,0,1,0-2.166,2.028A2.007,2.007,0,0,0,886.251,134.435Z" fill="#68695f"/>
            <path id="Path_5156" data-name="Path 5156" d="M905.183,134.1v4.732h-2.4v-4.364c0-1.336-.615-1.951-1.675-1.951-1.153,0-1.983.707-1.983,2.228v4.087h-2.4v-8.266h2.289v.967a3.62,3.62,0,0,1,2.735-1.09C903.707,130.44,905.183,131.577,905.183,134.1Z" fill="#68695f"/>
            <path id="Path_5157" data-name="Path 5157" d="M916.738,130.563v6.883c0,3.074-1.659,4.487-4.64,4.487a6.812,6.812,0,0,1-4.057-1.137l.953-1.721a4.938,4.938,0,0,0,2.92.937c1.69,0,2.427-.768,2.427-2.258V137.4a3.406,3.406,0,0,1-2.612,1.03,4,4,0,1,1,0-7.99,3.319,3.319,0,0,1,2.735,1.183v-1.06Zm-2.366,3.872a2.179,2.179,0,1,0-2.166,2.028A2.008,2.008,0,0,0,914.372,134.435Z" fill="#68695f"/>
            <path id="Path_5158" data-name="Path 5158" d="M928.063,130.563v8.266h-2.274v-.983a3.345,3.345,0,0,1-2.566,1.106c-2.075,0-3.534-1.168-3.534-3.718v-4.671h2.4v4.317c0,1.383.616,2,1.675,2,1.107,0,1.9-.707,1.9-2.228v-4.087Zm-5.932-1.122h-1.214c.032-1.368.723-2.244,1.8-2.244s1.6.984,2.152.984c.415,0,.707-.323.737-.83h1.214c-.03,1.321-.722,2.2-1.8,2.2s-1.6-.968-2.151-.968C922.455,128.58,922.163,128.888,922.131,129.441Z" fill="#68695f"/>
            <path id="Path_5159" data-name="Path 5159" d="M944.382,130.563l-3.488,8.266H938.42l-3.472-8.266h2.473l2.29,5.623,2.367-5.623Z" fill="#68695f"/>
            <path id="Path_5160" data-name="Path 5160" d="M945.842,128.073a1.37,1.37,0,0,1,1.49-1.337,1.346,1.346,0,0,1,1.491,1.291,1.5,1.5,0,0,1-2.981.046Zm.292,2.49h2.4v8.266h-2.4Zm.138,10.463a1.061,1.061,0,1,1,2.121,0,1.061,1.061,0,0,1-2.121,0Z" fill="#68695f"/>
            <path id="Path_5161" data-name="Path 5161" d="M966.519,132.149h2.439v1.1h-1.035v6.229h1.035v1.1h-2.439Z" fill="#68695f"/>
            <path id="Path_5162" data-name="Path 5162" d="M974.647,136.849c0,1.116-.819,2.088-2.619,2.088a4.36,4.36,0,0,1-2.405-.675l.577-1.116a3.033,3.033,0,0,0,1.792.567c.728,0,1.178-.306,1.178-.819,0-.495-.323-.82-1.466-.82h-1.612l.323-3.547h3.845V133.7h-2.629l-.1,1.2h.512C973.909,134.9,974.647,135.732,974.647,136.849Z" fill="#e72024"/>
            <path id="Path_5163" data-name="Path 5163" d="M980.893,136.839a2.167,2.167,0,0,1-2.386,2.1c-1.737,0-2.817-1.089-2.817-3.124a3.066,3.066,0,0,1,3.214-3.393,3.4,3.4,0,0,1,1.755.431l-.54,1.072a2.076,2.076,0,0,0-1.18-.315,1.674,1.674,0,0,0-1.774,1.827,2.13,2.13,0,0,1,1.558-.558A2,2,0,0,1,980.893,136.839Zm-1.413.073a.951.951,0,0,0-1.071-.946.986.986,0,0,0-1.09.946c0,.54.405.936,1.107.936A.943.943,0,0,0,979.48,136.912Z" fill="#e72024"/>
            <path id="Path_5164" data-name="Path 5164" d="M986.77,132.527v.946l-2.34,5.356h-1.585l2.26-5.114h-2.089v1.027h-1.3v-2.215Z" fill="#e72024"/>
            <path id="Path_5165" data-name="Path 5165" d="M990.558,136.354l-.847.882v1.593h-1.449v-6.3h1.449v2.944l2.791-2.944h1.621l-2.611,2.809,2.764,3.493h-1.7Z" fill="#e72024"/>
            <path id="Path_5166" data-name="Path 5166" d="M994.715,136.407a2.5,2.5,0,0,1,2.7-2.493,2.224,2.224,0,0,1,2.169,1.233l-1.088.585a1.209,1.209,0,0,0-1.09-.666,1.344,1.344,0,0,0,0,2.683,1.193,1.193,0,0,0,1.09-.666l1.088.594a2.245,2.245,0,0,1-2.169,1.224A2.5,2.5,0,0,1,994.715,136.407Z" fill="#e72024"/>
            <path id="Path_5167" data-name="Path 5167" d="M1005.13,136.066v2.763h-1.314v-.6a1.591,1.591,0,0,1-1.477.675c-1.134,0-1.809-.63-1.809-1.467,0-.855.6-1.45,2.08-1.45h1.116c0-.6-.36-.954-1.116-.954a2.329,2.329,0,0,0-1.4.45l-.505-.981a3.728,3.728,0,0,1,2.089-.585C1004.275,133.914,1005.13,134.6,1005.13,136.066Zm-1.4,1.233V136.8h-.964c-.657,0-.864.242-.864.567,0,.351.3.585.793.585A1.035,1.035,0,0,0,1003.726,137.3Z" fill="#e72024"/>
            <path id="Path_5168" data-name="Path 5168" d="M1006.848,132.149h1.4v6.68h-1.4Z" fill="#e72024"/>
            <path id="Path_5169" data-name="Path 5169" d="M1009.493,140.576v-1.1h1.026v-6.229h-1.026v-1.1h2.43v8.427Z" fill="#68695f"/>
            <path id="Path_5170" data-name="Path 5170" d="M721.28,160.065v2.028h-8.129V160.48l4.149-3.919c.952-.906,1.121-1.459,1.121-1.982,0-.845-.584-1.337-1.72-1.337a2.633,2.633,0,0,0-2.229,1.076l-1.812-1.168a4.994,4.994,0,0,1,4.271-2c2.4,0,3.995,1.23,3.995,3.181,0,1.045-.292,2-1.8,3.4l-2.473,2.336Z" fill="#68695f"/>
            <path id="Path_5171" data-name="Path 5171" d="M723.155,160.71a1.49,1.49,0,0,1,2.98,0,1.49,1.49,0,1,1-2.98,0Z" fill="#68695f"/>
            <path id="Path_5172" data-name="Path 5172" d="M733.143,156.715a5.922,5.922,0,0,1,10.264-3.657l-1.6,1.475a3.461,3.461,0,0,0-2.7-1.26,3.442,3.442,0,0,0,0,6.884,3.427,3.427,0,0,0,2.7-1.276l1.6,1.476a5.913,5.913,0,0,1-10.264-3.642Z" fill="#68695f"/>
            <path id="Path_5173" data-name="Path 5173" d="M753.856,157.96a4.55,4.55,0,1,1-4.518-4.257c.8,0,1.26.138,1.828.138a.915.915,0,0,0,.984-1,1.563,1.563,0,0,0-.322-.922l1.4-.522a2.561,2.561,0,0,1,.522,1.536,2.142,2.142,0,0,1-1.166,1.982A4.087,4.087,0,0,1,753.856,157.96Zm-2.429,0a2.119,2.119,0,1,0-2.1,2.289A2.086,2.086,0,0,0,751.427,157.96Z" fill="#68695f"/>
            <path id="Path_5174" data-name="Path 5174" d="M770.19,157.36v4.733h-2.4v-4.364c0-1.337-.6-1.952-1.567-1.952-1.075,0-1.828.692-1.828,2.167v4.149H762v-4.364c0-1.337-.568-1.952-1.567-1.952-1.061,0-1.813.692-1.813,2.167v4.149h-2.4v-8.267h2.289v.953a3.349,3.349,0,0,1,2.6-1.076,3.088,3.088,0,0,1,2.72,1.352,3.72,3.72,0,0,1,2.981-1.352C768.777,153.7,770.19,154.84,770.19,157.36Z" fill="#68695f"/>
            <path id="Path_5175" data-name="Path 5175" d="M777.613,157.96a4.274,4.274,0,0,1,4.609-4.257,3.8,3.8,0,0,1,3.7,2.1l-1.859,1a2.063,2.063,0,0,0-1.86-1.137,2.293,2.293,0,0,0,0,4.579,2.034,2.034,0,0,0,1.86-1.137l1.859,1.014a3.836,3.836,0,0,1-3.7,2.09A4.273,4.273,0,0,1,777.613,157.96Z" fill="#68695f"/>
            <path id="Path_5176" data-name="Path 5176" d="M795.39,157.376v4.717h-2.243v-1.029a2.712,2.712,0,0,1-2.52,1.152c-1.936,0-3.088-1.076-3.088-2.505,0-1.459,1.029-2.474,3.549-2.474h1.906c0-1.029-.616-1.628-1.906-1.628a3.973,3.973,0,0,0-2.382.768l-.86-1.675a6.356,6.356,0,0,1,3.565-1C793.931,153.7,795.39,154.871,795.39,157.376Zm-2.4,2.1v-.845h-1.645c-1.121,0-1.475.414-1.475.968,0,.6.507,1,1.352,1A1.767,1.767,0,0,0,792.994,159.481Zm-.861-6.715h-1.875l2.074-2.213h2.582Z" fill="#68695f"/>
            <path id="Path_5177" data-name="Path 5177" d="M812.447,157.96a4.015,4.015,0,0,1-4.118,4.256,3.213,3.213,0,0,1-2.6-1.076v.953h-2.289v-11.4h2.4v4.01a3.213,3.213,0,0,1,2.49-1A4.016,4.016,0,0,1,812.447,157.96Zm-2.428,0a2.112,2.112,0,1,0-2.1,2.289A2.086,2.086,0,0,0,810.019,157.96Z" fill="#68695f"/>
            <path id="Path_5178" data-name="Path 5178" d="M823.281,157.96a4.55,4.55,0,1,1-4.534-4.257A4.244,4.244,0,0,1,823.281,157.96Zm-5.9-5.194h-1.752l2.029-2.213h2.12l2.028,2.213h-1.752l-1.337-1.168Zm3.472,5.194a2.119,2.119,0,1,0-2.1,2.289A2.086,2.086,0,0,0,820.852,157.96Z" fill="#68695f"/>
            <path id="Path_5179" data-name="Path 5179" d="M834.1,157.36v4.733h-2.4v-4.364c0-1.337-.615-1.952-1.675-1.952-1.153,0-1.983.707-1.983,2.228v4.088h-2.4v-8.267h2.289v.968a3.621,3.621,0,0,1,2.735-1.091C832.622,153.7,834.1,154.84,834.1,157.36Z" fill="#68695f"/>
            <path id="Path_5180" data-name="Path 5180" d="M845.653,153.826v6.884c0,3.073-1.659,4.487-4.64,4.487a6.812,6.812,0,0,1-4.057-1.137l.953-1.722a4.938,4.938,0,0,0,2.92.938c1.69,0,2.427-.768,2.427-2.259v-.353a3.405,3.405,0,0,1-2.612,1.029,4,4,0,1,1,0-7.99,3.322,3.322,0,0,1,2.735,1.183v-1.06Zm-2.366,3.872a2.179,2.179,0,1,0-2.166,2.029A2.007,2.007,0,0,0,843.287,157.7Z" fill="#68695f"/>
            <path id="Path_5181" data-name="Path 5181" d="M853.767,150.692h2.4v11.4h-2.4Z" fill="#68695f"/>
            <path id="Path_5182" data-name="Path 5182" d="M866.474,157.376v4.717h-2.243v-1.029a2.712,2.712,0,0,1-2.52,1.152c-1.936,0-3.089-1.076-3.089-2.505,0-1.459,1.03-2.474,3.55-2.474h1.906c0-1.029-.616-1.628-1.906-1.628a3.973,3.973,0,0,0-2.382.768l-.86-1.675a6.356,6.356,0,0,1,3.565-1C865.015,153.7,866.474,154.871,866.474,157.376Zm-2.4,2.1v-.845h-1.645c-1.121,0-1.475.414-1.475.968,0,.6.507,1,1.352,1A1.767,1.767,0,0,0,864.078,159.481Z" fill="#68695f"/>
            <path id="Path_5183" data-name="Path 5183" d="M877.738,153.826v8.267h-2.275v-.984a3.34,3.34,0,0,1-2.565,1.107c-2.075,0-3.534-1.168-3.534-3.719v-4.671h2.4v4.318c0,1.383.615,2,1.675,2,1.106,0,1.905-.706,1.905-2.227v-4.088Z" fill="#68695f"/>
            <path id="Path_5184" data-name="Path 5184" d="M889.4,158.851l-1.154,1.137v2.1h-2.4v-11.4h2.4v6.453l3.5-3.319h2.858l-3.442,3.5,3.749,4.763h-2.9Z" fill="#68695f"/>
            <path id="Path_5185" data-name="Path 5185" d="M905.213,157.36v4.733h-2.4v-4.364c0-1.337-.614-1.952-1.675-1.952-1.152,0-1.982.707-1.982,2.228v4.088h-2.4v-11.4h2.4v3.995a3.631,3.631,0,0,1,2.628-.984C903.738,153.7,905.213,154.84,905.213,157.36Z" fill="#68695f"/>
            <path id="Path_5186" data-name="Path 5186" d="M907.626,157.96a4.55,4.55,0,1,1,4.548,4.256A4.255,4.255,0,0,1,907.626,157.96Zm6.653,0a2.119,2.119,0,1,0-2.1,2.289A2.086,2.086,0,0,0,914.279,157.96Z" fill="#68695f"/>
            <path id="Path_5187" data-name="Path 5187" d="M929.523,161.693a3.423,3.423,0,0,1-1.952.523c-1.951,0-3.088-1-3.088-2.966v-3.4h-1.276V154.01h1.276V152h2.4v2.012h2.06v1.845h-2.06v3.364a.966.966,0,0,0,1.031,1.092,1.614,1.614,0,0,0,.967-.308Z" fill="#68695f"/>
            <path id="Path_5188" data-name="Path 5188" d="M940.094,157.36v4.733h-2.4v-4.364c0-1.337-.615-1.952-1.675-1.952-1.152,0-1.983.707-1.983,2.228v4.088h-2.4v-11.4h2.4v3.995a3.634,3.634,0,0,1,2.628-.984C938.619,153.7,940.094,154.84,940.094,157.36Z" fill="#68695f"/>
            <path id="Path_5189" data-name="Path 5189" d="M942.738,151.337a1.37,1.37,0,0,1,1.49-1.337,1.345,1.345,0,0,1,1.49,1.291,1.5,1.5,0,0,1-2.98.046Zm.292,2.489h2.4v8.267h-2.4Zm.137,10.464a1.061,1.061,0,1,1,2.122,0,1.062,1.062,0,0,1-2.122,0Z" fill="#68695f"/>
            <path id="Path_5190" data-name="Path 5190" d="M953.755,161.693a3.423,3.423,0,0,1-1.952.523c-1.951,0-3.088-1-3.088-2.966v-3.4H947.44V154.01h1.275V152h2.4v2.012h2.059v1.845h-2.059v3.364a.965.965,0,0,0,1.03,1.092,1.617,1.617,0,0,0,.968-.308Z" fill="#68695f"/>
            <path id="Path_5191" data-name="Path 5191" d="M970,157.96a4.016,4.016,0,0,1-4.119,4.256,3.213,3.213,0,0,1-2.6-1.076v.953h-2.289v-11.4h2.4v4.01a3.211,3.211,0,0,1,2.489-1A4.016,4.016,0,0,1,970,157.96Zm-2.428,0a2.112,2.112,0,1,0-2.1,2.289A2.086,2.086,0,0,0,967.569,157.96Z" fill="#68695f"/>
            <path id="Path_5192" data-name="Path 5192" d="M979.539,157.376v4.717H977.3v-1.029a2.71,2.71,0,0,1-2.519,1.152c-1.937,0-3.089-1.076-3.089-2.505,0-1.459,1.029-2.474,3.55-2.474h1.905c0-1.029-.614-1.628-1.905-1.628a3.972,3.972,0,0,0-2.382.768L972,154.7a6.355,6.355,0,0,1,3.564-1C978.081,153.7,979.539,154.871,979.539,157.376Zm-2.4,2.1v-.845H975.5c-1.121,0-1.474.414-1.474.968,0,.6.507,1,1.351,1A1.766,1.766,0,0,0,977.143,159.481Z" fill="#68695f"/>
            <path id="Path_5193" data-name="Path 5193" d="M986.976,157.96a4.274,4.274,0,0,1,4.61-4.257,3.8,3.8,0,0,1,3.7,2.1l-1.859,1a2.061,2.061,0,0,0-1.859-1.137,2.293,2.293,0,0,0,0,4.579,2.033,2.033,0,0,0,1.859-1.137l1.859,1.014a3.835,3.835,0,0,1-3.7,2.09A4.274,4.274,0,0,1,986.976,157.96Z" fill="#68695f"/>
            <path id="Path_5194" data-name="Path 5194" d="M1005.831,157.36v4.733h-2.4v-4.364c0-1.337-.614-1.952-1.675-1.952-1.152,0-1.982.707-1.982,2.228v4.088h-2.4v-11.4h2.4v3.995a3.631,3.631,0,0,1,2.628-.984C1004.356,153.7,1005.831,154.84,1005.831,157.36Z" fill="#68695f"/>
            <path id="Path_5195" data-name="Path 5195" d="M1009.672,152.121c.6-.277.784-.584.784-.938a.652.652,0,0,0-.722-.645,1.614,1.614,0,0,0-.906.292l-.493-.968a2.674,2.674,0,0,1,1.661-.523,1.665,1.665,0,0,1,1.843,1.645,2.065,2.065,0,0,1-1.414,1.936Zm-.906,1.705h2.4v8.267h-2.4Z" fill="#68695f"/>
            <path id="Path_5196" data-name="Path 5196" d="M1029.151,155.413h2.439v1.1h-1.035v6.23h1.035v1.1h-2.439Z" fill="#68695f"/>
            <path id="Path_5197" data-name="Path 5197" d="M1037.721,160.1a2.167,2.167,0,0,1-2.386,2.1c-1.737,0-2.817-1.09-2.817-3.124a3.067,3.067,0,0,1,3.214-3.394,3.4,3.4,0,0,1,1.755.432l-.54,1.072a2.069,2.069,0,0,0-1.18-.316,1.673,1.673,0,0,0-1.773,1.828,2.126,2.126,0,0,1,1.557-.558A2,2,0,0,1,1037.721,160.1Zm-1.413.072a.95.95,0,0,0-1.071-.945.986.986,0,0,0-1.09.945c0,.54.405.936,1.107.936A.942.942,0,0,0,1036.308,160.175Z" fill="#e72024"/>
            <path id="Path_5198" data-name="Path 5198" d="M1038.7,158.942c0-2.08,1.152-3.259,2.7-3.259s2.7,1.179,2.7,3.259-1.144,3.259-2.7,3.259S1038.7,161.022,1038.7,158.942Zm3.933,0c0-1.432-.5-2.026-1.233-2.026s-1.225.594-1.225,2.026.505,2.025,1.225,2.025S1042.634,160.373,1042.634,158.942Z" fill="#e72024"/>
            <path id="Path_5199" data-name="Path 5199" d="M1045.261,158.942c0-2.08,1.153-3.259,2.7-3.259s2.7,1.179,2.7,3.259-1.144,3.259-2.7,3.259S1045.261,161.022,1045.261,158.942Zm3.934,0c0-1.432-.5-2.026-1.234-2.026s-1.224.594-1.224,2.026.5,2.025,1.224,2.025S1049.195,160.373,1049.195,158.942Z" fill="#e72024"/>
            <path id="Path_5200" data-name="Path 5200" d="M1054.514,159.617l-.847.883v1.593h-1.449v-6.3h1.449v2.944l2.791-2.944h1.622l-2.612,2.809,2.764,3.493h-1.7Z" fill="#e72024"/>
            <path id="Path_5201" data-name="Path 5201" d="M1058.67,159.671a2.5,2.5,0,0,1,2.7-2.494,2.224,2.224,0,0,1,2.168,1.234l-1.088.585a1.209,1.209,0,0,0-1.09-.666,1.343,1.343,0,0,0,0,2.682,1.191,1.191,0,0,0,1.09-.666l1.088.6a2.245,2.245,0,0,1-2.168,1.224A2.5,2.5,0,0,1,1058.67,159.671Z" fill="#e72024"/>
            <path id="Path_5202" data-name="Path 5202" d="M1069.085,159.329v2.764h-1.314v-.6a1.591,1.591,0,0,1-1.477.675c-1.134,0-1.809-.63-1.809-1.468,0-.855.6-1.449,2.08-1.449h1.116c0-.6-.36-.954-1.116-.954a2.329,2.329,0,0,0-1.4.45l-.505-.981a3.721,3.721,0,0,1,2.089-.586C1068.23,157.177,1069.085,157.861,1069.085,159.329Zm-1.4,1.234v-.5h-.964c-.657,0-.864.243-.864.567,0,.351.3.586.793.586A1.035,1.035,0,0,0,1067.681,160.563Z" fill="#e72024"/>
            <path id="Path_5203" data-name="Path 5203" d="M1070.8,155.413h1.4v6.68h-1.4Z" fill="#e72024"/>
            <path id="Path_5204" data-name="Path 5204" d="M1073.449,163.839v-1.1h1.026v-6.23h-1.026v-1.1h2.43v8.426Z" fill="#68695f"/>
            <path id="Path_5205" data-name="Path 5205" d="M721.187,182.069c0,1.813-1.4,3.473-4.456,3.473a7.393,7.393,0,0,1-4.1-1.153l.969-1.905a5.225,5.225,0,0,0,3.072.968c1.245,0,2.014-.508,2.014-1.383,0-.814-.6-1.322-2.014-1.322h-1.136V179.1l2.213-2.5h-4.58v-2h7.53v1.613l-2.428,2.766A3.056,3.056,0,0,1,721.187,182.069Z" fill="#68695f"/>
            <path id="Path_5206" data-name="Path 5206" d="M723.032,183.974a1.49,1.49,0,0,1,2.98,0,1.49,1.49,0,1,1-2.98,0Z" fill="#68695f"/>
            <path id="Path_5207" data-name="Path 5207" d="M733.02,179.979a5.923,5.923,0,0,1,10.264-3.657l-1.6,1.475a3.461,3.461,0,0,0-2.7-1.26,3.442,3.442,0,1,0,0,6.884,3.429,3.429,0,0,0,2.7-1.275l1.6,1.475a5.912,5.912,0,0,1-10.264-3.642Z" fill="#68695f"/>
            <path id="Path_5208" data-name="Path 5208" d="M753.733,181.224a4.55,4.55,0,1,1-4.518-4.257c.8,0,1.26.139,1.828.139a.916.916,0,0,0,.984-1,1.566,1.566,0,0,0-.322-.922l1.4-.522a2.561,2.561,0,0,1,.522,1.536,2.141,2.141,0,0,1-1.167,1.982A4.085,4.085,0,0,1,753.733,181.224Zm-2.429,0a2.119,2.119,0,1,0-2.1,2.289A2.086,2.086,0,0,0,751.3,181.224Z" fill="#68695f"/>
            <path id="Path_5209" data-name="Path 5209" d="M770.067,180.625v4.732h-2.4v-4.364c0-1.337-.6-1.951-1.567-1.951-1.075,0-1.828.691-1.828,2.166v4.149h-2.4v-4.364c0-1.337-.568-1.951-1.567-1.951-1.061,0-1.813.691-1.813,2.166v4.149h-2.4V177.09h2.289v.953a3.349,3.349,0,0,1,2.6-1.076,3.088,3.088,0,0,1,2.72,1.352,3.72,3.72,0,0,1,2.981-1.352C768.654,176.967,770.067,178.1,770.067,180.625Z" fill="#68695f"/>
            <path id="Path_5210" data-name="Path 5210" d="M777.49,181.224a4.274,4.274,0,0,1,4.609-4.257,3.8,3.8,0,0,1,3.7,2.105l-1.859,1a2.064,2.064,0,0,0-1.86-1.137,2.293,2.293,0,0,0,0,4.579,2.035,2.035,0,0,0,1.86-1.137l1.859,1.014a3.834,3.834,0,0,1-3.7,2.09A4.273,4.273,0,0,1,777.49,181.224Z" fill="#68695f"/>
            <path id="Path_5211" data-name="Path 5211" d="M795.267,180.64v4.717h-2.243v-1.029a2.712,2.712,0,0,1-2.52,1.152c-1.936,0-3.089-1.076-3.089-2.5,0-1.459,1.03-2.473,3.55-2.473h1.906c0-1.03-.616-1.629-1.906-1.629a3.979,3.979,0,0,0-2.382.768l-.86-1.675a6.356,6.356,0,0,1,3.565-1C793.808,176.967,795.267,178.135,795.267,180.64Zm-2.4,2.1V181.9h-1.645c-1.121,0-1.475.415-1.475.968,0,.6.507,1,1.352,1A1.767,1.767,0,0,0,792.871,182.745Zm-.861-6.715h-1.875l2.074-2.213h2.582Z" fill="#68695f"/>
            <path id="Path_5212" data-name="Path 5212" d="M802.521,184.589l.8-1.721a5.657,5.657,0,0,0,2.873.8c1.106,0,1.521-.292,1.521-.753,0-1.352-4.994.03-4.994-3.273,0-1.567,1.414-2.674,3.826-2.674a6.8,6.8,0,0,1,3.181.723l-.8,1.705a4.747,4.747,0,0,0-2.382-.615c-1.075,0-1.536.339-1.536.769,0,1.414,4.993.046,4.993,3.3,0,1.536-1.428,2.627-3.9,2.627A7.1,7.1,0,0,1,802.521,184.589Z" fill="#68695f"/>
            <path id="Path_5213" data-name="Path 5213" d="M819.561,180.64v4.717h-2.243v-1.029a2.713,2.713,0,0,1-2.52,1.152c-1.936,0-3.089-1.076-3.089-2.5,0-1.459,1.03-2.473,3.55-2.473h1.905c0-1.03-.614-1.629-1.905-1.629a3.979,3.979,0,0,0-2.382.768l-.86-1.675a6.354,6.354,0,0,1,3.564-1C818.1,176.967,819.561,178.135,819.561,180.64Zm-2.4,2.1V181.9H815.52c-1.121,0-1.475.415-1.475.968,0,.6.507,1,1.352,1A1.765,1.765,0,0,0,817.164,182.745Z" fill="#68695f"/>
            <path id="Path_5214" data-name="Path 5214" d="M831.5,181.224a4.015,4.015,0,0,1-4.118,4.256,3.209,3.209,0,0,1-2.6-1.076v.953H822.5v-11.4h2.4v4.01a3.211,3.211,0,0,1,2.489-1A4.015,4.015,0,0,1,831.5,181.224Zm-2.427,0a2.112,2.112,0,1,0-2.1,2.289A2.087,2.087,0,0,0,829.073,181.224Z" fill="#68695f"/>
            <path id="Path_5215" data-name="Path 5215" d="M841.043,180.64v4.717H838.8v-1.029a2.71,2.71,0,0,1-2.519,1.152c-1.937,0-3.089-1.076-3.089-2.5,0-1.459,1.029-2.473,3.55-2.473h1.9c0-1.03-.614-1.629-1.9-1.629a3.977,3.977,0,0,0-2.382.768l-.861-1.675a6.36,6.36,0,0,1,3.565-1C839.584,176.967,841.043,178.135,841.043,180.64Zm-2.4,2.1V181.9H837c-1.121,0-1.474.415-1.474.968,0,.6.507,1,1.351,1A1.766,1.766,0,0,0,838.647,182.745Z" fill="#68695f"/>
            <path id="Path_5216" data-name="Path 5216" d="M857.547,180.625v4.732h-2.4v-4.364c0-1.337-.614-1.951-1.675-1.951-1.152,0-1.982.707-1.982,2.228v4.087h-2.4V177.09h2.289v.968a3.623,3.623,0,0,1,2.736-1.091C856.072,176.967,857.547,178.1,857.547,180.625Z" fill="#68695f"/>
            <path id="Path_5217" data-name="Path 5217" d="M868.81,178.473v6.884h-2.274v-.983a3.345,3.345,0,0,1-2.566,1.106c-2.075,0-3.534-1.168-3.534-3.719V177.09h2.4v4.318c0,1.383.616,2,1.675,2,1.107,0,1.906-.706,1.906-2.228V177.09h1.275a.9.9,0,0,0,.922-.968,1.481,1.481,0,0,0-.307-.922l1.413-.522a2.477,2.477,0,0,1,.492,1.536A2.25,2.25,0,0,1,868.81,178.473Z" fill="#68695f"/>
            <path id="Path_5218" data-name="Path 5218" d="M880.182,181.224a4.55,4.55,0,1,1-4.518-4.257c.8,0,1.26.139,1.829.139a.916.916,0,0,0,.983-1,1.566,1.566,0,0,0-.322-.922l1.4-.522a2.562,2.562,0,0,1,.523,1.536,2.143,2.143,0,0,1-1.167,1.982A4.084,4.084,0,0,1,880.182,181.224Zm-2.429,0a2.119,2.119,0,1,0-2.1,2.289A2.086,2.086,0,0,0,877.753,181.224Zm-1.628-5.194H874.25l2.075-2.213h2.582Z" fill="#68695f"/>
            <path id="Path_5219" data-name="Path 5219" d="M891,180.625v4.732h-2.4v-4.364c0-1.337-.614-1.951-1.675-1.951-1.152,0-1.982.707-1.982,2.228v4.087h-2.4V177.09h2.289v.968a3.625,3.625,0,0,1,2.736-1.091C889.524,176.967,891,178.1,891,180.625Z" fill="#68695f"/>
            <path id="Path_5220" data-name="Path 5220" d="M902.554,177.09v6.884c0,3.073-1.659,4.487-4.64,4.487a6.809,6.809,0,0,1-4.056-1.137l.952-1.721a4.945,4.945,0,0,0,2.92.937c1.69,0,2.428-.768,2.428-2.259v-.353a3.4,3.4,0,0,1-2.613,1.03,4,4,0,1,1,0-7.991,3.322,3.322,0,0,1,2.736,1.183v-1.06Zm-2.366,3.873a2.179,2.179,0,1,0-2.166,2.028A2.007,2.007,0,0,0,900.188,180.963Z" fill="#68695f"/>
            <path id="Path_5221" data-name="Path 5221" d="M909.87,184.589l.8-1.721a5.662,5.662,0,0,0,2.873.8c1.107,0,1.522-.292,1.522-.753,0-1.352-4.994.03-4.994-3.273,0-1.567,1.414-2.674,3.826-2.674a6.8,6.8,0,0,1,3.181.723l-.8,1.705a4.75,4.75,0,0,0-2.382-.615c-1.075,0-1.536.339-1.536.769,0,1.414,4.993.046,4.993,3.3,0,1.536-1.429,2.627-3.9,2.627A7.091,7.091,0,0,1,909.87,184.589Z" fill="#68695f"/>
            <path id="Path_5222" data-name="Path 5222" d="M928.063,181.224a4.55,4.55,0,1,1-4.533-4.257A4.243,4.243,0,0,1,928.063,181.224Zm-5.886-5.194h-1.766l2.043-1.752h2.089l2.044,1.752h-1.766l-1.323-.876Zm3.457,5.194a2.119,2.119,0,1,0-2.1,2.289A2.086,2.086,0,0,0,925.634,181.224Zm1.446-6.669h-1.737l1.7-1.859h2.444Z" fill="#68695f"/>
            <path id="Path_5223" data-name="Path 5223" d="M935.762,184.958a3.43,3.43,0,0,1-1.952.522c-1.951,0-3.088-1-3.088-2.966v-3.4h-1.275v-1.844h1.275v-2.013h2.4v2.013h2.059v1.844h-2.059v3.365a.964.964,0,0,0,1.03,1.091,1.619,1.619,0,0,0,.968-.308Z" fill="#68695f"/>
            <path id="Path_5224" data-name="Path 5224" d="M945.4,176.63h-3.441V174.6h9.373v2.029h-3.443v8.727H945.4Z" fill="#68695f"/>
            <path id="Path_5225" data-name="Path 5225" d="M960.471,181.9h-6.254a2.205,2.205,0,0,0,2.366,1.659,2.8,2.8,0,0,0,2.075-.8l1.275,1.383a4.33,4.33,0,0,1-3.411,1.337c-2.858,0-4.718-1.8-4.718-4.256a4.21,4.21,0,0,1,4.41-4.257,4.093,4.093,0,0,1,4.3,4.288C960.517,181.439,960.486,181.7,960.471,181.9Zm-6.285-1.4h4.072a2.065,2.065,0,0,0-4.072,0Z" fill="#68695f"/>
            <path id="Path_5226" data-name="Path 5226" d="M968.015,176.967v2.213c-.2-.015-.353-.03-.538-.03a2.031,2.031,0,0,0-2.2,2.3v3.9h-2.4V177.09h2.289v1.091A3.337,3.337,0,0,1,968.015,176.967Z" fill="#68695f"/>
            <path id="Path_5227" data-name="Path 5227" d="M969.921,174.6a1.371,1.371,0,0,1,1.491-1.337,1.345,1.345,0,0,1,1.49,1.291,1.5,1.5,0,0,1-2.981.046Zm.292,2.489h2.4v8.267h-2.4Z" fill="#68695f"/>
            <path id="Path_5228" data-name="Path 5228" d="M983.812,177.09l-3.733,8.774c-.8,2-1.937,2.6-3.427,2.6a3.67,3.67,0,0,1-2.3-.753l.876-1.7a2.125,2.125,0,0,0,1.352.522c.661,0,1.029-.292,1.352-1.03l.03-.076-3.58-8.329h2.474l2.32,5.609,2.336-5.609Z" fill="#68695f"/>
            <path id="Path_5229" data-name="Path 5229" d="M992.6,180.64v4.717h-2.243v-1.029a2.712,2.712,0,0,1-2.52,1.152c-1.936,0-3.089-1.076-3.089-2.5,0-1.459,1.03-2.473,3.55-2.473h1.906c0-1.03-.616-1.629-1.906-1.629a3.979,3.979,0,0,0-2.382.768l-.86-1.675a6.356,6.356,0,0,1,3.565-1C991.142,176.967,992.6,178.135,992.6,180.64Zm-2.4,2.1V181.9H988.56c-1.121,0-1.475.415-1.475.968,0,.6.507,1,1.352,1A1.767,1.767,0,0,0,990.205,182.745Z" fill="#68695f"/>
            <path id="Path_5230" data-name="Path 5230" d="M999.086,182.115l-1.153,1.137v2.1h-2.4v-11.4h2.4v6.453l3.5-3.319h2.857l-3.441,3.5,3.749,4.763h-2.9Z" fill="#68695f"/>
            <path id="Path_5231" data-name="Path 5231" d="M1006.093,174.6a1.37,1.37,0,0,1,1.49-1.337,1.346,1.346,0,0,1,1.491,1.291,1.5,1.5,0,0,1-2.981.046Zm.292,2.489h2.4v8.267h-2.4Z" fill="#68695f"/>
            <path id="Path_5232" data-name="Path 5232" d="M1026.77,178.677h2.439v1.1h-1.035v6.23h1.035v1.1h-2.439Z" fill="#68695f"/>
            <path id="Path_5233" data-name="Path 5233" d="M1034.9,183.377c0,1.116-.819,2.088-2.619,2.088a4.36,4.36,0,0,1-2.405-.675l.577-1.117a3.026,3.026,0,0,0,1.792.568c.728,0,1.178-.306,1.178-.82,0-.5-.324-.819-1.466-.819h-1.612l.323-3.547h3.845v1.171h-2.629l-.1,1.2h.512C1034.16,181.423,1034.9,182.26,1034.9,183.377Z" fill="#e72024"/>
            <path id="Path_5234" data-name="Path 5234" d="M1041.145,183.367a2.167,2.167,0,0,1-2.386,2.1c-1.737,0-2.817-1.089-2.817-3.124a3.067,3.067,0,0,1,3.214-3.394,3.392,3.392,0,0,1,1.755.433l-.54,1.071a2.069,2.069,0,0,0-1.18-.316,1.674,1.674,0,0,0-1.774,1.828,2.13,2.13,0,0,1,1.558-.558A2,2,0,0,1,1041.145,183.367Zm-1.413.073a.951.951,0,0,0-1.071-.946.986.986,0,0,0-1.09.946c0,.54.4.936,1.107.936A.943.943,0,0,0,1039.732,183.44Z" fill="#e72024"/>
            <path id="Path_5235" data-name="Path 5235" d="M1046.779,183.43c0,1.063-.82,2.035-2.612,2.035a4.334,4.334,0,0,1-2.4-.675l.567-1.117a3.053,3.053,0,0,0,1.8.568c.73,0,1.18-.3,1.18-.811,0-.477-.352-.774-1.18-.774h-.666v-.963l1.3-1.467h-2.683v-1.171h4.412V180l-1.423,1.62A1.79,1.79,0,0,1,1046.779,183.43Z" fill="#e72024"/>
            <path id="Path_5236" data-name="Path 5236" d="M1050.594,182.881l-.847.883v1.593H1048.3v-6.3h1.449V182l2.792-2.944h1.621l-2.612,2.809,2.764,3.493h-1.7Z" fill="#e72024"/>
            <path id="Path_5237" data-name="Path 5237" d="M1054.75,182.935a2.5,2.5,0,0,1,2.7-2.493,2.225,2.225,0,0,1,2.169,1.233l-1.089.585a1.209,1.209,0,0,0-1.09-.666,1.344,1.344,0,0,0,0,2.683,1.192,1.192,0,0,0,1.09-.667l1.089.6a2.247,2.247,0,0,1-2.169,1.224A2.5,2.5,0,0,1,1054.75,182.935Z" fill="#e72024"/>
            <path id="Path_5238" data-name="Path 5238" d="M1065.165,182.593v2.764h-1.314v-.6a1.591,1.591,0,0,1-1.477.675c-1.134,0-1.809-.63-1.809-1.467,0-.855.6-1.45,2.08-1.45h1.116c0-.6-.36-.954-1.116-.954a2.329,2.329,0,0,0-1.4.45l-.5-.981a3.722,3.722,0,0,1,2.088-.585C1064.31,180.442,1065.165,181.126,1065.165,182.593Zm-1.4,1.234v-.495h-.964c-.657,0-.864.242-.864.567,0,.351.3.585.793.585A1.035,1.035,0,0,0,1063.761,183.827Z" fill="#e72024"/>
            <path id="Path_5239" data-name="Path 5239" d="M1066.883,178.677h1.4v6.68h-1.4Z" fill="#e72024"/>
            <path id="Path_5240" data-name="Path 5240" d="M1069.529,187.1v-1.1h1.026v-6.23h-1.026v-1.1h2.43V187.1Z" fill="#68695f"/>
            <path id="Path_5241" data-name="Path 5241" d="M723.092,206.362h-1.751v2.259h-2.427v-2.259h-5.793v-1.675l5.07-6.822H720.8l-4.7,6.469h2.889v-2.013h2.351v2.013h1.751Z" fill="#68695f"/>
            <path id="Path_5242" data-name="Path 5242" d="M724.83,207.238a1.49,1.49,0,0,1,2.98,0,1.49,1.49,0,1,1-2.98,0Z" fill="#68695f"/>
            <path id="Path_5243" data-name="Path 5243" d="M734.818,203.243a5.921,5.921,0,0,1,10.263-3.657l-1.6,1.475a3.461,3.461,0,0,0-2.7-1.26,3.442,3.442,0,1,0,0,6.884,3.427,3.427,0,0,0,2.7-1.276l1.6,1.475a5.911,5.911,0,0,1-10.263-3.641Z" fill="#68695f"/>
            <path id="Path_5244" data-name="Path 5244" d="M755.531,204.487a4.551,4.551,0,1,1-4.518-4.256c.8,0,1.26.138,1.828.138a.916.916,0,0,0,.984-1,1.555,1.555,0,0,0-.323-.922l1.4-.523a2.571,2.571,0,0,1,.522,1.537,2.141,2.141,0,0,1-1.167,1.982A4.084,4.084,0,0,1,755.531,204.487Zm-2.429,0a2.119,2.119,0,1,0-2.1,2.29A2.086,2.086,0,0,0,753.1,204.487Z" fill="#68695f"/>
            <path id="Path_5245" data-name="Path 5245" d="M771.865,203.888v4.733h-2.4v-4.364c0-1.337-.6-1.952-1.567-1.952-1.075,0-1.828.692-1.828,2.167v4.149h-2.4v-4.364c0-1.337-.568-1.952-1.567-1.952-1.061,0-1.814.692-1.814,2.167v4.149h-2.4v-8.267h2.289v.953a3.349,3.349,0,0,1,2.6-1.076,3.086,3.086,0,0,1,2.719,1.352,3.719,3.719,0,0,1,2.982-1.352C770.452,200.231,771.865,201.368,771.865,203.888Z" fill="#68695f"/>
            <path id="Path_5246" data-name="Path 5246" d="M779.287,204.487a4.274,4.274,0,0,1,4.61-4.256,3.8,3.8,0,0,1,3.7,2.1l-1.859,1a2.062,2.062,0,0,0-1.86-1.137,2.293,2.293,0,0,0,0,4.579,2.035,2.035,0,0,0,1.86-1.137l1.859,1.014a3.837,3.837,0,0,1-3.7,2.09A4.274,4.274,0,0,1,779.287,204.487Z" fill="#68695f"/>
            <path id="Path_5247" data-name="Path 5247" d="M797.065,203.9v4.718h-2.243v-1.03a2.714,2.714,0,0,1-2.52,1.153c-1.936,0-3.089-1.076-3.089-2.505,0-1.46,1.03-2.474,3.55-2.474h1.905c0-1.03-.614-1.629-1.905-1.629a3.973,3.973,0,0,0-2.382.769l-.86-1.675a6.355,6.355,0,0,1,3.564-1C795.606,200.231,797.065,201.4,797.065,203.9Zm-2.4,2.1v-.844h-1.644c-1.121,0-1.475.414-1.475.967,0,.6.507,1,1.352,1A1.765,1.765,0,0,0,794.668,206.008Zm-.86-6.714h-1.875l2.074-2.213h2.582Z" fill="#68695f"/>
            <path id="Path_5248" data-name="Path 5248" d="M810.45,208.221a3.426,3.426,0,0,1-1.953.523c-1.951,0-3.087-1-3.087-2.966v-3.4h-1.276v-1.844h1.276v-2.013h2.4v2.013h2.06v1.844h-2.06v3.365a.965.965,0,0,0,1.03,1.091,1.616,1.616,0,0,0,.968-.307Z" fill="#68695f"/>
            <path id="Path_5249" data-name="Path 5249" d="M821.022,203.888v4.733h-2.4v-4.364c0-1.337-.614-1.952-1.674-1.952-1.153,0-1.983.707-1.983,2.228v4.088h-2.4v-11.4h2.4v4a3.637,3.637,0,0,1,2.628-.983C819.546,200.231,821.022,201.368,821.022,203.888Z" fill="#68695f"/>
            <path id="Path_5250" data-name="Path 5250" d="M832.285,200.354v8.267H830.01v-.984a3.345,3.345,0,0,1-2.565,1.107c-2.075,0-3.534-1.168-3.534-3.719v-4.671h2.4v4.318c0,1.383.615,2,1.675,2,1.106,0,1.905-.706,1.905-2.228v-4.087Z" fill="#68695f"/>
            <path id="Path_5251" data-name="Path 5251" d="M839.6,207.853l.8-1.722a5.647,5.647,0,0,0,2.873.8c1.106,0,1.521-.291,1.521-.753,0-1.352-4.994.031-4.994-3.272,0-1.567,1.414-2.674,3.826-2.674a6.8,6.8,0,0,1,3.181.722l-.8,1.706a4.748,4.748,0,0,0-2.382-.615c-1.075,0-1.536.338-1.536.769,0,1.413,4.993.046,4.993,3.3,0,1.536-1.428,2.628-3.9,2.628A7.107,7.107,0,0,1,839.6,207.853Z" fill="#68695f"/>
            <path id="Path_5252" data-name="Path 5252" d="M857.793,204.487a4.55,4.55,0,1,1-4.533-4.256A4.243,4.243,0,0,1,857.793,204.487Zm-5.885-5.193h-1.767l2.043-1.752h2.09l2.044,1.752h-1.767l-1.322-.876Zm3.457,5.193a2.119,2.119,0,1,0-2.1,2.29A2.086,2.086,0,0,0,855.365,204.487Zm1.445-6.669h-1.736l1.705-1.858h2.443Z" fill="#68695f"/>
            <path id="Path_5253" data-name="Path 5253" d="M865.492,208.221a3.426,3.426,0,0,1-1.953.523c-1.951,0-3.087-1-3.087-2.966v-3.4h-1.276v-1.844h1.276v-2.013h2.4v2.013h2.06v1.844h-2.06v3.365a.965.965,0,0,0,1.03,1.091,1.616,1.616,0,0,0,.968-.307Z" fill="#68695f"/>
            <path id="Path_5254" data-name="Path 5254" d="M872.115,204.487a4.273,4.273,0,0,1,4.609-4.256,3.8,3.8,0,0,1,3.7,2.1l-1.859,1a2.062,2.062,0,0,0-1.86-1.137,2.293,2.293,0,0,0,0,4.579,2.035,2.035,0,0,0,1.86-1.137l1.859,1.014a3.836,3.836,0,0,1-3.7,2.09A4.274,4.274,0,0,1,872.115,204.487Z" fill="#68695f"/>
            <path id="Path_5255" data-name="Path 5255" d="M889.892,203.9v4.718h-2.243v-1.03a2.712,2.712,0,0,1-2.52,1.153c-1.936,0-3.089-1.076-3.089-2.505,0-1.46,1.03-2.474,3.55-2.474H887.5c0-1.03-.616-1.629-1.906-1.629a3.973,3.973,0,0,0-2.382.769l-.86-1.675a6.356,6.356,0,0,1,3.565-1C888.433,200.231,889.892,201.4,889.892,203.9Zm-2.4,2.1v-.844h-1.645c-1.121,0-1.475.414-1.475.967,0,.6.507,1,1.352,1A1.767,1.767,0,0,0,887.5,206.008Z" fill="#68695f"/>
            <path id="Path_5256" data-name="Path 5256" d="M900.879,200.354l-3.733,8.774c-.8,2-1.937,2.6-3.427,2.6a3.672,3.672,0,0,1-2.3-.753l.876-1.706a2.123,2.123,0,0,0,1.352.523c.661,0,1.029-.292,1.353-1.03l.03-.077-3.58-8.328h2.473l2.321,5.609,2.336-5.609Z" fill="#68695f"/>
            <path id="Path_5257" data-name="Path 5257" d="M917.623,201.941h2.44v1.1h-1.035v6.23h1.035v1.1h-2.44Z" fill="#68695f"/>
            <path id="Path_5258" data-name="Path 5258" d="M925.751,206.64c0,1.116-.819,2.089-2.619,2.089a4.355,4.355,0,0,1-2.4-.676l.576-1.116a3.038,3.038,0,0,0,1.792.568c.729,0,1.179-.307,1.179-.82,0-.495-.324-.819-1.467-.819H921.2l.323-3.547h3.845v1.17h-2.629l-.1,1.2h.513C925.013,204.687,925.751,205.524,925.751,206.64Z" fill="#e72024"/>
            <path id="Path_5259" data-name="Path 5259" d="M932,206.631a2.166,2.166,0,0,1-2.385,2.1c-1.738,0-2.818-1.09-2.818-3.124a3.067,3.067,0,0,1,3.214-3.394,3.4,3.4,0,0,1,1.755.432l-.54,1.071a2.075,2.075,0,0,0-1.179-.315,1.675,1.675,0,0,0-1.774,1.828,2.127,2.127,0,0,1,1.558-.558A2,2,0,0,1,932,206.631Zm-1.413.072a.95.95,0,0,0-1.071-.945.986.986,0,0,0-1.09.945c0,.54.406.936,1.108.936A.942.942,0,0,0,930.584,206.7Z" fill="#e72024"/>
            <path id="Path_5260" data-name="Path 5260" d="M938.747,207.3h-1.026v1.324H936.3V207.3h-3.393v-.981l2.97-4h1.531l-2.755,3.79h1.692V204.93h1.378v1.179h1.026Z" fill="#e72024"/>
            <path id="Path_5261" data-name="Path 5261" d="M942.32,206.145l-.847.882v1.594h-1.449v-6.3h1.449v2.944l2.791-2.944h1.621l-2.611,2.809,2.764,3.493h-1.7Z" fill="#e72024"/>
            <path id="Path_5262" data-name="Path 5262" d="M946.477,206.2a2.5,2.5,0,0,1,2.7-2.494,2.224,2.224,0,0,1,2.169,1.234l-1.089.585a1.208,1.208,0,0,0-1.09-.666,1.344,1.344,0,0,0,0,2.683,1.193,1.193,0,0,0,1.09-.667l1.089.594a2.244,2.244,0,0,1-2.169,1.225A2.5,2.5,0,0,1,946.477,206.2Z" fill="#e72024"/>
            <path id="Path_5263" data-name="Path 5263" d="M956.891,205.857v2.764h-1.314v-.6a1.591,1.591,0,0,1-1.477.675c-1.134,0-1.81-.63-1.81-1.468,0-.855.6-1.449,2.081-1.449h1.116c0-.6-.361-.955-1.116-.955a2.33,2.33,0,0,0-1.4.451l-.505-.981a3.718,3.718,0,0,1,2.089-.586C956.036,203.705,956.891,204.389,956.891,205.857Zm-1.4,1.233V206.6h-.964c-.657,0-.864.243-.864.567,0,.351.3.586.793.586A1.036,1.036,0,0,0,955.487,207.09Z" fill="#e72024"/>
            <path id="Path_5264" data-name="Path 5264" d="M958.609,201.941h1.4v6.68h-1.4Z" fill="#e72024"/>
            <path id="Path_5265" data-name="Path 5265" d="M961.254,210.367v-1.1h1.027v-6.23h-1.027v-1.1h2.431v8.426Z" fill="#68695f"/>
            <path id="Path_5266" data-name="Path 5266" d="M721.372,228.5c0,1.9-1.4,3.565-4.472,3.565a7.432,7.432,0,0,1-4.1-1.153l.984-1.9a5.172,5.172,0,0,0,3.057.968c1.245,0,2.014-.522,2.014-1.4,0-.846-.554-1.4-2.505-1.4H713.6l.553-6.054h6.561v2h-4.487l-.169,2.044h.876C720.112,225.17,721.372,226.6,721.372,228.5Z" fill="#68695f"/>
            <path id="Path_5267" data-name="Path 5267" d="M723.078,230.5a1.49,1.49,0,0,1,2.98,0,1.49,1.49,0,1,1-2.98,0Z" fill="#68695f"/>
            <path id="Path_5268" data-name="Path 5268" d="M733.066,226.506a5.923,5.923,0,0,1,10.264-3.657l-1.6,1.475a3.463,3.463,0,0,0-2.7-1.259,3.441,3.441,0,1,0,0,6.883,3.429,3.429,0,0,0,2.7-1.275l1.6,1.475a5.912,5.912,0,0,1-10.264-3.642Z" fill="#68695f"/>
            <path id="Path_5269" data-name="Path 5269" d="M753.779,227.751a4.551,4.551,0,1,1-4.518-4.256c.8,0,1.26.138,1.828.138a.916.916,0,0,0,.984-1,1.554,1.554,0,0,0-.323-.921l1.4-.523a2.564,2.564,0,0,1,.522,1.537,2.142,2.142,0,0,1-1.167,1.982A4.082,4.082,0,0,1,753.779,227.751Zm-2.429,0a2.119,2.119,0,1,0-2.1,2.29A2.085,2.085,0,0,0,751.35,227.751Z" fill="#68695f"/>
            <path id="Path_5270" data-name="Path 5270" d="M770.113,227.152v4.732h-2.4v-4.363c0-1.337-.6-1.952-1.567-1.952-1.075,0-1.828.691-1.828,2.166v4.149h-2.4v-4.363c0-1.337-.568-1.952-1.567-1.952-1.061,0-1.814.691-1.814,2.166v4.149h-2.4v-8.266h2.289v.952a3.348,3.348,0,0,1,2.6-1.075,3.086,3.086,0,0,1,2.719,1.352,3.721,3.721,0,0,1,2.982-1.352C768.7,223.495,770.113,224.632,770.113,227.152Z" fill="#68695f"/>
            <path id="Path_5271" data-name="Path 5271" d="M777.535,227.751a4.274,4.274,0,0,1,4.61-4.256,3.8,3.8,0,0,1,3.7,2.105l-1.859,1a2.062,2.062,0,0,0-1.86-1.137,2.293,2.293,0,0,0,0,4.579,2.036,2.036,0,0,0,1.86-1.138l1.859,1.015a3.836,3.836,0,0,1-3.7,2.089A4.274,4.274,0,0,1,777.535,227.751Z" fill="#68695f"/>
            <path id="Path_5272" data-name="Path 5272" d="M795.313,227.167v4.717H793.07v-1.029a2.713,2.713,0,0,1-2.52,1.152c-1.936,0-3.089-1.075-3.089-2.5,0-1.46,1.03-2.474,3.55-2.474h1.905c0-1.03-.614-1.629-1.905-1.629a3.973,3.973,0,0,0-2.382.769l-.86-1.675a6.347,6.347,0,0,1,3.564-1C793.854,223.495,795.313,224.663,795.313,227.167Zm-2.4,2.1v-.845h-1.644c-1.121,0-1.475.415-1.475.968,0,.6.507,1,1.352,1A1.765,1.765,0,0,0,792.916,229.272Zm-.86-6.715h-1.875l2.074-2.212h2.582Z" fill="#68695f"/>
            <path id="Path_5273" data-name="Path 5273" d="M811.817,227.152v4.732h-2.4v-4.363c0-1.337-.614-1.952-1.674-1.952-1.153,0-1.983.707-1.983,2.228v4.087h-2.4v-8.266h2.289v.968a3.617,3.617,0,0,1,2.735-1.091C810.341,223.495,811.817,224.632,811.817,227.152Z" fill="#68695f"/>
            <path id="Path_5274" data-name="Path 5274" d="M823.372,223.618V230.5c0,3.073-1.66,4.486-4.64,4.486a6.809,6.809,0,0,1-4.057-1.137l.952-1.721a4.94,4.94,0,0,0,2.92.937c1.691,0,2.428-.768,2.428-2.258v-.354a3.4,3.4,0,0,1-2.612,1.03,4,4,0,1,1,0-7.99,3.319,3.319,0,0,1,2.735,1.183v-1.06Zm-2.367,3.872a2.179,2.179,0,1,0-2.166,2.028A2.007,2.007,0,0,0,821.005,227.49Z" fill="#68695f"/>
            <path id="Path_5275" data-name="Path 5275" d="M834.7,225v6.883h-2.275V230.9a3.343,3.343,0,0,1-2.565,1.106c-2.075,0-3.534-1.168-3.534-3.718v-4.671h2.4v4.318c0,1.382.615,2,1.675,2,1.106,0,1.9-.707,1.9-2.228v-4.087h1.276a.9.9,0,0,0,.921-.968,1.483,1.483,0,0,0-.306-.922l1.413-.523a2.48,2.48,0,0,1,.492,1.537A2.252,2.252,0,0,1,834.7,225Zm-4.671-2.444-2.781-2.212h2.581l2.074,2.212Z" fill="#68695f"/>
            <path id="Path_5276" data-name="Path 5276" d="M848.158,223.495v2.213c-.2-.016-.354-.031-.538-.031a2.031,2.031,0,0,0-2.2,2.3v3.9h-2.4v-8.266h2.289v1.091A3.336,3.336,0,0,1,848.158,223.495Z" fill="#68695f"/>
            <path id="Path_5277" data-name="Path 5277" d="M850.064,221.129a1.37,1.37,0,0,1,1.49-1.337,1.345,1.345,0,0,1,1.49,1.29,1.5,1.5,0,0,1-2.98.047Zm.292,2.489h2.4v8.266h-2.4Z" fill="#68695f"/>
            <path id="Path_5278" data-name="Path 5278" d="M869.716,227.152v4.732h-2.4v-4.363c0-1.337-.6-1.952-1.568-1.952-1.075,0-1.828.691-1.828,2.166v4.149h-2.4v-4.363c0-1.337-.569-1.952-1.568-1.952-1.06,0-1.813.691-1.813,2.166v4.149h-2.4v-8.266h2.29v.952a3.348,3.348,0,0,1,2.6-1.075,3.087,3.087,0,0,1,2.72,1.352,3.717,3.717,0,0,1,2.981-1.352C868.3,223.495,869.716,224.632,869.716,227.152Z" fill="#68695f"/>
            <path id="Path_5279" data-name="Path 5279" d="M883.086,231.485a3.43,3.43,0,0,1-1.952.522c-1.951,0-3.088-1-3.088-2.965v-3.4h-1.275V223.8h1.275v-2.013h2.4V223.8H882.5v1.844h-2.059v3.365a.965.965,0,0,0,1.03,1.091,1.623,1.623,0,0,0,.968-.307Z" fill="#68695f"/>
            <path id="Path_5280" data-name="Path 5280" d="M884.914,221.129a1.371,1.371,0,0,1,1.491-1.337,1.345,1.345,0,0,1,1.49,1.29,1.5,1.5,0,0,1-2.981.047Zm.292,2.489h2.4v8.266h-2.4Z" fill="#68695f"/>
            <path id="Path_5281" data-name="Path 5281" d="M898.652,228.427H892.4a2.2,2.2,0,0,0,2.366,1.66,2.8,2.8,0,0,0,2.074-.8l1.276,1.383a4.333,4.333,0,0,1-3.411,1.336c-2.859,0-4.717-1.8-4.717-4.256a4.207,4.207,0,0,1,4.409-4.256,4.093,4.093,0,0,1,4.3,4.287C898.7,227.966,898.666,228.227,898.652,228.427Zm-5.64-5.87H891.26l2.029-2.212h2.121l2.028,2.212h-1.752l-1.337-1.167Zm-.645,4.472h4.072a2.065,2.065,0,0,0-4.072,0Z" fill="#68695f"/>
            <path id="Path_5282" data-name="Path 5282" d="M909.393,223.618v8.266h-2.274V230.9a3.345,3.345,0,0,1-2.566,1.106c-2.075,0-3.534-1.168-3.534-3.718v-4.671h2.4v4.318c0,1.382.616,2,1.675,2,1.107,0,1.906-.707,1.906-2.228v-4.087Z" fill="#68695f"/>
            <path id="Path_5283" data-name="Path 5283" d="M922.838,231.485a3.43,3.43,0,0,1-1.952.522c-1.951,0-3.088-1-3.088-2.965v-3.4h-1.275V223.8H917.8v-2.013h2.4V223.8h2.059v1.844H920.2v3.365a.965.965,0,0,0,1.03,1.091,1.623,1.623,0,0,0,.968-.307Z" fill="#68695f"/>
            <path id="Path_5284" data-name="Path 5284" d="M924.083,227.751a4.55,4.55,0,1,1,4.548,4.256A4.255,4.255,0,0,1,924.083,227.751Zm6.653,0a2.119,2.119,0,1,0-2.105,2.29A2.086,2.086,0,0,0,930.736,227.751Zm-2.428-5.839c.6-.277.784-.584.784-.937a.651.651,0,0,0-.722-.645,1.623,1.623,0,0,0-.907.291l-.491-.968a2.674,2.674,0,0,1,1.659-.522,1.665,1.665,0,0,1,1.844,1.644,2.064,2.064,0,0,1-1.414,1.936Z" fill="#68695f"/>
            <path id="Path_5285" data-name="Path 5285" d="M935.24,221.129a1.37,1.37,0,0,1,1.49-1.337,1.344,1.344,0,0,1,1.49,1.29,1.5,1.5,0,0,1-2.98.047Zm.292,2.489h2.4v8.266h-2.4Z" fill="#68695f"/>
            <path id="Path_5286" data-name="Path 5286" d="M955.916,225.2h2.44v1.1h-1.035v6.23h1.035v1.1h-2.44Z" fill="#68695f"/>
            <path id="Path_5287" data-name="Path 5287" d="M964.044,229.9c0,1.116-.819,2.088-2.619,2.088a4.354,4.354,0,0,1-2.4-.675l.576-1.116a3.037,3.037,0,0,0,1.792.567c.729,0,1.179-.306,1.179-.819,0-.5-.324-.819-1.467-.819H959.49l.323-3.547h3.845v1.17h-2.629l-.1,1.2h.513C963.306,227.95,964.044,228.788,964.044,229.9Z" fill="#e72024"/>
            <path id="Path_5288" data-name="Path 5288" d="M965.087,228.734c0-2.08,1.153-3.26,2.7-3.26s2.7,1.18,2.7,3.26-1.144,3.258-2.7,3.258S965.087,230.813,965.087,228.734Zm3.934,0c0-1.432-.5-2.026-1.233-2.026s-1.225.594-1.225,2.026.505,2.025,1.225,2.025S969.021,230.165,969.021,228.734Z" fill="#e72024"/>
            <path id="Path_5289" data-name="Path 5289" d="M971.648,228.734c0-2.08,1.152-3.26,2.7-3.26s2.7,1.18,2.7,3.26-1.143,3.258-2.7,3.258S971.648,230.813,971.648,228.734Zm3.933,0c0-1.432-.5-2.026-1.233-2.026s-1.225.594-1.225,2.026.505,2.025,1.225,2.025S975.581,230.165,975.581,228.734Z" fill="#e72024"/>
            <path id="Path_5290" data-name="Path 5290" d="M980.9,229.409l-.847.882v1.593H978.6v-6.3h1.449v2.943l2.791-2.943h1.621l-2.611,2.808,2.764,3.493h-1.7Z" fill="#e72024"/>
            <path id="Path_5291" data-name="Path 5291" d="M985.057,229.463a2.5,2.5,0,0,1,2.7-2.494,2.223,2.223,0,0,1,2.169,1.233l-1.089.586a1.206,1.206,0,0,0-1.09-.667,1.344,1.344,0,0,0,0,2.683,1.191,1.191,0,0,0,1.09-.666l1.089.594a2.246,2.246,0,0,1-2.169,1.225A2.5,2.5,0,0,1,985.057,229.463Z" fill="#e72024"/>
            <path id="Path_5292" data-name="Path 5292" d="M995.472,229.121v2.763h-1.314v-.6a1.591,1.591,0,0,1-1.477.676c-1.135,0-1.809-.631-1.809-1.468,0-.855.6-1.449,2.08-1.449h1.116c0-.6-.361-.955-1.116-.955a2.329,2.329,0,0,0-1.4.45l-.505-.981a3.725,3.725,0,0,1,2.089-.585C994.617,226.969,995.472,227.653,995.472,229.121Zm-1.4,1.233v-.5H993.1c-.657,0-.864.243-.864.567,0,.351.3.585.793.585A1.035,1.035,0,0,0,994.068,230.354Z" fill="#e72024"/>
            <path id="Path_5293" data-name="Path 5293" d="M997.19,225.2h1.4v6.68h-1.4Z" fill="#e72024"/>
            <path id="Path_5294" data-name="Path 5294" d="M999.835,233.631v-1.1h1.027V226.3h-1.027v-1.1h2.431v8.427Z" fill="#68695f"/>
            <path id="Path_5295" data-name="Path 5295" d="M722.124,251.753c0,2.2-1.8,3.58-4.072,3.58-2.965,0-4.808-1.859-4.808-5.332,0-3.718,2.243-5.793,5.485-5.793a5.8,5.8,0,0,1,3,.738l-.922,1.829a3.54,3.54,0,0,0-2.013-.539c-1.8,0-2.95,1.06-3.027,3.12a3.631,3.631,0,0,1,2.658-.953A3.412,3.412,0,0,1,722.124,251.753Zm-2.412.123a1.622,1.622,0,0,0-1.829-1.614,1.682,1.682,0,0,0-1.858,1.614c0,.921.691,1.6,1.889,1.6A1.608,1.608,0,0,0,719.712,251.876Z" fill="#68695f"/>
            <path id="Path_5296" data-name="Path 5296" d="M723.876,253.766a1.491,1.491,0,0,1,2.981,0,1.491,1.491,0,1,1-2.981,0Z" fill="#68695f"/>
            <path id="Path_5297" data-name="Path 5297" d="M733.865,249.771a5.922,5.922,0,0,1,10.263-3.658l-1.6,1.475a3.463,3.463,0,0,0-2.7-1.259,3.442,3.442,0,1,0,0,6.884,3.43,3.43,0,0,0,2.7-1.276l1.6,1.475a5.911,5.911,0,0,1-10.263-3.641Z" fill="#68695f"/>
            <path id="Path_5298" data-name="Path 5298" d="M754.579,251.015a4.551,4.551,0,1,1-4.518-4.256c.8,0,1.26.138,1.828.138a.915.915,0,0,0,.983-1,1.554,1.554,0,0,0-.322-.922l1.4-.523a2.571,2.571,0,0,1,.522,1.537,2.144,2.144,0,0,1-1.167,1.982A4.084,4.084,0,0,1,754.579,251.015Zm-2.429,0a2.119,2.119,0,1,0-2.105,2.29A2.086,2.086,0,0,0,752.15,251.015Z" fill="#68695f"/>
            <path id="Path_5299" data-name="Path 5299" d="M770.912,250.416v4.733h-2.4v-4.364c0-1.337-.6-1.952-1.567-1.952-1.076,0-1.828.692-1.828,2.167v4.149h-2.4v-4.364c0-1.337-.568-1.952-1.567-1.952-1.061,0-1.814.692-1.814,2.167v4.149h-2.4v-8.267h2.289v.953a3.349,3.349,0,0,1,2.6-1.076,3.086,3.086,0,0,1,2.719,1.352,3.719,3.719,0,0,1,2.982-1.352C769.5,246.759,770.912,247.9,770.912,250.416Z" fill="#68695f"/>
            <path id="Path_5300" data-name="Path 5300" d="M787.954,251.015a4.016,4.016,0,0,1-4.119,4.257,3.212,3.212,0,0,1-2.6-1.076v.953H778.95v-11.4h2.4v4.011a3.211,3.211,0,0,1,2.489-1A4.016,4.016,0,0,1,787.954,251.015Zm-2.428,0a2.112,2.112,0,1,0-2.1,2.29A2.086,2.086,0,0,0,785.526,251.015Z" fill="#68695f"/>
            <path id="Path_5301" data-name="Path 5301" d="M789.705,251.015a4.55,4.55,0,1,1,4.548,4.257A4.255,4.255,0,0,1,789.705,251.015Zm1.26-7.406h2.581l2.075,2.212h-1.874Zm5.393,7.406a2.119,2.119,0,1,0-2.1,2.29A2.085,2.085,0,0,0,796.358,251.015Z" fill="#68695f"/>
            <path id="Path_5302" data-name="Path 5302" d="M805.471,254.38l.8-1.721a5.647,5.647,0,0,0,2.873.8c1.106,0,1.521-.291,1.521-.753,0-1.352-4.994.031-4.994-3.272,0-1.568,1.414-2.674,3.827-2.674a6.8,6.8,0,0,1,3.18.722l-.8,1.706a4.746,4.746,0,0,0-2.381-.615c-1.076,0-1.537.338-1.537.768,0,1.414,4.994.046,4.994,3.3,0,1.536-1.429,2.628-3.9,2.628A7.1,7.1,0,0,1,805.471,254.38Z" fill="#68695f"/>
            <path id="Path_5303" data-name="Path 5303" d="M823.664,251.015a4.55,4.55,0,1,1-4.533-4.256A4.243,4.243,0,0,1,823.664,251.015Zm-5.885-5.194h-1.767l2.043-1.751h2.09l2.044,1.751h-1.767l-1.322-.875Zm3.457,5.194a2.119,2.119,0,1,0-2.105,2.29A2.086,2.086,0,0,0,821.236,251.015Zm1.445-6.669h-1.736l1.705-1.859h2.443Z" fill="#68695f"/>
            <path id="Path_5304" data-name="Path 5304" d="M831.364,254.749a3.423,3.423,0,0,1-1.952.523c-1.952,0-3.088-1-3.088-2.966v-3.4h-1.276v-1.844h1.276v-2.013h2.4v2.013h2.06v1.844h-2.06v3.365a.965.965,0,0,0,1.03,1.091,1.623,1.623,0,0,0,.968-.307Z" fill="#68695f"/>
            <path id="Path_5305" data-name="Path 5305" d="M843.933,254.749a3.423,3.423,0,0,1-1.952.523c-1.951,0-3.088-1-3.088-2.966v-3.4h-1.275v-1.844h1.275v-2.013h2.4v2.013h2.06v1.844h-2.06v3.365a.965.965,0,0,0,1.031,1.091,1.625,1.625,0,0,0,.968-.307Z" fill="#68695f"/>
            <path id="Path_5306" data-name="Path 5306" d="M845.761,244.393a1.37,1.37,0,0,1,1.49-1.337,1.345,1.345,0,0,1,1.491,1.29,1.5,1.5,0,0,1-2.981.047Zm.292,2.489h2.4v8.267h-2.4Z" fill="#68695f"/>
            <path id="Path_5307" data-name="Path 5307" d="M859.5,251.692h-6.253a2.2,2.2,0,0,0,2.366,1.659,2.8,2.8,0,0,0,2.074-.8l1.275,1.383a4.329,4.329,0,0,1-3.411,1.337c-2.858,0-4.718-1.8-4.718-4.257a4.209,4.209,0,0,1,4.411-4.256,4.093,4.093,0,0,1,4.3,4.287C859.544,251.23,859.513,251.491,859.5,251.692Zm-5.639-5.871h-1.752l2.028-2.212h2.121l2.029,2.212h-1.752l-1.337-1.167Zm-.646,4.472h4.073a2.065,2.065,0,0,0-4.073,0Z" fill="#68695f"/>
            <path id="Path_5308" data-name="Path 5308" d="M870.24,246.882v8.267h-2.275v-.984a3.344,3.344,0,0,1-2.565,1.107c-2.075,0-3.534-1.168-3.534-3.719v-4.671h2.4V251.2c0,1.383.615,2,1.675,2,1.106,0,1.9-.707,1.9-2.228v-4.087Z" fill="#68695f"/>
            <path id="Path_5309" data-name="Path 5309" d="M887.9,246.037h-1.122v9.112h-2.289V254.2a3.183,3.183,0,0,1-2.581,1.076,4.258,4.258,0,0,1,0-8.513,3.176,3.176,0,0,1,2.473,1v-1.721h-2.812v-1.383h2.812v-.907h2.4v.907H887.9Zm-3.473,4.978a2.119,2.119,0,1,0-2.1,2.29A2.094,2.094,0,0,0,884.423,251.015Z" fill="#68695f"/>
            <path id="Path_5310" data-name="Path 5310" d="M897.807,251.692h-6.254a2.205,2.205,0,0,0,2.366,1.659,2.808,2.808,0,0,0,2.075-.8l1.275,1.383a4.33,4.33,0,0,1-3.411,1.337c-2.859,0-4.718-1.8-4.718-4.257a4.209,4.209,0,0,1,4.41-4.256,4.093,4.093,0,0,1,4.3,4.287C897.853,251.23,897.822,251.491,897.807,251.692Zm-6.285-1.4h4.072a2.065,2.065,0,0,0-4.072,0Z" fill="#68695f"/>
            <path id="Path_5311" data-name="Path 5311" d="M908.67,250.416v4.733h-2.4v-4.364c0-1.337-.614-1.952-1.675-1.952-1.152,0-1.982.707-1.982,2.228v4.088h-2.4v-8.267h2.289v.968a3.621,3.621,0,0,1,2.736-1.091C907.2,246.759,908.67,247.9,908.67,250.416Z" fill="#68695f"/>
            <path id="Path_5312" data-name="Path 5312" d="M926.6,248.468h2.44v1.1H928V255.8h1.036v1.1H926.6Z" fill="#68695f"/>
            <path id="Path_5313" data-name="Path 5313" d="M934.725,253.168c0,1.116-.819,2.088-2.619,2.088a4.354,4.354,0,0,1-2.4-.675l.576-1.116a3.035,3.035,0,0,0,1.792.567c.728,0,1.178-.306,1.178-.819,0-.495-.323-.819-1.466-.819H930.17l.324-3.547h3.844v1.17h-2.629l-.1,1.2h.512C933.987,251.214,934.725,252.051,934.725,253.168Z" fill="#e72024"/>
            <path id="Path_5314" data-name="Path 5314" d="M940.432,253.96v1.189h-4.763V254.2l2.431-2.295c.559-.531.657-.856.657-1.162,0-.495-.342-.783-1.008-.783a1.539,1.539,0,0,0-1.305.63l-1.063-.684a2.928,2.928,0,0,1,2.5-1.17c1.405,0,2.341.72,2.341,1.863a2.514,2.514,0,0,1-1.054,1.99l-1.449,1.368Z" fill="#e72024"/>
            <path id="Path_5315" data-name="Path 5315" d="M946.246,253.168c0,1.116-.82,2.088-2.62,2.088a4.354,4.354,0,0,1-2.4-.675l.576-1.116a3.037,3.037,0,0,0,1.792.567c.729,0,1.179-.306,1.179-.819,0-.495-.324-.819-1.467-.819h-1.611l.323-3.547h3.845v1.17H943.23l-.1,1.2h.513C945.507,251.214,946.246,252.051,946.246,253.168Z" fill="#e72024"/>
            <path id="Path_5316" data-name="Path 5316" d="M949.98,252.673l-.847.882v1.594h-1.449v-6.3h1.449v2.944l2.791-2.944h1.621l-2.611,2.808,2.764,3.494H952Z" fill="#e72024"/>
            <path id="Path_5317" data-name="Path 5317" d="M954.137,252.727a2.5,2.5,0,0,1,2.7-2.494,2.224,2.224,0,0,1,2.169,1.233l-1.089.585a1.206,1.206,0,0,0-1.089-.666,1.344,1.344,0,0,0,0,2.683,1.19,1.19,0,0,0,1.089-.666l1.089.594a2.244,2.244,0,0,1-2.169,1.224A2.5,2.5,0,0,1,954.137,252.727Z" fill="#e72024"/>
            <path id="Path_5318" data-name="Path 5318" d="M964.551,252.385v2.764h-1.314v-.6a1.592,1.592,0,0,1-1.477.674c-1.134,0-1.809-.63-1.809-1.467,0-.855.6-1.449,2.08-1.449h1.116c0-.6-.36-.955-1.116-.955a2.336,2.336,0,0,0-1.4.45l-.505-.981a3.728,3.728,0,0,1,2.089-.585C963.7,250.233,964.551,250.917,964.551,252.385Zm-1.4,1.233v-.495h-.964c-.657,0-.864.243-.864.567,0,.351.3.585.793.585A1.034,1.034,0,0,0,963.147,253.618Z" fill="#e72024"/>
            <path id="Path_5319" data-name="Path 5319" d="M966.269,248.468h1.4v6.681h-1.4Z" fill="#e72024"/>
            <path id="Path_5320" data-name="Path 5320" d="M968.914,256.895v-1.1h1.027v-6.229h-1.027v-1.1h2.431v8.427Z" fill="#68695f"/>
            <path id="Path_5321" data-name="Path 5321" d="M721.664,267.656v1.614l-4,9.142h-2.7l3.857-8.727h-3.565v1.751h-2.213v-3.78Z" fill="#68695f"/>
            <path id="Path_5322" data-name="Path 5322" d="M722.709,277.029a1.491,1.491,0,0,1,2.981,0,1.491,1.491,0,1,1-2.981,0Z" fill="#68695f"/>
            <path id="Path_5323" data-name="Path 5323" d="M732.7,273.034a5.922,5.922,0,0,1,10.263-3.657l-1.6,1.475a3.464,3.464,0,0,0-2.7-1.26,3.442,3.442,0,1,0,0,6.884,3.429,3.429,0,0,0,2.7-1.275l1.6,1.475a5.911,5.911,0,0,1-10.263-3.642Z" fill="#68695f"/>
            <path id="Path_5324" data-name="Path 5324" d="M753.411,274.279a4.55,4.55,0,1,1-4.518-4.256c.8,0,1.26.138,1.828.138a.916.916,0,0,0,.984-1,1.56,1.56,0,0,0-.323-.922l1.4-.522a2.569,2.569,0,0,1,.522,1.537,2.141,2.141,0,0,1-1.167,1.981A4.085,4.085,0,0,1,753.411,274.279Zm-2.429,0a2.119,2.119,0,1,0-2.1,2.289A2.086,2.086,0,0,0,750.982,274.279Z" fill="#68695f"/>
            <path id="Path_5325" data-name="Path 5325" d="M769.744,273.68v4.732h-2.4v-4.364c0-1.336-.6-1.951-1.567-1.951-1.075,0-1.828.691-1.828,2.166v4.149h-2.4v-4.364c0-1.336-.568-1.951-1.567-1.951-1.061,0-1.814.691-1.814,2.166v4.149h-2.4v-8.266h2.289v.952a3.348,3.348,0,0,1,2.6-1.075,3.084,3.084,0,0,1,2.719,1.352,3.719,3.719,0,0,1,2.982-1.352C768.331,270.023,769.744,271.16,769.744,273.68Z" fill="#68695f"/>
            <path id="Path_5326" data-name="Path 5326" d="M776.983,277.644l.8-1.721a5.647,5.647,0,0,0,2.873.8c1.106,0,1.521-.292,1.521-.753,0-1.352-4.994.031-4.994-3.273,0-1.567,1.414-2.673,3.826-2.673a6.8,6.8,0,0,1,3.181.722l-.8,1.705a4.746,4.746,0,0,0-2.382-.614c-1.075,0-1.536.338-1.536.768,0,1.414,4.993.046,4.993,3.3,0,1.536-1.428,2.627-3.9,2.627A7.091,7.091,0,0,1,776.983,277.644Z" fill="#68695f"/>
            <path id="Path_5327" data-name="Path 5327" d="M795.038,271.528v6.884h-2.275v-.983a3.344,3.344,0,0,1-2.565,1.106c-2.076,0-3.534-1.168-3.534-3.718v-4.671h2.4v4.317c0,1.383.615,2,1.675,2,1.106,0,1.905-.707,1.905-2.228v-4.087h1.275a.9.9,0,0,0,.922-.969,1.487,1.487,0,0,0-.306-.922l1.413-.522a2.484,2.484,0,0,1,.492,1.537A2.25,2.25,0,0,1,795.038,271.528Z" fill="#68695f"/>
            <path id="Path_5328" data-name="Path 5328" d="M806.409,274.279a4.55,4.55,0,1,1-4.518-4.256c.8,0,1.26.138,1.828.138a.916.916,0,0,0,.984-1,1.56,1.56,0,0,0-.323-.922l1.4-.522a2.568,2.568,0,0,1,.522,1.537,2.14,2.14,0,0,1-1.167,1.981A4.085,4.085,0,0,1,806.409,274.279Zm-5.01-5.194-2.781-2.212H801.2l2.074,2.212Zm2.581,5.194a2.119,2.119,0,1,0-2.1,2.289A2.086,2.086,0,0,0,803.98,274.279Z" fill="#68695f"/>
            <path id="Path_5329" data-name="Path 5329" d="M817.227,273.68v4.732h-2.4v-4.364c0-1.336-.615-1.951-1.675-1.951-1.153,0-1.983.707-1.983,2.228v4.087h-2.4v-8.266h2.289v.967a3.62,3.62,0,0,1,2.735-1.09C815.751,270.023,817.227,271.16,817.227,273.68Z" fill="#68695f"/>
            <path id="Path_5330" data-name="Path 5330" d="M833.73,273.68v4.732h-2.4v-4.364c0-1.336-.614-1.951-1.674-1.951-1.153,0-1.983.707-1.983,2.228v4.087h-2.4v-8.266h2.289v.967a3.62,3.62,0,0,1,2.735-1.09C832.254,270.023,833.73,271.16,833.73,273.68Z" fill="#68695f"/>
            <path id="Path_5331" data-name="Path 5331" d="M844.994,271.528v6.884h-2.275v-.983a3.344,3.344,0,0,1-2.565,1.106c-2.075,0-3.534-1.168-3.534-3.718v-4.671h2.4v4.317c0,1.383.615,2,1.675,2,1.106,0,1.905-.707,1.905-2.228v-4.087h1.276a.9.9,0,0,0,.921-.969,1.487,1.487,0,0,0-.306-.922l1.413-.522a2.485,2.485,0,0,1,.492,1.537A2.251,2.251,0,0,1,844.994,271.528Z" fill="#68695f"/>
            <path id="Path_5332" data-name="Path 5332" d="M856.365,274.279a4.551,4.551,0,1,1-4.518-4.256c.8,0,1.26.138,1.828.138a.916.916,0,0,0,.984-1,1.56,1.56,0,0,0-.323-.922l1.4-.522a2.568,2.568,0,0,1,.522,1.537,2.139,2.139,0,0,1-1.167,1.981A4.085,4.085,0,0,1,856.365,274.279Zm-2.429,0a2.119,2.119,0,1,0-2.1,2.289A2.086,2.086,0,0,0,853.936,274.279Zm-1.628-5.194h-1.875l2.074-2.212h2.582Z" fill="#68695f"/>
            <path id="Path_5333" data-name="Path 5333" d="M867.182,273.68v4.732h-2.4v-4.364c0-1.336-.615-1.951-1.675-1.951-1.153,0-1.983.707-1.983,2.228v4.087h-2.4v-8.266h2.289v.967a3.62,3.62,0,0,1,2.735-1.09C865.706,270.023,867.182,271.16,867.182,273.68Z" fill="#68695f"/>
            <path id="Path_5334" data-name="Path 5334" d="M878.737,270.146v6.883c0,3.074-1.659,4.487-4.64,4.487a6.812,6.812,0,0,1-4.057-1.137l.953-1.721a4.938,4.938,0,0,0,2.92.937c1.69,0,2.427-.768,2.427-2.258v-.354a3.406,3.406,0,0,1-2.612,1.03,4,4,0,1,1,0-7.99,3.319,3.319,0,0,1,2.735,1.183v-1.06Zm-2.366,3.872a2.179,2.179,0,1,0-2.166,2.028A2.008,2.008,0,0,0,876.371,274.018Z" fill="#68695f"/>
            <path id="Path_5335" data-name="Path 5335" d="M896.885,275.477c0,1.86-1.474,2.935-4.3,2.935h-5.562V267.656h5.255c2.689,0,4.072,1.122,4.072,2.8a2.586,2.586,0,0,1-1.43,2.366A2.655,2.655,0,0,1,896.885,275.477Zm-7.39-5.946v2.535h2.473c1.214,0,1.875-.43,1.875-1.275s-.661-1.26-1.875-1.26Zm4.886,5.685c0-.906-.691-1.336-1.982-1.336h-2.9v2.658h2.9C893.69,276.538,894.381,276.138,894.381,275.216Z" fill="#68695f"/>
            <path id="Path_5336" data-name="Path 5336" d="M909.409,275.477c0,1.86-1.475,2.935-4.3,2.935h-5.563V267.656H904.8c2.69,0,4.073,1.122,4.073,2.8a2.586,2.586,0,0,1-1.43,2.366A2.656,2.656,0,0,1,909.409,275.477Zm-7.391-5.946v2.535h2.474c1.214,0,1.875-.43,1.875-1.275s-.661-1.26-1.875-1.26Zm4.887,5.685c0-.906-.692-1.336-1.983-1.336h-2.9v2.658h2.9C906.213,276.538,906.905,276.138,906.905,275.216Z" fill="#68695f"/>
            <path id="Path_5337" data-name="Path 5337" d="M923.7,279.565a3.646,3.646,0,0,1-2.905,1.321c-1.6,0-2.719-.584-4.379-2.336a5.489,5.489,0,0,1-5.024-5.516,5.894,5.894,0,0,1,11.77,0,5.413,5.413,0,0,1-3.841,5.255,1.986,1.986,0,0,0,1.52.753,2.335,2.335,0,0,0,1.752-.8Zm-6.423-3.089a3.443,3.443,0,1,0-3.365-3.442A3.281,3.281,0,0,0,917.277,276.476Z" fill="#68695f"/>
            <path id="Path_5338" data-name="Path 5338" d="M940.627,271.732h2.44v1.1h-1.035v6.229h1.035v1.1h-2.44Z" fill="#68695f"/>
            <path id="Path_5339" data-name="Path 5339" d="M948.755,276.432c0,1.116-.819,2.088-2.619,2.088a4.354,4.354,0,0,1-2.4-.675l.576-1.116a3.037,3.037,0,0,0,1.792.567c.729,0,1.179-.306,1.179-.819,0-.495-.324-.82-1.467-.82H944.2l.323-3.547h3.845v1.171H945.74l-.1,1.2h.513C948.017,274.478,948.755,275.315,948.755,276.432Z" fill="#e72024"/>
            <path id="Path_5340" data-name="Path 5340" d="M955.074,276.585c0,1.188-1.063,1.935-2.665,1.935s-2.647-.747-2.647-1.935a1.6,1.6,0,0,1,.954-1.486,1.453,1.453,0,0,1-.729-1.3c0-1.108.99-1.8,2.422-1.8,1.449,0,2.439.692,2.439,1.8a1.461,1.461,0,0,1-.738,1.3A1.6,1.6,0,0,1,955.074,276.585Zm-1.477-.045c0-.558-.459-.9-1.188-.9s-1.17.343-1.17.9.449.909,1.17.909S953.6,277.1,953.6,276.54Zm-2.161-2.674c0,.477.379.774.973.774s.99-.3.99-.774c0-.495-.4-.792-.99-.792S951.436,273.371,951.436,273.866Z" fill="#e72024"/>
            <path id="Path_5341" data-name="Path 5341" d="M956.189,275.261c0-2.079,1.152-3.258,2.7-3.258s2.7,1.179,2.7,3.258-1.143,3.259-2.7,3.259S956.189,277.341,956.189,275.261Zm3.933,0c0-1.431-.5-2.026-1.233-2.026s-1.225.6-1.225,2.026.505,2.026,1.225,2.026S960.122,276.692,960.122,275.261Z" fill="#e72024"/>
            <path id="Path_5342" data-name="Path 5342" d="M965.441,275.937l-.847.882v1.593h-1.449v-6.3h1.449v2.944l2.791-2.944h1.621l-2.611,2.809,2.764,3.493h-1.7Z" fill="#e72024"/>
            <path id="Path_5343" data-name="Path 5343" d="M969.6,275.99a2.5,2.5,0,0,1,2.7-2.493,2.223,2.223,0,0,1,2.169,1.233l-1.089.585a1.207,1.207,0,0,0-1.09-.666,1.344,1.344,0,0,0,0,2.683,1.191,1.191,0,0,0,1.09-.666l1.089.594a2.245,2.245,0,0,1-2.169,1.224A2.5,2.5,0,0,1,969.6,275.99Z" fill="#e72024"/>
            <path id="Path_5344" data-name="Path 5344" d="M980.012,275.649v2.763H978.7v-.6a1.591,1.591,0,0,1-1.477.675c-1.134,0-1.809-.63-1.809-1.467,0-.855.6-1.45,2.08-1.45h1.116c0-.6-.361-.954-1.116-.954a2.329,2.329,0,0,0-1.4.45l-.505-.981a3.726,3.726,0,0,1,2.089-.585C979.157,273.5,980.012,274.181,980.012,275.649Zm-1.4,1.233v-.495h-.964c-.657,0-.864.243-.864.567,0,.351.3.585.793.585A1.035,1.035,0,0,0,978.608,276.882Z" fill="#e72024"/>
            <path id="Path_5345" data-name="Path 5345" d="M981.73,271.732h1.4v6.68h-1.4Z" fill="#e72024"/>
            <path id="Path_5346" data-name="Path 5346" d="M984.375,280.159v-1.1H985.4v-6.229h-1.027v-1.1h2.431v8.427Z" fill="#68695f"/>
          </g>
        </g>
      </g>
    </g>
    <g id="Group_506" data-name="Group 506" transform="translate(-712.628 -126.736)">
      <g id="Group_505" data-name="Group 505">
        <path id="Path_5347" data-name="Path 5347" d="M1153.422,128.073v1.614l-3.995,9.142h-2.7l3.857-8.727h-3.565v1.751H1144.8v-3.78Z" fill="#e72024"/>
        <path id="Path_5348" data-name="Path 5348" d="M1154.991,133.451c0-3.549,1.966-5.562,4.609-5.562,2.658,0,4.609,2.013,4.609,5.562s-1.951,5.563-4.609,5.563C1156.957,139.014,1154.991,137,1154.991,133.451Zm6.715,0c0-2.443-.862-3.457-2.106-3.457-1.229,0-2.09,1.014-2.09,3.457s.861,3.457,2.09,3.457C1160.844,136.908,1161.706,135.894,1161.706,133.451Z" fill="#e72024"/>
        <path id="Path_5349" data-name="Path 5349" d="M1165.916,137.446a1.491,1.491,0,0,1,2.981,0,1.491,1.491,0,1,1-2.981,0Z" fill="#e72024"/>
        <path id="Path_5350" data-name="Path 5350" d="M1170.588,133.451c0-3.549,1.967-5.562,4.61-5.562,2.658,0,4.609,2.013,4.609,5.562s-1.951,5.563-4.609,5.563C1172.555,139.014,1170.588,137,1170.588,133.451Zm6.715,0c0-2.443-.861-3.457-2.1-3.457s-2.09,1.014-2.09,3.457.86,3.457,2.09,3.457S1177.3,135.894,1177.3,133.451Z" fill="#e72024"/>
        <path id="Path_5351" data-name="Path 5351" d="M1181.79,133.451c0-3.549,1.967-5.562,4.61-5.562s4.609,2.013,4.609,5.562-1.951,5.563-4.609,5.563S1181.79,137,1181.79,133.451Zm6.715,0c0-2.443-.861-3.457-2.1-3.457s-2.09,1.014-2.09,3.457.86,3.457,2.09,3.457S1188.505,135.894,1188.505,133.451Z" fill="#e72024"/>
        <path id="Path_5352" data-name="Path 5352" d="M1192.993,133.451c0-3.549,1.966-5.562,4.609-5.562s4.609,2.013,4.609,5.562-1.951,5.563-4.609,5.563S1192.993,137,1192.993,133.451Zm6.714,0c0-2.443-.861-3.457-2.1-3.457s-2.09,1.014-2.09,3.457.86,3.457,2.09,3.457S1199.707,135.894,1199.707,133.451Z" fill="#e72024"/>
        <path id="Path_5353" data-name="Path 5353" d="M1214.244,129.717h-1.122v9.112h-2.29v-.952a3.179,3.179,0,0,1-2.581,1.075,4.258,4.258,0,0,1,0-8.512,3.174,3.174,0,0,1,2.474,1v-1.722h-2.812v-1.382h2.812v-.907h2.4v.907h1.122Zm-3.473,4.979a2.12,2.12,0,1,0-2.106,2.289A2.1,2.1,0,0,0,1210.771,134.7Z" fill="#e72024"/>
        <path id="Path_5354" data-name="Path 5354" d="M1153.422,151.337v1.613l-3.995,9.143h-2.7l3.857-8.728h-3.565v1.752H1144.8v-3.78Z" fill="#e72024"/>
        <path id="Path_5355" data-name="Path 5355" d="M1154.991,156.715c0-3.549,1.966-5.563,4.609-5.563,2.658,0,4.609,2.014,4.609,5.563s-1.951,5.562-4.609,5.562C1156.957,162.277,1154.991,160.264,1154.991,156.715Zm6.715,0c0-2.443-.862-3.458-2.106-3.458-1.229,0-2.09,1.015-2.09,3.458s.861,3.457,2.09,3.457C1160.844,160.172,1161.706,159.158,1161.706,156.715Z" fill="#e72024"/>
        <path id="Path_5356" data-name="Path 5356" d="M1165.916,160.71a1.491,1.491,0,0,1,2.981,0,1.491,1.491,0,1,1-2.981,0Z" fill="#e72024"/>
        <path id="Path_5357" data-name="Path 5357" d="M1170.588,156.715c0-3.549,1.967-5.563,4.61-5.563,2.658,0,4.609,2.014,4.609,5.563s-1.951,5.562-4.609,5.562C1172.555,162.277,1170.588,160.264,1170.588,156.715Zm6.715,0c0-2.443-.861-3.458-2.1-3.458s-2.09,1.015-2.09,3.458.86,3.457,2.09,3.457S1177.3,159.158,1177.3,156.715Z" fill="#e72024"/>
        <path id="Path_5358" data-name="Path 5358" d="M1181.79,156.715c0-3.549,1.967-5.563,4.61-5.563s4.609,2.014,4.609,5.563-1.951,5.562-4.609,5.562S1181.79,160.264,1181.79,156.715Zm6.715,0c0-2.443-.861-3.458-2.1-3.458s-2.09,1.015-2.09,3.458.86,3.457,2.09,3.457S1188.505,159.158,1188.505,156.715Z" fill="#e72024"/>
        <path id="Path_5359" data-name="Path 5359" d="M1192.993,156.715c0-3.549,1.966-5.563,4.609-5.563s4.609,2.014,4.609,5.563-1.951,5.562-4.609,5.562S1192.993,160.264,1192.993,156.715Zm6.714,0c0-2.443-.861-3.458-2.1-3.458s-2.09,1.015-2.09,3.458.86,3.457,2.09,3.457S1199.707,159.158,1199.707,156.715Z" fill="#e72024"/>
        <path id="Path_5360" data-name="Path 5360" d="M1214.244,152.981h-1.122v9.112h-2.29v-.953a3.18,3.18,0,0,1-2.581,1.076,4.258,4.258,0,0,1,0-8.513,3.178,3.178,0,0,1,2.474,1v-1.721h-2.812V151.6h2.812v-.906h2.4v.906h1.122Zm-3.473,4.979a2.12,2.12,0,1,0-2.106,2.289A2.095,2.095,0,0,0,1210.771,157.96Z" fill="#e72024"/>
        <path id="Path_5361" data-name="Path 5361" d="M1153.422,174.6v1.613l-3.995,9.143h-2.7l3.857-8.727h-3.565v1.751H1144.8V174.6Z" fill="#e72024"/>
        <path id="Path_5362" data-name="Path 5362" d="M1163.165,181.977c0,1.9-1.4,3.565-4.471,3.565a7.432,7.432,0,0,1-4.1-1.153l.984-1.905a5.179,5.179,0,0,0,3.057.968c1.245,0,2.014-.523,2.014-1.4,0-.845-.554-1.4-2.505-1.4h-2.75l.553-6.054h6.561v2h-4.487l-.169,2.043h.876C1161.906,178.642,1163.165,180.071,1163.165,181.977Z" fill="#e72024"/>
        <path id="Path_5363" data-name="Path 5363" d="M1164.872,183.974a1.49,1.49,0,0,1,2.98,0,1.49,1.49,0,1,1-2.98,0Z" fill="#e72024"/>
        <path id="Path_5364" data-name="Path 5364" d="M1169.542,179.979c0-3.549,1.967-5.562,4.61-5.562,2.658,0,4.609,2.013,4.609,5.562s-1.951,5.563-4.609,5.563C1171.509,185.542,1169.542,183.528,1169.542,179.979Zm6.715,0c0-2.443-.861-3.457-2.1-3.457s-2.09,1.014-2.09,3.457.86,3.457,2.09,3.457S1176.257,182.422,1176.257,179.979Z" fill="#e72024"/>
        <path id="Path_5365" data-name="Path 5365" d="M1180.745,179.979c0-3.549,1.966-5.562,4.609-5.562,2.658,0,4.609,2.013,4.609,5.562s-1.951,5.563-4.609,5.563C1182.711,185.542,1180.745,183.528,1180.745,179.979Zm6.714,0c0-2.443-.861-3.457-2.1-3.457s-2.09,1.014-2.09,3.457.86,3.457,2.09,3.457S1187.459,182.422,1187.459,179.979Z" fill="#e72024"/>
        <path id="Path_5366" data-name="Path 5366" d="M1191.947,179.979c0-3.549,1.967-5.562,4.609-5.562,2.658,0,4.609,2.013,4.609,5.562s-1.951,5.563-4.609,5.563C1193.914,185.542,1191.947,183.528,1191.947,179.979Zm6.715,0c0-2.443-.862-3.457-2.106-3.457-1.229,0-2.09,1.014-2.09,3.457s.861,3.457,2.09,3.457C1197.8,183.436,1198.662,182.422,1198.662,179.979Z" fill="#e72024"/>
        <path id="Path_5367" data-name="Path 5367" d="M1213.2,176.245h-1.122v9.112h-2.289V184.4a3.179,3.179,0,0,1-2.581,1.076,4.258,4.258,0,0,1,0-8.513,3.176,3.176,0,0,1,2.473,1v-1.721h-2.812v-1.383h2.812v-.906h2.4v.906h1.122Zm-3.473,4.979a2.12,2.12,0,1,0-2.1,2.289A2.095,2.095,0,0,0,1209.725,181.224Z" fill="#e72024"/>
        <path id="Path_5368" data-name="Path 5368" d="M1153.422,197.865v1.613l-3.995,9.143h-2.7l3.857-8.728h-3.565v1.752H1144.8v-3.78Z" fill="#e72024"/>
        <path id="Path_5369" data-name="Path 5369" d="M1163.165,205.24c0,1.906-1.4,3.565-4.471,3.565a7.432,7.432,0,0,1-4.1-1.153l.984-1.9a5.172,5.172,0,0,0,3.057.968c1.245,0,2.014-.522,2.014-1.4,0-.845-.554-1.4-2.505-1.4h-2.75l.553-6.054h6.561v2h-4.487l-.169,2.044h.876C1161.906,201.906,1163.165,203.335,1163.165,205.24Z" fill="#e72024"/>
        <path id="Path_5370" data-name="Path 5370" d="M1164.872,207.238a1.49,1.49,0,0,1,2.98,0,1.49,1.49,0,1,1-2.98,0Z" fill="#e72024"/>
        <path id="Path_5371" data-name="Path 5371" d="M1169.542,203.243c0-3.55,1.967-5.563,4.61-5.563,2.658,0,4.609,2.013,4.609,5.563s-1.951,5.562-4.609,5.562C1171.509,208.8,1169.542,206.792,1169.542,203.243Zm6.715,0c0-2.444-.861-3.458-2.1-3.458s-2.09,1.014-2.09,3.458.86,3.457,2.09,3.457S1176.257,205.686,1176.257,203.243Z" fill="#e72024"/>
        <path id="Path_5372" data-name="Path 5372" d="M1180.745,203.243c0-3.55,1.966-5.563,4.609-5.563,2.658,0,4.609,2.013,4.609,5.563s-1.951,5.562-4.609,5.562C1182.711,208.8,1180.745,206.792,1180.745,203.243Zm6.714,0c0-2.444-.861-3.458-2.1-3.458s-2.09,1.014-2.09,3.458.86,3.457,2.09,3.457S1187.459,205.686,1187.459,203.243Z" fill="#e72024"/>
        <path id="Path_5373" data-name="Path 5373" d="M1191.947,203.243c0-3.55,1.967-5.563,4.609-5.563,2.658,0,4.609,2.013,4.609,5.563s-1.951,5.562-4.609,5.562C1193.914,208.8,1191.947,206.792,1191.947,203.243Zm6.715,0c0-2.444-.862-3.458-2.106-3.458-1.229,0-2.09,1.014-2.09,3.458s.861,3.457,2.09,3.457C1197.8,206.7,1198.662,205.686,1198.662,203.243Z" fill="#e72024"/>
        <path id="Path_5374" data-name="Path 5374" d="M1213.2,199.509h-1.122v9.112h-2.289v-.953a3.182,3.182,0,0,1-2.581,1.076,4.258,4.258,0,0,1,0-8.513,3.176,3.176,0,0,1,2.473,1v-1.721h-2.812v-1.383h2.812v-.907h2.4v.907h1.122Zm-3.473,4.978a2.12,2.12,0,1,0-2.1,2.29A2.094,2.094,0,0,0,1209.725,204.487Z" fill="#e72024"/>
        <path id="Path_5375" data-name="Path 5375" d="M1153.422,221.129v1.613l-3.995,9.142h-2.7l3.857-8.727h-3.565v1.751H1144.8v-3.779Z" fill="#e72024"/>
        <path id="Path_5376" data-name="Path 5376" d="M1163.165,228.5c0,1.9-1.4,3.565-4.471,3.565a7.432,7.432,0,0,1-4.1-1.153l.984-1.9a5.172,5.172,0,0,0,3.057.968c1.245,0,2.014-.522,2.014-1.4,0-.846-.554-1.4-2.505-1.4h-2.75l.553-6.054h6.561v2h-4.487l-.169,2.044h.876C1161.906,225.17,1163.165,226.6,1163.165,228.5Z" fill="#e72024"/>
        <path id="Path_5377" data-name="Path 5377" d="M1164.872,230.5a1.49,1.49,0,0,1,2.98,0,1.49,1.49,0,1,1-2.98,0Z" fill="#e72024"/>
        <path id="Path_5378" data-name="Path 5378" d="M1169.542,226.506c0-3.549,1.967-5.562,4.61-5.562,2.658,0,4.609,2.013,4.609,5.562s-1.951,5.563-4.609,5.563C1171.509,232.069,1169.542,230.056,1169.542,226.506Zm6.715,0c0-2.443-.861-3.457-2.1-3.457s-2.09,1.014-2.09,3.457.86,3.457,2.09,3.457S1176.257,228.949,1176.257,226.506Z" fill="#e72024"/>
        <path id="Path_5379" data-name="Path 5379" d="M1180.745,226.506c0-3.549,1.966-5.562,4.609-5.562,2.658,0,4.609,2.013,4.609,5.562s-1.951,5.563-4.609,5.563C1182.711,232.069,1180.745,230.056,1180.745,226.506Zm6.714,0c0-2.443-.861-3.457-2.1-3.457s-2.09,1.014-2.09,3.457.86,3.457,2.09,3.457S1187.459,228.949,1187.459,226.506Z" fill="#e72024"/>
        <path id="Path_5380" data-name="Path 5380" d="M1191.947,226.506c0-3.549,1.967-5.562,4.609-5.562,2.658,0,4.609,2.013,4.609,5.562s-1.951,5.563-4.609,5.563C1193.914,232.069,1191.947,230.056,1191.947,226.506Zm6.715,0c0-2.443-.862-3.457-2.106-3.457-1.229,0-2.09,1.014-2.09,3.457s.861,3.457,2.09,3.457C1197.8,229.963,1198.662,228.949,1198.662,226.506Z" fill="#e72024"/>
        <path id="Path_5381" data-name="Path 5381" d="M1213.2,222.773h-1.122v9.111h-2.289v-.952a3.182,3.182,0,0,1-2.581,1.075,4.258,4.258,0,0,1,0-8.512,3.172,3.172,0,0,1,2.473,1v-1.721h-2.812V221.39h2.812v-.907h2.4v.907h1.122Zm-3.473,4.978a2.12,2.12,0,1,0-2.1,2.29A2.094,2.094,0,0,0,1209.725,227.751Z" fill="#e72024"/>
        <path id="Path_5382" data-name="Path 5382" d="M1153.422,244.393v1.613l-3.995,9.143h-2.7l3.857-8.728h-3.565v1.751H1144.8v-3.779Z" fill="#e72024"/>
        <path id="Path_5383" data-name="Path 5383" d="M1163.165,251.768c0,1.9-1.4,3.565-4.471,3.565a7.432,7.432,0,0,1-4.1-1.153l.984-1.9a5.172,5.172,0,0,0,3.057.968c1.245,0,2.014-.522,2.014-1.4,0-.845-.554-1.4-2.505-1.4h-2.75l.553-6.054h6.561v2h-4.487l-.169,2.044h.876C1161.906,248.434,1163.165,249.863,1163.165,251.768Z" fill="#e72024"/>
        <path id="Path_5384" data-name="Path 5384" d="M1164.872,253.766a1.49,1.49,0,0,1,2.98,0,1.49,1.49,0,1,1-2.98,0Z" fill="#e72024"/>
        <path id="Path_5385" data-name="Path 5385" d="M1169.542,249.771c0-3.55,1.967-5.563,4.61-5.563,2.658,0,4.609,2.013,4.609,5.563s-1.951,5.562-4.609,5.562C1171.509,255.333,1169.542,253.32,1169.542,249.771Zm6.715,0c0-2.444-.861-3.458-2.1-3.458s-2.09,1.014-2.09,3.458.86,3.457,2.09,3.457S1176.257,252.213,1176.257,249.771Z" fill="#e72024"/>
        <path id="Path_5386" data-name="Path 5386" d="M1180.745,249.771c0-3.55,1.966-5.563,4.609-5.563,2.658,0,4.609,2.013,4.609,5.563s-1.951,5.562-4.609,5.562C1182.711,255.333,1180.745,253.32,1180.745,249.771Zm6.714,0c0-2.444-.861-3.458-2.1-3.458s-2.09,1.014-2.09,3.458.86,3.457,2.09,3.457S1187.459,252.213,1187.459,249.771Z" fill="#e72024"/>
        <path id="Path_5387" data-name="Path 5387" d="M1191.947,249.771c0-3.55,1.967-5.563,4.609-5.563,2.658,0,4.609,2.013,4.609,5.563s-1.951,5.562-4.609,5.562C1193.914,255.333,1191.947,253.32,1191.947,249.771Zm6.715,0c0-2.444-.862-3.458-2.106-3.458-1.229,0-2.09,1.014-2.09,3.458s.861,3.457,2.09,3.457C1197.8,253.228,1198.662,252.213,1198.662,249.771Z" fill="#e72024"/>
        <path id="Path_5388" data-name="Path 5388" d="M1213.2,246.037h-1.122v9.112h-2.289V254.2a3.182,3.182,0,0,1-2.581,1.076,4.258,4.258,0,0,1,0-8.513,3.176,3.176,0,0,1,2.473,1v-1.721h-2.812v-1.383h2.812v-.907h2.4v.907h1.122Zm-3.473,4.978a2.12,2.12,0,1,0-2.1,2.29A2.094,2.094,0,0,0,1209.725,251.015Z" fill="#e72024"/>
        <path id="Path_5389" data-name="Path 5389" d="M1153.422,267.656v1.614l-3.995,9.142h-2.7l3.857-8.727h-3.565v1.751H1144.8v-3.78Z" fill="#e72024"/>
        <path id="Path_5390" data-name="Path 5390" d="M1163.165,275.032c0,1.9-1.4,3.565-4.471,3.565a7.432,7.432,0,0,1-4.1-1.153l.984-1.9a5.179,5.179,0,0,0,3.057.968c1.245,0,2.014-.523,2.014-1.4,0-.846-.554-1.4-2.505-1.4h-2.75l.553-6.055h6.561v2h-4.487l-.169,2.043h.876C1161.906,271.7,1163.165,273.127,1163.165,275.032Z" fill="#e72024"/>
        <path id="Path_5391" data-name="Path 5391" d="M1164.872,277.029a1.49,1.49,0,0,1,2.98,0,1.49,1.49,0,1,1-2.98,0Z" fill="#e72024"/>
        <path id="Path_5392" data-name="Path 5392" d="M1169.542,273.034c0-3.549,1.967-5.562,4.61-5.562,2.658,0,4.609,2.013,4.609,5.562s-1.951,5.563-4.609,5.563C1171.509,278.6,1169.542,276.584,1169.542,273.034Zm6.715,0c0-2.443-.861-3.457-2.1-3.457s-2.09,1.014-2.09,3.457.86,3.457,2.09,3.457S1176.257,275.477,1176.257,273.034Z" fill="#e72024"/>
        <path id="Path_5393" data-name="Path 5393" d="M1180.745,273.034c0-3.549,1.966-5.562,4.609-5.562,2.658,0,4.609,2.013,4.609,5.562s-1.951,5.563-4.609,5.563C1182.711,278.6,1180.745,276.584,1180.745,273.034Zm6.714,0c0-2.443-.861-3.457-2.1-3.457s-2.09,1.014-2.09,3.457.86,3.457,2.09,3.457S1187.459,275.477,1187.459,273.034Z" fill="#e72024"/>
        <path id="Path_5394" data-name="Path 5394" d="M1191.947,273.034c0-3.549,1.967-5.562,4.609-5.562,2.658,0,4.609,2.013,4.609,5.562s-1.951,5.563-4.609,5.563C1193.914,278.6,1191.947,276.584,1191.947,273.034Zm6.715,0c0-2.443-.862-3.457-2.106-3.457-1.229,0-2.09,1.014-2.09,3.457s.861,3.457,2.09,3.457C1197.8,276.491,1198.662,275.477,1198.662,273.034Z" fill="#e72024"/>
        <path id="Path_5395" data-name="Path 5395" d="M1213.2,269.3h-1.122v9.112h-2.289v-.952a3.182,3.182,0,0,1-2.581,1.075,4.258,4.258,0,0,1,0-8.512,3.172,3.172,0,0,1,2.473,1V269.3h-2.812v-1.382h2.812v-.907h2.4v.907h1.122Zm-3.473,4.979a2.12,2.12,0,1,0-2.1,2.289A2.095,2.095,0,0,0,1209.725,274.279Z" fill="#e72024"/>
      </g>
    </g>
  </g>
</svg>
