<svg xmlns="http://www.w3.org/2000/svg" xmlns:xlink="http://www.w3.org/1999/xlink" width="502" height="110" viewBox="0 0 502 110">
  <defs>
    <clipPath id="clip-Web_1920_1">
      <rect width="502" height="110"/>
    </clipPath>
  </defs>
  <g id="Web_1920_1" data-name="Web 1920 – 1" clip-path="url(#clip-Web_1920_1)">
    <g id="Group_325" data-name="Group 325" transform="translate(-116.1 -1218.608)">
      <g id="Group_324" data-name="Group 324">
        <path id="Path_2998" data-name="Path 2998" d="M120.864,1219.945V1230.7h-2.49v-8.759h-2.151v-2Z" fill="#68695f"/>
        <path id="Path_2999" data-name="Path 2999" d="M123.43,1229.318a1.491,1.491,0,0,1,2.981,0,1.491,1.491,0,1,1-2.981,0Z" fill="#68695f"/>
        <path id="Path_3000" data-name="Path 3000" d="M140.871,1230.7l-2.6-3.734-2.551,3.734h-2.858l3.979-5.47-3.779-5.286h2.827l2.474,3.488,2.427-3.488h2.69l-3.75,5.193,4.011,5.563Z" fill="#68695f"/>
        <path id="Path_3001" data-name="Path 3001" d="M153.671,1226.567a4.55,4.55,0,1,1-4.533-4.256A4.243,4.243,0,0,1,153.671,1226.567Zm-5.9-5.193h-1.752l2.028-2.213h2.12l2.029,2.213h-1.752l-1.337-1.168Zm3.472,5.193a2.119,2.119,0,1,0-2.1,2.29A2.086,2.086,0,0,0,151.243,1226.567Z" fill="#68695f"/>
        <path id="Path_3002" data-name="Path 3002" d="M155.747,1219.945a1.37,1.37,0,0,1,1.49-1.337,1.345,1.345,0,0,1,1.49,1.291,1.5,1.5,0,0,1-2.98.046Zm.292,2.489h2.4v8.267h-2.4Z" fill="#68695f"/>
        <path id="Path_3003" data-name="Path 3003" d="M175,1225.968v4.733h-2.4v-4.364c0-1.337-.614-1.952-1.675-1.952-1.152,0-1.982.707-1.982,2.228v4.088h-2.4v-8.267h2.289v.968a3.621,3.621,0,0,1,2.736-1.091C173.524,1222.311,175,1223.448,175,1225.968Z" fill="#68695f"/>
        <path id="Path_3004" data-name="Path 3004" d="M186.554,1222.434v6.884c0,3.073-1.659,4.487-4.64,4.487a6.808,6.808,0,0,1-4.056-1.137l.952-1.722a4.939,4.939,0,0,0,2.92.938c1.69,0,2.428-.768,2.428-2.259v-.353a3.406,3.406,0,0,1-2.613,1.029,4,4,0,1,1,0-7.99,3.319,3.319,0,0,1,2.736,1.183v-1.06Zm-2.366,3.872a2.179,2.179,0,1,0-2.166,2.029A2.007,2.007,0,0,0,184.188,1226.306Z" fill="#68695f"/>
        <path id="Path_3005" data-name="Path 3005" d="M196.866,1225.984v4.717h-2.244v-1.03a2.711,2.711,0,0,1-2.519,1.153c-1.937,0-3.089-1.076-3.089-2.505,0-1.46,1.029-2.474,3.55-2.474h1.9c0-1.029-.615-1.629-1.9-1.629a3.974,3.974,0,0,0-2.382.769l-.86-1.675a6.354,6.354,0,0,1,3.564-1C195.407,1222.311,196.866,1223.479,196.866,1225.984Zm-2.4,2.1v-.844h-1.644c-1.121,0-1.475.414-1.475.968,0,.6.507,1,1.352,1A1.767,1.767,0,0,0,194.469,1228.088Z" fill="#68695f"/>
        <path id="Path_3006" data-name="Path 3006" d="M208.252,1225.968v4.733h-2.4v-4.364c0-1.337-.614-1.952-1.675-1.952-1.152,0-1.982.707-1.982,2.228v4.088h-2.4v-8.267h2.289v.968a3.621,3.621,0,0,1,2.736-1.091C206.777,1222.311,208.252,1223.448,208.252,1225.968Z" fill="#68695f"/>
        <path id="Path_3007" data-name="Path 3007" d="M124.751,1251.936v2.028h-8.129v-1.613l4.15-3.918c.952-.907,1.121-1.46,1.121-1.982,0-.845-.584-1.337-1.721-1.337a2.628,2.628,0,0,0-2.228,1.076l-1.813-1.168a4.994,4.994,0,0,1,4.272-2c2.4,0,4,1.23,4,3.181,0,1.045-.292,2-1.8,3.4l-2.474,2.335Z" fill="#68695f"/>
        <path id="Path_3008" data-name="Path 3008" d="M126.626,1252.582a1.491,1.491,0,0,1,2.981,0,1.491,1.491,0,1,1-2.981,0Z" fill="#68695f"/>
        <path id="Path_3009" data-name="Path 3009" d="M136.615,1248.587a5.922,5.922,0,0,1,10.263-3.658l-1.6,1.475a3.463,3.463,0,0,0-2.7-1.259,3.441,3.441,0,1,0,0,6.883,3.429,3.429,0,0,0,2.7-1.275l1.6,1.475a5.911,5.911,0,0,1-10.263-3.641Z" fill="#68695f"/>
        <path id="Path_3010" data-name="Path 3010" d="M157.6,1249.232v4.732h-2.4V1249.6c0-1.337-.614-1.952-1.674-1.952-1.153,0-1.983.707-1.983,2.228v4.087h-2.4v-11.4h2.4v3.995a3.637,3.637,0,0,1,2.628-.983C156.129,1245.575,157.6,1246.712,157.6,1249.232Z" fill="#68695f"/>
        <path id="Path_3011" data-name="Path 3011" d="M167.854,1249.247v4.717h-2.243v-1.029a2.714,2.714,0,0,1-2.52,1.153c-1.936,0-3.089-1.076-3.089-2.505,0-1.46,1.03-2.474,3.55-2.474h1.9c0-1.03-.615-1.629-1.9-1.629a3.973,3.973,0,0,0-2.382.769l-.86-1.675a6.347,6.347,0,0,1,3.564-1C166.4,1245.575,167.854,1246.743,167.854,1249.247Zm-2.4,2.105v-.845h-1.644c-1.121,0-1.475.415-1.475.968,0,.6.507,1,1.352,1A1.765,1.765,0,0,0,165.457,1251.352Zm-.86-6.715h-1.875l2.074-2.212h2.582Z" fill="#68695f"/>
        <path id="Path_3012" data-name="Path 3012" d="M170.268,1249.831a4.55,4.55,0,1,1,4.548,4.257A4.255,4.255,0,0,1,170.268,1249.831Zm6.652,0a2.119,2.119,0,1,0-2.1,2.29A2.085,2.085,0,0,0,176.92,1249.831Z" fill="#68695f"/>
        <path id="Path_3013" data-name="Path 3013" d="M195.284,1249.232v4.732h-2.4V1249.6c0-1.337-.614-1.952-1.675-1.952-1.152,0-1.982.707-1.982,2.228v4.087h-2.4V1245.7h2.29v.968a3.617,3.617,0,0,1,2.735-1.091C193.808,1245.575,195.284,1246.712,195.284,1249.232Z" fill="#68695f"/>
        <path id="Path_3014" data-name="Path 3014" d="M206.838,1245.7v6.884c0,3.073-1.659,4.486-4.639,4.486a6.81,6.81,0,0,1-4.057-1.137l.952-1.721a4.94,4.94,0,0,0,2.92.938c1.691,0,2.428-.768,2.428-2.259v-.354a3.4,3.4,0,0,1-2.612,1.03,4,4,0,1,1,0-7.99,3.318,3.318,0,0,1,2.735,1.183v-1.06Zm-2.366,3.872a2.179,2.179,0,1,0-2.166,2.028A2.007,2.007,0,0,0,204.472,1249.57Z" fill="#68695f"/>
        <path id="Path_3015" data-name="Path 3015" d="M217.15,1249.247v4.717h-2.243v-1.029a2.714,2.714,0,0,1-2.52,1.153c-1.936,0-3.089-1.076-3.089-2.505,0-1.46,1.03-2.474,3.55-2.474h1.9c0-1.03-.614-1.629-1.9-1.629a3.973,3.973,0,0,0-2.382.769l-.86-1.675a6.347,6.347,0,0,1,3.564-1C215.691,1245.575,217.15,1246.743,217.15,1249.247Zm-2.4,2.105v-.845h-1.644c-1.121,0-1.475.415-1.475.968,0,.6.507,1,1.352,1A1.765,1.765,0,0,0,214.753,1251.352Z" fill="#68695f"/>
        <path id="Path_3016" data-name="Path 3016" d="M228.536,1249.232v4.732h-2.4V1249.6c0-1.337-.614-1.952-1.675-1.952-1.152,0-1.982.707-1.982,2.228v4.087h-2.4V1245.7h2.289v.968a3.621,3.621,0,0,1,2.736-1.091C227.06,1245.575,228.536,1246.712,228.536,1249.232Z" fill="#68695f"/>
        <path id="Path_3017" data-name="Path 3017" d="M124.659,1273.941c0,1.813-1.4,3.472-4.456,3.472a7.393,7.393,0,0,1-4.1-1.153l.969-1.905a5.216,5.216,0,0,0,3.072.968c1.245,0,2.014-.507,2.014-1.382,0-.815-.6-1.322-2.014-1.322H119v-1.644l2.213-2.505h-4.579v-2h7.529v1.613l-2.427,2.766A3.056,3.056,0,0,1,124.659,1273.941Z" fill="#68695f"/>
        <path id="Path_3018" data-name="Path 3018" d="M126.5,1275.846a1.491,1.491,0,0,1,2.981,0,1.491,1.491,0,1,1-2.981,0Z" fill="#68695f"/>
        <path id="Path_3019" data-name="Path 3019" d="M147.032,1274.294c0,1.859-1.475,2.935-4.3,2.935h-5.563v-10.756h5.255c2.69,0,4.073,1.121,4.073,2.8a2.585,2.585,0,0,1-1.43,2.366A2.658,2.658,0,0,1,147.032,1274.294Zm-7.391-5.947v2.535h2.474c1.214,0,1.875-.43,1.875-1.274s-.661-1.261-1.875-1.261Zm4.887,5.685c0-.906-.692-1.336-1.983-1.336h-2.9v2.658h2.9C143.836,1275.354,144.528,1274.955,144.528,1274.032Z" fill="#68695f"/>
        <path id="Path_3020" data-name="Path 3020" d="M157.85,1268.962v8.267h-2.274v-.984a3.346,3.346,0,0,1-2.566,1.107c-2.075,0-3.534-1.168-3.534-3.719v-4.671h2.4v4.318c0,1.383.616,2,1.675,2,1.107,0,1.906-.707,1.906-2.228v-4.087Zm-3.719-1.061h-1.874l2.074-2.212h2.582Z" fill="#68695f"/>
        <path id="Path_3021" data-name="Path 3021" d="M169.3,1272.5v4.733h-2.4v-4.364c0-1.337-.614-1.952-1.675-1.952-1.152,0-1.982.707-1.982,2.228v4.088h-2.4v-8.267h2.289v.968a3.62,3.62,0,0,1,2.736-1.091C167.823,1268.839,169.3,1269.976,169.3,1272.5Z" fill="#68695f"/>
        <path id="Path_3022" data-name="Path 3022" d="M180.807,1264.291h2.136l-5.071,14.474h-2.135Z" fill="#68695f"/>
        <path id="Path_3023" data-name="Path 3023" d="M199.216,1277.229l-.015-6.454-3.165,5.316h-1.122l-3.15-5.178v6.316h-2.336v-10.756h2.059l4.026,6.684,3.964-6.684h2.044l.03,10.756Z" fill="#68695f"/>
        <path id="Path_3024" data-name="Path 3024" d="M204.411,1266.473a1.37,1.37,0,0,1,1.49-1.337,1.345,1.345,0,0,1,1.49,1.29,1.5,1.5,0,0,1-2.98.047Zm.292,2.489h2.4v8.267h-2.4Z" fill="#68695f"/>
        <path id="Path_3025" data-name="Path 3025" d="M218.193,1273.126c0,.184-.031.445-.046.646h-6.254a2.2,2.2,0,0,0,2.366,1.659,2.8,2.8,0,0,0,2.074-.8l1.276,1.383a4.331,4.331,0,0,1-3.411,1.337c-2.859,0-4.717-1.8-4.717-4.257a4.208,4.208,0,0,1,4.409-4.256A4.093,4.093,0,0,1,218.193,1273.126Zm-5.67-5.225h-1.768l2.044-1.751h2.09l2.044,1.751h-1.768l-1.321-.875Zm-.661,4.472h4.072a2.065,2.065,0,0,0-4.072,0Zm5.562-5.947h-1.736l1.706-1.859h2.442Z" fill="#68695f"/>
        <path id="Path_3026" data-name="Path 3026" d="M229.011,1272.5v4.733h-2.4v-4.364c0-1.337-.615-1.952-1.675-1.952-1.152,0-1.983.707-1.983,2.228v4.088h-2.4v-8.267h2.289v.968a3.619,3.619,0,0,1,2.735-1.091C227.536,1268.839,229.011,1269.976,229.011,1272.5Z" fill="#68695f"/>
        <path id="Path_3027" data-name="Path 3027" d="M245.515,1272.5v4.733h-2.4v-4.364c0-1.337-.615-1.952-1.675-1.952-1.153,0-1.983.707-1.983,2.228v4.088h-2.4v-8.267h2.289v.968a3.617,3.617,0,0,1,2.735-1.091C244.039,1268.839,245.515,1269.976,245.515,1272.5Z" fill="#68695f"/>
        <path id="Path_3028" data-name="Path 3028" d="M257.069,1268.962v6.884c0,3.073-1.659,4.487-4.64,4.487a6.812,6.812,0,0,1-4.057-1.138l.953-1.72a4.945,4.945,0,0,0,2.92.937c1.69,0,2.427-.768,2.427-2.259v-.354a3.4,3.4,0,0,1-2.612,1.03,4,4,0,1,1,0-7.99,3.319,3.319,0,0,1,2.735,1.183v-1.06Zm-2.366,3.872a2.179,2.179,0,1,0-2.166,2.028A2.007,2.007,0,0,0,254.7,1272.834Z" fill="#68695f"/>
        <path id="Path_3029" data-name="Path 3029" d="M267.38,1272.511v4.718h-2.243v-1.03a2.712,2.712,0,0,1-2.519,1.153c-1.937,0-3.089-1.076-3.089-2.505,0-1.46,1.029-2.474,3.55-2.474h1.9c0-1.03-.614-1.629-1.9-1.629a3.971,3.971,0,0,0-2.382.769l-.861-1.675a6.352,6.352,0,0,1,3.565-1C265.921,1268.839,267.38,1270.007,267.38,1272.511Zm-2.4,2.1v-.844h-1.645c-1.121,0-1.474.414-1.474.967,0,.6.507,1,1.351,1A1.767,1.767,0,0,0,264.984,1274.616Z" fill="#68695f"/>
        <path id="Path_3030" data-name="Path 3030" d="M278.767,1272.5v4.733h-2.4v-4.364c0-1.337-.615-1.952-1.675-1.952-1.153,0-1.983.707-1.983,2.228v4.088h-2.4v-8.267h2.289v.968a3.617,3.617,0,0,1,2.735-1.091C277.291,1268.839,278.767,1269.976,278.767,1272.5Z" fill="#68695f"/>
        <path id="Path_3031" data-name="Path 3031" d="M295.823,1273.095a4.016,4.016,0,0,1-4.118,4.257,3.213,3.213,0,0,1-2.6-1.076v.953h-2.289v-11.4h2.4v4.011a3.213,3.213,0,0,1,2.49-1A4.015,4.015,0,0,1,295.823,1273.095Zm-2.428,0a2.112,2.112,0,1,0-2.1,2.29A2.085,2.085,0,0,0,293.395,1273.095Z" fill="#68695f"/>
        <path id="Path_3032" data-name="Path 3032" d="M305.366,1272.511v4.718h-2.244v-1.03a2.711,2.711,0,0,1-2.519,1.153c-1.937,0-3.089-1.076-3.089-2.505,0-1.46,1.029-2.474,3.55-2.474h1.9c0-1.03-.615-1.629-1.9-1.629a3.974,3.974,0,0,0-2.382.769l-.86-1.675a6.347,6.347,0,0,1,3.564-1C303.907,1268.839,305.366,1270.007,305.366,1272.511Zm-2.4,2.1v-.844h-1.644c-1.121,0-1.475.414-1.475.967,0,.6.507,1,1.352,1A1.766,1.766,0,0,0,302.969,1274.616Zm-.86-6.715h-1.875l2.074-2.212h2.582Z" fill="#68695f"/>
        <path id="Path_3033" data-name="Path 3033" d="M316.752,1272.5v4.733h-2.4v-4.364c0-1.337-.614-1.952-1.675-1.952-1.152,0-1.982.707-1.982,2.228v4.088h-2.4v-8.267h2.289v.968a3.621,3.621,0,0,1,2.736-1.091C315.277,1268.839,316.752,1269.976,316.752,1272.5Z" fill="#68695f"/>
        <path id="Path_3034" data-name="Path 3034" d="M328.139,1272.5v4.733h-2.4v-4.364c0-1.337-.615-1.952-1.675-1.952-1.153,0-1.983.707-1.983,2.228v4.088h-2.4v-11.4h2.4v3.995a3.637,3.637,0,0,1,2.628-.983C326.664,1268.839,328.139,1269.976,328.139,1272.5Z" fill="#68695f"/>
        <path id="Path_3035" data-name="Path 3035" d="M341.523,1276.829a3.423,3.423,0,0,1-1.952.523c-1.951,0-3.088-1-3.088-2.966v-3.4h-1.276v-1.844h1.276v-2.013h2.4v2.013h2.06v1.844h-2.06v3.365a.965.965,0,0,0,1.031,1.091,1.62,1.62,0,0,0,.967-.307Z" fill="#68695f"/>
        <path id="Path_3036" data-name="Path 3036" d="M351.434,1273.772H345.18a2.205,2.205,0,0,0,2.366,1.659,2.8,2.8,0,0,0,2.075-.8l1.275,1.383a4.331,4.331,0,0,1-3.411,1.337c-2.859,0-4.717-1.8-4.717-4.257a4.208,4.208,0,0,1,4.409-4.256,4.093,4.093,0,0,1,4.3,4.287C351.48,1273.31,351.449,1273.571,351.434,1273.772Zm-6.285-1.4h4.072a2.065,2.065,0,0,0-4.072,0Zm.846-6.408L345.5,1265a2.674,2.674,0,0,1,1.661-.523,1.665,1.665,0,0,1,1.843,1.644,2.063,2.063,0,0,1-1.414,1.936l-.753-.8c.6-.276.784-.584.784-.937a.652.652,0,0,0-.722-.645A1.621,1.621,0,0,0,345.995,1265.965Z" fill="#68695f"/>
        <path id="Path_3037" data-name="Path 3037" d="M126.564,1298.234h-1.751v2.258h-2.428v-2.258h-5.793v-1.675l5.071-6.823h2.612l-4.7,6.469h2.888v-2.013h2.352v2.013h1.751Z" fill="#68695f"/>
        <path id="Path_3038" data-name="Path 3038" d="M128.3,1299.109a1.491,1.491,0,0,1,2.981,0,1.491,1.491,0,1,1-2.981,0Z" fill="#68695f"/>
        <path id="Path_3039" data-name="Path 3039" d="M148.83,1297.557c0,1.86-1.475,2.935-4.3,2.935h-5.563v-10.756h5.255c2.69,0,4.072,1.122,4.072,2.8a2.585,2.585,0,0,1-1.429,2.366A2.655,2.655,0,0,1,148.83,1297.557Zm-7.391-5.946v2.535h2.474c1.213,0,1.875-.43,1.875-1.275s-.662-1.26-1.875-1.26Zm4.887,5.685c0-.906-.692-1.336-1.983-1.336h-2.9v2.658h2.9C145.634,1298.618,146.326,1298.218,146.326,1297.3Z" fill="#68695f"/>
        <path id="Path_3040" data-name="Path 3040" d="M159.648,1292.226v8.266h-2.275v-.983a3.342,3.342,0,0,1-2.565,1.106c-2.075,0-3.534-1.168-3.534-3.718v-4.671h2.4v4.318c0,1.382.616,2,1.675,2,1.107,0,1.9-.707,1.9-2.228v-4.087Zm-3.719-1.061h-1.874l2.074-2.212h2.581Z" fill="#68695f"/>
        <path id="Path_3041" data-name="Path 3041" d="M171.1,1295.76v4.732h-2.4v-4.363c0-1.337-.615-1.952-1.675-1.952-1.152,0-1.983.707-1.983,2.228v4.087h-2.4v-8.266h2.289v.967a3.622,3.622,0,0,1,2.735-1.09C169.621,1292.1,171.1,1293.24,171.1,1295.76Z" fill="#68695f"/>
        <path id="Path_3042" data-name="Path 3042" d="M182.6,1287.554h2.136l-5.071,14.475h-2.135Z" fill="#68695f"/>
        <path id="Path_3043" data-name="Path 3043" d="M201.014,1300.492l-.016-6.453-3.165,5.316h-1.122l-3.149-5.178v6.315h-2.336v-10.756h2.059l4.026,6.685,3.964-6.685h2.044l.03,10.756Z" fill="#68695f"/>
        <path id="Path_3044" data-name="Path 3044" d="M206.208,1289.736a1.371,1.371,0,0,1,1.491-1.336,1.345,1.345,0,0,1,1.49,1.29,1.5,1.5,0,0,1-2.981.046Zm.292,2.49h2.4v8.266h-2.4Z" fill="#68695f"/>
        <path id="Path_3045" data-name="Path 3045" d="M219.991,1296.39c0,.184-.032.445-.046.645h-6.254a2.2,2.2,0,0,0,2.366,1.659,2.8,2.8,0,0,0,2.074-.8l1.276,1.382a4.33,4.33,0,0,1-3.411,1.337c-2.859,0-4.718-1.8-4.718-4.256a4.208,4.208,0,0,1,4.41-4.256A4.093,4.093,0,0,1,219.991,1296.39Zm-5.67-5.225h-1.768l2.044-1.751h2.09l2.044,1.751h-1.768l-1.321-.875Zm-.661,4.472h4.072a2.065,2.065,0,0,0-4.072,0Zm5.562-5.947h-1.736l1.706-1.859h2.442Z" fill="#68695f"/>
        <path id="Path_3046" data-name="Path 3046" d="M230.809,1295.76v4.732h-2.4v-4.363c0-1.337-.615-1.952-1.675-1.952-1.153,0-1.983.707-1.983,2.228v4.087h-2.4v-8.266h2.289v.967a3.621,3.621,0,0,1,2.735-1.09C229.333,1292.1,230.809,1293.24,230.809,1295.76Z" fill="#68695f"/>
        <path id="Path_3047" data-name="Path 3047" d="M247.313,1295.76v4.732h-2.4v-4.363c0-1.337-.614-1.952-1.674-1.952-1.153,0-1.983.707-1.983,2.228v4.087h-2.4v-8.266h2.289v.967a3.621,3.621,0,0,1,2.735-1.09C245.837,1292.1,247.313,1293.24,247.313,1295.76Z" fill="#68695f"/>
        <path id="Path_3048" data-name="Path 3048" d="M258.867,1292.226v6.883c0,3.074-1.66,4.487-4.64,4.487a6.811,6.811,0,0,1-4.057-1.137l.952-1.721a4.943,4.943,0,0,0,2.92.937c1.691,0,2.428-.768,2.428-2.258v-.354a3.4,3.4,0,0,1-2.612,1.03,4,4,0,1,1,0-7.99,3.319,3.319,0,0,1,2.735,1.183v-1.06ZM256.5,1296.1a2.179,2.179,0,1,0-2.166,2.028A2.007,2.007,0,0,0,256.5,1296.1Z" fill="#68695f"/>
        <path id="Path_3049" data-name="Path 3049" d="M269.178,1295.775v4.717h-2.243v-1.029a2.712,2.712,0,0,1-2.52,1.152c-1.936,0-3.088-1.075-3.088-2.505,0-1.459,1.029-2.473,3.549-2.473h1.906c0-1.03-.616-1.629-1.906-1.629a3.974,3.974,0,0,0-2.381.768l-.861-1.674a6.348,6.348,0,0,1,3.565-1C267.719,1292.1,269.178,1293.271,269.178,1295.775Zm-2.4,2.1v-.845h-1.645c-1.121,0-1.474.415-1.474.968,0,.6.506,1,1.351,1A1.767,1.767,0,0,0,266.782,1297.88Z" fill="#68695f"/>
        <path id="Path_3050" data-name="Path 3050" d="M280.565,1295.76v4.732h-2.4v-4.363c0-1.337-.614-1.952-1.674-1.952-1.153,0-1.983.707-1.983,2.228v4.087h-2.4v-8.266H274.4v.967a3.621,3.621,0,0,1,2.735-1.09C279.089,1292.1,280.565,1293.24,280.565,1295.76Z" fill="#68695f"/>
        <path id="Path_3051" data-name="Path 3051" d="M293.949,1300.093a3.432,3.432,0,0,1-1.952.522c-1.952,0-3.088-1-3.088-2.965v-3.4h-1.276v-1.844h1.276V1290.4h2.4v2.013h2.06v1.844H291.3v3.365a.965.965,0,0,0,1.03,1.091,1.616,1.616,0,0,0,.968-.308Z" fill="#68695f"/>
        <path id="Path_3052" data-name="Path 3052" d="M301.2,1292.1v2.213c-.2-.016-.354-.031-.538-.031a2.031,2.031,0,0,0-2.2,2.3v3.9h-2.4v-8.266h2.289v1.091A3.336,3.336,0,0,1,301.2,1292.1Z" fill="#68695f"/>
        <path id="Path_3053" data-name="Path 3053" d="M311.789,1296.359a4.551,4.551,0,1,1-4.533-4.256A4.243,4.243,0,0,1,311.789,1296.359Zm-5.9-5.194h-1.752l2.028-2.212h2.121l2.028,2.212h-1.752L307.225,1290Zm3.472,5.194a2.119,2.119,0,1,0-2.1,2.29A2.086,2.086,0,0,0,309.361,1296.359Zm-1.075,6.331a1.061,1.061,0,0,1-2.121,0,1.061,1.061,0,1,1,2.121,0Z" fill="#68695f"/>
        <path id="Path_3054" data-name="Path 3054" d="M322.608,1295.76v4.732h-2.4v-4.363c0-1.337-.614-1.952-1.674-1.952-1.153,0-1.983.707-1.983,2.228v4.087h-2.4v-8.266h2.289v.967a3.621,3.621,0,0,1,2.735-1.09C321.132,1292.1,322.608,1293.24,322.608,1295.76Z" fill="#68695f"/>
        <path id="Path_3055" data-name="Path 3055" d="M124.843,1320.376c0,1.905-1.4,3.564-4.471,3.564a7.436,7.436,0,0,1-4.1-1.152l.983-1.906a5.178,5.178,0,0,0,3.058.968c1.245,0,2.014-.522,2.014-1.4,0-.845-.554-1.4-2.5-1.4h-2.75l.553-6.054h6.561v2H119.7l-.169,2.043h.876C123.583,1317.041,124.843,1318.47,124.843,1320.376Z" fill="#68695f"/>
        <path id="Path_3056" data-name="Path 3056" d="M126.549,1322.373a1.491,1.491,0,0,1,2.981,0,1.491,1.491,0,1,1-2.981,0Z" fill="#68695f"/>
        <path id="Path_3057" data-name="Path 3057" d="M136.369,1322.7l.844-1.875a6.327,6.327,0,0,0,3.55,1.122c1.475,0,2.074-.492,2.074-1.152,0-2.014-6.254-.631-6.254-4.626,0-1.828,1.475-3.349,4.533-3.349a7.216,7.216,0,0,1,3.734.952l-.769,1.89a6.08,6.08,0,0,0-2.98-.845c-1.476,0-2.044.553-2.044,1.23,0,1.981,6.254.614,6.254,4.563,0,1.8-1.49,3.334-4.564,3.334A7.664,7.664,0,0,1,136.369,1322.7Z" fill="#68695f"/>
        <path id="Path_3058" data-name="Path 3058" d="M155.945,1315.489v8.266H153.67v-.983a3.34,3.34,0,0,1-2.565,1.107c-2.075,0-3.534-1.168-3.534-3.719v-4.671h2.4v4.318c0,1.383.615,2,1.675,2,1.106,0,1.9-.707,1.9-2.228v-4.087Z" fill="#68695f"/>
        <path id="Path_3059" data-name="Path 3059" d="M166.255,1319.039v4.716h-2.243v-1.029a2.712,2.712,0,0,1-2.519,1.153c-1.937,0-3.089-1.076-3.089-2.505,0-1.459,1.029-2.474,3.55-2.474h1.9c0-1.029-.614-1.629-1.9-1.629a3.971,3.971,0,0,0-2.382.769l-.861-1.675a6.352,6.352,0,0,1,3.565-1C164.8,1315.366,166.255,1316.534,166.255,1319.039Zm-5.054-4.61h-1.768l2.044-1.752h2.09l2.044,1.752h-1.768l-1.321-.876Zm2.658,6.714v-.845h-1.645c-1.121,0-1.474.415-1.474.968,0,.6.507,1,1.351,1A1.767,1.767,0,0,0,163.859,1321.143Zm2.243-8.189h-1.736l1.706-1.859h2.442Z" fill="#68695f"/>
        <path id="Path_3060" data-name="Path 3060" d="M174.523,1323.356a3.423,3.423,0,0,1-1.952.523c-1.951,0-3.088-1-3.088-2.966v-3.4h-1.276v-1.844h1.276v-2.012h2.4v2.012h2.06v1.844h-2.06v3.365a.965.965,0,0,0,1.031,1.091,1.613,1.613,0,0,0,.967-.307Z" fill="#68695f"/>
        <path id="Path_3061" data-name="Path 3061" d="M190.211,1319.023v4.732h-2.4v-4.363c0-1.337-.614-1.952-1.675-1.952-1.152,0-1.982.707-1.982,2.229v4.086h-2.4v-8.266h2.289v.968a3.625,3.625,0,0,1,2.736-1.091C188.736,1315.366,190.211,1316.5,190.211,1319.023Z" fill="#68695f"/>
        <path id="Path_3062" data-name="Path 3062" d="M201.766,1315.489v6.884c0,3.073-1.659,4.487-4.64,4.487a6.809,6.809,0,0,1-4.056-1.138l.952-1.72a4.945,4.945,0,0,0,2.92.937c1.69,0,2.428-.768,2.428-2.259v-.353a3.407,3.407,0,0,1-2.613,1.029,4,4,0,1,1,0-7.99,3.322,3.322,0,0,1,2.736,1.183v-1.06Zm-2.366,3.872a2.179,2.179,0,1,0-2.166,2.028A2.007,2.007,0,0,0,199.4,1319.361Z" fill="#68695f"/>
        <path id="Path_3063" data-name="Path 3063" d="M212.078,1319.039v4.716h-2.244v-1.029a2.711,2.711,0,0,1-2.519,1.153c-1.937,0-3.089-1.076-3.089-2.505,0-1.459,1.029-2.474,3.55-2.474h1.9c0-1.029-.614-1.629-1.9-1.629a3.973,3.973,0,0,0-2.382.769l-.86-1.675a6.347,6.347,0,0,1,3.564-1C210.619,1315.366,212.078,1316.534,212.078,1319.039Zm-2.4,2.1v-.845h-1.644c-1.122,0-1.475.415-1.475.968,0,.6.507,1,1.352,1A1.766,1.766,0,0,0,209.681,1321.143Z" fill="#68695f"/>
        <path id="Path_3064" data-name="Path 3064" d="M223.463,1319.023v4.732h-2.4v-4.363c0-1.337-.614-1.952-1.675-1.952-1.152,0-1.982.707-1.982,2.229v4.086h-2.4v-8.266H217.3v.968a3.623,3.623,0,0,1,2.736-1.091C221.988,1315.366,223.463,1316.5,223.463,1319.023Z" fill="#68695f"/>
        <path id="Path_3065" data-name="Path 3065" d="M241.058,1314.644h-1.122v9.111h-2.289v-.952a3.183,3.183,0,0,1-2.581,1.076,4.258,4.258,0,0,1,0-8.513,3.174,3.174,0,0,1,2.473,1v-1.721h-2.812v-1.383h2.812v-.906h2.4v.906h1.122Zm-3.473,4.979a2.119,2.119,0,1,0-2.105,2.289A2.094,2.094,0,0,0,237.585,1319.623Z" fill="#68695f"/>
        <path id="Path_3066" data-name="Path 3066" d="M251.016,1319.653c0,.185-.031.445-.046.645h-6.254a2.2,2.2,0,0,0,2.366,1.66,2.8,2.8,0,0,0,2.075-.8l1.275,1.383a4.329,4.329,0,0,1-3.411,1.337c-2.858,0-4.718-1.8-4.718-4.256a4.209,4.209,0,0,1,4.41-4.257A4.093,4.093,0,0,1,251.016,1319.653Zm-5.67-5.224h-1.767l2.043-1.752h2.09l2.044,1.752h-1.767l-1.322-.876Zm-.661,4.471h4.072a2.065,2.065,0,0,0-4.072,0Zm5.562-5.946h-1.736l1.706-1.859h2.443Z" fill="#68695f"/>
        <path id="Path_3067" data-name="Path 3067" d="M257.9,1322.9a9.093,9.093,0,0,1,2.052-5.824h1.4a9.6,9.6,0,0,0-2.1,5.9,8.015,8.015,0,0,0,.415,2.531h-1.288A6.918,6.918,0,0,1,257.9,1322.9Z" fill="#e72024"/>
        <path id="Path_3068" data-name="Path 3068" d="M268.437,1320.083a3.6,3.6,0,0,1-3.925,3.672h-3.079l.54-2.718h-.854l.2-.972h.855l.523-2.611h2.637C267.276,1317.454,268.437,1318.471,268.437,1320.083Zm-1.476.081c0-.937-.6-1.513-1.792-1.513h-1.251l-.279,1.414h1.567l-.19.972h-1.575l-.306,1.521h1.422A2.265,2.265,0,0,0,266.961,1320.164Z" fill="#e72024"/>
        <path id="Path_3069" data-name="Path 3069" d="M275.106,1318.913l-.963,4.842H272.81l.09-.476a2.157,2.157,0,0,1-1.486.549,2.039,2.039,0,0,1-2.087-2.17A2.692,2.692,0,0,1,272,1318.84a1.731,1.731,0,0,1,1.576.73l.126-.657Zm-1.837,2.16a1,1,0,0,0-1.107-1.071,1.45,1.45,0,0,0-1.422,1.593,1,1,0,0,0,1.107,1.072A1.451,1.451,0,0,0,273.269,1321.073Zm-1.179,3.88a.654.654,0,0,1-.684.693.539.539,0,0,1-.576-.558.688.688,0,0,1,.684-.675A.545.545,0,0,1,272.09,1324.953Zm-.693-7.823a.681.681,0,0,1,.009-.135h.855a.627.627,0,0,0,.711.638.793.793,0,0,0,.837-.638h.91a1.716,1.716,0,0,1-1.828,1.368C272.036,1318.363,271.4,1317.886,271.4,1317.13Z" fill="#e72024"/>
        <path id="Path_3070" data-name="Path 3070" d="M275.976,1321.658a2.8,2.8,0,0,1,2.953-2.818,2.248,2.248,0,0,1,2.179,1.225l-1.189.594a1.1,1.1,0,0,0-1.08-.657,1.461,1.461,0,0,0-1.44,1.585,1.016,1.016,0,0,0,1.125,1.08,1.338,1.338,0,0,0,1.188-.649l1.035.649a2.668,2.668,0,0,1-2.3,1.161A2.19,2.19,0,0,1,275.976,1321.658Z" fill="#e72024"/>
        <path id="Path_3071" data-name="Path 3071" d="M290.433,1321.01a2.7,2.7,0,0,1-2.684,2.818,1.735,1.735,0,0,1-1.62-.792l-.143.719h-1.333l1.333-6.679h1.4l-.45,2.251a2.13,2.13,0,0,1,1.395-.487A2.047,2.047,0,0,1,290.433,1321.01Zm-1.423.063A1,1,0,0,0,287.9,1320a1.448,1.448,0,0,0-1.413,1.593,1,1,0,0,0,1.1,1.072A1.451,1.451,0,0,0,289.01,1321.073Z" fill="#e72024"/>
        <path id="Path_3072" data-name="Path 3072" d="M292.277,1318.913h1.394l-.963,4.842h-1.4Zm.116-1.406a.854.854,0,0,1,.928-.836.745.745,0,0,1,.828.7.857.857,0,0,1-.937.864A.751.751,0,0,1,292.393,1317.507Z" fill="#e72024"/>
        <path id="Path_3073" data-name="Path 3073" d="M299.64,1321.713h-3.709c.045.657.45.99,1.251.99a1.991,1.991,0,0,0,1.3-.45l.585.926a3.2,3.2,0,0,1-2.025.649,2.188,2.188,0,0,1-2.476-2.17,2.733,2.733,0,0,1,2.853-2.818,2.077,2.077,0,0,1,2.305,2.134A3.8,3.8,0,0,1,299.64,1321.713Zm-2.61,3.24a.655.655,0,0,1-.685.693.539.539,0,0,1-.576-.558.688.688,0,0,1,.685-.675A.545.545,0,0,1,297.03,1324.953Zm-.064-6.653h-1.053l1.369-1.3h1.233l1.017,1.3h-1l-.694-.675Zm-.936,2.593h2.4a.965.965,0,0,0-1.081-1A1.329,1.329,0,0,0,296.03,1320.893Z" fill="#e72024"/>
        <path id="Path_3074" data-name="Path 3074" d="M302.474,1322.046a.76.76,0,0,0-.018.2c0,.3.162.469.513.469a1.133,1.133,0,0,0,.567-.171l.207,1a2.314,2.314,0,0,1-1.206.288,1.343,1.343,0,0,1-1.513-1.351,2.334,2.334,0,0,1,.045-.423l.387-1.954h-.747l.216-1.08h.747l.235-1.179h1.4l-.234,1.179h1.207l-.217,1.08h-1.206Z" fill="#e72024"/>
        <path id="Path_3075" data-name="Path 3075" d="M306.326,1319.6a8,8,0,0,0-.414-2.529H307.2a6.906,6.906,0,0,1,.486,2.6,9.089,9.089,0,0,1-2.053,5.826h-1.4A9.6,9.6,0,0,0,306.326,1319.6Z" fill="#e72024"/>
      </g>
    </g>
    <g id="Group_327" data-name="Group 327" transform="translate(-116.1 -1218.608)">
      <g id="Group_326" data-name="Group 326">
        <path id="Path_3076" data-name="Path 3076" d="M556.6,1227.32c0,1.906-1.4,3.565-4.472,3.565a7.436,7.436,0,0,1-4.1-1.152l.983-1.906a5.178,5.178,0,0,0,3.058.969c1.245,0,2.013-.523,2.013-1.4,0-.845-.553-1.4-2.5-1.4h-2.75l.552-6.054h6.562v2h-4.487l-.169,2.044h.876C555.342,1223.986,556.6,1225.415,556.6,1227.32Z" fill="#e72024"/>
        <path id="Path_3077" data-name="Path 3077" d="M566.436,1227.32c0,1.906-1.4,3.565-4.472,3.565a7.436,7.436,0,0,1-4.1-1.152l.983-1.906a5.178,5.178,0,0,0,3.058.969c1.245,0,2.013-.523,2.013-1.4,0-.845-.553-1.4-2.5-1.4h-2.75l.552-6.054h6.562v2h-4.487l-.169,2.044H562C565.176,1223.986,566.436,1225.415,566.436,1227.32Z" fill="#e72024"/>
        <path id="Path_3078" data-name="Path 3078" d="M568.142,1229.318a1.49,1.49,0,0,1,2.98,0,1.49,1.49,0,1,1-2.98,0Z" fill="#e72024"/>
        <path id="Path_3079" data-name="Path 3079" d="M572.814,1225.323c0-3.549,1.967-5.563,4.609-5.563,2.658,0,4.61,2.014,4.61,5.563s-1.952,5.562-4.61,5.562C574.781,1230.885,572.814,1228.872,572.814,1225.323Zm6.715,0c0-2.443-.862-3.458-2.106-3.458-1.229,0-2.09,1.015-2.09,3.458s.861,3.457,2.09,3.457C578.667,1228.78,579.529,1227.766,579.529,1225.323Z" fill="#e72024"/>
        <path id="Path_3080" data-name="Path 3080" d="M584.016,1225.323c0-3.549,1.967-5.563,4.609-5.563,2.659,0,4.61,2.014,4.61,5.563s-1.951,5.562-4.61,5.562C585.983,1230.885,584.016,1228.872,584.016,1225.323Zm6.715,0c0-2.443-.861-3.458-2.106-3.458-1.229,0-2.089,1.015-2.089,3.458s.86,3.457,2.089,3.457C589.87,1228.78,590.731,1227.766,590.731,1225.323Z" fill="#e72024"/>
        <path id="Path_3081" data-name="Path 3081" d="M595.218,1225.323c0-3.549,1.967-5.563,4.61-5.563,2.658,0,4.609,2.014,4.609,5.563s-1.951,5.562-4.609,5.562C597.185,1230.885,595.218,1228.872,595.218,1225.323Zm6.715,0c0-2.443-.861-3.458-2.1-3.458s-2.09,1.015-2.09,3.458.86,3.457,2.09,3.457S601.933,1227.766,601.933,1225.323Z" fill="#e72024"/>
        <path id="Path_3082" data-name="Path 3082" d="M616.469,1221.589h-1.122v9.112h-2.289v-.953a3.183,3.183,0,0,1-2.581,1.076,4.258,4.258,0,0,1,0-8.513,3.178,3.178,0,0,1,2.474,1v-1.721h-2.813v-1.383h2.813v-.907h2.4v.907h1.122ZM613,1226.567a2.12,2.12,0,1,0-2.106,2.29A2.094,2.094,0,0,0,613,1226.567Z" fill="#e72024"/>
        <path id="Path_3083" data-name="Path 3083" d="M556.6,1250.584c0,1.905-1.4,3.565-4.472,3.565a7.428,7.428,0,0,1-4.1-1.153l.983-1.905a5.177,5.177,0,0,0,3.058.968c1.245,0,2.013-.522,2.013-1.4,0-.845-.553-1.4-2.5-1.4h-2.75l.552-6.054h6.562v2h-4.487l-.169,2.044h.876C555.342,1247.25,556.6,1248.679,556.6,1250.584Z" fill="#e72024"/>
        <path id="Path_3084" data-name="Path 3084" d="M558.385,1248.587c0-3.55,1.967-5.563,4.61-5.563,2.658,0,4.609,2.013,4.609,5.563s-1.951,5.562-4.609,5.562C560.352,1254.149,558.385,1252.136,558.385,1248.587Zm6.715,0c0-2.444-.861-3.458-2.1-3.458s-2.09,1.014-2.09,3.458.86,3.457,2.09,3.457S565.1,1251.029,565.1,1248.587Z" fill="#e72024"/>
        <path id="Path_3085" data-name="Path 3085" d="M569.311,1252.582a1.49,1.49,0,0,1,2.98,0,1.49,1.49,0,1,1-2.98,0Z" fill="#e72024"/>
        <path id="Path_3086" data-name="Path 3086" d="M573.982,1248.587c0-3.55,1.967-5.563,4.609-5.563,2.658,0,4.61,2.013,4.61,5.563s-1.952,5.562-4.61,5.562C575.949,1254.149,573.982,1252.136,573.982,1248.587Zm6.715,0c0-2.444-.862-3.458-2.106-3.458-1.229,0-2.09,1.014-2.09,3.458s.861,3.457,2.09,3.457C579.835,1252.044,580.7,1251.029,580.7,1248.587Z" fill="#e72024"/>
        <path id="Path_3087" data-name="Path 3087" d="M585.184,1248.587c0-3.55,1.967-5.563,4.609-5.563,2.659,0,4.61,2.013,4.61,5.563s-1.951,5.562-4.61,5.562C587.151,1254.149,585.184,1252.136,585.184,1248.587Zm6.715,0c0-2.444-.861-3.458-2.106-3.458-1.229,0-2.089,1.014-2.089,3.458s.86,3.457,2.089,3.457C591.038,1252.044,591.9,1251.029,591.9,1248.587Z" fill="#e72024"/>
        <path id="Path_3088" data-name="Path 3088" d="M596.386,1248.587c0-3.55,1.967-5.563,4.61-5.563,2.658,0,4.609,2.013,4.609,5.563s-1.951,5.562-4.609,5.562C598.353,1254.149,596.386,1252.136,596.386,1248.587Zm6.715,0c0-2.444-.861-3.458-2.105-3.458s-2.09,1.014-2.09,3.458.86,3.457,2.09,3.457S603.1,1251.029,603.1,1248.587Z" fill="#e72024"/>
        <path id="Path_3089" data-name="Path 3089" d="M617.637,1244.853h-1.122v9.111h-2.289v-.952a3.183,3.183,0,0,1-2.581,1.076,4.258,4.258,0,0,1,0-8.513,3.178,3.178,0,0,1,2.474,1v-1.721h-2.813v-1.383h2.813v-.907h2.4v.907h1.122Zm-3.473,4.978a2.119,2.119,0,1,0-2.1,2.29A2.094,2.094,0,0,0,614.164,1249.831Z" fill="#e72024"/>
        <path id="Path_3090" data-name="Path 3090" d="M556.6,1273.848c0,1.906-1.4,3.565-4.472,3.565a7.428,7.428,0,0,1-4.1-1.153l.983-1.905a5.178,5.178,0,0,0,3.058.968c1.245,0,2.013-.522,2.013-1.4,0-.845-.553-1.4-2.5-1.4h-2.75l.552-6.054h6.562v2h-4.487l-.169,2.044h.876C555.342,1270.514,556.6,1271.943,556.6,1273.848Z" fill="#e72024"/>
        <path id="Path_3091" data-name="Path 3091" d="M558.385,1271.851c0-3.55,1.967-5.563,4.61-5.563,2.658,0,4.609,2.013,4.609,5.563s-1.951,5.562-4.609,5.562C560.352,1277.413,558.385,1275.4,558.385,1271.851Zm6.715,0c0-2.444-.861-3.458-2.1-3.458s-2.09,1.014-2.09,3.458.86,3.457,2.09,3.457S565.1,1274.294,565.1,1271.851Z" fill="#e72024"/>
        <path id="Path_3092" data-name="Path 3092" d="M569.311,1275.846a1.49,1.49,0,0,1,2.98,0,1.49,1.49,0,1,1-2.98,0Z" fill="#e72024"/>
        <path id="Path_3093" data-name="Path 3093" d="M573.982,1271.851c0-3.55,1.967-5.563,4.609-5.563,2.658,0,4.61,2.013,4.61,5.563s-1.952,5.562-4.61,5.562C575.949,1277.413,573.982,1275.4,573.982,1271.851Zm6.715,0c0-2.444-.862-3.458-2.106-3.458-1.229,0-2.09,1.014-2.09,3.458s.861,3.457,2.09,3.457C579.835,1275.308,580.7,1274.294,580.7,1271.851Z" fill="#e72024"/>
        <path id="Path_3094" data-name="Path 3094" d="M585.184,1271.851c0-3.55,1.967-5.563,4.609-5.563,2.659,0,4.61,2.013,4.61,5.563s-1.951,5.562-4.61,5.562C587.151,1277.413,585.184,1275.4,585.184,1271.851Zm6.715,0c0-2.444-.861-3.458-2.106-3.458-1.229,0-2.089,1.014-2.089,3.458s.86,3.457,2.089,3.457C591.038,1275.308,591.9,1274.294,591.9,1271.851Z" fill="#e72024"/>
        <path id="Path_3095" data-name="Path 3095" d="M596.386,1271.851c0-3.55,1.967-5.563,4.61-5.563,2.658,0,4.609,2.013,4.609,5.563s-1.951,5.562-4.609,5.562C598.353,1277.413,596.386,1275.4,596.386,1271.851Zm6.715,0c0-2.444-.861-3.458-2.105-3.458s-2.09,1.014-2.09,3.458.86,3.457,2.09,3.457S603.1,1274.294,603.1,1271.851Z" fill="#e72024"/>
        <path id="Path_3096" data-name="Path 3096" d="M617.637,1268.117h-1.122v9.112h-2.289v-.953a3.183,3.183,0,0,1-2.581,1.076,4.258,4.258,0,0,1,0-8.513,3.178,3.178,0,0,1,2.474,1v-1.721h-2.813v-1.383h2.813v-.907h2.4v.907h1.122Zm-3.473,4.978a2.119,2.119,0,1,0-2.1,2.29A2.094,2.094,0,0,0,614.164,1273.095Z" fill="#e72024"/>
        <path id="Path_3097" data-name="Path 3097" d="M556.6,1297.112c0,1.9-1.4,3.565-4.472,3.565a7.429,7.429,0,0,1-4.1-1.153l.983-1.905a5.178,5.178,0,0,0,3.058.968c1.245,0,2.013-.522,2.013-1.4,0-.846-.553-1.4-2.5-1.4h-2.75l.552-6.055h6.562v2h-4.487l-.169,2.043h.876C555.342,1293.777,556.6,1295.207,556.6,1297.112Z" fill="#e72024"/>
        <path id="Path_3098" data-name="Path 3098" d="M566.436,1297.112c0,1.9-1.4,3.565-4.472,3.565a7.429,7.429,0,0,1-4.1-1.153l.983-1.905a5.178,5.178,0,0,0,3.058.968c1.245,0,2.013-.522,2.013-1.4,0-.846-.553-1.4-2.5-1.4h-2.75l.552-6.055h6.562v2h-4.487l-.169,2.043H562C565.176,1293.777,566.436,1295.207,566.436,1297.112Z" fill="#e72024"/>
        <path id="Path_3099" data-name="Path 3099" d="M568.142,1299.109a1.49,1.49,0,0,1,2.98,0,1.49,1.49,0,1,1-2.98,0Z" fill="#e72024"/>
        <path id="Path_3100" data-name="Path 3100" d="M572.814,1295.114c0-3.549,1.967-5.562,4.609-5.562,2.658,0,4.61,2.013,4.61,5.562s-1.952,5.563-4.61,5.563C574.781,1300.677,572.814,1298.664,572.814,1295.114Zm6.715,0c0-2.443-.862-3.457-2.106-3.457-1.229,0-2.09,1.014-2.09,3.457s.861,3.457,2.09,3.457C578.667,1298.571,579.529,1297.557,579.529,1295.114Z" fill="#e72024"/>
        <path id="Path_3101" data-name="Path 3101" d="M584.016,1295.114c0-3.549,1.967-5.562,4.609-5.562,2.659,0,4.61,2.013,4.61,5.562s-1.951,5.563-4.61,5.563C585.983,1300.677,584.016,1298.664,584.016,1295.114Zm6.715,0c0-2.443-.861-3.457-2.106-3.457-1.229,0-2.089,1.014-2.089,3.457s.86,3.457,2.089,3.457C589.87,1298.571,590.731,1297.557,590.731,1295.114Z" fill="#e72024"/>
        <path id="Path_3102" data-name="Path 3102" d="M595.218,1295.114c0-3.549,1.967-5.562,4.61-5.562,2.658,0,4.609,2.013,4.609,5.562s-1.951,5.563-4.609,5.563C597.185,1300.677,595.218,1298.664,595.218,1295.114Zm6.715,0c0-2.443-.861-3.457-2.1-3.457s-2.09,1.014-2.09,3.457.86,3.457,2.09,3.457S601.933,1297.557,601.933,1295.114Z" fill="#e72024"/>
        <path id="Path_3103" data-name="Path 3103" d="M616.469,1291.38h-1.122v9.112h-2.289v-.952a3.182,3.182,0,0,1-2.581,1.075,4.258,4.258,0,0,1,0-8.512,3.174,3.174,0,0,1,2.474,1v-1.722h-2.813V1290h2.813v-.907h2.4V1290h1.122ZM613,1296.359a2.12,2.12,0,1,0-2.106,2.29A2.1,2.1,0,0,0,613,1296.359Z" fill="#e72024"/>
        <path id="Path_3104" data-name="Path 3104" d="M556.51,1321.727v2.028h-8.129v-1.613l4.15-3.918c.952-.906,1.121-1.46,1.121-1.982,0-.845-.584-1.337-1.721-1.337a2.628,2.628,0,0,0-2.228,1.076l-1.813-1.168a4.993,4.993,0,0,1,4.272-2c2.4,0,3.995,1.229,3.995,3.18,0,1.045-.292,2-1.8,3.4l-2.474,2.335Z" fill="#e72024"/>
        <path id="Path_3105" data-name="Path 3105" d="M566.437,1320.376c0,1.905-1.4,3.564-4.472,3.564a7.436,7.436,0,0,1-4.1-1.152l.983-1.906a5.178,5.178,0,0,0,3.058.968c1.245,0,2.013-.522,2.013-1.4,0-.845-.553-1.4-2.5-1.4h-2.75l.552-6.054h6.562v2h-4.488l-.168,2.043H562C565.177,1317.041,566.437,1318.47,566.437,1320.376Z" fill="#e72024"/>
        <path id="Path_3106" data-name="Path 3106" d="M568.143,1322.373a1.49,1.49,0,0,1,2.98,0,1.49,1.49,0,1,1-2.98,0Z" fill="#e72024"/>
        <path id="Path_3107" data-name="Path 3107" d="M572.815,1318.378c0-3.549,1.967-5.562,4.609-5.562,2.658,0,4.61,2.013,4.61,5.562s-1.952,5.562-4.61,5.562C574.782,1323.94,572.815,1321.927,572.815,1318.378Zm6.715,0c0-2.444-.862-3.457-2.106-3.457-1.229,0-2.09,1.013-2.09,3.457s.861,3.457,2.09,3.457C578.668,1321.835,579.53,1320.821,579.53,1318.378Z" fill="#e72024"/>
        <path id="Path_3108" data-name="Path 3108" d="M584.017,1318.378c0-3.549,1.967-5.562,4.609-5.562,2.659,0,4.61,2.013,4.61,5.562s-1.951,5.562-4.61,5.562C585.984,1323.94,584.017,1321.927,584.017,1318.378Zm6.715,0c0-2.444-.861-3.457-2.106-3.457-1.229,0-2.089,1.013-2.089,3.457s.86,3.457,2.089,3.457C589.871,1321.835,590.732,1320.821,590.732,1318.378Z" fill="#e72024"/>
        <path id="Path_3109" data-name="Path 3109" d="M595.219,1318.378c0-3.549,1.967-5.562,4.61-5.562,2.658,0,4.609,2.013,4.609,5.562s-1.951,5.562-4.609,5.562C597.186,1323.94,595.219,1321.927,595.219,1318.378Zm6.715,0c0-2.444-.861-3.457-2.105-3.457s-2.09,1.013-2.09,3.457.86,3.457,2.09,3.457S601.934,1320.821,601.934,1318.378Z" fill="#e72024"/>
        <path id="Path_3110" data-name="Path 3110" d="M616.47,1314.644h-1.122v9.111h-2.289v-.952a3.183,3.183,0,0,1-2.581,1.076,4.258,4.258,0,0,1,0-8.513,3.178,3.178,0,0,1,2.474,1v-1.721h-2.813v-1.383h2.813v-.906h2.4v.906h1.122ZM613,1319.623a2.119,2.119,0,1,0-2.1,2.289A2.094,2.094,0,0,0,613,1319.623Z" fill="#e72024"/>
      </g>
    </g>
  </g>
</svg>
