<svg xmlns="http://www.w3.org/2000/svg" width="503.391" height="128.638" viewBox="0 0 503.391 128.638">
  <g id="Group_176" data-name="Group 176" transform="translate(-645.579 -128.01)">
    <g id="Group_149" data-name="Group 149" transform="translate(0 8.225)">
      <g id="Group_148" data-name="Group 148">
        <path id="Path_1803" data-name="Path 1803"
          d="M1088.211,128.928h-1.751v2.259h-2.428v-2.259h-5.793v-1.675l5.071-6.822h2.612l-4.7,6.469h2.889v-2.013h2.351V126.9h1.751Z"
          fill="#ea2024" />
        <path id="Path_1804" data-name="Path 1804"
          d="M1089.718,125.809c0-3.55,1.967-5.563,4.609-5.563,2.659,0,4.61,2.013,4.61,5.563s-1.951,5.562-4.61,5.562C1091.685,131.371,1089.718,129.358,1089.718,125.809Zm6.715,0c0-2.444-.862-3.458-2.106-3.458-1.229,0-2.089,1.014-2.089,3.458s.86,3.457,2.089,3.457C1095.571,129.266,1096.433,128.252,1096.433,125.809Z"
          fill="#ea2024" />
        <path id="Path_1805" data-name="Path 1805" d="M1100.644,129.8a1.49,1.49,0,0,1,2.98,0,1.49,1.49,0,1,1-2.98,0Z"
          fill="#ea2024" />
        <path id="Path_1806" data-name="Path 1806"
          d="M1105.316,125.809c0-3.55,1.966-5.563,4.609-5.563s4.609,2.013,4.609,5.563-1.951,5.562-4.609,5.562S1105.316,129.358,1105.316,125.809Zm6.714,0c0-2.444-.861-3.458-2.1-3.458s-2.09,1.014-2.09,3.458.861,3.457,2.09,3.457S1112.03,128.252,1112.03,125.809Z"
          fill="#ea2024" />
        <path id="Path_1807" data-name="Path 1807"
          d="M1116.517,125.809c0-3.55,1.967-5.563,4.609-5.563,2.658,0,4.61,2.013,4.61,5.563s-1.952,5.562-4.61,5.562C1118.484,131.371,1116.517,129.358,1116.517,125.809Zm6.715,0c0-2.444-.862-3.458-2.106-3.458-1.229,0-2.09,1.014-2.09,3.458s.861,3.457,2.09,3.457C1122.37,129.266,1123.232,128.252,1123.232,125.809Z"
          fill="#ea2024" />
        <path id="Path_1808" data-name="Path 1808"
          d="M1127.719,125.809c0-3.55,1.967-5.563,4.609-5.563,2.659,0,4.61,2.013,4.61,5.563s-1.951,5.562-4.61,5.562C1129.686,131.371,1127.719,129.358,1127.719,125.809Zm6.715,0c0-2.444-.862-3.458-2.106-3.458-1.229,0-2.09,1.014-2.09,3.458s.861,3.457,2.09,3.457C1133.572,129.266,1134.434,128.252,1134.434,125.809Z"
          fill="#ea2024" />
        <path id="Path_1809" data-name="Path 1809"
          d="M1148.97,122.075h-1.122v9.112h-2.289v-.953a3.182,3.182,0,0,1-2.581,1.076,4.258,4.258,0,0,1,0-8.513,3.176,3.176,0,0,1,2.473,1v-1.721h-2.812v-1.383h2.812v-.907h2.4v.907h1.122Zm-3.473,4.978a2.119,2.119,0,1,0-2.1,2.29A2.094,2.094,0,0,0,1145.5,127.053Z"
          fill="#ea2024" />
        <path id="Path_1810" data-name="Path 1810"
          d="M1088.211,152.192h-1.751v2.259h-2.428v-2.259h-5.793v-1.675l5.071-6.822h2.612l-4.7,6.469h2.889v-2.013h2.351v2.013h1.751Z"
          fill="#ea2024" />
        <path id="Path_1811" data-name="Path 1811"
          d="M1089.718,149.073c0-3.549,1.967-5.563,4.609-5.563,2.659,0,4.61,2.014,4.61,5.563s-1.951,5.562-4.61,5.562C1091.685,154.635,1089.718,152.622,1089.718,149.073Zm6.715,0c0-2.443-.862-3.458-2.106-3.458-1.229,0-2.089,1.015-2.089,3.458s.86,3.457,2.089,3.457C1095.571,152.53,1096.433,151.516,1096.433,149.073Z"
          fill="#ea2024" />
        <path id="Path_1812" data-name="Path 1812" d="M1100.644,153.068a1.49,1.49,0,0,1,2.98,0,1.49,1.49,0,1,1-2.98,0Z"
          fill="#ea2024" />
        <path id="Path_1813" data-name="Path 1813"
          d="M1105.316,149.073c0-3.549,1.966-5.563,4.609-5.563s4.609,2.014,4.609,5.563-1.951,5.562-4.609,5.562S1105.316,152.622,1105.316,149.073Zm6.714,0c0-2.443-.861-3.458-2.1-3.458s-2.09,1.015-2.09,3.458.861,3.457,2.09,3.457S1112.03,151.516,1112.03,149.073Z"
          fill="#ea2024" />
        <path id="Path_1814" data-name="Path 1814"
          d="M1116.517,149.073c0-3.549,1.967-5.563,4.609-5.563,2.658,0,4.61,2.014,4.61,5.563s-1.952,5.562-4.61,5.562C1118.484,154.635,1116.517,152.622,1116.517,149.073Zm6.715,0c0-2.443-.862-3.458-2.106-3.458-1.229,0-2.09,1.015-2.09,3.458s.861,3.457,2.09,3.457C1122.37,152.53,1123.232,151.516,1123.232,149.073Z"
          fill="#ea2024" />
        <path id="Path_1815" data-name="Path 1815"
          d="M1127.719,149.073c0-3.549,1.967-5.563,4.609-5.563,2.659,0,4.61,2.014,4.61,5.563s-1.951,5.562-4.61,5.562C1129.686,154.635,1127.719,152.622,1127.719,149.073Zm6.715,0c0-2.443-.862-3.458-2.106-3.458-1.229,0-2.09,1.015-2.09,3.458s.861,3.457,2.09,3.457C1133.572,152.53,1134.434,151.516,1134.434,149.073Z"
          fill="#ea2024" />
        <path id="Path_1816" data-name="Path 1816"
          d="M1148.97,145.339h-1.122v9.112h-2.289V153.5a3.182,3.182,0,0,1-2.581,1.076,4.258,4.258,0,0,1,0-8.513,3.176,3.176,0,0,1,2.473,1v-1.721h-2.812v-1.383h2.812v-.907h2.4v.907h1.122Zm-3.473,4.979a2.119,2.119,0,1,0-2.1,2.289A2.094,2.094,0,0,0,1145.5,150.318Z"
          fill="#ea2024" />
        <path id="Path_1817" data-name="Path 1817"
          d="M1088.211,175.456h-1.751v2.259h-2.428v-2.259h-5.793v-1.675l5.071-6.822h2.612l-4.7,6.468h2.889v-2.012h2.351v2.012h1.751Z"
          fill="#ea2024" />
        <path id="Path_1818" data-name="Path 1818"
          d="M1089.718,172.337c0-3.55,1.967-5.563,4.609-5.563,2.659,0,4.61,2.013,4.61,5.563s-1.951,5.562-4.61,5.562C1091.685,177.9,1089.718,175.886,1089.718,172.337Zm6.715,0c0-2.444-.862-3.458-2.106-3.458-1.229,0-2.089,1.014-2.089,3.458s.86,3.457,2.089,3.457C1095.571,175.794,1096.433,174.779,1096.433,172.337Z"
          fill="#ea2024" />
        <path id="Path_1819" data-name="Path 1819" d="M1100.644,176.332a1.49,1.49,0,0,1,2.98,0,1.49,1.49,0,1,1-2.98,0Z"
          fill="#ea2024" />
        <path id="Path_1820" data-name="Path 1820"
          d="M1105.316,172.337c0-3.55,1.966-5.563,4.609-5.563s4.609,2.013,4.609,5.563-1.951,5.562-4.609,5.562S1105.316,175.886,1105.316,172.337Zm6.714,0c0-2.444-.861-3.458-2.1-3.458s-2.09,1.014-2.09,3.458.861,3.457,2.09,3.457S1112.03,174.779,1112.03,172.337Z"
          fill="#ea2024" />
        <path id="Path_1821" data-name="Path 1821"
          d="M1116.517,172.337c0-3.55,1.967-5.563,4.609-5.563,2.658,0,4.61,2.013,4.61,5.563s-1.952,5.562-4.61,5.562C1118.484,177.9,1116.517,175.886,1116.517,172.337Zm6.715,0c0-2.444-.862-3.458-2.106-3.458-1.229,0-2.09,1.014-2.09,3.458s.861,3.457,2.09,3.457C1122.37,175.794,1123.232,174.779,1123.232,172.337Z"
          fill="#ea2024" />
        <path id="Path_1822" data-name="Path 1822"
          d="M1127.719,172.337c0-3.55,1.967-5.563,4.609-5.563,2.659,0,4.61,2.013,4.61,5.563s-1.951,5.562-4.61,5.562C1129.686,177.9,1127.719,175.886,1127.719,172.337Zm6.715,0c0-2.444-.862-3.458-2.106-3.458-1.229,0-2.09,1.014-2.09,3.458s.861,3.457,2.09,3.457C1133.572,175.794,1134.434,174.779,1134.434,172.337Z"
          fill="#ea2024" />
        <path id="Path_1823" data-name="Path 1823"
          d="M1148.97,168.6h-1.122v9.112h-2.289v-.953a3.182,3.182,0,0,1-2.581,1.076,4.258,4.258,0,0,1,0-8.513,3.176,3.176,0,0,1,2.473,1V168.6h-2.812V167.22h2.812v-.907h2.4v.907h1.122Zm-3.473,4.978a2.119,2.119,0,1,0-2.1,2.29A2.094,2.094,0,0,0,1145.5,173.581Z"
          fill="#ea2024" />
        <path id="Path_1824" data-name="Path 1824"
          d="M1086.49,197.6c0,1.9-1.4,3.565-4.471,3.565a7.432,7.432,0,0,1-4.1-1.153l.984-1.9a5.179,5.179,0,0,0,3.057.968c1.245,0,2.014-.523,2.014-1.4,0-.845-.554-1.4-2.505-1.4h-2.75l.553-6.055h6.561v2h-4.487l-.169,2.043h.876C1085.231,194.263,1086.49,195.693,1086.49,197.6Z"
          fill="#ea2024" />
        <path id="Path_1825" data-name="Path 1825"
          d="M1088.274,195.6c0-3.549,1.966-5.562,4.609-5.562s4.609,2.013,4.609,5.562-1.951,5.563-4.609,5.563S1088.274,199.15,1088.274,195.6Zm6.714,0c0-2.443-.861-3.457-2.1-3.457s-2.09,1.014-2.09,3.457.861,3.457,2.09,3.457S1094.988,198.043,1094.988,195.6Z"
          fill="#ea2024" />
        <path id="Path_1826" data-name="Path 1826"
          d="M1099.2,199.6a1.491,1.491,0,0,1,2.981,0,1.491,1.491,0,1,1-2.981,0Z" fill="#ea2024" />
        <path id="Path_1827" data-name="Path 1827"
          d="M1103.87,195.6c0-3.549,1.967-5.562,4.61-5.562,2.658,0,4.609,2.013,4.609,5.562s-1.951,5.563-4.609,5.563C1105.837,201.163,1103.87,199.15,1103.87,195.6Zm6.715,0c0-2.443-.861-3.457-2.1-3.457s-2.09,1.014-2.09,3.457.86,3.457,2.09,3.457S1110.585,198.043,1110.585,195.6Z"
          fill="#ea2024" />
        <path id="Path_1828" data-name="Path 1828"
          d="M1115.072,195.6c0-3.549,1.967-5.562,4.61-5.562s4.609,2.013,4.609,5.562-1.951,5.563-4.609,5.563S1115.072,199.15,1115.072,195.6Zm6.715,0c0-2.443-.861-3.457-2.1-3.457s-2.09,1.014-2.09,3.457.86,3.457,2.09,3.457S1121.787,198.043,1121.787,195.6Z"
          fill="#ea2024" />
        <path id="Path_1829" data-name="Path 1829"
          d="M1126.275,195.6c0-3.549,1.966-5.562,4.609-5.562s4.609,2.013,4.609,5.562-1.951,5.563-4.609,5.563S1126.275,199.15,1126.275,195.6Zm6.714,0c0-2.443-.861-3.457-2.1-3.457s-2.09,1.014-2.09,3.457.86,3.457,2.09,3.457S1132.989,198.043,1132.989,195.6Z"
          fill="#ea2024" />
        <path id="Path_1830" data-name="Path 1830"
          d="M1147.526,191.866H1146.4v9.112h-2.29v-.952a3.179,3.179,0,0,1-2.581,1.075,4.258,4.258,0,0,1,0-8.512,3.174,3.174,0,0,1,2.474,1v-1.722h-2.812v-1.382h2.812v-.907h2.4v.907h1.122Zm-3.473,4.979a2.12,2.12,0,1,0-2.106,2.289A2.1,2.1,0,0,0,1144.053,196.845Z"
          fill="#ea2024" />
        <path id="Path_1831" data-name="Path 1831"
          d="M1087.243,220.846c0,2.2-1.8,3.581-4.071,3.581-2.966,0-4.809-1.859-4.809-5.332,0-3.718,2.243-5.793,5.485-5.793a5.8,5.8,0,0,1,3,.738l-.922,1.828a3.541,3.541,0,0,0-2.013-.538c-1.8,0-2.95,1.06-3.027,3.119a3.635,3.635,0,0,1,2.658-.952A3.412,3.412,0,0,1,1087.243,220.846Zm-2.412.123a1.622,1.622,0,0,0-1.829-1.613,1.681,1.681,0,0,0-1.858,1.613c0,.922.691,1.6,1.889,1.6A1.608,1.608,0,0,0,1084.831,220.969Z"
          fill="#ea2024" />
        <path id="Path_1832" data-name="Path 1832"
          d="M1088.919,218.864c0-3.549,1.967-5.562,4.61-5.562s4.609,2.013,4.609,5.562-1.951,5.563-4.609,5.563S1088.919,222.414,1088.919,218.864Zm6.715,0c0-2.443-.861-3.457-2.1-3.457s-2.09,1.014-2.09,3.457.86,3.457,2.09,3.457S1095.634,221.307,1095.634,218.864Z"
          fill="#ea2024" />
        <path id="Path_1833" data-name="Path 1833" d="M1099.844,222.86a1.49,1.49,0,0,1,2.98,0,1.49,1.49,0,1,1-2.98,0Z"
          fill="#ea2024" />
        <path id="Path_1834" data-name="Path 1834"
          d="M1104.516,218.864c0-3.549,1.967-5.562,4.609-5.562,2.658,0,4.61,2.013,4.61,5.562s-1.952,5.563-4.61,5.563C1106.483,224.427,1104.516,222.414,1104.516,218.864Zm6.715,0c0-2.443-.862-3.457-2.106-3.457-1.229,0-2.09,1.014-2.09,3.457s.861,3.457,2.09,3.457C1110.369,222.321,1111.231,221.307,1111.231,218.864Z"
          fill="#ea2024" />
        <path id="Path_1835" data-name="Path 1835"
          d="M1115.718,218.864c0-3.549,1.967-5.562,4.609-5.562,2.659,0,4.61,2.013,4.61,5.562s-1.951,5.563-4.61,5.563C1117.685,224.427,1115.718,222.414,1115.718,218.864Zm6.715,0c0-2.443-.862-3.457-2.106-3.457-1.229,0-2.089,1.014-2.089,3.457s.86,3.457,2.089,3.457C1121.571,222.321,1122.433,221.307,1122.433,218.864Z"
          fill="#ea2024" />
        <path id="Path_1836" data-name="Path 1836"
          d="M1126.92,218.864c0-3.549,1.967-5.562,4.609-5.562,2.659,0,4.61,2.013,4.61,5.562s-1.951,5.563-4.61,5.563C1128.887,224.427,1126.92,222.414,1126.92,218.864Zm6.715,0c0-2.443-.861-3.457-2.106-3.457-1.229,0-2.089,1.014-2.089,3.457s.86,3.457,2.089,3.457C1132.774,222.321,1133.635,221.307,1133.635,218.864Z"
          fill="#ea2024" />
        <path id="Path_1837" data-name="Path 1837"
          d="M1148.171,215.131h-1.122v9.111h-2.289v-.952a3.182,3.182,0,0,1-2.581,1.075,4.258,4.258,0,0,1,0-8.512,3.174,3.174,0,0,1,2.474,1v-1.721h-2.813v-1.383h2.813v-.907h2.4v.907h1.122Zm-3.473,4.978a2.119,2.119,0,1,0-2.1,2.29A2.094,2.094,0,0,0,1144.7,220.109Z"
          fill="#ea2024" />
        <path id="Path_1838" data-name="Path 1838"
          d="M1087.243,244.11c0,2.2-1.8,3.581-4.071,3.581-2.966,0-4.809-1.86-4.809-5.332,0-3.719,2.243-5.793,5.485-5.793a5.81,5.81,0,0,1,3,.737l-.922,1.829a3.541,3.541,0,0,0-2.013-.538c-1.8,0-2.95,1.06-3.027,3.119a3.631,3.631,0,0,1,2.658-.953A3.412,3.412,0,0,1,1087.243,244.11Zm-2.412.123A1.622,1.622,0,0,0,1083,242.62a1.681,1.681,0,0,0-1.858,1.613c0,.922.691,1.6,1.889,1.6A1.608,1.608,0,0,0,1084.831,244.233Z"
          fill="#ea2024" />
        <path id="Path_1839" data-name="Path 1839"
          d="M1088.919,242.128c0-3.549,1.967-5.562,4.61-5.562s4.609,2.013,4.609,5.562-1.951,5.563-4.609,5.563S1088.919,245.677,1088.919,242.128Zm6.715,0c0-2.443-.861-3.457-2.1-3.457s-2.09,1.014-2.09,3.457.86,3.457,2.09,3.457S1095.634,244.571,1095.634,242.128Z"
          fill="#ea2024" />
        <path id="Path_1840" data-name="Path 1840" d="M1099.844,246.123a1.49,1.49,0,0,1,2.98,0,1.49,1.49,0,1,1-2.98,0Z"
          fill="#ea2024" />
        <path id="Path_1841" data-name="Path 1841"
          d="M1104.516,242.128c0-3.549,1.967-5.562,4.609-5.562,2.658,0,4.61,2.013,4.61,5.562s-1.952,5.563-4.61,5.563C1106.483,247.691,1104.516,245.677,1104.516,242.128Zm6.715,0c0-2.443-.862-3.457-2.106-3.457-1.229,0-2.09,1.014-2.09,3.457s.861,3.457,2.09,3.457C1110.369,245.585,1111.231,244.571,1111.231,242.128Z"
          fill="#ea2024" />
        <path id="Path_1842" data-name="Path 1842"
          d="M1115.718,242.128c0-3.549,1.967-5.562,4.609-5.562,2.659,0,4.61,2.013,4.61,5.562s-1.951,5.563-4.61,5.563C1117.685,247.691,1115.718,245.677,1115.718,242.128Zm6.715,0c0-2.443-.862-3.457-2.106-3.457-1.229,0-2.089,1.014-2.089,3.457s.86,3.457,2.089,3.457C1121.571,245.585,1122.433,244.571,1122.433,242.128Z"
          fill="#ea2024" />
        <path id="Path_1843" data-name="Path 1843"
          d="M1126.92,242.128c0-3.549,1.967-5.562,4.609-5.562,2.659,0,4.61,2.013,4.61,5.562s-1.951,5.563-4.61,5.563C1128.887,247.691,1126.92,245.677,1126.92,242.128Zm6.715,0c0-2.443-.861-3.457-2.106-3.457-1.229,0-2.089,1.014-2.089,3.457s.86,3.457,2.089,3.457C1132.774,245.585,1133.635,244.571,1133.635,242.128Z"
          fill="#ea2024" />
        <path id="Path_1844" data-name="Path 1844"
          d="M1148.171,238.394h-1.122v9.112h-2.289v-.953a3.18,3.18,0,0,1-2.581,1.076,4.258,4.258,0,0,1,0-8.513,3.178,3.178,0,0,1,2.474,1v-1.721h-2.813v-1.383h2.813V236.1h2.4v.906h1.122Zm-3.473,4.979a2.119,2.119,0,1,0-2.1,2.289A2.094,2.094,0,0,0,1144.7,243.373Z"
          fill="#ea2024" />
      </g>
    </g>
    <g id="Group_174" data-name="Group 174">
      <path id="Path_1950" data-name="Path 1950" d="M650.343,129.388v10.756h-2.489v-8.759H645.7v-2Z" fill="#68695f" />
      <path id="Path_1951" data-name="Path 1951"
        d="M652.909,138.761a1.491,1.491,0,0,1,2.981,0,1.491,1.491,0,1,1-2.981,0Z" fill="#68695f" />
      <path id="Path_1952" data-name="Path 1952" d="M665.8,131.416H662.36v-2.028h9.373v2.028H668.29v8.728H665.8Z"
        fill="#68695f" />
      <path id="Path_1953" data-name="Path 1953"
        d="M678.616,131.754v2.213c-.2-.016-.353-.031-.538-.031a2.031,2.031,0,0,0-2.2,2.3v3.9h-2.4v-8.267h2.289v1.091A3.336,3.336,0,0,1,678.616,131.754Z"
        fill="#68695f" />
      <path id="Path_1954" data-name="Path 1954"
        d="M688.082,135.426v4.718h-2.243v-1.03a2.712,2.712,0,0,1-2.519,1.153c-1.937,0-3.089-1.076-3.089-2.505,0-1.46,1.029-2.474,3.549-2.474h1.906c0-1.03-.615-1.629-1.906-1.629a3.968,3.968,0,0,0-2.381.769l-.861-1.675a6.358,6.358,0,0,1,3.565-1C686.623,131.754,688.082,132.922,688.082,135.426Zm-4.21-4.609-2.781-2.213h2.582l2.074,2.213Zm1.814,6.714v-.844h-1.645c-1.121,0-1.474.414-1.474.967,0,.6.506,1,1.351,1A1.768,1.768,0,0,0,685.686,137.531Z"
        fill="#68695f" />
      <path id="Path_1955" data-name="Path 1955"
        d="M705.677,131.032h-1.122v9.112h-2.289v-.953a3.183,3.183,0,0,1-2.581,1.076,4.258,4.258,0,0,1,0-8.513,3.176,3.176,0,0,1,2.473,1v-1.721h-2.812v-1.383h2.812v-.907h2.4v.907h1.122ZM702.2,136.01a2.119,2.119,0,1,0-2.1,2.29A2.094,2.094,0,0,0,702.2,136.01Z"
        fill="#68695f" />
      <path id="Path_1956" data-name="Path 1956"
        d="M714.85,135.426v4.718h-2.243v-1.03a2.713,2.713,0,0,1-2.52,1.153c-1.936,0-3.089-1.076-3.089-2.505,0-1.46,1.03-2.474,3.55-2.474h1.905c0-1.03-.614-1.629-1.905-1.629a3.973,3.973,0,0,0-2.382.769l-.86-1.675a6.354,6.354,0,0,1,3.564-1C713.391,131.754,714.85,132.922,714.85,135.426Zm-4.21-4.609-2.781-2.213h2.582l2.074,2.213Zm1.813,6.714v-.844h-1.644c-1.121,0-1.475.414-1.475.967,0,.6.507,1,1.352,1A1.766,1.766,0,0,0,712.453,137.531Z"
        fill="#68695f" />
      <path id="Path_1957" data-name="Path 1957"
        d="M717.263,136.01a4.55,4.55,0,1,1,4.549,4.257A4.256,4.256,0,0,1,717.263,136.01Zm6.653,0a2.119,2.119,0,1,0-2.1,2.29A2.085,2.085,0,0,0,723.916,136.01Z"
        fill="#68695f" />
      <path id="Path_1958" data-name="Path 1958"
        d="M733.214,136.01a4.273,4.273,0,0,1,4.609-4.256,3.8,3.8,0,0,1,3.7,2.1l-1.86,1a2.06,2.06,0,0,0-1.859-1.137,2.293,2.293,0,0,0,0,4.579,2.033,2.033,0,0,0,1.859-1.137l1.86,1.014a3.837,3.837,0,0,1-3.7,2.09A4.274,4.274,0,0,1,733.214,136.01Z"
        fill="#68695f" />
      <path id="Path_1959" data-name="Path 1959"
        d="M752.068,135.411v4.733h-2.4V135.78c0-1.337-.614-1.952-1.675-1.952-1.152,0-1.982.707-1.982,2.228v4.088h-2.4v-11.4h2.4v3.995a3.634,3.634,0,0,1,2.628-.983C750.592,131.754,752.068,132.891,752.068,135.411Z"
        fill="#68695f" />
      <path id="Path_1960" data-name="Path 1960"
        d="M762.316,135.426v4.718h-2.244v-1.03a2.711,2.711,0,0,1-2.519,1.153c-1.937,0-3.089-1.076-3.089-2.505,0-1.46,1.029-2.474,3.55-2.474h1.905c0-1.03-.615-1.629-1.905-1.629a3.973,3.973,0,0,0-2.382.769l-.86-1.675a6.355,6.355,0,0,1,3.564-1C760.857,131.754,762.316,132.922,762.316,135.426Zm-2.4,2.105v-.844h-1.644c-1.121,0-1.475.414-1.475.967,0,.6.507,1,1.352,1A1.767,1.767,0,0,0,759.919,137.531Z"
        fill="#68695f" />
      <path id="Path_1961" data-name="Path 1961"
        d="M773.7,135.411v4.733h-2.4V135.78c0-1.337-.614-1.952-1.675-1.952-1.152,0-1.982.707-1.982,2.228v4.088h-2.4v-8.267h2.289v.968a3.62,3.62,0,0,1,2.736-1.091C772.228,131.754,773.7,132.891,773.7,135.411Z"
        fill="#68695f" />
      <path id="Path_1962" data-name="Path 1962"
        d="M785.089,135.411v4.733h-2.4V135.78c0-1.337-.615-1.952-1.675-1.952-1.153,0-1.983.707-1.983,2.228v4.088h-2.4v-11.4h2.4v3.995a3.637,3.637,0,0,1,2.628-.983C783.613,131.754,785.089,132.891,785.089,135.411Z"
        fill="#68695f" />
      <path id="Path_1963" data-name="Path 1963" d="M793.142,128.742h2.4v11.4h-2.4Z" fill="#68695f" />
      <path id="Path_1964" data-name="Path 1964"
        d="M806.587,136.687h-6.254a2.205,2.205,0,0,0,2.366,1.659,2.8,2.8,0,0,0,2.075-.8l1.275,1.383a4.33,4.33,0,0,1-3.411,1.337c-2.859,0-4.717-1.8-4.717-4.257a4.208,4.208,0,0,1,4.409-4.256,4.093,4.093,0,0,1,4.3,4.287C806.633,136.225,806.6,136.487,806.587,136.687Zm-6.285-1.4h4.072a2.065,2.065,0,0,0-4.072,0Z"
        fill="#68695f" />
      <path id="Path_1965" data-name="Path 1965"
        d="M808.384,136.01a4.55,4.55,0,1,1,4.549,4.257A4.256,4.256,0,0,1,808.384,136.01Zm6.653,0a2.119,2.119,0,1,0-2.1,2.29A2.085,2.085,0,0,0,815.037,136.01Z"
        fill="#68695f" />
      <path id="Path_1966" data-name="Path 1966"
        d="M654.231,161.38v2.028H646.1v-1.613l4.149-3.919c.952-.906,1.121-1.459,1.121-1.982,0-.845-.584-1.337-1.72-1.337a2.633,2.633,0,0,0-2.229,1.076l-1.812-1.168a4.993,4.993,0,0,1,4.271-2c2.4,0,3.995,1.23,3.995,3.181,0,1.045-.292,2-1.8,3.4l-2.473,2.336Z"
        fill="#68695f" />
      <path id="Path_1967" data-name="Path 1967" d="M656.106,162.025a1.49,1.49,0,0,1,2.98,0,1.49,1.49,0,1,1-2.98,0Z"
        fill="#68695f" />
      <path id="Path_1968" data-name="Path 1968" d="M669,154.68h-3.441v-2.028h9.373v2.028h-3.442v8.728H669Z"
        fill="#68695f" />
      <path id="Path_1969" data-name="Path 1969"
        d="M681.813,155.018v2.213c-.2-.015-.354-.031-.538-.031a2.032,2.032,0,0,0-2.2,2.305v3.9h-2.4v-8.267h2.289v1.091A3.336,3.336,0,0,1,681.813,155.018Z"
        fill="#68695f" />
      <path id="Path_1970" data-name="Path 1970"
        d="M691.279,158.691v4.717h-2.244v-1.029a2.71,2.71,0,0,1-2.519,1.152c-1.937,0-3.089-1.076-3.089-2.505,0-1.459,1.029-2.474,3.55-2.474h1.905c0-1.029-.615-1.628-1.905-1.628a3.979,3.979,0,0,0-2.382.768l-.86-1.675a6.355,6.355,0,0,1,3.564-1C689.82,155.018,691.279,156.186,691.279,158.691Zm-4.21-4.61-2.782-2.213h2.582l2.075,2.213Zm1.813,6.715v-.845h-1.644c-1.122,0-1.475.414-1.475.968,0,.6.507,1,1.351,1A1.766,1.766,0,0,0,688.882,160.8Z"
        fill="#68695f" />
      <path id="Path_1971" data-name="Path 1971"
        d="M708.335,159.275a4.015,4.015,0,0,1-4.118,4.256,3.216,3.216,0,0,1-2.6-1.076v.953h-2.289v-11.4h2.4v4.01a3.21,3.21,0,0,1,2.489-1A4.016,4.016,0,0,1,708.335,159.275Zm-2.428,0a2.112,2.112,0,1,0-2.1,2.289A2.086,2.086,0,0,0,705.907,159.275Z"
        fill="#68695f" />
      <path id="Path_1972" data-name="Path 1972"
        d="M717.877,158.691v4.717h-2.243v-1.029a2.712,2.712,0,0,1-2.52,1.152c-1.936,0-3.088-1.076-3.088-2.505,0-1.459,1.029-2.474,3.549-2.474h1.906c0-1.029-.615-1.628-1.906-1.628a3.974,3.974,0,0,0-2.381.768l-.861-1.675a6.356,6.356,0,0,1,3.565-1C716.418,155.018,717.877,156.186,717.877,158.691Zm-2.4,2.105v-.845h-1.645c-1.121,0-1.474.414-1.474.968,0,.6.506,1,1.351,1A1.767,1.767,0,0,0,715.481,160.8Zm-.461,4.809a1.06,1.06,0,0,1-2.12,0,1.06,1.06,0,1,1,2.12,0Z"
        fill="#68695f" />
      <path id="Path_1973" data-name="Path 1973"
        d="M720.29,159.275a4.275,4.275,0,0,1,4.611-4.257,3.8,3.8,0,0,1,3.7,2.1l-1.86,1a2.061,2.061,0,0,0-1.859-1.137,2.293,2.293,0,0,0,0,4.579,2.033,2.033,0,0,0,1.859-1.137l1.86,1.014a3.837,3.837,0,0,1-3.7,2.09A4.275,4.275,0,0,1,720.29,159.275Z"
        fill="#68695f" />
      <path id="Path_1974" data-name="Path 1974"
        d="M744.322,158.675v4.733h-2.4v-4.364c0-1.337-.614-1.952-1.675-1.952-1.152,0-1.982.707-1.982,2.228v4.088h-2.4v-11.4h2.4V156a3.631,3.631,0,0,1,2.628-.984C742.847,155.018,744.322,156.155,744.322,158.675Z"
        fill="#68695f" />
      <path id="Path_1975" data-name="Path 1975"
        d="M754.571,158.691v4.717h-2.243v-1.029a2.71,2.71,0,0,1-2.519,1.152c-1.937,0-3.089-1.076-3.089-2.505,0-1.459,1.029-2.474,3.55-2.474h1.9c0-1.029-.615-1.628-1.9-1.628a3.979,3.979,0,0,0-2.382.768l-.86-1.675a6.354,6.354,0,0,1,3.564-1C753.113,155.018,754.571,156.186,754.571,158.691Zm-4.209-4.61-2.782-2.213h2.582l2.075,2.213Zm1.813,6.715v-.845H750.53c-1.121,0-1.474.414-1.474.968,0,.6.507,1,1.351,1A1.766,1.766,0,0,0,752.175,160.8Z"
        fill="#68695f" />
      <path id="Path_1976" data-name="Path 1976"
        d="M654.138,183.383c0,1.813-1.4,3.473-4.456,3.473a7.393,7.393,0,0,1-4.1-1.153l.969-1.9a5.219,5.219,0,0,0,3.072.968c1.245,0,2.014-.507,2.014-1.383,0-.814-.6-1.321-2.014-1.321h-1.136v-1.644l2.212-2.505h-4.579v-2h7.53v1.613l-2.428,2.766A3.055,3.055,0,0,1,654.138,183.383Z"
        fill="#68695f" />
      <path id="Path_1977" data-name="Path 1977" d="M655.983,185.289a1.49,1.49,0,0,1,2.98,0,1.49,1.49,0,1,1-2.98,0Z"
        fill="#68695f" />
      <path id="Path_1978" data-name="Path 1978" d="M668.874,177.944h-3.441v-2.028h9.373v2.028h-3.443v8.728h-2.489Z"
        fill="#68695f" />
      <path id="Path_1979" data-name="Path 1979"
        d="M681.69,178.282v2.213c-.2-.016-.354-.031-.538-.031a2.031,2.031,0,0,0-2.2,2.3v3.9h-2.4V178.4h2.289V179.5A3.336,3.336,0,0,1,681.69,178.282Z"
        fill="#68695f" />
      <path id="Path_1980" data-name="Path 1980"
        d="M691.155,181.954v4.718h-2.243v-1.03a2.711,2.711,0,0,1-2.519,1.153c-1.937,0-3.089-1.076-3.089-2.505,0-1.46,1.029-2.474,3.55-2.474h1.9c0-1.03-.615-1.629-1.9-1.629a3.971,3.971,0,0,0-2.382.769l-.86-1.675a6.347,6.347,0,0,1,3.564-1C689.7,178.282,691.155,179.45,691.155,181.954Zm-4.209-4.61-2.782-2.212h2.582l2.075,2.212Zm1.813,6.715v-.844h-1.645c-1.121,0-1.474.414-1.474.967,0,.6.507,1,1.351,1A1.766,1.766,0,0,0,688.759,184.059Z"
        fill="#68695f" />
      <path id="Path_1981" data-name="Path 1981"
        d="M709.241,183.737c0,1.859-1.474,2.935-4.3,2.935h-5.563V175.916h5.255c2.689,0,4.072,1.121,4.072,2.8a2.584,2.584,0,0,1-1.429,2.366A2.656,2.656,0,0,1,709.241,183.737Zm-7.39-5.947v2.535h2.473c1.214,0,1.875-.43,1.875-1.275s-.661-1.26-1.875-1.26Zm4.887,5.685c0-.906-.692-1.336-1.983-1.336h-2.9V184.8h2.9C706.046,184.8,706.738,184.4,706.738,183.475Z"
        fill="#68695f" />
      <path id="Path_1982" data-name="Path 1982"
        d="M719.045,181.954v4.718H716.8v-1.03a2.712,2.712,0,0,1-2.52,1.153c-1.936,0-3.088-1.076-3.088-2.505,0-1.46,1.029-2.474,3.549-2.474h1.906c0-1.03-.615-1.629-1.906-1.629a3.968,3.968,0,0,0-2.381.769l-.861-1.675a6.348,6.348,0,0,1,3.565-1C717.586,178.282,719.045,179.45,719.045,181.954Zm-2.4,2.105v-.844H715c-1.121,0-1.475.414-1.475.967,0,.6.507,1,1.352,1A1.767,1.767,0,0,0,716.649,184.059Zm-.861-6.715h-1.875l2.075-2.212h2.582Z"
        fill="#68695f" />
      <path id="Path_1983" data-name="Path 1983" d="M729.494,177.944h-3.441v-2.028h9.373v2.028h-3.442v8.728h-2.49Z"
        fill="#68695f" />
      <path id="Path_1984" data-name="Path 1984"
        d="M745.506,179.788v6.884h-2.274v-.984a3.346,3.346,0,0,1-2.566,1.107c-2.075,0-3.534-1.168-3.534-3.719V178.4h2.4v4.318c0,1.383.615,2,1.674,2,1.107,0,1.906-.707,1.906-2.228V178.4h1.275a.9.9,0,0,0,.922-.968,1.477,1.477,0,0,0-.307-.922l1.413-.523a2.48,2.48,0,0,1,.492,1.537A2.251,2.251,0,0,1,745.506,179.788Z"
        fill="#68695f" />
      <path id="Path_1985" data-name="Path 1985"
        d="M756.878,182.538a4.551,4.551,0,1,1-4.517-4.256c.8,0,1.259.138,1.828.138a.915.915,0,0,0,.983-1,1.561,1.561,0,0,0-.322-.922l1.4-.523a2.565,2.565,0,0,1,.523,1.537A2.143,2.143,0,0,1,755.6,179.5,4.083,4.083,0,0,1,756.878,182.538Zm-2.429,0a2.119,2.119,0,1,0-2.1,2.29A2.085,2.085,0,0,0,754.449,182.538Zm-1.628-5.194h-1.875l2.075-2.212H755.6Z"
        fill="#68695f" />
      <path id="Path_1986" data-name="Path 1986"
        d="M758.63,182.538a4.273,4.273,0,0,1,4.609-4.256,3.8,3.8,0,0,1,3.7,2.1l-1.86,1a2.06,2.06,0,0,0-1.859-1.137,2.293,2.293,0,0,0,0,4.579,2.034,2.034,0,0,0,1.859-1.137l1.86,1.014a3.837,3.837,0,0,1-3.7,2.09A4.274,4.274,0,0,1,758.63,182.538Z"
        fill="#68695f" />
      <path id="Path_1987" data-name="Path 1987"
        d="M656.043,207.676h-1.751v2.259h-2.428v-2.259h-5.793V206l5.071-6.823h2.612l-4.7,6.469h2.889v-2.013h2.351v2.013h1.751Z"
        fill="#68695f" />
      <path id="Path_1988" data-name="Path 1988"
        d="M657.78,208.552a1.491,1.491,0,0,1,2.981,0,1.491,1.491,0,1,1-2.981,0Z" fill="#68695f" />
      <path id="Path_1989" data-name="Path 1989" d="M670.672,201.208h-3.441v-2.029H676.6v2.029h-3.443v8.727h-2.489Z"
        fill="#68695f" />
      <path id="Path_1990" data-name="Path 1990"
        d="M683.488,201.546v2.212c-.2-.015-.354-.03-.539-.03a2.031,2.031,0,0,0-2.2,2.3v3.9h-2.4v-8.266h2.289v1.09A3.338,3.338,0,0,1,683.488,201.546Z"
        fill="#68695f" />
      <path id="Path_1991" data-name="Path 1991"
        d="M692.953,205.218v4.717H690.71v-1.029a2.711,2.711,0,0,1-2.519,1.152c-1.937,0-3.089-1.075-3.089-2.505,0-1.459,1.029-2.473,3.55-2.473h1.905c0-1.03-.614-1.629-1.905-1.629a3.977,3.977,0,0,0-2.382.768l-.861-1.674a6.352,6.352,0,0,1,3.565-1C691.494,201.546,692.953,202.714,692.953,205.218Zm-4.21-4.61-2.781-2.212h2.582l2.074,2.212Zm1.814,6.715v-.845h-1.645c-1.121,0-1.474.415-1.474.968,0,.6.507,1,1.351,1A1.767,1.767,0,0,0,690.557,207.323Z"
        fill="#68695f" />
      <path id="Path_1992" data-name="Path 1992"
        d="M700.5,204.557a5.923,5.923,0,0,1,10.264-3.657l-1.6,1.475a3.463,3.463,0,0,0-2.7-1.26,3.442,3.442,0,1,0,0,6.884,3.428,3.428,0,0,0,2.7-1.275l1.6,1.475a5.912,5.912,0,0,1-10.264-3.642Z"
        fill="#68695f" />
      <path id="Path_1993" data-name="Path 1993"
        d="M721.488,205.2v4.732h-2.4v-4.364c0-1.336-.614-1.951-1.675-1.951-1.152,0-1.982.707-1.982,2.228v4.087h-2.4v-11.4h2.4v4a3.63,3.63,0,0,1,2.628-.983C720.013,201.546,721.488,202.683,721.488,205.2Z"
        fill="#68695f" />
      <path id="Path_1994" data-name="Path 1994"
        d="M731.738,205.218v4.717h-2.244v-1.029a2.71,2.71,0,0,1-2.519,1.152c-1.937,0-3.089-1.075-3.089-2.505,0-1.459,1.029-2.473,3.55-2.473h1.905c0-1.03-.615-1.629-1.905-1.629a3.979,3.979,0,0,0-2.382.768l-.86-1.674a6.347,6.347,0,0,1,3.564-1C730.279,201.546,731.738,202.714,731.738,205.218Zm-2.4,2.1v-.845H727.7c-1.121,0-1.474.415-1.474.968,0,.6.507,1,1.351,1A1.766,1.766,0,0,0,729.341,207.323Z"
        fill="#68695f" />
      <path id="Path_1995" data-name="Path 1995"
        d="M743.124,205.2v4.732h-2.4v-4.364c0-1.336-.614-1.951-1.675-1.951-1.152,0-1.982.707-1.982,2.228v4.087h-2.4v-8.266h2.289v.967a3.622,3.622,0,0,1,2.735-1.09C741.649,201.546,743.124,202.683,743.124,205.2Z"
        fill="#68695f" />
      <path id="Path_1996" data-name="Path 1996"
        d="M754.511,205.2v4.732h-2.4v-4.364c0-1.336-.614-1.951-1.674-1.951-1.153,0-1.983.707-1.983,2.228v4.087h-2.4v-11.4h2.4v4a3.633,3.633,0,0,1,2.628-.983C753.035,201.546,754.511,202.683,754.511,205.2Z"
        fill="#68695f" />
      <path id="Path_1997" data-name="Path 1997"
        d="M769.508,209.935l-2.6-3.734-2.55,3.734H761.5l3.98-5.47-3.78-5.286h2.827L767,202.667l2.428-3.488h2.689l-3.75,5.194,4.011,5.562Z"
        fill="#68695f" />
      <path id="Path_1998" data-name="Path 1998"
        d="M781.339,205.218v4.717H779.1v-1.029a2.712,2.712,0,0,1-2.52,1.152c-1.936,0-3.088-1.075-3.088-2.505,0-1.459,1.029-2.473,3.549-2.473h1.906c0-1.03-.616-1.629-1.906-1.629a3.979,3.979,0,0,0-2.382.768l-.86-1.674a6.348,6.348,0,0,1,3.565-1C779.88,201.546,781.339,202.714,781.339,205.218Zm-2.4,2.1v-.845H777.3c-1.121,0-1.475.415-1.475.968,0,.6.507,1,1.352,1A1.767,1.767,0,0,0,778.943,207.323Zm-2.474-8.651-.492-.968a2.674,2.674,0,0,1,1.659-.522,1.665,1.665,0,0,1,1.845,1.644,2.064,2.064,0,0,1-1.414,1.936l-.753-.8c.6-.277.783-.584.783-.937a.651.651,0,0,0-.722-.645A1.617,1.617,0,0,0,776.469,198.672Z"
        fill="#68695f" />
      <path id="Path_1999" data-name="Path 1999"
        d="M654.322,229.819c0,1.9-1.4,3.565-4.471,3.565a7.432,7.432,0,0,1-4.1-1.153l.984-1.9a5.172,5.172,0,0,0,3.057.968c1.245,0,2.014-.522,2.014-1.4,0-.846-.554-1.4-2.505-1.4h-2.75l.553-6.054h6.561v2h-4.487l-.169,2.044h.876C653.063,226.485,654.322,227.914,654.322,229.819Z"
        fill="#68695f" />
      <path id="Path_2000" data-name="Path 2000" d="M656.029,231.817a1.49,1.49,0,0,1,2.98,0,1.49,1.49,0,1,1-2.98,0Z"
        fill="#68695f" />
      <path id="Path_2001" data-name="Path 2001" d="M668.92,224.472h-3.441v-2.028h9.373v2.028h-3.443V233.2H668.92Z"
        fill="#68695f" />
      <path id="Path_2002" data-name="Path 2002"
        d="M681.736,224.81v2.213c-.2-.016-.354-.031-.539-.031a2.031,2.031,0,0,0-2.2,2.3v3.9h-2.4v-8.266h2.289v1.091A3.336,3.336,0,0,1,681.736,224.81Z"
        fill="#68695f" />
      <path id="Path_2003" data-name="Path 2003"
        d="M691.2,228.482V233.2h-2.243V232.17a2.71,2.71,0,0,1-2.519,1.152c-1.937,0-3.089-1.075-3.089-2.5,0-1.46,1.029-2.474,3.55-2.474h1.9c0-1.03-.614-1.629-1.9-1.629a3.971,3.971,0,0,0-2.382.769l-.861-1.675a6.352,6.352,0,0,1,3.565-1C689.742,224.81,691.2,225.978,691.2,228.482Zm-4.21-4.61-2.781-2.212h2.582l2.074,2.212Zm1.814,6.715v-.845H687.16c-1.121,0-1.474.415-1.474.968,0,.6.507,1,1.351,1A1.766,1.766,0,0,0,688.8,230.587Z"
        fill="#68695f" />
      <path id="Path_2004" data-name="Path 2004"
        d="M709.287,222.444V233.2H706.8v-4.41h-4.886v4.41h-2.489V222.444h2.489v4.24H706.8v-4.24Z" fill="#68695f" />
      <path id="Path_2005" data-name="Path 2005"
        d="M712.147,222.444a1.37,1.37,0,0,1,1.49-1.337,1.345,1.345,0,0,1,1.49,1.29,1.5,1.5,0,0,1-2.98.047Zm.292,2.489h2.4V233.2h-2.4Z"
        fill="#68695f" />
      <path id="Path_2006" data-name="Path 2006"
        d="M726.836,229.066a4.015,4.015,0,0,1-4.118,4.256,3.215,3.215,0,0,1-2.6-1.075v.952h-2.289V221.8h2.4v4.011a3.211,3.211,0,0,1,2.489-1A4.015,4.015,0,0,1,726.836,229.066Zm-2.428,0a2.112,2.112,0,1,0-2.1,2.29A2.085,2.085,0,0,0,724.408,229.066Z"
        fill="#68695f" />
      <path id="Path_2007" data-name="Path 2007"
        d="M728.91,222.444a1.371,1.371,0,0,1,1.491-1.337,1.345,1.345,0,0,1,1.49,1.29,1.5,1.5,0,0,1-2.981.047Zm.292,2.489h2.4V233.2h-2.4Z"
        fill="#68695f" />
      <path id="Path_2008" data-name="Path 2008"
        d="M733.982,229.066a4.273,4.273,0,0,1,4.609-4.256,3.8,3.8,0,0,1,3.7,2.1l-1.859,1a2.062,2.062,0,0,0-1.86-1.137,2.293,2.293,0,0,0,0,4.579,2.036,2.036,0,0,0,1.86-1.138l1.859,1.015a3.835,3.835,0,0,1-3.7,2.089A4.273,4.273,0,0,1,733.982,229.066Z"
        fill="#68695f" />
      <path id="Path_2009" data-name="Path 2009"
        d="M752.774,224.933V233.2H750.5v-.983a3.344,3.344,0,0,1-2.565,1.106c-2.075,0-3.534-1.168-3.534-3.718v-4.671h2.4v4.318c0,1.382.615,2,1.675,2,1.106,0,1.9-.707,1.9-2.228v-4.087Z"
        fill="#68695f" />
      <path id="Path_2010" data-name="Path 2010"
        d="M754.972,232.431l.8-1.721a5.647,5.647,0,0,0,2.873.8c1.106,0,1.521-.292,1.521-.753,0-1.352-4.994.031-4.994-3.272,0-1.568,1.414-2.674,3.826-2.674a6.8,6.8,0,0,1,3.181.722l-.8,1.705a4.756,4.756,0,0,0-2.382-.614c-1.075,0-1.536.338-1.536.768,0,1.414,4.993.046,4.993,3.3,0,1.536-1.428,2.627-3.9,2.627A7.094,7.094,0,0,1,754.972,232.431Z"
        fill="#68695f" />
      <path id="Path_2011" data-name="Path 2011"
        d="M776.761,233.2l-2.6-3.733-2.551,3.733h-2.858l3.98-5.47-3.78-5.285h2.827l2.474,3.487,2.428-3.487h2.689l-3.75,5.193,4.011,5.562Z"
        fill="#68695f" />
      <path id="Path_2012" data-name="Path 2012"
        d="M780.48,229.066a4.55,4.55,0,1,1,4.548,4.256A4.255,4.255,0,0,1,780.48,229.066Zm6.652,0a2.119,2.119,0,1,0-2.1,2.29A2.085,2.085,0,0,0,787.132,229.066Z"
        fill="#68695f" />
      <path id="Path_2013" data-name="Path 2013"
        d="M799.1,228.482V233.2H796.86V232.17a2.713,2.713,0,0,1-2.52,1.152c-1.936,0-3.089-1.075-3.089-2.5,0-1.46,1.029-2.474,3.55-2.474h1.9c0-1.03-.615-1.629-1.9-1.629a3.973,3.973,0,0,0-2.382.769l-.86-1.675a6.346,6.346,0,0,1,3.564-1C797.644,224.81,799.1,225.978,799.1,228.482Zm-4.21-4.61-2.781-2.212h2.582l2.074,2.212Zm1.813,6.715v-.845h-1.644c-1.121,0-1.475.415-1.475.968,0,.6.507,1,1.352,1A1.766,1.766,0,0,0,796.706,230.587Z"
        fill="#68695f" />
      <path id="Path_2014" data-name="Path 2014"
        d="M801.747,222.444a1.371,1.371,0,0,1,1.491-1.337,1.345,1.345,0,0,1,1.49,1.29,1.5,1.5,0,0,1-2.981.047Zm.292,2.489h2.4V233.2h-2.4Z"
        fill="#68695f" />
      <path id="Path_2015" data-name="Path 2015"
        d="M655.075,253.067c0,2.2-1.8,3.581-4.072,3.581-2.965,0-4.808-1.86-4.808-5.332,0-3.719,2.243-5.793,5.485-5.793a5.81,5.81,0,0,1,3,.737l-.922,1.829a3.541,3.541,0,0,0-2.013-.538c-1.8,0-2.95,1.06-3.027,3.119a3.631,3.631,0,0,1,2.658-.953A3.412,3.412,0,0,1,655.075,253.067Zm-2.412.123a1.622,1.622,0,0,0-1.829-1.613,1.681,1.681,0,0,0-1.858,1.613c0,.922.691,1.6,1.889,1.6A1.608,1.608,0,0,0,652.663,253.19Z"
        fill="#68695f" />
      <path id="Path_2016" data-name="Path 2016"
        d="M656.827,255.08a1.491,1.491,0,0,1,2.981,0,1.491,1.491,0,1,1-2.981,0Z" fill="#68695f" />
      <path id="Path_2017" data-name="Path 2017" d="M669.719,247.736h-3.441v-2.029h9.373v2.029h-3.443v8.727h-2.489Z"
        fill="#68695f" />
      <path id="Path_2018" data-name="Path 2018"
        d="M682.535,248.073v2.213c-.2-.015-.353-.03-.538-.03a2.031,2.031,0,0,0-2.2,2.3v3.9h-2.4V248.2h2.289v1.091A3.336,3.336,0,0,1,682.535,248.073Z"
        fill="#68695f" />
      <path id="Path_2019" data-name="Path 2019"
        d="M692,251.746v4.717h-2.243v-1.029a2.711,2.711,0,0,1-2.519,1.152c-1.937,0-3.089-1.076-3.089-2.505,0-1.459,1.029-2.473,3.549-2.473H689.6c0-1.03-.615-1.629-1.906-1.629a3.974,3.974,0,0,0-2.381.768l-.861-1.675a6.358,6.358,0,0,1,3.565-1C690.541,248.073,692,249.241,692,251.746Zm-4.21-4.61-2.781-2.212h2.582l2.074,2.212Zm1.814,6.715v-.845h-1.645c-1.121,0-1.474.415-1.474.968,0,.6.506,1,1.351,1A1.767,1.767,0,0,0,689.6,253.851Z"
        fill="#68695f" />
      <path id="Path_2020" data-name="Path 2020"
        d="M699.546,251.085a5.923,5.923,0,0,1,10.264-3.657l-1.6,1.475a3.461,3.461,0,0,0-2.7-1.26,3.442,3.442,0,1,0,0,6.884,3.429,3.429,0,0,0,2.7-1.275l1.6,1.475a5.912,5.912,0,0,1-10.264-3.642Z"
        fill="#68695f" />
      <path id="Path_2021" data-name="Path 2021"
        d="M719.337,251.746v4.717h-2.243v-1.029a2.712,2.712,0,0,1-2.52,1.152c-1.936,0-3.088-1.076-3.088-2.505,0-1.459,1.029-2.473,3.549-2.473h1.906c0-1.03-.616-1.629-1.906-1.629a3.974,3.974,0,0,0-2.381.768l-.861-1.675a6.355,6.355,0,0,1,3.565-1C717.878,248.073,719.337,249.241,719.337,251.746Zm-2.4,2.1v-.845H715.3c-1.121,0-1.475.415-1.475.968,0,.6.507,1,1.352,1A1.767,1.767,0,0,0,716.941,253.851Z"
        fill="#68695f" />
      <path id="Path_2022" data-name="Path 2022"
        d="M736.239,251.731v4.732h-2.4V252.1c0-1.337-.6-1.951-1.567-1.951-1.076,0-1.829.691-1.829,2.166v4.149h-2.4V252.1c0-1.337-.568-1.951-1.567-1.951-1.061,0-1.814.691-1.814,2.166v4.149h-2.4V248.2h2.289v.953a3.348,3.348,0,0,1,2.6-1.076,3.087,3.087,0,0,1,2.72,1.352,3.721,3.721,0,0,1,2.982-1.352C734.826,248.073,736.239,249.211,736.239,251.731Z"
        fill="#68695f" />
      <path id="Path_2023" data-name="Path 2023"
        d="M755.462,251.085c0,3.257-2.412,5.378-5.931,5.378h-4.885v-4.641h-1.46v-1.659h1.46v-4.456h4.885C753.05,245.707,755.462,247.828,755.462,251.085Zm-2.519,0a3.211,3.211,0,0,0-3.535-3.334h-2.274v2.412h2.689v1.659h-2.689v2.6h2.274A3.211,3.211,0,0,0,752.943,251.085Z"
        fill="#68695f" />
      <path id="Path_2024" data-name="Path 2024"
        d="M765.251,251.746v4.717h-2.243v-1.029a2.712,2.712,0,0,1-2.52,1.152c-1.936,0-3.088-1.076-3.088-2.505,0-1.459,1.029-2.473,3.549-2.473h1.906c0-1.03-.616-1.629-1.906-1.629a3.974,3.974,0,0,0-2.381.768l-.861-1.675a6.356,6.356,0,0,1,3.565-1C763.792,248.073,765.251,249.241,765.251,251.746Zm-4.21-4.61-2.781-2.212h2.582l2.074,2.212Zm1.814,6.715v-.845H761.21c-1.121,0-1.474.415-1.474.968,0,.6.506,1,1.351,1A1.767,1.767,0,0,0,762.855,253.851Z"
        fill="#68695f" />
      <path id="Path_2025" data-name="Path 2025"
        d="M767.663,252.33a4.551,4.551,0,1,1,4.549,4.256A4.257,4.257,0,0,1,767.663,252.33Zm6.654,0a2.119,2.119,0,1,0-2.105,2.289A2.087,2.087,0,0,0,774.317,252.33Z"
        fill="#68695f" />
    </g>
  </g>
</svg>
