<svg xmlns="http://www.w3.org/2000/svg" width="595.671" height="150.132" viewBox="0 0 595.671 150.132">
  <path id="Icon"
    d="M1368.683,701.624a5.22,5.22,0,0,0-2-1.292c.879-5.1.718-7.947-20.077-14.476-21.164-6.644-23.531-3.891-25.274,1.631l-.3.942a2.836,2.836,0,0,0,1.859,3.557l6.79,2.132a2.847,2.847,0,0,0,3.567-1.854l.3-.942c1.351-4.277,7.959-2.347,11.7-1.171s10.269,3.368,8.919,7.645l-.3.942a2.834,2.834,0,0,0,1.859,3.557l6.789,2.132a2.846,2.846,0,0,0,3.567-1.854l.193-.652a3.581,3.581,0,0,1,1.231.829c1.429,1.476,1.9,4.327,1.371,8.247-.923,6.791-3.6,9.217-6.449,10.024v-1.182a6.75,6.75,0,0,0-.91-3.424,43.839,43.839,0,0,0-12.015-12.958v-2.869a.407.407,0,0,0-.406-.405h-4.222a.4.4,0,0,0-.406.405v2.853h-4.819v-2.853a.407.407,0,0,0-.406-.405h-4.226a.408.408,0,0,0-.407.405v2.853a43.9,43.9,0,0,0-12.031,12.974,6.75,6.75,0,0,0-.91,3.424v2.671a6.9,6.9,0,0,0,6.907,6.888h26.944a6.893,6.893,0,0,0,6.9-6.712c4.568-1.066,7.16-4.783,8.068-11.472.611-4.492,0-7.718-1.812-9.59Zm-19.568,18.287-2.711-.963a4.326,4.326,0,1,0-8.209-1.917,4.332,4.332,0,0,0,6.724,3.6l1.486,2.438a7.166,7.166,0,1,1,2.71-3.158Zm0,0"
    transform="translate(-1190.551 -656.914)" fill="#ea2024" />
  <g id="Group_112" data-name="Group 112" transform="translate(-1190.551 -656.914)">
    <g id="Group_111" data-name="Group 111">
      <g id="Group_110" data-name="Group 110">
        <g id="Group_109" data-name="Group 109">
          <path id="Path_1120" data-name="Path 1120"
            d="M1369.214,660.371v11.578h-3.275v-4.515h-4.466v4.515H1358.2V660.371h3.275v4.35h4.466v-4.35Z"
            fill="#696a5f" />
          <path id="Path_1121" data-name="Path 1121"
            d="M1376.724,666.16c0-3.473,2.729-6.02,6.434-6.02s6.434,2.547,6.434,6.02-2.729,6.021-6.434,6.021S1376.724,669.634,1376.724,666.16Zm9.56,0a3.132,3.132,0,1,0-3.126,3.308A3.1,3.1,0,0,0,1386.284,666.16Z"
            fill="#696a5f" />
          <path id="Path_1122" data-name="Path 1122" d="M1399.4,662.968h-3.556v-2.6h10.371v2.6h-3.54v8.981H1399.4Z"
            fill="#696a5f" />
          <path id="Path_1123" data-name="Path 1123" d="M1413.229,660.371h3.274v8.982h5.525v2.6h-8.8Z" fill="#696a5f" />
          <path id="Path_1124" data-name="Path 1124" d="M1429.108,660.371h3.274v11.578h-3.274Z" fill="#696a5f" />
          <path id="Path_1125" data-name="Path 1125"
            d="M1451.52,660.371v11.578h-2.7l-5.111-6.17v6.17H1440.5V660.371h2.695l5.112,6.169v-6.169Z" fill="#696a5f" />
          <path id="Path_1126" data-name="Path 1126"
            d="M1468.921,669.419v2.53h-9.3V660.371h9.08V662.9h-5.839v1.952h5.145V667.3h-5.145v2.117Z" fill="#696a5f" />
          <path id="Path_1127" data-name="Path 1127"
            d="M1499.355,666.16c0,3.556-2.63,5.789-6.467,5.789h-5.475v-4.863h-1.489v-2.017h1.489v-4.7h5.475C1496.725,660.371,1499.355,662.6,1499.355,666.16Zm-3.308,0a3.01,3.01,0,0,0-3.292-3.175h-2.067v2.084h2.679v2.017h-2.679v2.25h2.067A3.011,3.011,0,0,0,1496.047,666.16Z"
            fill="#696a5f" />
          <path id="Path_1128" data-name="Path 1128"
            d="M1515.366,671.949l-.91-2.25h-4.9l-.91,2.25h-3.341l5.111-11.578h3.225l5.128,11.578Zm-6.566-15.035h1.918a1.347,1.347,0,0,0,2.646,0h1.919c-.066,1.638-1.389,2.663-3.242,2.663S1508.865,658.552,1508.8,656.914Zm4.7,10.371-1.488-3.7-1.489,3.7Zm-.148,7a1.307,1.307,0,0,1-2.614,0,1.307,1.307,0,0,1,2.614,0Z"
            fill="#696a5f" />
          <path id="Path_1129" data-name="Path 1129" d="M1527.375,662.968h-3.555v-2.6h10.371v2.6h-3.54v8.981h-3.276Z"
            fill="#696a5f" />
          <path id="Path_1130" data-name="Path 1130"
            d="M1562.821,660.371v11.578h-3.275v-4.515h-4.466v4.515h-3.274V660.371h3.274v4.35h4.466v-4.35Z"
            fill="#696a5f" />
          <path id="Path_1131" data-name="Path 1131"
            d="M1578.684,669.7h-4.9l-.91,2.25h-3.341l5.112-11.578h3.224L1583,671.949h-3.407Zm-3.043-10.271-3.11-2.514h3.143l2.216,2.514Zm2.084,7.857-1.488-3.7-1.49,3.7Z"
            fill="#696a5f" />
          <path id="Path_1132" data-name="Path 1132"
            d="M1600.733,660.371v11.578h-2.7l-5.111-6.17v6.17h-3.208V660.371h2.695l5.112,6.169v-6.169Z"
            fill="#696a5f" />
          <path id="Path_1133" data-name="Path 1133"
            d="M1616.595,665.912h2.894v4.8a8.634,8.634,0,0,1-4.862,1.472c-3.688,0-6.385-2.5-6.385-6.021s2.7-6.02,6.451-6.02a6.328,6.328,0,0,1,5.061,2.117l-2.084,1.886a3.61,3.61,0,0,0-2.811-1.291,3.308,3.308,0,0,0-.034,6.616,4.149,4.149,0,0,0,1.77-.38Z"
            fill="#696a5f" />
        </g>
      </g>
    </g>
  </g>
  <g id="Group_118" data-name="Group 118" transform="translate(-1190.551 -656.914)">
    <g id="Group_117" data-name="Group 117">
      <path id="Path_1141" data-name="Path 1141"
        d="M1387.976,718.109V699.163q0-5.637,2.307-8.24t7.362-2.6q5.055,0,7.362,2.6t2.308,8.24v18.946q0,5.638-2.308,8.24t-7.362,2.6q-5.055,0-7.362-2.6T1387.976,718.109Zm12.855,1.7v-22.34q0-3.778-3.186-3.778t-3.187,3.778v22.34q0,3.778,3.187,3.778T1400.831,719.806Z"
        fill="#ea2024" />
      <path id="Path_1142" data-name="Path 1142" d="M1424.345,694.455h-11.372V688.87h17.91V692.7l-8.076,35.7h-6.428Z"
        fill="#ea2024" />
      <path id="Path_1143" data-name="Path 1143" d="M1448.738,694.455h-11.373V688.87h17.911V692.7l-8.077,35.7h-6.427Z"
        fill="#ea2024" />
      <path id="Path_1144" data-name="Path 1144"
        d="M1471.536,728.4v-9.528h-11.977v-5.037l11.5-24.968h6.572v24.968h3.682v5.037h-3.682V728.4Zm-6.757-14.565h6.757V698.4Z"
        fill="#ea2024" />
      <path id="Path_1145" data-name="Path 1145"
        d="M1497.8,716.959h6.1v2.683q0,3.942,3.1,3.942,3.27,0,3.271-4.654v-3.011q0-3.176-1.319-4.38t-4.505-1.205v-5.367q3.075,0,4.313-1.286t1.235-4.736q0-5.256-2.772-5.257-3.1,0-3.106,4.052v1.642h-6.1v-1.861a9.16,9.16,0,0,1,2.465-6.653,9.012,9.012,0,0,1,6.792-2.546,8.067,8.067,0,0,1,6.628,3.066,11.247,11.247,0,0,1,2.19,7.064,14.449,14.449,0,0,1-.813,5.53,7.342,7.342,0,0,1-3.417,3.559,8.473,8.473,0,0,1,3.9,3.586,14.967,14.967,0,0,1,.988,6.215q0,11.61-9.888,11.608-9.066,0-9.066-9.636Z"
        fill="#ea2024" />
      <path id="Path_1146" data-name="Path 1146"
        d="M1540.977,728.4h-18.954v-5.312q7.472-10.84,9.724-14.893,3.351-6.023,3.352-10.02,0-4.489-3.077-4.49-3.3,0-3.3,4.107v2.682h-6.484v-1.861a10.39,10.39,0,0,1,2.72-7.392,9.642,9.642,0,0,1,7.39-2.9,8.965,8.965,0,0,1,6.647,2.6,8.447,8.447,0,0,1,2.582,6.16,22.134,22.134,0,0,1-2.307,9.637q-2.528,5.2-10.328,16.1h12.031Z"
        fill="#ea2024" />
      <path id="Path_1147" data-name="Path 1147"
        d="M1565.369,728.4h-18.954v-5.312q7.473-10.84,9.725-14.893,3.35-6.023,3.351-10.02,0-4.489-3.077-4.49-3.3,0-3.3,4.107v2.682h-6.483v-1.861a10.385,10.385,0,0,1,2.72-7.392,9.64,9.64,0,0,1,7.389-2.9,8.969,8.969,0,0,1,6.648,2.6,8.451,8.451,0,0,1,2.582,6.16,22.136,22.136,0,0,1-2.308,9.637q-2.526,5.2-10.328,16.1h12.031Z"
        fill="#ea2024" />
      <path id="Path_1148" data-name="Path 1148"
        d="M1583.168,716.959h6.1v2.683q0,3.942,3.1,3.942,3.27,0,3.271-4.654v-3.011q0-3.176-1.319-4.38t-4.505-1.205v-5.367q3.075,0,4.313-1.286t1.235-4.736q0-5.256-2.772-5.257-3.105,0-3.1,4.052v1.642h-6.1v-1.861a9.16,9.16,0,0,1,2.465-6.653,9.012,9.012,0,0,1,6.792-2.546,8.067,8.067,0,0,1,6.628,3.066,11.246,11.246,0,0,1,2.19,7.064,14.449,14.449,0,0,1-.813,5.53,7.342,7.342,0,0,1-3.417,3.559,8.475,8.475,0,0,1,3.9,3.586,14.969,14.969,0,0,1,.988,6.215q0,11.61-9.888,11.608-9.066,0-9.066-9.636Z"
        fill="#ea2024" />
      <path id="Path_1149" data-name="Path 1149"
        d="M1626.35,728.4H1607.4v-5.312q7.471-10.84,9.724-14.893,3.351-6.023,3.352-10.02,0-4.489-3.077-4.49-3.3,0-3.3,4.107v2.682h-6.484v-1.861a10.39,10.39,0,0,1,2.72-7.392,9.644,9.644,0,0,1,7.39-2.9,8.965,8.965,0,0,1,6.647,2.6,8.447,8.447,0,0,1,2.582,6.16,22.133,22.133,0,0,1-2.307,9.637q-2.527,5.2-10.328,16.1h12.031Z"
        fill="#ea2024" />
      <path id="Path_1150" data-name="Path 1150"
        d="M1650.742,728.4h-18.954v-5.312q7.473-10.84,9.725-14.893,3.35-6.023,3.351-10.02,0-4.489-3.077-4.49-3.3,0-3.3,4.107v2.682h-6.483v-1.861a10.385,10.385,0,0,1,2.72-7.392,9.639,9.639,0,0,1,7.389-2.9,8.969,8.969,0,0,1,6.648,2.6,8.447,8.447,0,0,1,2.582,6.16,22.134,22.134,0,0,1-2.308,9.637q-2.526,5.2-10.328,16.1h12.031Z"
        fill="#ea2024" />
    </g>
  </g>
  <g id="Group_124" data-name="Group 124" transform="translate(-1190.551 -656.914)">
    <g id="Group_120" data-name="Group 120">
      <g id="Group_119" data-name="Group 119">
        <path id="Path_1151" data-name="Path 1151"
          d="M1275.723,775.832a3.591,3.591,0,0,1-2.379.741,3.688,3.688,0,0,1-2.455-.78,2.884,2.884,0,0,1-1.006-2.352v-.319h2.436a1.682,1.682,0,0,0,.234.916.851.851,0,0,0,.766.429.826.826,0,0,0,.929-.942.86.86,0,0,0-.322-.7,1.949,1.949,0,0,0-.329-.208l-.184-.091-1.044-.461a6.814,6.814,0,0,1-.891-.449,3.687,3.687,0,0,1-.747-.578,2.5,2.5,0,0,1-.7-1.794,2.594,2.594,0,0,1,1.063-2.138,3.611,3.611,0,0,1,2.29-.761,3.753,3.753,0,0,1,1.417.273,2.881,2.881,0,0,1,1.177.845,3.224,3.224,0,0,1,.633,1.943h-2.424q-.14-.961-.879-.962-.842,0-.842.774a.8.8,0,0,0,.089.416,2.26,2.26,0,0,0,.88.624l1.012.468a7.7,7.7,0,0,1,.885.474,3.488,3.488,0,0,1,.709.579,2.512,2.512,0,0,1,.645,1.768A2.8,2.8,0,0,1,1275.723,775.832Z"
          fill="#606161" />
        <path id="Path_1152" data-name="Path 1152"
          d="M1284.054,775.494a3.969,3.969,0,0,1-5.523,0,4.106,4.106,0,0,1,0-5.622,3.969,3.969,0,0,1,5.523,0,4.1,4.1,0,0,1,0,5.622Zm-2.15-7.631-.6-.773-.595.773h-2.1l2.024-2.209h1.4l1.943,2.209Zm.625,3.517a1.645,1.645,0,0,0-2.473,0,2,2,0,0,0,0,2.613,1.661,1.661,0,0,0,2.473,0,1.993,1.993,0,0,0,0-2.613Zm1.019-4.589-.613-1.306,3.112-1.716.684,1.572Z"
          fill="#606161" />
        <path id="Path_1153" data-name="Path 1153" d="M1292.512,776.385V768.65h-1.569v-2.119h4.017v9.854Z"
          fill="#606161" />
        <path id="Path_1154" data-name="Path 1154"
          d="M1308.429,776.385l-3.65-5.993-.032.013.07,5.98h-2.348v-9.854h2.113l3.707,6.2.026-.027-.108-6.168h2.347v9.854Z"
          fill="#606161" />
        <path id="Path_1155" data-name="Path 1155"
          d="M1319.657,775.807c0,.112-.005.217-.005.311-.013.235-.03.445-.051.631a3.34,3.34,0,0,1-.373,1.183,3.234,3.234,0,0,1-1.595,1.333,5.146,5.146,0,0,1-2.043.409,4.538,4.538,0,0,1-1.765-.325,3.05,3.05,0,0,1-1.385-1.124,2.623,2.623,0,0,1-.443-1.151h2.492a1.228,1.228,0,0,0,1.253.735q1.752,0,1.752-2.009v-.228h-.025a1.83,1.83,0,0,1-.842.793,2.494,2.494,0,0,1-1.132.26,3.38,3.38,0,0,1-2.619-1.138,3.926,3.926,0,0,1-1.006-2.749,4.116,4.116,0,0,1,.993-2.807,3.346,3.346,0,0,1,2.632-1.177,2.781,2.781,0,0,1,1.114.215,1.822,1.822,0,0,1,.873.721h.025v-.7h2.15Zm-2.625-4.434a1.715,1.715,0,0,0-2.517-.006,1.835,1.835,0,0,0-.493,1.293,1.961,1.961,0,0,0,.473,1.333,1.575,1.575,0,0,0,1.247.566,1.688,1.688,0,0,0,1.272-.514,1.841,1.841,0,0,0,.493-1.319A1.958,1.958,0,0,0,1317.032,771.373Z"
          fill="#606161" />
        <path id="Path_1156" data-name="Path 1156"
          d="M1327.484,775.494a3.969,3.969,0,0,1-5.523,0,4.106,4.106,0,0,1,0-5.622,3.969,3.969,0,0,1,5.523,0,4.1,4.1,0,0,1,0,5.622Zm-.133-8.267a2.691,2.691,0,0,1-1.461.494,2.647,2.647,0,0,1-.513-.059l-1.069-.234a2.864,2.864,0,0,0-.493-.052,1.679,1.679,0,0,0-.475.071l-.455.176-.778-1.17a3.6,3.6,0,0,1,.683-.325,2.216,2.216,0,0,1,.74-.137,3.063,3.063,0,0,1,.525.052c.08.014.169.03.266.053l.519.123c.1.021.184.039.259.052a3,3,0,0,0,.531.052,2.386,2.386,0,0,0,.943-.227Zm-1.392,4.153a1.645,1.645,0,0,0-2.473,0,2,2,0,0,0,0,2.613,1.661,1.661,0,0,0,2.473,0,2,2,0,0,0,0-2.613Z"
          fill="#606161" />
        <path id="Path_1157" data-name="Path 1157"
          d="M1339.788,774.656v1.729h-2.341v-1.729h-4.226v-1.839l4.289-6.286h2.278v6.156h1.063v1.969ZM1337.6,769.6h-.026l-1.891,3.088h1.917Z"
          fill="#606161" />
        <path id="Path_1158" data-name="Path 1158"
          d="M1349.119,776.385h-3.353v-9.854h3.176a9.361,9.361,0,0,1,1.24.072,5.1,5.1,0,0,1,1.12.272,3.947,3.947,0,0,1,1.872,1.495,5.19,5.19,0,0,1,.886,3.062Q1354.06,776.385,1349.119,776.385Zm1.936-6.864a2.114,2.114,0,0,0-1.777-.78h-1.064v5.434h1.051a2.149,2.149,0,0,0,1.8-.754,3.712,3.712,0,0,0-.007-3.9Z"
          fill="#606161" />
        <path id="Path_1159" data-name="Path 1159"
          d="M1360.038,776.385V775.6h-.025a1.649,1.649,0,0,1-.772.812,2.474,2.474,0,0,1-1.094.214,2.544,2.544,0,0,1-2.114-.93,2.809,2.809,0,0,1-.537-1.078,5.133,5.133,0,0,1-.108-1.2v-4.42h2.151v4.089a2.013,2.013,0,0,0,.215,1.053,1.019,1.019,0,0,0,.937.423q1.233,0,1.233-1.5v-4.063h2.151v7.391Zm2.018-9.106h1.449v1.527a2.064,2.064,0,0,1-.6,1.4,2.089,2.089,0,0,1-1.167.539l-.626.053.044-.937.247.007a1.923,1.923,0,0,0,.505-.143,1.045,1.045,0,0,0,.659-.968h-.507Z"
          fill="#606161" />
        <path id="Path_1160" data-name="Path 1160"
          d="M1370.319,770.333a3.913,3.913,0,0,1,.714,2.354,3.825,3.825,0,0,1-1.107,2.807,3.976,3.976,0,0,1-5.528,0,4.12,4.12,0,0,1,0-5.622,4,4,0,0,1,5.256-.254.983.983,0,0,0,.475-.857h-.506v-1.482h1.448v1.527a2.071,2.071,0,0,1-.6,1.4C1370.42,770.253,1370.369,770.294,1370.319,770.333Zm-1.923,1.047a1.64,1.64,0,0,0-2.468,0,2,2,0,0,0,0,2.613,1.655,1.655,0,0,0,2.468,0,2,2,0,0,0,0-2.613Z"
          fill="#606161" />
        <path id="Path_1161" data-name="Path 1161"
          d="M1376.758,776.385v-4.036a2.21,2.21,0,0,0-.2-1.073.973.973,0,0,0-.924-.456,1.1,1.1,0,0,0-.993.443,2.034,2.034,0,0,0-.24,1.1v4.017h-2.152v-7.391h2.006v.787h.031a2.111,2.111,0,0,1,1.955-1.04,2.716,2.716,0,0,1,1.841.644,2.221,2.221,0,0,1,.671,1.085,4.568,4.568,0,0,1,.158,1.294v4.621Z"
          fill="#606161" />
        <path id="Path_1162" data-name="Path 1162"
          d="M1387.886,775.807c0,.112-.006.217-.006.311-.013.235-.029.445-.051.631a3.3,3.3,0,0,1-.373,1.183,3.232,3.232,0,0,1-1.594,1.333,5.149,5.149,0,0,1-2.043.409,4.531,4.531,0,0,1-1.765-.325,3.052,3.052,0,0,1-1.386-1.124,2.621,2.621,0,0,1-.442-1.151h2.492a1.228,1.228,0,0,0,1.253.735q1.752,0,1.752-2.009v-.228h-.026a1.823,1.823,0,0,1-.841.793,2.494,2.494,0,0,1-1.132.26,3.377,3.377,0,0,1-2.619-1.138,3.926,3.926,0,0,1-1.006-2.749,4.116,4.116,0,0,1,.993-2.807,3.343,3.343,0,0,1,2.632-1.177,2.776,2.776,0,0,1,1.113.215,1.813,1.813,0,0,1,.873.721h.026v-.7h2.15Zm-2.625-4.434a1.716,1.716,0,0,0-2.518-.006,1.834,1.834,0,0,0-.493,1.293,1.957,1.957,0,0,0,.474,1.333,1.572,1.572,0,0,0,1.247.566,1.687,1.687,0,0,0,1.271-.514,1.841,1.841,0,0,0,.494-1.319A1.963,1.963,0,0,0,1385.261,771.373Z"
          fill="#606161" />
        <path id="Path_1163" data-name="Path 1163"
          d="M1400.949,775.02a4.461,4.461,0,0,1-3.441,1.365h-3.618v-3.94h-.867v-2.209h.867v-3.705h3.225a8.611,8.611,0,0,1,1.235.078,4.714,4.714,0,0,1,1.1.266,4.09,4.09,0,0,1,1.854,1.495,5.205,5.205,0,0,1,.879,3.062A5.086,5.086,0,0,1,1400.949,775.02Zm-1.771-5.5a2.1,2.1,0,0,0-1.777-.78h-1.063v1.495h1.4v2.209h-1.4v1.73h1.05a2.165,2.165,0,0,0,1.8-.754,3.729,3.729,0,0,0-.013-3.9Z"
          fill="#606161" />
        <path id="Path_1164" data-name="Path 1164"
          d="M1405.22,768.214l-3.2-1.442.658-1.554,3.138,1.7Zm-1.8,8.171v-7.391h2.151v7.391Z" fill="#606161" />
        <path id="Path_1165" data-name="Path 1165"
          d="M1411.622,776.385v-4.036a2.21,2.21,0,0,0-.2-1.073.973.973,0,0,0-.924-.456,1.1,1.1,0,0,0-.993.443,2.034,2.034,0,0,0-.24,1.1v4.017h-2.151v-7.391h2v.787h.032a2.11,2.11,0,0,1,1.955-1.04,2.72,2.72,0,0,1,1.841.644,2.219,2.219,0,0,1,.67,1.085,4.57,4.57,0,0,1,.159,1.294v4.621Z"
          fill="#606161" />
        <path id="Path_1166" data-name="Path 1166"
          d="M1419.808,776.385v-4.017a2.087,2.087,0,0,0-.228-1.073,1,1,0,0,0-.929-.475,1.09,1.09,0,0,0-.95.417,1.8,1.8,0,0,0-.253,1.046v4.1H1415.3v-9.854h2.151v3.146h.026a1.656,1.656,0,0,1,.8-.728,2.528,2.528,0,0,1,1.056-.208,2.4,2.4,0,0,1,1.955.813,2.681,2.681,0,0,1,.595,1.28,4.465,4.465,0,0,1,.069.689c0,.1.008.225.013.364v4.5Z"
          fill="#606161" />
        <path id="Path_1167" data-name="Path 1167"
          d="M1433.536,776.385l-3.65-5.993-.031.013.069,5.98h-2.348v-9.854h2.114l3.707,6.2.025-.027-.107-6.168h2.346v9.854Z"
          fill="#606161" />
        <path id="Path_1168" data-name="Path 1168"
          d="M1444.765,775.807c0,.112-.006.217-.006.311-.013.235-.029.445-.051.631a3.3,3.3,0,0,1-.373,1.183,3.23,3.23,0,0,1-1.595,1.333,5.141,5.141,0,0,1-2.043.409,4.529,4.529,0,0,1-1.764-.325,3.052,3.052,0,0,1-1.386-1.124,2.609,2.609,0,0,1-.442-1.151h2.492a1.228,1.228,0,0,0,1.253.735q1.752,0,1.752-2.009v-.228h-.026a1.827,1.827,0,0,1-.841.793,2.494,2.494,0,0,1-1.132.26,3.377,3.377,0,0,1-2.619-1.138,3.926,3.926,0,0,1-1.006-2.749,4.116,4.116,0,0,1,.993-2.807,3.344,3.344,0,0,1,2.632-1.177,2.776,2.776,0,0,1,1.113.215,1.812,1.812,0,0,1,.873.721h.025v-.7h2.151Zm-2.625-4.434a1.716,1.716,0,0,0-2.518-.006,1.835,1.835,0,0,0-.493,1.293,1.957,1.957,0,0,0,.474,1.333,1.572,1.572,0,0,0,1.247.566,1.687,1.687,0,0,0,1.271-.514,1.841,1.841,0,0,0,.493-1.319A1.962,1.962,0,0,0,1442.14,771.373Z"
          fill="#606161" />
        <path id="Path_1169" data-name="Path 1169"
          d="M1450.8,776.385v-4.017a2.088,2.088,0,0,0-.228-1.073,1,1,0,0,0-.929-.475,1.087,1.087,0,0,0-.949.417,1.8,1.8,0,0,0-.253,1.046v4.1h-2.152v-9.854h2.152v3.146h.025a1.656,1.656,0,0,1,.8-.728,2.533,2.533,0,0,1,1.057-.208,2.4,2.4,0,0,1,1.955.813,2.689,2.689,0,0,1,.594,1.28,4.564,4.564,0,0,1,.07.689c0,.1.007.225.012.364v4.5Z"
          fill="#606161" />
        <path id="Path_1170" data-name="Path 1170"
          d="M1461.606,773.362h-5.39a1.5,1.5,0,0,0,1.683,1.4,1.61,1.61,0,0,0,1.309-.69h2.2a4.344,4.344,0,0,1-1.379,1.834,3.448,3.448,0,0,1-2.131.721,3.605,3.605,0,0,1-2.689-1.15,3.806,3.806,0,0,1-1.12-2.763,3.924,3.924,0,0,1,1.1-2.788,3.675,3.675,0,0,1,5.4,0,4.06,4.06,0,0,1,1.069,2.854A3.111,3.111,0,0,1,1461.606,773.362Zm-3.113-5.5-.594-.773-.6.773h-2.1l2.025-2.209h1.4l1.943,2.209Zm1.012,4.011a1.685,1.685,0,0,0-3.264,0Zm-2.663,7.7v-2.008h2.062v2.008Z"
          fill="#606161" />
        <path id="Path_1171" data-name="Path 1171" d="M1466.072,773.629v-2.171h3.638v2.171Z" fill="#606161" />
        <path id="Path_1172" data-name="Path 1172"
          d="M1481.54,771.263a2.975,2.975,0,0,1-.76,1.182,3.086,3.086,0,0,1-1.308.7,6.025,6.025,0,0,1-1.487.149h-1.063v3.088h-2.348v-9.854h3.139c.3,0,.559.006.765.02a6.351,6.351,0,0,1,.785.091,2.888,2.888,0,0,1,1.4.61,3.287,3.287,0,0,1,1.126,2.607A4,4,0,0,1,1481.54,771.263Zm-2.6-2.327a2.458,2.458,0,0,0-1.114-.195h-.9v2.346h.993a2.074,2.074,0,0,0,1.07-.221,1.033,1.033,0,0,0,.461-.962A1,1,0,0,0,1478.94,768.936Z"
          fill="#606161" />
        <path id="Path_1173" data-name="Path 1173" d="M1480.957,776.385v-2.262h2.24v2.262Z" fill="#606161" />
        <path id="Path_1174" data-name="Path 1174"
          d="M1493.534,772.8v3.581h-2.448V772.8l-2.865-6.273h2.656l1.424,3.958,1.436-3.958h2.631Z" fill="#606161" />
        <path id="Path_1175" data-name="Path 1175"
          d="M1504.39,773.362H1499a1.5,1.5,0,0,0,1.683,1.4,1.609,1.609,0,0,0,1.309-.69h2.2a4.359,4.359,0,0,1-1.379,1.834,3.452,3.452,0,0,1-2.132.721,3.607,3.607,0,0,1-2.689-1.15,3.805,3.805,0,0,1-1.12-2.763,3.924,3.924,0,0,1,1.095-2.788,3.675,3.675,0,0,1,5.4,0,4.061,4.061,0,0,1,1.07,2.854A3.118,3.118,0,0,1,1504.39,773.362Zm-3.112-5.5-.595-.773-.595.773h-2.1l2.024-2.209h1.4l1.943,2.209Zm1.011,4.011a1.684,1.684,0,0,0-3.263,0Z"
          fill="#606161" />
        <path id="Path_1176" data-name="Path 1176"
          d="M1510.141,776.385v-4.036a2.222,2.222,0,0,0-.2-1.073.973.973,0,0,0-.924-.456,1.1,1.1,0,0,0-.993.443,2.034,2.034,0,0,0-.241,1.1v4.017h-2.151v-7.391h2.006v.787h.031a2.112,2.112,0,0,1,1.955-1.04,2.716,2.716,0,0,1,1.841.644,2.221,2.221,0,0,1,.671,1.085,4.609,4.609,0,0,1,.158,1.294v4.621Z"
          fill="#606161" />
        <path id="Path_1177" data-name="Path 1177"
          d="M1523.495,776.385v-3.94h-3.137v3.94h-2.45v-9.854h2.45v3.705h3.137v-3.705h2.449v9.854Z" fill="#606161" />
        <path id="Path_1178" data-name="Path 1178"
          d="M1533.882,775.494a3.968,3.968,0,0,1-5.522,0,4.1,4.1,0,0,1,0-5.622,3.968,3.968,0,0,1,5.522,0,4.1,4.1,0,0,1,0,5.622Zm-1.714-7.28-3.2-1.442.664-1.554,3.132,1.7Zm.19,3.166a1.646,1.646,0,0,0-2.474,0,2,2,0,0,0,0,2.613,1.662,1.662,0,0,0,2.474,0,2,2,0,0,0,0-2.613Z"
          fill="#606161" />
        <path id="Path_1179" data-name="Path 1179"
          d="M1541.608,776.385v-.8h-.026a1.768,1.768,0,0,1-.905.813,2.927,2.927,0,0,1-1.195.241,3.346,3.346,0,0,1-2.638-1.152,4.1,4.1,0,0,1-.975-2.8,4.048,4.048,0,0,1,.994-2.783,3.347,3.347,0,0,1,2.619-1.163,2.842,2.842,0,0,1,1.189.247,1.949,1.949,0,0,1,.911.793h.026v-.787h2.15v7.391Zm-.513-5.044a1.724,1.724,0,0,0-1.3-.533,1.654,1.654,0,0,0-1.284.559,1.918,1.918,0,0,0-.493,1.345,1.84,1.84,0,0,0,.511,1.314,1.793,1.793,0,0,0,2.569.006,1.888,1.888,0,0,0,.507-1.345A1.862,1.862,0,0,0,1541.095,771.341Z"
          fill="#606161" />
        <path id="Path_1180" data-name="Path 1180" d="M1548.547,773.629v-2.171h3.638v2.171Z" fill="#606161" />
        <path id="Path_1181" data-name="Path 1181"
          d="M1567.254,776.561c-.274.016-.476.025-.607.025a4.1,4.1,0,0,1-1.2-.169,2.275,2.275,0,0,1-1.05-.6,5.069,5.069,0,0,1-7.763-4.3,5.045,5.045,0,0,1,1.468-3.666,4.806,4.806,0,0,1,3.574-1.495,5,5,0,0,1,3.581,1.436,4.785,4.785,0,0,1,1.537,3.6,5.076,5.076,0,0,1-.791,2.847,1.4,1.4,0,0,0,1.253.332Zm-3.657-7.209a2.52,2.52,0,0,0-1.91-.793,2.348,2.348,0,0,0-1.753.721,3.2,3.2,0,0,0-.841,1.768,4.388,4.388,0,0,1,.664-.24,2.638,2.638,0,0,1,.7-.091,3.728,3.728,0,0,1,2,.624,6.465,6.465,0,0,1,1.563,1.449,2.9,2.9,0,0,0,.329-1.449A2.789,2.789,0,0,0,1563.6,769.352Zm-1.348,4.16a3.463,3.463,0,0,0-.582-.5,2.486,2.486,0,0,0-2.327-.3,2.381,2.381,0,0,0,2.334,1.664,2.256,2.256,0,0,0,1.113-.253Q1562.484,773.752,1562.249,773.512Z"
          fill="#606161" />
        <path id="Path_1182" data-name="Path 1182" d="M1568.317,776.385v-2.262h2.24v2.262Z" fill="#606161" />
        <path id="Path_1183" data-name="Path 1183"
          d="M1585.84,772.7a4.957,4.957,0,0,1-1.765,2.808,4.8,4.8,0,0,1-3.081,1.066,4.854,4.854,0,0,1-3.574-1.482,5.231,5.231,0,0,1-.013-7.279,4.842,4.842,0,0,1,3.562-1.463,4.735,4.735,0,0,1,4.22,2.314,4.222,4.222,0,0,1,.651,1.612h-2.568a2.431,2.431,0,0,0-4.182-.852,3.014,3.014,0,0,0-.7,2.009,3.076,3.076,0,0,0,.7,2.034,2.329,2.329,0,0,0,1.879.9,2.421,2.421,0,0,0,2.3-1.664Z"
          fill="#606161" />
        <path id="Path_1184" data-name="Path 1184"
          d="M1592.413,776.385v-.8h-.025a1.775,1.775,0,0,1-.9.813,2.931,2.931,0,0,1-1.2.241,3.342,3.342,0,0,1-2.637-1.152,4.1,4.1,0,0,1-.975-2.8,4.053,4.053,0,0,1,.993-2.783,3.35,3.35,0,0,1,2.619-1.163,2.846,2.846,0,0,1,1.19.247,1.948,1.948,0,0,1,.911.793h.025v-.787h2.151v7.391Zm-1.006-8.522-.6-.773-.595.773h-2.1l2.023-2.209h1.4l1.943,2.209Zm.494,3.478a1.726,1.726,0,0,0-1.3-.533,1.653,1.653,0,0,0-1.284.559,1.914,1.914,0,0,0-.494,1.345,1.836,1.836,0,0,0,.512,1.314,1.792,1.792,0,0,0,2.568.006,1.888,1.888,0,0,0,.507-1.345A1.866,1.866,0,0,0,1591.9,771.341Zm1.044-5.622-3.2-1.443.664-1.554,3.132,1.7Z"
          fill="#606161" />
        <path id="Path_1185" data-name="Path 1185"
          d="M1600.751,776.385V775.6h-.025a1.649,1.649,0,0,1-.772.812,2.474,2.474,0,0,1-1.094.214,2.542,2.542,0,0,1-2.114-.93,2.809,2.809,0,0,1-.537-1.078,5.133,5.133,0,0,1-.108-1.2v-4.42h2.151v4.089a2,2,0,0,0,.215,1.053,1.019,1.019,0,0,0,.937.423q1.233,0,1.233-1.5v-4.063h2.151v7.391Z"
          fill="#606161" />
        <path id="Path_1186" data-name="Path 1186"
          d="M1618.225,771.3a5.223,5.223,0,0,1-1.455,3.776,5.159,5.159,0,0,1-7.27.02,5.03,5.03,0,0,1-1.486-3.679,4.863,4.863,0,0,1,1.512-3.646,5.19,5.19,0,0,1,6.573-.468,4.514,4.514,0,0,1,1.841,2.528h-2.745a2.265,2.265,0,0,0-2.114-1.274,2.424,2.424,0,0,0-1.9.845,2.938,2.938,0,0,0-.721,2.015,3.114,3.114,0,0,0,.7,2.08,2.4,2.4,0,0,0,1.93.877,2.607,2.607,0,0,0,1.43-.383,2.008,2.008,0,0,0,.86-1.2h-2.859v-2.008h5.687c0,.078.008.164.013.26Z"
          fill="#606161" />
        <path id="Path_1187" data-name="Path 1187" d="M1619.394,768.214v-1.683h2.151v1.683Zm0,8.171v-7.391h2.151v7.391Z"
          fill="#606161" />
        <path id="Path_1188" data-name="Path 1188"
          d="M1628.5,776.385v-.8h-.025a1.775,1.775,0,0,1-.905.813,2.931,2.931,0,0,1-1.2.241,3.342,3.342,0,0,1-2.637-1.152,4.1,4.1,0,0,1-.975-2.8,4.052,4.052,0,0,1,.993-2.783,3.349,3.349,0,0,1,2.619-1.163,2.846,2.846,0,0,1,1.19.247,1.949,1.949,0,0,1,.911.793h.025v-.787h2.151v7.391Zm-1.006-8.522-.6-.773-.595.773h-2.1l2.024-2.209h1.4l1.943,2.209Zm.494,3.478a1.726,1.726,0,0,0-1.3-.533,1.656,1.656,0,0,0-1.285.559,1.917,1.917,0,0,0-.493,1.345,1.837,1.837,0,0,0,.512,1.314,1.792,1.792,0,0,0,2.568.006,1.888,1.888,0,0,0,.507-1.345A1.865,1.865,0,0,0,1627.986,771.341Zm1.366-4.862-.608-1.307,3.113-1.716.683,1.573Z"
          fill="#606161" />
        <path id="Path_1189" data-name="Path 1189"
          d="M1635.261,778.849h-2.277l1.138-2.834-2.67-7.021h2.29l1.443,4.29h.025l1.373-4.29h2.278Z" fill="#606161" />
        <path id="Path_1190" data-name="Path 1190" d="M1642.871,773.629v-2.171h3.638v2.171Z" fill="#606161" />
        <path id="Path_1191" data-name="Path 1191" d="M1654.974,768.741v7.644h-2.448v-7.644h-1.892v-2.21h6.218v2.21Z"
          fill="#606161" />
        <path id="Path_1192" data-name="Path 1192"
          d="M1664.8,771.263a2.973,2.973,0,0,1-.76,1.182,3.091,3.091,0,0,1-1.308.7,6.027,6.027,0,0,1-1.488.149h-1.062v3.088h-2.348v-9.854h3.139c.3,0,.558.006.765.02a6.375,6.375,0,0,1,.785.091,2.888,2.888,0,0,1,1.4.61,3.287,3.287,0,0,1,1.126,2.607A4,4,0,0,1,1664.8,771.263Zm-2.6-2.327a2.454,2.454,0,0,0-1.113-.195h-.9v2.346h.993a2.067,2.067,0,0,0,1.069-.221,1.031,1.031,0,0,0,.462-.962A1,1,0,0,0,1662.2,768.936Z"
          fill="#606161" />
        <path id="Path_1193" data-name="Path 1193" d="M1664.215,776.385v-2.262h2.24v2.262Z" fill="#606161" />
        <path id="Path_1194" data-name="Path 1194"
          d="M1677.818,776.385v-3.94h-3.138v3.94h-2.449v-9.854h2.449v3.705h3.138v-3.705h2.448v9.854Z" fill="#606161" />
        <path id="Path_1195" data-name="Path 1195"
          d="M1687.307,776.385v-.8h-.026a1.768,1.768,0,0,1-.905.813,2.926,2.926,0,0,1-1.195.241,3.346,3.346,0,0,1-2.638-1.152,4.1,4.1,0,0,1-.974-2.8,4.053,4.053,0,0,1,.993-2.783,3.347,3.347,0,0,1,2.619-1.163,2.838,2.838,0,0,1,1.189.247,1.944,1.944,0,0,1,.911.793h.026v-.787h2.15v7.391Zm-.569-8.171-3.2-1.442.664-1.554,3.131,1.7Zm.056,3.127a1.724,1.724,0,0,0-1.3-.533,1.656,1.656,0,0,0-1.284.559,1.918,1.918,0,0,0-.493,1.345,1.836,1.836,0,0,0,.512,1.314,1.792,1.792,0,0,0,2.568.006,1.889,1.889,0,0,0,.507-1.345A1.862,1.862,0,0,0,1686.794,771.341Z"
          fill="#606161" />
        <path id="Path_1196" data-name="Path 1196"
          d="M1701.072,776.385l-3.65-5.993-.031.013.069,5.98h-2.347v-9.854h2.113l3.707,6.2.025-.027-.107-6.168h2.346v9.854Z"
          fill="#606161" />
        <path id="Path_1197" data-name="Path 1197"
          d="M1711.15,775.494a3.97,3.97,0,0,1-5.523,0,4.106,4.106,0,0,1,0-5.622,3.97,3.97,0,0,1,5.523,0,4.1,4.1,0,0,1,0,5.622ZM1709,767.863l-.6-.773-.6.773h-2.1l2.025-2.209h1.4l1.943,2.209Zm.626,3.517a1.645,1.645,0,0,0-2.473,0,2,2,0,0,0,0,2.613,1.661,1.661,0,0,0,2.473,0,1.993,1.993,0,0,0,0-2.613Zm-2.264,8.2v-2.008h2.055v2.008Z"
          fill="#606161" />
        <path id="Path_1198" data-name="Path 1198" d="M1713.471,768.214v-1.683h2.151v1.683Zm0,8.171v-7.391h2.151v7.391Z"
          fill="#606161" />
      </g>
    </g>
    <g id="Group_123" data-name="Group 123">
      <g id="Group_122" data-name="Group 122">
        <g id="Location">
          <g id="Group_121" data-name="Group 121">
            <path id="Path_1199" data-name="Path 1199"
              d="M1258.783,758.985a5.534,5.534,0,0,0-5.531,5.538c0,5.283,5.531,12.172,5.531,12.172s5.535-6.889,5.535-12.172A5.537,5.537,0,0,0,1258.783,758.985Zm0,8.6a2.99,2.99,0,1,1,2.99-2.994A2.992,2.992,0,0,1,1258.783,767.581Z"
              fill="#ea2024" />
          </g>
        </g>
      </g>
    </g>
  </g>
  <g id="Group_129" data-name="Group 129" transform="translate(-1190.551 -656.914)">
    <g id="Group_126" data-name="Group 126">
      <g id="Group_125" data-name="Group 125">
        <path id="Path_1200" data-name="Path 1200"
          d="M1306.418,801.7h-1.108l-1.628-5.235h-.028l-1.592,5.235h-1.109l-2.914-7.871h1.027l2.407,6.592h.027l1.751-5.644h.856l1.764,5.644h.028l2.434-6.592h1.013Z"
          fill="#606161" />
        <path id="Path_1201" data-name="Path 1201"
          d="M1318.053,801.7h-1.108l-1.628-5.235h-.028L1313.7,801.7h-1.108l-2.914-7.871h1.026l2.408,6.592h.027l1.751-5.644h.855l1.765,5.644h.027l2.435-6.592h1.013Z"
          fill="#606161" />
        <path id="Path_1202" data-name="Path 1202"
          d="M1329.688,801.7h-1.109l-1.628-5.235h-.027l-1.593,5.235h-1.108l-2.914-7.871h1.026l2.407,6.592h.028l1.751-5.644h.855l1.765,5.644h.027l2.435-6.592h1.012Z"
          fill="#606161" />
        <path id="Path_1203" data-name="Path 1203" d="M1332.9,801.7v-1.814h1.039V801.7Z" fill="#606161" />
        <path id="Path_1204" data-name="Path 1204"
          d="M1342.027,801.7v-4.329a3.97,3.97,0,0,0-.164-1.167,2.263,2.263,0,0,0-.568-1,2.395,2.395,0,0,0-3.331,0,2.23,2.23,0,0,0-.561.97,3.839,3.839,0,0,0-.158,1.118V801.7h-.977v-7.871h.977v1h.028a2.588,2.588,0,0,1,2.36-1.209,3.127,3.127,0,0,1,2.51,1.054,4.015,4.015,0,0,1,.862,2.692V801.7Z"
          fill="#606161" />
        <path id="Path_1205" data-name="Path 1205"
          d="M1352.382,800.461q0,.45-.02.766a6.557,6.557,0,0,1-.089.738,3.4,3.4,0,0,1-.588,1.371,3.562,3.562,0,0,1-3.044,1.454,4.1,4.1,0,0,1-2.449-.744,3.815,3.815,0,0,1-1.471-2.144h1.04a2.84,2.84,0,0,0,2.866,1.981,2.651,2.651,0,0,0,2.038-.807,3,3,0,0,0,.739-2.123v-.7h-.028a2.788,2.788,0,0,1-1.251,1.222,3.618,3.618,0,0,1-1.7.407,3.812,3.812,0,0,1-2.832-1.187,3.984,3.984,0,0,1-1.177-2.9,4.121,4.121,0,0,1,1.163-2.945,3.781,3.781,0,0,1,2.846-1.23,3.278,3.278,0,0,1,2.954,1.609h.028v-1.4h.978Zm-1.8-4.961a2.893,2.893,0,0,0-4.323,0,3.226,3.226,0,0,0-.868,2.269,3.187,3.187,0,0,0,.868,2.249,2.9,2.9,0,0,0,4.316,0,3.177,3.177,0,0,0,.883-2.249A3.242,3.242,0,0,0,1350.583,795.5Z"
          fill="#606161" />
        <path id="Path_1206" data-name="Path 1206"
          d="M1361.042,801.7v-1.385h-.027a3.321,3.321,0,0,1-2.983,1.574,4.132,4.132,0,1,1,0-8.264,3.269,3.269,0,0,1,2.983,1.581h.027v-1.377h.985V801.7Zm-.821-6.205a2.873,2.873,0,0,0-2.189-.963,2.985,2.985,0,0,0-2.251.928,3.228,3.228,0,0,0-.888,2.326,3.145,3.145,0,0,0,.9,2.291,3.029,3.029,0,0,0,2.244.906,2.9,2.9,0,0,0,2.189-.949,3.177,3.177,0,0,0,.883-2.263A3.224,3.224,0,0,0,1360.221,795.493Z"
          fill="#606161" />
        <path id="Path_1207" data-name="Path 1207"
          d="M1369.558,801.7v-4.329a3.97,3.97,0,0,0-.164-1.167,2.253,2.253,0,0,0-.568-1,2.395,2.395,0,0,0-3.331,0,2.23,2.23,0,0,0-.561.97,3.839,3.839,0,0,0-.157,1.118V801.7h-.978v-7.871h.978v1h.027a2.588,2.588,0,0,1,2.36-1.209,3.126,3.126,0,0,1,2.51,1.054,4.015,4.015,0,0,1,.862,2.692V801.7Z"
          fill="#606161" />
        <path id="Path_1208" data-name="Path 1208"
          d="M1379.1,801.7v-1.385h-.028a3.34,3.34,0,0,1-2.982,1.574,4.132,4.132,0,1,1,0-8.264,3.362,3.362,0,0,1,2.982,1.553h.028v-4.132h.984V801.7Zm-.821-6.205a2.875,2.875,0,0,0-2.189-.963,2.985,2.985,0,0,0-2.251.928,3.225,3.225,0,0,0-.889,2.326,3.142,3.142,0,0,0,.9,2.291,3.029,3.029,0,0,0,2.244.906,2.9,2.9,0,0,0,2.189-.949,3.181,3.181,0,0,0,.882-2.263A3.228,3.228,0,0,0,1378.279,795.493Z"
          fill="#606161" />
        <path id="Path_1209" data-name="Path 1209"
          d="M1389.53,798.128h-6.976a3.076,3.076,0,0,0,2.975,2.853,2.966,2.966,0,0,0,1.656-.492,2.7,2.7,0,0,0,1.087-1.37h1.04a4.075,4.075,0,0,1-1.464,2,3.885,3.885,0,0,1-5.137-.45,4.024,4.024,0,0,1-1.163-2.9,4.086,4.086,0,0,1,1.163-2.916,3.844,3.844,0,0,1,5.663.028,4.173,4.173,0,0,1,1.17,2.959Zm-.992-.907a3.242,3.242,0,0,0-1.018-1.925,2.933,2.933,0,0,0-3.953,0,3.2,3.2,0,0,0-1.013,1.925Z"
          fill="#606161" />
        <path id="Path_1210" data-name="Path 1210" d="M1391.548,801.7v-1.814h1.039V801.7Z" fill="#606161" />
        <path id="Path_1211" data-name="Path 1211"
          d="M1398.415,801.7h-1.081l-3.235-7.871h1.054l2.7,6.62,2.743-6.62h1.054Z" fill="#606161" />
        <path id="Path_1212" data-name="Path 1212"
          d="M1408.429,801.7v-4.329a3.97,3.97,0,0,0-.164-1.167,2.253,2.253,0,0,0-.568-1,2.395,2.395,0,0,0-3.331,0,2.228,2.228,0,0,0-.561.97,3.835,3.835,0,0,0-.157,1.118V801.7h-.978v-7.871h.978v1h.027a2.588,2.588,0,0,1,2.36-1.209,3.125,3.125,0,0,1,2.51,1.054,4.015,4.015,0,0,1,.862,2.692V801.7Z"
          fill="#606161" />
        <path id="Path_1213" data-name="Path 1213"
          d="M1477.033,801.7h-1.108l-1.628-5.235h-.027l-1.593,5.235h-1.108l-2.915-7.871h1.027l2.407,6.592h.027l1.751-5.644h.856l1.765,5.644h.027l2.434-6.592h1.013Z"
          fill="#606161" />
        <path id="Path_1214" data-name="Path 1214"
          d="M1488.668,801.7h-1.108l-1.628-5.235h-.028l-1.592,5.235H1483.2l-2.914-7.871h1.027l2.407,6.592h.027l1.751-5.644h.856l1.764,5.644h.028l2.434-6.592h1.013Z"
          fill="#606161" />
        <path id="Path_1215" data-name="Path 1215"
          d="M1500.3,801.7h-1.108l-1.628-5.235h-.028l-1.593,5.235h-1.108l-2.914-7.871h1.026l2.408,6.592h.027l1.751-5.644h.855l1.765,5.644h.027l2.435-6.592h1.013Z"
          fill="#606161" />
        <path id="Path_1216" data-name="Path 1216" d="M1503.518,801.7v-1.814h1.039V801.7Z" fill="#606161" />
        <path id="Path_1217" data-name="Path 1217"
          d="M1508.4,794.733V801.7h-.978v-6.965h-1.19v-.906h1.19l.014-.3c0-.112.01-.211.02-.3a3.391,3.391,0,0,1,.1-.59,2.129,2.129,0,0,1,1.06-1.413,3.808,3.808,0,0,1,1.751-.372v.935a1.74,1.74,0,0,0-1.963,1.974v.057h1.963v.906Z"
          fill="#606161" />
        <path id="Path_1218" data-name="Path 1218"
          d="M1518.087,801.7v-1.385h-.027a3.321,3.321,0,0,1-2.983,1.574,4.132,4.132,0,1,1,0-8.264,3.27,3.27,0,0,1,2.983,1.581h.027v-1.377h.984V801.7Zm-.821-6.205a2.874,2.874,0,0,0-2.189-.963,2.985,2.985,0,0,0-2.251.928,3.228,3.228,0,0,0-.888,2.326,3.145,3.145,0,0,0,.9,2.291,3.029,3.029,0,0,0,2.244.906,2.9,2.9,0,0,0,2.189-.949,3.177,3.177,0,0,0,.883-2.263A3.224,3.224,0,0,0,1517.266,795.493Z"
          fill="#606161" />
        <path id="Path_1219" data-name="Path 1219"
          d="M1528.429,799.379a4.029,4.029,0,0,1-3.81,2.508,4.132,4.132,0,0,1,0-8.264,4.048,4.048,0,0,1,2.291.681,3.955,3.955,0,0,1,1.519,1.9h-1.081a2.839,2.839,0,0,0-2.7-1.672,3.027,3.027,0,0,0-2.238.928,3.1,3.1,0,0,0-.929,2.283,3.165,3.165,0,0,0,.916,2.306,3.029,3.029,0,0,0,2.251.934,2.793,2.793,0,0,0,2.7-1.6Z"
          fill="#606161" />
        <path id="Path_1220" data-name="Path 1220"
          d="M1537.505,798.128h-6.976a3.076,3.076,0,0,0,2.975,2.853,2.963,2.963,0,0,0,1.655-.492,2.693,2.693,0,0,0,1.087-1.37h1.04a4.069,4.069,0,0,1-1.464,2,3.884,3.884,0,0,1-5.136-.45,4.02,4.02,0,0,1-1.163-2.9,4.081,4.081,0,0,1,1.163-2.916,3.844,3.844,0,0,1,5.663.028,4.173,4.173,0,0,1,1.17,2.959Zm-.992-.907a3.238,3.238,0,0,0-1.019-1.925,2.933,2.933,0,0,0-3.953,0,3.2,3.2,0,0,0-1.012,1.925Z"
          fill="#606161" />
        <path id="Path_1221" data-name="Path 1221"
          d="M1545.966,800.7a3.976,3.976,0,0,1-2.921,1.187,3.386,3.386,0,0,1-2.989-1.574h-.027V801.7h-.978V791.044h.978v4.16h.027a3.427,3.427,0,0,1,2.989-1.581,4.159,4.159,0,0,1,2.921,7.077Zm-.671-5.242a2.983,2.983,0,0,0-2.25-.928,2.868,2.868,0,0,0-2.188.963,3.219,3.219,0,0,0-.883,2.276,3.173,3.173,0,0,0,.883,2.263,2.89,2.89,0,0,0,2.188.949,3,3,0,0,0,2.236-.906,3.138,3.138,0,0,0,.9-2.291A3.237,3.237,0,0,0,1545.3,795.458Z"
          fill="#606161" />
        <path id="Path_1222" data-name="Path 1222"
          d="M1555.063,800.665a3.875,3.875,0,0,1-5.636.014,3.95,3.95,0,0,1-1.19-2.868,4.133,4.133,0,0,1,1.163-2.944,3.745,3.745,0,0,1,2.832-1.244,3.812,3.812,0,0,1,2.824,1.222,4.162,4.162,0,0,1,.007,5.82Zm-.677-5.187a2.888,2.888,0,0,0-4.31.035,3.3,3.3,0,0,0-.861,2.285,3.155,3.155,0,0,0,.882,2.234,2.914,2.914,0,0,0,4.323-.021,3.323,3.323,0,0,0,.849-2.3A3.161,3.161,0,0,0,1554.386,795.478Z"
          fill="#606161" />
        <path id="Path_1223" data-name="Path 1223"
          d="M1564.236,800.665a3.875,3.875,0,0,1-5.636.014,3.951,3.951,0,0,1-1.191-2.868,4.137,4.137,0,0,1,1.163-2.944,3.748,3.748,0,0,1,2.832-1.244,3.812,3.812,0,0,1,2.825,1.222,4.162,4.162,0,0,1,.007,5.82Zm-.677-5.187a2.888,2.888,0,0,0-4.31.035,3.3,3.3,0,0,0-.861,2.285,3.155,3.155,0,0,0,.882,2.234,2.914,2.914,0,0,0,4.323-.021,3.327,3.327,0,0,0,.849-2.3A3.161,3.161,0,0,0,1563.559,795.478Z"
          fill="#606161" />
        <path id="Path_1224" data-name="Path 1224"
          d="M1571.7,801.7l-2.516-3.107-1.239,1.61v1.5h-.977V791.044h.977v7.589h.028l3.577-4.806h1.259l-3.024,3.971,3.181,3.9Z"
          fill="#606161" />
        <path id="Path_1225" data-name="Path 1225" d="M1574.447,801.7v-1.814h1.04V801.7Z" fill="#606161" />
        <path id="Path_1226" data-name="Path 1226"
          d="M1585.4,799.379a4.031,4.031,0,0,1-3.81,2.508,4.132,4.132,0,0,1,0-8.264,4.05,4.05,0,0,1,2.291.681,3.961,3.961,0,0,1,1.519,1.9h-1.081a2.84,2.84,0,0,0-2.7-1.672,3.025,3.025,0,0,0-2.237.928,3.1,3.1,0,0,0-.93,2.283,3.169,3.169,0,0,0,.916,2.306,3.033,3.033,0,0,0,2.251.934,2.794,2.794,0,0,0,2.7-1.6Z"
          fill="#606161" />
        <path id="Path_1227" data-name="Path 1227"
          d="M1593.38,800.665a3.875,3.875,0,0,1-5.636.014,3.95,3.95,0,0,1-1.19-2.868,4.138,4.138,0,0,1,1.163-2.944,3.746,3.746,0,0,1,2.832-1.244,3.811,3.811,0,0,1,2.824,1.222,4.159,4.159,0,0,1,.007,5.82Zm-.677-5.187a2.887,2.887,0,0,0-4.309.035,3.3,3.3,0,0,0-.862,2.285,3.156,3.156,0,0,0,.882,2.234,2.916,2.916,0,0,0,4.324-.021,3.326,3.326,0,0,0,.848-2.3A3.161,3.161,0,0,0,1592.7,795.478Z"
          fill="#606161" />
        <path id="Path_1228" data-name="Path 1228"
          d="M1606.369,801.7v-4.561a3.159,3.159,0,0,0-.472-1.828,1.847,1.847,0,0,0-1.615-.779,1.825,1.825,0,0,0-1.606.779,3.129,3.129,0,0,0-.48,1.828V801.7h-.977v-4.561a3.122,3.122,0,0,0-.48-1.828,2.054,2.054,0,0,0-3.221,0,3.129,3.129,0,0,0-.479,1.828V801.7h-.977v-7.871h.977v.906a2.29,2.29,0,0,1,2.093-1.11,2.729,2.729,0,0,1,2.572,1.511,2.877,2.877,0,0,1,2.578-1.511,2.834,2.834,0,0,1,2.272.977,3.57,3.57,0,0,1,.8,2.417V801.7Z"
          fill="#606161" />
        <path id="Path_1229" data-name="Path 1229" d="M1609.96,803.138h-1.067l3.92-12.094h1.107Z" fill="#606161" />
        <path id="Path_1230" data-name="Path 1230"
          d="M1622.259,800.7a3.977,3.977,0,0,1-2.921,1.187,3.386,3.386,0,0,1-2.989-1.574h-.028V801.7h-.977V791.044h.977v4.16h.028a3.428,3.428,0,0,1,2.989-1.581,4.159,4.159,0,0,1,2.921,7.077Zm-.671-5.242a2.983,2.983,0,0,0-2.25-.928,2.868,2.868,0,0,0-2.188.963,3.219,3.219,0,0,0-.883,2.276,3.173,3.173,0,0,0,.883,2.263,2.89,2.89,0,0,0,2.188.949,3,3,0,0,0,2.236-.906,3.138,3.138,0,0,0,.9-2.291A3.237,3.237,0,0,0,1621.588,795.458Z"
          fill="#606161" />
        <path id="Path_1231" data-name="Path 1231"
          d="M1632.45,798.128h-6.976a3.076,3.076,0,0,0,2.975,2.853,2.965,2.965,0,0,0,1.656-.492,2.7,2.7,0,0,0,1.087-1.37h1.04a4.081,4.081,0,0,1-1.464,2,3.885,3.885,0,0,1-5.137-.45,4.024,4.024,0,0,1-1.163-2.9,4.085,4.085,0,0,1,1.163-2.916,3.844,3.844,0,0,1,5.663.028,4.173,4.173,0,0,1,1.17,2.959Zm-.992-.907a3.242,3.242,0,0,0-1.018-1.925,2.933,2.933,0,0,0-3.953,0,3.2,3.2,0,0,0-1.013,1.925Z"
          fill="#606161" />
        <path id="Path_1232" data-name="Path 1232"
          d="M1635.829,794.733V801.7h-.978v-6.965h-1.614v-.906h1.614v-2.783h.978v2.783h1.833v.906Z" fill="#606161" />
        <path id="Path_1233" data-name="Path 1233"
          d="M1640.576,794.733V801.7h-.978v-6.965h-1.614v-.906h1.614v-2.783h.978v2.783h1.833v.906Z" fill="#606161" />
        <path id="Path_1234" data-name="Path 1234"
          d="M1651.048,798.128h-6.977a3.078,3.078,0,0,0,2.976,2.853,2.962,2.962,0,0,0,1.655-.492,2.693,2.693,0,0,0,1.087-1.37h1.04a4.069,4.069,0,0,1-1.464,2,3.884,3.884,0,0,1-5.136-.45,4.02,4.02,0,0,1-1.163-2.9,4.081,4.081,0,0,1,1.163-2.916,3.844,3.844,0,0,1,5.663.028,4.173,4.173,0,0,1,1.17,2.959Zm-.992-.907a3.239,3.239,0,0,0-1.019-1.925,2.933,2.933,0,0,0-3.953,0,3.209,3.209,0,0,0-1.013,1.925Z"
          fill="#606161" />
        <path id="Path_1235" data-name="Path 1235"
          d="M1655.719,794.691a2.141,2.141,0,0,0-2.189,2.4v4.6h-.977v-7.871h.977v1.139h.028a2.026,2.026,0,0,1,.869-1.027,3.252,3.252,0,0,1,1.292-.316Z"
          fill="#606161" />
        <path id="Path_1236" data-name="Path 1236"
          d="M1658.544,794.733V801.7h-.977v-6.965h-1.191v-.906h1.191l.013-.3c0-.112.011-.211.021-.3a3.407,3.407,0,0,1,.1-.59,2.13,2.13,0,0,1,1.061-1.413,3.8,3.8,0,0,1,1.751-.372v.935a1.74,1.74,0,0,0-1.964,1.974v.057h1.964v.906Z"
          fill="#606161" />
        <path id="Path_1237" data-name="Path 1237"
          d="M1667.928,800.665a3.875,3.875,0,0,1-5.636.014,3.95,3.95,0,0,1-1.19-2.868,4.133,4.133,0,0,1,1.163-2.944,3.745,3.745,0,0,1,2.832-1.244,3.81,3.81,0,0,1,2.824,1.222,4.159,4.159,0,0,1,.007,5.82Zm-.677-5.187a2.887,2.887,0,0,0-4.309.035,3.3,3.3,0,0,0-.862,2.285,3.155,3.155,0,0,0,.882,2.234,2.838,2.838,0,0,0,2.149.949,2.809,2.809,0,0,0,2.174-.97,3.323,3.323,0,0,0,.849-2.3A3.161,3.161,0,0,0,1667.251,795.478Z"
          fill="#606161" />
        <path id="Path_1238" data-name="Path 1238"
          d="M1677.1,800.665a3.875,3.875,0,0,1-5.636.014,3.95,3.95,0,0,1-1.19-2.868,4.133,4.133,0,0,1,1.163-2.944,3.745,3.745,0,0,1,2.832-1.244,3.81,3.81,0,0,1,2.824,1.222,4.162,4.162,0,0,1,.007,5.82Zm-.677-5.187a2.888,2.888,0,0,0-4.31.035,3.3,3.3,0,0,0-.861,2.285,3.155,3.155,0,0,0,.882,2.234,2.838,2.838,0,0,0,2.148.949,2.809,2.809,0,0,0,2.175-.97,3.322,3.322,0,0,0,.849-2.3A3.161,3.161,0,0,0,1676.424,795.478Z"
          fill="#606161" />
        <path id="Path_1239" data-name="Path 1239"
          d="M1686.527,801.7v-1.385h-.028a3.34,3.34,0,0,1-2.982,1.574,4.132,4.132,0,1,1,0-8.264,3.362,3.362,0,0,1,2.982,1.553h.028v-4.132h.984V801.7Zm-.822-6.205a2.871,2.871,0,0,0-2.188-.963,2.985,2.985,0,0,0-2.251.928,3.225,3.225,0,0,0-.889,2.326,3.142,3.142,0,0,0,.9,2.291,3.026,3.026,0,0,0,2.244.906,2.893,2.893,0,0,0,2.188-.949,3.177,3.177,0,0,0,.883-2.263A3.224,3.224,0,0,0,1685.7,795.493Z"
          fill="#606161" />
        <path id="Path_1240" data-name="Path 1240"
          d="M1695.07,801.7v-4.329a3.937,3.937,0,0,0-.165-1.167,2.252,2.252,0,0,0-.567-1,2.395,2.395,0,0,0-3.331,0,2.228,2.228,0,0,0-.561.97,3.835,3.835,0,0,0-.158,1.118V801.7h-.977V791.044h.977v3.788h.028a2.587,2.587,0,0,1,2.36-1.209,3.128,3.128,0,0,1,2.51,1.054,4.015,4.015,0,0,1,.862,2.692V801.7Z"
          fill="#606161" />
        <path id="Path_1241" data-name="Path 1241"
          d="M1703.66,801.7v-4.329a3.938,3.938,0,0,0-.164-1.167,2.251,2.251,0,0,0-.567-1,2.395,2.395,0,0,0-3.331,0,2.231,2.231,0,0,0-.562.97,3.873,3.873,0,0,0-.157,1.118V801.7h-.977v-7.871h.977v1h.027a2.589,2.589,0,0,1,2.361-1.209,3.127,3.127,0,0,1,2.51,1.054,4.015,4.015,0,0,1,.862,2.692V801.7Z"
          fill="#606161" />
      </g>
    </g>
    <g id="Group_128" data-name="Group 128">
      <g id="Group_127" data-name="Group 127">
        <path id="Path_1242" data-name="Path 1242"
          d="M1450.761,788.132a9.515,9.515,0,0,0-1.486,18.914V800.4h-2.416v-2.751h2.416v-2.1a3.357,3.357,0,0,1,3.594-3.7,14.624,14.624,0,0,1,2.13.186v2.341h-1.2a1.376,1.376,0,0,0-1.551,1.486v1.785h2.639l-.422,2.751h-2.217v6.648a9.515,9.515,0,0,0-1.487-18.914Z"
          fill="#ea2024" />
      </g>
      <path id="URL"
        d="M1289.563,797.128a8.986,8.986,0,0,1-2.845,6.708,9.75,9.75,0,0,1-13.607,0,9.352,9.352,0,0,1,.01-13.438,9.759,9.759,0,0,1,13.583,0A9.03,9.03,0,0,1,1289.563,797.128Zm-.646.072v-.354c-1.715-.18-2.575-.274-2.582-.274q-.06,0-1.31.13l.494.953-1.271.455-.722-1.639-.231.137a5.262,5.262,0,0,1,.679,2.188c-.426.505-.848,1.018-1.271,1.538a11.366,11.366,0,0,1-.361,3.047l-1.271,1.09-.91-.592a19.925,19.925,0,0,0-.635-3.863l-.776-1.09-1.73-.412-.447-1.04.3-1.509a21.549,21.549,0,0,0,2.152-.8,1.954,1.954,0,0,0,.834.3c.292.051.581.094.874.13.007,0,.422.116,1.252.347a6.173,6.173,0,0,0,1.279.231l.407-1h-.494l-.289-1.523-1.242-.051.08.5.628.795-.5-.253.116.368-.874.21.339-.246-.245-.708-.585-.418-.462.418-.664-.122-.4.751-.759-.383.589-.7.873-.253.365-.534,1.292-.585.29-.325.288-1.206-.787.4.361.2-.556.513-.2-.556-.274.44-.838-.715,1.791-1.552h1.466l.158-.859a8.792,8.792,0,0,0-3.083-.556,7.625,7.625,0,0,0-2.939.491.591.591,0,0,1,.268.448c0,.079-.08.137-.239.18-.115.022-.227.036-.339.058a3.168,3.168,0,0,0-.946.52,3.231,3.231,0,0,0-.888,1.336c-.224.505-.455.758-.708.758-.158,0-.3-.137-.422-.4s-.184-.4-.192-.4a1.141,1.141,0,0,0-.656.2,4.94,4.94,0,0,0-1.51,2.34,9.723,9.723,0,0,0-.722,3.538,8.419,8.419,0,0,0,2.65,6.3,9.25,9.25,0,0,0,12.82-.036A8.515,8.515,0,0,0,1288.917,797.2Zm-10.6-6.239-.325.246-.548.079.209-.7h.549Zm.794,1.4-.285.325-.126-.368.206-.332Zm1.156-.043-.448.462-.418-.043.378-.455-.249-.087-.267-.491.152-.375Zm.506,2.534-.04.4-.379-.4Z"
        fill="#ea2024" />
    </g>
  </g>
  <rect id="Rectangle_49" data-name="Rectangle 49" width="107.488" height="34.155" transform="translate(0 34.515)"
    fill="#fbe300" />
  <rect id="Rectangle_50" data-name="Rectangle 50" width="108.22" height="34.155" transform="translate(487.451 34.515)"
    fill="#fbe300" />
</svg>
