<svg xmlns="http://www.w3.org/2000/svg" xmlns:xlink="http://www.w3.org/1999/xlink" width="31.46" height="15.543" viewBox="0 0 31.46 15.543">
  <defs>
    <linearGradient id="linear-gradient" x1="1.958" y1="0.182" x2="1.96" y2="1" gradientUnits="objectBoundingBox">
      <stop offset="0" stop-color="#fd9600"/>
      <stop offset="1" stop-color="#e60019"/>
      <stop offset="1"/>
    </linearGradient>
    <linearGradient id="linear-gradient-2" x1="4.263" y1="-2.092" x2="4.195" y2="3.253" xlink:href="#linear-gradient"/>
    <linearGradient id="linear-gradient-3" x1="0.404" y1="-0.236" x2="0.492" y2="0.438" gradientUnits="objectBoundingBox">
      <stop offset="0" stop-color="#fd9600"/>
      <stop offset="0.996" stop-color="#bf051b"/>
    </linearGradient>
    <linearGradient id="linear-gradient-4" x1="0.469" y1="-0.03" x2="0.511" y2="0.552" xlink:href="#linear-gradient-3"/>
    <linearGradient id="linear-gradient-5" x1="0.466" y1="-0.349" x2="0.509" y2="0.733" xlink:href="#linear-gradient"/>
    <linearGradient id="linear-gradient-6" x1="0.491" y1="-0.026" x2="0.511" y2="0.907" xlink:href="#linear-gradient"/>
    <linearGradient id="linear-gradient-7" x1="1.103" y1="-1.298" x2="0.458" y2="0.626" gradientUnits="objectBoundingBox">
      <stop offset="0.344" stop-color="#fff"/>
      <stop offset="1" stop-color="#ffc300"/>
    </linearGradient>
    <linearGradient id="linear-gradient-8" x1="0.969" y1="-1.014" x2="0.31" y2="1.113" xlink:href="#linear-gradient-7"/>
    <linearGradient id="linear-gradient-9" x1="0.776" y1="-0.536" x2="-0.016" y2="1.504" xlink:href="#linear-gradient-7"/>
    <linearGradient id="linear-gradient-10" x1="0.944" y1="-0.509" x2="-0.917" y2="2.789" xlink:href="#linear-gradient-7"/>
    <linearGradient id="linear-gradient-11" x1="1.716" y1="-3.51" x2="-0.541" y2="3.926" xlink:href="#linear-gradient-7"/>
  </defs>
  <g id="Group_576" data-name="Group 576" transform="translate(-466.03 -734.355)">
    <g id="Group_571" data-name="Group 571">
      <path id="Path_6898" data-name="Path 6898" d="M481.281,747.446s-.69-1.151-3.422-.35a6.825,6.825,0,0,1-2.174.4c-.621-.058-.567-.5-.206-.878a3.192,3.192,0,0,1,1.834-.744c2.184-.3,4.7-.007,9.778-4.356a26.454,26.454,0,0,1,10.4-5.51c-3.47-1.981-11.4,3.185-11.4,3.185s-3.393,2.465-4.059,1.384c-.486-.79.809-1.33,1.848-1.658a13.272,13.272,0,0,0,5.357-2.936,5.569,5.569,0,0,0,.931-1.191c.046-.083.111-.367.2-.433A10.22,10.22,0,0,1,486,736.111a36.64,36.64,0,0,1-4.658.194,7.027,7.027,0,0,0-3.647,1.27c-.939.646-1.782,1.7-3.022,1.723-.491.011-.531-.3-.271-.63,1.014-1.282,2.763-1.6,3.854-2.811a3.769,3.769,0,0,0,.246-.3c.093-.126.15-.273.236-.4-.457.669-2.665,1.417-3.419,1.61-1.374.352-2.778.525-4.15.886-3.55.936-5.984,4.905-4.865,8.228a6.123,6.123,0,0,0,5.343,3.992c2.077.191,3.982-.711,5.909-1.384C477.9,748.367,481.057,747.072,481.281,747.446Z" fill="url(#linear-gradient)"/>
      <path id="Path_6899" data-name="Path 6899" d="M487.062,743.043a4.835,4.835,0,0,0,2.462-.727,17.35,17.35,0,0,1,3.6-1.969s-.321-.155-.351-.164c-1.574-.43-3.4.938-4.419,1.931C488.1,742.365,487.511,743.06,487.062,743.043Z" fill="url(#linear-gradient-2)"/>
    </g>
    <g id="Group_572" data-name="Group 572" opacity="0.15">
      <path id="Path_6900" data-name="Path 6900" d="M475.145,740.281a.356.356,0,0,0-.321-.1l-1.555.307a.355.355,0,0,0-.281.283l-.382,1.994-1.367.27.328-1.712a.357.357,0,0,0-.419-.417l-1.556.307a.357.357,0,0,0-.281.283l-1.137,5.938a.356.356,0,0,0,.351.423.405.405,0,0,0,.069-.006l1.555-.307a.359.359,0,0,0,.282-.283l.4-2.08,1.366-.269-.344,1.8a.358.358,0,0,0,.1.32.355.355,0,0,0,.32.1l1.556-.307a.356.356,0,0,0,.281-.283l1.137-5.937A.357.357,0,0,0,475.145,740.281Z" fill="#040505"/>
      <path id="Path_6901" data-name="Path 6901" d="M488.553,741.63l1.021-3.834a.356.356,0,0,0-.413-.441l-1.776.35a.356.356,0,0,1-.487.1l-4.925.972a.355.355,0,0,0-.281.283l-.254,1.323a1.954,1.954,0,0,0-.384-.544,2.516,2.516,0,0,0-2.334-.534,4.994,4.994,0,0,0-2.54,1.406,5.076,5.076,0,0,0-1.388,2.567,2.554,2.554,0,0,0,.55,2.367,2.242,2.242,0,0,0,1.627.607,3.689,3.689,0,0,0,.707-.072,5,5,0,0,0,2.54-1.407A5.071,5.071,0,0,0,481.6,742.2a3.194,3.194,0,0,0-.029-1.461.36.36,0,0,0,.281.064l1.17-.231-.782,4.086a.357.357,0,0,0,.35.424.327.327,0,0,0,.069-.007l1.556-.307a.357.357,0,0,0,.281-.283l.836-4.369,1.446-.285a.362.362,0,0,0,.112-.043l-.226,1.941a.358.358,0,0,0,.112.3.388.388,0,0,0,.033.027,1.74,1.74,0,0,0-.229.192,1.679,1.679,0,0,0-.469.86.975.975,0,0,0,.233.9.906.906,0,0,0,.655.253,1.291,1.291,0,0,0,.257-.027A1.759,1.759,0,0,0,488.6,742.9a.962.962,0,0,0-.225-.9.765.765,0,0,0-.13-.1l.034-.007A.357.357,0,0,0,488.553,741.63Zm-11.49,1.468a2.132,2.132,0,0,1,1.529-1.706,1.107,1.107,0,0,1,.215-.023.539.539,0,0,1,.39.138.987.987,0,0,1,.135.871,2.134,2.134,0,0,1-1.528,1.707.674.674,0,0,1-.6-.116A.986.986,0,0,1,477.063,743.1Z" fill="#040505"/>
    </g>
    <g id="Group_573" data-name="Group 573">
      <path id="Path_6902" data-name="Path 6902" d="M475.154,740.046a.355.355,0,0,0-.32-.1l-1.556.307a.357.357,0,0,0-.281.282l-.382,1.995-1.366.27.328-1.712a.357.357,0,0,0-.42-.417l-1.555.307a.358.358,0,0,0-.282.283l-1.136,5.937a.357.357,0,0,0,.35.424.323.323,0,0,0,.069-.007l1.556-.307a.357.357,0,0,0,.281-.282l.4-2.08,1.366-.269-.344,1.8a.357.357,0,0,0,.42.417l1.555-.307a.355.355,0,0,0,.281-.283l1.137-5.937A.357.357,0,0,0,475.154,740.046Z" fill="url(#linear-gradient-3)"/>
      <path id="Path_6903" data-name="Path 6903" d="M488.563,741.4l1.021-3.834a.352.352,0,0,0-.085-.335.358.358,0,0,0-.329-.107l-1.775.351a.352.352,0,0,0-.224.147.357.357,0,0,0-.263-.051l-4.926.972a.356.356,0,0,0-.281.283l-.253,1.323a1.981,1.981,0,0,0-.385-.544,2.516,2.516,0,0,0-2.334-.534,4.994,4.994,0,0,0-2.54,1.406,5.075,5.075,0,0,0-1.388,2.567,2.556,2.556,0,0,0,.55,2.367,2.244,2.244,0,0,0,1.628.607,3.6,3.6,0,0,0,.706-.073,4.994,4.994,0,0,0,2.54-1.406,5.076,5.076,0,0,0,1.388-2.567,3.167,3.167,0,0,0-.029-1.461.355.355,0,0,0,.281.063l1.171-.23-.783,4.086a.357.357,0,0,0,.351.424.4.4,0,0,0,.069-.007l1.555-.307a.355.355,0,0,0,.281-.283l.837-4.369,1.445-.286a.318.318,0,0,0,.112-.043l-.225,1.942a.353.353,0,0,0,.112.3.292.292,0,0,0,.033.027,1.73,1.73,0,0,0-.7,1.051.975.975,0,0,0,.233.9.9.9,0,0,0,.655.252,1.278,1.278,0,0,0,.256-.026,1.76,1.76,0,0,0,1.34-1.348.97.97,0,0,0-.225-.9.888.888,0,0,0-.131-.1l.034-.006A.358.358,0,0,0,488.563,741.4Zm-11.49,1.468a2.131,2.131,0,0,1,1.528-1.706,1.115,1.115,0,0,1,.215-.023.536.536,0,0,1,.39.138.986.986,0,0,1,.136.871,2.132,2.132,0,0,1-1.529,1.706.67.67,0,0,1-.6-.115A.99.99,0,0,1,477.073,742.863Z" fill="url(#linear-gradient-4)"/>
    </g>
    <g id="Group_574" data-name="Group 574">
      <path id="Path_6904" data-name="Path 6904" d="M475.041,739.478a.354.354,0,0,0-.32-.1l-1.556.307a.355.355,0,0,0-.281.282l-.382,2-1.366.269.327-1.711a.356.356,0,0,0-.419-.417l-1.555.307a.358.358,0,0,0-.282.283l-1.136,5.937a.357.357,0,0,0,.35.424.323.323,0,0,0,.069-.007l1.556-.307a.358.358,0,0,0,.281-.283l.4-2.079,1.366-.269-.344,1.8a.357.357,0,0,0,.42.417l1.555-.307a.355.355,0,0,0,.281-.283l1.137-5.937A.357.357,0,0,0,475.041,739.478Z" fill="url(#linear-gradient-5)"/>
      <path id="Path_6905" data-name="Path 6905" d="M488.45,740.827l1.021-3.834a.358.358,0,0,0-.414-.442l-1.775.351a.349.349,0,0,0-.224.147A.357.357,0,0,0,486.8,737l-4.926.972a.356.356,0,0,0-.281.283l-.253,1.323a1.981,1.981,0,0,0-.385-.544,2.516,2.516,0,0,0-2.334-.534,4.994,4.994,0,0,0-2.54,1.406,5.076,5.076,0,0,0-1.388,2.567,2.556,2.556,0,0,0,.55,2.367,2.245,2.245,0,0,0,1.628.607,3.6,3.6,0,0,0,.706-.073,4.994,4.994,0,0,0,2.54-1.406A5.075,5.075,0,0,0,481.5,741.4a3.18,3.18,0,0,0-.029-1.461.355.355,0,0,0,.281.063l1.171-.231-.783,4.087a.357.357,0,0,0,.351.424.4.4,0,0,0,.069-.007l1.555-.307a.355.355,0,0,0,.281-.283l.837-4.369,1.445-.286a.339.339,0,0,0,.112-.043l-.226,1.942a.356.356,0,0,0,.113.3.405.405,0,0,0,.032.027,1.738,1.738,0,0,0-.229.192,1.677,1.677,0,0,0-.468.859.975.975,0,0,0,.233.9.9.9,0,0,0,.654.252,1.28,1.28,0,0,0,.257-.026,1.76,1.76,0,0,0,1.34-1.348.97.97,0,0,0-.225-.9.887.887,0,0,0-.131-.1l.034-.006A.358.358,0,0,0,488.45,740.827Zm-9.221.748a2.132,2.132,0,0,1-1.529,1.706.67.67,0,0,1-.605-.115.987.987,0,0,1-.135-.871,2.134,2.134,0,0,1,1.528-1.707,1.191,1.191,0,0,1,.215-.022.536.536,0,0,1,.39.138A.99.99,0,0,1,479.229,741.575Z" fill="url(#linear-gradient-6)"/>
    </g>
    <g id="Group_575" data-name="Group 575">
      <path id="Path_6906" data-name="Path 6906" d="M472.73,742.171l-2.121.419.427-2.231-1.555.307-1.137,5.937,1.555-.307.443-2.316,2.121-.419-.443,2.316,1.555-.307,1.137-5.937-1.555.307Z" fill="url(#linear-gradient-7)"/>
      <path id="Path_6907" data-name="Path 6907" d="M478.608,738.75a4.826,4.826,0,0,0-3.647,3.69c-.341,1.782.7,2.832,2.465,2.485a4.826,4.826,0,0,0,3.646-3.691C481.413,739.453,480.367,738.4,478.608,738.75Zm.893,2.794a2.485,2.485,0,0,1-1.809,1.99c-.833.164-1.357-.377-1.16-1.4a2.484,2.484,0,0,1,1.809-1.989C479.174,739.977,479.7,740.518,479.5,741.544Z" fill="url(#linear-gradient-8)"/>
      <path id="Path_6908" data-name="Path 6908" d="M486.786,737.25l-4.926.972-.255,1.332,1.689-.333-.882,4.606,1.555-.307.882-4.606,1.681-.332Z" fill="url(#linear-gradient-9)"/>
      <path id="Path_6909" data-name="Path 6909" d="M489.048,736.8l-1.775.35-.432,3.717,1.186-.234Z" fill="url(#linear-gradient-10)"/>
      <path id="Path_6910" data-name="Path 6910" d="M487.347,741.229a1.381,1.381,0,0,0-1.063,1.05.563.563,0,0,0,.726.714,1.4,1.4,0,0,0,1.058-1.066C488.164,741.427,487.874,741.125,487.347,741.229Z" fill="url(#linear-gradient-11)"/>
    </g>
  </g>
</svg>
