<svg xmlns="http://www.w3.org/2000/svg" width="328.644" height="85.202" viewBox="0 0 328.644 85.202">
  <g id="Group_107" data-name="Group 107" transform="translate(-1325.45 -44.71)">
    <g id="Group_104" data-name="Group 104">
      <g id="Group_102" data-name="Group 102">
        <path id="Path_1092" data-name="Path 1092"
          d="M1424.245,115.366v-5.9h-1.085v-1.021h1.085v-5.4h7.117a2.235,2.235,0,0,1,1.67.694,2.211,2.211,0,0,1,.694,1.649v7.637a2.253,2.253,0,0,1-.694,1.648,2.228,2.228,0,0,1-1.67.694Zm6.769-1.366a1.214,1.214,0,0,0,.89-.369,1.153,1.153,0,0,0,.347-.846v-7.16a1.155,1.155,0,0,0-.347-.846,1.214,1.214,0,0,0-.89-.369h-5.293v4.035h2.126v1.021h-2.126V114Z"
          fill="#606060" />
        <path id="Path_1093" data-name="Path 1093"
          d="M1436.221,108.1a1.976,1.976,0,0,1,.629-1.476,2.011,2.011,0,0,1,1.475-.607h3.515a2.038,2.038,0,0,1,1.5.607,2.017,2.017,0,0,1,.608,1.476v2.82h-6.379v2.387a1.035,1.035,0,0,0,1.019,1.019h3.06a1.054,1.054,0,0,0,.737-.3.982.982,0,0,0,.3-.716v-1.064h1.259V113.5a2.112,2.112,0,0,1-2.1,2.082h-3.515a1.971,1.971,0,0,1-1.475-.629,1.945,1.945,0,0,1-.629-1.453Zm6.465,1.822v-1.627a.982.982,0,0,0-.3-.716,1.054,1.054,0,0,0-.737-.3h-3.06a1.035,1.035,0,0,0-1.019,1.019v1.627Zm-3.08-7.311h.975l1.78,3.146h-1.237l-1.042-2.148-1.041,2.148h-1.236Zm2.407,1.562,1.172-3.145h1.431l-1.627,3.145Z"
          fill="#606060" />
        <path id="Path_1094" data-name="Path 1094" d="M1449.151,103.044h9.915v1.3h-4.231v11.02h-1.454v-11.02h-4.23Z"
          fill="#606060" />
        <path id="Path_1095" data-name="Path 1095"
          d="M1460.042,101.526h1.389v5.532a1.76,1.76,0,0,1,1.692-1.042h2.755a2.073,2.073,0,0,1,2.083,2.083v7.267h-1.367v-7.05a1.038,1.038,0,0,0-1.02-1.02H1462.8a1.32,1.32,0,0,0-.976.391,1.371,1.371,0,0,0-.39.976v6.7h-1.389Z"
          fill="#606060" />
        <path id="Path_1096" data-name="Path 1096"
          d="M1470.347,106.233h1.389v7.029a1,1,0,0,0,.3.738.981.981,0,0,0,.716.3h2.691a1.291,1.291,0,0,0,.975-.412,1.324,1.324,0,0,0,.391-.977v-6.682h1.388v9.133h-1.258l-.109-.824a1.758,1.758,0,0,1-1.691,1.041h-2.691a2.041,2.041,0,0,1-1.5-.629,1.98,1.98,0,0,1-.607-1.453Zm2.776,10.479h1.737v1.931h-1.737Zm7.16-9.828h-.065a1.872,1.872,0,0,1-.542.89,2.024,2.024,0,0,1-1.454.586h-.455v-1.151h.173a1.026,1.026,0,0,0,.759-.3.93.93,0,0,0,.3-.715v-1.085h1.28Z"
          fill="#606060" />
        <path id="Path_1097" data-name="Path 1097"
          d="M1480.587,108.1a1.976,1.976,0,0,1,.629-1.476,2.013,2.013,0,0,1,1.476-.607h3.644a2.038,2.038,0,0,1,1.5.607,2.013,2.013,0,0,1,.608,1.476v1.3h-1.259v-1.107a.978.978,0,0,0-.3-.716,1.054,1.054,0,0,0-.737-.3h-3.19a1.037,1.037,0,0,0-1.019,1.019v5.012a1.037,1.037,0,0,0,1.019,1.019h3.19a1.054,1.054,0,0,0,.737-.3.978.978,0,0,0,.3-.716v-1.128h1.259V113.5a2.112,2.112,0,0,1-2.1,2.082h-3.644a1.973,1.973,0,0,1-1.476-.629,1.945,1.945,0,0,1-.629-1.453Z"
          fill="#606060" />
        <path id="Path_1098" data-name="Path 1098" d="M1493.647,103.044h9.915v1.3h-4.231v11.02h-1.454v-11.02h-4.23Z"
          fill="#606060" />
        <path id="Path_1099" data-name="Path 1099"
          d="M1503.67,106.233h1.258l.108,1.042a1.762,1.762,0,0,1,1.693-1.042h1.237v1.28h-1.52a1.322,1.322,0,0,0-.975.391,1.358,1.358,0,0,0-.412,1v6.464h-1.389Z"
          fill="#606060" />
        <path id="Path_1100" data-name="Path 1100"
          d="M1509.375,108.1a2.053,2.053,0,0,1,.608-1.476,2.009,2.009,0,0,1,1.475-.607h3.775a2.11,2.11,0,0,1,2.1,2.083v5.4a2.008,2.008,0,0,1-.607,1.475,2.082,2.082,0,0,1-1.5.607h-3.775a2.074,2.074,0,0,1-2.083-2.082Zm1.345,5.207a1.018,1.018,0,0,0,.282.716.981.981,0,0,0,.716.3h3.255a1.035,1.035,0,0,0,1.019-1.019v-5.012a1.035,1.035,0,0,0-1.019-1.019h-3.255a.981.981,0,0,0-.716.3,1.018,1.018,0,0,0-.282.716Z"
          fill="#606060" />
        <path id="Path_1101" data-name="Path 1101"
          d="M1519.724,106.233h1.389v.825a1.759,1.759,0,0,1,1.692-1.042h2.755a2.087,2.087,0,0,1,1.5.607,2.016,2.016,0,0,1,.607,1.476v7.267h-1.388v-7.05a1.038,1.038,0,0,0-1.02-1.02h-2.777a1.32,1.32,0,0,0-.976.391,1.366,1.366,0,0,0-.39.976v6.7h-1.389Z"
          fill="#606060" />
        <path id="Path_1102" data-name="Path 1102"
          d="M1529.726,116.972a1.871,1.871,0,0,1,.585-1.366l.912-.847a1.37,1.37,0,0,1-1.021-1.41,1.487,1.487,0,0,1,.412-1.02,1.956,1.956,0,0,1-.888-1.714v-2.3a2.056,2.056,0,0,1,.607-1.476,2.083,2.083,0,0,1,1.5-.607h5.641v.955l-1,.13a1.327,1.327,0,0,1,.542,1.15v2.147a2.074,2.074,0,0,1-2.083,2.083h-3.059a1.372,1.372,0,0,1-.433-.065.794.794,0,0,0-.24.586.71.71,0,0,0,.543.737l4.382.977a1.7,1.7,0,0,1,1.433,1.844v1.432a2.074,2.074,0,0,1-2.083,2.082h-3.645a2.079,2.079,0,0,1-1.5-.607,2.008,2.008,0,0,1-.607-1.475Zm1.236,1.042a.98.98,0,0,0,.3.716,1.054,1.054,0,0,0,.737.3h3.211a1.037,1.037,0,0,0,1.02-1.019v-1.151a.91.91,0,0,0-.716-.976l-3.276-.824-.846.889a1.287,1.287,0,0,0-.434.911Zm.13-7.377a1.017,1.017,0,0,0,.282.716.977.977,0,0,0,.716.3h2.561a1.037,1.037,0,0,0,1.019-1.019v-2.105a1.039,1.039,0,0,0-1.019-1.019h-2.561a.978.978,0,0,0-.716.3,1.018,1.018,0,0,0-.282.715Z"
          fill="#606060" />
        <path id="Path_1103" data-name="Path 1103"
          d="M1547.211,103.044h1.366l4.861,12.322h-1.519l-1.432-3.666h-5.207l-1.432,3.666h-1.519Zm.26-3.667h.976l1.78,3.146h-1.238l-1.041-2.148-1.041,2.148h-1.237Zm2.582,11.086-2.17-5.554-2.169,5.554Zm-1.172-12.322a.9.9,0,0,1,.369-.716,1.422,1.422,0,0,1,.933-.3h1.671a1.419,1.419,0,0,1,.932.3.9.9,0,0,1,.369.716v.607a.947.947,0,0,1-.715.89l-1.042.412a.311.311,0,0,0-.239.3v.781h-1.106v-.89q0-.585.76-.889l.954-.369a.309.309,0,0,0,.217-.3v-.412a.233.233,0,0,0-.087-.2.315.315,0,0,0-.217-.108h-1.345a.315.315,0,0,0-.217.108.23.23,0,0,0-.087.2v.607h-1.15Z"
          fill="#606060" />
        <path id="Path_1104" data-name="Path 1104"
          d="M1554.848,106.233h1.258l.087.825a1.777,1.777,0,0,1,1.713-1.042h1.845a2.034,2.034,0,0,0,3.449,0h2.192a2.038,2.038,0,0,1,1.5.607,2.016,2.016,0,0,1,.607,1.476v7.267h-1.388v-7.05a1.019,1.019,0,0,0-.283-.716.98.98,0,0,0-.715-.3h-2.256a.983.983,0,0,0-.717.3,1.112,1.112,0,0,0-.3.716v7.05h-1.345v-7.05a1.037,1.037,0,0,0-1.019-1.02H1557.6a1.321,1.321,0,0,0-.976.391,1.367,1.367,0,0,0-.39.976v6.7h-1.389Z"
          fill="#606060" />
        <path id="Path_1105" data-name="Path 1105" d="M1572.811,103.044h9.915v1.3h-4.231v11.02h-1.454v-11.02h-4.23Z"
          fill="#606060" />
        <path id="Path_1106" data-name="Path 1106"
          d="M1583.7,101.526h1.389v5.532a1.76,1.76,0,0,1,1.692-1.042h2.755a2.072,2.072,0,0,1,2.083,2.083v7.267h-1.367v-7.05a1.039,1.039,0,0,0-1.019-1.02h-2.778a1.318,1.318,0,0,0-.975.391,1.367,1.367,0,0,0-.391.976v6.7H1583.7Z"
          fill="#606060" />
        <path id="Path_1107" data-name="Path 1107"
          d="M1594.007,106.233h1.389v7.029a1,1,0,0,0,.3.738.982.982,0,0,0,.716.3h2.691a1.291,1.291,0,0,0,.975-.412,1.324,1.324,0,0,0,.391-.977v-6.682h1.389v9.133H1600.6l-.109-.824a1.758,1.758,0,0,1-1.691,1.041h-2.69a2.041,2.041,0,0,1-1.5-.629,1.98,1.98,0,0,1-.607-1.453Zm2.776,10.479h1.737v1.931h-1.737Zm7.161-9.828h-.066a1.865,1.865,0,0,1-.542.89,2.024,2.024,0,0,1-1.454.586h-.455v-1.151h.173a1.028,1.028,0,0,0,.76-.3.932.932,0,0,0,.3-.715v-1.085h1.281Z"
          fill="#606060" />
        <path id="Path_1108" data-name="Path 1108"
          d="M1604.247,108.1a1.976,1.976,0,0,1,.629-1.476,2.013,2.013,0,0,1,1.476-.607H1610a2.038,2.038,0,0,1,1.5.607,2.013,2.013,0,0,1,.608,1.476v1.3h-1.259v-1.107a.978.978,0,0,0-.3-.716,1.054,1.054,0,0,0-.737-.3h-3.189a1.037,1.037,0,0,0-1.02,1.019v5.012a1.037,1.037,0,0,0,1.02,1.019h3.189a1.054,1.054,0,0,0,.737-.3.978.978,0,0,0,.3-.716v-1.128h1.259V113.5a2.112,2.112,0,0,1-2.1,2.082h-3.644a1.973,1.973,0,0,1-1.476-.629,1.945,1.945,0,0,1-.629-1.453Z"
          fill="#606060" />
      </g>
      <g id="Group_103" data-name="Group 103">
        <path id="Path_1109" data-name="Path 1109"
          d="M1423.989,95.779v-28.4q0-4.366,5.312-4.366h21.273q5.312,0,5.313,4.366v28.4h-7.968l-.027-26.218h-15.935V95.779Z"
          fill="#ea2024" />
        <path id="Path_1110" data-name="Path 1110"
          d="M1493.042,80.5V91.412q0,4.366-5.311,4.367h-21.247q-5.312,0-5.312-4.367V67.4q0-4.367,5.312-4.367h26.558v6.549h-23.9V89.23h15.934V82.681h-10.6l2.656-6.55h10.6Q1493.042,76.131,1493.042,80.5Z"
          fill="#ea2024" />
        <path id="Path_1111" data-name="Path 1111"
          d="M1497.4,95.779v-28.4q0-4.366,5.311-4.366h21.247q5.311,0,5.312,4.366v28.4H1521.3V87.025h-15.935v8.754Zm23.9-26.218h-15.935V80.476H1521.3Z"
          fill="#ea2024" />
        <path id="Path_1112" data-name="Path 1112"
          d="M1534.58,95.779v-28.4q0-4.366,5.312-4.366h21.273q5.312,0,5.313,4.366v28.4h-7.968l-.027-26.218h-15.935V95.779Z"
          fill="#ea2024" />
        <path id="Path_1113" data-name="Path 1113"
          d="M1590.353,76.94V63.033h26.585q5.312,0,5.312,4.367l-.027,24.012q0,4.366-5.312,4.367h-26.558V83.4h-2.417V76.94Zm7.968,6.461V89.23h15.934V69.605h-15.934V76.94h5.231l-3.08,6.461Z"
          fill="#ea2024" />
        <path id="Path_1114" data-name="Path 1114"
          d="M1635.5,82.681V89.23h18.591v6.549h-21.247q-5.312,0-5.312-4.367V67.4q0-4.367,5.312-4.367h21.247v6.549H1635.5v6.549h10.623l-2.655,6.55Zm6.666-23.795-3.983,1.965h-2.657l3.984-3.275,2.656-2.182,2.656,2.182,3.984,3.275h-2.656Zm9.216-8.143,2.656,2.184L1647.4,56.2h-2.657Z"
          fill="#ea2024" />
      </g>
    </g>
    <g id="Group_106" data-name="Group 106">
      <circle id="Ellipse_1" data-name="Ellipse 1" cx="42.601" cy="42.601" r="42.601"
        transform="translate(1325.45 44.71)" fill="#ea2024" />
      <g id="Group_105" data-name="Group 105">
        <path id="Path_1115" data-name="Path 1115"
          d="M1374.555,61.017q-.206,0-.414,0h-.027a8.148,8.148,0,0,0-2.551.4,11.359,11.359,0,0,0-2.114.829,16.02,16.02,0,0,0-6.23,6.593l-8.128,5.913s1.017,2.5,6.063.592c0,0,5.377-1.7,7.226-1.184,0,0,5.171,1.483,8.986-2.156,0,0,1.336-1.829,3.1-1.823,19.274,4.83,20.311,30.9-.34,39.118a20.558,20.558,0,0,1-11.169,1.441,22.282,22.282,0,0,1-10.243-4.465,21.968,21.968,0,0,0,10.294,4.027,20.537,20.537,0,0,0,19.012-8.779,18.5,18.5,0,0,0,2.927-9.5c-1.211-.91-10.048-7.329-21.217-4.5a25.028,25.028,0,0,0-13.625,9.185,45.864,45.864,0,0,0-18.992-10.752c-11.233-2.916,1.343,9.631,1.343,9.631a6.511,6.511,0,0,0,2.9,6.492,7.083,7.083,0,0,0,1.34,3.809c1.148,1.578,3.943,2,4.525,2.217.86,1.962,4.477,12.9,16.473,17.042,18.241,6.3,38.528-7.323,41.146-26.112C1407.689,78.625,1392.541,60.9,1374.555,61.017Z"
          fill="#fff" />
        <path id="Path_1116" data-name="Path 1116"
          d="M1362.05,54.778a1.358,1.358,0,0,0,.709-.2l4.555,7.487c4.017-2.627,6.758-3.034,12.571-1.771l1.661-7.9a1.366,1.366,0,1,0-.875-.612l-4.871,3.044c-3.738-3.5-4.334-2.494-6.9.884l-5.554-1.862a1.364,1.364,0,1,0-1.293.93Z"
          fill="#fff" />
      </g>
    </g>
  </g>
</svg>
