<svg xmlns="http://www.w3.org/2000/svg" width="109.727" height="8.672" viewBox="0 0 109.727 8.672">
  <g id="Group_392" data-name="Group 392" transform="translate(-350.217 -738.613)">
    <path id="Path_4617" data-name="Path 4617" d="M350.217,740.312H352.2v.893h-.843v5.069h.843v.893h-1.985Z" fill="#df071b"/>
    <path id="Path_4618" data-name="Path 4618" d="M352.957,743.183a2.823,2.823,0,0,1,4.892-1.743l-.762.7a1.647,1.647,0,0,0-1.289-.6,1.641,1.641,0,0,0,0,3.282,1.63,1.63,0,0,0,1.289-.609l.762.7a2.818,2.818,0,0,1-4.892-1.735Z" fill="#df071b"/>
    <path id="Path_4619" data-name="Path 4619" d="M358.582,743.183a2.81,2.81,0,1,1,2.806,2.651A2.654,2.654,0,0,1,358.582,743.183Zm4.41,0a1.6,1.6,0,1,0-1.6,1.641A1.565,1.565,0,0,0,362.992,743.183Z" fill="#df071b"/>
    <path id="Path_4620" data-name="Path 4620" d="M370.119,745.746l-.007-3.076L368.6,745.2h-.535l-1.5-2.467v3.009h-1.113v-5.127h.981l1.919,3.186,1.89-3.186h.974l.014,5.127Z" fill="#df071b"/>
    <path id="Path_4621" data-name="Path 4621" d="M377.518,744.348c0,.886-.7,1.4-2.051,1.4h-2.652v-5.127h2.505c1.282,0,1.941.536,1.941,1.333a1.23,1.23,0,0,1-.681,1.128A1.268,1.268,0,0,1,377.518,744.348Zm-3.523-2.835v1.208h1.179c.578,0,.893-.205.893-.607s-.315-.6-.893-.6Zm2.329,2.71c0-.432-.33-.637-.945-.637h-1.384v1.267h1.384C375.994,744.853,376.324,744.662,376.324,744.223Z" fill="#df071b"/>
    <path id="Path_4622" data-name="Path 4622" d="M378.464,743.183a2.809,2.809,0,1,1,2.805,2.651A2.653,2.653,0,0,1,378.464,743.183Zm4.409,0a1.6,1.6,0,1,0-1.6,1.641A1.564,1.564,0,0,0,382.873,743.183Z" fill="#df071b"/>
    <path id="Path_4623" data-name="Path 4623" d="M384.895,747.167v-.893h.835v-5.069h-.835v-.893h1.978v6.855Z" fill="#df071b"/>
    <path id="Path_4624" data-name="Path 4624" d="M395.6,740.619v5.127h-.974l-2.556-3.113v3.113h-1.172v-5.127h.981l2.549,3.114v-3.114Z" fill="#df071b"/>
    <path id="Path_4625" data-name="Path 4625" d="M400.645,743.1h1.083v2.08a3.526,3.526,0,0,1-2.072.652,2.655,2.655,0,1,1,.022-5.3,2.731,2.731,0,0,1,2.146.886l-.762.7a1.735,1.735,0,0,0-1.326-.579,1.641,1.641,0,1,0-.014,3.282,1.888,1.888,0,0,0,.923-.22Z" fill="#df071b"/>
    <path id="Path_4626" data-name="Path 4626" d="M406.571,744.648H404.19l-.454,1.1H402.52l2.286-5.127h1.172l2.292,5.127h-1.245Zm-.374-.9-.813-1.962-.813,1.962Z" fill="#df071b"/>
    <path id="Path_4627" data-name="Path 4627" d="M413.874,740.619v5.127H412.9l-2.556-3.113v3.113h-1.172v-5.127h.981l2.549,3.114v-3.114Z" fill="#df071b"/>
    <path id="Path_4628" data-name="Path 4628" d="M423.148,743.183a2.556,2.556,0,0,1-2.827,2.563h-2.329v-2.211h-.7v-.791h.7v-2.125h2.329A2.557,2.557,0,0,1,423.148,743.183Zm-1.2,0a1.53,1.53,0,0,0-1.684-1.589h-1.084v1.15h1.281v.791h-1.281v1.237h1.084A1.53,1.53,0,0,0,421.947,743.183Z" fill="#df071b"/>
    <path id="Path_4629" data-name="Path 4629" d="M429.7,743.183a2.809,2.809,0,1,1-2.8-2.651A2.653,2.653,0,0,1,429.7,743.183Zm-1.2,0a1.6,1.6,0,1,0-1.6,1.641A1.564,1.564,0,0,0,428.5,743.183Zm-2.234-2.981h-.842l.974-.834h1l.974.834h-.842l-.63-.417Zm1.948-.7-1.149-.885h1.164l.806.885Z" fill="#df071b"/>
    <path id="Path_4630" data-name="Path 4630" d="M435.66,740.619v5.127h-.974l-2.556-3.113v3.113h-1.172v-5.127h.981l2.549,3.114v-3.114Z" fill="#df071b"/>
    <path id="Path_4631" data-name="Path 4631" d="M440.707,743.1h1.084v2.08a3.526,3.526,0,0,1-2.072.652,2.655,2.655,0,1,1,.022-5.3,2.731,2.731,0,0,1,2.146.886l-.762.7a1.735,1.735,0,0,0-1.326-.579,1.641,1.641,0,1,0-.014,3.282,1.882,1.882,0,0,0,.922-.22Z" fill="#df071b"/>
    <path id="Path_4632" data-name="Path 4632" d="M450.948,743.183a2.556,2.556,0,0,1-2.827,2.563h-2.329v-2.211h-.7v-.791h.7v-2.125h2.329A2.557,2.557,0,0,1,450.948,743.183Zm-1.2,0a1.53,1.53,0,0,0-1.685-1.589h-1.084v1.15h1.282v.791h-1.282v1.237h1.084A1.53,1.53,0,0,0,449.747,743.183Z" fill="#df071b"/>
    <path id="Path_4633" data-name="Path 4633" d="M457.5,743.183a2.809,2.809,0,1,1-2.805-2.651A2.653,2.653,0,0,1,457.5,743.183Zm-1.2,0a1.6,1.6,0,1,0-1.6,1.641A1.565,1.565,0,0,0,456.3,743.183Zm-2.241-2.981h-.835l.967-1.055h1.01l.967,1.055h-.835l-.637-.557Zm1.142,6.591a.505.505,0,0,1-1.01,0,.505.505,0,1,1,1.01,0Z" fill="#df071b"/>
    <path id="Path_4634" data-name="Path 4634" d="M458.758,740.619h1.186v5.127h-1.186Z" fill="#df071b"/>
  </g>
</svg>
