<svg xmlns="http://www.w3.org/2000/svg" xmlns:xlink="http://www.w3.org/1999/xlink" width="257" height="15" viewBox="0 0 257 15">
  <defs>
    <clipPath id="clip-Web_1920_1">
      <rect width="257" height="15"/>
    </clipPath>
  </defs>
  <g id="Web_1920_1" data-name="Web 1920 – 1" clip-path="url(#clip-Web_1920_1)">
    <g id="Group_292" data-name="Group 292" transform="translate(-64.535 -691)">
      <g id="Group_291" data-name="Group 291">
        <g id="Group_290" data-name="Group 290">
          <path id="Path_3245" data-name="Path 3245" d="M64.535,704.856v-10.4H67.03V695.6h-.778v8.108h.778v1.146Z" fill="#df071b"/>
          <path id="Path_3246" data-name="Path 3246" d="M70.649,703.6v-9.142h3.229l.581,4.53.6-4.53h3.228V703.6H76.308v-7.1l-1.169,7.1H73.8l-1.147-7.1-.022,7.1Z" fill="#df071b"/>
          <path id="Path_3247" data-name="Path 3247" d="M79.253,703.6v-9.142h4.555v1.765H81.3v1.815h2.2V699.8H81.3v2.032h2.6V703.6Z" fill="#df071b"/>
          <path id="Path_3248" data-name="Path 3248" d="M84.819,703.6v-9.142h2.239l1.647,5.389.022-5.389H90.71V703.6H88.482l-1.658-5.651L86.8,703.6Z" fill="#df071b"/>
          <path id="Path_3249" data-name="Path 3249" d="M91.618,701.1v-6.646h2.049v6.668a2.039,2.039,0,0,0,.087.7c.055.152.223.228.506.228a.559.559,0,0,0,.445-.179,1.308,1.308,0,0,0,.142-.748v-6.668h2.048V701.1a2.641,2.641,0,1,1-5.277,0Z" fill="#df071b"/>
          <path id="Path_3250" data-name="Path 3250" d="M102.944,704.856H100.45V703.71h.782V695.6h-.782v-1.145h2.494Z" fill="#df071b"/>
          <path id="TRÀ_THẢO_MỘC_DƯỠNG_SINH" data-name="TRÀ THẢO MỘC DƯỠNG SINH" d="M7.75-1.509a4.476,4.476,0,0,1-1.093.542,3.637,3.637,0,0,1-1.152.188A3.838,3.838,0,0,1,4.05-1.045a3.209,3.209,0,0,1-1.117-.744,3.26,3.26,0,0,1-.709-1.139,4.142,4.142,0,0,1-.247-1.461,3.979,3.979,0,0,1,.2-1.292,3.057,3.057,0,0,1,.583-1.034A2.655,2.655,0,0,1,3.693-7.4a3.005,3.005,0,0,1,1.243-.247,7.007,7.007,0,0,1,1.034.121,5.277,5.277,0,0,1,.741.2,4.184,4.184,0,0,1,.556.247q.242.132.494.239.032-.209.073-.483t.073-.44a9.956,9.956,0,0,0-1.528-.4,8.377,8.377,0,0,0-1.464-.137,4.9,4.9,0,0,0-1.662.279,4.029,4.029,0,0,0-1.37.814A3.9,3.9,0,0,0,.948-5.895,4.221,4.221,0,0,0,.6-4.146,4.2,4.2,0,0,0,.959-2.371a3.781,3.781,0,0,0,.972,1.305,4.147,4.147,0,0,0,1.442.8A5.671,5.671,0,0,0,5.135,0a4.25,4.25,0,0,0,.6-.048,6.478,6.478,0,0,0,.682-.137q.346-.089.682-.209a3.506,3.506,0,0,0,.6-.277ZM9.7-3.663h3.835V-.419q0,.333-.011.419h1.289L14.8-5.355a3.282,3.282,0,0,0-.209-1.206,2.41,2.41,0,0,0-.615-.908,2.8,2.8,0,0,0-.991-.577,4,4,0,0,0-1.321-.2,3.393,3.393,0,0,0-2.4.776,2.76,2.76,0,0,0-.83,2.119v3.9q0,.645-.005,1T8.411,0h1.3ZM9.7-5.7a2.19,2.19,0,0,1,.169-.916,1.578,1.578,0,0,1,.446-.588,1.715,1.715,0,0,1,.615-.314,2.27,2.27,0,0,1,.682-.083,2.44,2.44,0,0,1,.685.078,1.663,1.663,0,0,1,.623.306,1.542,1.542,0,0,1,.446.594,2.247,2.247,0,0,1,.169.924v1.531H9.7ZM19.959-7.611V-8.25H18.928a3.333,3.333,0,0,0-2.355.781,2.758,2.758,0,0,0-.814,2.1V-.387q0,.177-.005.255t-.005.121h1.278V-3.663h3v-.5h-3V-5.709a2.161,2.161,0,0,1,.169-.905,1.672,1.672,0,0,1,.438-.594,1.537,1.537,0,0,1,.61-.314,2.713,2.713,0,0,1,.685-.089Zm6.279,7h-2.32a2.793,2.793,0,0,1-.685-.086A1.509,1.509,0,0,1,22.623-1a1.677,1.677,0,0,1-.438-.591,2.171,2.171,0,0,1-.169-.913v-1.66h3v-.5h-3V-5.9q0-.451.011-.768a1.83,1.83,0,0,1,.081-.521.628.628,0,0,1,.22-.314.873.873,0,0,1,.414-.142h3.507V-8.25h-5.5v5.393a2.751,2.751,0,0,0,.814,2.1,3.333,3.333,0,0,0,2.355.781h2.32ZM25.212-10.968,23.037-9.416l.177.338Q25.733-9.92,25.8-9.99A6.323,6.323,0,0,0,25.212-10.968Z" transform="translate(108 704)" fill="#707070"/>
        </g>
      </g>
    </g>
    <path id="Path_3251" data-name="Path 3251" d="M0,0H111.233V.275H0Z" transform="translate(145.767 8.203)" fill="#df071b"/>
  </g>
</svg>
