<svg xmlns="http://www.w3.org/2000/svg" width="548.462" height="23.978" viewBox="0 0 548.462 23.978">
  <g id="Group_164" data-name="Group 164" transform="translate(-1237.64 -42.429)">
    <g id="Group_84" data-name="Group 84" transform="translate(0 -887.455)">
      <g id="Group_83" data-name="Group 83">
        <g id="Group_82" data-name="Group 82">
          <g id="Group_81" data-name="Group 81">
            <path id="Path_665" data-name="Path 665" d="M1237.64,951.7V929.884h5.233v2.4h-1.631v17.009h1.631v2.4Z"
              fill="#ea2024" />
            <path id="Path_666" data-name="Path 666"
              d="M1250.466,949.06V929.884h6.772l1.22,9.5,1.255-9.5h6.772V949.06h-4.15v-14.9l-2.451,14.9h-2.805l-2.406-14.9-.045,14.9Z"
              fill="#ea2024" />
            <path id="Path_667" data-name="Path 667"
              d="M1268.514,949.06V929.884h9.554v3.7h-5.256v3.807h4.606v3.7h-4.606v4.264h5.461v3.7Z" fill="#ea2024" />
            <path id="Path_668" data-name="Path 668"
              d="M1280.189,949.06V929.884h4.7l3.454,11.3.046-11.3h4.161V949.06h-4.675l-3.476-11.855-.046,11.855Z"
              fill="#ea2024" />
            <path id="Path_669" data-name="Path 669"
              d="M1294.451,943.823V929.884h4.3V943.87a4.26,4.26,0,0,0,.183,1.465q.171.48,1.06.48a1.181,1.181,0,0,0,.935-.375,2.751,2.751,0,0,0,.3-1.57V929.884h4.3v13.939a5.541,5.541,0,1,1-11.071,0Z"
              fill="#ea2024" />
            <path id="Path_670" data-name="Path 670" d="M1318.21,951.7h-5.233v-2.4h1.642V932.285h-1.642v-2.4h5.233Z"
              fill="#ea2024" />
            <path id="Path_671" data-name="Path 671"
              d="M1332.165,949.036h-2.69V937.381a6.11,6.11,0,0,1,1.761-4.622,7.081,7.081,0,0,1,5.1-1.692,8.251,8.251,0,0,1,2.8.445,6.008,6.008,0,0,1,2.1,1.259,5.228,5.228,0,0,1,1.311,1.98,7.32,7.32,0,0,1,.445,2.63v11.655h-2.691V936.631a5.013,5.013,0,0,0-.359-2.015,3.356,3.356,0,0,0-.946-1.294,3.5,3.5,0,0,0-1.323-.668,5.027,5.027,0,0,0-1.453-.169,4.73,4.73,0,0,0-1.454.181,3.536,3.536,0,0,0-1.305.685,3.46,3.46,0,0,0-.94,1.283,4.866,4.866,0,0,0-.36,2Z"
              fill="#606060" />
            <path id="Path_672" data-name="Path 672"
              d="M1359.231,953.862h-2.679q0-.152.012-.369t.01-.814v-4.767a5.812,5.812,0,0,1-3.739,1.265,7.985,7.985,0,0,1-3.243-.633,7.028,7.028,0,0,1-2.475-1.8,8.1,8.1,0,0,1-1.589-2.823,11.563,11.563,0,0,1-.559-3.719,11.2,11.2,0,0,1,.593-3.731,8.483,8.483,0,0,1,1.67-2.9,7.666,7.666,0,0,1,2.537-1.88,7.546,7.546,0,0,1,3.2-.674,11.536,11.536,0,0,1,1.42.094c.505.062,1,.143,1.481.24s.947.2,1.392.316.83.209,1.157.287q.159,0,.148.6t.034,1.535q-.558-.234-1-.474a9.247,9.247,0,0,0-.992-.457,7.247,7.247,0,0,0-1.317-.363,13.771,13.771,0,0,0-1.967-.194,4.522,4.522,0,0,0-3.853,1.957,9.31,9.31,0,0,0-1.425,5.552,11.307,11.307,0,0,0,.376,3.052,7.3,7.3,0,0,0,1.043,2.278,4.551,4.551,0,0,0,1.607,1.429,4.494,4.494,0,0,0,2.116.492,8.28,8.28,0,0,0,1.8-.181,5.122,5.122,0,0,0,1.589-.662v-6.549h2.657Z"
              fill="#606060" />
            <path id="Path_673" data-name="Path 673"
              d="M1363.587,949.06h-2.759q.023-.187.035-.972t.01-2.191v-8.516a6.107,6.107,0,0,1,1.762-4.622,7.08,7.08,0,0,1,5.1-1.692,8.29,8.29,0,0,1,2.8.445,5.933,5.933,0,0,1,2.1,1.259,5.26,5.26,0,0,1,1.3,1.98,7.32,7.32,0,0,1,.445,2.63l.023,11.679h-2.736c.014-.125.022-.429.022-.914v-7.075h-8.14Zm-.023-9.091h8.14v-3.338a5.013,5.013,0,0,0-.359-2.015,3.356,3.356,0,0,0-.946-1.294,3.5,3.5,0,0,0-1.323-.668,5.023,5.023,0,0,0-1.453-.169,4.673,4.673,0,0,0-1.448.181,3.6,3.6,0,0,0-1.306.685,3.439,3.439,0,0,0-.946,1.283,4.9,4.9,0,0,0-.359,2Z"
              fill="#606060" />
            <path id="Path_674" data-name="Path 674"
              d="M1379.092,949.036h-2.69V937.381a6.11,6.11,0,0,1,1.76-4.622,7.083,7.083,0,0,1,5.1-1.692,8.255,8.255,0,0,1,2.8.445,6.009,6.009,0,0,1,2.1,1.259,5.239,5.239,0,0,1,1.311,1.98,7.32,7.32,0,0,1,.445,2.63v11.655h-2.691V936.631a5.013,5.013,0,0,0-.359-2.015,3.356,3.356,0,0,0-.946-1.294,3.508,3.508,0,0,0-1.323-.668,5.031,5.031,0,0,0-1.453-.169,4.736,4.736,0,0,0-1.455.181,3.532,3.532,0,0,0-1.3.685,3.473,3.473,0,0,0-.941,1.283,4.883,4.883,0,0,0-.359,2Z"
              fill="#606060" />
            <path id="Path_675" data-name="Path 675"
              d="M1411.71,949.107h-4.925a6.961,6.961,0,0,1-5-1.705,6.087,6.087,0,0,1-1.726-4.574V931.067h2.69v12.639a4.819,4.819,0,0,0,.36,2,3.667,3.667,0,0,0,.928,1.283,3.249,3.249,0,0,0,1.294.685,5.651,5.651,0,0,0,1.454.193h4.925Z"
              fill="#606060" />
            <path id="Path_676" data-name="Path 676"
              d="M1415.757,949.06H1413c.015-.125.027-.449.034-.972s.011-1.254.011-2.191v-8.516a6.107,6.107,0,0,1,1.762-4.622,7.079,7.079,0,0,1,5.1-1.692,8.3,8.3,0,0,1,2.805.445,5.933,5.933,0,0,1,2.1,1.259,5.272,5.272,0,0,1,1.305,1.98,7.32,7.32,0,0,1,.445,2.63l.023,11.679h-2.736c.014-.125.022-.429.022-.914v-7.075h-8.14Zm-.023-9.091h8.14v-3.338a5.013,5.013,0,0,0-.359-2.015,3.356,3.356,0,0,0-.946-1.294,3.5,3.5,0,0,0-1.323-.668,5.023,5.023,0,0,0-1.453-.169,4.67,4.67,0,0,0-1.448.181,3.6,3.6,0,0,0-1.306.685,3.439,3.439,0,0,0-.946,1.283,4.9,4.9,0,0,0-.359,2Z"
              fill="#606060" />
            <path id="Path_677" data-name="Path 677" d="M1431.263,949.083h-2.691V931.067h2.691Z" fill="#606060" />
            <path id="Path_678" data-name="Path 678"
              d="M1441.4,949.036V937.041a5.92,5.92,0,0,1,1.852-4.393,7.178,7.178,0,0,1,5.011-1.6,6.807,6.807,0,0,1,4.81,1.6,6.051,6.051,0,0,1,1.848,4.393,6.3,6.3,0,0,1-1.283,3.8,5.66,5.66,0,0,1-3.346,1.956,6.192,6.192,0,0,1,.981.679,3.424,3.424,0,0,1,.7.826,3.929,3.929,0,0,1,.432,1.089,6.082,6.082,0,0,1,.155,1.447v2.226H1449.8a2.527,2.527,0,0,0,.034-.434c.007-.242.011-.5.011-.785v-1.593a6.457,6.457,0,0,0-.216-1.277,1.885,1.885,0,0,0-.479-.814,3.559,3.559,0,0,0-.855-.591q-.525-.27-1.346-.6a8.478,8.478,0,0,1-1.442-.556,5.215,5.215,0,0,1-1.419-1v7.626Zm2.69-11.234a4.355,4.355,0,0,0,.428,1.846,3.45,3.45,0,0,0,.957,1.171,3.553,3.553,0,0,0,1.271.621,4.912,4.912,0,0,0,1.4.158,5.063,5.063,0,0,0,1.453-.17,3.461,3.461,0,0,0,1.323-.673,3.422,3.422,0,0,0,.946-1.295,4.967,4.967,0,0,0,.359-2.009v-.843a5.006,5.006,0,0,0-.359-2.015,3.348,3.348,0,0,0-.946-1.294,3.479,3.479,0,0,0-1.323-.668,5.029,5.029,0,0,0-1.453-.17,4.756,4.756,0,0,0-1.454.181,3.6,3.6,0,0,0-1.3.68,3.4,3.4,0,0,0-.941,1.283,4.92,4.92,0,0,0-.359,2Z"
              fill="#606060" />
            <path id="Path_679" data-name="Path 679"
              d="M1458.5,949.06h-2.759q.023-.187.035-.972t.01-2.191v-8.516a6.107,6.107,0,0,1,1.762-4.622,7.081,7.081,0,0,1,5.1-1.692,8.29,8.29,0,0,1,2.8.445,5.924,5.924,0,0,1,2.1,1.259,5.262,5.262,0,0,1,1.305,1.98,7.32,7.32,0,0,1,.445,2.63l.023,11.679h-2.736c.015-.125.022-.429.022-.914v-7.075h-8.14Zm-.023-9.091h8.14v-3.338a5.013,5.013,0,0,0-.359-2.015,3.356,3.356,0,0,0-.946-1.294,3.5,3.5,0,0,0-1.323-.668,5.023,5.023,0,0,0-1.453-.169,4.673,4.673,0,0,0-1.448.181,3.61,3.61,0,0,0-1.306.685,3.438,3.438,0,0,0-.946,1.283,4.9,4.9,0,0,0-.359,2Z"
              fill="#606060" />
            <path id="Path_680" data-name="Path 680" d="M1474.005,949.083h-2.69V931.067h2.69Z" fill="#606060" />
          </g>
        </g>
      </g>
    </g>
    <rect id="Rectangle_43" data-name="Rectangle 43" width="305.309" height="0.577"
      transform="translate(1480.793 52.379)" fill="#ea2024" />
  </g>
</svg>
