<svg xmlns="http://www.w3.org/2000/svg" width="544.957" height="28.746" viewBox="0 0 544.957 28.746">
  <g id="Group_161" data-name="Group 161" transform="translate(-50.319 -37.661)">
    <g id="Group_4" data-name="Group 4" transform="translate(0 -887.455)">
      <g id="Group_3" data-name="Group 3">
        <g id="Group_2" data-name="Group 2">
          <g id="Group_1" data-name="Group 1">
            <path id="Path_1" data-name="Path 1" d="M50.319,951.7V929.884h5.233v2.4h-1.63v17.009h1.63v2.4Z"
              fill="#ea2024" />
            <path id="Path_2" data-name="Path 2"
              d="M63.145,949.06V929.884h6.773l1.219,9.5,1.255-9.5h6.772V949.06h-4.15v-14.9l-2.451,14.9h-2.8l-2.407-14.9-.045,14.9Z"
              fill="#ea2024" />
            <path id="Path_3" data-name="Path 3"
              d="M81.193,949.06V929.884h9.554v3.7H85.491v3.807H90.1v3.7H85.491v4.264h5.461v3.7Z" fill="#ea2024" />
            <path id="Path_4" data-name="Path 4"
              d="M92.868,949.06V929.884h4.7l3.454,11.3.046-11.3h4.161V949.06h-4.675l-3.476-11.855-.046,11.855Z"
              fill="#ea2024" />
            <path id="Path_5" data-name="Path 5"
              d="M107.131,943.823V929.884h4.3V943.87a4.259,4.259,0,0,0,.183,1.465q.171.48,1.061.48a1.181,1.181,0,0,0,.934-.375,2.751,2.751,0,0,0,.3-1.57V929.884h4.3v13.939a5.54,5.54,0,1,1-11.07,0Z"
              fill="#ea2024" />
            <path id="Path_6" data-name="Path 6" d="M130.889,951.7h-5.233v-2.4H127.3V932.285h-1.643v-2.4h5.233Z"
              fill="#ea2024" />
            <path id="Path_7" data-name="Path 7"
              d="M144.844,949.036h-2.69V937.381a6.11,6.11,0,0,1,1.761-4.622,7.082,7.082,0,0,1,5.1-1.692,8.252,8.252,0,0,1,2.8.445,6.014,6.014,0,0,1,2.1,1.259,5.237,5.237,0,0,1,1.31,1.98,7.32,7.32,0,0,1,.445,2.63v11.655h-2.691V936.631a5.031,5.031,0,0,0-.358-2.015,3.368,3.368,0,0,0-.947-1.294,3.5,3.5,0,0,0-1.323-.668,5.023,5.023,0,0,0-1.453-.169,4.73,4.73,0,0,0-1.454.181,3.543,3.543,0,0,0-1.305.685,3.47,3.47,0,0,0-.94,1.283,4.882,4.882,0,0,0-.36,2Z"
              fill="#606060" />
            <path id="Path_8" data-name="Path 8"
              d="M171.91,953.862h-2.679q0-.152.012-.369t.011-.814v-4.767a5.817,5.817,0,0,1-3.74,1.265,7.985,7.985,0,0,1-3.243-.633,7.015,7.015,0,0,1-2.474-1.8,8.085,8.085,0,0,1-1.59-2.823,11.588,11.588,0,0,1-.559-3.719,11.2,11.2,0,0,1,.593-3.731,8.484,8.484,0,0,1,1.67-2.9,7.678,7.678,0,0,1,2.537-1.88,7.55,7.55,0,0,1,3.2-.674,11.524,11.524,0,0,1,1.42.094c.505.062,1,.143,1.481.24s.947.2,1.392.316.83.209,1.157.287c.106,0,.156.2.148.6s0,.911.034,1.535q-.558-.234-1-.474a9.247,9.247,0,0,0-.992-.457,7.226,7.226,0,0,0-1.317-.363,13.756,13.756,0,0,0-1.966-.194,4.523,4.523,0,0,0-3.854,1.957,9.311,9.311,0,0,0-1.425,5.552,11.306,11.306,0,0,0,.376,3.052,7.3,7.3,0,0,0,1.043,2.278,4.561,4.561,0,0,0,1.608,1.429,4.493,4.493,0,0,0,2.115.492,8.28,8.28,0,0,0,1.8-.181,5.137,5.137,0,0,0,1.59-.662v-6.549h2.656Z"
              fill="#606060" />
            <path id="Path_9" data-name="Path 9"
              d="M176.266,949.06h-2.758c.014-.125.026-.449.034-.972s.01-1.254.01-2.191v-8.516a6.107,6.107,0,0,1,1.762-4.622,7.08,7.08,0,0,1,5.1-1.692,8.29,8.29,0,0,1,2.8.445,5.915,5.915,0,0,1,2.1,1.259,5.275,5.275,0,0,1,1.306,1.98,7.342,7.342,0,0,1,.444,2.63l.023,11.679h-2.736c.015-.125.023-.429.023-.914v-7.075h-8.141Zm-.023-9.091h8.141v-3.338a5.012,5.012,0,0,0-.36-2.015,3.356,3.356,0,0,0-.946-1.294,3.5,3.5,0,0,0-1.322-.668,5.034,5.034,0,0,0-1.454-.169,4.673,4.673,0,0,0-1.448.181,3.6,3.6,0,0,0-1.305.685,3.441,3.441,0,0,0-.947,1.283,4.9,4.9,0,0,0-.359,2Z"
              fill="#606060" />
            <path id="Path_10" data-name="Path 10"
              d="M191.771,949.036h-2.69V937.381a6.11,6.11,0,0,1,1.761-4.622,7.08,7.08,0,0,1,5.1-1.692,8.252,8.252,0,0,1,2.8.445,6.009,6.009,0,0,1,2.1,1.259,5.227,5.227,0,0,1,1.311,1.98,7.32,7.32,0,0,1,.445,2.63v11.655h-2.691V936.631a5.013,5.013,0,0,0-.359-2.015,3.356,3.356,0,0,0-.946-1.294,3.5,3.5,0,0,0-1.323-.668,5.027,5.027,0,0,0-1.453-.169,4.726,4.726,0,0,0-1.454.181,3.535,3.535,0,0,0-1.305.685,3.459,3.459,0,0,0-.94,1.283,4.866,4.866,0,0,0-.36,2Z"
              fill="#606060" />
            <path id="Path_11" data-name="Path 11"
              d="M227.8,947.595a7.393,7.393,0,0,1-1.272.6q-.714.264-1.448.456a13.359,13.359,0,0,1-1.447.3,8.712,8.712,0,0,1-1.272.106,11.751,11.751,0,0,1-3.739-.586,8.73,8.73,0,0,1-3.062-1.739,8.223,8.223,0,0,1-2.063-2.847,10.263,10.263,0,0,1-.023-7.685,8.367,8.367,0,0,1,4.891-4.621,10.154,10.154,0,0,1,3.528-.609,17.348,17.348,0,0,1,3.108.3,20.626,20.626,0,0,1,3.243.873q-.069.363-.154.96t-.154,1.054q-.535-.234-1.049-.521a8.8,8.8,0,0,0-1.18-.539,11,11,0,0,0-1.573-.445,14.5,14.5,0,0,0-2.195-.263,6.236,6.236,0,0,0-2.639.538,5.634,5.634,0,0,0-1.972,1.488,6.71,6.71,0,0,0-1.237,2.255,8.864,8.864,0,0,0-.434,2.817,9.266,9.266,0,0,0,.524,3.186,7.155,7.155,0,0,0,1.505,2.484,6.811,6.811,0,0,0,2.372,1.622,7.944,7.944,0,0,0,3.089.58,7.516,7.516,0,0,0,2.446-.41,9.386,9.386,0,0,0,2.32-1.183Z"
              fill="#606060" />
            <path id="Path_12" data-name="Path 12"
              d="M243.509,942.746a7.345,7.345,0,0,1-.445,2.63,5.227,5.227,0,0,1-1.311,1.979,5.975,5.975,0,0,1-2.1,1.259,8.223,8.223,0,0,1-2.8.446,7.076,7.076,0,0,1-5.1-1.693,6.106,6.106,0,0,1-1.762-4.621v-5.388a6.107,6.107,0,0,1,1.762-4.622,7.079,7.079,0,0,1,5.1-1.692,8.25,8.25,0,0,1,2.8.444,5.992,5.992,0,0,1,2.1,1.26,5.231,5.231,0,0,1,1.311,1.98,7.341,7.341,0,0,1,.445,2.63Zm-10.472,2.747a3.47,3.47,0,0,0,.94,1.283,3.555,3.555,0,0,0,1.306.685,4.751,4.751,0,0,0,1.453.181,5.026,5.026,0,0,0,1.454-.17,3.494,3.494,0,0,0,1.322-.667,3.361,3.361,0,0,0,.947-1.295,5.022,5.022,0,0,0,.359-2.014v-6.888a5.024,5.024,0,0,0-.359-2.015,3.35,3.35,0,0,0-.947-1.294,3.468,3.468,0,0,0-1.322-.668,5.028,5.028,0,0,0-1.454-.17,4.749,4.749,0,0,0-1.453.181,3.6,3.6,0,0,0-1.306.68,3.4,3.4,0,0,0-.94,1.283,4.935,4.935,0,0,0-.36,2V943.5A4.9,4.9,0,0,0,233.037,945.493Zm7.04-15.574-3.227-2.062-3.249,2.015-.16-.41,3.363-4.346,3.433,4.393Z"
              fill="#606060" />
            <path id="Path_13" data-name="Path 13"
              d="M254.864,939.173v-8.106h4.777a10.131,10.131,0,0,1,3.649.609,7.222,7.222,0,0,1,2.674,1.751,7.6,7.6,0,0,1,1.658,2.776,11.109,11.109,0,0,1,.57,3.673,11.6,11.6,0,0,1-.558,3.643,9.53,9.53,0,0,1-1.529,2.934,7.356,7.356,0,0,1-2.257,1.945,5.28,5.28,0,0,1-2.758.662h-6.226v-8.083h-1.756v-1.8Zm3.347-6.414a.679.679,0,0,0-.406.252,5.445,5.445,0,0,0-.261,1.968v4.194h1.4v1.8h-1.4v3.163q0,1.395.056,2.208a1.862,1.862,0,0,0,.434,1.2,9.53,9.53,0,0,0,3.038.123,5.129,5.129,0,0,0,2.053-.732,3.981,3.981,0,0,0,1.282-1.359,7,7,0,0,0,.7-1.74,9.428,9.428,0,0,0,.279-1.868q.047-.949.046-1.793a8.342,8.342,0,0,0-1.642-5.564,6.051,6.051,0,0,0-4.868-1.921A3.216,3.216,0,0,0,258.211,932.759Z"
              fill="#606060" />
            <path id="Path_14" data-name="Path 14"
              d="M281.246,932.2a5.9,5.9,0,0,1,.684.539,5.213,5.213,0,0,1,1.3,1.986,7.408,7.408,0,0,1,.44,2.63v5.388a7.412,7.412,0,0,1-.44,2.63,5.156,5.156,0,0,1-1.3,1.979,5.979,5.979,0,0,1-2.1,1.259,8.227,8.227,0,0,1-2.8.446,7.079,7.079,0,0,1-5.1-1.693,6.113,6.113,0,0,1-1.76-4.621v-5.388a6.113,6.113,0,0,1,1.76-4.622,7.083,7.083,0,0,1,5.1-1.692,8.306,8.306,0,0,1,2.8.444,6.45,6.45,0,0,1,1.093.516c.084-.055.167-.113.251-.176a3.018,3.018,0,0,0,.537-.486.975.975,0,0,0,.261-.568,1.618,1.618,0,0,1-.609-.252,1.4,1.4,0,0,1-.365-.375,1.085,1.085,0,0,1-.165-.415.872.872,0,0,1,.022-.4,1.5,1.5,0,0,1,.5-.814.958.958,0,0,1,.878-.135,1.21,1.21,0,0,1,.524.282,1.358,1.358,0,0,1,.3.415,1.2,1.2,0,0,1,.108.469,1.356,1.356,0,0,1-.051.428,3.488,3.488,0,0,1-.285.761,2.79,2.79,0,0,1-.519.685,4.569,4.569,0,0,1-.861.65C281.383,932.121,281.314,932.164,281.246,932.2Zm-8.037,13.29a3.515,3.515,0,0,0,.946,1.283,3.551,3.551,0,0,0,1.3.685,4.758,4.758,0,0,0,1.454.181,5.027,5.027,0,0,0,1.453-.17,3.3,3.3,0,0,0,2.264-1.962,4.951,4.951,0,0,0,.364-2.014v-6.888a4.952,4.952,0,0,0-.364-2.015,3.31,3.31,0,0,0-2.264-1.962,5.029,5.029,0,0,0-1.453-.17,4.756,4.756,0,0,0-1.454.181,3.6,3.6,0,0,0-1.3.68,3.441,3.441,0,0,0-.946,1.283,4.847,4.847,0,0,0-.366,2V943.5A4.811,4.811,0,0,0,273.209,945.493Z"
              fill="#606060" />
            <path id="Path_15" data-name="Path 15"
              d="M288.348,949.036h-2.69V937.381a6.11,6.11,0,0,1,1.761-4.622,7.08,7.08,0,0,1,5.1-1.692,8.252,8.252,0,0,1,2.8.445,6.023,6.023,0,0,1,2.1,1.259,5.237,5.237,0,0,1,1.31,1.98,7.32,7.32,0,0,1,.445,2.63v11.655h-2.691V936.631a5.032,5.032,0,0,0-.358-2.015,3.367,3.367,0,0,0-.947-1.294,3.5,3.5,0,0,0-1.323-.668,5.027,5.027,0,0,0-1.453-.169,4.73,4.73,0,0,0-1.454.181,3.535,3.535,0,0,0-1.3.685,3.459,3.459,0,0,0-.94,1.283,4.866,4.866,0,0,0-.36,2Z"
              fill="#606060" />
          </g>
        </g>
      </g>
    </g>
    <rect id="Rectangle_41" data-name="Rectangle 41" width="286.928" height="0.577"
      transform="translate(308.347 52.379)" fill="#ea2024" />
  </g>
</svg>
