<svg xmlns="http://www.w3.org/2000/svg" xmlns:xlink="http://www.w3.org/1999/xlink" width="262" height="16" viewBox="0 0 262 16">
  <defs>
    <clipPath id="clip-Web_1920_1">
      <rect width="262" height="16"/>
    </clipPath>
  </defs>
  <g id="Web_1920_1" data-name="Web 1920 – 1" clip-path="url(#clip-Web_1920_1)">
    <g id="Group_344" data-name="Group 344" transform="translate(-63.138 -1065.678)">
      <g id="Group_343" data-name="Group 343">
        <g id="Group_342" data-name="Group 342">
          <g id="Group_341" data-name="Group 341">
            <path id="Path_3651" data-name="Path 3651" d="M63.138,1080.153v-10.4h2.5v1.145h-.778v8.108h.778v1.146Z" fill="#df071b"/>
            <path id="Path_3652" data-name="Path 3652" d="M69.252,1078.9v-9.142h3.229l.581,4.53.6-4.53h3.228v9.142H74.911v-7.1l-1.169,7.1H72.4l-1.147-7.1-.022,7.1Z" fill="#df071b"/>
            <path id="Path_3653" data-name="Path 3653" d="M77.856,1078.9v-9.142h4.555v1.765H79.9v1.815h2.2v1.765H79.9v2.032h2.6v1.765Z" fill="#df071b"/>
            <path id="Path_3654" data-name="Path 3654" d="M83.422,1078.9v-9.142h2.239l1.647,5.389.022-5.389h1.983v9.142H87.085l-1.658-5.652-.021,5.652Z" fill="#df071b"/>
            <path id="Path_3655" data-name="Path 3655" d="M90.221,1076.4v-6.646H92.27v6.668a2.029,2.029,0,0,0,.087.7c.055.153.223.229.506.229a.562.562,0,0,0,.445-.179,1.308,1.308,0,0,0,.142-.748v-6.668H95.5v6.646a2.641,2.641,0,1,1-5.278,0Z" fill="#df071b"/>
            <path id="Path_3656" data-name="Path 3656" d="M101.547,1080.153H99.053v-1.146h.782V1070.9h-.782v-1.145h2.494Z" fill="#df071b"/>
            <path id="Path_3657" data-name="Path 3657" d="M108.2,1078.885h-1.283v-5.557a2.912,2.912,0,0,1,.84-2.2,3.374,3.374,0,0,1,2.432-.806,3.907,3.907,0,0,1,1.334.212,2.841,2.841,0,0,1,1,.6,2.483,2.483,0,0,1,.625.944,3.5,3.5,0,0,1,.212,1.253v5.557h-1.282v-5.914a2.4,2.4,0,0,0-.172-.961,1.593,1.593,0,0,0-.451-.617,1.67,1.67,0,0,0-.63-.318,2.444,2.444,0,0,0-.693-.081,2.314,2.314,0,0,0-.693.086,1.68,1.68,0,0,0-.622.328,1.642,1.642,0,0,0-.449.611,2.332,2.332,0,0,0-.171.952Z" fill="#4d4e4e"/>
            <path id="Path_3658" data-name="Path 3658" d="M121.1,1081.186h-1.277c0-.049,0-.108.005-.177s0-.2,0-.388v-2.272a2.776,2.776,0,0,1-1.782.6,3.817,3.817,0,0,1-1.547-.3,3.351,3.351,0,0,1-1.179-.857,3.877,3.877,0,0,1-.758-1.345,5.532,5.532,0,0,1-.266-1.774,5.36,5.36,0,0,1,.282-1.778,4.074,4.074,0,0,1,.8-1.383,3.659,3.659,0,0,1,1.21-.895,3.583,3.583,0,0,1,1.527-.322,5.491,5.491,0,0,1,.676.045c.242.029.477.068.707.114s.451.1.663.151.4.1.552.137c.051,0,.074.094.071.285s0,.433.016.731a5.01,5.01,0,0,1-.478-.226,4.41,4.41,0,0,0-.473-.218,3.522,3.522,0,0,0-.628-.173,6.484,6.484,0,0,0-.937-.092,2.157,2.157,0,0,0-1.838.933,4.443,4.443,0,0,0-.679,2.646,5.416,5.416,0,0,0,.179,1.455,3.492,3.492,0,0,0,.5,1.086,2.169,2.169,0,0,0,.766.682,2.146,2.146,0,0,0,1.008.234,3.919,3.919,0,0,0,.856-.087,2.437,2.437,0,0,0,.758-.315v-3.121H121.1Z" fill="#4d4e4e"/>
            <path id="Path_3659" data-name="Path 3659" d="M123.179,1078.9h-1.315c.007-.06.012-.214.016-.464s.005-.6.005-1.044v-4.06a2.912,2.912,0,0,1,.84-2.2,3.375,3.375,0,0,1,2.432-.806,3.933,3.933,0,0,1,1.337.212,2.806,2.806,0,0,1,1,.6,2.511,2.511,0,0,1,.622.944,3.477,3.477,0,0,1,.213,1.253l.01,5.568h-1.3c.007-.06.011-.2.011-.436v-3.373h-3.881Zm-.011-4.333h3.881v-1.592a2.38,2.38,0,0,0-.172-.961,1.593,1.593,0,0,0-.451-.617,1.663,1.663,0,0,0-.63-.318,2.444,2.444,0,0,0-.693-.081,2.287,2.287,0,0,0-.69.086,1.712,1.712,0,0,0-.622.328,1.616,1.616,0,0,0-.452.611,2.332,2.332,0,0,0-.171.952Z" fill="#4d4e4e"/>
            <path id="Path_3660" data-name="Path 3660" d="M130.571,1078.885h-1.283v-5.557a2.915,2.915,0,0,1,.839-2.2,3.376,3.376,0,0,1,2.433-.806,3.911,3.911,0,0,1,1.334.212,2.841,2.841,0,0,1,1,.6,2.506,2.506,0,0,1,.625.944,3.5,3.5,0,0,1,.212,1.253v5.557h-1.283v-5.914a2.4,2.4,0,0,0-.171-.961,1.592,1.592,0,0,0-.451-.617,1.675,1.675,0,0,0-.631-.318,2.436,2.436,0,0,0-.693-.081,2.315,2.315,0,0,0-.693.086,1.688,1.688,0,0,0-.622.328,1.64,1.64,0,0,0-.448.611,2.316,2.316,0,0,0-.171.952Z" fill="#4d4e4e"/>
            <path id="Path_3661" data-name="Path 3661" d="M141.071,1074.183v-3.864h2.278a4.822,4.822,0,0,1,1.739.29,3.418,3.418,0,0,1,1.274.835,3.6,3.6,0,0,1,.791,1.323,5.293,5.293,0,0,1,.272,1.751,5.533,5.533,0,0,1-.266,1.736,4.564,4.564,0,0,1-.729,1.4,3.513,3.513,0,0,1-1.076.926,2.517,2.517,0,0,1-1.315.316h-2.968v-3.854h-.837v-.859Zm1.6-3.058a.323.323,0,0,0-.192.12,2.574,2.574,0,0,0-.125.939v2h.668v.859h-.668v1.508c0,.444.008.794.026,1.053a.887.887,0,0,0,.207.572,4.523,4.523,0,0,0,1.449.059,2.451,2.451,0,0,0,.978-.349,1.888,1.888,0,0,0,.611-.647,3.327,3.327,0,0,0,.335-.83,4.532,4.532,0,0,0,.133-.891q.021-.452.021-.854a3.976,3.976,0,0,0-.782-2.653,2.887,2.887,0,0,0-2.321-.916A1.536,1.536,0,0,0,142.666,1071.125Z" fill="#4d4e4e"/>
            <path id="Path_3662" data-name="Path 3662" d="M154.936,1075.886a3.509,3.509,0,0,1-.212,1.254,2.5,2.5,0,0,1-.625.943,2.858,2.858,0,0,1-1,.6,3.908,3.908,0,0,1-1.334.212,3.374,3.374,0,0,1-2.432-.807,2.911,2.911,0,0,1-.84-2.2v-2.569a2.907,2.907,0,0,1,.84-2.2,3.374,3.374,0,0,1,2.432-.808,3.935,3.935,0,0,1,1.334.212,2.856,2.856,0,0,1,1,.6,2.51,2.51,0,0,1,.625.945,3.5,3.5,0,0,1,.212,1.253Zm-4.992,1.31a1.63,1.63,0,0,0,.449.611,1.676,1.676,0,0,0,.622.326,2.219,2.219,0,0,0,.692.087,2.36,2.36,0,0,0,.693-.081,1.673,1.673,0,0,0,.631-.318,1.6,1.6,0,0,0,.451-.618,2.385,2.385,0,0,0,.171-.959v-3.285a2.4,2.4,0,0,0-.171-.96,1.6,1.6,0,0,0-.451-.617,1.675,1.675,0,0,0-.631-.318,2.393,2.393,0,0,0-.693-.081,2.248,2.248,0,0,0-.692.087,1.7,1.7,0,0,0-.622.323,1.611,1.611,0,0,0-.449.612,2.352,2.352,0,0,0-.171.954v3.285A2.336,2.336,0,0,0,149.944,1077.2Zm3.356-7.425-1.538-.983-1.549.96-.076-.2,1.6-2.071,1.636,2.094Zm-.3-2.48-.164.353q-2.582-.89-2.608-.95a4.817,4.817,0,0,1,.581-1.016Z" fill="#4d4e4e"/>
            <path id="Path_3663" data-name="Path 3663" d="M157.235,1078.885h-1.282v-5.557a2.911,2.911,0,0,1,.839-2.2,3.376,3.376,0,0,1,2.433-.806,3.911,3.911,0,0,1,1.334.212,2.85,2.85,0,0,1,1,.6,2.506,2.506,0,0,1,.625.944,3.5,3.5,0,0,1,.211,1.253v5.557h-1.282v-5.914a2.38,2.38,0,0,0-.172-.961,1.591,1.591,0,0,0-.45-.617,1.675,1.675,0,0,0-.631-.318,2.444,2.444,0,0,0-.693-.081,2.314,2.314,0,0,0-.693.086,1.688,1.688,0,0,0-.622.328,1.642,1.642,0,0,0-.449.611,2.332,2.332,0,0,0-.171.952Z" fill="#4d4e4e"/>
            <path id="Path_3664" data-name="Path 3664" d="M170.138,1081.186h-1.277c0-.049,0-.108.005-.177s.006-.2.006-.388v-2.272a2.778,2.778,0,0,1-1.783.6,3.817,3.817,0,0,1-1.547-.3,3.351,3.351,0,0,1-1.179-.857,3.878,3.878,0,0,1-.758-1.345,5.532,5.532,0,0,1-.266-1.774,5.36,5.36,0,0,1,.282-1.778,4.09,4.09,0,0,1,.8-1.383,3.659,3.659,0,0,1,1.21-.895,3.586,3.586,0,0,1,1.527-.322,5.52,5.52,0,0,1,.677.045c.241.029.476.068.706.114s.451.1.663.151.4.1.552.137c.051,0,.074.094.071.285s0,.433.016.731a5.129,5.129,0,0,1-.478-.226,4.411,4.411,0,0,0-.473-.218,3.521,3.521,0,0,0-.628-.173,6.469,6.469,0,0,0-.937-.092,2.157,2.157,0,0,0-1.838.933,4.443,4.443,0,0,0-.679,2.646,5.416,5.416,0,0,0,.179,1.455,3.492,3.492,0,0,0,.5,1.086,2.169,2.169,0,0,0,.766.682,2.146,2.146,0,0,0,1.008.234,3.919,3.919,0,0,0,.856-.087,2.442,2.442,0,0,0,.759-.315v-3.121h1.266Z" fill="#4d4e4e"/>
            <path id="Path_3665" data-name="Path 3665" d="M175.492,1074.183v-3.864h2.277a4.818,4.818,0,0,1,1.739.29,3.414,3.414,0,0,1,1.275.835,3.616,3.616,0,0,1,.79,1.323,5.293,5.293,0,0,1,.272,1.751,5.533,5.533,0,0,1-.266,1.736,4.563,4.563,0,0,1-.728,1.4,3.528,3.528,0,0,1-1.077.926,2.512,2.512,0,0,1-1.315.316h-2.967v-3.854h-.837v-.859Zm1.6-3.058a.323.323,0,0,0-.193.12,2.6,2.6,0,0,0-.125.939v2h.668v.859h-.668v1.508c0,.444.009.794.027,1.053a.886.886,0,0,0,.206.572,4.524,4.524,0,0,0,1.449.059,2.451,2.451,0,0,0,.978-.349,1.9,1.9,0,0,0,.612-.647,3.325,3.325,0,0,0,.334-.83,4.458,4.458,0,0,0,.133-.891c.014-.3.022-.586.022-.854a3.976,3.976,0,0,0-.783-2.653,2.884,2.884,0,0,0-2.321-.916A1.526,1.526,0,0,0,177.087,1071.125Z" fill="#4d4e4e"/>
            <path id="Path_3666" data-name="Path 3666" d="M189.231,1075.886a3.509,3.509,0,0,1-.211,1.254,2.514,2.514,0,0,1-.625.943,2.844,2.844,0,0,1-1,.6,3.9,3.9,0,0,1-1.334.212,3.376,3.376,0,0,1-2.432-.807,2.91,2.91,0,0,1-.839-2.2v-2.569a2.906,2.906,0,0,1,.839-2.2,3.376,3.376,0,0,1,2.432-.808,3.931,3.931,0,0,1,1.334.212,2.842,2.842,0,0,1,1,.6,2.522,2.522,0,0,1,.625.945,3.5,3.5,0,0,1,.211,1.253Zm-4.992,1.31a1.64,1.64,0,0,0,.449.611,1.68,1.68,0,0,0,.623.326,2.213,2.213,0,0,0,.691.087,2.374,2.374,0,0,0,.694-.081,1.68,1.68,0,0,0,.631-.318,1.627,1.627,0,0,0,.451-.618,2.4,2.4,0,0,0,.172-.959v-3.285a2.413,2.413,0,0,0-.172-.96,1.631,1.631,0,0,0-.451-.617,1.682,1.682,0,0,0-.631-.318,2.408,2.408,0,0,0-.694-.081,2.242,2.242,0,0,0-.691.087,1.7,1.7,0,0,0-.623.323,1.621,1.621,0,0,0-.449.612,2.353,2.353,0,0,0-.17.954v3.285A2.337,2.337,0,0,0,184.239,1077.2Zm3.312-7.425-1.537-.983-1.549.96-.076-.2,1.6-2.071,1.634,2.094Zm-2.031,10.083a.649.649,0,0,1,.473-.2.7.7,0,0,1,.5.2.665.665,0,0,1,.211.494.685.685,0,0,1-.205.508.7.7,0,0,1-.506.2.651.651,0,0,1-.479-.2.685.685,0,0,1-.2-.508A.665.665,0,0,1,185.52,1079.854Z" fill="#4d4e4e"/>
            <path id="Path_3667" data-name="Path 3667" d="M191.455,1078.907h-1.284v-8.588h1.284Z" fill="#4d4e4e"/>
          </g>
        </g>
      </g>
    </g>
    <rect id="Rectangle_108" data-name="Rectangle 108" width="128.978" height="0.275" transform="translate(132.352 8.822)" fill="#df071b"/>
  </g>
</svg>
