<svg xmlns="http://www.w3.org/2000/svg" xmlns:xlink="http://www.w3.org/1999/xlink" width="547" height="35" viewBox="0 0 547 35">
  <defs>
    <clipPath id="clip-Web_1920_1">
      <rect width="547" height="35"/>
    </clipPath>
  </defs>
  <g id="Web_1920_1" data-name="Web 1920 – 1" clip-path="url(#clip-Web_1920_1)">
    <g id="Group_470" data-name="Group 470" transform="translate(-713.189 -75.123)">
      <g id="Group_469" data-name="Group 469">
        <g id="Group_468" data-name="Group 468">
          <g id="Group_467" data-name="Group 467">
            <path id="Path_4468" data-name="Path 4468" d="M713.189,105.568V83.756h5.233v2.4h-1.631v17.009h1.631v2.4Z" fill="#e72024"/>
            <path id="Path_4469" data-name="Path 4469" d="M726.015,102.932V83.756h6.773l1.219,9.5,1.255-9.5h6.772v19.176h-4.15v-14.9l-2.451,14.9h-2.8l-2.406-14.9-.045,14.9Z" fill="#e72024"/>
            <path id="Path_4470" data-name="Path 4470" d="M744.064,102.932V83.756h9.554v3.7h-5.256v3.807h4.606v3.7h-4.606v4.265h5.461v3.7Z" fill="#e72024"/>
            <path id="Path_4471" data-name="Path 4471" d="M755.739,102.932V83.756h4.7l3.454,11.3.046-11.3H768.1v19.176h-4.675l-3.476-11.854-.046,11.854Z" fill="#e72024"/>
            <path id="Path_4472" data-name="Path 4472" d="M770,97.7V83.756h4.3V97.743a4.252,4.252,0,0,0,.183,1.464q.171.48,1.06.481a1.181,1.181,0,0,0,.935-.375,2.755,2.755,0,0,0,.3-1.57V83.756h4.3V97.7A5.541,5.541,0,1,1,770,97.7Z" fill="#e72024"/>
            <path id="Path_4473" data-name="Path 4473" d="M793.761,105.568h-5.233v-2.4h1.642V86.158h-1.642v-2.4h5.233Z" fill="#e72024"/>
            <path id="Path_4474" data-name="Path 4474" d="M820.084,101.468a7.351,7.351,0,0,1-1.271.6q-.714.264-1.448.457a13.61,13.61,0,0,1-1.448.3,8.822,8.822,0,0,1-1.271.1,11.724,11.724,0,0,1-3.739-.586,8.732,8.732,0,0,1-3.062-1.739,8.223,8.223,0,0,1-2.063-2.847,10.261,10.261,0,0,1-.023-7.684,8.366,8.366,0,0,1,4.891-4.621,10.152,10.152,0,0,1,3.528-.609,17.341,17.341,0,0,1,3.108.3,20.682,20.682,0,0,1,3.243.873c-.046.242-.1.562-.155.961s-.108.749-.153,1.054q-.535-.234-1.049-.521a8.67,8.67,0,0,0-1.18-.539,10.963,10.963,0,0,0-1.574-.446,14.615,14.615,0,0,0-2.194-.263,6.244,6.244,0,0,0-2.64.539,5.628,5.628,0,0,0-1.971,1.488,6.712,6.712,0,0,0-1.238,2.255,8.892,8.892,0,0,0-.433,2.817,9.271,9.271,0,0,0,.524,3.186,7.15,7.15,0,0,0,1.505,2.483,6.8,6.8,0,0,0,2.372,1.623,7.945,7.945,0,0,0,3.089.58,7.542,7.542,0,0,0,2.446-.41,9.421,9.421,0,0,0,2.32-1.183Z" fill="#606060"/>
            <path id="Path_4475" data-name="Path 4475" d="M833.092,86.076a6,6,0,0,1,.685.538,5.23,5.23,0,0,1,1.3,1.986,7.412,7.412,0,0,1,.44,2.63v5.388a7.408,7.408,0,0,1-.44,2.63,5.177,5.177,0,0,1-1.3,1.98,5.983,5.983,0,0,1-2.1,1.259,8.228,8.228,0,0,1-2.8.445,7.078,7.078,0,0,1-5.1-1.693,6.107,6.107,0,0,1-1.761-4.621V91.23a6.107,6.107,0,0,1,1.761-4.621,7.078,7.078,0,0,1,5.1-1.693,8.3,8.3,0,0,1,2.8.445,6.379,6.379,0,0,1,1.094.516c.084-.055.167-.114.251-.176a3.056,3.056,0,0,0,.536-.487.98.98,0,0,0,.262-.567,1.631,1.631,0,0,1-.61-.252,1.435,1.435,0,0,1-.365-.375,1.106,1.106,0,0,1-.165-.416.868.868,0,0,1,.023-.4,1.491,1.491,0,0,1,.5-.814.953.953,0,0,1,.878-.135,1.208,1.208,0,0,1,.525.281,1.367,1.367,0,0,1,.3.416,1.21,1.21,0,0,1,.107.468,1.351,1.351,0,0,1-.051.428,3.469,3.469,0,0,1-.285.761,2.792,2.792,0,0,1-.518.685,4.578,4.578,0,0,1-.862.651C833.229,85.994,833.161,86.037,833.092,86.076Zm-8.037,13.289a3.422,3.422,0,0,0,2.251,1.968,4.762,4.762,0,0,0,1.454.182,5.058,5.058,0,0,0,1.453-.17,3.3,3.3,0,0,0,2.264-1.962,4.952,4.952,0,0,0,.364-2.015V90.48a4.959,4.959,0,0,0-.364-2.015,3.3,3.3,0,0,0-2.264-1.962,5.057,5.057,0,0,0-1.453-.169,4.76,4.76,0,0,0-1.454.181,3.59,3.59,0,0,0-1.305.679,3.46,3.46,0,0,0-.946,1.283,4.855,4.855,0,0,0-.365,2v6.888A4.806,4.806,0,0,0,825.055,99.365Z" fill="#606060"/>
            <path id="Path_4476" data-name="Path 4476" d="M847.332,99.266h-2.678V86.4a8.723,8.723,0,0,0-1.557.44,6.1,6.1,0,0,0-1.436.779,3.868,3.868,0,0,0-1.061,1.166,3.136,3.136,0,0,0-.4,1.622v12.522h-2.691V91.148a4.689,4.689,0,0,1,.57-2.285,6.208,6.208,0,0,1,1.539-1.833,8.585,8.585,0,0,1,2.258-1.306,12.5,12.5,0,0,1,2.678-.738,2.622,2.622,0,0,1-.011-.468c.007-.25.021-.513.041-.791s.028-.537.028-.779a2.086,2.086,0,0,0-.024-.433h2.839a2.338,2.338,0,0,0-.022.433q0,.339.012.744c.006.269.01.525.01.767v.434a10.585,10.585,0,0,1,2.726.632,8.3,8.3,0,0,1,2.3,1.306,6.287,6.287,0,0,1,1.595,1.91,4.967,4.967,0,0,1,.593,2.407v11.808h-2.679V90.41a3.229,3.229,0,0,0-.444-1.728,4.222,4.222,0,0,0-1.123-1.212A5.56,5.56,0,0,0,848.9,86.7a7.988,7.988,0,0,0-1.568-.368Z" fill="#606060"/>
            <path id="Path_4477" data-name="Path 4477" d="M867.478,102.909h-2.69V91.254a6.11,6.11,0,0,1,1.76-4.622,7.083,7.083,0,0,1,5.1-1.692,8.257,8.257,0,0,1,2.8.444,6,6,0,0,1,2.1,1.26,5.231,5.231,0,0,1,1.311,1.98,7.315,7.315,0,0,1,.445,2.63v11.655h-2.691V90.5a5.024,5.024,0,0,0-.359-2.015,3.359,3.359,0,0,0-.946-1.295,3.508,3.508,0,0,0-1.323-.668,5.065,5.065,0,0,0-1.453-.169,4.767,4.767,0,0,0-1.455.181,3.533,3.533,0,0,0-1.3.686,3.461,3.461,0,0,0-.941,1.282,4.885,4.885,0,0,0-.359,2Z" fill="#606060"/>
            <path id="Path_4478" data-name="Path 4478" d="M894.543,107.735h-2.678c0-.1,0-.225.011-.369s.011-.416.011-.814v-4.768a5.809,5.809,0,0,1-3.739,1.265,8,8,0,0,1-3.243-.632,7.052,7.052,0,0,1-2.475-1.8,8.109,8.109,0,0,1-1.59-2.823,11.589,11.589,0,0,1-.558-3.72,11.23,11.23,0,0,1,.592-3.731,8.534,8.534,0,0,1,1.67-2.9,7.686,7.686,0,0,1,2.537-1.88,7.554,7.554,0,0,1,3.2-.673,11.725,11.725,0,0,1,1.42.093c.5.063,1,.143,1.481.24s.946.2,1.392.317.83.209,1.157.287c.105,0,.155.2.147.6s0,.91.034,1.535c-.372-.157-.706-.314-1-.475a9.376,9.376,0,0,0-.993-.457,7.377,7.377,0,0,0-1.316-.363,13.643,13.643,0,0,0-1.967-.193,4.521,4.521,0,0,0-3.853,1.956,9.307,9.307,0,0,0-1.425,5.553,11.3,11.3,0,0,0,.376,3.051,7.3,7.3,0,0,0,1.043,2.279,4.55,4.55,0,0,0,1.607,1.429,4.493,4.493,0,0,0,2.115.492,8.274,8.274,0,0,0,1.8-.182,5.1,5.1,0,0,0,1.59-.662V93.842h2.656Z" fill="#606060"/>
            <path id="Path_4479" data-name="Path 4479" d="M907.381,84.963h2.692V96.618a6.107,6.107,0,0,1-1.762,4.621,7.078,7.078,0,0,1-5.1,1.693,8.243,8.243,0,0,1-2.822-.445,5.922,5.922,0,0,1-2.086-1.259A5.249,5.249,0,0,1,897,99.248a7.319,7.319,0,0,1-.445-2.63V84.963h2.691v12.4a5.007,5.007,0,0,0,.359,2.015,3.378,3.378,0,0,0,.94,1.294,3.44,3.44,0,0,0,1.317.668,5.108,5.108,0,0,0,1.465.17,4.709,4.709,0,0,0,1.442-.182,3.6,3.6,0,0,0,1.312-.685,3.442,3.442,0,0,0,.946-1.283,4.893,4.893,0,0,0,.358-2Zm-2.188-1.675a3.584,3.584,0,0,1-1.71-.633,8.145,8.145,0,0,0-.958-.474,2.011,2.011,0,0,0-.741-.17,1.627,1.627,0,0,0-.81.252,2.27,2.27,0,0,0-.786.872.3.3,0,0,0-.1-.152.408.408,0,0,0-.1-.047l-.1-.023a.322.322,0,0,1-.137-.082q.8-2.647,2.691-2.647a2.894,2.894,0,0,1,1.562.609,7.773,7.773,0,0,0,.821.439,1.552,1.552,0,0,0,.627.158,1.5,1.5,0,0,0,.888-.322,3.887,3.887,0,0,0,.742-.686l.353.411Q906.537,83.288,905.193,83.288Z" fill="#606060"/>
            <path id="Path_4480" data-name="Path 4480" d="M928.131,86.743v16.189h-2.69V86.743h-5.929v-1.8h14.526v1.8Z" fill="#606060"/>
            <path id="Path_4481" data-name="Path 4481" d="M935.315,102.909V90.914a5.922,5.922,0,0,1,1.852-4.393,7.179,7.179,0,0,1,5.011-1.605,6.811,6.811,0,0,1,4.811,1.605,6.052,6.052,0,0,1,1.847,4.393,6.3,6.3,0,0,1-1.283,3.795,5.655,5.655,0,0,1-3.346,1.956,6.1,6.1,0,0,1,.981.68,3.4,3.4,0,0,1,.7.826,3.9,3.9,0,0,1,.433,1.089,6.133,6.133,0,0,1,.154,1.447v2.225h-2.759a2.4,2.4,0,0,0,.034-.433q.011-.363.011-.785v-1.593a6.465,6.465,0,0,0-.216-1.277,1.859,1.859,0,0,0-.479-.814,3.532,3.532,0,0,0-.855-.592q-.523-.269-1.345-.6a8.5,8.5,0,0,1-1.443-.557,5.191,5.191,0,0,1-1.419-1v7.626Zm2.69-11.234a4.365,4.365,0,0,0,.428,1.845,3.445,3.445,0,0,0,.957,1.172,3.571,3.571,0,0,0,1.272.62,4.864,4.864,0,0,0,1.4.158,5.028,5.028,0,0,0,1.453-.17,3.326,3.326,0,0,0,2.27-1.967,4.989,4.989,0,0,0,.358-2.01V90.48a5.031,5.031,0,0,0-.358-2.015,3.368,3.368,0,0,0-.947-1.294,3.5,3.5,0,0,0-1.323-.668,5.061,5.061,0,0,0-1.453-.169,4.761,4.761,0,0,0-1.454.181,3.583,3.583,0,0,0-1.3.679,3.4,3.4,0,0,0-.94,1.283,4.909,4.909,0,0,0-.36,2Z" fill="#606060"/>
            <path id="Path_4482" data-name="Path 4482" d="M953.271,102.932H950.49c.014-.125.026-.449.034-.972s.011-1.253.011-2.19V91.254a6.11,6.11,0,0,1,1.761-4.622,7.08,7.08,0,0,1,5.1-1.692,8.3,8.3,0,0,1,2.8.444,5.908,5.908,0,0,1,2.1,1.26,5.267,5.267,0,0,1,1.306,1.98,7.316,7.316,0,0,1,.444,2.63l.024,11.678h-2.737q.022-.187.023-.913V94.943h-8.141Zm-.046-9.09h8.141V90.5a4.988,4.988,0,0,0-.36-2.015,3.349,3.349,0,0,0-.946-1.295,3.5,3.5,0,0,0-1.322-.668,5.065,5.065,0,0,0-1.453-.169,4.706,4.706,0,0,0-1.449.181,3.6,3.6,0,0,0-1.3.686,3.429,3.429,0,0,0-.947,1.282,4.9,4.9,0,0,0-.359,2Zm7.229-10.05-3.215-2.062-3.249,2.015-.16-.41,3.363-4.346,3.431,4.392Z" fill="#606060"/>
            <path id="Path_4483" data-name="Path 4483" d="M968.753,102.909h-2.69V91.254a6.11,6.11,0,0,1,1.761-4.622,7.08,7.08,0,0,1,5.1-1.692,8.252,8.252,0,0,1,2.8.444,6.009,6.009,0,0,1,2.1,1.26,5.228,5.228,0,0,1,1.31,1.98,7.315,7.315,0,0,1,.445,2.63v11.655h-2.691V90.5a5.024,5.024,0,0,0-.358-2.015,3.372,3.372,0,0,0-.947-1.295,3.5,3.5,0,0,0-1.323-.668,5.061,5.061,0,0,0-1.453-.169,4.761,4.761,0,0,0-1.454.181,3.538,3.538,0,0,0-1.3.686,3.448,3.448,0,0,0-.94,1.282,4.868,4.868,0,0,0-.36,2Z" fill="#606060"/>
            <path id="Path_4484" data-name="Path 4484" d="M1004.781,101.468a7.362,7.362,0,0,1-1.272.6q-.712.264-1.448.457a13.6,13.6,0,0,1-1.447.3,8.847,8.847,0,0,1-1.272.1,11.723,11.723,0,0,1-3.739-.586,8.739,8.739,0,0,1-3.062-1.739,8.223,8.223,0,0,1-2.063-2.847,10.254,10.254,0,0,1-.022-7.684,8.361,8.361,0,0,1,4.89-4.621,10.157,10.157,0,0,1,3.528-.609,17.341,17.341,0,0,1,3.108.3,20.621,20.621,0,0,1,3.243.873q-.069.363-.154.961c-.057.4-.109.749-.154,1.054q-.535-.234-1.048-.521a8.745,8.745,0,0,0-1.181-.539,10.945,10.945,0,0,0-1.573-.446,14.628,14.628,0,0,0-2.2-.263,6.236,6.236,0,0,0-2.639.539,5.621,5.621,0,0,0-1.972,1.488,6.709,6.709,0,0,0-1.237,2.255,8.892,8.892,0,0,0-.434,2.817,9.246,9.246,0,0,0,.525,3.186,7.133,7.133,0,0,0,1.5,2.483,6.814,6.814,0,0,0,2.372,1.623,7.949,7.949,0,0,0,3.089.58,7.553,7.553,0,0,0,2.447-.41,9.432,9.432,0,0,0,2.319-1.183Z" fill="#606060"/>
            <path id="Path_4485" data-name="Path 4485" d="M1020.491,96.618a7.342,7.342,0,0,1-.445,2.63,5.239,5.239,0,0,1-1.311,1.98,5.965,5.965,0,0,1-2.1,1.259,8.224,8.224,0,0,1-2.8.445,7.075,7.075,0,0,1-5.1-1.693,6.1,6.1,0,0,1-1.762-4.621V91.23a6.1,6.1,0,0,1,1.762-4.621,7.075,7.075,0,0,1,5.1-1.693,8.248,8.248,0,0,1,2.8.445,6,6,0,0,1,2.1,1.259,5.239,5.239,0,0,1,1.311,1.98,7.346,7.346,0,0,1,.445,2.63Zm-10.472,2.747a3.463,3.463,0,0,0,.94,1.283,3.548,3.548,0,0,0,1.306.685,4.752,4.752,0,0,0,1.453.182,5.061,5.061,0,0,0,1.454-.17,3.486,3.486,0,0,0,1.323-.668,3.348,3.348,0,0,0,.946-1.294,5.024,5.024,0,0,0,.359-2.015V90.48a5.03,5.03,0,0,0-.359-2.015,3.355,3.355,0,0,0-.946-1.294,3.5,3.5,0,0,0-1.323-.668,5.06,5.06,0,0,0-1.454-.169,4.751,4.751,0,0,0-1.453.181,3.6,3.6,0,0,0-1.306.679,3.406,3.406,0,0,0-.94,1.283,4.944,4.944,0,0,0-.359,2v6.888A4.893,4.893,0,0,0,1010.019,99.365Zm7.04-15.573-3.227-2.062-3.249,2.015-.16-.41,3.364-4.346,3.432,4.392Zm.046-6.537q-.138.153-5.484,1.991l-.376-.738,4.617-3.385A13.986,13.986,0,0,1,1017.1,77.255Z" fill="#606060"/>
            <path id="Path_4486" data-name="Path 4486" d="M1037.684,101.468a7.385,7.385,0,0,1-1.271.6q-.714.264-1.449.457a13.547,13.547,0,0,1-1.447.3,8.832,8.832,0,0,1-1.271.1,11.725,11.725,0,0,1-3.74-.586,8.726,8.726,0,0,1-3.061-1.739,8.226,8.226,0,0,1-2.064-2.847,10.254,10.254,0,0,1-.022-7.684,8.361,8.361,0,0,1,4.89-4.621,10.162,10.162,0,0,1,3.529-.609,17.339,17.339,0,0,1,3.107.3,20.626,20.626,0,0,1,3.243.873c-.046.242-.1.562-.154.961s-.108.749-.153,1.054q-.537-.234-1.049-.521a8.687,8.687,0,0,0-1.181-.539,10.945,10.945,0,0,0-1.573-.446,14.629,14.629,0,0,0-2.194-.263,6.238,6.238,0,0,0-2.64.539,5.631,5.631,0,0,0-1.972,1.488,6.71,6.71,0,0,0-1.237,2.255,8.894,8.894,0,0,0-.434,2.817,9.244,9.244,0,0,0,.525,3.186,7.12,7.12,0,0,0,1.505,2.483,6.8,6.8,0,0,0,2.372,1.623,7.945,7.945,0,0,0,3.089.58,7.547,7.547,0,0,0,2.446-.41,9.415,9.415,0,0,0,2.319-1.183Z" fill="#606060"/>
          </g>
        </g>
      </g>
    </g>
    <rect id="Rectangle_131" data-name="Rectangle 131" width="211.993" height="0.577" transform="translate(332.963 18.584)" fill="#e72024"/>
  </g>
</svg>
