<svg xmlns="http://www.w3.org/2000/svg" xmlns:xlink="http://www.w3.org/1999/xlink" width="260" height="17" viewBox="0 0 260 17">
  <defs>
    <clipPath id="clip-Web_1920_1">
      <rect width="260" height="17"/>
    </clipPath>
  </defs>
  <g id="Web_1920_1" data-name="Web 1920 – 1" clip-path="url(#clip-Web_1920_1)">
    <g id="Group_405" data-name="Group 405" transform="translate(-625.903 -817.115)">
      <g id="Group_404" data-name="Group 404">
        <g id="Group_403" data-name="Group 403">
          <g id="Group_402" data-name="Group 402">
            <path id="Path_4648" data-name="Path 4648" d="M625.9,831.628v-10.4H628.4v1.144h-.777v8.109h.777v1.145Z" fill="#df071b"/>
            <path id="Path_4649" data-name="Path 4649" d="M632.017,830.371V821.23h3.229l.582,4.529.6-4.529h3.229v9.141h-1.979v-7.1l-1.169,7.1h-1.337l-1.146-7.1-.022,7.1Z" fill="#df071b"/>
            <path id="Path_4650" data-name="Path 4650" d="M640.622,830.371V821.23h4.554v1.764H642.67v1.816h2.2v1.765h-2.2v2.032h2.6v1.764Z" fill="#df071b"/>
            <path id="Path_4651" data-name="Path 4651" d="M646.187,830.371V821.23h2.239l1.647,5.389.021-5.389h1.985v9.141H649.85l-1.658-5.651-.022,5.651Z" fill="#df071b"/>
            <path id="Path_4652" data-name="Path 4652" d="M652.986,827.875V821.23h2.049V827.9a2.033,2.033,0,0,0,.087.7c.054.152.223.229.505.229a.563.563,0,0,0,.446-.179,1.31,1.31,0,0,0,.141-.748V821.23h2.049v6.645a2.641,2.641,0,1,1-5.277,0Z" fill="#df071b"/>
            <path id="Path_4653" data-name="Path 4653" d="M664.312,831.628h-2.494v-1.145h.782v-8.109h-.782V821.23h2.494Z" fill="#df071b"/>
            <path id="Path_4654" data-name="Path 4654" d="M670.188,825.659v-3.865h2.277a4.845,4.845,0,0,1,1.74.29,3.46,3.46,0,0,1,1.274.835,3.614,3.614,0,0,1,.79,1.324,5.267,5.267,0,0,1,.272,1.751,5.5,5.5,0,0,1-.266,1.736,4.526,4.526,0,0,1-.729,1.4,3.506,3.506,0,0,1-1.076.927,2.5,2.5,0,0,1-1.315.315h-2.967v-3.853h-.837v-.859Zm1.6-3.058a.316.316,0,0,0-.193.12,2.569,2.569,0,0,0-.125.939v2h.668v.859h-.668v1.508q0,.664.027,1.052a.884.884,0,0,0,.207.573,4.512,4.512,0,0,0,1.448.058,2.425,2.425,0,0,0,.978-.348,1.9,1.9,0,0,0,.612-.648,3.324,3.324,0,0,0,.334-.83,4.534,4.534,0,0,0,.134-.89c.013-.3.021-.586.021-.854a3.975,3.975,0,0,0-.783-2.653,2.882,2.882,0,0,0-2.32-.916A1.472,1.472,0,0,0,671.783,822.6Z" fill="#4d4e4e"/>
            <path id="Path_4655" data-name="Path 4655" d="M684.052,827.362a3.491,3.491,0,0,1-.212,1.254,2.487,2.487,0,0,1-.625.943,2.85,2.85,0,0,1-1,.6,3.93,3.93,0,0,1-1.334.211,3.375,3.375,0,0,1-2.432-.806,2.912,2.912,0,0,1-.839-2.2v-2.57a2.908,2.908,0,0,1,.839-2.2,3.375,3.375,0,0,1,2.432-.807,3.955,3.955,0,0,1,1.334.211,2.85,2.85,0,0,1,1,.6,2.483,2.483,0,0,1,.625.944,3.482,3.482,0,0,1,.212,1.253Zm-4.992,1.309a1.653,1.653,0,0,0,.449.612,1.7,1.7,0,0,0,.622.326,2.281,2.281,0,0,0,.693.087,2.434,2.434,0,0,0,.693-.081,1.675,1.675,0,0,0,.631-.319,1.584,1.584,0,0,0,.45-.617,2.39,2.39,0,0,0,.172-.96v-3.284a2.4,2.4,0,0,0-.172-.96,1.584,1.584,0,0,0-.45-.617,1.69,1.69,0,0,0-.631-.319,2.474,2.474,0,0,0-.693-.081,2.314,2.314,0,0,0-.693.087,1.708,1.708,0,0,0-.622.324,1.621,1.621,0,0,0-.449.612,2.352,2.352,0,0,0-.171.954v3.284A2.333,2.333,0,0,0,679.06,828.671Zm3.356-7.425-1.538-.982-1.548.96-.077-.2,1.6-2.072,1.636,2.094Zm-.3-2.479-.163.352q-2.581-.888-2.609-.95a4.852,4.852,0,0,1,.581-1.015Z" fill="#4d4e4e"/>
            <path id="Path_4656" data-name="Path 4656" d="M694.124,821.8h1.283v5.557a2.916,2.916,0,0,1-.84,2.2,3.376,3.376,0,0,1-2.433.806,3.933,3.933,0,0,1-1.344-.211,2.846,2.846,0,0,1-1-.6,2.527,2.527,0,0,1-.622-.943,3.513,3.513,0,0,1-.212-1.254V821.8h1.284v5.914a2.373,2.373,0,0,0,.171.96,1.6,1.6,0,0,0,.448.617,1.627,1.627,0,0,0,.628.319,2.451,2.451,0,0,0,.7.081,2.258,2.258,0,0,0,.687-.087,1.709,1.709,0,0,0,.625-.326,1.648,1.648,0,0,0,.452-.612,2.333,2.333,0,0,0,.171-.952Z" fill="#4d4e4e"/>
            <path id="Path_4657" data-name="Path 4657" d="M702.917,827.362a3.513,3.513,0,0,1-.211,1.254,2.509,2.509,0,0,1-.625.943,2.867,2.867,0,0,1-1,.6,3.934,3.934,0,0,1-1.334.211,3.378,3.378,0,0,1-2.433-.806,2.912,2.912,0,0,1-.839-2.2v-2.57a2.908,2.908,0,0,1,.839-2.2,3.378,3.378,0,0,1,2.433-.807,3.96,3.96,0,0,1,1.334.211,2.867,2.867,0,0,1,1,.6,2.505,2.505,0,0,1,.625.944,3.5,3.5,0,0,1,.211,1.253Zm-4.992,1.309a1.664,1.664,0,0,0,.449.612,1.693,1.693,0,0,0,.623.326,2.27,2.27,0,0,0,.692.087,2.434,2.434,0,0,0,.693-.081,1.661,1.661,0,0,0,.631-.319,1.574,1.574,0,0,0,.45-.617,2.372,2.372,0,0,0,.172-.96v-3.284a2.379,2.379,0,0,0-.172-.96,1.574,1.574,0,0,0-.45-.617,1.675,1.675,0,0,0-.631-.319,2.474,2.474,0,0,0-.693-.081,2.3,2.3,0,0,0-.692.087,1.7,1.7,0,0,0-.623.324,1.631,1.631,0,0,0-.449.612,2.352,2.352,0,0,0-.171.954v3.284A2.333,2.333,0,0,0,697.925,828.671Zm3.357-7.425-1.538-.982-1.549.96-.076-.2,1.6-2.072,1.636,2.094Zm.021-3.116q-.064.074-2.614.95l-.179-.352,2.2-1.613A6.571,6.571,0,0,1,701.3,818.13Z" fill="#4d4e4e"/>
            <path id="Path_4658" data-name="Path 4658" d="M705.217,830.361h-1.283V824.8a2.911,2.911,0,0,1,.84-2.2,3.373,3.373,0,0,1,2.433-.807,3.939,3.939,0,0,1,1.334.212,2.865,2.865,0,0,1,1,.6,2.488,2.488,0,0,1,.625.943,3.5,3.5,0,0,1,.212,1.254v5.557H709.1v-5.914a2.378,2.378,0,0,0-.171-.961,1.592,1.592,0,0,0-.451-.617,1.66,1.66,0,0,0-.631-.319,2.427,2.427,0,0,0-.692-.08,2.286,2.286,0,0,0-.694.086,1.691,1.691,0,0,0-.622.327,1.658,1.658,0,0,0-.448.611,2.338,2.338,0,0,0-.171.953Z" fill="#4d4e4e"/>
            <path id="Path_4659" data-name="Path 4659" d="M718.12,832.661h-1.278c0-.048,0-.107.006-.176s.005-.2.005-.388v-2.272a2.777,2.777,0,0,1-1.782.6,3.8,3.8,0,0,1-1.547-.3,3.339,3.339,0,0,1-1.179-.856,3.875,3.875,0,0,1-.759-1.346,5.549,5.549,0,0,1-.265-1.773,5.365,5.365,0,0,1,.282-1.779,4.059,4.059,0,0,1,.8-1.382,3.675,3.675,0,0,1,1.21-.9,3.586,3.586,0,0,1,1.527-.321,5.285,5.285,0,0,1,.676.045q.361.043.707.114c.23.046.451.1.663.15s.4.1.552.137c.051,0,.074.095.07.285s0,.434.017.732c-.178-.075-.337-.15-.479-.227a4.772,4.772,0,0,0-.472-.218,3.527,3.527,0,0,0-.628-.172,6.342,6.342,0,0,0-.938-.092,2.156,2.156,0,0,0-1.837.932,4.437,4.437,0,0,0-.679,2.647,5.382,5.382,0,0,0,.179,1.455,3.468,3.468,0,0,0,.5,1.086,2.169,2.169,0,0,0,.767.681,2.135,2.135,0,0,0,1.008.235,3.922,3.922,0,0,0,.856-.087,2.462,2.462,0,0,0,.758-.315v-3.122h1.267Z" fill="#4d4e4e"/>
          </g>
        </g>
      </g>
    </g>
    <rect id="Rectangle_125" data-name="Rectangle 125" width="159.32" height="0.275" transform="translate(97.679 8.861)" fill="#df071b"/>
  </g>
</svg>
