<svg xmlns="http://www.w3.org/2000/svg" width="544.956" height="27.872" viewBox="0 0 544.956 27.872">
  <g id="Group_167" data-name="Group 167" transform="translate(-645.595 -37.569)">
    <g id="Group_147" data-name="Group 147">
      <g id="Group_146" data-name="Group 146">
        <g id="Group_145" data-name="Group 145">
          <g id="Group_144" data-name="Group 144">
            <path id="Path_1791" data-name="Path 1791" d="M645.595,64.24V42.429h5.233v2.4H649.2V61.839h1.631v2.4Z"
              fill="#ea2024" />
            <path id="Path_1792" data-name="Path 1792"
              d="M658.421,61.6V42.429h6.773l1.219,9.5,1.255-9.5h6.772V61.6h-4.15V46.7l-2.451,14.9h-2.8l-2.406-14.9-.045,14.9Z"
              fill="#ea2024" />
            <path id="Path_1793" data-name="Path 1793"
              d="M676.469,61.6V42.429h9.554v3.7h-5.256v3.807h4.606v3.7h-4.606V57.9h5.461v3.7Z" fill="#ea2024" />
            <path id="Path_1794" data-name="Path 1794"
              d="M688.144,61.6V42.429h4.7l3.454,11.3.046-11.3H700.5V61.6h-4.675L692.351,49.75,692.3,61.6Z"
              fill="#ea2024" />
            <path id="Path_1795" data-name="Path 1795"
              d="M702.406,56.368V42.429h4.3V56.415a4.258,4.258,0,0,0,.183,1.465q.171.48,1.06.48a1.181,1.181,0,0,0,.935-.375,2.751,2.751,0,0,0,.3-1.57V42.429h4.3V56.368a5.541,5.541,0,1,1-11.071,0Z"
              fill="#ea2024" />
            <path id="Path_1796" data-name="Path 1796" d="M726.165,64.24h-5.233v-2.4h1.642V44.83h-1.642v-2.4h5.233Z"
              fill="#ea2024" />
          </g>
        </g>
      </g>
    </g>
    <rect id="Rectangle_52" data-name="Rectangle 52" width="281.057" height="0.577"
      transform="translate(909.494 52.379)" fill="#ea2024" />
    <path id="Path_2262" data-name="Path 2262"
      d="M15.2-15.858v-1.767H.585v1.767H6.552V0H9.26V-15.858ZM19.2-.023v-7.47a5.248,5.248,0,0,0,1.429.981,8.717,8.717,0,0,0,1.452.545q.826.321,1.354.585a3.55,3.55,0,0,1,.861.579,1.814,1.814,0,0,1,.482.8,6.223,6.223,0,0,1,.218,1.251v1.561q0,.413-.011.769A2.333,2.333,0,0,1,24.946,0h2.777V-2.18A5.822,5.822,0,0,0,27.568-3.6a3.756,3.756,0,0,0-.436-1.067,3.367,3.367,0,0,0-.706-.809,6.163,6.163,0,0,0-.987-.666,5.73,5.73,0,0,0,3.368-1.916A6.063,6.063,0,0,0,30.1-11.773a5.852,5.852,0,0,0-1.859-4.3A6.973,6.973,0,0,0,23.4-17.648a7.356,7.356,0,0,0-5.043,1.572,5.731,5.731,0,0,0-1.865,4.3V-.023Zm0-12.175a4.719,4.719,0,0,1,.361-1.962,3.337,3.337,0,0,1,.947-1.256,3.65,3.65,0,0,1,1.314-.666,4.9,4.9,0,0,1,1.463-.178,5.213,5.213,0,0,1,1.463.166,3.553,3.553,0,0,1,1.331.654,3.294,3.294,0,0,1,.952,1.268A4.8,4.8,0,0,1,27.39-12.2v.826A4.76,4.76,0,0,1,27.028-9.4a3.352,3.352,0,0,1-.952,1.268,3.508,3.508,0,0,1-1.331.66,5.213,5.213,0,0,1-1.463.166,5.043,5.043,0,0,1-1.411-.155,3.622,3.622,0,0,1-1.279-.608,3.4,3.4,0,0,1-.964-1.147,4.18,4.18,0,0,1-.43-1.807ZM34.516-7.826h8.193V-.9q0,.711-.023.9h2.754l-.023-11.44a7.012,7.012,0,0,0-.448-2.576,5.149,5.149,0,0,0-1.314-1.939,5.992,5.992,0,0,0-2.117-1.234,8.542,8.542,0,0,0-2.823-.436,7.248,7.248,0,0,0-5.135,1.658,5.9,5.9,0,0,0-1.773,4.527V-3.1q0,1.377-.011,2.146T31.762,0h2.8Zm0-4.349a4.679,4.679,0,0,1,.361-1.956,3.37,3.37,0,0,1,.952-1.256,3.663,3.663,0,0,1,1.314-.671,4.85,4.85,0,0,1,1.457-.178,5.213,5.213,0,0,1,1.463.166,3.553,3.553,0,0,1,1.331.654,3.294,3.294,0,0,1,.952,1.268,4.8,4.8,0,0,1,.361,1.974V-8.9H34.516Zm1.974-11.257a13.507,13.507,0,0,0-1.251,2.088q.138.149,5.519,1.951l.379-.723ZM70.925-3.224a9.563,9.563,0,0,1-2.335,1.159,7.77,7.77,0,0,1-2.461.4,8.2,8.2,0,0,1-3.11-.568,6.856,6.856,0,0,1-2.387-1.589,6.964,6.964,0,0,1-1.515-2.433,8.849,8.849,0,0,1-.528-3.121,8.5,8.5,0,0,1,.436-2.76,6.53,6.53,0,0,1,1.245-2.209A5.671,5.671,0,0,1,62.255-15.8a6.42,6.42,0,0,1,2.656-.528,14.969,14.969,0,0,1,2.209.258,11.273,11.273,0,0,1,1.583.436,8.939,8.939,0,0,1,1.188.528q.516.281,1.056.511.069-.448.155-1.033t.155-.941a21.269,21.269,0,0,0-3.265-.855,17.9,17.9,0,0,0-3.127-.293,10.473,10.473,0,0,0-3.551.6,8.607,8.607,0,0,0-2.926,1.738,8.326,8.326,0,0,0-2,2.788,9.018,9.018,0,0,0-.74,3.735,8.977,8.977,0,0,0,.763,3.792,8.077,8.077,0,0,0,2.077,2.788,8.86,8.86,0,0,0,3.081,1.7A12.114,12.114,0,0,0,65.336,0a9.08,9.08,0,0,0,1.279-.1A13.84,13.84,0,0,0,68.073-.4q.74-.189,1.457-.448a7.491,7.491,0,0,0,1.279-.591Zm4.578-4.6H83.7V-.9q0,.711-.023.9h2.754L86.4-11.44a7.012,7.012,0,0,0-.448-2.576,5.149,5.149,0,0,0-1.314-1.939,5.992,5.992,0,0,0-2.117-1.234,8.542,8.542,0,0,0-2.823-.436,7.248,7.248,0,0,0-5.135,1.658,5.9,5.9,0,0,0-1.773,4.527V-3.1q0,1.377-.011,2.146T72.749,0h2.8Zm0-4.349a4.679,4.679,0,0,1,.361-1.956,3.37,3.37,0,0,1,.952-1.256,3.663,3.663,0,0,1,1.314-.671,4.85,4.85,0,0,1,1.457-.178,5.213,5.213,0,0,1,1.463.166,3.553,3.553,0,0,1,1.331.654,3.294,3.294,0,0,1,.952,1.268,4.8,4.8,0,0,1,.361,1.974V-8.9H75.5Zm6.6-11.257-4.647,3.316.367.723q5.382-1.8,5.531-1.951A13.507,13.507,0,0,0,82.1-23.431ZM103.7-3.224a9.563,9.563,0,0,1-2.335,1.159,7.77,7.77,0,0,1-2.461.4,8.2,8.2,0,0,1-3.11-.568A6.856,6.856,0,0,1,93.4-3.821a6.964,6.964,0,0,1-1.515-2.433,8.848,8.848,0,0,1-.528-3.121,8.5,8.5,0,0,1,.436-2.76,6.53,6.53,0,0,1,1.245-2.209A5.671,5.671,0,0,1,95.027-15.8a6.42,6.42,0,0,1,2.656-.528,14.969,14.969,0,0,1,2.209.258,11.273,11.273,0,0,1,1.583.436,8.939,8.939,0,0,1,1.188.528q.516.281,1.056.511.069-.448.155-1.033t.155-.941a21.269,21.269,0,0,0-3.265-.855,17.9,17.9,0,0,0-3.127-.293,10.473,10.473,0,0,0-3.551.6,8.607,8.607,0,0,0-2.926,1.738,8.326,8.326,0,0,0-2,2.788,9.018,9.018,0,0,0-.74,3.735,8.977,8.977,0,0,0,.763,3.792,8.077,8.077,0,0,0,2.077,2.788,8.86,8.86,0,0,0,3.081,1.7A12.114,12.114,0,0,0,98.108,0a9.08,9.08,0,0,0,1.279-.1A13.84,13.84,0,0,0,100.845-.4q.74-.189,1.457-.448a7.491,7.491,0,0,0,1.279-.591ZM125.463-1.17h-4.957a5.8,5.8,0,0,1-1.463-.189,3.284,3.284,0,0,1-1.3-.671,3.6,3.6,0,0,1-.935-1.256,4.63,4.63,0,0,1-.361-1.956V-17.625h-2.708V-6.1a5.877,5.877,0,0,0,1.738,4.481,7.121,7.121,0,0,0,5.032,1.67h4.957Zm15.319-10.293a7.012,7.012,0,0,0-.448-2.576,5.118,5.118,0,0,0-1.32-1.939,6.061,6.061,0,0,0-2.117-1.234,8.491,8.491,0,0,0-2.817-.436,7.248,7.248,0,0,0-5.135,1.658,5.9,5.9,0,0,0-1.773,4.527v5.278a5.9,5.9,0,0,0,1.773,4.527A7.248,7.248,0,0,0,134.081,0,8.491,8.491,0,0,0,136.9-.436a6.061,6.061,0,0,0,2.117-1.234,5.118,5.118,0,0,0,1.32-1.939,7.012,7.012,0,0,0,.448-2.576Zm-10.9,6.013V-12.2a4.719,4.719,0,0,1,.361-1.962,3.337,3.337,0,0,1,.947-1.256,3.65,3.65,0,0,1,1.314-.666,4.9,4.9,0,0,1,1.463-.178,5.213,5.213,0,0,1,1.463.166,3.553,3.553,0,0,1,1.331.654,3.294,3.294,0,0,1,.952,1.268,4.8,4.8,0,0,1,.361,1.974V-5.45a4.8,4.8,0,0,1-.361,1.974,3.294,3.294,0,0,1-.952,1.268,3.553,3.553,0,0,1-1.331.654,5.213,5.213,0,0,1-1.463.166,4.9,4.9,0,0,1-1.463-.178,3.6,3.6,0,0,1-1.314-.671,3.4,3.4,0,0,1-.947-1.256A4.679,4.679,0,0,1,129.881-5.45Zm15.64-2.375h8.193V-.9q0,.711-.023.9h2.754l-.023-11.44a7.012,7.012,0,0,0-.448-2.576,5.149,5.149,0,0,0-1.314-1.939,5.992,5.992,0,0,0-2.117-1.234,8.542,8.542,0,0,0-2.823-.436,7.248,7.248,0,0,0-5.135,1.658,5.9,5.9,0,0,0-1.773,4.527V-3.1q0,1.377-.011,2.146T142.767,0h2.8Zm0-4.349a4.679,4.679,0,0,1,.361-1.956,3.37,3.37,0,0,1,.952-1.256,3.664,3.664,0,0,1,1.314-.671,4.85,4.85,0,0,1,1.457-.178,5.213,5.213,0,0,1,1.463.166,3.553,3.553,0,0,1,1.331.654,3.294,3.294,0,0,1,.952,1.268,4.8,4.8,0,0,1,.361,1.974V-8.9h-8.193Zm2.616,15.158a1.43,1.43,0,0,0,1.434,1.457,1.494,1.494,0,0,0,1.067-.413,1.377,1.377,0,0,0,.436-1.044,1.34,1.34,0,0,0-.448-1.016,1.494,1.494,0,0,0-1.056-.419,1.4,1.4,0,0,0-1,.419A1.356,1.356,0,0,0,148.137,2.983Zm13.012-20.608h-2.708V.023h2.708Z"
      transform="translate(736 61)" fill="#606060" />
  </g>
</svg>
