<svg xmlns="http://www.w3.org/2000/svg" xmlns:xlink="http://www.w3.org/1999/xlink" width="257" height="15" viewBox="0 0 257 15">
  <defs>
    <clipPath id="clip-Web_1920_1">
      <rect width="257" height="15"/>
    </clipPath>
  </defs>
  <g id="Web_1920_1" data-name="Web 1920 – 1" clip-path="url(#clip-Web_1920_1)">
    <g id="Group_292" data-name="Group 292" transform="translate(-64.535 -691)">
      <g id="Group_291" data-name="Group 291">
        <g id="Group_290" data-name="Group 290">
          <path id="Path_3245" data-name="Path 3245" d="M64.535,704.856v-10.4H67.03V695.6h-.778v8.108h.778v1.146Z" fill="#df071b"/>
          <path id="Path_3246" data-name="Path 3246" d="M70.649,703.6v-9.142h3.229l.581,4.53.6-4.53h3.228V703.6H76.308v-7.1l-1.169,7.1H73.8l-1.147-7.1-.022,7.1Z" fill="#df071b"/>
          <path id="Path_3247" data-name="Path 3247" d="M79.253,703.6v-9.142h4.555v1.765H81.3v1.815h2.2V699.8H81.3v2.032h2.6V703.6Z" fill="#df071b"/>
          <path id="Path_3248" data-name="Path 3248" d="M84.819,703.6v-9.142h2.239l1.647,5.389.022-5.389H90.71V703.6H88.482l-1.658-5.651L86.8,703.6Z" fill="#df071b"/>
          <path id="Path_3249" data-name="Path 3249" d="M91.618,701.1v-6.646h2.049v6.668a2.039,2.039,0,0,0,.087.7c.055.152.223.228.506.228a.559.559,0,0,0,.445-.179,1.308,1.308,0,0,0,.142-.748v-6.668h2.048V701.1a2.641,2.641,0,1,1-5.277,0Z" fill="#df071b"/>
          <path id="Path_3250" data-name="Path 3250" d="M102.944,704.856H100.45V703.71h.782V695.6h-.782v-1.145h2.494Z" fill="#df071b"/>
          <path id="TRÀ_THẢO_MỘC_DƯỠNG_SINH" data-name="TRÀ THẢO MỘC DƯỠNG SINH" d="M7.117-7.423V-8.25H.274v.827H3.067V0H4.334V-7.423ZM8.986-.011v-3.5a2.457,2.457,0,0,0,.669.459,4.08,4.08,0,0,0,.679.255q.387.15.634.274a1.662,1.662,0,0,1,.4.271.849.849,0,0,1,.226.373,2.913,2.913,0,0,1,.1.585v.73q0,.193-.005.36a1.092,1.092,0,0,1-.016.2h1.3V-1.021a2.725,2.725,0,0,0-.073-.663,1.758,1.758,0,0,0-.2-.5,1.576,1.576,0,0,0-.33-.379,2.885,2.885,0,0,0-.462-.312,2.682,2.682,0,0,0,1.576-.9,2.838,2.838,0,0,0,.6-1.74,2.739,2.739,0,0,0-.87-2.014,3.264,3.264,0,0,0-2.267-.736,3.443,3.443,0,0,0-2.361.736,2.682,2.682,0,0,0-.873,2.014v5.5Zm0-5.7a2.209,2.209,0,0,1,.169-.918A1.562,1.562,0,0,1,9.6-7.216a1.708,1.708,0,0,1,.615-.312,2.294,2.294,0,0,1,.685-.083,2.44,2.44,0,0,1,.685.078,1.663,1.663,0,0,1,.623.306,1.542,1.542,0,0,1,.446.594,2.247,2.247,0,0,1,.169.924v.387a2.228,2.228,0,0,1-.169.921,1.569,1.569,0,0,1-.446.594,1.642,1.642,0,0,1-.623.309,2.44,2.44,0,0,1-.685.078,2.361,2.361,0,0,1-.661-.073,1.7,1.7,0,0,1-.6-.285,1.592,1.592,0,0,1-.451-.537,1.956,1.956,0,0,1-.2-.846Zm7.17,2.046h3.835V-.419q0,.333-.011.419H21.27l-.011-5.355a3.282,3.282,0,0,0-.209-1.206,2.41,2.41,0,0,0-.615-.908,2.8,2.8,0,0,0-.991-.577,4,4,0,0,0-1.321-.2,3.392,3.392,0,0,0-2.4.776,2.76,2.76,0,0,0-.83,2.119v3.9q0,.645-.005,1T14.867,0h1.311Zm0-2.036a2.19,2.19,0,0,1,.169-.916,1.578,1.578,0,0,1,.446-.588,1.715,1.715,0,0,1,.615-.314,2.27,2.27,0,0,1,.682-.083,2.44,2.44,0,0,1,.685.078,1.663,1.663,0,0,1,.623.306,1.542,1.542,0,0,1,.446.594,2.247,2.247,0,0,1,.169.924v1.531H16.156Zm.924-5.269a6.323,6.323,0,0,0-.585.978q.064.07,2.583.913l.177-.338Zm10.259,7.3h3.835V-.419q0,.333-.011.419h1.289l-.011-5.355a3.282,3.282,0,0,0-.209-1.206,2.41,2.41,0,0,0-.615-.908,2.8,2.8,0,0,0-.991-.577,4,4,0,0,0-1.321-.2,3.392,3.392,0,0,0-2.4.776,2.76,2.76,0,0,0-.83,2.119v3.9q0,.645-.005,1T26.05,0H27.36Zm0-2.036a2.19,2.19,0,0,1,.169-.916,1.578,1.578,0,0,1,.446-.588,1.715,1.715,0,0,1,.615-.314,2.27,2.27,0,0,1,.682-.083,2.44,2.44,0,0,1,.685.078,1.663,1.663,0,0,1,.623.306A1.542,1.542,0,0,1,31-6.623a2.247,2.247,0,0,1,.169.924v1.531H27.339Zm3.088-7.213L28.252-11.36l.172.338q2.519-.843,2.589-.913A6.323,6.323,0,0,0,30.427-12.912Zm.4,3.948-1.617-2.014L27.624-8.986,27.7-8.8l1.531-.924,1.515.945Zm7.192,1.354a3.856,3.856,0,0,1,.739.169,2.643,2.643,0,0,1,.7.352,1.957,1.957,0,0,1,.529.556,1.449,1.449,0,0,1,.209.792V.011h1.262V-5.4a2.233,2.233,0,0,0-.279-1.1,2.915,2.915,0,0,0-.752-.875,3.925,3.925,0,0,0-1.085-.6,5.109,5.109,0,0,0-1.284-.29v-.2q0-.167-.005-.352t-.005-.341a.981.981,0,0,1,.011-.2H36.722a.981.981,0,0,1,.011.2q0,.167-.013.357t-.019.363a1.091,1.091,0,0,0,.005.215,6.022,6.022,0,0,0-1.262.338,4.073,4.073,0,0,0-1.063.6,2.856,2.856,0,0,0-.725.841A2.1,2.1,0,0,0,33.387-5.4V0h1.268V-5.742a1.406,1.406,0,0,1,.191-.744,1.8,1.8,0,0,1,.5-.534,2.905,2.905,0,0,1,.677-.357,4.184,4.184,0,0,1,.733-.2v5.9h1.262Z" transform="translate(108 704)" fill="#707070"/>
        </g>
      </g>
    </g>
    <path id="Path_3251" data-name="Path 3251" d="M0,0H111.233V.275H0Z" transform="translate(145.767 8.203)" fill="#df071b"/>
  </g>
</svg>
