<svg xmlns="http://www.w3.org/2000/svg" xmlns:xlink="http://www.w3.org/1999/xlink" width="257" height="13" viewBox="0 0 257 13">
  <defs>
    <clipPath id="clip-Web_1920_1">
      <rect width="257" height="13"/>
    </clipPath>
  </defs>
  <g id="Web_1920_1" data-name="Web 1920 – 1" clip-path="url(#clip-Web_1920_1)">
    <g id="Group_292" data-name="Group 292" transform="translate(-64.535 -693)">
      <g id="Group_291" data-name="Group 291">
        <g id="Group_290" data-name="Group 290">
          <path id="Path_3245" data-name="Path 3245" d="M64.535,704.856v-10.4H67.03V695.6h-.778v8.108h.778v1.146Z" fill="#df071b"/>
          <path id="Path_3246" data-name="Path 3246" d="M70.649,703.6v-9.142h3.229l.581,4.53.6-4.53h3.228V703.6H76.308v-7.1l-1.169,7.1H73.8l-1.147-7.1-.022,7.1Z" fill="#df071b"/>
          <path id="Path_3247" data-name="Path 3247" d="M79.253,703.6v-9.142h4.555v1.765H81.3v1.815h2.2V699.8H81.3v2.032h2.6V703.6Z" fill="#df071b"/>
          <path id="Path_3248" data-name="Path 3248" d="M84.819,703.6v-9.142h2.239l1.647,5.389.022-5.389H90.71V703.6H88.482l-1.658-5.651L86.8,703.6Z" fill="#df071b"/>
          <path id="Path_3249" data-name="Path 3249" d="M91.618,701.1v-6.646h2.049v6.668a2.039,2.039,0,0,0,.087.7c.055.152.223.228.506.228a.559.559,0,0,0,.445-.179,1.308,1.308,0,0,0,.142-.748v-6.668h2.048V701.1a2.641,2.641,0,1,1-5.277,0Z" fill="#df071b"/>
          <path id="Path_3250" data-name="Path 3250" d="M102.944,704.856H100.45V703.71h.782V695.6h-.782v-1.145h2.494Z" fill="#df071b"/>
          <path id="TRÀ_THẢO_MỘC_DƯỠNG_SINH" data-name="TRÀ THẢO MỘC DƯỠNG SINH" d="M7.117-7.423V-8.25H.274v.827H3.067V0H4.334V-7.423ZM8.986-.011v-3.5a2.457,2.457,0,0,0,.669.459,4.08,4.08,0,0,0,.679.255q.387.15.634.274a1.662,1.662,0,0,1,.4.271.849.849,0,0,1,.226.373,2.913,2.913,0,0,1,.1.585v.73q0,.193-.005.36a1.092,1.092,0,0,1-.016.2h1.3V-1.021a2.725,2.725,0,0,0-.073-.663,1.758,1.758,0,0,0-.2-.5,1.576,1.576,0,0,0-.33-.379,2.885,2.885,0,0,0-.462-.312,2.682,2.682,0,0,0,1.576-.9,2.838,2.838,0,0,0,.6-1.74,2.739,2.739,0,0,0-.87-2.014,3.264,3.264,0,0,0-2.267-.736,3.443,3.443,0,0,0-2.361.736,2.682,2.682,0,0,0-.873,2.014v5.5Zm0-5.7a2.209,2.209,0,0,1,.169-.918A1.562,1.562,0,0,1,9.6-7.216a1.708,1.708,0,0,1,.615-.312,2.294,2.294,0,0,1,.685-.083,2.44,2.44,0,0,1,.685.078,1.663,1.663,0,0,1,.623.306,1.542,1.542,0,0,1,.446.594,2.247,2.247,0,0,1,.169.924v.387a2.228,2.228,0,0,1-.169.921,1.569,1.569,0,0,1-.446.594,1.642,1.642,0,0,1-.623.309,2.44,2.44,0,0,1-.685.078,2.361,2.361,0,0,1-.661-.073,1.7,1.7,0,0,1-.6-.285,1.592,1.592,0,0,1-.451-.537,1.956,1.956,0,0,1-.2-.846Zm7.17,2.046h3.835V-.419q0,.333-.011.419H21.27l-.011-5.355a3.282,3.282,0,0,0-.209-1.206,2.41,2.41,0,0,0-.615-.908,2.8,2.8,0,0,0-.991-.577,4,4,0,0,0-1.321-.2,3.392,3.392,0,0,0-2.4.776,2.76,2.76,0,0,0-.83,2.119v3.9q0,.645-.005,1T14.867,0h1.311Zm0-2.036a2.19,2.19,0,0,1,.169-.916,1.578,1.578,0,0,1,.446-.588,1.715,1.715,0,0,1,.615-.314,2.27,2.27,0,0,1,.682-.083,2.44,2.44,0,0,1,.685.078,1.663,1.663,0,0,1,.623.306,1.542,1.542,0,0,1,.446.594,2.247,2.247,0,0,1,.169.924v1.531H16.156Zm.924-5.269a6.323,6.323,0,0,0-.585.978q.064.07,2.583.913l.177-.338ZM32.565-7.423V-8.25H25.722v.827h2.793V0h1.268V-7.423Zm.6,7.434h1.268V-3.663h2.541V.011h1.262V-8.261H36.975v4.093H34.434V-8.261H33.167ZM40.46-3.663H44.3V-.419q0,.333-.011.419h1.289l-.011-5.355a3.282,3.282,0,0,0-.209-1.206,2.41,2.41,0,0,0-.615-.908,2.8,2.8,0,0,0-.991-.577,4,4,0,0,0-1.321-.2,3.393,3.393,0,0,0-2.4.776,2.76,2.76,0,0,0-.83,2.119v3.9q0,.645-.005,1T39.171,0h1.311Zm0-2.036a2.19,2.19,0,0,1,.169-.916,1.578,1.578,0,0,1,.446-.588,1.715,1.715,0,0,1,.615-.314,2.27,2.27,0,0,1,.682-.083,2.44,2.44,0,0,1,.685.078,1.663,1.663,0,0,1,.623.306,1.542,1.542,0,0,1,.446.594A2.247,2.247,0,0,1,44.3-5.7v1.531H40.46ZM43.1-9.485q-.118.064-.185.1a.437.437,0,0,0-.1.083.331.331,0,0,0-.062.121,1.037,1.037,0,0,0-.035.218V-8.7H42v-.371a.782.782,0,0,1,.032-.215.87.87,0,0,1,.1-.218,1.015,1.015,0,0,1,.158-.2.534.534,0,0,1,.212-.129l.161-.086a.427.427,0,0,0,.134-.075.393.393,0,0,0,.081-.1.483.483,0,0,0,.048-.118.442.442,0,0,0,.016-.11.385.385,0,0,0-.03-.185.3.3,0,0,0-.083-.11.329.329,0,0,0-.121-.056.586.586,0,0,0-.148-.019q-.2.021-.4.059a3.047,3.047,0,0,0-.618.231q-.021-.231-.032-.293t-.038-.175q.349-.107.6-.161a2.832,2.832,0,0,1,.529-.059,1.384,1.384,0,0,1,.443.064.937.937,0,0,1,.322.18.706.706,0,0,1,.193.269,1.046,1.046,0,0,1,.073.33.515.515,0,0,1-.062.266,1.144,1.144,0,0,1-.156.226,1.307,1.307,0,0,1-.18.169Q43.141-9.512,43.1-9.485Zm9.781,4.12a3.282,3.282,0,0,0-.209-1.206,2.4,2.4,0,0,0-.618-.908,2.837,2.837,0,0,0-.991-.577,3.975,3.975,0,0,0-1.319-.2,3.393,3.393,0,0,0-2.4.776,2.76,2.76,0,0,0-.83,2.119V-2.9a2.76,2.76,0,0,0,.83,2.119,3.393,3.393,0,0,0,2.4.776A3.975,3.975,0,0,0,51.06-.2a2.837,2.837,0,0,0,.991-.577,2.4,2.4,0,0,0,.618-.908A3.282,3.282,0,0,0,52.878-2.9Zm-5.1,2.814V-5.709a2.209,2.209,0,0,1,.169-.918,1.562,1.562,0,0,1,.443-.588A1.708,1.708,0,0,1,49-7.528a2.294,2.294,0,0,1,.685-.083,2.44,2.44,0,0,1,.685.078A1.663,1.663,0,0,1,51-7.227a1.542,1.542,0,0,1,.446.594,2.247,2.247,0,0,1,.169.924v3.158a2.247,2.247,0,0,1-.169.924A1.542,1.542,0,0,1,51-1.034a1.663,1.663,0,0,1-.623.306,2.44,2.44,0,0,1-.685.078A2.294,2.294,0,0,1,49-.733a1.686,1.686,0,0,1-.615-.314,1.591,1.591,0,0,1-.443-.588A2.19,2.19,0,0,1,47.776-2.551Zm14.507-5.06a3.856,3.856,0,0,1,.739.169,2.643,2.643,0,0,1,.7.352,1.957,1.957,0,0,1,.529.556,1.449,1.449,0,0,1,.209.792V.011h1.262V-5.4a2.233,2.233,0,0,0-.279-1.1,2.915,2.915,0,0,0-.752-.875,3.925,3.925,0,0,0-1.085-.6,5.109,5.109,0,0,0-1.284-.29v-.2q0-.167-.005-.352t-.005-.341a.981.981,0,0,1,.011-.2H60.989a.981.981,0,0,1,.011.2q0,.167-.013.357t-.019.363a1.091,1.091,0,0,0,.005.215,6.022,6.022,0,0,0-1.262.338,4.073,4.073,0,0,0-1.063.6,2.856,2.856,0,0,0-.725.841A2.1,2.1,0,0,0,57.653-5.4V0h1.268V-5.742a1.406,1.406,0,0,1,.191-.744,1.8,1.8,0,0,1,.5-.534,2.905,2.905,0,0,1,.677-.357,4.184,4.184,0,0,1,.733-.2v5.9h1.262ZM73.031-5.366a3.282,3.282,0,0,0-.209-1.206,2.4,2.4,0,0,0-.618-.908,2.837,2.837,0,0,0-.991-.577,3.975,3.975,0,0,0-1.319-.2,3.392,3.392,0,0,0-2.4.776,2.76,2.76,0,0,0-.83,2.119V-2.9a2.76,2.76,0,0,0,.83,2.119,3.392,3.392,0,0,0,2.4.776,3.975,3.975,0,0,0,1.319-.2A2.837,2.837,0,0,0,72.2-.781a2.4,2.4,0,0,0,.618-.908A3.282,3.282,0,0,0,73.031-2.9Zm-5.1,2.814V-5.709a2.209,2.209,0,0,1,.169-.918,1.562,1.562,0,0,1,.443-.588,1.708,1.708,0,0,1,.615-.312,2.294,2.294,0,0,1,.685-.083,2.44,2.44,0,0,1,.685.078,1.663,1.663,0,0,1,.623.306,1.542,1.542,0,0,1,.446.594,2.247,2.247,0,0,1,.169.924v3.158a2.247,2.247,0,0,1-.169.924,1.542,1.542,0,0,1-.446.594,1.663,1.663,0,0,1-.623.306,2.44,2.44,0,0,1-.685.078,2.294,2.294,0,0,1-.685-.083,1.686,1.686,0,0,1-.615-.314,1.591,1.591,0,0,1-.443-.588A2.19,2.19,0,0,1,67.928-2.551ZM69.158,1.4a.67.67,0,0,0,.671.682.7.7,0,0,0,.5-.193.644.644,0,0,0,.2-.489.627.627,0,0,0-.209-.475.7.7,0,0,0-.494-.2.656.656,0,0,0-.467.2A.635.635,0,0,0,69.158,1.4ZM71.446-8.964,69.83-10.979,68.245-8.986l.075.188,1.531-.924,1.52.945Zm9.663,7.455a4.476,4.476,0,0,1-1.093.542,3.637,3.637,0,0,1-1.152.188,3.838,3.838,0,0,1-1.456-.266,3.209,3.209,0,0,1-1.117-.744,3.26,3.26,0,0,1-.709-1.139,4.142,4.142,0,0,1-.247-1.461,3.979,3.979,0,0,1,.2-1.292,3.057,3.057,0,0,1,.583-1.034,2.655,2.655,0,0,1,.929-.682,3.005,3.005,0,0,1,1.243-.247,7.007,7.007,0,0,1,1.034.121,5.277,5.277,0,0,1,.741.2,4.184,4.184,0,0,1,.556.247q.242.132.494.239.032-.209.073-.483t.073-.44a9.956,9.956,0,0,0-1.528-.4,8.377,8.377,0,0,0-1.464-.137,4.9,4.9,0,0,0-1.662.279,4.029,4.029,0,0,0-1.37.814,3.9,3.9,0,0,0-.935,1.305,4.221,4.221,0,0,0-.346,1.748,4.2,4.2,0,0,0,.357,1.775,3.781,3.781,0,0,0,.972,1.305,4.147,4.147,0,0,0,1.442.8A5.671,5.671,0,0,0,78.493,0a4.25,4.25,0,0,0,.6-.048,6.478,6.478,0,0,0,.682-.137q.346-.089.682-.209a3.506,3.506,0,0,0,.6-.277Zm10.968-2.7a4.967,4.967,0,0,0-.269-1.684,3.476,3.476,0,0,0-.779-1.273,3.375,3.375,0,0,0-1.26-.8,4.893,4.893,0,0,0-1.716-.279H85.809V0h2.927a2.527,2.527,0,0,0,1.3-.3A3.462,3.462,0,0,0,91.094-1.2a4.332,4.332,0,0,0,.72-1.345A5.184,5.184,0,0,0,92.077-4.211ZM87.71-7.5a2.9,2.9,0,0,1,2.3.881,3.745,3.745,0,0,1,.776,2.551q0,.387-.021.822a4.2,4.2,0,0,1-.132.857,3.141,3.141,0,0,1-.33.8,1.834,1.834,0,0,1-.607.623,2.484,2.484,0,0,1-.975.336,4.546,4.546,0,0,1-1.426-.056.869.869,0,0,1-.2-.551q-.03-.373-.03-1.012v-4.2a2.424,2.424,0,0,1,.124-.9.319.319,0,0,1,.191-.115A1.529,1.529,0,0,1,87.71-7.5ZM98.071-2.551a2.19,2.19,0,0,1-.169.916,1.578,1.578,0,0,1-.446.588,1.712,1.712,0,0,1-.618.314,2.273,2.273,0,0,1-.679.083,2.462,2.462,0,0,1-.69-.078,1.639,1.639,0,0,1-.62-.306,1.554,1.554,0,0,1-.443-.594,2.247,2.247,0,0,1-.169-.924V-8.239H92.968V-2.9a3.282,3.282,0,0,0,.209,1.206,2.41,2.41,0,0,0,.615.908,2.816,2.816,0,0,0,.983.577A3.98,3.98,0,0,0,96.1,0a3.392,3.392,0,0,0,2.4-.776,2.76,2.76,0,0,0,.83-2.119V-8.239H98.071Zm1.488-5.833a.445.445,0,0,1-.124.26,1.466,1.466,0,0,1-.255.226,2.222,2.222,0,0,1-.277.167,1.116,1.116,0,0,0-.167.094q-.086.043-.067.1l.019.062a6.112,6.112,0,0,0,.626-.314,2.11,2.11,0,0,0,.406-.3,1.309,1.309,0,0,0,.242-.314,1.776,1.776,0,0,0,.14-.349.811.811,0,0,0,.021-.2.485.485,0,0,0-.051-.215.656.656,0,0,0-.142-.191.577.577,0,0,0-.242-.129.466.466,0,0,0-.416.062.677.677,0,0,0-.239.373.477.477,0,0,0-.008.183.462.462,0,0,0,.075.191.639.639,0,0,0,.175.172A.8.8,0,0,0,99.559-8.384Zm2.1,5.833V-5.709a2.209,2.209,0,0,1,.169-.918,1.562,1.562,0,0,1,.443-.588,1.708,1.708,0,0,1,.615-.312,2.294,2.294,0,0,1,.685-.083,2.44,2.44,0,0,1,.685.078,1.663,1.663,0,0,1,.623.306,1.542,1.542,0,0,1,.446.594,2.247,2.247,0,0,1,.169.924v3.158a2.247,2.247,0,0,1-.169.924,1.542,1.542,0,0,1-.446.594,1.663,1.663,0,0,1-.623.306,2.44,2.44,0,0,1-.685.078,2.294,2.294,0,0,1-.685-.083,1.686,1.686,0,0,1-.615-.314,1.591,1.591,0,0,1-.443-.588A2.19,2.19,0,0,1,101.659-2.551Zm3.738-7.6-.167-.188a2.021,2.021,0,0,1-.352.314.712.712,0,0,1-.416.148.745.745,0,0,1-.3-.073,3.932,3.932,0,0,1-.384-.2,1.385,1.385,0,0,0-.736-.279q-.892,0-1.268,1.214a.124.124,0,0,0,.059.038l.051.011a.174.174,0,0,1,.051.021.139.139,0,0,1,.048.07,1.062,1.062,0,0,1,.368-.4.767.767,0,0,1,.379-.115.987.987,0,0,1,.354.078,3.865,3.865,0,0,1,.451.218,1.719,1.719,0,0,0,.8.29Q104.978-9.007,105.4-10.151Zm.161,2.385.032-.021a2.145,2.145,0,0,0,.406-.3,1.279,1.279,0,0,0,.244-.314,1.569,1.569,0,0,0,.134-.349.607.607,0,0,0,.024-.2.54.54,0,0,0-.051-.215.616.616,0,0,0-.14-.191.578.578,0,0,0-.247-.129.46.46,0,0,0-.414.062.683.683,0,0,0-.236.373.39.39,0,0,0-.011.183.5.5,0,0,0,.078.191.652.652,0,0,0,.172.172.772.772,0,0,0,.287.115.445.445,0,0,1-.124.26,1.425,1.425,0,0,1-.252.223l-.064.043a3.238,3.238,0,0,0-.451-.2,4,4,0,0,0-1.321-.2,3.392,3.392,0,0,0-2.4.776,2.76,2.76,0,0,0-.83,2.119V-2.9a2.76,2.76,0,0,0,.83,2.119,3.392,3.392,0,0,0,2.4.776,3.975,3.975,0,0,0,1.319-.2,2.837,2.837,0,0,0,.991-.577,2.4,2.4,0,0,0,.618-.908,3.282,3.282,0,0,0,.209-1.206V-5.366a3.282,3.282,0,0,0-.209-1.206,2.42,2.42,0,0,0-.618-.91A2.726,2.726,0,0,0,105.558-7.767ZM109.033-5.7a2.19,2.19,0,0,1,.169-.916,1.591,1.591,0,0,1,.443-.588,1.686,1.686,0,0,1,.615-.314,2.294,2.294,0,0,1,.685-.083,2.44,2.44,0,0,1,.685.078,1.663,1.663,0,0,1,.623.306,1.542,1.542,0,0,1,.446.594,2.247,2.247,0,0,1,.169.924V-.011h1.268V-5.355a3.282,3.282,0,0,0-.209-1.206,2.4,2.4,0,0,0-.618-.908,2.837,2.837,0,0,0-.991-.577A3.975,3.975,0,0,0,111-8.25a3.392,3.392,0,0,0-2.4.776,2.76,2.76,0,0,0-.83,2.119V-.011h1.268Zm12.751,1.531h-1.251v3a2.454,2.454,0,0,1-.749.3,4,4,0,0,1-.846.083,2.164,2.164,0,0,1-1-.226,2.13,2.13,0,0,1-.757-.655,3.3,3.3,0,0,1-.491-1.045,5.057,5.057,0,0,1-.177-1.4,4.183,4.183,0,0,1,.671-2.546,2.149,2.149,0,0,1,1.815-.9,6.636,6.636,0,0,1,.927.089,3.529,3.529,0,0,1,.62.167,4.43,4.43,0,0,1,.467.209q.209.11.473.218-.021-.43-.016-.7t-.07-.274q-.231-.054-.545-.132t-.655-.145q-.341-.067-.7-.11a5.617,5.617,0,0,0-.669-.043,3.641,3.641,0,0,0-1.509.309,3.615,3.615,0,0,0-1.2.862,3.886,3.886,0,0,0-.787,1.329,5.021,5.021,0,0,0-.279,1.711,5.19,5.19,0,0,0,.263,1.705,3.691,3.691,0,0,0,.749,1.294,3.314,3.314,0,0,0,1.166.824,3.856,3.856,0,0,0,1.528.29,2.787,2.787,0,0,0,1.762-.58V1.66q0,.274-.005.373t-.005.169h1.262Zm4.673-1.939a1.758,1.758,0,0,0,.408,1.174,2.842,2.842,0,0,0,1.311.862l1.735.628a1.314,1.314,0,0,1,.489.3,1.753,1.753,0,0,1,.309.408,1.929,1.929,0,0,1,.172.435,1.556,1.556,0,0,1,.056.376,1.281,1.281,0,0,1-.11.612.952.952,0,0,1-.336.381,1.447,1.447,0,0,1-.508.2,3.131,3.131,0,0,1-.62.059q-.4-.011-.755-.054a4.3,4.3,0,0,1-.682-.137,3.508,3.508,0,0,1-.628-.25,2.817,2.817,0,0,1-.577-.4q-.043.269-.075.521t-.075.451q.736.231,1.466.389a7,7,0,0,0,1.488.158,3.476,3.476,0,0,0,1.031-.148,2.545,2.545,0,0,0,.835-.43,2.186,2.186,0,0,0,.572-.677,2.037,2.037,0,0,0,.236-.9,2.4,2.4,0,0,0-.059-.612,2.013,2.013,0,0,0-.247-.6,2.44,2.44,0,0,0-.457-.545,2.356,2.356,0,0,0-.677-.419l-1.627-.682a4.46,4.46,0,0,1-.575-.274,2.851,2.851,0,0,1-.478-.336,1.934,1.934,0,0,1-.33-.368.671.671,0,0,1-.126-.376.944.944,0,0,1,.121-.521,1.162,1.162,0,0,1,.357-.379,1.681,1.681,0,0,1,.524-.231,3.314,3.314,0,0,1,.615-.1q.553.086.937.169a5.737,5.737,0,0,1,.682.188,4.672,4.672,0,0,1,.54.226,4.8,4.8,0,0,1,.494.287q.064-.542.15-.961a8.325,8.325,0,0,0-1.488-.422A8.909,8.909,0,0,0,129-8.229a3.51,3.51,0,0,0-1.875.556A1.836,1.836,0,0,0,126.457-6.107Zm7.831-2.143h-1.268V.011h1.268Zm2.2,2.551a2.19,2.19,0,0,1,.169-.916A1.591,1.591,0,0,1,137.1-7.2a1.686,1.686,0,0,1,.615-.314A2.294,2.294,0,0,1,138.4-7.6a2.44,2.44,0,0,1,.685.078,1.663,1.663,0,0,1,.623.306,1.542,1.542,0,0,1,.446.594,2.247,2.247,0,0,1,.169.924V-.011h1.268V-5.355a3.282,3.282,0,0,0-.209-1.206,2.4,2.4,0,0,0-.618-.908,2.837,2.837,0,0,0-.991-.577,3.975,3.975,0,0,0-1.319-.2,3.393,3.393,0,0,0-2.4.776,2.76,2.76,0,0,0-.83,2.119V-.011h1.268ZM142.517.011h1.268V-3.663h2.541V.011h1.262V-8.261h-1.262v4.093h-2.541V-8.261h-1.268Z" transform="translate(108 704)" fill="#707070"/>
        </g>
      </g>
    </g>
    <path id="Path_3251" data-name="Path 3251" d="M0,0H36.993V.275H0Z" transform="translate(220.007 6.203)" fill="#df071b"/>
  </g>
</svg>
