<svg xmlns="http://www.w3.org/2000/svg" width="544.956" height="30.481" viewBox="0 0 544.956 30.481">
  <g id="Group_169" data-name="Group 169" transform="translate(-645.595 -33.759)">
    <g id="Group_147" data-name="Group 147">
      <g id="Group_146" data-name="Group 146">
        <g id="Group_145" data-name="Group 145">
          <g id="Group_144" data-name="Group 144">
            <path id="Path_1791" data-name="Path 1791" d="M645.595,64.24V42.429h5.233v2.4H649.2V61.839h1.631v2.4Z"
              fill="#ea2024" />
            <path id="Path_1792" data-name="Path 1792"
              d="M658.421,61.6V42.429h6.773l1.219,9.5,1.255-9.5h6.772V61.6h-4.15V46.7l-2.451,14.9h-2.8l-2.406-14.9-.045,14.9Z"
              fill="#ea2024" />
            <path id="Path_1793" data-name="Path 1793"
              d="M676.469,61.6V42.429h9.554v3.7h-5.256v3.807h4.606v3.7h-4.606V57.9h5.461v3.7Z" fill="#ea2024" />
            <path id="Path_1794" data-name="Path 1794"
              d="M688.144,61.6V42.429h4.7l3.454,11.3.046-11.3H700.5V61.6h-4.675L692.351,49.75,692.3,61.6Z"
              fill="#ea2024" />
            <path id="Path_1795" data-name="Path 1795"
              d="M702.406,56.368V42.429h4.3V56.415a4.258,4.258,0,0,0,.183,1.465q.171.48,1.06.48a1.181,1.181,0,0,0,.935-.375,2.751,2.751,0,0,0,.3-1.57V42.429h4.3V56.368a5.541,5.541,0,1,1-11.071,0Z"
              fill="#ea2024" />
            <path id="Path_1796" data-name="Path 1796" d="M726.165,64.24h-5.233v-2.4h1.642V44.83h-1.642v-2.4h5.233Z"
              fill="#ea2024" />
          </g>
        </g>
      </g>
    </g>
    <rect id="Rectangle_52" data-name="Rectangle 52" width="87.057" height="0.577"
      transform="translate(1103.494 52.379)" fill="#ea2024" />
    <path id="Path_2261" data-name="Path 2261"
      d="M1.033-13.047A3.755,3.755,0,0,0,1.9-10.539,6.072,6.072,0,0,0,4.7-8.7L8.411-7.355a2.808,2.808,0,0,1,1.044.643,3.745,3.745,0,0,1,.66.872,4.12,4.12,0,0,1,.367.929,3.324,3.324,0,0,1,.12.8A2.736,2.736,0,0,1,10.367-2.8a2.035,2.035,0,0,1-.717.815,3.092,3.092,0,0,1-1.084.425,6.69,6.69,0,0,1-1.325.126q-.849-.023-1.612-.115a9.185,9.185,0,0,1-1.457-.293,7.494,7.494,0,0,1-1.343-.534,6.017,6.017,0,0,1-1.234-.849q-.092.574-.161,1.113t-.161.964q1.572.493,3.133.832A14.951,14.951,0,0,0,7.585.023a7.427,7.427,0,0,0,2.2-.316,5.438,5.438,0,0,0,1.784-.918,4.669,4.669,0,0,0,1.222-1.446,4.352,4.352,0,0,0,.5-1.922,5.126,5.126,0,0,0-.126-1.308,4.3,4.3,0,0,0-.528-1.291,5.213,5.213,0,0,0-.975-1.165,5.033,5.033,0,0,0-1.446-.9L6.747-10.694a9.528,9.528,0,0,1-1.228-.585A6.091,6.091,0,0,1,4.5-12a4.131,4.131,0,0,1-.706-.786,1.433,1.433,0,0,1-.27-.8A2.018,2.018,0,0,1,3.781-14.7a2.481,2.481,0,0,1,.763-.809A3.591,3.591,0,0,1,5.663-16a7.081,7.081,0,0,1,1.314-.212q1.182.184,2,.361a12.256,12.256,0,0,1,1.457.4,9.98,9.98,0,0,1,1.153.482,10.247,10.247,0,0,1,1.056.614q.138-1.159.321-2.054a17.785,17.785,0,0,0-3.178-.9,19.033,19.033,0,0,0-3.328-.27,7.5,7.5,0,0,0-4,1.188A3.923,3.923,0,0,0,1.033-13.047ZM26-21.687l-.356-.4a4.317,4.317,0,0,1-.752.671A1.521,1.521,0,0,1,24-21.1a1.592,1.592,0,0,1-.637-.155,8.4,8.4,0,0,1-.82-.43,2.959,2.959,0,0,0-1.572-.6q-1.9,0-2.708,2.593a.266.266,0,0,0,.126.08l.109.023a.371.371,0,0,1,.109.046.3.3,0,0,1,.1.149,2.27,2.27,0,0,1,.786-.855,1.638,1.638,0,0,1,.809-.247,2.109,2.109,0,0,1,.757.166,8.256,8.256,0,0,1,.964.465,3.671,3.671,0,0,0,1.71.62Q25.106-19.243,26-21.687Zm2.651,5.026a4.647,4.647,0,0,0,.826-.62,2.7,2.7,0,0,0,.516-.666,3.352,3.352,0,0,0,.287-.746,1.3,1.3,0,0,0,.052-.419,1.153,1.153,0,0,0-.109-.459,1.315,1.315,0,0,0-.3-.407,1.234,1.234,0,0,0-.528-.275.982.982,0,0,0-.884.132,1.46,1.46,0,0,0-.5.8.833.833,0,0,0-.023.39,1.057,1.057,0,0,0,.166.407,1.394,1.394,0,0,0,.367.367,1.649,1.649,0,0,0,.614.247.926.926,0,0,1-.264.551,2.079,2.079,0,0,1-.218.229v-.47h-2.7V-5.45a4.615,4.615,0,0,1-.367,1.956,3.452,3.452,0,0,1-.952,1.256,3.6,3.6,0,0,1-1.314.671,4.857,4.857,0,0,1-1.452.178A5.261,5.261,0,0,1,20.4-1.555a3.5,3.5,0,0,1-1.325-.654,3.371,3.371,0,0,1-.952-1.268,4.735,4.735,0,0,1-.367-1.974V-17.6h-2.7V-6.185A7.093,7.093,0,0,0,15.5-3.609,5.062,5.062,0,0,0,16.81-1.67,6.078,6.078,0,0,0,18.916-.436,8.465,8.465,0,0,0,21.744,0a7.248,7.248,0,0,0,5.135-1.658,5.9,5.9,0,0,0,1.773-4.527ZM33.4-7.826H41.6V-.9q0,.711-.023.9h2.754L44.3-11.44a7.012,7.012,0,0,0-.448-2.576,5.149,5.149,0,0,0-1.314-1.939,5.992,5.992,0,0,0-2.117-1.234,8.542,8.542,0,0,0-2.823-.436,7.248,7.248,0,0,0-5.135,1.658,5.9,5.9,0,0,0-1.773,4.527V-3.1q0,1.377-.011,2.146T30.649,0h2.777Zm0-4.349a4.679,4.679,0,0,1,.361-1.956,3.37,3.37,0,0,1,.952-1.256,3.663,3.663,0,0,1,1.314-.671,4.85,4.85,0,0,1,1.457-.178,5.213,5.213,0,0,1,1.463.166,3.553,3.553,0,0,1,1.331.654,3.294,3.294,0,0,1,.952,1.268,4.8,4.8,0,0,1,.361,1.974V-8.9H33.4Zm36.409,8.95a9.563,9.563,0,0,1-2.335,1.159,7.77,7.77,0,0,1-2.461.4,8.2,8.2,0,0,1-3.11-.568,6.856,6.856,0,0,1-2.387-1.589A6.964,6.964,0,0,1,58-6.254a8.849,8.849,0,0,1-.528-3.121,8.5,8.5,0,0,1,.436-2.76,6.53,6.53,0,0,1,1.245-2.209A5.671,5.671,0,0,1,61.142-15.8a6.42,6.42,0,0,1,2.656-.528,14.969,14.969,0,0,1,2.209.258,11.273,11.273,0,0,1,1.583.436,8.939,8.939,0,0,1,1.188.528q.516.281,1.056.511.069-.448.155-1.033t.155-.941a21.269,21.269,0,0,0-3.265-.855,17.9,17.9,0,0,0-3.127-.293,10.473,10.473,0,0,0-3.551.6,8.607,8.607,0,0,0-2.926,1.738,8.326,8.326,0,0,0-2,2.788,9.018,9.018,0,0,0-.74,3.735A8.977,8.977,0,0,0,55.3-5.066a8.077,8.077,0,0,0,2.077,2.788,8.86,8.86,0,0,0,3.081,1.7A12.114,12.114,0,0,0,64.223,0,9.08,9.08,0,0,0,65.5-.1,13.84,13.84,0,0,0,66.96-.4q.74-.189,1.457-.448A7.491,7.491,0,0,0,69.7-1.434ZM71.636.023h2.708V-7.826h5.427V.023h2.7V-17.648h-2.7V-8.9H74.344v-8.744H71.636ZM95.365-5.45A4.679,4.679,0,0,1,95-3.494a3.37,3.37,0,0,1-.952,1.256,3.658,3.658,0,0,1-1.32.671,4.857,4.857,0,0,1-1.452.178,5.261,5.261,0,0,1-1.474-.166,3.5,3.5,0,0,1-1.325-.654,3.321,3.321,0,0,1-.947-1.268,4.8,4.8,0,0,1-.361-1.974V-17.6H84.465V-6.185a7.012,7.012,0,0,0,.448,2.576A5.149,5.149,0,0,0,86.226-1.67a6.017,6.017,0,0,0,2.1,1.234A8.5,8.5,0,0,0,91.166,0,7.248,7.248,0,0,0,96.3-1.658a5.9,5.9,0,0,0,1.773-4.527V-17.6H95.365Zm6.162-2.375h8.193V-.9q0,.711-.023.9h2.754l-.023-11.44a7.012,7.012,0,0,0-.448-2.576,5.149,5.149,0,0,0-1.314-1.939,5.992,5.992,0,0,0-2.117-1.234,8.542,8.542,0,0,0-2.823-.436,7.248,7.248,0,0,0-5.135,1.658,5.9,5.9,0,0,0-1.773,4.527V-3.1q0,1.377-.011,2.146T98.773,0h2.777Zm0-4.349a4.679,4.679,0,0,1,.361-1.956,3.37,3.37,0,0,1,.952-1.256,3.663,3.663,0,0,1,1.314-.671,4.85,4.85,0,0,1,1.457-.178,5.213,5.213,0,0,1,1.463.166,3.553,3.553,0,0,1,1.331.654,3.294,3.294,0,0,1,.952,1.268,4.8,4.8,0,0,1,.361,1.974V-8.9h-8.193Zm30.5-6.391-.482.872q-.482.872-1.268,2.3t-1.8,3.253q-1.01,1.824-2.06,3.741t-2.06,3.735q-1.01,1.819-1.784,3.253T121.321.9a8.845,8.845,0,0,0-.459.872h1.193A7.025,7.025,0,0,0,122.606.9q.516-.872,1.36-2.306t1.928-3.253q1.084-1.819,2.2-3.735t2.2-3.741q1.084-1.824,1.916-3.253t1.348-2.3l.516-.872Zm9.8,5.519a3.755,3.755,0,0,0,.872,2.507A6.072,6.072,0,0,0,145.5-8.7L149.2-7.355a2.808,2.808,0,0,1,1.044.643,3.745,3.745,0,0,1,.66.872,4.12,4.12,0,0,1,.367.929,3.324,3.324,0,0,1,.12.8,2.736,2.736,0,0,1-.235,1.308,2.035,2.035,0,0,1-.717.815,3.092,3.092,0,0,1-1.084.425,6.69,6.69,0,0,1-1.325.126q-.849-.023-1.612-.115a9.185,9.185,0,0,1-1.457-.293,7.493,7.493,0,0,1-1.343-.534,6.018,6.018,0,0,1-1.234-.849q-.092.574-.161,1.113t-.161.964q1.572.493,3.133.832a14.951,14.951,0,0,0,3.178.339,7.427,7.427,0,0,0,2.2-.316,5.438,5.438,0,0,0,1.784-.918,4.669,4.669,0,0,0,1.222-1.446,4.352,4.352,0,0,0,.5-1.922,5.126,5.126,0,0,0-.126-1.308,4.3,4.3,0,0,0-.528-1.291,5.213,5.213,0,0,0-.975-1.165,5.033,5.033,0,0,0-1.446-.9l-3.477-1.457a9.528,9.528,0,0,1-1.228-.585A6.092,6.092,0,0,1,145.292-12a4.131,4.131,0,0,1-.706-.786,1.433,1.433,0,0,1-.27-.8,2.018,2.018,0,0,1,.258-1.113,2.481,2.481,0,0,1,.763-.809A3.591,3.591,0,0,1,146.456-16a7.081,7.081,0,0,1,1.314-.212q1.182.184,2,.361a12.257,12.257,0,0,1,1.457.4,9.98,9.98,0,0,1,1.153.482,10.247,10.247,0,0,1,1.056.614q.138-1.159.321-2.054a17.785,17.785,0,0,0-3.178-.9,19.033,19.033,0,0,0-3.328-.27,7.5,7.5,0,0,0-4,1.188A3.923,3.923,0,0,0,141.826-13.047Zm16.73-4.578h-2.708V.023h2.708Zm4.693,5.45a4.679,4.679,0,0,1,.361-1.956,3.4,3.4,0,0,1,.947-1.256,3.6,3.6,0,0,1,1.314-.671,4.9,4.9,0,0,1,1.463-.178,5.213,5.213,0,0,1,1.463.166,3.553,3.553,0,0,1,1.331.654,3.294,3.294,0,0,1,.952,1.268,4.8,4.8,0,0,1,.361,1.974V-.023h2.708V-11.44a7.012,7.012,0,0,0-.448-2.576,5.118,5.118,0,0,0-1.32-1.939,6.061,6.061,0,0,0-2.117-1.234,8.491,8.491,0,0,0-2.817-.436,7.248,7.248,0,0,0-5.135,1.658,5.9,5.9,0,0,0-1.773,4.527V-.023h2.708ZM176.135.023h2.708V-7.826h5.427V.023h2.7V-17.648h-2.7V-8.9h-5.427v-8.744h-2.708ZM211.1-15.858v-1.767H196.48v1.767h5.967V0h2.708V-15.858Zm15.158,4.395a7.012,7.012,0,0,0-.448-2.576,5.118,5.118,0,0,0-1.32-1.939,6.061,6.061,0,0,0-2.117-1.234,8.491,8.491,0,0,0-2.817-.436,7.248,7.248,0,0,0-5.135,1.658,5.9,5.9,0,0,0-1.773,4.527v5.278a5.9,5.9,0,0,0,1.773,4.527A7.248,7.248,0,0,0,219.555,0a8.491,8.491,0,0,0,2.817-.436,6.061,6.061,0,0,0,2.117-1.234,5.118,5.118,0,0,0,1.32-1.939,7.012,7.012,0,0,0,.448-2.576Zm-10.9,6.013V-12.2a4.719,4.719,0,0,1,.361-1.962,3.337,3.337,0,0,1,.947-1.256,3.65,3.65,0,0,1,1.314-.666,4.9,4.9,0,0,1,1.463-.178,5.213,5.213,0,0,1,1.463.166,3.553,3.553,0,0,1,1.331.654,3.294,3.294,0,0,1,.952,1.268,4.8,4.8,0,0,1,.361,1.974V-5.45a4.8,4.8,0,0,1-.361,1.974,3.294,3.294,0,0,1-.952,1.268,3.553,3.553,0,0,1-1.331.654,5.213,5.213,0,0,1-1.463.166,4.9,4.9,0,0,1-1.463-.178,3.6,3.6,0,0,1-1.314-.671,3.4,3.4,0,0,1-.947-1.256A4.679,4.679,0,0,1,215.355-5.45Zm6.242-21.79-4.647,3.316.379.723q5.382-1.8,5.519-1.951A13.508,13.508,0,0,0,221.6-27.241Zm1.365,8.09-3.454-4.3L216.124-19.2l.161.4,3.27-1.974,3.247,2.02Zm23.018.585-.482.872q-.482.872-1.268,2.3t-1.8,3.253q-1.01,1.824-2.06,3.741t-2.06,3.735q-1.01,1.819-1.784,3.253T235.275.9a8.843,8.843,0,0,0-.459.872h1.193A7.025,7.025,0,0,0,236.561.9q.516-.872,1.36-2.306t1.928-3.253q1.084-1.819,2.2-3.735t2.2-3.741q1.084-1.824,1.916-3.253t1.348-2.3l.516-.872Zm12.76,6.391a4.679,4.679,0,0,1,.361-1.956,3.4,3.4,0,0,1,.947-1.256,3.6,3.6,0,0,1,1.314-.671,4.9,4.9,0,0,1,1.463-.178,5.213,5.213,0,0,1,1.463.166,3.553,3.553,0,0,1,1.331.654,3.294,3.294,0,0,1,.952,1.268,4.8,4.8,0,0,1,.361,1.974V-.023h2.708V-11.44a7.012,7.012,0,0,0-.448-2.576,5.118,5.118,0,0,0-1.32-1.939,6.061,6.061,0,0,0-2.117-1.234,8.491,8.491,0,0,0-2.817-.436,7.248,7.248,0,0,0-5.135,1.658,5.9,5.9,0,0,0-1.773,4.527V-.023h2.708ZM282.528-5.45a4.679,4.679,0,0,1-.361,1.956,3.37,3.37,0,0,1-.952,1.256,3.658,3.658,0,0,1-1.32.671,4.857,4.857,0,0,1-1.452.178,5.261,5.261,0,0,1-1.474-.166,3.5,3.5,0,0,1-1.325-.654,3.321,3.321,0,0,1-.947-1.268,4.8,4.8,0,0,1-.361-1.974V-17.6h-2.708V-6.185a7.012,7.012,0,0,0,.448,2.576,5.149,5.149,0,0,0,1.314,1.939,6.017,6.017,0,0,0,2.1,1.234,8.5,8.5,0,0,0,2.84.436,7.248,7.248,0,0,0,5.135-1.658,5.9,5.9,0,0,0,1.773-4.527V-17.6h-2.708Zm3.178-12.461a.95.95,0,0,1-.264.557,3.132,3.132,0,0,1-.545.482,4.747,4.747,0,0,1-.591.356,2.383,2.383,0,0,0-.356.2q-.184.092-.143.224l.04.132a13.056,13.056,0,0,0,1.337-.671,4.508,4.508,0,0,0,.866-.643,2.8,2.8,0,0,0,.516-.671,3.8,3.8,0,0,0,.3-.746,1.733,1.733,0,0,0,.046-.419,1.037,1.037,0,0,0-.109-.459,1.4,1.4,0,0,0-.3-.407,1.233,1.233,0,0,0-.516-.275,1,1,0,0,0-.889.132,1.446,1.446,0,0,0-.511.8,1.018,1.018,0,0,0-.017.39.987.987,0,0,0,.161.407,1.365,1.365,0,0,0,.373.367A1.7,1.7,0,0,0,285.706-17.912ZM290.193-5.45V-12.2a4.719,4.719,0,0,1,.361-1.962,3.337,3.337,0,0,1,.947-1.256,3.65,3.65,0,0,1,1.314-.666,4.9,4.9,0,0,1,1.463-.178,5.213,5.213,0,0,1,1.463.166,3.553,3.553,0,0,1,1.331.654,3.294,3.294,0,0,1,.952,1.268,4.8,4.8,0,0,1,.361,1.974V-5.45a4.8,4.8,0,0,1-.361,1.974,3.294,3.294,0,0,1-.952,1.268,3.553,3.553,0,0,1-1.331.654,5.213,5.213,0,0,1-1.463.166,4.9,4.9,0,0,1-1.463-.178,3.6,3.6,0,0,1-1.314-.671,3.4,3.4,0,0,1-.947-1.256A4.679,4.679,0,0,1,290.193-5.45Zm6.242-17.981-4.647,3.316.379.723q5.382-1.8,5.519-1.951A13.506,13.506,0,0,0,296.435-23.431Zm2.088,6.839.069-.046a4.583,4.583,0,0,0,.866-.637,2.732,2.732,0,0,0,.522-.671,3.352,3.352,0,0,0,.287-.746,1.3,1.3,0,0,0,.052-.419,1.153,1.153,0,0,0-.109-.459,1.315,1.315,0,0,0-.3-.407,1.234,1.234,0,0,0-.528-.275.982.982,0,0,0-.884.132,1.46,1.46,0,0,0-.5.8.833.833,0,0,0-.023.39,1.057,1.057,0,0,0,.166.407,1.394,1.394,0,0,0,.367.367,1.649,1.649,0,0,0,.614.247.95.95,0,0,1-.264.557,3.046,3.046,0,0,1-.539.476l-.138.092a6.918,6.918,0,0,0-.964-.425,8.542,8.542,0,0,0-2.823-.436,7.248,7.248,0,0,0-5.135,1.658,5.9,5.9,0,0,0-1.773,4.527v5.278a5.9,5.9,0,0,0,1.773,4.527A7.248,7.248,0,0,0,294.393,0a8.491,8.491,0,0,0,2.817-.436,6.061,6.061,0,0,0,2.117-1.234,5.118,5.118,0,0,0,1.32-1.939,7.012,7.012,0,0,0,.448-2.576v-5.278a7.012,7.012,0,0,0-.448-2.576,5.169,5.169,0,0,0-1.32-1.945A5.824,5.824,0,0,0,298.523-16.592ZM318.512-3.224a9.563,9.563,0,0,1-2.335,1.159,7.769,7.769,0,0,1-2.461.4,8.2,8.2,0,0,1-3.11-.568,6.856,6.856,0,0,1-2.387-1.589A6.964,6.964,0,0,1,306.7-6.254a8.848,8.848,0,0,1-.528-3.121,8.5,8.5,0,0,1,.436-2.76,6.53,6.53,0,0,1,1.245-2.209,5.671,5.671,0,0,1,1.985-1.457,6.42,6.42,0,0,1,2.656-.528,14.969,14.969,0,0,1,2.209.258,11.273,11.273,0,0,1,1.583.436,8.939,8.939,0,0,1,1.188.528q.516.281,1.056.511.069-.448.155-1.033t.155-.941a21.269,21.269,0,0,0-3.265-.855,17.9,17.9,0,0,0-3.127-.293,10.474,10.474,0,0,0-3.551.6,8.607,8.607,0,0,0-2.926,1.738,8.326,8.326,0,0,0-2,2.788,9.018,9.018,0,0,0-.74,3.735A8.977,8.977,0,0,0,304-5.066a8.077,8.077,0,0,0,2.077,2.788,8.86,8.86,0,0,0,3.081,1.7A12.115,12.115,0,0,0,312.924,0,9.08,9.08,0,0,0,314.2-.1,13.84,13.84,0,0,0,315.661-.4q.74-.189,1.457-.448a7.491,7.491,0,0,0,1.279-.591ZM340.28-1.3h-4.957a5.967,5.967,0,0,1-1.463-.184,3.224,3.224,0,0,1-1.3-.666,3.583,3.583,0,0,1-.935-1.262,4.639,4.639,0,0,1-.361-1.951V-8.9h6.414V-9.983H331.26V-12.6q0-.964.023-1.641a3.908,3.908,0,0,1,.172-1.113,1.341,1.341,0,0,1,.47-.671,1.866,1.866,0,0,1,.884-.3H340.3v-1.3h-11.75V-6.1a5.877,5.877,0,0,0,1.738,4.481,7.121,7.121,0,0,0,5.032,1.67h4.957Zm-2.192-22.135-4.647,3.316.379.723q5.382-1.8,5.519-1.951A13.506,13.506,0,0,0,338.088-23.431Zm10.786,5.783a7.356,7.356,0,0,0-5.043,1.572,5.731,5.731,0,0,0-1.865,4.3V0h2.708V-6.908a7.975,7.975,0,0,0,4.2.987,7.006,7.006,0,0,0,4.842-1.561,5.813,5.813,0,0,0,1.859-4.292,5.852,5.852,0,0,0-1.859-4.3A6.973,6.973,0,0,0,348.874-17.648Zm-4.2,5.45a4.719,4.719,0,0,1,.361-1.962,3.337,3.337,0,0,1,.947-1.256,3.65,3.65,0,0,1,1.314-.666,4.9,4.9,0,0,1,1.463-.178,5.213,5.213,0,0,1,1.463.166,3.553,3.553,0,0,1,1.331.654,3.294,3.294,0,0,1,.952,1.268,4.8,4.8,0,0,1,.361,1.974v.826a4.76,4.76,0,0,1-.361,1.968,3.352,3.352,0,0,1-.952,1.268,3.508,3.508,0,0,1-1.331.66,5.213,5.213,0,0,1-1.463.166,5.044,5.044,0,0,1-1.411-.155,3.622,3.622,0,0,1-1.279-.608A3.4,3.4,0,0,1,345.1-9.22a4.18,4.18,0,0,1-.43-1.807Z"
      transform="translate(736 61)" fill="#606060" />
  </g>
</svg>
