<svg xmlns="http://www.w3.org/2000/svg" width="160.692" height="13.043" viewBox="0 0 160.692 13.043">
  <g id="Group_435" data-name="Group 435" transform="translate(-1641.652 -998.609)">
    <rect id="Rectangle_123" data-name="Rectangle 123" width="160.692" height="13.043" rx="6.522" transform="translate(1641.652 998.609)" fill="#17a31e"/>
    <g id="Group_434" data-name="Group 434">
      <g id="Group_433" data-name="Group 433">
        <path id="Path_4267" data-name="Path 4267" d="M1647,1002.452h1.194l-.835,4.16h2.571l-.2.967h-3.757Z" fill="#fff"/>
        <path id="Path_4268" data-name="Path 4268" d="M1655.274,1004.341l-.645,3.238h-1.084l.081-.425a1.837,1.837,0,0,1-1.282.483,1.27,1.27,0,0,1-1.413-1.34,2.22,2.22,0,0,1,.052-.476l.431-2.183h1.143l-.418,2.11a1.407,1.407,0,0,0-.029.285c0,.4.213.616.66.616a1.081,1.081,0,0,0,1.1-1.011l.4-2h.6a.429.429,0,0,0,.439-.461.7.7,0,0,0-.147-.44l.674-.249a1.235,1.235,0,0,1,.235.733A1.085,1.085,0,0,1,1655.274,1004.341Z" fill="#fff"/>
        <path id="Path_4269" data-name="Path 4269" d="M1660.859,1003.638l-.784,3.941h-1.084l.081-.425a1.842,1.842,0,0,1-1.283.483,1.271,1.271,0,0,1-1.413-1.34,2.22,2.22,0,0,1,.052-.476l.432-2.183H1658l-.418,2.11a1.406,1.406,0,0,0-.029.285c0,.4.213.616.66.616a1.08,1.08,0,0,0,1.1-1.011l.4-2Z" fill="#fff"/>
        <path id="Path_4270" data-name="Path 4270" d="M1668.63,1003.638l-2.622,4.2c-.578.931-1.047,1.216-1.8,1.216a1.685,1.685,0,0,1-1.069-.344l.527-.82a.937.937,0,0,0,.63.241c.3,0,.492-.139.71-.483l.037-.066-.908-3.948h1.143l.586,2.681,1.64-2.681Zm-1.992-.505h-.923l1.1-1.055h1.26Z" fill="#fff"/>
        <path id="Path_4271" data-name="Path 4271" d="M1668.553,1006.978a.735.735,0,0,1,.762-.762.636.636,0,0,1,.666.66.745.745,0,0,1-.754.761A.646.646,0,0,1,1668.553,1006.978Zm.528-2.629a.734.734,0,0,1,.761-.762.636.636,0,0,1,.666.659.746.746,0,0,1-.754.762A.646.646,0,0,1,1669.081,1004.349Z" fill="#fff"/>
        <path id="Path_4272" data-name="Path 4272" d="M1679.294,1004.59a2.926,2.926,0,0,1-3.193,2.989H1673.6l.44-2.212h-.7l.16-.791h.7l.425-2.124h2.146C1678.35,1002.452,1679.294,1003.279,1679.294,1004.59Zm-1.2.066c0-.761-.491-1.23-1.458-1.23h-1.017l-.227,1.15h1.273l-.153.791h-1.282l-.248,1.238h1.156A1.843,1.843,0,0,0,1678.093,1004.656Z" fill="#fff"/>
        <path id="Path_4273" data-name="Path 4273" d="M1684.716,1003.638l-.784,3.941h-1.084l.074-.388a1.757,1.757,0,0,1-1.209.446,1.659,1.659,0,0,1-1.7-1.765,2.19,2.19,0,0,1,2.176-2.292,1.408,1.408,0,0,1,1.281.593l.1-.535Zm-1.494,1.758a.816.816,0,0,0-.9-.871,1.18,1.18,0,0,0-1.157,1.3.816.816,0,0,0,.9.871A1.18,1.18,0,0,0,1683.222,1005.4Zm-.96,3.157a.532.532,0,0,1-.556.564.439.439,0,0,1-.469-.454.559.559,0,0,1,.556-.55A.443.443,0,0,1,1682.262,1008.553Zm-.563-6.365a.574.574,0,0,1,.007-.11h.7a.51.51,0,0,0,.579.52.647.647,0,0,0,.681-.52h.739a1.4,1.4,0,0,1-1.487,1.114C1682.219,1003.192,1681.7,1002.8,1681.7,1002.188Z" fill="#fff"/>
        <path id="Path_4274" data-name="Path 4274" d="M1686.9,1006.187a.579.579,0,0,0-.016.161c0,.242.133.381.418.381a.909.909,0,0,0,.461-.139l.169.813a1.873,1.873,0,0,1-.981.234,1.093,1.093,0,0,1-1.231-1.1,1.915,1.915,0,0,1,.037-.345l.315-1.589h-.608l.176-.879h.607l.191-.959h1.142l-.19.959h.981l-.175.879h-.982Z" fill="#fff"/>
        <path id="Path_4275" data-name="Path 4275" d="M1692.889,1006.187a.579.579,0,0,0-.016.161c0,.242.133.381.418.381a.906.906,0,0,0,.461-.139l.169.813a1.871,1.871,0,0,1-.981.234,1.093,1.093,0,0,1-1.231-1.1,1.835,1.835,0,0,1,.038-.345l.314-1.589h-.607l.175-.879h.608l.19-.959h1.143l-.191.959h.982l-.176.879h-.981Z" fill="#fff"/>
        <path id="Path_4276" data-name="Path 4276" d="M1698.129,1003.58l-.205,1.054c-.1-.007-.168-.014-.263-.014a1.155,1.155,0,0,0-1.252,1.054l-.381,1.9h-1.143l.783-3.941h1.084l-.095.469A1.87,1.87,0,0,1,1698.129,1003.58Z" fill="#fff"/>
        <path id="Path_4277" data-name="Path 4277" d="M1703.02,1004.341l-.645,3.238h-1.084l.081-.425a1.84,1.84,0,0,1-1.282.483,1.27,1.27,0,0,1-1.414-1.34,2.279,2.279,0,0,1,.051-.476l.433-2.183h1.142l-.417,2.11a1.34,1.34,0,0,0-.029.285c0,.4.212.616.658.616a1.082,1.082,0,0,0,1.1-1.011l.4-2h.6a.429.429,0,0,0,.439-.461.711.711,0,0,0-.146-.44l.673-.249a1.229,1.229,0,0,1,.235.733A1.086,1.086,0,0,1,1703.02,1004.341Z" fill="#fff"/>
        <path id="Path_4278" data-name="Path 4278" d="M1707.849,1004.3a1.6,1.6,0,0,1,.337,1.04,2.261,2.261,0,0,1-2.373,2.292,1.772,1.772,0,0,1-1.984-1.765,2.263,2.263,0,0,1,2.379-2.292c.557,0,.791.066,1.15.066a.484.484,0,0,0,.5-.476.785.785,0,0,0-.147-.44l.674-.249a1.213,1.213,0,0,1,.235.732A1.081,1.081,0,0,1,1707.849,1004.3Zm-.813,1.091a.81.81,0,0,0-.893-.871,1.18,1.18,0,0,0-1.158,1.3.816.816,0,0,0,.9.871A1.179,1.179,0,0,0,1707.036,1005.4Zm-.307-2.263h-.924l1.1-1.055h1.259Z" fill="#fff"/>
        <path id="Path_4279" data-name="Path 4279" d="M1708.981,1005.872a2.274,2.274,0,0,1,2.4-2.292,1.827,1.827,0,0,1,1.772,1l-.967.483a.9.9,0,0,0-.879-.534,1.188,1.188,0,0,0-1.172,1.289.826.826,0,0,0,.916.878,1.088,1.088,0,0,0,.967-.527l.842.527a2.169,2.169,0,0,1-1.875.945A1.78,1.78,0,0,1,1708.981,1005.872Z" fill="#fff"/>
        <path id="Path_4280" data-name="Path 4280" d="M1721.44,1003.235h-.534l-.865,4.344h-1.084l.081-.4a1.743,1.743,0,0,1-1.208.454,1.66,1.66,0,0,1-1.7-1.765,2.19,2.19,0,0,1,2.175-2.292,1.438,1.438,0,0,1,1.276.578l.182-.923h-1.341l.133-.659h1.34l.088-.432h1.142l-.087.432h.527Zm-2.1,2.161a.816.816,0,0,0-.9-.871,1.18,1.18,0,0,0-1.158,1.3.816.816,0,0,0,.9.871A1.18,1.18,0,0,0,1719.338,1005.4Z" fill="#fff"/>
        <path id="Path_4281" data-name="Path 4281" d="M1725.743,1005.316a3.122,3.122,0,0,1-.066.6h-3.017c.036.535.366.806,1.018.806a1.622,1.622,0,0,0,1.055-.366l.475.754a2.609,2.609,0,0,1-1.647.527,1.78,1.78,0,0,1-2.015-1.765,2.223,2.223,0,0,1,2.322-2.292A1.69,1.69,0,0,1,1725.743,1005.316Zm-2.241-2.176h-.857l1.1-.835h.989l.856.835h-.827l-.564-.417Zm-.761,2.11h1.955a.785.785,0,0,0-.879-.813A1.08,1.08,0,0,0,1722.741,1005.25Zm3.31-3.384a.811.811,0,0,1-.6.71l-.248-.271c.248-.11.314-.227.314-.344s-.08-.176-.213-.176a.788.788,0,0,0-.344.088l-.138-.359a1.275,1.275,0,0,1,.615-.154C1725.809,1001.36,1726.051,1001.558,1726.051,1001.866Z" fill="#fff"/>
        <path id="Path_4282" data-name="Path 4282" d="M1728.938,1005.872a2.274,2.274,0,0,1,2.4-2.292,1.827,1.827,0,0,1,1.772,1l-.967.483a.9.9,0,0,0-.879-.534,1.188,1.188,0,0,0-1.172,1.289.826.826,0,0,0,.916.878,1.088,1.088,0,0,0,.967-.527l.842.527a2.169,2.169,0,0,1-1.875.945A1.78,1.78,0,0,1,1728.938,1005.872Z" fill="#fff"/>
        <path id="Path_4283" data-name="Path 4283" d="M1738.038,1004.927a2.153,2.153,0,0,1-.051.469l-.44,2.183h-1.142l.425-2.11a1.211,1.211,0,0,0,.029-.271c0-.4-.22-.63-.674-.63a1.09,1.09,0,0,0-1.12,1.011l-.4,2h-1.142l1.084-5.435h1.142l-.365,1.853a1.874,1.874,0,0,1,1.215-.417A1.283,1.283,0,0,1,1738.038,1004.927Z" fill="#fff"/>
        <path id="Path_4284" data-name="Path 4284" d="M1743.7,1003.638l-.785,3.941h-1.084l.081-.425a1.837,1.837,0,0,1-1.282.483,1.27,1.27,0,0,1-1.413-1.34,2.22,2.22,0,0,1,.052-.476l.432-2.183h1.142l-.418,2.11a1.406,1.406,0,0,0-.029.285c0,.4.213.616.66.616a1.081,1.081,0,0,0,1.1-1.011l.4-2Z" fill="#fff"/>
        <path id="Path_4285" data-name="Path 4285" d="M1747.983,1003.638h1.142l-.783,3.941h-1.084l.073-.388a1.758,1.758,0,0,1-1.209.446,1.659,1.659,0,0,1-1.7-1.765,2.19,2.19,0,0,1,2.175-2.292,1.409,1.409,0,0,1,1.282.593Zm-.352,1.758a.816.816,0,0,0-.9-.871,1.18,1.18,0,0,0-1.158,1.3.816.816,0,0,0,.9.871A1.18,1.18,0,0,0,1747.631,1005.4Zm-.988-2.263h-.857l1.1-.835h.989l.857.835h-.827l-.565-.418Zm1.457-1.267-.139-.359a1.27,1.27,0,0,1,.616-.154c.373,0,.615.2.615.506a.813.813,0,0,1-.6.71l-.248-.271c.248-.11.315-.227.315-.344s-.08-.176-.213-.176A.767.767,0,0,0,1748.1,1001.866Z" fill="#fff"/>
        <path id="Path_4286" data-name="Path 4286" d="M1754.27,1004.92a2.283,2.283,0,0,1-.052.476l-.439,2.183h-1.143l.425-2.11a1.278,1.278,0,0,0,.029-.271c0-.4-.219-.63-.674-.63a1.092,1.092,0,0,0-1.121,1.011l-.394,2h-1.143l.783-3.941h1.084l-.087.425a1.878,1.878,0,0,1,1.3-.483A1.278,1.278,0,0,1,1754.27,1004.92Z" fill="#fff"/>
        <path id="Path_4287" data-name="Path 4287" d="M1762.321,1005.345a2.192,2.192,0,0,1-2.184,2.292,1.414,1.414,0,0,1-1.318-.644l-.117.586h-1.084l1.084-5.435h1.142l-.365,1.831a1.736,1.736,0,0,1,1.135-.395A1.665,1.665,0,0,1,1762.321,1005.345Zm-1.158.051a.816.816,0,0,0-.9-.871,1.179,1.179,0,0,0-1.15,1.3.81.81,0,0,0,.894.871A1.18,1.18,0,0,0,1761.163,1005.4Z" fill="#fff"/>
        <path id="Path_4288" data-name="Path 4288" d="M1762.872,1008.663a.559.559,0,0,1,.556-.55.443.443,0,0,1,.469.44.532.532,0,0,1-.557.564A.438.438,0,0,1,1762.872,1008.663Zm.945-5.025h1.135l-.784,3.941h-1.134Zm.1-1.142a.694.694,0,0,1,.753-.681.606.606,0,0,1,.674.571.7.7,0,0,1-.761.7A.611.611,0,0,1,1763.913,1002.5Z" fill="#fff"/>
        <path id="Path_4289" data-name="Path 4289" d="M1769.584,1006.187a.71.71,0,0,0-.013.161c0,.242.131.381.417.381a.918.918,0,0,0,.462-.139l.168.813a1.872,1.872,0,0,1-.982.234,1.092,1.092,0,0,1-1.23-1.1,1.912,1.912,0,0,1,.036-.345l.315-1.589h-.608l.176-.879h.608l.19-.959h1.143l-.19.959h.981l-.176.879h-.981Z" fill="#fff"/>
        <path id="Path_4290" data-name="Path 4290" d="M1775.9,1005.345a2.263,2.263,0,0,1-2.38,2.292,1.773,1.773,0,0,1-1.985-1.765,2.268,2.268,0,0,1,2.381-2.292A1.764,1.764,0,0,1,1775.9,1005.345Zm-1.156.051a.811.811,0,0,0-.9-.871,1.179,1.179,0,0,0-1.156,1.3.815.815,0,0,0,.9.871A1.18,1.18,0,0,0,1774.739,1005.4Zm-1.165-2.263h-.857l1.1-.835h.989l.857.835h-.828l-.563-.418Zm3.574-1.589-1.245.886h-.858l.909-.886Z" fill="#fff"/>
        <path id="Path_4291" data-name="Path 4291" d="M1778.163,1006.187a.579.579,0,0,0-.016.161c0,.242.133.381.418.381a.912.912,0,0,0,.461-.139l.169.813a1.874,1.874,0,0,1-.982.234,1.092,1.092,0,0,1-1.23-1.1,1.821,1.821,0,0,1,.037-.345l.314-1.589h-.607l.176-.879h.607l.191-.959h1.142l-.19.959h.981l-.176.879h-.981Z" fill="#fff"/>
        <path id="Path_4292" data-name="Path 4292" d="M1787.108,1004.927a2.22,2.22,0,0,1-.052.469l-.439,2.183h-1.143l.425-2.11a1.278,1.278,0,0,0,.029-.271c0-.4-.22-.63-.674-.63a1.092,1.092,0,0,0-1.121,1.011l-.394,2H1782.6l1.084-5.435h1.143l-.367,1.853a1.874,1.874,0,0,1,1.216-.417A1.283,1.283,0,0,1,1787.108,1004.927Z" fill="#fff"/>
        <path id="Path_4293" data-name="Path 4293" d="M1792.157,1004.3a1.6,1.6,0,0,1,.337,1.04,2.262,2.262,0,0,1-2.373,2.292,1.773,1.773,0,0,1-1.986-1.765,2.264,2.264,0,0,1,2.381-2.292c.557,0,.791.066,1.15.066a.484.484,0,0,0,.5-.476.792.792,0,0,0-.146-.44l.674-.249a1.218,1.218,0,0,1,.234.732A1.082,1.082,0,0,1,1792.157,1004.3Zm-.813,1.091a.81.81,0,0,0-.894-.871,1.18,1.18,0,0,0-1.157,1.3.816.816,0,0,0,.9.871A1.179,1.179,0,0,0,1791.344,1005.4Z" fill="#fff"/>
        <path id="Path_4294" data-name="Path 4294" d="M1797.727,1004.92a2.283,2.283,0,0,1-.052.476l-.439,2.183h-1.143l.425-2.11a1.278,1.278,0,0,0,.029-.271c0-.4-.219-.63-.674-.63a1.092,1.092,0,0,0-1.121,1.011l-.394,2h-1.143l.783-3.941h1.084l-.087.425a1.878,1.878,0,0,1,1.3-.483A1.278,1.278,0,0,1,1797.727,1004.92Z" fill="#fff"/>
      </g>
    </g>
  </g>
</svg>
