<svg xmlns="http://www.w3.org/2000/svg" width="49.02" height="22.153" viewBox="0 0 49.02 22.153">
  <g id="Group_393" data-name="Group 393" transform="translate(-1745.123 -1128.967)">
    <path id="Path_4171" data-name="Path 4171" d="M1745.123,1144.307h5.7l2.265,6.813,4.061-6.813h37v-15.34h-49.02Z" fill="#cb158b"/>
    <g id="Group_392" data-name="Group 392">
      <g id="Group_391" data-name="Group 391">
        <path id="Path_4172" data-name="Path 4172" d="M1755.168,1136.153a3.066,3.066,0,0,1-3.346,3.132H1749.2l.461-2.318h-.73l.169-.829h.73l.444-2.226h2.249C1754.178,1133.912,1755.168,1134.779,1755.168,1136.153Zm-1.258.069c0-.8-.515-1.289-1.528-1.289h-1.067l-.237,1.2h1.335l-.162.829h-1.342l-.261,1.3h1.212A1.932,1.932,0,0,0,1753.91,1136.222Z" fill="#fff"/>
        <path id="Path_4173" data-name="Path 4173" d="M1760.852,1135.155l-.821,4.13h-1.137l.077-.407a1.84,1.84,0,0,1-1.266.468,1.739,1.739,0,0,1-1.781-1.849,2.3,2.3,0,0,1,2.28-2.4,1.474,1.474,0,0,1,1.342.622l.108-.561Zm-1.566,1.843a.856.856,0,0,0-.945-.914,1.237,1.237,0,0,0-1.212,1.359.855.855,0,0,0,.944.913A1.237,1.237,0,0,0,1759.286,1137Zm-1.005,3.308a.559.559,0,0,1-.584.591.46.46,0,0,1-.491-.476.586.586,0,0,1,.583-.576A.465.465,0,0,1,1758.281,1140.306Zm-.592-6.67a.548.548,0,0,1,.008-.115h.729a.535.535,0,0,0,.607.545.678.678,0,0,0,.714-.545h.775a1.464,1.464,0,0,1-1.559,1.166C1758.234,1134.687,1757.689,1134.28,1757.689,1133.636Z" fill="#fff"/>
        <path id="Path_4174" data-name="Path 4174" d="M1763.143,1137.826a.638.638,0,0,0-.016.169c0,.254.138.4.438.4a.956.956,0,0,0,.483-.146l.177.852a1.965,1.965,0,0,1-1.028.245,1.145,1.145,0,0,1-1.29-1.151,2,2,0,0,1,.038-.361l.33-1.665h-.637l.185-.921h.636l.2-1.006h1.2l-.2,1.006h1.028l-.184.921h-1.029Z" fill="#fff"/>
        <path id="Path_4175" data-name="Path 4175" d="M1769.418,1137.826a.678.678,0,0,0-.015.169c0,.254.137.4.437.4a.962.962,0,0,0,.484-.146l.176.852a1.962,1.962,0,0,1-1.028.245,1.145,1.145,0,0,1-1.29-1.151,2.093,2.093,0,0,1,.038-.361l.33-1.665h-.636l.184-.921h.637l.2-1.006h1.2l-.2,1.006h1.028l-.183.921h-1.03Z" fill="#fff"/>
        <path id="Path_4176" data-name="Path 4176" d="M1774.912,1135.094l-.215,1.1c-.108-.007-.177-.015-.277-.015a1.211,1.211,0,0,0-1.312,1.1l-.4,2h-1.2l.821-4.13h1.136l-.1.492A1.961,1.961,0,0,1,1774.912,1135.094Z" fill="#fff"/>
        <path id="Path_4177" data-name="Path 4177" d="M1780.036,1135.892l-.676,3.393h-1.136l.084-.446a1.926,1.926,0,0,1-1.343.507,1.331,1.331,0,0,1-1.481-1.4,2.313,2.313,0,0,1,.054-.5l.453-2.288h1.2l-.438,2.211a1.418,1.418,0,0,0-.031.3c0,.415.223.645.692.645a1.133,1.133,0,0,0,1.151-1.059l.422-2.1h.629a.45.45,0,0,0,.461-.483.737.737,0,0,0-.154-.46l.706-.262a1.292,1.292,0,0,1,.246.768A1.138,1.138,0,0,1,1780.036,1135.892Z" fill="#fff"/>
        <path id="Path_4178" data-name="Path 4178" d="M1785.1,1135.854a1.671,1.671,0,0,1,.353,1.09,2.371,2.371,0,0,1-2.487,2.4,1.858,1.858,0,0,1-2.08-1.849,2.373,2.373,0,0,1,2.494-2.4c.584,0,.829.069,1.2.069a.508.508,0,0,0,.523-.5.823.823,0,0,0-.154-.46l.706-.261a1.269,1.269,0,0,1,.246.768A1.132,1.132,0,0,1,1785.1,1135.854Zm-.852,1.144a.85.85,0,0,0-.937-.914,1.237,1.237,0,0,0-1.212,1.359.855.855,0,0,0,.943.913A1.235,1.235,0,0,0,1784.246,1137Zm-.323-2.372h-.967l1.152-1.1h1.32Z" fill="#fff"/>
        <path id="Path_4179" data-name="Path 4179" d="M1786.285,1137.5a2.383,2.383,0,0,1,2.517-2.4,1.916,1.916,0,0,1,1.858,1.044l-1.014.507a.943.943,0,0,0-.921-.561,1.246,1.246,0,0,0-1.228,1.351.866.866,0,0,0,.959.921,1.14,1.14,0,0,0,1.014-.553l.882.553a2.272,2.272,0,0,1-1.965.99A1.865,1.865,0,0,1,1786.285,1137.5Z" fill="#fff"/>
      </g>
    </g>
  </g>
</svg>
