<svg xmlns="http://www.w3.org/2000/svg" width="117.449" height="7.588" viewBox="0 0 117.449 7.588">
  <g id="Group_410" data-name="Group 410" transform="translate(-625.25 -843.412)">
    <g id="Group_409" data-name="Group 409">
      <path id="Path_4773" data-name="Path 4773" d="M625.25,849.075l.4-.9a3.016,3.016,0,0,0,1.692.535c.7,0,.988-.234.988-.549,0-.96-2.98-.3-2.98-2.205,0-.871.7-1.6,2.16-1.6a3.432,3.432,0,0,1,1.78.454l-.366.9a2.905,2.905,0,0,0-1.421-.4c-.7,0-.974.263-.974.586,0,.945,2.981.293,2.981,2.175,0,.857-.711,1.589-2.176,1.589A3.662,3.662,0,0,1,625.25,849.075Z" fill="#df071b"/>
      <path id="Path_4774" data-name="Path 4774" d="M634.582,846.3v3.281H633.5v-.468a1.6,1.6,0,0,1-1.223.527,1.571,1.571,0,0,1-1.685-1.772v-2.227h1.143V847.7c0,.658.293.951.8.951.527,0,.908-.336.908-1.062v-1.948h.608a.429.429,0,0,0,.44-.461.7.7,0,0,0-.147-.439l.674-.25a1.18,1.18,0,0,1,.235.732A1.076,1.076,0,0,1,634.582,846.3Zm-2.828-1.194h-.578c.015-.652.344-1.069.857-1.069s.761.469,1.025.469c.2,0,.337-.154.352-.4h.579c-.015.631-.345,1.048-.858,1.048s-.761-.462-1.025-.462C631.909,844.694,631.769,844.84,631.754,845.1Z" fill="#df071b"/>
      <path id="Path_4775" data-name="Path 4775" d="M639.527,847.33v2.249h-1.07v-.491a1.291,1.291,0,0,1-1.2.55c-.923,0-1.472-.513-1.472-1.194s.491-1.179,1.692-1.179h.908c0-.491-.293-.776-.908-.776a1.89,1.89,0,0,0-1.136.366l-.41-.8a3.019,3.019,0,0,1,1.7-.477C638.831,845.58,639.527,846.137,639.527,847.33Zm-1.143,1v-.4H637.6c-.534,0-.7.2-.7.461,0,.285.242.476.644.476A.842.842,0,0,0,638.384,848.334Z" fill="#df071b"/>
      <path id="Path_4776" data-name="Path 4776" d="M643.073,847.61a2.037,2.037,0,0,1,2.2-2.03,1.812,1.812,0,0,1,1.765,1l-.886.476a.982.982,0,0,0-.887-.542,1.093,1.093,0,0,0,0,2.183.971.971,0,0,0,.887-.542l.886.483a1.828,1.828,0,0,1-1.765,1A2.037,2.037,0,0,1,643.073,847.61Z" fill="#df071b"/>
      <path id="Path_4777" data-name="Path 4777" d="M652.06,847.324v2.255h-1.143V847.5c0-.637-.293-.93-.8-.93-.55,0-.946.338-.946,1.062v1.948h-1.142v-5.434h1.142v1.9a1.736,1.736,0,0,1,1.253-.469A1.545,1.545,0,0,1,652.06,847.324Z" fill="#df071b"/>
      <path id="Path_4778" data-name="Path 4778" d="M657.43,845.639v3.94h-1.084v-.468a1.6,1.6,0,0,1-1.223.527,1.571,1.571,0,0,1-1.685-1.772v-2.227h1.143V847.7c0,.658.293.951.8.951.528,0,.909-.336.909-1.062v-1.948Z" fill="#df071b"/>
      <path id="Path_4779" data-name="Path 4779" d="M662.345,847.33v2.249h-1.069v-.491a1.29,1.29,0,0,1-1.2.55c-.923,0-1.472-.513-1.472-1.194s.49-1.179,1.691-1.179h.909c0-.491-.293-.776-.909-.776a1.884,1.884,0,0,0-1.134.366l-.411-.8a3.02,3.02,0,0,1,1.7-.477C661.65,845.58,662.345,846.137,662.345,847.33Zm-1.142,1v-.4h-.784c-.535,0-.7.2-.7.461,0,.285.241.476.645.476A.84.84,0,0,0,661.2,848.334Z" fill="#df071b"/>
      <path id="Path_4780" data-name="Path 4780" d="M667.832,843.412h1.018l-2.417,6.9h-1.017Z" fill="#df071b"/>
      <path id="Path_4781" data-name="Path 4781" d="M671.54,849.075l.4-.9a3.016,3.016,0,0,0,1.692.535c.7,0,.989-.234.989-.549,0-.96-2.981-.3-2.981-2.205,0-.871.7-1.6,2.16-1.6a3.432,3.432,0,0,1,1.78.454l-.366.9a2.905,2.905,0,0,0-1.421-.4c-.7,0-.974.263-.974.586,0,.945,2.981.293,2.981,2.175,0,.857-.711,1.589-2.176,1.589A3.656,3.656,0,0,1,671.54,849.075Z" fill="#df071b"/>
      <path id="Path_4782" data-name="Path 4782" d="M676.762,844.452a.653.653,0,0,1,.71-.637.641.641,0,0,1,.711.615.713.713,0,0,1-1.421.022Zm.139,1.187h1.142v3.94H676.9Z" fill="#df071b"/>
      <path id="Path_4783" data-name="Path 4783" d="M683.5,847.324v2.255h-1.142V847.5c0-.637-.293-.93-.8-.93-.549,0-.944.338-.944,1.062v1.948h-1.143v-3.94h1.091v.461a1.729,1.729,0,0,1,1.3-.52A1.545,1.545,0,0,1,683.5,847.324Z" fill="#df071b"/>
      <path id="Path_4784" data-name="Path 4784" d="M688.929,847.324v2.255h-1.142V847.5c0-.637-.293-.93-.8-.93-.55,0-.946.338-.946,1.062v1.948H684.9v-5.434h1.142v1.9a1.737,1.737,0,0,1,1.253-.469A1.545,1.545,0,0,1,688.929,847.324Z" fill="#df071b"/>
      <path id="Path_4785" data-name="Path 4785" d="M695.31,849.389a1.634,1.634,0,0,1-.93.249,1.3,1.3,0,0,1-1.472-1.413v-1.619H692.3v-.879h.608v-.959h1.142v.959h.982v.879h-.982v1.6a.46.46,0,0,0,.491.521.771.771,0,0,0,.461-.147Z" fill="#df071b"/>
      <path id="Path_4786" data-name="Path 4786" d="M700.233,847.61a2.169,2.169,0,1,1-2.161-2.03A2.023,2.023,0,0,1,700.233,847.61Zm-2.806-2.477h-.842l.974-.834h1l.975.834h-.843l-.63-.417Zm1.649,2.477a1.011,1.011,0,1,0-1,1.091A1,1,0,0,0,699.076,847.61Zm.688-3.18h-.828l.813-.886h1.165Z" fill="#df071b"/>
      <path id="Path_4787" data-name="Path 4787" d="M705.449,843.412h1.018l-2.417,6.9h-1.018Z" fill="#df071b"/>
      <path id="Path_4788" data-name="Path 4788" d="M714.261,844.452v5.127h-.973l-2.557-3.112v3.112h-1.172v-5.127h.982l2.548,3.113v-3.113Z" fill="#df071b"/>
      <path id="Path_4789" data-name="Path 4789" d="M719.734,846.3v3.281H718.65v-.468a1.6,1.6,0,0,1-1.224.527,1.571,1.571,0,0,1-1.684-1.772v-2.227h1.142V847.7c0,.658.293.951.8.951.527,0,.908-.336.908-1.062v-1.948h.608a.429.429,0,0,0,.439-.461.7.7,0,0,0-.146-.439l.674-.25a1.186,1.186,0,0,1,.234.732A1.073,1.073,0,0,1,719.734,846.3Z" fill="#df071b"/>
      <path id="Path_4790" data-name="Path 4790" d="M725.155,847.61A2.169,2.169,0,1,1,723,845.58c.381,0,.6.067.872.067a.436.436,0,0,0,.468-.477.739.739,0,0,0-.153-.439l.666-.249a1.226,1.226,0,0,1,.249.732,1.021,1.021,0,0,1-.557.945A1.948,1.948,0,0,1,725.155,847.61Zm-1.157,0a1.011,1.011,0,1,0-1,1.091A1,1,0,0,0,724,847.61Zm-.777-2.477h-.893l.988-1.055h1.23Z" fill="#df071b"/>
      <path id="Path_4791" data-name="Path 4791" d="M725.991,847.61a2.037,2.037,0,0,1,2.2-2.03,1.812,1.812,0,0,1,1.765,1l-.886.476a.982.982,0,0,0-.887-.542,1.093,1.093,0,0,0,0,2.183.972.972,0,0,0,.887-.542l.886.483a1.829,1.829,0,0,1-1.765,1A2.037,2.037,0,0,1,725.991,847.61Z" fill="#df071b"/>
      <path id="Path_4792" data-name="Path 4792" d="M737.256,847.932h-2.981a1.051,1.051,0,0,0,1.128.791,1.337,1.337,0,0,0,.989-.381L737,849a2.3,2.3,0,0,1-3.874-1.39,2.007,2.007,0,0,1,2.1-2.03,1.951,1.951,0,0,1,2.051,2.043C737.278,847.711,737.263,847.836,737.256,847.932Zm-3-.667H736.2a.985.985,0,0,0-1.942,0Zm1.172-2.132h-.893l.989-1.055h1.23Z" fill="#df071b"/>
      <path id="Path_4793" data-name="Path 4793" d="M742.7,847.61a1.914,1.914,0,0,1-1.963,2.028,1.529,1.529,0,0,1-1.187-.476V851h-1.142v-5.361H739.5v.454a1.525,1.525,0,0,1,1.237-.513A1.914,1.914,0,0,1,742.7,847.61Zm-1.158,0a1.007,1.007,0,1,0-1,1.091A.994.994,0,0,0,741.541,847.61Z" fill="#df071b"/>
    </g>
  </g>
</svg>
