<svg xmlns="http://www.w3.org/2000/svg" width="152.105" height="7.618" viewBox="0 0 152.105 7.618">
  <g id="Group_417" data-name="Group 417" transform="translate(-625.075 -1071.541)">
    <g id="Group_416" data-name="Group 416">
      <path id="Path_4971" data-name="Path 4971" d="M626.715,1073.46h-1.64v-.966h4.467v.966H627.9v4.16h-1.187Z" fill="#df071b"/>
      <path id="Path_4972" data-name="Path 4972" d="M632.824,1073.621v1.055c-.095-.008-.168-.015-.256-.015a.969.969,0,0,0-1.048,1.1v1.86h-1.143v-3.94h1.092v.52A1.591,1.591,0,0,1,632.824,1073.621Z" fill="#df071b"/>
      <path id="Path_4973" data-name="Path 4973" d="M637.336,1075.371v2.249h-1.069v-.491a1.292,1.292,0,0,1-1.2.55c-.923,0-1.473-.513-1.473-1.194,0-.7.491-1.179,1.693-1.179h.908c0-.491-.293-.776-.908-.776a1.89,1.89,0,0,0-1.136.366l-.41-.8a3.017,3.017,0,0,1,1.7-.477C636.64,1073.621,637.336,1074.178,637.336,1075.371Zm-2.006-2.2L634,1072.119h1.231l.989,1.055Zm.864,3.2v-.4h-.784c-.535,0-.7.2-.7.461,0,.285.242.476.644.476A.842.842,0,0,0,636.194,1076.375Z" fill="#df071b"/>
      <path id="Path_4974" data-name="Path 4974" d="M643.716,1077.43a1.633,1.633,0,0,1-.929.249,1.3,1.3,0,0,1-1.473-1.413v-1.619h-.607v-.879h.607v-.959h1.143v.959h.981v.879h-.981v1.6a.46.46,0,0,0,.491.521.771.771,0,0,0,.461-.147Z" fill="#df071b"/>
      <path id="Path_4975" data-name="Path 4975" d="M648.756,1075.365v2.255h-1.142v-2.08c0-.637-.293-.93-.8-.93-.55,0-.945.338-.945,1.062v1.948h-1.143v-5.434h1.143v1.9a1.734,1.734,0,0,1,1.253-.469A1.545,1.545,0,0,1,648.756,1075.365Z" fill="#df071b"/>
      <path id="Path_4976" data-name="Path 4976" d="M653.643,1075.371v2.249h-1.069v-.491a1.292,1.292,0,0,1-1.2.55c-.923,0-1.473-.513-1.473-1.194,0-.7.491-1.179,1.692-1.179h.908c0-.491-.293-.776-.908-.776a1.887,1.887,0,0,0-1.135.366l-.411-.8a3.022,3.022,0,0,1,1.7-.477C652.947,1073.621,653.643,1074.178,653.643,1075.371Zm-1.143,1v-.4h-.784c-.534,0-.7.2-.7.461,0,.285.242.476.645.476A.84.84,0,0,0,652.5,1076.375Zm-1.179-4.123-.235-.462a1.271,1.271,0,0,1,.791-.249.793.793,0,0,1,.879.784.982.982,0,0,1-.674.923l-.358-.38c.285-.133.373-.28.373-.448a.31.31,0,0,0-.344-.307A.775.775,0,0,0,651.321,1072.252Z" fill="#df071b"/>
      <path id="Path_4977" data-name="Path 4977" d="M654.793,1075.651a2.169,2.169,0,1,1,2.168,2.028A2.028,2.028,0,0,1,654.793,1075.651Zm3.171,0a1.01,1.01,0,1,0-1,1.091A.994.994,0,0,0,657.964,1075.651Z" fill="#df071b"/>
      <path id="Path_4978" data-name="Path 4978" d="M669.348,1075.365v2.255h-1.142v-2.08c0-.637-.287-.93-.748-.93-.512,0-.872.33-.872,1.033v1.977h-1.142v-2.08c0-.637-.271-.93-.747-.93-.505,0-.865.33-.865,1.033v1.977H662.69v-3.94h1.092v.454a1.6,1.6,0,0,1,1.237-.513,1.471,1.471,0,0,1,1.3.645,1.773,1.773,0,0,1,1.421-.645A1.527,1.527,0,0,1,669.348,1075.365Z" fill="#df071b"/>
      <path id="Path_4979" data-name="Path 4979" d="M674.821,1075.651a2.169,2.169,0,1,1-2.161-2.03A2.022,2.022,0,0,1,674.821,1075.651Zm-2.813-2.477h-.835l.967-1.055h1.011l.967,1.055h-.835l-.638-.556Zm1.656,2.477a1.011,1.011,0,1,0-1,1.091A1,1,0,0,0,673.664,1075.651Zm-.513,3.017a.506.506,0,0,1-1.011,0,.506.506,0,1,1,1.011,0Z" fill="#df071b"/>
      <path id="Path_4980" data-name="Path 4980" d="M675.657,1075.651a2.037,2.037,0,0,1,2.2-2.03,1.812,1.812,0,0,1,1.765,1l-.886.476a.982.982,0,0,0-.887-.542,1.093,1.093,0,0,0,0,2.183.971.971,0,0,0,.887-.542l.886.483a1.828,1.828,0,0,1-1.765,1A2.037,2.037,0,0,1,675.657,1075.651Z" fill="#df071b"/>
      <path id="Path_4981" data-name="Path 4981" d="M687.1,1072.186v5.434h-1.091v-.454a1.517,1.517,0,0,1-1.23.513,2.03,2.03,0,0,1,0-4.058,1.516,1.516,0,0,1,1.179.477v-1.912Zm-1.12,3.465a1.011,1.011,0,1,0-1,1.091A1,1,0,0,0,685.978,1075.651Z" fill="#df071b"/>
      <path id="Path_4982" data-name="Path 4982" d="M692.49,1074.339v3.281h-1.084v-.468a1.6,1.6,0,0,1-1.224.527,1.571,1.571,0,0,1-1.684-1.772v-2.227h1.142v2.059c0,.658.293.951.8.951.527,0,.908-.336.908-1.062v-1.948h.608a.429.429,0,0,0,.439-.461.7.7,0,0,0-.146-.439l.673-.25a1.18,1.18,0,0,1,.235.732A1.074,1.074,0,0,1,692.49,1074.339Z" fill="#df071b"/>
      <path id="Path_4983" data-name="Path 4983" d="M697.911,1075.651a2.169,2.169,0,1,1-2.154-2.03c.381,0,.6.067.871.067a.436.436,0,0,0,.469-.477.739.739,0,0,0-.153-.439l.666-.249a1.226,1.226,0,0,1,.249.732,1.021,1.021,0,0,1-.557.945A1.948,1.948,0,0,1,697.911,1075.651Zm-2.953-2.506h-.5c.008-.651.3-1.068.741-1.068s.666.468.893.468c.168,0,.293-.154.3-.4h.506c-.015.631-.3,1.048-.747,1.048s-.659-.462-.887-.462C695.1,1072.735,694.973,1072.881,694.958,1073.145Zm1.795,2.506a1.01,1.01,0,1,0-1,1.091A.995.995,0,0,0,696.753,1075.651Z" fill="#df071b"/>
      <path id="Path_4984" data-name="Path 4984" d="M703.068,1075.365v2.255h-1.143v-2.08c0-.637-.293-.93-.8-.93-.548,0-.944.338-.944,1.062v1.948H699.04v-3.94h1.09v.461a1.731,1.731,0,0,1,1.3-.52A1.545,1.545,0,0,1,703.068,1075.365Z" fill="#df071b"/>
      <path id="Path_4985" data-name="Path 4985" d="M708.577,1073.68v3.281a1.929,1.929,0,0,1-2.212,2.139,3.253,3.253,0,0,1-1.934-.542l.454-.82a2.361,2.361,0,0,0,1.392.446c.8,0,1.157-.365,1.157-1.076v-.168a1.624,1.624,0,0,1-1.245.49,1.906,1.906,0,1,1,0-3.809,1.584,1.584,0,0,1,1.3.565v-.506Zm-1.128,1.846a1.04,1.04,0,1,0-1.033.967A.958.958,0,0,0,707.449,1075.526Z" fill="#df071b"/>
      <path id="Path_4986" data-name="Path 4986" d="M712.064,1077.254l.381-.82a2.706,2.706,0,0,0,1.37.381c.527,0,.725-.139.725-.36,0-.644-2.38.016-2.38-1.559,0-.747.673-1.275,1.823-1.275a3.25,3.25,0,0,1,1.516.344l-.38.814a2.264,2.264,0,0,0-1.136-.293c-.513,0-.733.161-.733.366,0,.674,2.381.021,2.381,1.574,0,.733-.681,1.253-1.86,1.253A3.38,3.38,0,0,1,712.064,1077.254Z" fill="#df071b"/>
      <path id="Path_4987" data-name="Path 4987" d="M716.562,1072.494a.653.653,0,0,1,.71-.638.641.641,0,0,1,.711.615.714.714,0,0,1-1.421.023Zm.139,1.186h1.142v3.94H716.7Z" fill="#df071b"/>
      <path id="Path_4988" data-name="Path 4988" d="M723.3,1075.365v2.255h-1.142v-2.08c0-.637-.293-.93-.8-.93-.549,0-.944.338-.944,1.062v1.948h-1.143v-3.94h1.091v.461a1.727,1.727,0,0,1,1.3-.52A1.545,1.545,0,0,1,723.3,1075.365Z" fill="#df071b"/>
      <path id="Path_4989" data-name="Path 4989" d="M728.729,1075.365v2.255h-1.143v-2.08c0-.637-.293-.93-.8-.93-.55,0-.946.338-.946,1.062v1.948H724.7v-5.434h1.142v1.9a1.736,1.736,0,0,1,1.253-.469A1.545,1.545,0,0,1,728.729,1075.365Z" fill="#df071b"/>
      <path id="Path_4990" data-name="Path 4990" d="M732.649,1072.186h1.985v.893h-.843v5.069h.843v.893h-1.985Z" fill="#df071b"/>
      <path id="Path_4991" data-name="Path 4991" d="M743.4,1075.057a2.556,2.556,0,0,1-2.827,2.563h-2.329v-2.211h-.7v-.791h.7v-2.124h2.329A2.556,2.556,0,0,1,743.4,1075.057Zm-1.2,0a1.531,1.531,0,0,0-1.685-1.59h-1.084v1.151h1.282v.791h-1.282v1.238h1.084A1.531,1.531,0,0,0,742.2,1075.057Z" fill="#df071b"/>
      <path id="Path_4992" data-name="Path 4992" d="M748.069,1075.371v2.249H747v-.491a1.291,1.291,0,0,1-1.2.55c-.923,0-1.472-.513-1.472-1.194,0-.7.491-1.179,1.692-1.179h.908c0-.491-.293-.776-.908-.776a1.89,1.89,0,0,0-1.136.366l-.41-.8a3.019,3.019,0,0,1,1.7-.477C747.373,1073.621,748.069,1074.178,748.069,1075.371Zm-3.128-3.252h.718a.641.641,0,0,0,1.259,0h.718a1.372,1.372,0,0,1-2.7,0Zm1.985,4.256v-.4h-.784c-.534,0-.7.2-.7.461,0,.285.242.476.644.476A.842.842,0,0,0,746.926,1076.375Zm-.219,2.293a.506.506,0,0,1-1.011,0,.506.506,0,1,1,1.011,0Z" fill="#df071b"/>
      <path id="Path_4993" data-name="Path 4993" d="M749.219,1075.651a2.037,2.037,0,0,1,2.2-2.03,1.81,1.81,0,0,1,1.765,1l-.886.476a.982.982,0,0,0-.886-.542,1.093,1.093,0,0,0,0,2.183.971.971,0,0,0,.886-.542l.886.483a1.827,1.827,0,0,1-1.765,1A2.037,2.037,0,0,1,749.219,1075.651Z" fill="#df071b"/>
      <path id="Path_4994" data-name="Path 4994" d="M760.939,1075.651a1.914,1.914,0,0,1-1.963,2.028,1.53,1.53,0,0,1-1.237-.513v.454h-1.092v-5.434h1.143v1.912a1.53,1.53,0,0,1,1.186-.477A1.914,1.914,0,0,1,760.939,1075.651Zm-1.157,0a1.007,1.007,0,1,0-1,1.091A.994.994,0,0,0,759.782,1075.651Z" fill="#df071b"/>
      <path id="Path_4995" data-name="Path 4995" d="M761.929,1072.494a.653.653,0,0,1,.71-.638.641.641,0,0,1,.711.615.714.714,0,0,1-1.421.023Zm.139,1.186h1.142v3.94h-1.142Z" fill="#df071b"/>
      <path id="Path_4996" data-name="Path 4996" d="M768.477,1075.973H765.5a1.05,1.05,0,0,0,1.127.791,1.338,1.338,0,0,0,.989-.381l.608.658a2.3,2.3,0,0,1-3.875-1.39,2.007,2.007,0,0,1,2.1-2.03,1.95,1.95,0,0,1,2.05,2.043C768.5,1075.752,768.485,1075.877,768.477,1075.973Zm-2.687-2.8h-.835l.966-1.055h1.011l.967,1.055h-.835l-.638-.556Zm-.308,2.132h1.94a.984.984,0,0,0-1.94,0Zm1.45,3.362a.506.506,0,0,1-1.011,0,.506.506,0,1,1,1.011,0Z" fill="#df071b"/>
      <path id="Path_4997" data-name="Path 4997" d="M772.169,1077.43a1.633,1.633,0,0,1-.929.249,1.3,1.3,0,0,1-1.473-1.413v-1.619h-.607v-.879h.607v-.959h1.143v.959h.981v.879h-.981v1.6a.46.46,0,0,0,.491.521.771.771,0,0,0,.461-.147Z" fill="#df071b"/>
      <path id="Path_4998" data-name="Path 4998" d="M775.2,1079.041v-.893h.835v-5.069H775.2v-.893h1.977v6.855Z" fill="#df071b"/>
    </g>
  </g>
</svg>
