<svg xmlns="http://www.w3.org/2000/svg" width="27.644" height="6.094" viewBox="0 0 27.644 6.094">
  <g id="Group_579" data-name="Group 579" transform="translate(-625.075 -1172.836)">
    <g id="Group_423" data-name="Group 423">
      <path id="Path_5221" data-name="Path 5221" d="M626.715,1174.711h-1.64v-.967h4.467v.967H627.9v4.16h-1.187Z" fill="#df071b"/>
      <path id="Path_5222" data-name="Path 5222" d="M632.824,1174.872v1.055c-.095-.007-.168-.015-.256-.015a.968.968,0,0,0-1.048,1.1v1.86h-1.143v-3.94h1.092v.521A1.591,1.591,0,0,1,632.824,1174.872Z" fill="#df071b"/>
      <path id="Path_5223" data-name="Path 5223" d="M637.336,1176.623v2.248h-1.069v-.49a1.294,1.294,0,0,1-1.2.549c-.923,0-1.473-.513-1.473-1.193,0-.7.491-1.18,1.693-1.18h.908c0-.49-.293-.776-.908-.776a1.9,1.9,0,0,0-1.136.366l-.41-.8a3.033,3.033,0,0,1,1.7-.476C636.64,1174.872,637.336,1175.429,637.336,1176.623Zm-2.006-2.2L634,1173.371h1.231l.989,1.055Zm.864,3.2v-.4h-.784c-.535,0-.7.2-.7.462,0,.286.242.475.644.475A.842.842,0,0,0,636.194,1177.626Z" fill="#df071b"/>
      <path id="Path_5224" data-name="Path 5224" d="M644.662,1176.623v2.248h-1.07v-.49a1.294,1.294,0,0,1-1.2.549c-.923,0-1.473-.513-1.473-1.193,0-.7.492-1.18,1.693-1.18h.908c0-.49-.293-.776-.908-.776a1.9,1.9,0,0,0-1.136.366l-.41-.8a3.035,3.035,0,0,1,1.7-.476C643.965,1174.872,644.662,1175.429,644.662,1176.623Zm-2.411-2.2h-.841l.973-.836h1l.975.836h-.843l-.63-.418Zm1.268,3.2v-.4h-.784c-.534,0-.7.2-.7.462,0,.286.242.475.644.475A.842.842,0,0,0,643.519,1177.626Zm1.069-3.9h-.828l.814-.887h1.164Z" fill="#df071b"/>
      <path id="Path_5225" data-name="Path 5225" d="M652.719,1176.616v2.255h-1.142v-2.08c0-.636-.286-.929-.747-.929-.513,0-.873.329-.873,1.032v1.977h-1.142v-2.08c0-.636-.271-.929-.747-.929-.505,0-.864.329-.864,1.032v1.977h-1.143v-3.94h1.092v.454a1.6,1.6,0,0,1,1.237-.513,1.469,1.469,0,0,1,1.3.645,1.77,1.77,0,0,1,1.421-.645A1.527,1.527,0,0,1,652.719,1176.616Z" fill="#df071b"/>
    </g>
  </g>
</svg>
